<svg xmlns:xlink="http://www.w3.org/1999/xlink" viewBox="0 0 301.794 413.438"
    xmlns="http://www.w3.org/2000/svg">
    <defs>
        <linearGradient gradientUnits="objectBoundingBox" id="a" x1=".496" x2=".496" y1="-.021"
            y2="1.001">
            <stop offset="0" stop-color="#098096"/>
            <stop offset="1" stop-color="#63b3ff"/>
        </linearGradient>
        <linearGradient id="b" x1=".854" x2=".5" y1="-.052" y2="1" xlink:href="#a"/>
        <linearGradient gradientUnits="objectBoundingBox" id="c" x1="1.036" x2=".5" y1=".251"
            y2="1">
            <stop offset="0" stop-color="#b1f0ca"/>
            <stop offset="1" stop-color="#7adc9a"/>
        </linearGradient>
    </defs>
    <g transform="translate(2 -8.563)">
        <ellipse cx="15" cy="4" fill="#32314f" opacity=".172" rx="15" ry="4"
            transform="translate(93 414)"/>
        <ellipse cx="10" cy="2.75" data-name="shadow" fill="#32314f" opacity=".172" rx="10"
            ry="2.75" transform="translate(152 415)"/>
        <g data-name="person">
            <path
                d="M254.75 115.237s2.33-14.576 5.291-22.1 4.45-12.449 4.45-12.449 2.5-1.836 2.114 1.832a106.585 106.585 0 0 1-2.114 10.619s6.209 1.549 8.3 3.065-.948 6.518-3.87 13.118-5.921 12.47-5.921 12.47z"
                data-name="Path 28" fill="#ffe1ca"/>
            <path
                d="M98.735 114.161s-2.33-14.576-5.291-22.1-4.45-12.449-4.45-12.449-2.5-1.836-2.114 1.832a106.585 106.585 0 0 0 2.114 10.619s-6.209 1.549-8.3 3.065.948 6.518 3.87 13.118 5.921 12.47 5.921 12.47z"
                data-name="Path 28 Copy" fill="#ffe1ca"/>
            <path
                d="M.759 174.04s-4.23-82.533 15.114-145.135S52.3 39.282 52.3 39.282s-1.852 19.24-4.115 24.131-13.859 31.1-17.948 42.213-10.69 27.389-14.368 36.887S4.533 169.491 5.491 174.04s-4.732 0-4.732 0z"
                data-name="Path 26" fill="url(#a)" transform="translate(107 217)"/>
            <path
                d="M4.386 46.41c0-13.4-5.93-32.586-4-40.442S41.064.6 41.064.6s.489 39.58-3.818 48.385-23.007 28.908-23.007 28.908-2.231-10.085-6.968-9.815-6.109 5.342-6.109 5.342a23.217 23.217 0 0 1 1.355-9.569C4.386 58.6 4.386 59.815 4.386 46.41z"
                data-name="Path 27" fill="url(#b)" transform="translate(150.45 254)"/>
            <path
                d="M0 5.544C6.429 5.544 12.6 0 12.6 0s13 45.737 45.347 61.067c17.249 10.494 31.291 14.006 49.427 3.4C128.718 65.838 164.013 31.078 167.566 0c.988 4.447 9.093 6.439 11.664 6.439-3.614 15.783-13.324 56.3-64.823 80.56-12.945 10.181-7.03 43.946-1 59.766-8.419 7.206-49.714 14.733-87.8-5.973 8.23-3.873 24.033-42.713 12.825-62.5C16.907 53.409 4.692 20.974 0 5.544z"
                data-name="Path 24" fill="url(#c)" transform="translate(87.335 110.355)"/>
            <path
                d="M133 218.5c0-9.945 4.29-18.7 10.792-23.8A14.928 14.928 0 0 1 139 184c0-5.073 2.811-9.628 7.268-12.743 2.49-3.414 5.068-7.311 5.757-9.652 1.08-3.673.17-10.234-.341-13.229A17.631 17.631 0 0 1 151 143.5c0-10.217 8.73-18.5 19.5-18.5s19.5 8.283 19.5 18.5a17.633 17.633 0 0 1-.311 3.3c4.785 2.669 7.992 7 8.288 11.946a2.3 2.3 0 0 1 .17.428c2.044 7.276-3.789 18.885-8.332 22.826a7.522 7.522 0 0 0-2.322 3.817C191.507 188.9 194 193.222 194 198s-2.507 9.121-6.54 12.21c4.5 11.021 1.94 22.92-6.621 28.064a17.163 17.163 0 0 1-8.782 2.421A21.692 21.692 0 0 1 157 247c-13.255 0-24-12.76-24-28.5z"
                data-name="Combined Shape" fill="#19232f"/>
            <path d="M163 308.747c2.381-.963 9.046-1.321 11.87.963" fill="none" opacity=".385"
                stroke="#356bb0" stroke-linecap="round" stroke-miterlimit="10"/>
        </g>
        <path
            d="M289.127 302.899a56.867 56.867 0 0 1-5.707 3.674c-3.764 2.032-8.535 2.06-8.624 1.863-.486-1.073 4.084-6.046 7.258-6.657 2.852-.549 7.073 1.12 7.073 1.12z"
            data-name="Path 12" fill="#ffb883"/>
        <path
            d="M267.015 251.649s10.057 21.235 29.439 25.26c-.031 3.438-1.682 9.816-7.086 25.626-.755 2.21-7.274-.74-7.274-.74s-4.32 7.745-6.942 6.625c-15.155-6.474-21.519-12.869-23.644-21.338.43-13.927 15.507-35.433 15.507-35.433z"
            data-name="Path 9" fill="#ffdf87"/>
        <g data-name="paper">
            <path
                d="M21.649 44.764c9.842 3.343 15.69 14.68 18.035 26.187a212.954 212.954 0 0 0 27.073-22.526c.395-.392.999-1.961 1.322-2.376 1.955-2.51.78-5.143.734-6.518-2.252-6.772-3.273-12.8-8.518-18.378a35.7 35.7 0 0 0-6.332-5.642c-5.136 1.782-9.52 10.24-32.314 29.253z"
                data-name="Path 10" fill="#ff96bc"/>
            <path
                d="M63.357 41.32c2.861-.177 5.574 4.816 2.811 7.744a10.822 10.822 0 0 0 3.244-8.17c-.05-2.276-.21-12.917-15.443-25.344 12.42 11.014 15.71 19.466 9.388 25.77z"
                data-name="Path 11" fill="#f46da0"/>
        </g>
        <g fill="none" opacity=".38" stroke="#707070" stroke-linecap="round" stroke-miterlimit="10"
            stroke-width="4">
            <path d="M245 383.392c13.964-9.659 21.507-26.821 10.753-37.392" data-name="Path 32"/>
            <path d="M0 354c8.636 9.054 38.827 21.572 77.655 23.145" data-name="Path 29"/>
            <path d="M152 380.376s77.248-1.176 78.643-24.786-29.675-21.742-26.369-10.871"
                data-name="Path 31"/>
            <path d="M141 405.243s43.734 3 71.466-7.243" data-name="Path 33"/>
            <path d="M11 386s27.072 12.966 54.145 13.974" data-name="Path 30"/>
        </g>
    </g>
</svg>
