<svg data-name="logos/visa" height="23" id="logos_visa" viewBox="0 0 67 23" width="67"
    xmlns="http://www.w3.org/2000/svg">
    <path d="M5.538,22H0L3.461,0H9L5.538,22" data-name="Fill 1" fill="#005c9c" id="Fill_1"
        transform="translate(24 1)"/>
    <path
        d="M19.084,0,13.842,15.131l-.62-3.258h0l-1.85-9.892A2.389,2.389,0,0,0,8.765,0H.1L0,.372A20.06,20.06,0,0,1,5.75,2.888L10.526,22h5.728L25,0H19.084"
        data-name="Fill 2" fill="#005c9c" id="Fill_2" transform="translate(0 1)"/>
    <path
        d="M5.566,22H0L7.965,1.64A2.5,2.5,0,0,1,10.43,0h4.294L19,22H14.1l-.626-3.267H6.681L5.567,22Zm5.46-16.016L8.219,14.218H12.6Z"
        data-name="Fill 3" fill="#005c9c" id="Fill_3" transform="translate(48 1)"/>
    <path
        d="M16.189,5.491,17,.927A16.806,16.806,0,0,0,11.886,0C9.064,0,2.363,1.2,2.363,7.036c0,5.491,7.864,5.56,7.864,8.443s-7.054,2.368-9.382.549L0,20.8A16.3,16.3,0,0,0,6.419,22c3.88,0,9.734-1.956,9.734-7.276,0-5.526-7.936-6.041-7.936-8.443s5.538-2.094,7.971-.789"
        data-name="Fill 4" fill="#005c9c" id="Fill_4" transform="translate(33)"/>
    <path
        d="M14,12,12.041,2A2.487,2.487,0,0,0,9.28,0H.107L0,.376A22.622,22.622,0,0,1,8.639,4.689,17.337,17.337,0,0,1,14,12"
        data-name="Fill 5" fill="#ee9f3f" id="Fill_5" transform="translate(0 1)"/>
</svg>
