<svg height="43" id="voucher" viewBox="0 0 54 43" width="54" xmlns="http://www.w3.org/2000/svg">
    <path
        d="M45,.974V20.026a.971.971,0,0,1-.967.974H.967A.971.971,0,0,1,0,20.026V.974A.971.971,0,0,1,.967,0H44.033A.971.971,0,0,1,45,.974Z"
        fill="#ff7258" id="Shape" transform="translate(5 17)"/>
    <path
        d="M27,0V10.4l-2.324.644-2.311,2.219A2.66,2.66,0,0,1,20.524,14a2.7,2.7,0,0,1-.65-.079l-3.129-.785-3.129.785a2.717,2.717,0,0,1-.651.079,2.659,2.659,0,0,1-1.841-.738L8.812,11.043,5.7,10.183a2.619,2.619,0,0,1-1.827-1.8L3,5.327.751,3.053A2.572,2.572,0,0,1,.082.593L.236,0Z"
        data-name="Shape" fill="#f95d48" id="Shape-2" transform="translate(23 17)"/>
    <path
        d="M45,.974V20.026a.971.971,0,0,1-.967.974H.967A.971.971,0,0,1,0,20.026V.974A.971.971,0,0,1,.967,0H44.033A.971.971,0,0,1,45,.974Z"
        data-name="Shape" fill="#00abe0" id="Shape-3" transform="translate(0 22)"/>
    <path
        d="M20,0V9.476a2.6,2.6,0,0,1-2.226.438l-3.2-.852-3.2.852A2.61,2.61,0,0,1,8.835,9.2L6.474,6.789,3.3,5.854A2.762,2.762,0,0,1,1.433,3.9L.542.58,0,0H20Z"
        data-name="Shape" fill="#099dd1" id="Shape-4" transform="translate(25 22)"/>
    <path
        d="M14.2.852,17.331.026A.8.8,0,0,1,18.1.241l2.311,2.335a.812.812,0,0,0,.35.209l3.107.9a.834.834,0,0,1,.566.587l.874,3.217a.856.856,0,0,0,.2.363l2.253,2.392a.871.871,0,0,1,.208.8l-.8,3.238a.878.878,0,0,0,0,.42l.8,3.238a.87.87,0,0,1-.208.8l-2.253,2.392a.857.857,0,0,0-.2.363l-.874,3.217a.834.834,0,0,1-.566.587l-3.108.905a.811.811,0,0,0-.35.209L18.1,28.759a.8.8,0,0,1-.773.215L14.2,28.148a.791.791,0,0,0-.4,0l-3.129.825a.8.8,0,0,1-.773-.215L7.586,26.425a.812.812,0,0,0-.35-.209L4.129,25.31a.834.834,0,0,1-.566-.587l-.874-3.217a.856.856,0,0,0-.2-.363L.233,18.751a.87.87,0,0,1-.208-.8l.8-3.238a.878.878,0,0,0,0-.419l-.8-3.238a.871.871,0,0,1,.208-.8L2.486,7.857a.858.858,0,0,0,.2-.363l.874-3.217a.834.834,0,0,1,.566-.587l3.107-.9a.812.812,0,0,0,.35-.209L9.9.241a.8.8,0,0,1,.773-.215L13.8.852A.793.793,0,0,0,14.2.852Z"
        data-name="Shape" fill="#ff7258" id="Shape-5" transform="translate(26 0)"/>
    <path
        d="M11,.945v9.11a.944.944,0,0,1-.944.945H.944A.944.944,0,0,1,0,10.055V.945A.944.944,0,0,1,.944,0h9.113A.944.944,0,0,1,11,.945Z"
        data-name="Shape" fill="#efefef" id="Shape-6" transform="translate(5 26)"/>
    <g id="Group" transform="translate(5 26)">
        <path
            d="M11.444.937v.3L7.025,5.456,5.723,6.7,1.3,10.914H.982A.96.96,0,0,1,0,9.976v-.3L4.421,5.457l1.3-1.242L10.143,0h.319A.96.96,0,0,1,11.444.937Z"
            data-name="Shape" fill="#e2e2e2" id="Shape-7" transform="translate(0.058 0.004)"/>
        <path
            d="M11.444,9.67v.306a.96.96,0,0,1-.982.937h-.319L5.723,6.7l-1.3-1.241L0,1.242v-.3A.96.96,0,0,1,.982,0H1.3L5.723,4.215l1.3,1.241Z"
            data-name="Shape" fill="#e2e2e2" id="Shape-8" transform="translate(0.058 0.004)"/>
        <path
            d="M16.593,1.758H.92A.9.9,0,0,1,0,.879.9.9,0,0,1,.92,0H16.593a.9.9,0,0,1,.92.879A.9.9,0,0,1,16.593,1.758Z"
            data-name="Shape" fill="#e2e2e2" id="Shape-9" transform="translate(14.392 4.871)"/>
    </g>
    <g data-name="Group" id="Group-2" transform="translate(19 7)">
        <path d="M16.471,1.813H.914A.907.907,0,1,1,.914,0H16.471a.907.907,0,1,1,0,1.813Z"
            data-name="Shape" fill="#efefef" id="Shape-10" transform="translate(0.098 27.093)"/>
        <path
            d="M2.8,5.561A2.781,2.781,0,1,1,2.8,0,2.8,2.8,0,0,1,5.6,2.78,2.8,2.8,0,0,1,2.8,5.561Zm0-3.748a.967.967,0,1,0,.975.967A.972.972,0,0,0,2.8,1.814Z"
            data-name="Shape" fill="#efefef" id="Shape-11" transform="translate(14.012 0.098)"/>
        <path
            d="M2.8,5.561A2.781,2.781,0,1,1,2.8,0,2.8,2.8,0,0,1,5.6,2.78,2.8,2.8,0,0,1,2.8,5.561Zm0-3.748a.967.967,0,1,0,.975.967A.972.972,0,0,0,2.8,1.814Z"
            data-name="Shape" fill="#efefef" id="Shape-12" transform="translate(21.322 8.56)"/>
        <path
            d="M10.457.265a.919.919,0,0,0-1.292,0L.268,9.094a.9.9,0,0,0,0,1.282.919.919,0,0,0,1.292,0l8.9-8.829A.9.9,0,0,0,10.457.265Z"
            data-name="Shape" fill="#efefef" id="Shape-13" transform="translate(15.107 1.789)"/>
    </g>
</svg>
