<svg xmlns="http://www.w3.org/2000/svg" viewBox="0 0 580.775 521.806"><g transform="translate(-931.113 -611.109)"><path d="M1187.014,611.109c9.065,2.39,18.195,4.414,26.687,8.749a84.191,84.191,0,0,1,21.068,15.659q84.006,83.673,167.673,167.687c11.775,11.845,18.328,26.689,20.458,43.3,3.5,27.329-5.739,50.091-25.115,69.147a25.561,25.561,0,0,0-1.876,2.307,67.83,67.83,0,0,1-4.63-6.44c-6.448-11.5-16.264-16.233-29.285-15.6-8.8.426-17.635,0-26.454.1a21.11,21.11,0,0,1-10.061-2.5c-6.019-3.157-11.8-6.778-17.659-10.232-8.861-5.22-17.423-11.02-27.3-14.281-7.066-2.333-10.206-1.322-14.427,4.835a210.642,210.642,0,0,0-17.6,31.756c-2.674,5.846-4.57,12.125-8.512,17.365q0-37.113-.033-74.225c0-1.914.708-4.011-.857-5.721q-.023-60.169,0-120.34a21.052,21.052,0,0,0-4.153-13.045,27.547,27.547,0,0,0-23.155-11.561q-61.918.01-123.837-.007c-9.65-.005-19.3-.129-28.949-.2.248-2.24,2.114-3.318,3.488-4.7q29.82-29.877,59.71-59.684a77.032,77.032,0,0,1,37.015-20.306c1.347-.326,2.7-.238,2.809-2.072Z" fill="#e2ecfc"/><path d="M1408.928,1132.915c-10.351-20.717-22.693-39.735-45.733-48.187-11.015-4.041-22.813-5.593-33.959-9.5-17.957-6.287-35.343-13.67-51.191-24.318-3.156-2.12-6.046-4.637-9.059-6.971-4-4.732-9.039-8.2-14.139-11.578-10.007-6.622-22.859-8.494-30.861-18.473a21.969,21.969,0,0,0-1.7-3.04c-4.485-5.727-5.294-11.508-.927-17.779,3.592-5.159,3.278-10.945,1.889-16.762-.5-2.086-1.529-4.075-1.148-6.32a415.456,415.456,0,0,1,40.9,8.965c-.169,3.295-1.529,7.223-.2,9.721,1.582,2.972,6.02.64,9.11,1.43,1.121.286,2.239.586,3.363.857,5.342,1.286,10.074,3.946,15.994,4.278,6.946.389,12.028-.649,15.743-6.585,12.327,2.648,24.663,5.249,36.977,7.955q37.917,8.331,75.814,16.758c1.261.279,3.209,1.227,3.551-.282,1.192-5.259,4.476-2.774,7.306-2.4,5.107.68,10.209,3.736,15.354.128,6.48,14.171,11.819,28.84,20.634,41.939,11.4,16.943,23.775,33.147,36.054,49.433,2.99,3.965,6.123,7.823,9.19,11.73v1a39.953,39.953,0,0,0-6.416.6c-21.15,3.908-42.342,7.59-63.5,11.461-10.041,1.837-20.033,3.944-30.046,5.929Z" fill="#fbd0c3"/><path d="M931.113,841.024c1.452-.094,1.736-1.019,2.044-2.3a74.452,74.452,0,0,1,20.191-36.443c12.531-12.388,24.949-24.89,37.377-37.381,1.361-1.367,3.286-2.415,3.35-4.732l22.006-.133q.1,41.431.2,82.864c-.062,2.157-.177,4.314-.178,6.471q-.021,61.8-.019,123.61c-2.12-.014-3.154-1.7-4.416-2.959-20.254-20.222-40.634-40.322-60.655-60.772-8.351-8.53-13.792-18.967-17.011-30.551-.545-1.96.293-4.946-2.885-5.681Z" fill="#e2ecfc"/><path d="M1239.981,922.964c3.943-5.24,5.839-11.519,8.513-17.365a210.642,210.642,0,0,1,17.6-31.756c4.221-6.157,7.361-7.168,14.427-4.835,9.876,3.261,18.438,9.061,27.3,14.281,5.862,3.454,11.64,7.075,17.659,10.232a21.11,21.11,0,0,0,10.061,2.5c8.819-.094,17.655.33,26.454-.1,13.021-.631,22.837,4.1,29.285,15.6a67.83,67.83,0,0,0,4.63,6.44c9.586,15.281,19.367,30.441,27.919,46.351q8.6,15.994,16.226,32.463c-3.24-.655-6.475-1.333-9.72-1.955-1.509-.289-2.505-.866-2.08-2.651,1-4.2-.828-8.166-1.023-12.257-.166-3.49-1.95-4.614-5.18-5.32-28.618-6.257-57.174-12.795-85.8-19.021-6.762-1.47-13.542.655-20.306,1.225-1.63.138-4.083-.7-4.037,2.278.037,2.337,1.609,3.525,3.775,3.981,4.051.852,8.117,1.639,12.156,2.545,1.973.443,4.3,1.293,5.788.006,2.095-1.8,3.947-1.065,6-.614,24.3,5.352,48.6,10.672,72.865,16.143,1.533.346,4.738-.314,4.024,2.969-.628,2.89-2.993,1.879-4.9,1.452q-12.629-2.82-25.253-5.662-40.8-9.169-81.608-18.342l-.866-.559.057.069c-.688-3.767,1.67-6.059,3.849-8.63,2.729-3.219,6.46-5.908,6.785-10.826-7.129,6.962-13.9,14.257-24.168,16.368-4.294-.09-8.323-1.531-12.457-2.436-1.844-5.512-5.442-3.926-9.065-2.242-15.457-3-30.893-6.1-46.125-10.131C1228.48,936.414,1235.337,930.632,1239.981,922.964Z" fill="#fbd0c3"/><path d="M1222.762,943.167c15.232,4.029,30.668,7.129,46.127,10.129a22.555,22.555,0,0,0,9.063,2.244c4.134.905,8.163,2.346,12.453,2.436,4.27,2.083,8.87,2.733,13.538,3.088l-.056-.069.865.559q40.8,9.171,81.608,18.342,12.624,2.838,25.253,5.662c1.909.427,4.274,1.438,4.9-1.452.714-3.283-2.491-2.623-4.024-2.969-24.268-5.471-48.57-10.791-72.865-16.143-2.05-.451-3.9-1.191-6,.614-1.493,1.287-3.815.437-5.788-.006-4.039-.906-8.1-1.693-12.156-2.545-2.166-.456-3.738-1.644-3.775-3.981-.046-2.98,2.407-2.14,4.037-2.278,6.764-.57,13.544-2.695,20.306-1.225,28.624,6.226,57.18,12.764,85.8,19.021,3.23.706,5.014,1.83,5.18,5.32.2,4.091,2.022,8.057,1.023,12.257-.425,1.785.571,2.362,2.08,2.651,3.245.622,6.48,1.3,9.72,1.955,8.715,2.774,10.583,7.18,5.955,14.045-5.144,3.606-10.246.55-15.353-.13-2.83-.378-6.114-2.863-7.306,2.4-.342,1.509-2.29.561-3.551.282q-37.9-8.392-75.814-16.758c-12.314-2.706-24.65-5.307-36.976-7.952-14.574-3.672-29.216-7.037-44.012-9.7a415.717,415.717,0,0,0-40.9-8.966c-3.123-2.052-7.592-.644-10.214-3.978l5.106-22.972Z" fill="#5d76c8"/><path d="M1222.762,943.167l-5.774-.128c-5.069.64-10.131,1.336-15.208,1.9-3.022.337-6.495-.7-8.255,3.026-2.383-.665-4.742-1.44-7.157-1.953-1.458-.311-3.212-.38-3.72,1.517-.5,1.857.889,2.735,2.415,3.158,2.521.7,4.99,1.817,7.721,1.281.175,1.292.137,2.7,1.448,3.49,5.865,3.549,11.242,7.913,17.648,10.554,2.623,3.333,7.092,1.925,10.215,3.977-.38,2.246.651,4.235,1.149,6.321,1.389,5.817,1.7,11.6-1.889,16.762-4.367,6.271-3.558,12.052.927,17.779a21.923,21.923,0,0,1,1.7,3.041l-166.888.024c-9.478-.015-18.957,0-28.435-.051-8.58-.043-12.494-3.965-12.517-12.457q-.039-14.217-.066-28.434.006-61.806.019-123.61c0-2.157.116-4.314.176-6.47,9.694.046,19.39.065,29.084.159,1.709.016,3.718-.635,4.828,1.473-1.388,12.385,5.076,16.659,15.824,16.569,43.107-.359,86.219-.147,129.329-.149,12.309,0,16.915-6.06,13.6-17.875l30.151-.054c1.565,1.71.853,3.807.857,5.721q.075,37.113.033,74.225C1235.337,930.632,1228.48,936.414,1222.762,943.167ZM1082.8,928.991c-9.813,0-19.629.153-29.437-.071-4.213-.1-5.487,1.533-5.446,5.573.153,15.134.2,30.273-.036,45.405-.072,4.656,1.71,6.15,6.123,6.123,18.96-.115,37.922-.03,56.882-.061,5.711-.01,7.119-1.39,7.132-7.014.031-14.637-.093-29.274.036-43.91.04-4.565-1.885-6.182-6.315-6.1C1102.1,929.115,1092.449,928.991,1082.8,928.991Zm47.288-25.04q33.444,0,66.887-.008c7.967-.007,12.935-4.316,13.035-11.2.115-7.866-4.477-12.6-12.749-12.612q-67.137-.1-134.274-.007c-7.814.009-12.97,5-12.9,12.1.073,7.344,4.916,11.708,13.112,11.715Q1096.646,903.973,1130.09,903.951Z" fill="#bccef2"/><path d="M1057.1,1013.917l166.888-.024c8,9.978,20.854,11.85,30.861,18.472,5.1,3.376,10.141,6.846,14.139,11.578-12.427,12.265-24.909,24.476-37.264,36.813-12.342,12.322-27.31,18.937-44.448,21.222-26.662,3.553-48.877-5.353-67.611-23.968q-29.75-29.559-59.306-59.311C1058.993,1017.331,1057.072,1016.264,1057.1,1013.917Z" fill="#e2ecfc"/><path d="M1239.092,843.018l-30.151.054c-3.182-4.848-7.928-6.029-13.377-6.023q-64.578.075-129.156-.047c-6.8-.023-12.444,1.492-16.221,7.525-1.11-2.108-3.119-1.457-4.828-1.473-9.694-.094-19.39-.113-29.084-.159q-.095-41.433-.194-82.865c.051-11.782.057-23.565.176-35.346a27.859,27.859,0,0,0-3.14-12.873c-3.088-6.223-8.782-9.6-14.209-13.292,10.247-.938,20.517-.233,30.774-.4,9.773-.162,19.547-.171,29.32-.249,9.65.068,19.3.192,28.949.2q61.918.033,123.837.007a27.547,27.547,0,0,1,23.155,11.561,21.052,21.052,0,0,1,4.153,13.045Q1238.986,782.848,1239.092,843.018Zm-137.787-40.6c.94-8.5,7.421-9.9,13.482-11.836a32.494,32.494,0,0,0,5.645-1.915c2.681-1.452,4.678-3.394,1.913-6.605-2.652-3.082-4.83-7.137-5.12-10.587a36.261,36.261,0,0,1,1.955-16.024,2.892,2.892,0,0,1,2.994-1.455c1.617.083,2.772-.836,4.1-1.533,8.029-4.209,15.6.451,15.644,9.54.01,2.128-.382,4.318,1.553,6.023.81.713.6,1.839.167,2.806-1.275,2.86-2.377,5.814-3.866,8.559-4.149,7.649-4.2,7.639,4.442,10.582q1.887.642,3.792,1.231c4.05,1.25,7.781,2.813,9.764,7.06,1.4,3,2.494.706,3.4-.528,7.128-9.713,10.9-20.237,8.97-32.581-3.143-20.116-20.468-35.687-40.547-35.952a42.388,42.388,0,0,0-42.42,49.09C1088.625,787.892,1093.018,795.686,1101.305,802.422Z" fill="#9bb0e4"/><path d="M1263,978.956c14.8,2.667,29.438,6.032,44.012,9.7-3.716,5.933-8.8,6.971-15.744,6.582-5.92-.332-10.652-2.992-15.994-4.278-1.124-.271-2.242-.571-3.363-.857-3.09-.79-7.528,1.542-9.11-1.43C1261.468,986.179,1262.828,982.251,1263,978.956Z" fill="#e2ecfc"/><path d="M998.908,698.519c5.427,3.691,11.121,7.069,14.209,13.292a27.859,27.859,0,0,1,3.14,12.873c-.119,11.781-.125,23.564-.176,35.346l-22.006.133c-5.492-.045-10.985-.028-16.474-.149-7.382-.163-11.382-4.169-11.45-11.495-.074-7.823-.046-15.648-.028-23.472.041-16.842,11.386-27.6,28.3-26.863C995.923,698.25,997.415,698.405,998.908,698.519Z" fill="#5d76c8"/><path d="M1303.943,961.064c-4.668-.355-9.268-1.005-13.538-3.088,10.269-2.111,17.043-9.406,24.172-16.368-.325,4.918-4.056,7.607-6.785,10.826C1305.613,955.005,1303.255,957.3,1303.943,961.064Z" fill="#e2ecfc"/><path d="M1277.952,955.54a22.555,22.555,0,0,1-9.063-2.244C1272.51,951.614,1276.108,950.028,1277.952,955.54Z" fill="#e2ecfc"/><path d="M1304.752,961.554l-.865-.559Z" fill="#e2ecfc"/><path d="M1193.525,947.966c1.76-3.73,5.233-2.689,8.255-3.026,5.077-.565,10.139-1.261,15.208-1.9q-2.555,11.487-5.107,22.973c-6.407-2.64-11.784-7-17.649-10.553-1.311-.794-1.273-2.2-1.446-3.492Q1193.156,949.966,1193.525,947.966Z" fill="#fbd0c3"/><path d="M1082.8,928.991c9.647,0,19.3.124,28.939-.055,4.43-.082,6.355,1.535,6.315,6.1-.129,14.636-.005,29.273-.036,43.91-.013,5.624-1.421,7-7.132,7.014-18.96.031-37.922-.054-56.882.061-4.413.027-6.195-1.467-6.123-6.123.235-15.132.189-30.271.036-45.405-.041-4.04,1.233-5.669,5.446-5.573C1063.173,929.144,1072.989,928.991,1082.8,928.991Z" fill="#fefefe"/><path d="M1050.187,844.527c3.777-6.033,9.418-7.548,16.221-7.525q64.578.22,129.156.047c5.449-.006,10.2,1.175,13.377,6.023,3.314,11.815-1.292,17.874-13.6,17.875-43.11,0-86.222-.21-129.329.149C1055.263,861.186,1048.8,856.912,1050.187,844.527Z" fill="#fefefe"/><path d="M1130.09,903.95q-33.444,0-66.888-.007c-8.2-.007-13.039-4.371-13.112-11.715-.071-7.1,5.085-12.1,12.9-12.1q67.137-.074,134.274.007c8.272.012,12.864,4.746,12.749,12.612-.1,6.884-5.068,11.193-13.035,11.2Q1163.533,903.974,1130.09,903.95Z" fill="#fefefe"/><path d="M1193.525,947.966q-.369,2-.739,4c-2.733.538-5.2-.58-7.723-1.279-1.526-.423-2.912-1.3-2.415-3.158.508-1.9,2.262-1.828,3.72-1.517C1188.783,946.526,1191.142,947.3,1193.525,947.966Z" fill="#5d76c8"/><path d="M1101.305,802.422c-8.287-6.736-12.68-14.53-14.131-24.125a42.388,42.388,0,0,1,42.42-49.09c20.079.265,37.4,15.836,40.547,35.952,1.929,12.344-1.842,22.868-8.97,32.581-.905,1.234-2,3.524-3.4.528-1.983-4.247-5.714-5.81-9.764-7.06q-1.905-.588-3.792-1.231c-8.646-2.943-8.591-2.933-4.442-10.582,1.489-2.745,2.591-5.7,3.866-8.559.431-.967.643-2.093-.167-2.806-1.935-1.705-1.543-3.9-1.553-6.023-.041-9.089-7.615-13.749-15.644-9.54-1.33.7-2.485,1.616-4.1,1.533a2.892,2.892,0,0,0-2.994,1.455,36.261,36.261,0,0,0-1.955,16.024c.29,3.45,2.468,7.505,5.12,10.587,2.765,3.211.768,5.153-1.913,6.605a32.494,32.494,0,0,1-5.645,1.915C1108.726,792.523,1102.245,793.918,1101.305,802.422Z" fill="#fefefe"/></g></svg>
