<?xml version="1.0" encoding="UTF-8"?>
<svg viewBox="0 0 24 24" version="1.1" xmlns="http://www.w3.org/2000/svg">
    <g id="Org-Admin" stroke="none" stroke-width="1" fill="none" fill-rule="evenodd">
        <g id="account-security" transform="translate(1.000000, 1.000000)" stroke="currentColor">
            <path d="M6.69565217,22 L7.17391304,16.2608696 L9.56521739,16.2608696 L9.56521739,12.9130435 C9.56521739,10.2716816 7.42397054,8.13043478 4.7826087,8.13043478 C2.14124685,8.13043478 0,10.2716816 0,12.9130435 L0,16.2608696 L2.39130435,16.2608696 L2.86956522,22 L6.69565217,22 Z" id="Shape"></path>
            <circle id="Oval" cx="4.7826087" cy="3.34782609" r="3.34782609"></circle>
            <path d="M16.2025217,9.44086957 C14.7744524,8.0888472 12.6649297,7.74743911 10.8833043,8.58" id="Shape"></path>
            <circle id="Oval" cx="12.9130435" cy="3.82608696" r="2.86956522"></circle>
            <rect id="Rectangle-path" x="13.3913043" y="15.3043478" width="8.60869565" height="6.69565217" rx="1"></rect>
            <path d="M17.6956522,17.6956522 C17.1673798,17.6956522 16.7391304,18.1239015 16.7391304,18.6521739 C16.7391304,19.1804463 17.1673798,19.6086957 17.6956522,19.6086957 C18.2239245,19.6086957 18.6521739,19.1804463 18.6521739,18.6521739 C18.6521739,18.1239015 18.2239245,17.6956522 17.6956522,17.6956522 Z" id="Shape"></path>
            <path d="M15.3043478,15.3043478 L15.3043478,13.8695652 C15.3043478,12.5488843 16.3749713,11.4782609 17.6956522,11.4782609 C19.0163331,11.4782609 20.0869565,12.5488843 20.0869565,13.8695652 L20.0869565,15.3043478" id="Shape"></path>
        </g>
    </g>
</svg>
