<?xml version="1.0" encoding="UTF-8"?>
<svg version="1.1" viewBox="0 0 26.0 26.0" xmlns="http://www.w3.org/2000/svg" xmlns:xlink="http://www.w3.org/1999/xlink">
    <defs>
        <clipPath id="i0"><path d="M1300,0 L1300,1102 L0,1102 L0,0 L1300,0 Z"></path>
        </clipPath>
    </defs>
    <g transform="translate(-697.0 -276.0)">
        <g clip-path="url(#i0)">
            <g transform="translate(698.0 277.0)">
                <g transform="translate(12.0 7.199999999999999)">
                    <path d="M0,0 L0,9.6" stroke="currentColor" stroke-width="1.5" fill="none" stroke-linecap="round" stroke-linejoin="round"></path>
                </g>
                <g transform="translate(7.199999999999999 12.0)">
                    <path d="M0,0 L9.6,0" stroke="currentColor" stroke-width="1.5" fill="none" stroke-linecap="round" stroke-linejoin="round"></path>
                </g>
                <path d="M3,0 L21,0 C22.6568542,-3.04359188e-16 24,1.34314575 24,3 L24,21 C24,22.6568542 22.6568542,24 21,24 L3,24 C1.34314575,24 2.02906125e-16,22.6568542 0,21 L0,3 C-2.02906125e-16,1.34314575 1.34314575,3.04359188e-16 3,0 Z" stroke="currentColor" stroke-width="1.5" fill="none" stroke-linecap="round" stroke-linejoin="round"></path>
            </g>
        </g>
    </g>
</svg>
