<?xml version="1.0" encoding="UTF-8"?>
<svg viewBox="0 0 60 58" version="1.1" xmlns="http://www.w3.org/2000/svg" xmlns:xlink="http://www.w3.org/1999/xlink">
    <title>Group 332</title>
    <g id="LEARNING" stroke="none" stroke-width="1" fill="none" fill-rule="evenodd">
        <g id="Group-332">
            <path d="M56,9.12 C58.209139,9.12 60,10.910861 60,13.12 L60,43.04 C60,45.249139 58.209139,47.04 56,47.04 L39.256,47.04 L33.5972567,55.7768668 C32.3962656,57.6310285 29.919575,58.1605279 28.0654133,56.9595368 C27.592254,56.6530587 27.1892214,56.2500261 26.8827433,55.7768668 L21.224,47.04 L4,47.04 C1.790861,47.04 2.705415e-16,45.249139 0,43.04 L0,13.12 C-2.705415e-16,10.910861 1.790861,9.12 4,9.12 L56,9.12 Z" id="Combined-Shape" fill="#339BB2"></path>
            <path d="M29.9793922,7.68 C30.4748307,7.68 30.9697443,7.70824406 31.4619282,7.76441719 C37.1782117,8.45035937 41.6882877,12.9494597 42.3886629,18.6644196 C42.8606891,22.5395257 41.4868157,26.4110619 38.6779658,29.1213367 C36.8183128,30.9239168 35.7647578,33.4006794 35.7560438,35.9906282 L35.7560438,35.9906282 L35.756,37.199 L35.76,37.2 L35.76,40.08 C35.759118,40.6099267 35.2439064,41.039265 34.6079874,41.04 L34.6079874,41.04 L25.3920126,41.04 C24.7560936,41.039265 24.240882,40.6099267 24.24,40.08 L24.24,40.08 L24.24,37.44 L24.2373866,37.44 L24.2373866,35.998083 C24.2062052,33.3581558 23.1143296,30.8418095 21.2077469,29.0158152 C17.6224055,25.4565386 16.5367243,20.0863873 18.4577953,15.4137277 C20.3788664,10.7410682 24.927578,7.68776974 29.9793922,7.68 Z" id="Combined-Shape" fill="#F0C419" fill-rule="nonzero"></path>
            <path d="M27,45.36 C27.4639156,45.36 27.84,44.9779413 27.84,44.5066563 L27.84,42.3733437 C27.84,41.9020587 27.4639156,41.52 27,41.52 C26.5360844,41.52 26.16,41.9020587 26.16,42.3733437 L26.16,44.5066563 C26.16,44.9779413 26.5360844,45.36 27,45.36 Z" id="Path-Copy-6" fill="#F0C419" fill-rule="nonzero"></path>
            <path d="M33.24,45.36 C33.7039156,45.36 34.08,44.9779413 34.08,44.5066563 L34.08,42.3733437 C34.08,41.9020587 33.7039156,41.52 33.24,41.52 C32.7760844,41.52 32.4,41.9020587 32.4,42.3733437 L32.4,44.5066563 C32.4,44.9779413 32.7760844,45.36 33.24,45.36 Z" id="Path-Copy-7" fill="#F0C419" fill-rule="nonzero"></path>
            <path d="M13.7775425,6.65696107 C14.5337212,7.38101298 15.7240024,7.38101298 16.4801811,6.65696107 C16.8386241,6.29771147 17.04,5.81033056 17.04,5.30220559 C17.04,4.79408061 16.8386241,4.3066997 16.4801811,3.9474501 L13.101935,0.561242374 C12.7437011,0.201888007 12.2576609,3.63264974e-13 11.7509292,3.63264974e-13 C11.2441975,3.63264974e-13 10.7581573,0.201888007 10.3998189,0.561242374 C10.0413759,0.920387205 9.84,1.40766335 9.84,1.91578832 C9.84,2.4239133 10.0413759,2.91108468 10.3998189,3.27033428 L13.7775425,6.65696107 Z" id="Path" fill="#F0C419" fill-rule="nonzero"></path>
            <path d="M11.76,20.16 C11.76,19.0996216 10.900368,18.24 9.83997667,18.24 L5.04002333,18.24 C3.98005201,18.24105 3.12105,19.1000416 3.12,20.16 C3.12105,21.2199584 3.98005201,22.07895 5.04002333,22.08 L9.83997667,22.08 C10.900368,22.08 11.76,21.2203784 11.76,20.16 Z" id="Path" fill="#F0C419" fill-rule="nonzero"></path>
            <path d="M15.6227619,33.1849875 C14.9625315,33.0081 14.258425,33.1981834 13.7761016,33.6836029 L10.3996289,37.0690768 C10.0413076,37.4280883 9.84,37.9151835 9.84,38.4231198 C9.84,38.9310561 10.0413076,39.4180465 10.3996289,39.7771627 C11.155342,40.5009458 12.3451148,40.5009458 13.1008279,39.7771627 L16.477823,36.3922125 C16.9619223,35.9086781 17.1516341,35.2028037 16.9751896,34.5409156 C16.7987451,33.8790275 16.2829923,33.361875 15.6227619,33.1849875 Z" id="Path" fill="#F0C419" fill-rule="nonzero"></path>
            <path d="M46.2238018,33.683606 C45.7414794,33.1982761 45.0373743,33.0080821 44.3771452,33.1849751 C43.7169161,33.3618681 43.2012688,33.8788272 43.0248247,34.5407359 C42.8483805,35.2026446 43.0379874,35.9085409 43.5221903,36.3920903 L46.8991786,39.7771458 C47.6548902,40.5009514 48.8446607,40.5009514 49.6003723,39.7771458 C49.9586928,39.4181232 50.16,38.9310129 50.16,38.4230608 C50.16,37.9151087 49.9586928,37.4281031 49.6003723,37.0689758 L46.2238018,33.683606 Z" id="Path" fill="#F0C419" fill-rule="nonzero"></path>
            <path d="M54.9599767,18.24 L50.1600233,18.24 C49.099632,18.24 48.24,19.0996216 48.24,20.16 C48.24,21.2203784 49.099632,22.08 50.1600233,22.08 L54.9599767,22.08 C56.020368,22.08 56.88,21.2203784 56.88,20.16 C56.88,19.0996216 56.020368,18.24 54.9599767,18.24 Z" id="Path" fill="#F0C419" fill-rule="nonzero"></path>
            <path d="M46.222628,6.65697007 L49.6003154,3.27021297 C50.0830213,2.78628575 50.2715473,2.08098201 50.0948303,1.41989071 C49.9181134,0.75879941 49.4031156,0.24249863 48.7436927,0.065334543 C48.0842698,-0.111829544 47.380746,0.0771734205 46.8980401,0.561100633 L43.5198302,3.9473339 C43.16138,4.3065862 42.96,4.79397079 42.96,5.3020996 C42.96,5.81022841 43.16138,6.29761299 43.5198302,6.6568653 C44.2761287,7.38102744 45.4665385,7.38102744 46.222628,6.65697007 Z" id="Path" fill="#F0C419" fill-rule="nonzero"></path>
        </g>
    </g>
</svg>
