<svg xmlns="http://www.w3.org/2000/svg" viewBox="0 0 18 24"><g data-name="Group 12" fill="none" stroke="currentColor" stroke-linecap="round" stroke-linejoin="round" stroke-miterlimit="10"><path d="M2.5 2.5h11a1 1 0 0 1 1 1v1"/><path data-name="Shape" d="M16.5 4.5v-3a1 1 0 0 0-1-1h-13a2 2 0 0 0 0 4h14a1 1 0 0 1 1 1v17a1 1 0 0 1-1 1h-14a2 2 0 0 1-2-2v-19"/><path data-name="Shape" d="M14.5 18.719s-2.02-.893-3.432-1.415c-.926-.344-.794-1.905-.258-2.494a4.283 4.283 0 0 0 1.259-3.531A3 3 0 0 0 9 7.999a3 3 0 0 0-3.07 3.28 4.283 4.283 0 0 0 1.259 3.531c.536.587.668 2.15-.258 2.494-1.412.523-3.431 1.415-3.431 1.415"/></g></svg>
