<?xml version="1.0" encoding="UTF-8"?>
<svg viewBox="0 0 25 25" version="1.1" xmlns="http://www.w3.org/2000/svg" xmlns:xlink="http://www.w3.org/1999/xlink">
    <title>administrative</title>
    <g stroke="currentColor" stroke-width="1" fill="none" fill-rule="evenodd" stroke-linecap="round" stroke-linejoin="round">
        <g transform="translate(-884.000000, -101.000000)" stroke="#656565">
            <g id="administrative" transform="translate(885.000000, 102.000000)">
                <circle id="Oval" cx="17.25" cy="16.532" r="1.437"></circle>
                <path d="M18.471,10.971 L18.895,12.363 C19.0396274,12.8423225 19.5311185,13.1274224 20.019,13.015 L21.431,12.688 C21.9799371,12.5642697 22.545435,12.8126725 22.8256789,13.300632 C23.1059228,13.7885914 23.0355015,14.402214 22.652,14.814 L21.664,15.879 C21.3259601,16.2464078 21.3259601,16.8115922 21.664,17.179 L22.652,18.244 C23.0355015,18.655786 23.1059228,19.2694086 22.8256789,19.757368 C22.545435,20.2453275 21.9799371,20.4937303 21.431,20.37 L20.019,20.043 C19.5313166,19.9339875 19.0424518,20.2210154 18.9,20.7 L18.476,22.092 C18.3139572,22.6309222 17.8177566,22.9998706 17.255,22.9998706 C16.6922434,22.9998706 16.1960428,22.6309222 16.034,22.092 L15.605,20.7 C15.4603726,20.2206775 14.9688815,19.9355776 14.481,20.048 L13.069,20.375 C12.5200629,20.4987303 11.954565,20.2503275 11.6743211,19.762368 C11.3940772,19.2744086 11.4644985,18.660786 11.848,18.249 L12.836,17.184 C13.1740399,16.8165922 13.1740399,16.2514078 12.836,15.884 L11.848,14.819 C11.4644985,14.407214 11.3940772,13.7935914 11.6743211,13.305632 C11.954565,12.8176725 12.5200629,12.5692697 13.069,12.693 L14.481,13.02 C14.9688815,13.1324224 15.4603726,12.8473225 15.605,12.368 L16.029,10.976 C16.1899362,10.4367428 16.6853824,10.066775 17.2481411,10.0656201 C17.8108999,10.0644705 18.3078569,10.4324064 18.471,10.971 Z" id="Shape"></path>
                <path d="M10,16 L0,16 C0.0134915744,14.857506 0.251329604,13.7287947 0.7,12.678 C1.19,11.697 3.239,11.017 5.811,10.065 C6.506,9.807 6.392,7.992 6.084,7.653 C5.09028671,6.57848076 4.60273512,5.13074361 4.744,3.674 C4.65489209,2.74727162 4.95498902,1.82520056 5.57247689,1.1284406 C6.18996476,0.431680636 7.06927985,0.0229286674 8,0 C8.93072015,0.0229286674 9.81003524,0.431680636 10.4275231,1.1284406 C11.045011,1.82520056 11.3451079,2.74727162 11.256,3.674 C11.3983348,5.13015011 10.9122657,6.57780648 9.92,7.653 C9.612,7.992 9.498,9.807 10.193,10.065 C10.647,10.233 11.084,10.392 11.5,10.547" id="Shape"></path>
            </g>
        </g>
    </g>
</svg>
