<svg xmlns="http://www.w3.org/2000/svg" viewBox="0 0 25.002 25.002">
  <g id="Group_861" data-name="Group 861" transform="translate(1024.5 -7120.051)">
    <g id="_10_23_34" data-name=" 10 23 34" transform="translate(-1024 7120.551)">
      <path id="Shape_1181" data-name="Shape 1181" d="M411.3,2079.184l.522-6.261h2.609v-3.652a5.218,5.218,0,1,0-10.436,0v3.652h2.609l.522,6.261Z" transform="translate(-404 -2055.183)" fill="none" stroke="#339BB2" stroke-linecap="round" stroke-linejoin="round" stroke-width="1"/>
      <path id="Oval_479" data-name="Oval 479" d="M409.152,2062.858a3.652,3.652,0,1,0-3.652-3.652A3.652,3.652,0,0,0,409.152,2062.858Z" transform="translate(-403.935 -2055.553)" fill="none" stroke="#339BB2" stroke-linecap="round" stroke-linejoin="round" stroke-width="1"/>
    </g>
    <g id="_10_23_-_cut_32" data-name=" 10 23 - cut 32" transform="translate(-1013.043 7121.594)">
      <g id="_Group_55" data-name=" Group  55">
        <path id="Shape_1182" data-name="Shape 1182" d="M421.181,2065.484a5.226,5.226,0,0,0-5.8-.939" transform="translate(-414.462 -2056.226)" fill="none" stroke="#339BB2" stroke-linecap="round" stroke-linejoin="round" stroke-width="1"/>
        <path id="Oval_480" data-name="Oval 480" d="M417.631,2062.814a3.131,3.131,0,1,0-3.131-3.131A3.13,3.13,0,0,0,417.631,2062.814Z" transform="translate(-414.5 -2056.553)" fill="none" stroke="#339BB2" stroke-linecap="round" stroke-linejoin="round" stroke-width="1"/>
      </g>
    </g>
    <path id="Rectangle-path_40" data-name="Rectangle-path 40" d="M417,2069.6a1.044,1.044,0,0,1,1.044-1.044h8.348a1.044,1.044,0,0,1,1.044,1.044v8.348a1.043,1.043,0,0,1-1.044,1.043h-8.348a1.043,1.043,0,0,1-1.044-1.043Z" transform="translate(-1427.434 5065.564)" fill="none" stroke="#339BB2" stroke-linecap="round" stroke-linejoin="round" stroke-width="1"/>
    <path id="Shape_1183" data-name="Shape 1183" d="M420,2071.553h4.174" transform="translate(-1427.303 5065.694)" fill="none" stroke="#339BB2" stroke-linecap="round" stroke-linejoin="round" stroke-width="1"/>
    <path id="Shape_1184" data-name="Shape 1184" d="M420,2073.553h4.174" transform="translate(-1427.303 5065.782)" fill="none" stroke="#339BB2" stroke-linecap="round" stroke-linejoin="round" stroke-width="1"/>
    <path id="Shape_1185" data-name="Shape 1185" d="M420,2075.553h2.087" transform="translate(-1427.303 5065.869)" fill="none" stroke="#339BB2" stroke-linecap="round" stroke-linejoin="round" stroke-width="1"/>
  </g>
</svg>
