<?xml version="1.0" encoding="UTF-8"?>
<svg viewBox="0 0 15 18" version="1.1" xmlns="http://www.w3.org/2000/svg" xmlns:xlink="http://www.w3.org/1999/xlink">
    <title>app store</title>
    <g id="Mobile" stroke="none" stroke-width="1" fill="none" fill-rule="evenodd">
        <g id="app-store" transform="translate(1.000000, 1.249808)" fill="currentColor" fill-rule="nonzero">
            <path d="M4.35103125,16 C1.96975,15.9862812 -2.66453526e-15,11.1252813 -2.66453526e-15,8.6496875 C-2.66453526e-15,4.6058125 3.03359375,3.7205 4.20271875,3.7205 C4.72959375,3.7205 5.2921875,3.92740625 5.78840625,4.1105 C6.13540625,4.23821875 6.49428125,4.3700625 6.693875,4.3700625 C6.81334375,4.3700625 7.094875,4.25790625 7.3434375,4.1595 C7.87353125,3.94846875 8.53315625,3.6861875 9.30128125,3.6861875 C9.30265625,3.6861875 9.3045,3.6861875 9.30584375,3.6861875 C9.87940625,3.6861875 11.6184687,3.8120625 12.664,5.3821875 L12.9089062,5.75021875 L12.5564375,6.0161875 C12.0529062,6.396125 11.1341562,7.0891875 11.1341562,8.46203125 C11.1341562,10.088 12.1746562,10.7133125 12.6745312,11.0140625 C12.8951875,11.1468125 13.1235937,11.2836875 13.1235937,11.5830625 C13.1235937,11.7785313 11.5635312,15.97575 9.2980625,15.97575 C8.74371875,15.97575 8.351875,15.809125 8.00625,15.6621875 C7.65653125,15.5134063 7.35484375,15.38525 6.85634375,15.38525 C6.60365625,15.38525 6.284125,15.5047188 5.94584375,15.6315313 C5.4835625,15.8040625 4.9603125,16 4.36659375,16 L4.35103125,16 Z" id="Path"></path>
            <path d="M9.54128125,-1.55431223e-15 C9.60028125,2.127375 8.078875,3.60325 6.55925,3.5106875 C6.30884375,1.81296875 8.0786875,-1.55431223e-15 9.54128125,-1.55431223e-15 Z" id="Path"></path>
        </g>
    </g>
</svg>
