<svg xmlns="http://www.w3.org/2000/svg" viewBox="0 0 27.84 27.84">
  <g data-name="Group 1302" stroke-linecap="round" stroke-linejoin="round" stroke-miterlimit="10">
    <path d="M12.4 1.229a1.943 1.943 0 013.033 0l1.8 2.244a1.943 1.943 0 001.726.714l2.861-.312a1.945 1.945 0 012.14 2.143l-.312 2.859a1.944 1.944 0 00.715 1.726l2.242 1.8a1.944 1.944 0 010 3.033l-2.242 1.8a1.941 1.941 0 00-.715 1.724l.312 2.861a1.943 1.943 0 01-2.142 2.142l-2.861-.312a1.946 1.946 0 00-1.726.715l-1.8 2.24a1.943 1.943 0 01-3.033 0l-1.8-2.242a1.946 1.946 0 00-1.726-.715l-2.861.312a1.943 1.943 0 01-2.142-2.142l.312-2.861a1.941 1.941 0 00-.715-1.724l-2.242-1.8a1.944 1.944 0 010-3.033L3.47 10.6a1.944 1.944 0 00.715-1.726l-.311-2.856a1.945 1.945 0 012.142-2.143l2.861.312a1.943 1.943 0 001.723-.715z" fill="#80e957" stroke="#5fc039"/>
    <path data-name="Path" d="M18.586 11.004l-4.745 6.33a.895.895 0 01-1.347.1l-2.853-2.853" fill="none" stroke="#000"/>
  </g>
</svg>
