<svg xmlns="http://www.w3.org/2000/svg" viewBox="0 0 17.098 19.201">
    <g transform="translate(-28.042 0)">
        <g transform="translate(28.042 0)">
            <path d="M43.741,1.4a4.788,4.788,0,0,0-6.764,0L29.854,8.521a.563.563,0,0,0,.8.8l7.122-7.122a3.747,3.747,0,0,1,5.173,0,3.662,3.662,0,0,1,0,5.172L33,17.424a2.3,2.3,0,0,1-3.183,0,2.253,2.253,0,0,1,0-3.183l9.547-9.66a.864.864,0,0,1,1.194,0,.845.845,0,0,1,0,1.194l-9.149,9.261a.627.627,0,0,0,0,.8.562.562,0,0,0,.8,0l9.149-9.261a1.971,1.971,0,0,0,0-2.785,2.017,2.017,0,0,0-2.785,0l-9.547,9.66a3.4,3.4,0,0,0,0,4.774,3.394,3.394,0,0,0,4.775,0L43.741,8.162A4.788,4.788,0,0,0,43.741,1.4Z"
                transform="translate(-28.042 0)" fill="currentColor"/>
        </g>
    </g>
</svg>
