<?xml version="1.0" encoding="UTF-8"?>
<svg viewBox="0 0 25.5 27" version="1.1" xmlns="http://www.w3.org/2000/svg" xmlns:xlink="http://www.w3.org/1999/xlink">
    <title>audio</title>
    <g id="Page-1" stroke="none" stroke-width="1" fill="none" fill-rule="evenodd">
        <g id="File-Icons" transform="translate(-56.000000, -311.000000)">
            <g id="audio" transform="translate(56.000000, 311.362769)">
                <polygon id="Shape-Copy-63" fill="#32373F" fill-rule="nonzero" points="20 26.0152862 1.04275055e-14 26.0152862 1.04275055e-14 -1.73791758e-15 13.75 -1.73791758e-15 20 6.19411576"></polygon>
                <polygon id="Shape-Copy-62" fill="#D1D1D1" fill-rule="nonzero" points="19.1453684 6.86277059 13.2078684 6.86277059 13.2078684 0.978360622"></polygon>
                <path d="M11.9810959,16.1410394 L11.9810959,15.1607679 L10.0291518,15.1607679 L10.0291518,17.8522151 C9.92596482,17.7776911 9.81274746,17.7189327 9.68949633,17.6759382 C9.56624521,17.6329436 9.43296402,17.6114466 9.28964876,17.6114466 C8.95142474,17.6114466 8.66336539,17.7303965 8.42546205,17.9682998 C8.18755872,18.2062032 8.06860884,18.4942625 8.06860884,18.8324865 C8.06860884,19.1707106 8.18755872,19.4587699 8.42546205,19.6966732 C8.66336539,19.9345766 8.95142474,20.0535265 9.28964876,20.0535265 C9.62787277,20.0535265 9.91736526,19.9345766 10.1581349,19.6966732 C10.3989045,19.4587699 10.5192875,19.1707106 10.5192875,18.8324865 L10.5192875,16.1410394 L11.9810959,16.1410394 Z M10.0291518,12.7186881 C10.6998672,12.7186881 11.3333112,12.8462368 11.9295027,13.1013379 C12.5256941,13.3564391 13.0444876,13.7061231 13.4858986,14.1504004 C13.9273096,14.5946777 14.2769936,15.1134712 14.5349611,15.7067963 C14.7929285,16.3001215 14.9219103,16.9349986 14.9219103,17.6114466 C14.9219103,18.282162 14.7929285,18.915606 14.5349611,19.5117975 C14.2769936,20.107989 13.9273096,20.6267824 13.4858986,21.0681934 C13.0444876,21.5096044 12.5256941,21.8592884 11.9295027,22.1172559 C11.3333112,22.3752234 10.6998672,22.5042052 10.0291518,22.5042052 C9.35270377,22.5042052 8.71782669,22.3752234 8.12450151,22.1172559 C7.53117633,21.8592884 7.01238287,21.5096044 6.56810556,21.0681934 C6.12382825,20.6267824 5.77414426,20.107989 5.5190431,19.5117975 C5.26394193,18.915606 5.13639326,18.282162 5.13639326,17.6114466 C5.13639326,16.9349986 5.26394193,16.3001215 5.5190431,15.7067963 C5.77414426,15.1134712 6.12382825,14.5946777 6.56810556,14.1504004 C7.01238287,13.7061231 7.53117633,13.3564391 8.12450151,13.1013379 C8.71782669,12.8462368 9.35270377,12.7186881 10.0291518,12.7186881 Z" id="" fill="#D1D1D1"></path>
            </g>
        </g>
    </g>
</svg>
