<svg xmlns="http://www.w3.org/2000/svg" viewBox="0 0 24 24"><g data-name="Group 398" fill="none" stroke="currentColor" stroke-linecap="round" stroke-linejoin="round"><path data-name="Shape 609" d="M15.7 22.314l-3.335.953a.5.5 0 0 1-.618-.618l.953-3.335 7.093-7.093a2.2 2.2 0 0 1 2.923-.232 2.122 2.122 0 0 1 .163 3.147z"/><path data-name="Shape 610" d="M18.979 13.04l3 3"/><path data-name="Shape 611" d="M12.7 19.31l3 3"/><path data-name="Shape 612" d="M2.484 2.22a5.817 5.817 0 0 0 6.483 1.3"/><path data-name="Oval 213" d="M5.5 7.5A3.5 3.5 0 1 0 2 4a3.5 3.5 0 0 0 3.5 3.5z"/><path data-name="Shape 613" d="M7.5 23.5l.5-6h2.5V14a5 5 0 0 0-10 0v3.5H3l.5 6z"/></g></svg>
