<svg xmlns="http://www.w3.org/2000/svg" viewBox="0 0 29.555 29.555">
  <g id="Group_765" data-name="Group 765" transform="translate(-4697.574 -10129.26)">
    <path id="Shape_205" data-name="Shape 205" d="M500.421,610.76v21.106a1.242,1.242,0,0,1-1.241,1.242H478.074" transform="translate(4226.208 9525.207)" fill="none" stroke="#339BB2" stroke-linecap="round" stroke-linejoin="round" stroke-width="1"/>
    <path id="Shape_206" data-name="Shape 206" d="M498.663,607.76v22.347a1.242,1.242,0,0,1-1.242,1.242H475.074" transform="translate(4225.483 9524.482)" fill="none" stroke="#339BB2" stroke-linecap="round" stroke-linejoin="round" stroke-width="1"/>
    <path id="Rectangle-path_56" data-name="Rectangle-path 56" d="M473.074,607a1.242,1.242,0,0,1,1.242-1.242h21.106A1.242,1.242,0,0,1,496.663,607v21.106a1.242,1.242,0,0,1-1.242,1.242H474.315a1.242,1.242,0,0,1-1.242-1.242Z" transform="translate(4225 9524)" fill="none" stroke="#339BB2" stroke-linecap="round" stroke-linejoin="round" stroke-width="1"/>
    <path id="Shape_207" data-name="Shape 207" d="M492.593,622.565l-4.411-8.822c-.305-.611-.8-.611-1.11,0l-3.17,6.339-2.309-2.771a.827.827,0,0,0-1.433.11l-3.086,5.144" transform="translate(4225.966 9525.817)" fill="none" stroke="#339BB2" stroke-linecap="round" stroke-linejoin="round" stroke-width="1"/>
    <path id="Oval_48" data-name="Oval 48" d="M478.936,612.484a1.862,1.862,0,1,0-1.862-1.862A1.862,1.862,0,0,0,478.936,612.484Z" transform="translate(4225.966 9524.725)" fill="none" stroke="#339BB2" stroke-linecap="round" stroke-linejoin="round" stroke-width="1"/>
    <path id="Shape_208" data-name="Shape 208" d="M496.663,620.76H473.074" transform="translate(4225 9527.622)" fill="none" stroke="#339BB2" stroke-linecap="round" stroke-linejoin="round" stroke-width="1"/>
  </g>
</svg>
