<?xml version="1.0" encoding="UTF-8"?>
<svg viewBox="0 0 40 40" version="1.1" xmlns="http://www.w3.org/2000/svg" xmlns:xlink="http://www.w3.org/1999/xlink">
    <title>2B6C37AF-C582-463B-ACD0-277225D0E83E</title>
    <g id="Org-Admin" stroke="none" stroke-width="1" fill="none" fill-rule="evenodd">
        <g id="change-subscription-plan" transform="translate(-93.000000, -265.000000)">
            <g id="Group-5" transform="translate(57.000000, 62.000000)">
                <g id="Group-9" transform="translate(24.000000, 162.000000)">
                    <g id="Group" transform="translate(0.000000, 31.000000)">
                        <g id="basic-user" transform="translate(12.000000, 10.000000)">
                            <circle id="Oval" fill="#EEEEEE" cx="20" cy="20" r="20"></circle>
                            <g id="Group-2" transform="translate(11.000000, 10.000000)" fill="#858585" fill-rule="nonzero">
                                <path d="M8.36934934,0 C5.95622178,0 4,1.95622178 4,4.36934934 C4,6.7824769 5.95622178,8.73869868 8.36934934,8.73869868 C10.7825119,8.73869868 12.7386987,6.7824769 12.7386987,4.36934934 C12.7386987,1.95622178 10.7825119,0 8.36934934,0 Z" id="Path"></path>
                                <path d="M4.76651737,11 C4.98147771,11 5.19508646,11.0340227 5.39943219,11.1006698 L5.39943219,11.1006698 L6.40790132,11.4300605 C7.13945856,11.6689183 7.89550747,11.805242 8.65500525,11.8389151 C8.69270537,11.8405848 8.727686,11.8506513 8.75854254,11.8670532 C8.7885224,11.8506198 8.82345237,11.8405821 8.86109331,11.8389151 C9.62059109,11.805242 10.37664,11.6689183 11.1081972,11.4300605 L12.1166664,11.1006698 C12.3210121,11.0340227 12.5346209,11 12.7495812,11 L13.1467492,11 C15.5598768,11 17.5160986,12.9561868 17.5160986,15.3693493 L17.5160986,16.7539088 C17.5160986,17.6315071 16.8800611,18.3797728 16.013893,18.5212232 C13.8038018,18.8821189 11.5742482,19.0829574 9.34247565,19.1238859 C9.32358029,19.1280521 9.30317749,19.1309445 9.28177967,19.1310678 C9.10741759,19.132005 8.93305162,19.1319664 8.75869001,19.1309521 L8.23431889,19.1310678 L8.23431889,19.1310678 C8.21292107,19.1309445 8.19251827,19.1280521 8.17331749,19.1227856 C5.94185032,19.0829574 3.71229673,18.8821189 1.50220561,18.5212232 C0.636037445,18.3797728 0,17.6315071 0,16.7539088 L0,16.7539088 L0,15.3693493 C0,12.9561868 1.95622178,11 4.36934934,11 L4.36934934,11 Z" id="Combined-Shape"></path>
                            </g>
                        </g>
                    </g>
                </g>
            </g>
        </g>
    </g>
</svg>
