<?xml version="1.0" encoding="UTF-8"?>
<svg viewBox="0 0 15 17" version="1.1" xmlns="http://www.w3.org/2000/svg" xmlns:xlink="http://www.w3.org/1999/xlink">
    <title>5F85FADD-4191-416D-8EE6-911CC3B54D56</title>
    <g id="Org-Admin" stroke="none" stroke-width="1" fill="none" fill-rule="evenodd">
        <g id="Manage-People-" transform="translate(-96.000000, -546.000000)" fill="#858585" fill-rule="nonzero">
            <g id="Group-28" transform="translate(96.000000, 507.750192)">
                <g id="basic-user-no-bg" transform="translate(0.000000, 39.000000)">
                    <path d="M7.75069399,0 C5.70711546,0 4.05047165,1.65664381 4.05047165,3.70022234 C4.05047165,5.74380087 5.70711546,7.40044468 7.75069399,7.40044468 C9.79430212,7.40044468 11.4509163,5.74380087 11.4509163,3.70022234 C11.4509163,1.65664381 9.79430212,0 7.75069399,0 Z" id="Path"></path>
                    <path d="M4.03656761,9.11356121 C4.21860869,9.11356121 4.39950516,9.14237361 4.57255715,9.19881433 L4.57255715,9.19881433 L5.4265882,9.47776176 C6.04611396,9.68004058 6.6863807,9.79548752 7.32956815,9.8240039 C7.36153579,9.82541971 7.39119449,9.83396475 7.41735017,9.84788637 C7.44200616,9.83409866 7.47187833,9.82543077 7.50409566,9.8240039 C8.1472831,9.79548752 8.78754984,9.68004058 9.4070756,9.47776176 L10.2611067,9.19881433 C10.4341587,9.14237361 10.6150551,9.11356121 10.7970962,9.11356121 L11.1334415,9.11356121 C13.17702,9.11356121 14.8336638,10.7701754 14.8336638,12.8137835 L14.8336638,13.98631 C14.8336638,14.729512 14.2950298,15.3631874 13.5615076,15.4829759 C11.6881181,15.7888901 9.79821569,15.9590042 7.9064443,15.9934433 L7.86035764,15.9994283 C7.71266573,16.0002221 7.56497053,16.0001893 7.41727901,15.9993298 L6.97330616,15.9994283 L6.97330616,15.9994283 L6.92721951,15.9934433 C5.03544811,15.9590042 3.14554571,15.7888901 1.27215617,15.4829759 C0.538633965,15.3631874 0,14.729512 0,13.98631 L0,13.98631 L0,12.8137835 C0,10.7701754 1.65664381,9.11356121 3.70022234,9.11356121 L3.70022234,9.11356121 Z" id="Combined-Shape"></path>
                </g>
            </g>
        </g>
    </g>
</svg>
