<?xml version="1.0" encoding="UTF-8"?>
<svg viewBox="0 0 123 97" version="1.1" xmlns="http://www.w3.org/2000/svg" xmlns:xlink="http://www.w3.org/1999/xlink">
    <title>email</title>
    <g id="Newsletter-Mockup" stroke="currentColor" stroke-width="0" fill="none" fill-rule="evenodd">
        <g id="Mailing-Lists-empty" transform="translate(-1035.000000, -426.000000)" fill-rule="nonzero">
            <g id="email" transform="translate(1096.364753, 474.524072) rotate(-10.000000) translate(-1096.364753, -474.524072) translate(1040.864753, 436.024072)">
                <path d="M103.324872,75.9997792 L7.94987194,75.9997792 C4.18937194,75.9997792 1.13737194,72.9452338 1.13737194,69.1815974 L1.13737194,7.81796104 C1.13737194,4.05432468 4.18937194,0.999779226 7.94987194,0.999779226 L103.324872,0.999779226 C107.085372,0.999779226 110.137372,4.05432468 110.137372,7.81796104 L110.137372,69.1815974 C110.137372,72.9452338 107.085372,75.9997792 103.324872,75.9997792 Z" id="Path" fill="#F1C241"></path>
                <path d="M103.587748,76.2852439 L8.21274845,76.2852439 C4.39093595,76.2852439 1.40024845,73.3135516 1.40024845,69.5160132 C1.40024845,68.4397055 1.91799845,67.4243209 2.78999845,66.7880132 L53.8837484,32.9418593 C54.4832484,32.5018593 55.1917484,32.2852439 55.9002484,32.2852439 C56.6087484,32.2852439 57.3172484,32.5018593 57.9167484,32.9418593 L109.010498,66.7880132 C109.882498,67.4243209 110.400248,68.4397055 110.400248,69.5160132 C110.400248,73.3135516 107.409561,76.2852439 103.587748,76.2852439 Z" id="Path" fill="#F4D06C"></path>
                <path d="M102.714699,0.683930028 L7.33969908,0.683930028 C3.51788658,0.683930028 0.52719908,3.74505224 0.52719908,7.65687355 C0.52719908,8.76557157 1.04494908,9.8115131 1.91694908,10.4669698 L53.0379491,48.0302166 C54.2233241,48.9018345 55.8242616,48.9018345 57.0096366,48.0302166 L108.130637,10.4669698 C109.009449,9.8115131 109.527199,8.76557157 109.527199,7.65687355 C109.527199,3.74505224 106.536512,0.683930028 102.714699,0.683930028 Z" id="Path" fill="#F8DF9B"></path>
            </g>
        </g>
    </g>
</svg>
