<?xml version="1.0" encoding="UTF-8"?>
<svg viewBox="0 0 22 22" version="1.1" xmlns="http://www.w3.org/2000/svg" xmlns:xlink="http://www.w3.org/1999/xlink">
    <title>birthday</title>
    <g stroke="none" stroke-width="1" fill="none" fill-rule="evenodd" stroke-linecap="round" stroke-linejoin="round">
        <g transform="translate(1.416667, 1.416366)" stroke="currentColor">
            <line x1="0" y1="19.1669673" x2="19.1666667" y2="19.1669673" id="Path"></line>
            <path d="M0.833333333,10.4169673 L0.833333333,15.833634 C0.835623566,16.7531583 1.58047573,17.4980104 2.5,17.5003007 L16.6666667,17.5003007 C17.5861909,17.4980104 18.3310431,16.7531583 18.3333333,15.833634 L18.3333333,10.4169673" id="Path"></path>
            <path d="M5.41666667,2.08363399 C5.41666667,2.77398991 4.85702259,3.33363396 4.16666667,3.33363396 C3.47631074,3.33363396 2.91666667,2.77398991 2.91666667,2.08363399 C3.07060299,1.37824792 3.38705239,0.718526536 3.84083333,0.156967321 C3.91989086,0.0577773213 4.03982523,4.54747351e-13 4.16666667,4.54747351e-13 C4.2935081,4.54747351e-13 4.41344247,0.0577773213 4.4925,0.156967321 C4.94654267,0.718361148 5.26302315,1.37814732 5.41666667,2.08363399 L5.41666667,2.08363399 Z" id="Path"></path>
            <path d="M16.25,2.08363399 C16.25,2.77398993 15.6903559,3.33363399 15,3.33363399 C14.3096441,3.33363399 13.75,2.77398993 13.75,2.08363399 C13.9039363,1.37824792 14.2203857,0.718526536 14.6741667,0.156967321 C14.7532242,0.0577773213 14.8731586,9.09494702e-13 15,9.09494702e-13 C15.1268414,9.09494702e-13 15.2467758,0.0577773213 15.3258333,0.156967321 C15.779876,0.718361148 16.0963565,1.37814732 16.25,2.08363399 L16.25,2.08363399 Z" id="Path"></path>
            <path d="M10.8333333,2.08363399 C10.8333333,2.77398993 10.2736893,3.33363399 9.58333333,3.33363399 C8.8929774,3.33363399 8.33333333,2.77398993 8.33333333,2.08363399 C8.48726966,1.37824792 8.80371906,0.718526536 9.2575,0.156967321 C9.33655753,0.0577773213 9.4564919,9.09494702e-13 9.58333333,9.09494702e-13 C9.71017477,9.09494702e-13 9.83010914,0.0577773213 9.90916667,0.156967321 C10.3632093,0.718361148 10.6796898,1.37814732 10.8333333,2.08363399 L10.8333333,2.08363399 Z" id="Path"></path>
            <path d="M10.4166667,8.33363399 L8.75,8.33363399 L8.75,5.41696732 C8.75,5.18684868 8.93654802,5.00030065 9.16666667,5.00030065 L10,5.00030065 C10.2301186,5.00030065 10.4166667,5.18684868 10.4166667,5.41696732 L10.4166667,8.33363399 Z" id="Path"></path>
            <path d="M5,8.33363399 L3.33333333,8.33363399 L3.33333333,5.41696732 C3.33333333,5.18684868 3.51988135,5.00030065 3.75,5.00030065 L4.58333333,5.00030065 C4.81345198,5.00030065 5,5.18684868 5,5.41696732 L5,8.33363399 Z" id="Path"></path>
            <path d="M15.8333333,8.33363399 L14.1666667,8.33363399 L14.1666667,5.41696732 C14.1666667,5.18684868 14.3532147,5.00030065 14.5833333,5.00030065 L15.4166667,5.00030065 C15.6467853,5.00030065 15.8333333,5.18684868 15.8333333,5.41696732 L15.8333333,8.33363399 Z" id="Path"></path>
            <path d="M18.3333333,10.4169673 C18.3333333,11.6250902 17.3539562,12.6044673 16.1458333,12.6044673 C14.9377104,12.6044673 13.9583333,11.6250902 13.9583333,10.4169673 C13.9583333,11.6250902 12.9789562,12.6044673 11.7708333,12.6044673 C10.5627104,12.6044673 9.58333333,11.6250902 9.58333333,10.4169673 C9.58333333,11.6250902 8.60395622,12.6044673 7.39583333,12.6044673 C6.18771044,12.6044673 5.20833333,11.6250902 5.20833333,10.4169673 C5.2083333,11.6250902 4.2289562,12.6044673 3.02083333,12.6044673 C1.81271047,12.6044673 0.833333333,11.6250902 0.833333333,10.4169673 L0.833333333,9.16696732 C0.833333333,8.70673003 1.20642938,8.33363399 1.66666667,8.33363399 L17.5,8.33363399 C17.9602373,8.33363399 18.3333333,8.70673003 18.3333333,9.16696732 L18.3333333,10.4169673 Z" id="Path"></path>
        </g>
    </g>
</svg>
