<?xml version="1.0" encoding="UTF-8"?>
<svg viewBox="0 0 60 60" version="1.1" xmlns="http://www.w3.org/2000/svg" xmlns:xlink="http://www.w3.org/1999/xlink">
    <g stroke="none" stroke-width="1" fill="none" fill-rule="evenodd">
        <g fill-rule="nonzero">
            <path d="M30,0 C46.5684,0 60,13.4316 60,30 C60,46.569 46.5678,60 30,60 C13.431,60 0,46.569 0,30 C0,13.4316 13.431,0 30,0 Z" id="Path-Copy-8" fill="#91D8F0"></path>
            <polygon id="Path" fill="#E2574C" points="6 20.8695652 22.173913 20.8695652 22.173913 31.3043478 6 31.3043478"></polygon>
            <polygon id="Path" fill="#F7F8F9" points="12.5217391 28.9565217 12.5217391 23.7391304 17.7391304 26.3478261"></polygon>
            <path d="M29.8536335,27.3913043 C30.394472,27.4046609 30.8363665,27.5232 31.2715528,27.7627826 C31.3193478,27.7886609 31.4560248,27.8120348 31.5558075,27.8287304 C31.8073602,27.8713043 32.1209627,27.9247304 32.3339441,28.1534609 C32.6349689,28.4806957 32.7548758,28.848 32.7691304,29.4982957 C32.911677,30.0367304 32.911677,30.7838609 32.911677,31.1920696 C33.0332609,31.4007652 33.1380745,31.6645565 33.0332609,32.1721043 C32.9175466,32.7322435 32.5385404,33.1621565 32.1830124,33.5085913 C32.1226398,33.5712 31.9876398,33.8366609 31.8979193,34.0128 C31.780528,34.2457043 31.6673292,34.4685913 31.5465839,34.6355478 L31.5465839,34.6355478 L31.5465839,35.0546087 C31.5465839,35.253287 31.6882919,35.4252522 31.8828261,35.4636522 L31.8828261,35.4636522 L33.716646,35.829287 C34.8155752,36.0476264 35.6315292,36.9687926 35.7292843,38.0632096 C35.8588763,38.2366801 35.9823089,38.4183145 36.0984271,38.6072944 C36.1288021,38.6564222 36.1585109,38.7063067 36.1875613,38.7562123 L36.6867717,39.6134183 L38.2316957,38.5513043 L39.2468411,36.2524567 L39.5383371,35.262633 C39.7026354,34.7045838 40.1972672,34.361041 40.7108667,34.4482612 C41.2244662,34.5354814 41.6084081,35.028225 41.6210049,35.6163147 L41.6216735,35.6428096 L41.6216735,35.6428096 C41.6215292,35.7429168 41.6105265,35.8426247 41.5889125,35.9396922 L41.3495573,37.024924 L43.0116798,36.3190956 C43.4262872,36.143047 43.8862796,36.1656035 44.2859041,36.3815793 C44.6855286,36.5975551 44.9904025,36.9883683 45.1304348,37.4641701 L40.3165854,39.8875969 L39.7476957,40.5303043 L40.4347826,41.513834 L35.1521739,45.1422925 L33.5673913,43.3280632 L33.5673913,46.9565217 L26.1717391,46.9565217 L26.1717391,43.3280632 L24.5869565,45.1422925 L19.3043478,41.513834 L19.9906957,40.5313043 L19.422545,39.8875969 L14.6086957,37.4641701 C14.7487279,36.9883673 15.0536023,36.5975535 15.4532276,36.3815776 C15.8528529,36.1656017 16.3128462,36.1430458 16.727454,36.3190956 L16.727454,36.3190956 L18.3895765,37.024924 L18.1502179,35.9396922 C18.128604,35.8426247 18.1176012,35.7429168 18.117457,35.6428096 C18.117457,35.6337331 18.117457,35.6253927 18.1181256,35.6163147 C18.1307223,35.028225 18.5146642,34.5354814 19.0282638,34.4482612 C19.5418633,34.361041 20.0364951,34.7045838 20.2007934,35.262633 L20.2007934,35.262633 L20.4922893,36.2524567 L21.5066957,38.5513043 L23.0523587,39.6134183 L23.5515698,38.7562055 C23.5806202,38.7063021 23.6103316,38.6564176 23.640704,38.6072875 C23.757022,38.4179159 23.8806868,38.2359202 24.0111238,38.0617036 C24.1080973,36.9682289 24.9238388,36.0475596 26.021646,35.829287 L26.021646,35.829287 L27.8554658,35.4636522 C28.0508385,35.4252522 28.1925466,35.253287 28.1925466,35.0546087 L28.1925466,35.0546087 L28.1925466,34.6363826 C28.0718012,34.4694261 27.957764,34.2465391 27.8386957,34.0144696 C27.7481366,33.8383304 27.6114596,33.5712 27.5502484,33.5077565 C27.1963975,33.1629913 26.8173913,32.733913 26.701677,32.1712696 C26.5960248,31.6645565 26.7008385,31.4007652 26.8073292,31.1920696 L26.8073292,31.1920696 L26.8190683,30.8990609 C26.8090062,30.395687 26.7955901,29.7696 26.9339441,29.3881043 C27.3884161,28.1317565 28.7468012,27.4330435 29.8536335,27.3913043 Z" id="Combined-Shape" fill="#455F78"></path>
            <path d="M52.7657365,28.9314017 L52.3893576,28.9314017 L52.3893576,20.5530849 C52.3893576,20.1756832 52.0129786,19.8737619 51.6365996,19.8737619 L46.4425698,19.8737619 L46.367294,19.5718406 C46.2920182,19.2699193 45.990915,19.0434783 45.614536,19.0434783 C45.238157,19.0434783 45.0123297,19.1944389 44.8617781,19.5718406 L44.7865023,19.8737619 L39.5924724,19.8737619 C39.2160934,19.8737619 38.8397145,20.1756832 38.8397145,20.5530849 L38.8397145,28.9314017 L38.4633355,28.9314017 C38.2375081,28.9314017 38.0869565,29.0823624 38.0869565,29.3088033 L38.0869565,30.0636067 C38.0869565,30.2900477 38.2375081,30.4410083 38.4633355,30.4410083 L41.3238157,30.4410083 L40.4205062,33.2337806 C40.2699546,33.6111822 40.5710578,34.0640642 40.9474367,34.1395446 C41.3238157,34.2150249 41.7754705,33.9885839 41.8507463,33.6111822 L42.9046074,30.365528 L48.3997404,30.365528 L49.4536016,33.6111822 C49.5288774,33.9131036 49.9052563,34.2905052 50.3569111,34.1395446 C50.7332901,33.9885839 50.9591175,33.6111822 50.8838417,33.2337806 L49.9805321,30.4410083 L52.8410123,30.4410083 C53.0668397,30.4410083 53.2173913,30.2900477 53.2173913,30.0636067 L53.2173913,29.3088033 C53.1421155,29.0823624 52.9915639,28.9314017 52.7657365,28.9314017 Z" id="Path" fill="#F1CD6E"></path>
            <polygon id="Path" fill="#FFFFFF" points="50.4215501 27.9243856 40.7183365 27.9243856 40.7183365 21.6748582 50.4215501 21.6748582 50.4215501 27.9243856"></polygon>
        </g>
    </g>
</svg>
