<?xml version="1.0" encoding="UTF-8"?>
<svg viewBox="0 0 14 15" version="1.1" xmlns="http://www.w3.org/2000/svg">
    <title>Shape Copy</title>
    <g id="Create-Segment" stroke="none" stroke-width="1" fill="none" fill-rule="evenodd">
        <g id="Segment-1" transform="translate(-291.000000, -345.000000)" fill="#4A4A4A" fill-rule="nonzero">
            <path d="M305,348.333333 L305,346.666667 C305,345.75 304.3,345 303.444444,345 L292.555556,345 C291.7,345 291,345.75 291,346.666667 L291,358.333333 C291,359.25 291.7,360 292.555556,360 L303.444444,360 C304.3,360 305,359.25 305,358.333333 L305,356.666667 L305,355 L305,353.333333 L305,351.666667 L305,350 L305,348.333333 Z M304,359 L292,359 L292,346 L304,346 L304,359 Z M293,354 L298,354 L298,358 L293,358 L293,354 Z M299,347 L303,347 L303,350 L299,350 L299,347 Z M293,347 L298,347 L298,353 L293,353 L293,347 Z M299,351 L303,351 L303,358 L299,358 L299,351 Z" id="Shape-Copy"></path>
        </g>
    </g>
</svg>