<?xml version="1.0" encoding="UTF-8"?>
<svg viewBox="0 0 17 17" version="1.1" xmlns="http://www.w3.org/2000/svg" xmlns:xlink="http://www.w3.org/1999/xlink">
    <title>Group 2</title>
    <g id="Page-1" stroke="none" stroke-width="1" fill="none" fill-rule="evenodd" stroke-linecap="round" stroke-linejoin="round">
        <g id="visibility-button-states" transform="translate(-232.000000, -11.000000)" stroke="currentColor">
            <g id="Group-2" transform="translate(232.500000, 11.500000)">
                <path d="M4.86956522,16 L5.2173913,11.826087 L6.95652174,11.826087 L6.95652174,9.39130435 C6.95652174,7.47031391 5.3992513,5.91304348 3.47826087,5.91304348 C1.55727044,5.91304348 -1.97175609e-13,7.47031391 -1.97175609e-13,9.39130435 L-1.97175609e-13,11.826087 L1.73913043,11.826087 L2.08695652,16 L4.86956522,16 Z" id="Shape"></path>
                <circle id="Oval" cx="3.47826087" cy="2.43478261" r="2.43478261"></circle>
                <path d="M11.7836522,6.86608696 C10.7450563,5.88279796 9.21085799,5.63450117 7.91513043,6.24" id="Shape"></path>
                <circle id="Oval" cx="9.39130435" cy="2.7826087" r="2.08695652"></circle>
                <circle id="Oval" cx="14.6086957" cy="14.6086957" r="1.39130435"></circle>
                <circle id="Oval" cx="14.6086957" cy="10.4347826" r="1.39130435"></circle>
                <circle id="Oval" cx="10.4347826" cy="12.8695652" r="1.39130435"></circle>
                <line x1="11.634087" y1="12.1697391" x2="13.408" y2="11.1353043" id="Shape"></line>
                <line x1="11.7189565" y1="13.4052174" x2="13.3245217" y2="14.0737391" id="Shape"></line>
            </g>
        </g>
    </g>
</svg>
