<?xml version="1.0" encoding="UTF-8"?>
<svg viewBox="0 0 19 24" version="1.1" xmlns="http://www.w3.org/2000/svg" xmlns:xlink="http://www.w3.org/1999/xlink">
    <g stroke="none" stroke-width="1" fill="none" fill-rule="evenodd" stroke-linecap="round" stroke-linejoin="round">
        <g transform="translate(-95, -345)" stroke="currentColor">
            <g transform="translate(94, 304)">
                <g transform="translate(1, 40.6251)">
                    <g transform="translate(0, 0.3749)">
                        <line x1="15.3846154" y1="3.07692308" x2="15.3846154" y2="0"></line>
                        <path d="M18.4615385,19.2307692 C18.4615385,19.6556037 18.1171421,20 17.6923077,20 L9.23076923,20 L9.23076923,5.21692308 C9.23086677,4.86386887 9.47128603,4.55620834 9.81384615,4.47076923 L17.5061538,2.54769231 C17.7358779,2.49039603 17.9791888,2.54208043 18.1657853,2.68781206 C18.3523819,2.83354368 18.4615385,3.0570847 18.4615385,3.29384615 L18.4615385,19.2307692 Z"></path>
                        <path d="M9.23076923,20 L0.769230769,20 C0.344396346,20 0,19.6556037 0,19.2307692 L0,10.7692308 C0,9.91956192 0.688792693,9.23076923 1.53846154,9.23076923 L9.23076923,9.23076923"></path>
                        <line x1="12.3076923" y1="7.69230769" x2="15.3846154" y2="7.69230769"></line>
                        <line x1="12.3076923" y1="10.7692308" x2="15.3846154" y2="10.7692308"></line>
                        <line x1="12.3076923" y1="13.8461538" x2="15.3846154" y2="13.8461538"></line>
                        <line x1="3.07692308" y1="12.3076923" x2="6.15384615" y2="12.3076923"></line>
                        <line x1="3.07692308" y1="15.3846154" x2="6.15384615" y2="15.3846154"></line>
                    </g>
                </g>
            </g>
        </g>
    </g>
</svg>