<svg xmlns="http://www.w3.org/2000/svg" viewBox="0 0 31 31">
    <g fill="none" stroke="currentColor" stroke-linecap="round" stroke-linejoin="round" data-name="Group 46">
        <path data-name="Shape 205" d="M29.055 6.708v21.106a1.242 1.242 0 01-1.241 1.242H6.708"/>
        <path data-name="Shape 206" d="M26.572 2.983V25.33a1.242 1.242 0 01-1.242 1.242H2.983"/>
        <path data-name="Rectangle-path 56" d="M.5 1.74A1.242 1.242 0 011.742.498h21.106a1.242 1.242 0 011.241 1.242v21.106a1.242 1.242 0 01-1.242 1.242H1.741a1.242 1.242 0 01-1.242-1.242z"/><path data-name="Shape 207" d="M20.985 19.122L16.574 10.3c-.305-.611-.8-.611-1.11 0l-3.17 6.339-2.309-2.771a.827.827 0 00-1.433.11l-3.086 5.144"/>
        <path data-name="Oval 48" d="M7.328 7.949a1.862 1.862 0 10-1.862-1.862 1.862 1.862 0 001.862 1.862z"/>
        <path data-name="Shape 208" d="M24.089 19.123H.5"/>
    </g>
</svg>