<svg xmlns="http://www.w3.org/2000/svg" viewBox="0 0 21.993 25"><g data-name="Group 716"><path d="M13.787 19a6.155 6.155 0 011.724-2.819 7.617 7.617 0 002.486-5.691 7.228 7.228 0 00-7.354-7.48 7.318 7.318 0 00-6.646 7.263 7.651 7.651 0 002.485 5.908A5.852 5.852 0 018.259 19z" fill="#ffd15c"/><path data-name="Path" d="M10.233 20h.5l-2.216-8.078h.166a1.1 1.1 0 00.775-.322.508.508 0 01.387-.166.508.508 0 01.388.166.959.959 0 001.439 0 .508.508 0 01.388-.166.6.6 0 01.387.166 1.015 1.015 0 00.775.325h.166L11.229 20h.5l2.268-8.458c0-.108 0-.217-.111-.271a.247.247 0 00-.277.054.482.482 0 01-.332.163.746.746 0 01-.442-.163.959.959 0 00-1.438 0 .543.543 0 01-.775 0A.9.9 0 009.897 11a.9.9 0 00-.72.325.636.636 0 01-.439.163.4.4 0 01-.332-.163.247.247 0 00-.277-.054.2.2 0 00-.11.271z" fill="#fff"/><g fill="#344a5e"><path data-name="Path" d="M9.276 23.898a1.861 1.861 0 001.7 1.1 1.861 1.861 0 001.691-1.1z"/><path data-name="Path" d="M12.996 23.951H9.003a.961.961 0 01-.985-.944V19.02h5.962v3.987a.961.961 0 01-.984.944z"/></g><g data-name="Group" fill="#415a6b"><path data-name="Path" d="M13.466 21.158h-4.94a.543.543 0 01-.5-.567.543.543 0 01.5-.568h4.94a.543.543 0 01.5.568.543.543 0 01-.5.567zM13.466 22.964h-4.94a.543.543 0 01-.5-.567.543.543 0 01.5-.568h4.94a.543.543 0 01.5.568.543.543 0 01-.5.567z"/></g><g data-name="Group" fill="#ffd15c"><path data-name="Path" d="M10.997 0a.528.528 0 00-.526.528v1.794a.528.528 0 00.526.528.5.5 0 00.526-.528V.528A.528.528 0 0010.997 0zM3.946 3.219a.507.507 0 00-.737 0 .511.511 0 00.001.742l1.263 1.264a.507.507 0 00.737 0 .511.511 0 000-.739zM2.315 10.503H.526a.528.528 0 00-.526.528.528.528 0 00.526.528h1.789a.528.528 0 00.526-.528.567.567 0 00-.526-.528zM4.473 16.836L3.21 18.103a.511.511 0 000 .739.508.508 0 00.737 0l1.262-1.264a.511.511 0 000-.739.508.508 0 00-.736-.003zM17.522 16.836a.508.508 0 00-.737 0 .511.511 0 000 .742l1.263 1.264a.507.507 0 00.737 0 .511.511 0 000-.739zM21.467 10.503h-1.789a.528.528 0 00-.526.528.528.528 0 00.526.528h1.789a.528.528 0 00.526-.528.528.528 0 00-.526-.528zM18.048 3.219l-1.263 1.267a.511.511 0 000 .739.507.507 0 00.737 0l1.262-1.264a.511.511 0 000-.739.508.508 0 00-.736-.003z"/></g></g></svg>
