<?xml version="1.0" encoding="UTF-8"?>
<svg viewBox="0 0 573 413" version="1.1" xmlns="http://www.w3.org/2000/svg" xmlns:xlink="http://www.w3.org/1999/xlink">
    <title>D67114CE-E8C3-4BC7-AA43-8637F544D99F</title>
    <g id="Desktop-Course-Certificate" stroke="currentColor" stroke-width="1" fill="none" fill-rule="evenodd">
        <g id="Index---Course-Credits" transform="translate(-507.000000, -995.000000)" stroke="currentColor">
            <g id="Certifcate-Border" transform="translate(509.181818, 997.454545)">
                <path d="M568,390.220198 C558.654427,391.088543 551.187026,398.599022 550.323661,408 L17.6763388,408 C16.8203975,398.599022 9.3529962,391.088543 0,390.220198 L0,17.7790558 C9.3529962,16.9099637 16.8203975,9.40023153 17.6763388,0 L550.323661,0 C551.187026,9.40023153 558.654427,16.9099637 568,17.7790558 L568,390.220198 Z" id="Fill-29" stroke-width="4"></path>
                <path d="M556.685714,379.758087 C547.707289,380.578673 540.53325,387.676076 539.703803,396.56 L27.9819112,396.56 C27.1595961,387.676076 19.9855571,380.578673 11,379.758087 L11,27.8012078 C19.9855571,26.9799157 27.1595961,19.8832188 27.9819112,11 L539.703803,11 C540.53325,19.8832188 547.707289,26.9799157 556.685714,27.8012078 L556.685714,379.758087 Z" id="Fill-29" stroke-width="2"></path>
            </g>
        </g>
    </g>
</svg>
