<?xml version="1.0" encoding="UTF-8"?>
<svg version="1.1" viewBox="0 0 22.0 19.0" xmlns="http://www.w3.org/2000/svg" xmlns:xlink="http://www.w3.org/1999/xlink">
    <defs>
        <clipPath id="i0">
            <path d="M1300,0 L1300,1545 L0,1545 L0,0 L1300,0 Z"></path>
        </clipPath>
    </defs>
    <g transform="translate(-91.0 -365.0)">
        <g clip-path="url(#i0)">
            <g transform="translate(92.0 366.0000000000003)">
                <g transform="translate(5.5183946488294 13.6120401337789)">
                    <path d="M0,2.94314381 L1.47157191,1.47157191 L0,0" stroke="#656565" stroke-width="1" fill="none" stroke-linecap="round" stroke-linejoin="round"></path>
                </g>
                <g transform="translate(2.572307692307633 11.40468227424762)">
                    <path d="M0,0 C0,2.03181681 1.64711296,3.67892977 3.67892977,3.67892977 L4.41471572,3.67892977" stroke="#656565" stroke-width="1" fill="none" stroke-linecap="round" stroke-linejoin="round"></path>
                </g>
                <g transform="translate(12.50836120401336 0.36789297658802056)">
                    <path d="M1.47157191,0 L0,1.47157191 L1.47157191,2.94314381" stroke="#656565" stroke-width="1" fill="none" stroke-linecap="round" stroke-linejoin="round"></path>
                </g>
                <g transform="translate(12.50541806020069 1.8394648829432663)">
                    <path d="M4.41471572,3.67892977 C4.41471572,1.64711296 2.76760276,0 0.735785953,0 L0,0" stroke="#656565" stroke-width="1" fill="none" stroke-linecap="round" stroke-linejoin="round"></path>
                </g>
                <path d="M2,0 L7.56521739,0 C8.66978689,-2.02906125e-16 9.56521739,0.8954305 9.56521739,2 L9.56521739,5.35785953 C9.56521739,6.46242903 8.66978689,7.35785953 7.56521739,7.35785953 L2,7.35785953 C0.8954305,7.35785953 6.25798147e-16,6.46242903 0,5.35785953 L0,2 C-1.3527075e-16,0.8954305 0.8954305,2.02906125e-16 2,0 Z" stroke="#656565" stroke-width="1" fill="none" stroke-linecap="round" stroke-linejoin="round"></path>
                <g transform="translate(0.0 1.8394648829432663)">
                    <path d="M0,0.367892977 L9.56521739,0.367892977" stroke="#656565" stroke-width="1" fill="none" stroke-linecap="round" stroke-linejoin="round"></path>
                </g>
                <g transform="translate(1.839464882943167 3.3110367892969297)">
                    <path d="M0,0.367892977 L3.31103679,0.367892977" stroke="#656565" stroke-width="1" fill="none" stroke-linecap="round" stroke-linejoin="round"></path>
                </g>
                <g transform="translate(1.839464882943167 4.782608695652176)">
                    <path d="M0,0.367892977 L1.47157191,0.367892977" stroke="#656565" stroke-width="1" fill="none" stroke-linecap="round" stroke-linejoin="round"></path>
                </g>
                <g transform="translate(10.43478260869565 9.565217391304351)">
                    <path d="M2,0 L7.56521739,0 C8.66978689,-2.02906125e-16 9.56521739,0.8954305 9.56521739,2 L9.56521739,5.35785953 C9.56521739,6.46242903 8.66978689,7.35785953 7.56521739,7.35785953 L2,7.35785953 C0.8954305,7.35785953 1.3527075e-16,6.46242903 0,5.35785953 L0,2 C-1.3527075e-16,0.8954305 0.8954305,2.02906125e-16 2,0 Z" stroke="#656565" stroke-width="1" fill="none" stroke-linecap="round" stroke-linejoin="round"></path>
                </g>
                <g transform="translate(10.43478260869565 11.40468227424762)">
                    <path d="M0,0.367892977 L9.56521739,0.367892977" stroke="#656565" stroke-width="1" fill="none" stroke-linecap="round" stroke-linejoin="round"></path>
                </g>
                <g transform="translate(12.27424749163885 12.87625418060067)">
                    <path d="M0,0.367892977 L3.31103679,0.367892977" stroke="#656565" stroke-width="1" fill="none" stroke-linecap="round" stroke-linejoin="round"></path>
                </g>
                <g transform="translate(12.27424749163879 14.34782608695592)">
                    <path d="M0,0.367892977 L1.47157191,0.367892977" stroke="#656565" stroke-width="1" fill="none" stroke-linecap="round" stroke-linejoin="round"></path>
                </g>
            </g>
        </g>
    </g>
</svg>
