<?xml version="1.0" encoding="UTF-8"?>
<svg viewBox="0 0 18 17" version="1.1" xmlns="http://www.w3.org/2000/svg" xmlns:xlink="http://www.w3.org/1999/xlink">
    <g stroke="none" stroke-width="1" fill="none" fill-rule="evenodd" stroke-linecap="round" stroke-linejoin="round">
        <g transform="translate(-422.000000, -360.000000)" stroke="currentColor">
            <g transform="translate(423.000000, 361.000000)">
                <path d="M16,0.695652174 C16,0.311454087 15.6885459,0 15.3043478,0 L0.695652174,0 C0.311454087,0 0,0.311454087 0,0.695652174 L0,11.826087 C0,12.210285 0.311454087,12.5217391 0.695652174,12.5217391 L10.7826087,12.5217391 L10.7826087,15.3043478 L13.5652174,12.5217391 L15.3043478,12.5217391 C15.6885459,12.5217391 16,12.210285 16,11.826087 L16,0.695652174 Z"></path>
                <path d="M2.08695652,11.1304348 C2.08695652,9.40154339 3.48849991,8 5.2173913,8 C6.9462827,8 8.34782609,9.40154339 8.34782609,11.1304348" ></path>
                <circle cx="5.2173913" cy="5.39130435" r="1.91304348"></circle>
                <path d="M9.36904348,8.33669565 C10.3395883,7.84551225 11.4955358,7.89335928 12.4221681,8.46307073 C13.3488003,9.03278217 13.9132626,10.0426763 13.9130436,11.1304348"></path>
                <circle cx="10.7826087" cy="5.39130435" r="1.91304348"></circle>
            </g>
        </g>
    </g>
</svg>
