<?xml version="1.0" encoding="UTF-8"?>
<svg viewBox="0 0 24 24" version="1.1" xmlns="http://www.w3.org/2000/svg" xmlns:xlink="http://www.w3.org/1999/xlink">
    <g id="Enhancement-1" stroke="none" stroke-width="1" fill="none" fill-rule="evenodd">
        <g id="move-success-toast" transform="translate(-54.000000, -41.000000)">
            <g id="Group-60" transform="translate(54.000000, 41.000000)">
                <circle id="Oval" fill="currentColor" cx="12" cy="12" r="12"></circle>
                <path d="M6.18467495,13.5158795 C6.06644046,13.6424416 6,13.8142267 6,13.9933657 C6,14.1725048 6.06644046,14.3442899 6.18467495,14.470852 L9.20659875,17.7117162 C9.45294723,17.9748825 9.85138389,17.9748825 10.0977324,17.7117162 L17.815325,9.43584797 C17.9335595,9.30928592 18,9.13750083 18,8.95836175 C18,8.77922268 17.9335595,8.60743758 17.815325,8.48087554 L16.6194947,7.19806841 C16.5013732,7.0712557 16.3410792,7 16.1739279,7 C16.0067766,7 15.8464826,7.0712557 15.7283611,7.19806841 L9.65216556,13.713923 L8.2716389,12.2330724 C8.15351741,12.1062597 7.99322344,12.035004 7.8260721,12.035004 C7.65892076,12.035004 7.49862679,12.1062597 7.3805053,12.2330724 L6.18467495,13.5158795 Z" id="Path" fill="#FFFFFF"></path>
            </g>
        </g>
    </g>
</svg>
