<?xml version="1.0" encoding="UTF-8"?>
<svg viewBox="0 0 24 18" version="1.1" xmlns="http://www.w3.org/2000/svg">
    <title>Group 77</title>
    <g id="Course-Instance" stroke="none" stroke-width="1" fill="none" fill-rule="evenodd" stroke-linecap="round" stroke-linejoin="round">
        <g id="Group-77" transform="translate(0.500000, 0.500000)" stroke="#000000">
            <path d="M21.1,8.6 C20.5414302,7.68170697 20.2633686,6.62020691 20.3,5.546 L20.3,4.3 C20.2972522,2.56962394 19.2575617,1.00947551 17.6615907,0.340831103 C16.0656196,-0.327813302 14.2243405,0.0253306382 12.989,1.237" id="Shape"></path>
            <path d="M14,4.519 C14.7661798,4.1757612 15.4485989,3.67008866 16,3.037 C17.0792714,4.28678586 18.6487002,5.00543823 20.3,5.006" id="Shape"></path>
            <path d="M19.786,4.984 C19.7242522,6.29962959 18.9840824,7.48892877 17.8309647,8.12533554 C16.677847,8.76174232 15.2770527,8.75404335 14.131,8.105" id="Shape"></path>
            <path d="M0,17.0000001 C0,13.1340068 3.13400679,10.0000001 7,10.0000001 C10.8659932,10.0000001 14,13.1340068 14,17.0000001 L0,17.0000001 Z" id="Shape"></path>
            <path d="M3.338,2.092 C5.37773146,4.2056567 8.5128387,4.83602311 11.211,3.675" id="Shape"></path>
            <circle id="Oval" cx="7" cy="4.25" r="4.25"></circle>
            <path d="M14,10.29 C16.1186472,9.66054913 18.4100973,10.0678907 20.1820104,11.3889503 C21.9539234,12.71001 22.9984514,14.7898253 23,17 L16.5,17" id="Shape"></path>
        </g>
    </g>
</svg>
