<?xml version="1.0" encoding="UTF-8"?>
<svg viewBox="0 0 109 80" version="1.1" xmlns="http://www.w3.org/2000/svg" xmlns:xlink="http://www.w3.org/1999/xlink">
    <title>Group 9</title>
    <g id="Course-Instance" stroke="none" stroke-width="1" fill="none" fill-rule="evenodd">
        <g id="Remove-Zoom-Account-Warning" transform="translate(-972.000000, -984.000000)" fill-rule="nonzero">
            <g id="Group-9" transform="translate(972.000000, 984.000000)">
                <path d="M62.006483,0 L11.993517,0 C5.39708266,0 0,5.36312849 0,11.9180633 L0,52.0819367 C0,58.6368715 5.39708266,64 11.993517,64 L62.006483,64 C68.6029173,64 74,58.6368715 74,52.0819367 L74,11.9180633 C74,5.24394786 68.6029173,0 62.006483,0 Z" id="Path" fill="#656565"></path>
                <path d="M100.311741,5.19528008 C99.6072874,5.31651837 98.902834,5.68023325 98.3157895,6.04394813 L80,16.9553945 L80,45.0826787 L98.4331984,55.9941251 C101.838057,58.0551761 106.064777,56.8427931 108.060729,53.3268826 C108.647773,52.235738 109,51.023355 109,49.6897338 L109,12.2271011 C109,7.74128424 104.890688,4.10413543 100.311741,5.19528008 Z" id="Path" fill="#656565"></path>
                <ellipse id="Oval" fill="#339BB2" cx="65.5" cy="56" rx="24.5" ry="24"></ellipse>
                <path d="M76.6491181,63.3173581 C76.0768231,62.9140582 75.2678745,63.0266739 74.8421563,63.5687094 C74.6080209,63.8668565 74.3574845,64.1593147 74.097456,64.4379483 C73.6251174,64.9441377 73.6752892,65.7173382 74.2096163,66.1648647 C74.4553745,66.3706437 74.7604736,66.4716981 75.0644751,66.4716981 C75.4216832,66.4716981 75.7773417,66.3320449 76.0325272,66.0585497 C76.3404675,65.7285937 76.6371724,65.3822439 76.9144414,65.0291041 C77.3401596,64.4870686 77.2214131,63.7205969 76.6491181,63.3173581 Z" id="Path" fill="#FFFFFF"></path>
                <path d="M79.0113554,58.0075568 C78.3343364,57.873115 77.6651635,58.2648792 77.5177207,58.8825445 C77.4365613,59.2223406 77.3385172,59.5627662 77.2260992,59.8944923 C77.0214117,60.4985361 77.392498,61.1394383 78.0548919,61.3260772 C78.1783572,61.360818 78.3031406,61.3773585 78.4259154,61.3773585 C78.9619568,61.3773585 79.4583286,61.0617722 79.6249157,60.5702498 C79.7583611,60.1765969 79.8747335,59.7725847 79.9710201,59.3694882 C80.1184629,58.7518229 79.6888138,58.1420558 79.0113554,58.0075568 Z" id="Path" fill="#FFFFFF"></path>
                <path d="M70.8952538,67.1844642 C70.5836106,67.355642 70.2609338,67.5156159 69.9362614,67.6599389 C69.3454306,67.9224808 69.0827935,68.6066145 69.3495976,69.1880068 C69.5456217,69.6151427 69.9728252,69.8679245 70.420042,69.8679245 C70.5815565,69.8679245 70.745712,69.834948 70.9024727,69.7652987 C71.2876542,69.5941209 71.6701948,69.4044046 72.0397062,69.2014053 C72.6057699,68.890467 72.808426,68.186813 72.4923224,67.6298499 C72.1763948,67.0729446 71.4613175,66.8735259 70.8952538,67.1844642 Z" id="Path" fill="#FFFFFF"></path>
                <path d="M63.5696431,46.7041851 L63.5696431,55.6241999 L59.3903954,59.936046 C58.9453399,60.3952872 58.9453399,61.1397976 59.3903954,61.59898 C59.6129801,61.82863 59.9045741,61.9433962 60.196339,61.9433962 C60.48799,61.9433962 60.7796979,61.8285712 61.0022827,61.59898 L65.5152935,56.9427177 C65.7289885,56.7222396 65.8490566,56.4230949 65.8490566,56.1112507 L65.8490566,46.7041851 C65.8490566,46.0547448 65.3388099,45.5283019 64.7093498,45.5283019 C64.0798898,45.5283019 63.5696431,46.0547448 63.5696431,46.7041851 Z" id="Path" fill="#FFFFFF"></path>
                <path d="M78.828125,43.5195312 C78.1808984,43.5195312 77.65625,44.0441797 77.65625,44.6914062 L77.65625,47.9454688 C74.9285938,43.6676563 70.1650977,41 65,41 C60.9933594,41 57.226543,42.560293 54.3933594,45.3933594 C51.560293,48.226543 50,51.9933594 50,56 C50,60.0066406 51.560293,63.773457 54.3933594,66.6066406 C57.226543,69.439707 60.9933594,71 65,71 C65.0099023,71 65.0194531,70.9987695 65.0292969,70.9985352 C65.0391406,70.9987695 65.0486914,71 65.0585938,71 C65.4809375,71 65.9074414,70.9821875 66.3263867,70.9471484 C66.9713281,70.893125 67.4503906,70.3265234 67.3964258,69.681582 C67.3423437,69.0366406 66.7765039,68.5573438 66.1308008,68.6116016 C65.7766602,68.6411914 65.415957,68.65625 65.0585938,68.65625 C65.0486914,68.65625 65.0391406,68.6574805 65.0292969,68.6577148 C65.0194531,68.6574805 65.0099023,68.65625 65,68.65625 C58.0213086,68.65625 52.34375,62.9786914 52.34375,56 C52.34375,49.0213086 58.0213086,43.34375 65,43.34375 C69.4975391,43.34375 73.6341992,45.7409961 75.8946875,49.5546875 L72.6724414,49.5546875 C72.0252148,49.5546875 71.5005664,50.0793359 71.5005664,50.7265625 C71.5005664,51.3737891 72.0252148,51.8984375 72.6724414,51.8984375 L76.25,51.8984375 C76.9636719,51.8984375 77.6313477,51.6978711 78.1998242,51.3504102 C78.2363867,51.3295508 78.271543,51.3071094 78.3050586,51.2829102 C79.3249414,50.6119531 80,49.457832 80,48.1484375 L80,44.6914062 C80,44.0441797 79.4753516,43.5195312 78.828125,43.5195312 Z" id="Path" fill="#FFFFFF"></path>
            </g>
        </g>
    </g>
</svg>
