<?xml version="1.0" encoding="UTF-8"?>
<svg viewBox="0 0 12 12" version="1.1" xmlns="http://www.w3.org/2000/svg" xmlns:xlink="http://www.w3.org/1999/xlink">
    <g stroke="none" stroke-width="1" fill="none" fill-rule="evenodd">
        <g transform="translate(-1109.000000, -506.000000)">
            <g transform="translate(1109.000000, 506.000000)">
                <path d="M6,0 C9.3137085,0 12,2.6862915 12,6 C12,9.3137085 9.3137085,12 6,12 C2.6862915,12 0,9.3137085 0,6 C0,2.6862915 2.6862915,0 6,0 Z" id="Path" fill="#656565"></path>
                <path d="M8.80473785,3.19526215 C8.59111773,2.98164202 8.26859378,2.94329995 8.01587998,3.08023592 L7.9247337,3.13980307 L7.86192881,3.19526215 L6,5.057 L4.13807119,3.19526215 L4.0752663,3.13980307 C3.81373882,2.93645315 3.43558479,2.9549395 3.19526215,3.19526215 C2.96094757,3.42957672 2.93751611,3.79491727 3.12496777,4.05543704 L3.19526215,4.13807119 L5.057,6 L3.19526215,7.86192881 L3.12496777,7.94456296 C2.93751611,8.20508273 2.96094757,8.57042328 3.19526215,8.80473785 C3.40888227,9.01835798 3.73140622,9.05670005 3.98412002,8.91976408 L4.0752663,8.86019693 L4.13807119,8.80473785 L6,6.943 L7.86192881,8.80473785 L7.9247337,8.86019693 C8.18626118,9.06354685 8.56441521,9.0450605 8.80473785,8.80473785 C9.03905243,8.57042328 9.06248389,8.20508273 8.87503223,7.94456296 L8.80473785,7.86192881 L6.943,6 L8.80473785,4.13807119 L8.87503223,4.05543704 C9.06248389,3.79491727 9.03905243,3.42957672 8.80473785,3.19526215 Z" id="Path" fill="#FFFFFF"></path>
            </g>
        </g>
    </g>
</svg>
