<?xml version="1.0" encoding="utf-8"?>
<svg style="enable-background:new 0 0 24 24;" id="Layer_1" version="1.1" viewBox="0 0 24 24" x="0px"
    xmlns="http://www.w3.org/2000/svg" y="0px" xml:space="preserve">
  <g data-name="Group 1221" fill="none" stroke="currentColor" stroke-linecap="round"
      stroke-linejoin="round">
    <path data-name="Shape 496"
        d="M9.43 19.57L7.5 21.5v-4h-6a1 1 0 01-1-1v-15a1 1 0 011-1h18a1 1 0 011 1v7"/>
      <path data-name="Shape 497"
          d="M11.5 19.5h5l4 4v-4h2a1 1 0 001-1v-7a1 1 0 00-1-1h-10a1 1 0 00-1 1z"/>
      <path data-name="Shape 498" d="M5 4.5h11"/>
      <path data-name="Shape 499" d="M5 8.5h11"/>
      <path data-name="Shape 500" d="M14.5 13.5h6"/>
      <path data-name="Shape 501" d="M14.5 16.5h6"/>
      <path data-name="Shape 502" d="M5 12.5h4.5"/>
  </g>
</svg>
