<svg xmlns="http://www.w3.org/2000/svg" viewBox="0 0 24.008 24.175">
    <g transform="translate(-7321.997 9157.175)">
        <path d="M0,6A5.779,5.779,0,0,1,6,0a5.779,5.779,0,0,1,6,6Z" transform="translate(7333.496 -9139.505)" fill="none" stroke="currentColor" stroke-linecap="round" stroke-linejoin="round" stroke-miterlimit="10" stroke-width="1" />
        <circle cx="4" cy="4" r="4" transform="translate(7335.502 -9149)" fill="none" stroke="currentColor" stroke-linecap="round" stroke-linejoin="round" stroke-miterlimit="10" stroke-width="1" />
        <path d="M7.046,2.423a4.411,4.411,0,0,1-2.385.684A5.527,5.527,0,0,1,0,0" transform="translate(7336.454 -9147.607)" fill="none" stroke="currentColor" stroke-linecap="round" stroke-linejoin="round" stroke-miterlimit="10" stroke-width="1" />
        <path d="M0,.5H9.775" transform="translate(7323.736 -9143)" fill="none" stroke="currentColor" stroke-linecap="round" stroke-linejoin="round" stroke-miterlimit="10" stroke-width="1" />
        <path d="M0,.5H15.247" transform="translate(7324.134 -9153)" fill="none" stroke="currentColor" stroke-linecap="round" stroke-linejoin="round" stroke-miterlimit="10" stroke-width="1" />
        <path d="M11.509.5H0" transform="translate(7322.502 -9148)" fill="none" stroke="currentColor" stroke-linecap="round" stroke-linejoin="round" stroke-miterlimit="10" stroke-width="1" />
        <path d="M8.513,18.495A9.052,9.052,0,0,1,0,9.251a9.263,9.263,0,0,1,17.93-3.256" transform="translate(7322.498 -9156.495)" fill="none" stroke="currentColor" stroke-linecap="round" stroke-linejoin="round" stroke-miterlimit="10" stroke-width="1" />
        <path d="M3.593,0c-4.8,5.228-4.791,12.043.029,18.469" transform="translate(7327.389 -9156.469)" fill="none" stroke="currentColor" stroke-linecap="round" stroke-linejoin="round" stroke-miterlimit="10" stroke-width="1" />
        <path d="M0,0A12.974,12.974,0,0,1,3.339,6.967" transform="translate(7332.541 -9156.467)" fill="none" stroke="currentColor" stroke-linecap="round" stroke-linejoin="round" stroke-miterlimit="10" stroke-width="1" />
    </g>
</svg>