<?xml version="1.0" encoding="UTF-8"?>
<svg viewBox="0 0 21 22" version="1.1" xmlns="http://www.w3.org/2000/svg" xmlns:xlink="http://www.w3.org/1999/xlink">
    <g id="Desktop" stroke="none" stroke-width="1" fill="none" fill-rule="evenodd" stroke-linecap="round" stroke-linejoin="round">
        <g transform="translate(1.000000, 1.258830)" stroke="currentColor">
            <path d="M9.56522436,13.746087 L9.56522436,19.5652174 C9.56522436,19.8053412 9.75988316,20 10.000007,20 L16.9565287,20 C17.1966525,20 17.3913113,19.8053412 17.3913113,19.5652174 L17.3913113,13.746087" id="Shape"></path>
            <path d="M7.82609392,15.2173913 L12.9165287,10.9104348 C13.2407597,10.6360434 13.715776,10.6360434 14.040007,10.9104348 L19.1304417,15.2173913" id="Shape"></path>
            <path d="M14.7826157,20 L12.17392,20 L12.17392,17.3913043 C12.17392,16.6709329 12.7578964,16.0869565 13.4782678,16.0869565 C14.1986392,16.0869565 14.7826157,16.6709329 14.7826157,17.3913043 L14.7826157,20 Z" id="Shape"></path>
            <path d="M6.95652871,20 L0.434789575,20 C0.194665771,20 0,19.8053412 0,19.5652174 L0,0.732173913 C-0.000861911722,0.57836131 0.0796032931,0.435536619 0.211608817,0.356583382 C0.343614341,0.277630146 0.507512029,0.274300035 0.642615662,0.347826087 L9.33826784,5.09130435 C9.47975947,5.16828949 9.56709345,5.31719225 9.56525377,5.47826087 L9.56525377,10.4347826" id="Shape"></path>
            <line x1="7.82609392" y1="4.26869565" x2="7.82609392" y2="0" id="Shape"></line>
            <line x1="6.96609989e-06" y1="5.2173913" x2="3.47826784" y2="5.2173913" id="Shape"></line>
            <line x1="6.96609989e-06" y1="7.82608696" x2="4.34783305" y2="7.82608696" id="Shape"></line>
            <line x1="6.96609989e-06" y1="10.4347826" x2="6.08696349" y2="10.4347826" id="Shape"></line>
            <path d="M3.47826784,20 L3.47826784,16.9565217 C3.47826784,16.7163979 3.67292664,16.5217391 3.91305044,16.5217391 L5.65218088,16.5217391 C5.89230468,16.5217391 6.08696349,16.7163979 6.08696349,16.9565217 L6.08696349,20" id="Shape"></path>
        </g>
    </g>
</svg>
