<?xml version="1.0" encoding="UTF-8"?>
<svg viewBox="0 0 238 202" version="1.1" xmlns="http://www.w3.org/2000/svg" xmlns:xlink="http://www.w3.org/1999/xlink">
    <title>Group 7</title>
    <g id="Contact-Detail---Note-" stroke="none" stroke-width="1" fill="none" fill-rule="evenodd">
        <g id="COP-CONTACTS-Empty-Filter-" transform="translate(-512.000000, -419.000000)">
            <g id="Group-8" transform="translate(480.000000, 419.000000)">
                <g id="Group-7" transform="translate(32.000000, 0.000000)">
                    <path d="M0,201.11048 C4.74408994,193.994317 6.22661805,186.878155 4.44758432,179.761992 C1.77903373,169.087749 14.2322698,159.303025 23.1274385,160.192545 C32.0226071,161.082066 51.5919781,171.756309 54.2605287,166.419188 C56.9290793,161.082066 50.7024613,148.628781 52.481495,142.402139 C54.2605287,136.175497 61.3766636,116.60605 83.6145852,119.274611 C94.2887876,121.053652 96.0678213,132.617416 106.742024,129.948855 C117.416226,127.280294 120.974294,92.5890019 137.875114,83.6937988 C154.775934,74.7985957 185.019508,69.4614739 214.373564,91.6994816 C233.942935,106.52482 241.355576,143.29166 236.611486,202 L0,201.11048 Z" id="Path-2-Copy" fill="#F7F8F9"></path>
                    <g id="Group-11" transform="translate(121.000000, 0.000000)">
                        <rect id="Rectangle" fill="#CCCCCC" x="0" y="4" width="104" height="145" rx="5"></rect>
                        <rect id="Rectangle" fill="#FFFFFF" x="6" y="10" width="93" height="133" rx="5"></rect>
                        <rect id="Rectangle" fill="#415C6B" x="33" y="0" width="39" height="15" rx="5"></rect>
                    </g>
                    <g id="Group-13" transform="translate(145.000000, 68.774575)">
                        <path d="M8.5,27.2254249 C17.1666667,39.5587582 23.3333333,45.0587582 27,43.7254249 C28,43.2254249 29,43.2254249 31.5,40.2254249 C33.1666667,38.2254249 33.1666667,34.7254249 31.5,29.7254249 C28.8333333,34.0587582 27,36.0587582 26,35.7254249 C25,35.3920915 20.1666667,31.8920915 11.5,25.2254249 L8.5,27.2254249 Z" id="Path-3" fill="#F4D06C"></path>
                        <path d="M36,125.225425 L31,63.7254249 L46,87.7254249 C44.6666667,112.725425 43,125.225425 41,125.225425 C39,125.225425 37.3333333,125.225425 36,125.225425 Z" id="Path-4" fill="#415C6B"></path>
                        <path d="M51.5,61.2254249 C51.5,73.2254249 54,81.7254249 59,86.7254249 C64,91.7254249 66.6666667,102.725425 67,119.725425 L63,121.725425 L31,63.7254249 L51.5,61.2254249 Z" id="Path-6" fill="#415C6B"></path>
                        <path d="M36,8.22542486 C34.6666667,13.8920915 35.6666667,16.7254249 39,16.7254249 C39,17.7254249 39,19.8920915 39,23.2254249 C43.3333333,23.2254249 45.6666667,22.2254249 46,20.2254249 C46.3333333,18.2254249 46,16.0587582 45,13.7254249 C45,11.3920915 45,9.55875819 45,8.22542486 C45,6.89209153 42,6.89209153 36,8.22542486 Z" id="Path-8" fill="#EACDB0"></path>
                        <path d="M27.5,130.725425 C29.8333333,128.392092 32.5,126.892092 35.5,126.225425 C40,125.225425 40.5,125.725425 41.5,126.725425 C41.5,128.392092 41.6666667,129.725425 42,130.725425 L27.5,130.725425 Z" id="Path-9" fill="#292949"></path>
                        <path d="M60,130.725425 C60,129.392092 60.8333333,128.058758 62.5,126.725425 C64.1666667,125.392092 64.5,123.892092 63.5,122.225425 L67,120.225425 L69.5,123.225425 C66.8333333,127.225425 65.5,129.558758 65.5,130.225425 C65.5,130.892092 63.6666667,131.058758 60,130.725425 Z" id="Path-10" fill="#292949"></path>
                        <path d="M53,66.7254249 C53,64.0587582 53.6666667,62.5587582 55,62.2254249 C56.3333333,61.8920915 57.5,62.3920915 58.5,63.7254249 C57.5,68.3920915 56.3333333,70.7254249 55,70.7254249 C53.6666667,70.7254249 53.5,69.5587582 54.5,67.2254249 L53,66.7254249 Z" id="Path-11" fill="#EACDB0"></path>
                        <path d="M8.5,27.2254249 C5.83333333,26.8920915 4.66666667,24.7254249 5,20.7254249 C5.33333333,16.7254249 6.66666667,16.8920915 9,21.2254249 C10.6666667,22.2254249 11.6666667,22.8920915 12,23.2254249 C12.3333333,23.5587582 12.1666667,24.2254249 11.5,25.2254249 L8.5,27.2254249 Z" id="Path-12" fill="#EACDB0"></path>
                        <polygon id="Path-13" fill="#415C6B" points="0.5 20.2254249 0 22.1345158 15.5 23.2254249 16 21.316334"></polygon>
                        <path d="M36,8.22542486 C33.3333333,7.89209153 33,6.05875819 35,2.72542486 C38,-2.27457514 47.5,0.225424859 49,5.22542486 C50.5,10.2254249 47.5,17.7254249 45,13.7254249 C43.3333333,11.0587582 40.3333333,9.22542486 36,8.22542486 Z" id="Path-7" fill="#292949"></path>
                        <path d="M30,64.7254249 C28.3333333,38.0587582 31,23.2254249 38,20.2254249 C41.3333333,20.8920915 44,19.8920915 46,17.2254249 C55,22.8920915 60,33.5587582 61,49.2254249 C61.3333333,50.8920915 60.5,55.7254249 58.5,63.7254249 L55,62.2254249 C56.6666667,56.8920915 56.8333333,52.5587582 55.5,49.2254249 C54.1666667,45.8920915 52.1666667,43.5587582 49.5,42.2254249 C51.5,51.8920915 52.3333333,58.5587582 52,62.2254249 C51.6666667,65.8920915 44.3333333,66.7254249 30,64.7254249 Z" id="Path-2" fill="#F4D06C"></path>
                    </g>
                    <g id="Group-16" transform="translate(69.000000, 46.000000)">
                        <polygon id="Path-22" fill="#F4D06C" points="0 10.3478261 9.73913043 56 56 45.6521739 44.7391304 0"></polygon>
                        <polygon id="Path-23" fill="#F1C241" points="2.10457516 19 46 8.44444444 44.1960784 0 0 10.2539683"></polygon>
                    </g>
                    <g id="Group-14" transform="translate(31.000000, 72.000000)">
                        <path d="M22,19.2891894 L22,14.2254029 C22.6407767,8.394376 26.0048544,6.09265485 32.092233,7.32023946 C34.0145631,12.384026 32.5728155,15.6064356 30.6504854,16.527124 C29.368932,17.1409163 28.7281553,17.7547086 28.7281553,18.368501 C30.4368165,21.2036473 30.4368165,22.7381281 28.7281553,22.9719432 C27.0194942,23.2057584 24.7767757,21.9781738 22,19.2891894 Z" id="Path-16" fill="#EACDB0"></path>
                        <path d="M35,26.925636 C43.2199313,38.8003914 49.0687285,44.0958904 52.5463918,42.8121331 C53.4948454,42.3307241 54.443299,42.3307241 56.814433,39.4422701 C58.395189,37.5166341 58.395189,34.146771 56.814433,29.332681 C54.2852234,33.5048924 52.5463918,35.4305284 51.5979381,35.109589 C50.6494845,34.7886497 46.0652921,31.4187867 37.8453608,25 L35,26.925636 Z" id="Path-3-Copy" fill="#339BB2" transform="translate(46.500000, 34.000000) scale(-1, 1) translate(-46.500000, -34.000000) "></path>
                        <path d="M26.6666667,120 L22,62 L36,84.6341463 C34.7555556,108.211382 33.2,120 31.3333333,120 C29.4666667,120 27.9111111,120 26.6666667,120 Z" id="Path-4-Copy" fill="#404244" transform="translate(29.000000, 91.000000) scale(-1, 1) translate(-29.000000, -91.000000) "></path>
                        <path d="M21.3611111,60 C21.0462963,72.8760331 23.25,81.6694215 27.9722222,86.3801653 C32.6944444,91.0909091 35.3703704,100.669421 36,115.115702 L32.2222222,117 L2,62.3553719 L21.3611111,60 Z" id="Path-6-Copy" fill="#404244" transform="translate(19.000000, 88.500000) scale(-1, 1) translate(-19.000000, -88.500000) "></path>
                        <path d="M26,126 C28.2528736,123.687518 30.8275862,122.200923 33.7241379,121.540214 C38.0689655,120.54915 38.5517241,121.044682 39.5172414,122.035746 C39.5172414,123.687518 39.6781609,125.008936 40,126 L26,126 Z" id="Path-9-Copy" fill="#292949" transform="translate(33.000000, 123.500000) scale(-1, 1) translate(-33.000000, -123.500000) "></path>
                        <path d="M0,125.84375 C0,124.59375 0.789473684,123.34375 2.36842105,122.09375 C3.94736842,120.84375 4.26315789,119.4375 3.31578947,117.875 L6.63157895,116 L9,118.8125 C6.47368421,122.5625 5.21052632,124.75 5.21052632,125.375 C5.21052632,126 3.47368421,126.15625 0,125.84375 Z" id="Path-10-Copy" fill="#292949" transform="translate(4.500000, 121.000000) scale(-1, 1) translate(-4.500000, -121.000000) "></path>
                        <path d="M8.45711798,62.9969715 C6.87244232,37.7355138 9.40792338,23.683828 16.0635612,20.841914 C19.2329125,21.4734504 21.7683936,20.5261458 23.6700044,18 C32.2272529,23.3680598 36.9812799,33.4726428 37.9320853,48.3137492 C38.2490205,49.8925903 37.4566826,54.4712296 35.5550718,62.0496669 L32.2272529,60.6287099 C33.8119286,55.5764183 33.9703962,51.4714315 32.7026556,48.3137492 C31.4349151,45.156067 30.3256421,40.5774278 29.3748367,34.5778316 C29.6917719,48.4716334 29.6917719,57.1552594 29.3748367,60.6287099 C29.0579016,64.1021603 22.0853287,64.8915809 8.45711798,62.9969715 Z" id="Path-2-Copy-2" fill="#339BB2" transform="translate(23.000000, 41.000000) scale(-1, 1) translate(-23.000000, -41.000000) "></path>
                        <path d="M21.7067834,15 C18.1123268,9.24242424 17.1320204,4.92424242 18.7658643,2.04545455 C20.3997082,-0.833333333 24.3209336,-0.673400673 30.5295405,2.52525253 L32,7.32323232 C29.2095594,7.26396316 26.9221779,7.74376114 25.1378556,8.76262626 C23.3535333,9.78149138 22.2098425,11.860616 21.7067834,15 Z" id="Path-21" fill="#292949"></path>
                        <path d="M10,62.32 C10.3137255,63.7866667 11.254902,64.6666667 12.8235294,64.96 C14.3921569,65.2533333 14.3921569,63.9333333 12.8235294,61 L10,62.32 Z" id="Path-24" fill="#EACDB0"></path>
                        <path d="M55.0720721,25.2201412 C58.0990991,22.5963224 59.9489489,21.5759485 60.6216216,22.1590193 C61.6306306,23.0336256 60.6216216,27.4066568 57.5945946,26.9693536 C55.5765766,26.6778182 54.7357357,26.0947474 55.0720721,25.2201412 Z" id="Path-25" fill="#EACDB0"></path>
                    </g>
                </g>
            </g>
        </g>
    </g>
</svg>
