<?xml version="1.0" encoding="UTF-8"?>
<svg viewBox="0 0 17 17" version="1.1" xmlns="http://www.w3.org/2000/svg" xmlns:xlink="http://www.w3.org/1999/xlink">
    <title>Copy link</title>
    <g id="Iteration-2---July-2023" stroke="none" stroke-width="1" fill="none" fill-rule="evenodd" stroke-linecap="round" stroke-linejoin="round">
        <g id="Subscription-Form" transform="translate(-1074.5, -318.5)" stroke="currentColor">
            <g id="Group-6" transform="translate(374, 312)">
                <g id="Group-24" transform="translate(670, 0)">
                    <g id="Group-14" transform="translate(31, 6)">
                        <g id="link" transform="translate(0, 1)">
                            <path d="M8.32689831,12.2476128 L5.38636249,15.1881487 C4.30332974,16.2706171 2.54798515,16.2706171 1.4649524,15.1881487 L0.811731881,14.5349281 C-0.270577294,13.4523727 -0.270577294,11.6974648 0.811731881,10.6149094 L5.0594044,6.36654118 C6.14243715,5.28407273 7.89778174,5.28407273 8.98081449,6.36654118 L9.63403501,7.02045736" id="Path"></path>
                            <path d="M7.67298214,3.75226779 L10.613518,0.812427625 C11.1334423,0.29225246 11.8387616,0 12.574223,0 C13.3096844,0 14.0150037,0.29225246 14.534928,0.812427625 L15.1881486,1.46495249 C16.2704577,2.5475079 16.2704577,4.30241585 15.1881486,5.38497127 L10.940476,9.63333944 C10.4205517,10.1535146 9.71523243,10.4457671 8.979771,10.4457671 C8.24430958,10.4457671 7.53899029,10.1535146 7.01906596,9.63333944 L6.36584544,8.97942326" id="Path"></path>
                        </g>
                    </g>
                </g>
            </g>
        </g>
    </g>
</svg>
