<?xml version="1.0" encoding="UTF-8"?>
<svg viewBox="0 0 125 125" version="1.1" xmlns="http://www.w3.org/2000/svg" xmlns:xlink="http://www.w3.org/1999/xlink">
    <title>chat</title>
    <g id="LEARNING" stroke="none" stroke-width="1" fill="none" fill-rule="evenodd">
        <g id="ASSETS" transform="translate(-896.000000, -506.000000)" fill-rule="nonzero">
            <g id="chat" transform="translate(896.000000, 506.000000)">
                <path d="M62.5,0 C97.0175,0 125,27.98125 125,62.5 C125,97.01625 97.0175,125 62.5,125 C27.9825,125 0,97.01625 0,62.5 C0,27.98125 27.9825,0 62.5,0 Z" id="Path" fill="#EFC75E"></path>
                <path d="M66.25,73.03 C66.25,60.995 54.2175,51.23625 39.375,51.23625 C24.5325,51.23625 12.5,60.99375 12.5,73.03 C12.5,85.06625 24.5325,94.8225 39.375,94.8225 C40.68,94.8225 41.9525,94.7225 43.2075,94.57625 C48.79,98.925 54.41625,99.99375 54.49125,99.8625 C52.53,97.84125 51.33625,95.2775 50.6,92.81375 C59.83,89.3625 66.25,81.81375 66.25,73.03 Z" id="Path" fill="#E37948"></path>
                <path d="M30.625,70 C28.89875,70 27.5,71.39875 27.5,73.125 C27.5,74.85125 28.89875,76.25 30.625,76.25 C32.35125,76.25 33.75,74.85125 33.75,73.125 C33.75,71.39875 32.35125,70 30.625,70 Z M40.625,70 C38.89875,70 37.5,71.39875 37.5,73.125 C37.5,74.85125 38.89875,76.25 40.625,76.25 C42.35125,76.25 43.75,74.85125 43.75,73.125 C43.75,71.39875 42.35125,70 40.625,70 Z" id="Shape" fill="#F1BCA4"></path>
                <path d="M66.25,73.03 C66.25,62.92875 57.7625,54.45625 46.26375,51.98625 L46.25,52.39875 C46.25,63.93875 53.70375,74.05375 64.9125,79.79375 C65.77125,77.66375 66.25,75.395 66.25,73.03 L66.25,73.03 Z" id="Path" fill="#CC6D41"></path>
                <path d="M16.25,72.9025 C16.25,63.66375 22.6825,55.72125 31.93,52.10125 C20.7125,54.7225 12.5,63.09125 12.5,73.03 C12.5,83.48875 21.58875,92.2175 33.70625,94.32625 C23.51625,91.07125 16.25,82.7225 16.25,72.9025 L16.25,72.9025 Z" id="Path" fill="#D17042"></path>
                <path d="M109.93375,21.80375 C104.065,19.0625 97.26125,17.48625 90,17.48625 C67.90875,17.48625 50,31.9975 50,49.8975 C50,62.9625 59.5475,74.215 73.29375,79.34125 C72.1975,82.9975 70.4125,86.80125 67.5,89.8 C67.6125,89.9925 75.96125,88.40625 84.255,81.9675 C86.1325,82.1875 88.04875,82.305 90,82.305 C104.99875,82.305 118.06125,75.6125 124.9075,65.7175 C124.9675,64.60875 125,63.49375 125,62.36875 C125,46.8725 119.3175,32.70875 109.93375,21.80375 L109.93375,21.80375 Z" id="Path" fill="#26A6D1"></path>
                <path d="M72.5,45 C69.73875,45 67.5,47.24 67.5,50.00125 C67.5,52.765 69.73875,55.00125 72.5,55.00125 C75.26125,55.00125 77.5,52.765 77.5,50.00125 C77.5,47.24 75.26125,45 72.5,45 Z M90,45 C87.23875,45 85,47.24 85,50.00125 C85,52.765 87.23875,55.00125 90,55.00125 C92.76125,55.00125 95,52.765 95,50.00125 C95,47.24 92.76125,45 90,45 Z M107.5,45 C104.73875,45 102.5,47.24 102.5,50.00125 C102.5,52.765 104.73875,55.00125 107.5,55.00125 C110.26125,55.00125 112.5,52.765 112.5,50.00125 C112.5,47.24 110.26125,45 107.5,45 Z" id="Shape" fill="#FFFFFF"></path>
                <path d="M71.25,88.55 C74.1625,85.5525 75.9475,81.74875 77.04375,78.09125 C63.2975,72.96375 53.75,61.7125 53.75,48.64625 C53.75,35.7 63.1225,24.53 76.66625,19.3375 C61.1325,23.78875 50,35.78625 50,49.89625 C50,62.96125 59.5475,74.21375 73.29375,79.34 C72.1975,82.9975 70.4125,86.80125 67.5,89.8 C67.56,89.9025 69.9225,89.5 73.35,88.16 C72.065,88.50125 71.28375,88.60875 71.25,88.55 L71.25,88.55 Z" id="Path" fill="#2295BC"></path>
                <g id="Group" transform="translate(66.250000, 46.250000)" fill="#2295BC">
                    <path d="M6.25,8.75 C3.48875,8.75 1.25,6.51375 1.25,3.75 C1.25,2.6875 1.58625,1.7075 2.15125,0.8975 C0.85375,1.8025 0,3.3 0,5 C0,7.76375 2.23875,10 5,10 C6.7,10 8.19875,9.1475 9.10125,7.85 C8.2925,8.415 7.3125,8.75 6.25,8.75 Z M23.75,8.75 C20.98875,8.75 18.75,6.51375 18.75,3.75 C18.75,2.6875 19.08625,1.7075 19.65125,0.8975 C18.35375,1.8025 17.5,3.3 17.5,5 C17.5,7.76375 19.73875,10 22.5,10 C24.2,10 25.69875,9.1475 26.60125,7.85 C25.7925,8.415 24.8125,8.75 23.75,8.75 Z M41.25,8.75 C38.48875,8.75 36.25,6.51375 36.25,3.75 C36.25,2.6875 36.58625,1.7075 37.15125,0.8975 C35.85375,1.8025 35,3.3 35,5 C35,7.76375 37.23875,10 40,10 C41.7,10 43.19875,9.1475 44.10125,7.85 C43.2925,8.415 42.3125,8.75 41.25,8.75 Z" id="Shape"></path>
                </g>
            </g>
        </g>
    </g>
</svg>
