<?xml version="1.0" encoding="UTF-8"?>
<svg viewBox="0 0 40 31" version="1.1" xmlns="http://www.w3.org/2000/svg" xmlns:xlink="http://www.w3.org/1999/xlink">
    <g stroke="none" stroke-width="1" fill="none" fill-rule="evenodd">
        <g id="Group-14" fill-rule="nonzero">
            <path d="M14.0659341,19.6483516 L14.0659341,26.7692308 C14.0659341,28.7392615 12.4953162,30.3296703 10.5494505,30.3296703 C8.60358486,30.3296703 7.03296703,28.7392615 7.03296703,26.7692308 L7.03296703,19.6483516 C7.03296703,18.9836571 7.5486398,18.4615385 8.20512821,18.4615385 L12.8937729,18.4615385 C13.5502613,18.4615385 14.0659341,18.9836571 14.0659341,19.6483516 Z" id="Path" fill="#4482C3"></path>
            <path d="M5.86080586,9.23076923 L4.68864469,9.23076923 C2.10996825,9.23076923 -1.33226763e-14,11.3076154 -1.33226763e-14,13.8461538 C-1.33226763e-14,16.3845385 2.10996825,18.4615385 4.68864469,18.4615385 L5.86080586,18.4615385 C6.51729426,18.4615385 7.03296703,17.9537692 7.03296703,17.3076923 L7.03296703,10.3846154 C7.03296703,9.73838462 6.51729426,9.23076923 5.86080586,9.23076923 Z" id="Path" fill="#4482C3"></path>
            <path d="M38.8571429,16.2637363 L35.4285714,16.2637363 C34.7968762,16.2637363 34.2857143,15.7722344 34.2857143,15.1648352 C34.2857143,14.5574359 34.7968762,14.0659341 35.4285714,14.0659341 L38.8571429,14.0659341 C39.4888381,14.0659341 40,14.5574359 40,15.1648352 C40,15.7722344 39.4888381,16.2637363 38.8571429,16.2637363 Z" id="Path" fill="#F0C419"></path>
            <path d="M35.7387539,22.9425289 L33.3211513,20.5249566 C32.8489935,20.0528047 32.8489935,19.2878042 33.3211513,18.8156524 C33.7933091,18.3435005 34.5583191,18.3435005 35.0304769,18.8156524 L37.4480795,21.2332247 C37.9202372,21.7053766 37.9202372,22.4703771 37.4480795,22.9425289 C36.9758411,23.4147614 36.2109116,23.4147614 35.7387539,22.9425289 Z" id="Path" fill="#F0C419"></path>
            <path d="M33.3211513,11.5139575 C32.8489935,11.0418056 32.8489935,10.2768052 33.3211513,9.80465329 L35.7387539,7.38708094 C36.2109116,6.91492906 36.9759217,6.91492906 37.4480795,7.38708094 C37.9202372,7.85923282 37.9202372,8.6242333 37.4480795,9.09638518 L35.0304769,11.5139575 C34.5582385,11.98619 33.7933091,11.98619 33.3211513,11.5139575 Z" id="Path" fill="#F0C419"></path>
            <path d="M16.2637363,8.20512821 L16.2637363,19.106149 L13.978022,21.0989011 L8.26373626,21.0989011 C6.77794579,21.0989011 5.49794579,20.1142076 5.04095531,18.7545788 C4.90381245,18.379409 4.83516484,18.0043956 4.83516484,17.5824176 L4.83516484,10.5494505 C4.83516484,8.60358486 6.36651722,7.03296703 8.26373626,7.03296703 L13.978022,7.03296703 L16.2637363,8.20512821 Z" id="Path" fill="#F0C419"></path>
            <path d="M28.1318681,2.4784514 L28.1318681,25.6535791 C28.1318681,26.1170816 27.8536409,26.5342339 27.4131144,26.7195577 C26.9957735,26.905036 26.4856128,26.8123355 26.1611689,26.4646313 L24.7931409,25.1204739 C22.8919213,23.2201907 17.9146673,21.0185535 15.2252143,21.0185535 L14.0659341,21.0185535 L14.0659341,7.11347694 L15.2252143,7.11347694 C17.9146673,7.11347694 22.8919213,4.91183981 24.7931409,3.01140209 L26.1611689,1.66716743 C26.4856901,1.31961777 26.9725879,1.22684001 27.4131144,1.41224103 C27.8536409,1.59764205 28.1318681,2.01494885 28.1318681,2.4784514 Z" id="Path" fill="#F0C419"></path>
            <path d="M30.7692308,2.34432234 L30.7692308,25.7875458 C30.7692308,27.0769231 29.6813187,28.1318681 28.3516484,28.1318681 C27.021978,28.1318681 25.9340659,27.0769231 25.9340659,25.7875458 L25.9340659,2.34432234 C25.9340659,1.05494505 27.021978,-4.97379915e-14 28.3516484,-4.97379915e-14 C29.6813187,-4.97379915e-14 30.7692308,1.05494505 30.7692308,2.34432234 Z" id="Path" fill="#4482C3"></path>
        </g>
    </g>
</svg>