<svg viewBox="0 0 20 20" version="1.1" xmlns="http://www.w3.org/2000/svg">

    <g class="cw--svg cw--svg-create-message" stroke-width="1" fill="none" fill-rule="evenodd" stroke-linecap="round" stroke-linejoin="round">
        <g transform="translate(-300.000000, -110.000000)" stroke="currentColor">
            <g transform="translate(84.000000, 104.000000)">
                <g transform="translate(217.000000, 7.000000)">
                    <path d="M11.8956522,17.0608696 L8.60869565,18 L9.54782609,14.7130435 L15.1661739,9.09469565 C15.5855726,8.67529692 16.1968596,8.51150306 16.769769,8.66501366 C17.3426783,8.81852425 17.7901714,9.26601737 17.943682,9.8389267 C18.0971926,10.411836 17.9333987,11.023123 17.514,11.4425217 L11.8956522,17.0608696 Z"></path>
                    <line x1="14.4618261" y1="9.79904348" x2="16.8096522" y2="12.1468696"></line>
                    <line x1="9.54782609" y1="14.7130435" x2="11.8956522" y2="17.0608696"></line>
                    <path d="M10.173913,10.9565217 L6.26086957,10.9565217 L3.13043478,14.0869565 L3.13043478,10.9565217 L0.782608696,10.9565217 C0.350385848,10.9565217 0,10.6061359 0,10.173913 L0,0.782608696 C0,0.350385848 0.350385848,0 0.782608696,0 L15.6521739,0 C16.0843968,0 16.4347826,0.350385848 16.4347826,0.782608696 L16.4347826,7.04347826"></path>
                </g>
            </g>
        </g>
    </g>
</svg>
