<?xml version="1.0" encoding="UTF-8"?>
<svg viewBox="0 0 25 25" version="1.1" xmlns="http://www.w3.org/2000/svg" xmlns:xlink="http://www.w3.org/1999/xlink">
    <title>7283B5C6-A96A-4635-8B3F-440251235A77</title>
    <g id="Frontier-Support-Page" stroke="none" stroke-width="1" fill="none" fill-rule="evenodd" stroke-linecap="round" stroke-linejoin="round">
        <g id="Org-Management-Settings---Custom-Support-Page" transform="translate(-119.000000, -458.000000)" stroke="#339BB2">
            <g id="Group-26" transform="translate(95.000000, 434.000000)">
                <g id="Group-16" transform="translate(25.000000, 25.000000)">
                    <g id="help-guide" transform="translate(0.000000, 0.000000)">
                        <path d="M7.99999969,7.251 C7.99920142,5.28412984 9.51742262,3.65048396 11.4790827,3.50741565 C13.4407428,3.36434734 15.1799285,4.76042316 15.464517,6.70659589 C15.7491055,8.65276861 14.4824892,10.4883823 12.562,10.913 C12.0948681,11.0051618 11.7561258,11.4119028 11.75,11.888 L11.75,13" id="Shape"></path>
                        <path d="M11.75,15.5 C11.8880712,15.5 12,15.6119288 12,15.75 C12,15.8880712 11.8880712,16 11.75,16 C11.6119288,16 11.5,15.8880712 11.5,15.75 C11.5,15.6119288 11.6119288,15.5 11.75,15.5" id="Shape"></path>
                        <path d="M22,19 L5.5,19 L0.4,22.712 C0.324245588,22.7688158 0.222892608,22.7779548 0.138196601,22.7356068 C0.0535005941,22.6932588 0,22.606693 0,22.512 L0,1 C0,0.44771525 0.44771525,0 1,0 L22,0 C22.5522847,0 23,0.44771525 23,1 L23,18 C23,18.5522847 22.5522847,19 22,19 Z" id="Shape"></path>
                    </g>
                </g>
            </g>
        </g>
    </g>
</svg>
