<svg xmlns="http://www.w3.org/2000/svg" viewBox="0 0 43.831 47.312">
  <g id="Group_36" data-name="Group 36" transform="translate(1069.611 -2280.994)">
    <g id="Group_23" data-name="Group 23" transform="translate(-1057.731 2300.382)">
      <path id="Path_123" data-name="Path 123" d="M702.676,2413.238a4.386,4.386,0,0,1,3.16,1.214.242.242,0,0,1,.013.365l-1.019,1.058a.229.229,0,0,1-.326,0,2.666,2.666,0,0,0-1.763-.666,2.672,2.672,0,0,0,.013,5.34,2.763,2.763,0,0,0,1.75-.626.258.258,0,0,1,.339.012l1.019,1.084a.261.261,0,0,1-.013.352,4.482,4.482,0,0,1-3.173,1.267,4.7,4.7,0,1,1,0-9.4Z" transform="translate(-697.962 -2413.238)" fill="currentColor"/>
      <path id="Path_124" data-name="Path 124" d="M793.058,2413.682a.228.228,0,0,1,.235-.313h1.528a.269.269,0,0,1,.235.183l1.123,4.426h.052l2.024-4.6a.248.248,0,0,1,.222-.144h.235a.222.222,0,0,1,.222.144l2.024,4.6h.052l1.123-4.426a.268.268,0,0,1,.235-.183H803.9a.228.228,0,0,1,.235.313l-2.468,8.774a.251.251,0,0,1-.235.184h-.209a.265.265,0,0,1-.222-.144l-2.389-5.34h-.039l-2.377,5.34a.264.264,0,0,1-.222.144h-.209a.25.25,0,0,1-.235-.184Z" transform="translate(-783.944 -2413.238)" fill="currentColor"/>
    </g>
    <g id="Group_25" data-name="Group 25" transform="translate(-1069.611 2280.994)">
      <g id="Group_24" data-name="Group 24">
        <path id="Path_125" data-name="Path 125" d="M602.21,2278.878c-11.779,0-21.363-9.822-21.363-21.893s9.583-21.893,21.363-21.893,21.362,9.822,21.362,21.893S613.989,2278.878,602.21,2278.878Zm0-41.631a19.744,19.744,0,1,0,19.26,19.738A19.525,19.525,0,0,0,602.21,2237.247Z" transform="translate(-580.177 -2233.297)" fill="currentColor"/>
        <circle id="Ellipse_25" data-name="Ellipse 25" cx="2.772" cy="2.772" r="2.772" transform="translate(19.255)" fill="currentColor"/>
        <circle id="Ellipse_26" data-name="Ellipse 26" cx="2.772" cy="2.772" r="2.772" transform="translate(19.255 41.768)" fill="currentColor"/>
        <circle id="Ellipse_27" data-name="Ellipse 27" cx="2.772" cy="2.772" r="2.772" transform="translate(38.287 13.91)" fill="currentColor"/>
        <circle id="Ellipse_28" data-name="Ellipse 28" cx="2.772" cy="2.772" r="2.772" transform="translate(0 13.91)" fill="currentColor"/>
      </g>
    </g>
  </g>
</svg>
