<?xml version="1.0" encoding="UTF-8"?>
<svg width="12px" height="12px" viewBox="0 0 12 12" version="1.1" xmlns="http://www.w3.org/2000/svg">
    <title>Combined Shape</title>
    <g id="Page-1" stroke="none" stroke-width="1" fill="none" fill-rule="evenodd">
        <path d="M6,0 C9.3137085,0 12,2.6862915 12,6 C12,9.3137085 9.3137085,12 6,12 C2.6862915,12 3.18323146e-12,9.3137085 3.18323146e-12,6 C3.18323146e-12,2.6862915 2.6862915,0 6,0 Z M6,2.5 C5.72385763,2.5 5.5,2.72385763 5.5,3 L5.5,3 L5.5,6 L5.5062287,6.07868937 C5.52271496,6.18214268 5.57143206,6.27853884 5.64644661,6.35355339 L5.64644661,6.35355339 L8.64644661,9.35355339 L8.7156945,9.41140884 C8.91056264,9.54640489 9.17998704,9.52711974 9.35355339,9.35355339 L9.35355339,9.35355339 L9.41140884,9.2843055 C9.54640489,9.08943736 9.52711974,8.82001296 9.35355339,8.64644661 L9.35355339,8.64644661 L6.5,5.793 L6.5,3 L6.49194433,2.91012437 C6.44960837,2.67687516 6.24545989,2.5 6,2.5 Z" id="Combined-Shape" fill="currentColor"></path>
    </g>
</svg>
