<?xml version="1.0" encoding="UTF-8"?>
<svg viewBox="0 0 15 16" version="1.1" xmlns="http://www.w3.org/2000/svg" xmlns:xlink="http://www.w3.org/1999/xlink">
    <title>description</title>
    <g id="Kanban" stroke="currentColor" stroke-width="1" fill="none" fill-rule="evenodd" stroke-linecap="round" stroke-linejoin="round">
        <g id="v" transform="translate(-108.000000, -139.000000)" stroke="#333333">
            <g id="description" transform="translate(108.500000, 140.000000)">
                <path d="M5.84375,13 L0.6875,13 C0.307804234,13 0,12.7015232 0,12.3333333 L0,1.66666667 C0,1.29847683 0.307804234,1 0.6875,1 L10.3125,1 C10.6921958,1 11,1.29847683 11,1.66666667 L11,6.66666667" id="Path"></path>
                <line x1="2.5" y1="2" x2="2.5" y2="0" id="Path"></line>
                <line x1="5.5" y1="2" x2="5.5" y2="0" id="Path"></line>
                <line x1="7.5" y1="2" x2="7.5" y2="0" id="Path"></line>
                <path d="M13.6385966,9.11143785 L9.18758675,13.5624795 L7,14 L7.43751735,11.8123976 L11.8885272,7.36135593 C12.3703515,6.87954802 13.151522,6.87954802 13.6333464,7.36135593 L13.6385966,7.36602282 C14.1204678,7.84805076 14.1204678,8.62940991 13.6385966,9.11143785 Z" id="Path"></path>
            </g>
        </g>
    </g>
</svg>