<?xml version="1.0" encoding="UTF-8"?>
<svg viewBox="0 0 24 24" version="1.1" xmlns="http://www.w3.org/2000/svg" xmlns:xlink="http://www.w3.org/1999/xlink">
    <g stroke="none" stroke-width="1" fill="none" fill-rule="evenodd" stroke-linecap="round" stroke-linejoin="round">
        <g transform="translate(-978.000000, -347.000000)" stroke="currentColor">
            <g transform="translate(978.000000, 347.000000)">
                <g transform="translate(11.000000, 0.000000)">
                    <path d="M3.75,5 C3.88807119,5 4,5.11192881 4,5.25 C4,5.38807119 3.88807119,5.5 3.75,5.5 C3.61192881,5.5 3.5,5.38807119 3.5,5.25 C3.5,5.11192881 3.61192881,5 3.75,5" id="Path"></path>
                    <path d="M6.5,5 C6.63807119,5 6.75,5.11192881 6.75,5.25 C6.75,5.38807119 6.63807119,5.5 6.5,5.5 C6.36192881,5.5 6.25,5.38807119 6.25,5.25 C6.25,5.11192881 6.36192881,5 6.5,5" id="Path"></path>
                    <path d="M9.25,5 C9.38807119,5 9.5,5.11192881 9.5,5.25 C9.5,5.38807119 9.38807119,5.5 9.25,5.5 C9.11192881,5.5 9,5.38807119 9,5.25 C9,5.11192881 9.11192881,5 9.25,5" id="Path"></path>
                    <g>
                        <path d="M11.5,9.5 L7.25,9.5 L3.906,12.175 C3.83028068,12.2354928 3.72642065,12.2467723 3.63948049,12.2039446 C3.55254032,12.1611169 3.49818615,12.0718995 3.5,11.975 L3.5,9.5 L1.5,9.5 C0.94771525,9.5 0.5,9.05228475 0.5,8.5 L0.5,1.5 C0.5,0.94771525 0.94771525,0.5 1.5,0.5 L11.5,0.5 C12.0522847,0.5 12.5,0.94771525 12.5,1.5 L12.5,8.5 C12.5,9.05228475 12.0522847,9.5 11.5,9.5 Z" id="Path"></path>
                    </g>
                </g>
                <path d="M7.5,23.5 L8,17.5 L10.5,17.5 L10.5,14 C10.5,11.2385763 8.26142375,9 5.5,9 C2.73857625,9 0.5,11.2385763 0.5,14 L0.5,17.5 L3,17.5 L3.5,23.5 L7.5,23.5 Z" id="Path"></path>
                <circle id="Oval" cx="5.5" cy="4" r="3.5"></circle>
            </g>
        </g>
    </g>
</svg>
