<?xml version="1.0" encoding="UTF-8"?>
<svg viewBox="0 0 25.5 27" version="1.1" xmlns="http://www.w3.org/2000/svg" xmlns:xlink="http://www.w3.org/1999/xlink">
    <title>doc</title>
    <g id="Page-1" stroke="none" stroke-width="1" fill="none" fill-rule="evenodd">
        <g id="File-Icons" transform="translate(-56.000000, -62.000000)">
            <g id="doc" transform="translate(56.000000, 62.000000)">
                <polygon id="Shape-Copy-3" fill="#1C5DA4" fill-rule="nonzero" points="20 26.0152862 0 26.0152862 0 0 13.75 0 20 6.19411576"></polygon>
                <polygon id="Shape-Copy-2" fill="#7BB6F6" fill-rule="nonzero" points="19.0927684 6.74248035 13.1552684 6.74248035 13.1552684 0.858070381"></polygon>
                <polygon id="Path-Copy-8" fill="#7BB6F6" points="5.13639326 15.6295385 5.77247936 15.6295385 5.77247936 21.3544459 7.83982546 21.3544459 9.4300407 18.5251355 9.4300407 21.3544459 11.338299 21.3544459 14.2007527 15.6295385 14.8368388 15.6295385 14.8368388 14.6754093 11.9744514 14.6754093 11.9744514 15.6295385 12.4515159 15.6295385 11.338299 17.8227628 11.338299 14.6754093 9.11199765 14.6754093 7.20367307 18.2667504 7.20367307 15.6295385 7.83982546 15.6295385 7.83982546 14.6754093 5.13639326 14.6754093"></polygon>
            </g>
        </g>
    </g>
</svg>
