<svg height="24" width="20" xmlns="http://www.w3.org/2000/svg">
    <g data-name="Work-Office-Companies / Office-Files / office-file-doc">
        <g data-name="Group 159" fill="none" stroke="currentColor" stroke-linecap="round"
            stroke-linejoin="round">
            <path
                d="M18.5 23.5a1 1 0 0 0 1-1V6.473A5.975 5.975 0 0 0 13.525.5H1.5a1 1 0 0 0-1 1v21a1 1 0 0 0 1 1z"
                data-name="Shape 1053"/>
            <path d="M14.5.58v3.921a1 1 0 0 0 1 1h3.92" data-name="Shape 1054"/>
            <path d="M3.5 12.5a3 3 0 0 1 0 6z" data-name="Shape 1055"/>
            <path d="M11.5 17a1.5 1.5 0 0 1-3 0v-3a1.5 1.5 0 0 1 3 0z" data-name="Shape 1056"/>
            <path d="M16.5 18.5a3 3 0 0 1 0-6" data-name="Shape 1057"/>
        </g>
    </g>
</svg>
