<?xml version="1.0" encoding="UTF-8"?>
<svg viewBox="0 0 22 24" version="1.1" xmlns="http://www.w3.org/2000/svg" xmlns:xlink="http://www.w3.org/1999/xlink">
    <g id="Iteration-2" stroke="none" stroke-width="1" fill="none" fill-rule="evenodd">
        <g id="Message-Status" transform="translate(-251.000000, -360.000000)">
            <g id="Group-20-Copy" transform="translate(243.000000, 351.000000)">
                <g id="Group-9" transform="translate(8.000000, 6.000000)">
                    <g id="Microsoft-DOCX" transform="translate(0.000000, 3.000000)">
                        <polygon id="Shape-Copy-3" fill="#1C5DA4" fill-rule="nonzero" points="21.4809959 23.8570697 3.14018692 23.8570697 3.14018692 0 15.7494931 0 21.4809959 5.68025468"></polygon>
                        <polygon id="Shape-Copy-2" fill="#7BB6F6" fill-rule="nonzero" points="20.6490277 6.1831272 15.2041001 6.1831272 15.2041001 0.786885246"></polygon>
                        <rect id="Rectangle-5-Copy-2" fill="#2C7ACD" x="0" y="3.58878505" width="12.3364486" height="6.28037383" rx="3.14018692"></rect>
                        <path d="M1.3635368,8.29906542 L1.3635368,5.58820093 L2.19764895,5.58820093 C2.4359679,5.58820093 2.64914845,5.64188395 2.83719699,5.74925161 C3.02524554,5.85661926 3.1720205,6.00929004 3.27752629,6.20726855 C3.38303207,6.40524705 3.43578417,6.63021924 3.43578417,6.88219188 L3.43578417,7.00693633 C3.43578417,7.25890897 3.38396299,7.48295025 3.28031907,7.67906688 C3.17667515,7.87518352 3.0305208,8.02723369 2.84185164,8.13522196 C2.65318247,8.24321024 2.44031223,8.29782418 2.20323452,8.29906542 L1.3635368,8.29906542 Z M1.92209404,6.0406323 L1.92209404,7.85035777 L2.19206338,7.85035777 C2.41052241,7.85035777 2.5774673,7.77898728 2.69290304,7.63624416 C2.80833878,7.49350104 2.86729701,7.28931938 2.8697795,7.02369305 L2.8697795,6.88033002 C2.8697795,6.60477374 2.81268311,6.39593748 2.69848861,6.25381498 C2.58429411,6.11169248 2.41734923,6.0406323 2.19764895,6.0406323 L1.92209404,6.0406323 Z M5.97155344,7.00507447 C5.97155344,7.27194205 5.92438686,7.50591313 5.83005228,7.70699474 C5.73571769,7.90807636 5.60073437,8.06322959 5.42509827,8.17245911 C5.24946217,8.28168863 5.04807327,8.33630257 4.82092552,8.33630257 C4.59626026,8.33630257 4.39580228,8.28230924 4.21954556,8.17432097 C4.04328884,8.0663327 3.90675399,7.91211038 3.80993691,7.71164939 C3.71311984,7.5111884 3.66409142,7.28063068 3.66285017,7.01996933 L3.66285017,6.8859156 C3.66285017,6.61904802 3.71094768,6.38414602 3.80714413,6.18120254 C3.90334058,5.97825906 4.03925481,5.82248521 4.21489091,5.71387631 C4.39052701,5.60526742 4.5912953,5.55096379 4.81720181,5.55096379 C5.04310831,5.55096379 5.2438766,5.60526742 5.4195127,5.71387631 C5.5951488,5.82248521 5.73106304,5.97825906 5.82725949,6.18120254 C5.92345594,6.38414602 5.97155344,6.61842741 5.97155344,6.88405374 L5.97155344,7.00507447 Z M5.40554877,6.88219188 C5.40554877,6.59794688 5.35465851,6.38197358 5.25287646,6.23426548 C5.15109441,6.08655738 5.00587098,6.01270444 4.81720181,6.01270444 C4.62977389,6.01270444 4.48517107,6.08562646 4.38338902,6.23147269 C4.28160697,6.37731892 4.23009609,6.59112009 4.22885485,6.87288259 L4.22885485,7.00507447 C4.22885485,7.281872 4.27974511,7.49660408 4.38152716,7.64927716 C4.48330921,7.80195024 4.62977387,7.87828563 4.82092552,7.87828563 C5.00835345,7.87828563 5.15233565,7.804743 5.25287646,7.65765552 C5.35341726,7.51056804 5.40430753,7.29614627 5.40554877,7.01438376 L5.40554877,6.88219188 Z M8.40864427,7.39606454 C8.38754311,7.68775701 8.27986677,7.9173838 8.085612,8.08495181 C7.89135723,8.25251982 7.63535439,8.33630257 7.31759579,8.33630257 C6.97004732,8.33630257 6.69666732,8.21931703 6.49744757,7.98534244 C6.29822782,7.75136784 6.19861945,7.43020064 6.19861945,7.02183119 L6.19861945,6.85612588 C6.19861945,6.59546453 6.2445448,6.36583773 6.3363969,6.16723861 C6.42824899,5.96863949 6.55950863,5.81627901 6.73017976,5.7101526 C6.90085088,5.60402619 7.09913672,5.55096379 7.32504322,5.55096379 C7.63783684,5.55096379 7.8898057,5.63474653 8.08095735,5.80231454 C8.27210901,5.96988256 8.38257812,6.20509486 8.41236799,6.50795853 L7.85381074,6.50795853 C7.84015705,6.33294305 7.79143894,6.2060277 7.70765493,6.12720867 C7.62387093,6.04838965 7.49633496,6.00898072 7.32504322,6.00898072 C7.13885654,6.00898072 6.99952893,6.07569662 6.90705622,6.2091304 C6.8145835,6.34256419 6.76710661,6.54953861 6.76462412,6.83005987 L6.76462412,7.03486419 C6.76462412,7.3277979 6.80899794,7.54190937 6.89774693,7.67720502 C6.98649591,7.81250068 7.12644413,7.88014749 7.31759579,7.88014749 C7.49012878,7.88014749 7.61890597,7.84073857 7.70393122,7.76191954 C7.78895647,7.68310051 7.83767458,7.56115007 7.85008703,7.39606454 L8.40864427,7.39606454 Z M9.64856074,6.52285339 L10.1568478,5.58820093 L10.7991887,5.58820093 L10.0097611,6.93246203 L10.8196691,8.29906542 L10.1698808,8.29906542 L9.64856074,7.34951811 L9.12724065,8.29906542 L8.47745239,8.29906542 L9.28736039,6.93246203 L8.49793282,5.58820093 L9.14027365,5.58820093 L9.64856074,6.52285339 Z" id="DOCX" fill="#7BB6F6"></path>
                        <polygon id="Path-Copy-4" fill="#7BB6F6" points="7.85046729 14.3329189 8.43378397 14.3329189 8.43378397 19.5828906 10.329624 19.5828906 11.7879156 16.9882985 11.7879156 19.5828906 13.5378657 19.5828906 16.1628515 14.3329189 16.7461682 14.3329189 16.7461682 13.4579439 14.1212431 13.4579439 14.1212431 14.3329189 14.5587307 14.3329189 13.5378657 16.3441944 13.5378657 13.4579439 11.4962573 13.4579439 9.74624649 16.7513489 9.74624649 14.3329189 10.329624 14.3329189 10.329624 13.4579439 7.85046729 13.4579439"></polygon>
                    </g>
                </g>
            </g>
        </g>
    </g>
</svg>
