<?xml version="1.0" encoding="UTF-8"?>
<svg viewBox="0 0 84 65" version="1.1" xmlns="http://www.w3.org/2000/svg" xmlns:xlink="http://www.w3.org/1999/xlink">
    <g stroke="none" stroke-width="1" fill="none" fill-rule="evenodd">
        <g transform="translate(-95.000000, -252.000000)">
            <g transform="translate(74.000000, 235.000000)">
                <g transform="translate(21.000000, 17.000000)">
                    <rect id="Rectangle" stroke="#E1E1E1" fill="#FFFFFF" x="0.5" y="0.5" width="82.8157895" height="64" rx="4"></rect>
                    <path d="M79.8157895,0.5 C80.7822878,0.5 81.6572878,0.891750844 82.2906632,1.52512627 C82.9240386,2.15850169 83.3157895,3.03350169 83.3157895,4 L83.3157895,4 L83.3157895,10.3333333 L0.5,10.3333333 L0.5,4 C0.5,3.03350169 0.891750844,2.15850169 1.52512627,1.52512627 C2.15850169,0.891750844 3.03350169,0.5 4,0.5 L4,0.5 Z" id="Rectangle" stroke="#E1E1E1" fill="#E1E1E1"></path>
                    <circle id="Oval" fill="#898989" cx="75.8333333" cy="5.70175439" r="1.71052632"></circle>
                    <circle id="Oval-Copy-9" fill="#898989" cx="69.5614035" cy="5.70175439" r="1.71052632"></circle>
                    <circle id="Oval-Copy-10" fill="#898989" cx="63.2894737" cy="5.70175439" r="1.71052632"></circle>
                    <rect id="bg-copy-3" fill="#BDE2EB" x="27.2828947" y="32.8792174" width="19.3461541" height="19.0067478" rx="2"></rect>
                    <path d="M54.3046141,23.2061404 C55.4078094,23.2061404 56.3021258,24.0973822 56.3021258,25.2042716 L56.3021258,40.2147569 C56.3021258,41.3182943 55.4078207,42.2128882 54.3046141,42.2128882 L47.5960045,42.2121404 L47.5963565,33.910041 C47.5963565,32.8534646 46.7814938,31.9933772 45.7479215,31.9173705 L45.5988448,31.9119097 L36.9550045,31.9111404 L36.9559718,25.2042716 C36.9559718,24.1007342 37.8502769,23.2061404 38.9534834,23.2061404 L54.3046141,23.2061404 Z" id="Combined-Shape" fill="#BDE2EB"></path>
                </g>
            </g>
        </g>
    </g>
</svg>
