<svg viewBox="0 0 28.017 27.996" xmlns="http://www.w3.org/2000/svg">
  <g data-name="Group 350" fill="none" stroke="currentColor" stroke-linecap="round" stroke-linejoin="round">
    <path data-name="Rectangle-path 50" d="M.5 1.674A1.174 1.174 0 0 1 1.674.5h18.778a1.173 1.173 0 0 1 1.174 1.174v18.778a1.173 1.173 0 0 1-1.174 1.174H1.674A1.174 1.174 0 0 1 .5 20.452z"/>
    <path data-name="Shape 187" d="M.5 18.105h21.126"/>
    <path data-name="Shape 188" d="M5.01 23.973l17.37 3.5a1.173 1.173 0 0 0 1.383-.919l3.708-18.409a1.172 1.172 0 0 0-.915-1.383l-2.582-.519"/>
    <path data-name="Shape 189" d="M3.434 18.105a8.332 8.332 0 0 1 .663-3.169c.469-.939 2.421-1.584 4.874-2.493.663-.245.554-1.976.261-2.3a4.9 4.9 0 0 1-1.273-3.792 3.122 3.122 0 1 1 6.209 0 4.888 4.888 0 0 1-1.273 3.793c-.293.324-.4 2.055.261 2.3 2.453.908 4.406 1.557 4.874 2.493a8.328 8.328 0 0 1 .663 3.168z"/>
  </g>
</svg>
