<svg viewBox="0 0 20.48 20.48" xmlns="http://www.w3.org/2000/svg">
    <g data-name="ICON-COURSE Copy 3" fill="none" stroke="currentColor" stroke-linecap="round"
        stroke-linejoin="round" stroke-miterlimit="10">
        <path
            d="M9.752 17.439c-1.076-1.272-3.915-2.514-8.381-2.657A.884.884 0 0 1 .5 13.9V1.382A.884.884 0 0 1 1.4.5c5.792.192 8.84 2.235 8.84 3.784 0-1.545 3.422-3.577 8.835-3.784a.884.884 0 0 1 .9.882v11.452"/>
        <path
            d="M9.817 3.888v10.164M8.123 4.735a30.608 30.608 0 0 0-5.082-.847M12.358 8.97a30.594 30.594 0 0 1 5.082-.847M8.123 8.97a30.608 30.608 0 0 0-5.082-.847M8.123 12.358a30.529 30.529 0 0 0-5.082-.847M12.358 4.735a30.449 30.449 0 0 1 5.082-.847M19.981 19.981v-.59a1.556 1.556 0 0 0-1.48-1.566h-1.213v-2.56a.673.673 0 1 0-1.346 0v3.907l-.82-1.153a.566.566 0 1 0-1 .527l.754 1.435"
            data-name="Shape"/>
    </g>
</svg>
