<?xml version="1.0" encoding="UTF-8"?>
<svg viewBox="0 0 18 18" version="1.1" xmlns="http://www.w3.org/2000/svg" xmlns:xlink="http://www.w3.org/1999/xlink">
    <title>23B93D5C-016B-4A64-BC64-A21C9918CA8D</title>
    <g id="Iteration-2" stroke="none" stroke-width="1" fill="none" fill-rule="evenodd" stroke-linecap="round" stroke-linejoin="round">
        <g id="Emoji-Picker" transform="translate(-409.000000, -191.000000)" stroke="currentColor">
            <g id="Light" transform="translate(410.000000, 192.000000)">
                <ellipse id="Oval" cx="2.09666667" cy="6.67266667" rx="1.66666667" ry="2.64733333"></ellipse>
                <path d="M7.30666667,2.82666667 C7.35933333,4.15466667 6.724,5.25733333 5.88866667,5.29 C5.05333333,5.32266667 4.33333333,4.27466667 4.28,2.94666667 C4.22666667,1.61866667 4.862,0.516666667 5.698,0.483333333 C6.534,0.45 7.254,1.49933333 7.30666667,2.82666667 Z" id="Shape"></path>
                <ellipse id="Oval" cx="13.9033333" cy="6.67266667" rx="1.66666667" ry="2.64733333"></ellipse>
                <path d="M8.69333333,2.82666667 C8.64066667,4.15466667 9.276,5.25733333 10.1113333,5.29 C10.9466667,5.32266667 11.6666667,4.27466667 11.72,2.94666667 C11.7733333,1.61866667 11.138,0.516666667 10.302,0.483333333 C9.466,0.45 8.746,1.49933333 8.69333333,2.82666667 Z" id="Shape"></path>
                <path d="M10.2746667,9.022 C10.0466667,7.88866667 9.36466667,6.52066667 8,6.52066667 C6.63533333,6.52066667 5.95333333,7.88533333 5.72533333,9.022 C5.48,10.2486667 3.45066667,11.0693333 3.45066667,12.8886667 C3.45066667,16.3933333 12.5493333,16.3933333 12.5493333,12.8886667 C12.5493333,11.0666667 10.52,10.2486667 10.2746667,9.022 Z" id="Shape"></path>
            </g>
        </g>
    </g>
</svg>
