<?xml version="1.0" encoding="UTF-8"?>
<svg viewBox="0 0 16 18" version="1.1" xmlns="http://www.w3.org/2000/svg" xmlns:xlink="http://www.w3.org/1999/xlink">
    <title>7A49CAE9-2AAA-4A24-A8A7-9C99E945E33F</title>
    <g id="Iteration-2" stroke="none" stroke-width="1" fill="none" fill-rule="evenodd" stroke-linecap="round" stroke-linejoin="round">
        <g id="Emoji-Picker" transform="translate(-410.000000, -156.000000)" stroke="currentColor">
            <g id="Light" transform="translate(410.000000, 157.000000)">
                <path d="M8,15 C9,15 8.33333333,15.6666667 10.3333333,15.6666667 C12.3333333,15.6666667 14.3333333,11.6666667 14.3333333,9 C14.3333333,6.33333333 12.6666667,4.33333333 10.6666667,4.33333333 C8.66666667,4.33333333 8.66666667,5 8,5 C7.33333333,5 7.33333333,4.33333333 5.33333333,4.33333333 C3.33333333,4.33333333 1.66666667,6.33333333 1.66666667,9 C1.66666667,11.6666667 3.66666667,15.6666667 5.66666667,15.6666667 C7.66666667,15.6666667 7,15 8,15 Z" id="Shape"></path>
                <path d="M8,5 L8,3.66666667 C7.99780347,2.93119876 7.40213458,2.33552987 6.66666667,2.33333333 L5.33333333,2.33333333" id="Shape"></path>
                <path d="M9.752,3.27866667 C11.0767099,3.09228792 12.1179419,2.05132783 12.3046667,0.726666667 C12.320032,0.619251257 12.2839166,0.51087141 12.2071892,0.434144085 C12.1304619,0.357416759 12.0220821,0.321301299 11.9146667,0.336666667 C10.5900055,0.523391416 9.54904541,1.56462344 9.36266667,2.88933333 C9.34700029,2.9966348 9.38294671,3.10503056 9.45962474,3.18170859 C9.53630277,3.25838662 9.64469853,3.29433304 9.752,3.27866667 L9.752,3.27866667 Z" id="Shape"></path>
            </g>
        </g>
    </g>
</svg>
