<?xml version="1.0" encoding="UTF-8"?>
<svg viewBox="0 0 18 18" version="1.1" xmlns="http://www.w3.org/2000/svg" xmlns:xlink="http://www.w3.org/1999/xlink">
    <title>F6517E20-3ECC-4613-A0C0-44A6BB13E1C1</title>
    <g id="Iteration-2" stroke="none" stroke-width="1" fill="none" fill-rule="evenodd" stroke-linecap="round" stroke-linejoin="round">
        <g id="Emoji-Picker" transform="translate(-409.000000, -121.000000)" stroke="currentColor">
            <g id="smiley-blessed" transform="translate(410.000000, 122.000000)">
                <path d="M10.582,10.3333326 C10.788246,10.3330246 10.9830221,10.4281928 11.1095276,10.591085 C11.2360332,10.7539772 11.2800222,10.9662498 11.2286667,11.166 C10.8503208,12.6399743 9.52175751,13.6705857 8,13.6705857 C6.47824249,13.6705857 5.14967922,12.6399743 4.77133333,11.166 C4.71997778,10.9662498 4.76396682,10.7539772 4.89047236,10.591085 C5.01697791,10.4281928 5.21175397,10.3330246 5.418,10.3333326 L10.582,10.3333326 Z" id="Shape"></path>
                <path d="M9.66666667,6.26133333 C9.95410903,6.72089111 10.4579516,7.00003198 11,7.00003198 C11.5420484,7.00003198 12.045891,6.72089111 12.3333333,6.26133333" id="Shape"></path>
                <path d="M6.33333333,6.26133333 C6.04589097,6.72089111 5.54204839,7.00003198 5,7.00003198 C4.45795161,7.00003198 3.95410903,6.72089111 3.66666667,6.26133333" id="Shape"></path>
                <circle id="Oval" cx="8" cy="8" r="7.66666667"></circle>
            </g>
        </g>
    </g>
</svg>
