<?xml version="1.0" encoding="UTF-8"?>
<svg viewBox="0 0 18 16" version="1.1" xmlns="http://www.w3.org/2000/svg" xmlns:xlink="http://www.w3.org/1999/xlink">
    <title>EB5209C4-7356-4E88-BD61-1BE4F9492E13</title>
    <g id="Iteration-2" stroke="none" stroke-width="1" fill="none" fill-rule="evenodd" stroke-linecap="round" stroke-linejoin="round">
        <g id="Emoji-Picker" transform="translate(-409.000000, -262.000000)" stroke="currentColor">
            <g id="sports-car-1" transform="translate(410.000000, 262.000000)">
                <line x1="9.84466667" y1="10.6666667" x2="4.82066667" y2="10.6666667" id="Shape"></line>
                <path d="M2.494,10.634 C1.24895115,10.4345448 0.333178915,9.36025721 0.333333333,8.09933333 L0.333333333,6.66666667 C0.340821689,6.47347728 0.47104671,6.30673556 0.656666667,6.25266667 L1.66666667,6 L2.97666667,6 C3.70241483,6.01340494 4.42184382,6.13773127 5.11,6.36866667 C5.73914161,6.56599497 6.3946385,6.66647752 7.054,6.66666667 L10,6.66666667 C12.7213333,6.66666667 14.3453333,7.21533333 15.37,8.56066667 C15.6027435,8.86219372 15.7049837,9.24439669 15.6538707,9.62185604 C15.6027577,9.99931539 15.4025527,10.3405633 15.098,10.5693333 C15.0353662,10.6318093 14.9504659,10.6668247 14.862,10.6666672 L12.1533333,10.6666672" id="Shape"></path>
                <path d="M13,7 C11.4529267,5.56645939 9.44126311,4.73812734 7.33333333,4.66666667 C5.36545978,4.65565547 3.42316489,5.11266603 1.66666667,6" id="Shape"></path>
                <line x1="15.6626667" y1="9.33333333" x2="14.3333333" y2="9.33333333" id="Shape"></line>
                <line x1="0.333333333" y1="7.33333333" x2="1.66666667" y2="7.33333333" id="Shape"></line>
                <path d="M9.84533333,9.33333345 L7.66666667,9.33333345 C7.25796517,9.3335251 6.88434761,9.10243476 6.702,8.73666667 L6.33333333,8" id="Shape"></path>
                <line x1="6.35266667" y1="4.70466667" x2="7.33333333" y2="6.66666667" id="Shape"></line>
                <circle id="Oval" cx="11" cy="10" r="1.33333333"></circle>
                <circle id="Oval" cx="3.66666667" cy="10" r="1.33333333"></circle>
            </g>
        </g>
    </g>
</svg>
