<?xml version="1.0" encoding="UTF-8"?>
<svg viewBox="0 0 18 18" version="1.1" xmlns="http://www.w3.org/2000/svg" xmlns:xlink="http://www.w3.org/1999/xlink">
    <title>51C5C8AE-063E-40A5-A005-2C45CA7E7A53</title>
    <g id="Iteration-2" stroke="none" stroke-width="1" fill="none" fill-rule="evenodd" stroke-linecap="round" stroke-linejoin="round">
        <g id="Emoji-Picker" transform="translate(-409.000000, -366.000000)" stroke="currentColor">
            <g id="earth-1" transform="translate(410.000000, 367.000000)">
                <circle id="Oval" cx="8" cy="7.99" r="7.66666667"></circle>
                <path d="M0.448666667,6.65666646 L4.50466667,6.65666646 C5.03519161,6.6564263 5.54407537,6.86698235 5.91933333,7.242 L6.66666667,7.98933333 C7.4157219,8.73815859 7.45109458,9.94112189 6.74733333,10.7326667 L5.83866667,11.7546667 C5.51320131,12.1207309 5.33339015,12.5935061 5.33333333,13.0833333 L5.33333333,15.18" id="Shape"></path>
                <path d="M13.5073333,2.65666667 L9.64066667,2.65666667 C8.81223954,2.65666667 8.14066667,3.32823954 8.14066667,4.15666667 C8.14066667,4.98509379 8.81223954,5.65666667 9.64066667,5.65666667 L9.92866667,5.65666667 C10.5981683,5.65567429 11.2237603,5.98974043 11.5953333,6.54666667 L13.074,8.766 C13.4454201,9.32318001 14.0710386,9.6575105 14.7406667,9.65666667 L15.488,9.65666667" id="Shape"></path>
            </g>
        </g>
    </g>
</svg>
