<?xml version="1.0" encoding="UTF-8"?>
<svg viewBox="0 0 238 165" version="1.1" xmlns="http://www.w3.org/2000/svg" xmlns:xlink="http://www.w3.org/1999/xlink">
    <g stroke="none" stroke-width="1" fill="none" fill-rule="evenodd">
        <g transform="translate(-391.000000, -318.000000)">
            <g id="Group-11" transform="translate(391.000000, 318.000000)">
                <path d="M0,164.11048 C4.74408994,156.994317 6.22661805,149.878155 4.44758432,142.761992 C1.77903373,132.087749 14.2322698,122.303025 23.1274385,123.192545 C32.0226071,124.082066 51.5919781,134.756309 54.2605287,129.419188 C56.9290793,124.082066 50.7024613,111.628781 52.481495,105.402139 C54.2605287,99.1754971 61.3766636,79.6060503 83.6145852,82.2746112 C94.2887876,84.0536518 96.0678213,95.6174159 106.742024,92.9488549 C117.416226,90.280294 120.974294,55.5890019 137.875114,46.6937988 C154.775934,37.7985957 185.019508,32.4614739 214.373564,54.6994816 C233.942935,69.5248201 241.355576,106.29166 236.611486,165 L0,164.11048 Z" id="Path-2-Copy" fill="#F7F8F9"></path>
                <g id="Group-6" transform="translate(26.000000, 0.000000)">
                    <g id="Group-14" transform="translate(0.000000, 34.841602)">
                        <path d="M22,19.2891894 L22,14.2254029 C22.6407767,8.394376 26.0048544,6.09265485 32.092233,7.32023946 C34.0145631,12.384026 32.5728155,15.6064356 30.6504854,16.527124 C29.368932,17.1409163 28.7281553,17.7547086 28.7281553,18.368501 C30.4368165,21.2036473 30.4368165,22.7381281 28.7281553,22.9719432 C27.0194942,23.2057584 24.7767757,21.9781738 22,19.2891894 Z" id="Path-16" fill="#EACDB0"></path>
                        <path d="M35,26.925636 C43.2199313,38.8003914 49.0687285,44.0958904 52.5463918,42.8121331 C53.4948454,42.3307241 54.443299,42.3307241 56.814433,39.4422701 C58.395189,37.5166341 58.395189,34.146771 56.814433,29.332681 C54.2852234,33.5048924 52.5463918,35.4305284 51.5979381,35.109589 C50.6494845,34.7886497 46.0652921,31.4187867 37.8453608,25 L35,26.925636 Z" id="Path-3-Copy" fill="#339BB2" transform="translate(46.500000, 34.000000) scale(-1, 1) translate(-46.500000, -34.000000) "></path>
                        <path d="M26.6666667,120 L22,62 L36,84.6341463 C34.7555556,108.211382 33.2,120 31.3333333,120 C29.4666667,120 27.9111111,120 26.6666667,120 Z" id="Path-4-Copy" fill="#404244" transform="translate(29.000000, 91.000000) scale(-1, 1) translate(-29.000000, -91.000000) "></path>
                        <path d="M21.3611111,60 C21.0462963,72.8760331 23.25,81.6694215 27.9722222,86.3801653 C32.6944444,91.0909091 35.3703704,100.669421 36,115.115702 L32.2222222,117 L2,62.3553719 L21.3611111,60 Z" id="Path-6-Copy" fill="#404244" transform="translate(19.000000, 88.500000) scale(-1, 1) translate(-19.000000, -88.500000) "></path>
                        <path d="M26,126 C28.2528736,123.687518 30.8275862,122.200923 33.7241379,121.540214 C38.0689655,120.54915 38.5517241,121.044682 39.5172414,122.035746 C39.5172414,123.687518 39.6781609,125.008936 40,126 L26,126 Z" id="Path-9-Copy" fill="#292949" transform="translate(33.000000, 123.500000) scale(-1, 1) translate(-33.000000, -123.500000) "></path>
                        <path d="M0,125.84375 C0,124.59375 0.789473684,123.34375 2.36842105,122.09375 C3.94736842,120.84375 4.26315789,119.4375 3.31578947,117.875 L6.63157895,116 L9,118.8125 C6.47368421,122.5625 5.21052632,124.75 5.21052632,125.375 C5.21052632,126 3.47368421,126.15625 0,125.84375 Z" id="Path-10-Copy" fill="#292949" transform="translate(4.500000, 121.000000) scale(-1, 1) translate(-4.500000, -121.000000) "></path>
                        <path d="M8.45711798,62.9969715 C6.87244232,37.7355138 9.40792338,23.683828 16.0635612,20.841914 C19.2329125,21.4734504 21.7683936,20.5261458 23.6700044,18 C32.2272529,23.3680598 36.9812799,33.4726428 37.9320853,48.3137492 C38.2490205,49.8925903 37.4566826,54.4712296 35.5550718,62.0496669 L32.2272529,60.6287099 C33.8119286,55.5764183 33.9703962,51.4714315 32.7026556,48.3137492 C31.4349151,45.156067 30.3256421,40.5774278 29.3748367,34.5778316 C29.6917719,48.4716334 29.6917719,57.1552594 29.3748367,60.6287099 C29.0579016,64.1021603 22.0853287,64.8915809 8.45711798,62.9969715 Z" id="Path-2-Copy-2" fill="#339BB2" transform="translate(23.000000, 41.000000) scale(-1, 1) translate(-23.000000, -41.000000) "></path>
                        <path d="M21.7067834,15 C18.1123268,9.24242424 17.1320204,4.92424242 18.7658643,2.04545455 C20.3997082,-0.833333333 24.3209336,-0.673400673 30.5295405,2.52525253 L32,7.32323232 C29.2095594,7.26396316 26.9221779,7.74376114 25.1378556,8.76262626 C23.3535333,9.78149138 22.2098425,11.860616 21.7067834,15 Z" id="Path-21" fill="#292949"></path>
                        <path d="M10,62.32 C10.3137255,63.7866667 11.254902,64.6666667 12.8235294,64.96 C14.3921569,65.2533333 14.3921569,63.9333333 12.8235294,61 L10,62.32 Z" id="Path-24" fill="#EACDB0"></path>
                        <path d="M55.0720721,25.2201412 C58.0990991,22.5963224 59.9489489,21.5759485 60.6216216,22.1590193 C61.6306306,23.0336256 60.6216216,27.4066568 57.5945946,26.9693536 C55.5765766,26.6778182 54.7357357,26.0947474 55.0720721,25.2201412 Z" id="Path-25" fill="#EACDB0"></path>
                    </g>
                    <path d="M60.8964319,156.031446 C57.8788649,157.389337 55.263312,157.841602 51.6922235,157.841602 C43.3434574,157.841602 36,151.857149 36,142.001368 C36,131.74254 43.4435507,122.841602 54.8109778,122.841602 C63.6629452,122.841602 70,128.92668 70,137.374805 C70,144.716602 65.8759371,149.343165 60.4440977,149.343165 C58.0801454,149.343165 56.3703549,148.136212 56.1187542,145.470743 L56.018114,145.470743 C54.4592838,148.035587 52.1959718,149.343165 49.5300988,149.343165 C46.2609311,149.343165 43.8969789,146.929258 43.8969789,142.805274 C43.8969789,136.67043 48.4236028,131.088477 55.665873,131.088477 C57.8788649,131.088477 60.3932306,131.641915 61.6512339,132.345743 L60.1427239,141.64918 C59.6400695,144.61543 59.9917635,145.973868 61.4001802,146.023633 C63.5628519,146.073946 66.2784981,143.307852 66.2784981,137.525196 C66.2784981,130.987852 62.0537949,125.908477 54.2574563,125.908477 C46.5628519,125.908477 39.8226891,131.943243 39.8226891,141.548008 C39.8226891,149.945821 45.2042084,154.723321 52.6986262,154.723321 C55.2638589,154.723321 57.9800521,154.17043 59.9912165,153.113868 L60.8964319,156.031446 Z M57,136.037785 C56.5702817,135.939694 56.0331338,135.841602 55.3354255,135.841602 C51.792585,135.841602 49,139.027976 49,142.802366 C49,144.665038 49.9131514,145.841602 51.6845716,145.841602 C53.670851,145.841602 55.7651438,143.537519 56.247993,140.694465 L57,136.037785 Z" id="Shape" fill="#339BB2" fill-rule="nonzero"></path>
                    <g id="Group-2" transform="translate(69.000000, 0.000000)" fill-rule="nonzero">
                        <path d="M9.07692308,22.8340255 L108.923077,22.8340255 C113.935773,22.8340255 118,26.898253 118,31.9109486 L118,115.872487 C118,120.885183 113.935773,124.94941 108.923077,124.94941 L9.07692308,124.94941 C4.06422748,124.94941 0,120.885183 0,115.872487 L0,31.9109486 C0,26.898253 4.06422748,22.8340255 9.07692308,22.8340255 Z" id="Path" fill="#415C6B"></path>
                        <path d="M40.8461538,91.4782563 L77.1538462,91.4782563 C82.1665417,91.4782563 86.2307692,95.5424837 86.2307692,100.555179 C86.2307692,105.567875 82.1665417,109.632102 77.1538462,109.632102 L40.8461538,109.632102 C35.8334582,109.632102 31.7692308,105.567875 31.7692308,100.555179 C31.7692308,95.5424837 35.8334582,91.4782563 40.8461538,91.4782563 Z" id="Path" fill="#339BB2"></path>
                        <g id="Group-3" transform="translate(16.451923, 46.660949)" fill="#FFFFFF">
                            <polygon id="Path" points="45.3846154 0 85.0961538 0 85.0961538 14.75 45.3846154 14.75"></polygon>
                            <polygon id="Path" points="0 0 39.7115385 0 39.7115385 14.75 0 14.75"></polygon>
                            <polygon id="Path" points="0 20.4230769 85.0961538 20.4230769 85.0961538 35.1730769 0 35.1730769"></polygon>
                        </g>
                        <g id="email-copy" transform="translate(55.902071, 19.004808) rotate(-10.000000) translate(-55.902071, -19.004808) translate(34.060725, 3.971154)">
                            <path d="M40.400553,29.9706373 L3.17098572,29.9706373 C1.70307706,29.9706373 0.511730909,28.7691828 0.511730909,27.2888191 L0.511730909,3.15245548 C0.511730909,1.67209184 1.70307706,0.470637299 3.17098572,0.470637299 L40.400553,0.470637299 C41.8684617,0.470637299 43.0598078,1.67209184 43.0598078,3.15245548 L43.0598078,27.2888191 C43.0598078,28.7691828 41.8684617,29.9706373 40.400553,29.9706373 Z" id="Path" fill="#F1C241"></path>
                            <path d="M40.5328116,29.5141667 L3.30324427,29.5141667 C1.81140233,29.5141667 0.643989467,28.3647141 0.643989467,26.8958235 C0.643989467,26.479507 0.846092832,26.0867555 1.18647745,25.8406312 L21.1308885,12.7489152 C21.3649029,12.5787229 21.6414654,12.4949359 21.9180279,12.4949359 C22.1945904,12.4949359 22.4711529,12.5787229 22.7051674,12.7489152 L42.6495784,25.8406312 C42.989963,26.0867555 43.1920664,26.479507 43.1920664,26.8958235 C43.1920664,28.3647141 42.0246535,29.5141667 40.5328116,29.5141667 Z" id="Path" fill="#F4D06C"></path>
                            <path d="M40.2190385,0.355490851 L2.98947118,0.355490851 C1.49762924,0.355490851 0.330216377,1.5494021 0.330216377,3.07510645 C0.330216377,3.50752532 0.532319743,3.91546766 0.872704358,4.17111153 L20.8277524,18.8216807 C21.2904628,19.1616327 21.9153877,19.1616327 22.378098,18.8216807 L42.3331461,4.17111153 C42.6761899,3.91546766 42.8782933,3.50752532 42.8782933,3.07510645 C42.8782933,1.5494021 41.7108804,0.355490851 40.2190385,0.355490851 Z" id="Path" fill="#F8DF9B"></path>
                        </g>
                    </g>
                </g>
            </g>
        </g>
    </g>
</svg>
