<svg xmlns="http://www.w3.org/2000/svg" viewBox="0 0 786.05 569.876"><g transform="translate(-42.016 -104.028)"><path d="M429,104.107c5.442,1.828,11.205,2,16.753,3.639,20.84,6.161,37.423,17.968,49.875,35.705a88.927,88.927,0,0,1,16.319,48.7c-1.256-.808-2.536-1.579-3.762-2.428-15.3-10.6-32.149-16.585-50.875-16.593q-145.68-.062-291.36-.029a79.631,79.631,0,0,0-37.042,8.734c-33.3,17.253-51.717,44.453-51.871,82.322C76.682,352.6,76.9,441.052,76.876,529.5c0,1.826-.138,3.651-.212,5.477a87.705,87.705,0,0,1-27.6-35.48C45.6,491.619,44.4,483.152,42.1,474.975v-291.9c3.026-10.414,5.3-20.971,10.706-30.69,12.523-22.511,30.906-37.186,55.492-44.625,5.555-1.68,11.331-1.821,16.782-3.657Z" fill="#e7f7fe"/><path d="M782.92,673.9c-3-2.192-6.786-2.383-10.046-3.949a54.76,54.76,0,0,1-16.289-12.131c-19.019-20.232-38.158-40.353-57.109-60.649-2.819-3.019-4.121-3.2-7.058.17-7.744,8.878-14.569,18.756-24.083,25.877-21.172,15.847-44.126,19.627-68.848,8.893a7.231,7.231,0,0,0-1.458-.3c-10.59-7.337-19.931-16.146-29.333-24.883,3.423-4.909,7.505-9.256,11.458-13.731,21.134-23.924,42.113-47.984,63.208-71.942q44.658-50.717,89.4-101.358c7.741,6.807,16.049,13.078,23.109,20.532,15.316,16.172,18.29,35.349,13.654,56.888-4.1,19.067-17.135,31.708-28.99,45.419-4.587,5.3-4.668,5.172,1.1,9.362,22.619,16.434,45.277,32.815,67.806,49.372,16.585,12.188,22.939,32.829,15.607,50.406-4.61,11.053-13.236,17.625-24.547,20.934-.908.265-2.057-.061-2.587,1.094Z" fill="#8565cd"/><path d="M125.076,104.107c-5.451,1.836-11.227,1.977-16.782,3.657C83.708,115.2,65.325,129.878,52.8,152.389c-5.407,9.719-7.68,20.276-10.706,30.69,0-25.247.057-50.493-.08-75.739-.015-2.779.573-3.325,3.326-3.312C71.919,104.159,98.5,104.107,125.076,104.107Z" fill="#fefefe"/><path d="M732.765,419.9q-44.706,50.674-89.4,101.358c-21.095,23.958-42.074,48.018-63.208,71.942-3.953,4.475-8.035,8.822-11.456,13.732q-15.613-13.543-31.233-27.088c-1.206-1.046-2.287-2.744-3.779-.153-5.624,9.761-13.5,17.589-21.752,25.087-7.685,4.761-15.146,9.942-23.765,12.981-2.013.71-4.1,1.2-6.158,1.79a26.185,26.185,0,0,0-.212-4.479c-2.2-10.191-.2-19.831,4.189-28.971,5.388-11.233,14.172-19.108,25.623-23.945,2.724-1.151,3.3-2.134.83-4.288-7-6.1-13.65-12.624-20.865-18.452-8.581-6.932-8.775-6.7-17.832.113a38.035,38.035,0,0,0-3.523,2.739c-23.4,22.346-31.852,49.706-27.262,81.426-1.662.062-3.324.178-4.986.178q-135.178.02-270.356-.062c-18.342-.035-35.428-5.087-50.56-15.859,1.061-1.468,2.283-.62,3.577-.377,6.469,1.218,12.925.423,18.2-3.285C148.227,597.681,153,588.612,150,576.8c-2.58-10.143-9.344-16.079-19.408-18.523-13.816-3.356-29.117,8.733-29.658,22.86-.2,5.315,2.11,10.006,2.082,15.133-15.685-15.73-24.165-34.751-25.961-56.826-.121-1.49-.258-2.978-.388-4.468.074-1.826.211-3.651.212-5.477.026-88.447-.194-176.9.165-265.341.154-37.869,18.576-65.069,51.871-82.322a79.631,79.631,0,0,1,37.042-8.734q145.68-.006,291.36.029c18.726.008,35.57,5.988,50.875,16.593,1.226.849,2.506,1.62,3.762,2.428,14.42,12.154,25.176,26.825,30.79,44.993a89.573,89.573,0,0,1,4.1,25.979q.14,21.444.318,42.887-.039,21.981-.077,43.961c-14.861,17.038-29.673,34.117-44.6,51.1-10.311,11.733-20.776,23.331-31.173,34.989q-11.061-19.021-23.141-37.414c-1.827-3.138-3.593-6.313-5.49-9.407q-18.453-30.1-36.954-60.164a16.874,16.874,0,0,1,3.716,1.264,64.207,64.207,0,0,0,42.115,9.8c18.645-1.976,33.615-10.135,45.5-24.561a66.473,66.473,0,0,0-3.391-88.132c-15.112-15.772-33.927-23.12-56.164-20.44-23.746,2.862-41.224,15.053-52.283,35.895-8.978,16.919-9.617,34.915-3.665,53.082,1.234,3.767,2.958,7.372,4.457,11.052-4.228.327-7.429,2.356-10.184,5.557-13.651,15.862-27.536,31.525-41.082,47.476-14.147,16.659-27.992,33.574-41.988,50.361-5.4,6.482-12.309,6.9-18.574,1.09q-22.5-20.874-44.95-41.813c-7.664-7.145-14.424-6.562-20.347,1.932q-16.117,23.115-32.137,46.3c-19.107.129-34.967,8.351-47.5,21.8-13.916,14.936-19.276,33.275-17.3,53.986,3.007,31.522,28.312,57.845,60.494,61,27.584,2.7,49.992-7.665,65.671-31.009,8.637-12.859,11.573-27.323,10.95-42.631q28.735-.062,57.469-.121,35.73-.074,71.46-.141l36.955.5c2.09,4.165,6.576,3.781,10.071,5.014,5.858,2.067,6.82,1.155,7.042-5.051,6.632-7.665,13.011-15.555,20.217-22.708,12.635,11.092,25.2,22.265,37.924,33.254a26.52,26.52,0,0,0,38.073-36.7c-10.284-12.889-7.86-30.46,5.428-39.353,10.369-6.94,22.9-5.968,33.1,2.882,13.333,11.563,26.363,23.477,39.8,34.918a26.639,26.639,0,0,0,37.957-2.9c9.495-11.353,8.076-27.441-3.444-37.6Q599.347,376.25,557.5,339.506c3.1-6.009,8.688-10.012,12.447-15.488q8.793-9.849,17.587-19.7c4.64-5.194,7.966-5.441,13.136-.9q65.605,57.645,131.19,115.313A7.727,7.727,0,0,1,732.765,419.9ZM160.507,196.057c-37.1-1.949-69.485,30.547-69.324,68.372.165,38.705,31.309,66.689,64.722,68.759,41.574,2.575,72.608-31.832,73.26-67.252C229.874,227.424,197.764,194.606,160.507,196.057ZM245.865,323.6c-.327,16.005,11.6,29.027,26.944,29.406,15.13.374,28.558-11.666,29.329-25.412,1.039-18.519-12.023-31.14-28.55-31.208C257.708,296.318,245.455,308.632,245.865,323.6Z" fill="#33b8f9"/><path d="M547.087,349.972q.038-21.981.077-43.961c7.067,3.38,11.568,9.911,17.711,14.43,1.668,1.227,2.616,3.466,5.073,3.577-3.759,5.476-9.352,9.479-12.445,15.49C553.118,342.087,551,346.923,547.087,349.972Z" fill="#e7f7fe"/><path d="M442.959,623.689c-4.59-31.72,3.864-59.08,27.262-81.426a38.035,38.035,0,0,1,3.523-2.739c9.057-6.809,9.251-7.045,17.832-.113,7.215,5.828,13.866,12.35,20.865,18.452,2.471,2.154,1.894,3.137-.83,4.288-11.451,4.837-20.235,12.712-25.623,23.945-4.384,9.14-6.391,18.78-4.189,28.971a26.185,26.185,0,0,1,.212,4.479C469.325,624.051,456.185,624.271,442.959,623.689Z" fill="#50c4fb"/><path d="M511.934,604.775c8.249-7.5,16.128-15.326,21.752-25.087,1.492-2.591,2.573-.893,3.779.153q15.621,13.54,31.233,27.088c9.4,8.736,18.741,17.545,29.331,24.882-9.857,5.7-20.582,6.777-31.634,5.735-18.133-1.709-32.313-11.019-44.869-23.488C518.372,610.926,514.284,608.751,511.934,604.775Z" fill="#e7f7fe"/><path d="M103.013,596.27c.028-5.127-2.285-9.818-2.082-15.133.541-14.127,15.842-26.216,29.658-22.86,10.064,2.444,16.828,8.38,19.408,18.523,3.005,11.812-1.77,20.881-11.163,27.484-5.275,3.708-11.731,4.5-18.2,3.285-1.294-.243-2.516-1.091-3.577.377A56.138,56.138,0,0,1,103.013,596.27Z" fill="#50c4fb"/><path d="M405.732,329.074q18.482,30.078,36.954,60.164c1.9,3.094,3.663,6.269,5.489,9.408a5.7,5.7,0,0,1-1.438,3.109c-6.537,7.491-12.98,15.066-19.562,22.518-13.282,15.036-26.826,29.846-39.816,45.128-3.165,3.725-7.519,6.588-9.363,11.416q-35.73.071-71.46.141-28.734.057-57.469.121c-30.3-.078-60.6-.2-90.9-.19-5.379,0-9.931-1.235-12.679-6.208-2.811-5.09-1-9.505,2.033-13.9,9.819-14.231,19.5-28.56,29.229-42.852q16.063-23.151,32.137-46.3c5.923-8.494,12.683-9.077,20.347-1.932q22.454,20.93,44.95,41.813c6.265,5.812,13.169,5.392,18.574-1.09,14-16.787,27.841-33.7,41.988-50.361,13.546-15.951,27.431-31.614,41.082-47.476,2.755-3.2,5.956-5.23,10.184-5.557,4.9.824,8.27,3.478,10.708,7.879C399.426,319.8,402.7,324.367,405.732,329.074Z" fill="#fefefe"/><path d="M405.732,329.074c-3.029-4.707-6.306-9.276-9.012-14.161-2.438-4.4-5.811-7.055-10.708-7.879-1.5-3.68-3.223-7.285-4.457-11.052-5.952-18.167-5.313-36.163,3.665-53.082,11.059-20.842,28.537-33.033,52.283-35.895,22.237-2.68,41.052,4.668,56.164,20.44a66.473,66.473,0,0,1,3.391,88.132c-11.88,14.426-26.85,22.585-45.5,24.561a64.207,64.207,0,0,1-42.115-9.8A16.874,16.874,0,0,0,405.732,329.074Z" fill="#50c4fb"/><path d="M547.087,349.972c3.913-3.049,6.031-7.885,10.416-10.464q41.811,36.777,83.616,73.57c11.52,10.157,12.939,26.245,3.444,37.6a26.639,26.639,0,0,1-37.957,2.9c-13.435-11.441-26.465-23.355-39.8-34.918-10.2-8.85-22.733-9.822-33.1-2.882-13.288,8.893-15.712,26.464-5.428,39.353a26.52,26.52,0,0,1-38.073,36.7c-12.724-10.989-25.289-22.162-37.92-33.253q9.52-11.257,19.032-22.517c10.4-11.658,20.862-23.256,31.173-34.989C517.414,384.089,532.226,367.01,547.087,349.972Z" fill="#f9a639"/><path d="M160.507,196.057c37.257-1.451,69.367,31.367,68.658,69.879-.652,35.42-31.686,69.827-73.26,67.252-33.413-2.07-64.557-30.054-64.722-68.759C91.022,226.6,123.408,194.108,160.507,196.057Zm37.548,68.09c.687-20.458-16.631-37.983-37.975-37.913a37.594,37.594,0,0,0-37.951,37.993c.191,23.2,17.348,38.667,38.536,38.443C182.391,302.441,198.672,285.243,198.055,264.147Z" fill="#50c4fb"/><path d="M176.75,417.933c-9.732,14.292-19.41,28.621-29.229,42.852-3.029,4.391-4.844,8.806-2.033,13.9,2.748,4.973,7.3,6.21,12.679,6.208,30.3-.014,60.6.112,90.9.19.623,15.308-2.313,29.772-10.95,42.631-15.679,23.344-38.087,33.711-65.671,31.009-32.182-3.153-57.487-29.476-60.494-61-1.976-20.711,3.384-39.05,17.3-53.986C141.783,426.284,157.643,418.062,176.75,417.933Z" fill="#50c4fb"/><path d="M471.317,436.059q-9.513,11.259-19.032,22.517c-7.21,7.152-13.589,15.042-20.221,22.706a103.148,103.148,0,0,0-17.113.038l-36.955-.5c1.844-4.828,6.2-7.691,9.363-11.416,12.99-15.282,26.534-30.092,39.816-45.128,6.582-7.452,13.025-15.027,19.562-22.518a5.7,5.7,0,0,0,1.438-3.109Q460.26,417.035,471.317,436.059Z" fill="#e7f7fe"/><path d="M245.865,323.6c-.41-14.965,11.843-27.279,27.723-27.214,16.527.068,29.589,12.689,28.55,31.208-.771,13.746-14.2,25.786-29.329,25.412C257.469,352.624,245.538,339.6,245.865,323.6Z" fill="#fefefe"/><path d="M414.951,481.32a103.148,103.148,0,0,1,17.113-.038c-.222,6.207-1.184,7.119-7.042,5.052C421.527,485.1,417.041,485.485,414.951,481.32Z" fill="#50c4fb"/><path d="M198.055,264.147c.617,21.1-15.664,38.294-37.39,38.523-21.188.224-38.345-15.241-38.536-38.443a37.594,37.594,0,0,1,37.951-37.993C181.424,226.164,198.742,243.689,198.055,264.147Z" fill="#33b8f9"/></g></svg>
