<?xml version="1.0" encoding="UTF-8"?>
<svg viewBox="0 0 103 81" version="1.1" xmlns="http://www.w3.org/2000/svg" xmlns:xlink="http://www.w3.org/1999/xlink">
    <title>Group 30</title>
    <g id="Page-1" stroke="none" stroke-width="1" fill="none" fill-rule="evenodd">
        <g id="Group-30" transform="translate(0.000000, 0.500000)" fill="#E3E3E3" fill-rule="nonzero">
            <path d="M101.7695,36.5023433 C100.201914,33.9818773 97.431884,32.4752475 94.3596684,32.4752475 L25.952509,32.4752475 C22.5615826,32.4752475 19.4775631,34.3812913 18.0933348,37.3325592 L1.42108547e-14,75.1607368 C0.683064311,77.9307382 3.27760693,80 6.36792212,80 L79.1481096,80 C82.2596721,80 85.103675,78.2454041 86.4934119,75.469125 L102.132279,44.2128351 C103.366989,41.7394512 103.230061,38.8572372 101.7695,36.5023433 Z" id="Path"></path>
            <path d="M14.6307785,31.2788565 C16.0176831,28.3274286 19.1119723,26.4199897 22.5141117,26.4199897 L87.1287129,26.4199897 L87.1287129,18.2015189 C87.1287129,14.8136564 84.2546548,12.0568971 80.7222711,12.0568971 L43.0461418,12.0568971 C42.9908868,12.0568971 42.9529975,12.042768 42.938789,12.0325635 L36.1952909,2.65628514 C35.0009898,0.992967062 33.0283803,-7.46069873e-14 30.9207905,-7.46069873e-14 L6.40802056,-7.46069873e-14 C2.87405791,-7.46069873e-14 4.97379915e-14,2.75675929 4.97379915e-14,6.14462178 L4.97379915e-14,61.7821782 L14.6307785,31.2788565 Z" id="Path"></path>
        </g>
    </g>
</svg>
