<?xml version="1.0" encoding="UTF-8"?>
<svg viewBox="0 0 75 100" version="1.1" xmlns="http://www.w3.org/2000/svg" xmlns:xlink="http://www.w3.org/1999/xlink">
    <g stroke="none" stroke-width="1" fill="none" fill-rule="evenodd">
        <g transform="translate(-613.000000, -612.000000)" fill-rule="nonzero">
            <g transform="translate(613.000000, 612.000000)">
                <path d="M74.4203913,25.5903752 L74.4203913,87.4118383 C74.4203913,90.7364794 71.723671,93.4306449 68.4015847,93.4306449 L12.7706437,93.4306449 C9.44600264,93.4306449 6.75183714,90.7364794 6.75183714,87.4118383 L6.75183714,6.0188066 C6.75183714,2.6941655 9.44582016,0 12.7706437,0 L48.8300161,0 L74.4203913,25.5903752 Z" id="Path" fill="#D0D1D2" transform="translate(40.586114, 46.715322) rotate(-180.000000) translate(-40.586114, -46.715322) "></path>
                <g id="Group-3" transform="translate(0.000000, 6.569355)">
                    <path d="M67.6685541,25.5903752 L67.6685541,87.4118383 C67.6685541,90.7364794 64.9718339,93.4306449 61.6497475,93.4306449 L6.0188066,93.4306449 C2.6941655,93.4306449 4.14916223e-14,90.7364794 4.14916223e-14,87.4118383 L4.14916223e-14,6.0188066 C4.14916223e-14,2.6941655 2.69398302,0 6.0188066,0 L42.078179,0 L67.6685541,25.5903752 Z" id="Path" fill="#B4B5B6" transform="translate(33.834277, 46.715322) rotate(-180.000000) translate(-33.834277, -46.715322) "></path>
                    <g id="Group" transform="translate(33.835646, 31.719310) rotate(-180.000000) translate(-33.835646, -31.719310) translate(16.533972, 16.915724)" fill="#F3F3F3">
                        <rect id="Rectangle" x="0" y="0" width="34.6033478" height="3.84508001"></rect>
                        <rect id="Rectangle" x="0" y="8.58724195" width="34.6033478" height="3.84508001"></rect>
                        <rect id="Rectangle" x="0" y="17.1746664" width="34.6033478" height="3.84508001"></rect>
                        <rect id="Rectangle" x="0" y="25.7620908" width="24.6086215" height="3.84508001"></rect>
                    </g>
                    <polygon id="Path" fill="#F3F3F3" transform="translate(11.049473, 65.415904) rotate(-180.000000) translate(-11.049473, -65.415904) " points="0 62.4355154 22.0989454 71.5397291 22.0989454 62.9915383 9.56954301 59.292079"></polygon>
                    <path d="M25.5903752,93.4306449 L6.0188066,93.4306449 C2.69398302,93.4306449 -4.14916223e-14,90.7364794 -4.14916223e-14,87.4118383 L-4.14916223e-14,67.8402698 L25.5903752,93.4306449 Z" id="Path" fill="#E0E1E2" transform="translate(12.795188, 80.635457) rotate(-180.000000) translate(-12.795188, -80.635457) "></path>
                </g>
            </g>
        </g>
    </g>
</svg>
