<svg xmlns="http://www.w3.org/2000/svg" viewBox="0 0 124.433 88.245"><g transform="translate(-589.5 -564.88)"><path d="M19.346,88.1V75.488H10a10,10,0,0,1-10-10V10A10,10,0,0,1,10,0H114.432a10,10,0,0,1,10,10V65.489a10,10,0,0,1-10,10H39.23a24.8,24.8,0,0,1-6.045,8.235,18.178,18.178,0,0,1-11.845,4.521A11.519,11.519,0,0,1,19.346,88.1Z" transform="translate(589.5 564.88)" fill="#e2e2e2"/><rect width="58" height="8" rx="4" transform="translate(608.545 584.442)" fill="#fff"/><rect width="58" height="8" rx="4" transform="translate(608.545 597.442)" fill="#fff"/><rect width="58" height="8" rx="4" transform="translate(608.545 611.442)" fill="#fff"/><path d="M-13.806-47.34a25.033,25.033,0,0,1,2.682-2.052,19.251,19.251,0,0,1,3.15-1.692A19.606,19.606,0,0,1-4.3-52.218a20.929,20.929,0,0,1,4.284-.414,17.851,17.851,0,0,1,5.706.864A12.825,12.825,0,0,1,10.1-49.3a11,11,0,0,1,2.844,3.87,12.366,12.366,0,0,1,1.008,5.076,12.822,12.822,0,0,1-.792,4.734,13.036,13.036,0,0,1-2,3.474,15.88,15.88,0,0,1-2.61,2.556q-1.4,1.08-2.664,2.034a21.054,21.054,0,0,0-2.178,1.872,3.7,3.7,0,0,0-1.1,2.07L1.782-18.36H-4.3l-.612-5.868a1.6,1.6,0,0,1-.036-.306v-.306a4.794,4.794,0,0,1,.792-2.754,11.235,11.235,0,0,1,1.98-2.2q1.188-1.026,2.556-2a22.929,22.929,0,0,0,2.556-2.106,10.6,10.6,0,0,0,1.98-2.574,6.914,6.914,0,0,0,.792-3.384,5.359,5.359,0,0,0-.486-2.322,5.251,5.251,0,0,0-1.35-1.764A6.053,6.053,0,0,0,1.8-45.072a8.32,8.32,0,0,0-2.61-.4,11.629,11.629,0,0,0-3.474.45A12.809,12.809,0,0,0-6.7-44.01q-.99.558-1.674,1.008a2.3,2.3,0,0,1-1.224.45,1.964,1.964,0,0,1-1.872-1.08ZM-7-4.9A5.536,5.536,0,0,1-6.588-7.02,5.076,5.076,0,0,1-5.436-8.748,5.67,5.67,0,0,1-3.69-9.9a5.425,5.425,0,0,1,2.16-.432A5.336,5.336,0,0,1,.594-9.9,5.448,5.448,0,0,1,2.322-8.748,5.448,5.448,0,0,1,3.474-7.02,5.336,5.336,0,0,1,3.906-4.9a5.3,5.3,0,0,1-.432,2.142,5.5,5.5,0,0,1-1.152,1.71A5.211,5.211,0,0,1,.594.09,5.536,5.536,0,0,1-1.53.5,5.629,5.629,0,0,1-3.69.09,5.418,5.418,0,0,1-5.436-1.044a5.118,5.118,0,0,1-1.152-1.71A5.5,5.5,0,0,1-7-4.9Z" transform="translate(684.545 628.442)" fill="#fff"/></g></svg>
