<?xml version="1.0" encoding="UTF-8"?>
<svg viewBox="0 0 238 174" version="1.1" xmlns="http://www.w3.org/2000/svg">
    <title>Group 20</title>
    <g id="User-View-" stroke="none" stroke-width="1" fill="none" fill-rule="evenodd">
        <g id="Group-20" transform="translate(0.000000, 0.991362)">
            <path d="M0,172.11048 C4.74408994,164.994317 6.22661805,157.878155 4.44758432,150.761992 C1.77903373,140.087749 14.2322698,130.303025 23.1274385,131.192545 C32.0226071,132.082066 51.5919781,142.756309 54.2605287,137.419188 C56.9290793,132.082066 50.7024613,119.628781 52.481495,113.402139 C54.2605287,107.175497 61.3766636,87.6060503 83.6145852,90.2746112 C94.2887876,92.0536518 96.0678213,103.617416 106.742024,100.948855 C117.416226,98.280294 120.974294,63.5890019 137.875114,54.6937988 C154.775934,45.7985957 185.019508,40.4614739 214.373564,62.6994816 C233.942935,77.5248201 241.355576,114.29166 236.611486,173 L0,172.11048 Z" id="Path-2-Copy" fill="#F7F8F9"></path>
            <rect id="Rectangle-Copy-11" fill="#CCCCCC" x="38" y="0" width="87" height="143" rx="3"></rect>
            <rect id="Rectangle" fill="#74C5D7" x="44" y="7" width="75" height="24" rx="3"></rect>
            <path d="M54.327,24.347 C55.407,24.347 56.3385,24.173 57.1215,23.825 C57.9045,23.477 58.56,22.967 59.088,22.295 L59.088,22.295 L58.017,21.152 C57.915,21.044 57.789,20.99 57.639,20.99 C57.555,20.99 57.477,21.008 57.405,21.044 C57.333,21.08 57.264,21.125 57.198,21.179 C57.006,21.353 56.8155,21.497 56.6265,21.611 C56.4375,21.725 56.2365,21.818 56.0235,21.89 C55.8105,21.962 55.5795,22.013 55.3305,22.043 C55.0815,22.073 54.804,22.088 54.498,22.088 C53.982,22.088 53.4975,21.9905 53.0445,21.7955 C52.5915,21.6005 52.1955,21.314 51.8565,20.936 C51.5175,20.558 51.2505,20.0945 51.0555,19.5455 C50.8605,18.9965 50.763,18.371 50.763,17.669 C50.763,16.973 50.853,16.352 51.033,15.806 C51.213,15.26 51.4665,14.7995 51.7935,14.4245 C52.1205,14.0495 52.512,13.763 52.968,13.565 C53.424,13.367 53.925,13.268 54.471,13.268 C54.963,13.268 55.3695,13.319 55.6905,13.421 C56.0115,13.523 56.2785,13.637 56.4915,13.763 C56.7045,13.889 56.8845,14.003 57.0315,14.105 C57.1785,14.207 57.324,14.258 57.468,14.258 C57.612,14.258 57.726,14.228 57.81,14.168 C57.894,14.108 57.963,14.039 58.017,13.961 L58.017,13.961 L58.926,12.719 C58.674,12.467 58.3905,12.2345 58.0755,12.0215 C57.7605,11.8085 57.417,11.627 57.045,11.477 C56.673,11.327 56.2725,11.21 55.8435,11.126 C55.4145,11.042 54.96,11 54.48,11 C53.838,11 53.2335,11.0735 52.6665,11.2205 C52.0995,11.3675 51.576,11.5805 51.096,11.8595 C50.616,12.1385 50.1855,12.476 49.8045,12.872 C49.4235,13.268 49.098,13.712 48.828,14.204 C48.558,14.696 48.3525,15.2345 48.2115,15.8195 C48.0705,16.4045 48,17.021 48,17.669 C48,18.635 48.147,19.526 48.441,20.342 C48.735,21.158 49.155,21.863 49.701,22.457 C50.247,23.051 50.91,23.5145 51.69,23.8475 C52.47,24.1805 53.349,24.347 54.327,24.347 Z" id="Path" fill="#FFFFFF" fill-rule="nonzero"></path>
            <path d="M64.254,14.78 C64.95,14.78 65.583,14.891 66.153,15.113 C66.723,15.335 67.212,15.6515 67.62,16.0625 C68.028,16.4735 68.343,16.973 68.565,17.561 C68.787,18.149 68.898,18.812 68.898,19.55 C68.898,20.288 68.787,20.9525 68.565,21.5435 C68.343,22.1345 68.028,22.637 67.62,23.051 C67.212,23.465 66.723,23.783 66.153,24.005 C65.583,24.227 64.95,24.338 64.254,24.338 C63.552,24.338 62.9145,24.227 62.3415,24.005 C61.7685,23.783 61.278,23.465 60.87,23.051 C60.462,22.637 60.1455,22.1345 59.9205,21.5435 C59.6955,20.9525 59.583,20.288 59.583,19.55 C59.583,18.812 59.6955,18.149 59.9205,17.561 C60.1455,16.973 60.462,16.4735 60.87,16.0625 C61.278,15.6515 61.7685,15.335 62.3415,15.113 C62.9145,14.891 63.552,14.78 64.254,14.78 Z M64.254,16.652 C63.528,16.652 62.994,16.8965 62.652,17.3855 C62.31,17.8745 62.139,18.599 62.139,19.559 C62.139,20.525 62.31,21.2525 62.652,21.7415 C62.994,22.2305 63.528,22.475 64.254,22.475 C64.962,22.475 65.487,22.2305 65.829,21.7415 C66.171,21.2525 66.342,20.525 66.342,19.559 C66.342,18.599 66.171,17.8745 65.829,17.3855 C65.487,16.8965 64.962,16.652 64.254,16.652 Z" id="Combined-Shape" fill="#FFFFFF" fill-rule="nonzero"></path>
            <path d="M72.948,24.203 L72.948,17.534 C73.224,17.264 73.515,17.054 73.821,16.904 C74.127,16.754 74.454,16.679 74.802,16.679 C75.27,16.679 75.624,16.8215 75.864,17.1065 C76.104,17.3915 76.224,17.792 76.224,18.308 L76.224,18.308 L76.224,24.203 L78.699,24.203 L78.699,18.308 C78.699,17.792 78.6315,17.318 78.4965,16.886 C78.3615,16.454 78.1605,16.082 77.8935,15.77 C77.6265,15.458 77.298,15.215 76.908,15.041 C76.518,14.867 76.071,14.78 75.567,14.78 C75.261,14.78 74.9775,14.81 74.7165,14.87 C74.4555,14.93 74.2125,15.014 73.9875,15.122 C73.7625,15.23 73.5495,15.359 73.3485,15.509 C73.1475,15.659 72.954,15.824 72.768,16.004 L72.768,16.004 L72.615,15.356 C72.513,15.068 72.306,14.924 71.994,14.924 L71.994,14.924 L70.464,14.924 L70.464,24.203 L72.948,24.203 Z" id="Path" fill="#FFFFFF" fill-rule="nonzero"></path>
            <path d="M83.28,24.347 C83.898,24.347 84.444,24.269 84.918,24.113 C85.392,23.957 85.788,23.741 86.106,23.465 C86.424,23.189 86.6655,22.8605 86.8305,22.4795 C86.9955,22.0985 87.078,21.683 87.078,21.233 C87.078,20.855 87.015,20.5325 86.889,20.2655 C86.763,19.9985 86.5965,19.7705 86.3895,19.5815 C86.1825,19.3925 85.947,19.235 85.683,19.109 C85.419,18.983 85.1475,18.872 84.8685,18.776 C84.5895,18.68 84.318,18.5915 84.054,18.5105 C83.79,18.4295 83.5545,18.3425 83.3475,18.2495 C83.1405,18.1565 82.974,18.047 82.848,17.921 C82.722,17.795 82.659,17.639 82.659,17.453 C82.659,17.183 82.77,16.9655 82.992,16.8005 C83.214,16.6355 83.526,16.553 83.928,16.553 C84.192,16.553 84.4245,16.583 84.6255,16.643 C84.8265,16.703 85.005,16.7675 85.161,16.8365 C85.317,16.9055 85.458,16.97 85.584,17.03 C85.71,17.09 85.833,17.12 85.953,17.12 C86.073,17.12 86.1675,17.0975 86.2365,17.0525 C86.3055,17.0075 86.373,16.934 86.439,16.832 L86.439,16.832 L87.006,15.95 C86.658,15.602 86.214,15.32 85.674,15.104 C85.134,14.888 84.534,14.78 83.874,14.78 C83.286,14.78 82.7685,14.858 82.3215,15.014 C81.8745,15.17 81.501,15.38 81.201,15.644 C80.901,15.908 80.676,16.2125 80.526,16.5575 C80.376,16.9025 80.301,17.267 80.301,17.651 C80.301,18.071 80.3655,18.428 80.4945,18.722 C80.6235,19.016 80.7915,19.2635 80.9985,19.4645 C81.2055,19.6655 81.4425,19.832 81.7095,19.964 C81.9765,20.096 82.2495,20.21 82.5285,20.306 C82.8075,20.402 83.082,20.489 83.352,20.567 C83.622,20.645 83.8605,20.732 84.0675,20.828 C84.2745,20.924 84.4425,21.0365 84.5715,21.1655 C84.7005,21.2945 84.765,21.461 84.765,21.665 C84.765,21.791 84.7395,21.9125 84.6885,22.0295 C84.6375,22.1465 84.558,22.2515 84.45,22.3445 C84.342,22.4375 84.201,22.511 84.027,22.565 C83.853,22.619 83.646,22.646 83.406,22.646 C83.088,22.646 82.8225,22.6085 82.6095,22.5335 C82.3965,22.4585 82.212,22.3775 82.056,22.2905 C81.9,22.2035 81.759,22.1225 81.633,22.0475 C81.507,21.9725 81.369,21.935 81.219,21.935 C81.063,21.935 80.9355,21.965 80.8365,22.025 C80.7375,22.085 80.655,22.169 80.589,22.277 L80.589,22.277 L80.013,23.204 C80.193,23.366 80.406,23.516 80.652,23.654 C80.898,23.792 81.162,23.9135 81.444,24.0185 C81.726,24.1235 82.023,24.2045 82.335,24.2615 C82.647,24.3185 82.962,24.347 83.28,24.347 Z" id="Path" fill="#FFFFFF" fill-rule="nonzero"></path>
            <path d="M92.658,14.78 C93.252,14.78 93.7995,14.8745 94.3005,15.0635 C94.8015,15.2525 95.2335,15.527 95.5965,15.887 C95.9595,16.247 96.2415,16.6895 96.4425,17.2145 C96.6435,17.7395 96.744,18.338 96.744,19.01 C96.744,19.196 96.735,19.349 96.717,19.469 C96.699,19.589 96.669,19.685 96.627,19.757 C96.585,19.829 96.528,19.8785 96.456,19.9055 C96.384,19.9325 96.291,19.946 96.177,19.946 L96.177,19.946 L90.615,19.946 L90.643485,20.19998 C90.744195,20.94086 90.9822,21.4922 91.3575,21.854 C91.7745,22.256 92.319,22.457 92.991,22.457 C93.333,22.457 93.6285,22.4165 93.8775,22.3355 C94.1265,22.2545 94.3455,22.1645 94.5345,22.0655 C94.7235,21.9665 94.8945,21.8765 95.0475,21.7955 C95.2005,21.7145 95.352,21.674 95.502,21.674 C95.694,21.674 95.844,21.746 95.952,21.89 L95.952,21.89 L96.672,22.79 L96.51036,22.9673 C96.29052,23.1953 96.0534,23.3897 95.799,23.5505 C95.481,23.7515 95.151,23.9105 94.809,24.0275 C94.467,24.1445 94.122,24.2255 93.774,24.2705 C93.426,24.3155 93.09,24.338 92.766,24.338 C92.118,24.338 91.5135,24.2315 90.9525,24.0185 C90.3915,23.8055 89.9025,23.4905 89.4855,23.0735 C89.0685,22.6565 88.74,22.139 88.5,21.521 C88.26,20.903 88.14,20.186 88.14,19.37 C88.14,18.74 88.2435,18.146 88.4505,17.588 C88.6575,17.03 88.956,16.544 89.346,16.13 C89.736,15.716 90.21,15.3875 90.768,15.1445 C91.326,14.9015 91.956,14.78 92.658,14.78 Z M92.703,16.526 C92.109,16.526 91.644,16.694 91.308,17.03 C90.972,17.366 90.753,17.846 90.651,18.47 L90.651,18.47 L94.521,18.47 C94.521,18.212 94.4865,17.966 94.4175,17.732 C94.3485,17.498 94.239,17.291 94.089,17.111 C93.939,16.931 93.75,16.7885 93.522,16.6835 C93.294,16.5785 93.021,16.526 92.703,16.526 Z" id="Combined-Shape" fill="#FFFFFF" fill-rule="nonzero"></path>
            <path d="M100.767,24.203 L100.767,17.534 C101.043,17.264 101.334,17.054 101.64,16.904 C101.946,16.754 102.273,16.679 102.621,16.679 C103.089,16.679 103.443,16.8215 103.683,17.1065 C103.923,17.3915 104.043,17.792 104.043,18.308 L104.043,18.308 L104.043,24.203 L106.518,24.203 L106.518,18.308 C106.518,17.792 106.4505,17.318 106.3155,16.886 C106.1805,16.454 105.9795,16.082 105.7125,15.77 C105.4455,15.458 105.117,15.215 104.727,15.041 C104.337,14.867 103.89,14.78 103.386,14.78 C103.08,14.78 102.7965,14.81 102.5355,14.87 C102.2745,14.93 102.0315,15.014 101.8065,15.122 C101.5815,15.23 101.3685,15.359 101.1675,15.509 C100.9665,15.659 100.773,15.824 100.587,16.004 L100.587,16.004 L100.434,15.356 C100.332,15.068 100.125,14.924 99.813,14.924 L99.813,14.924 L98.283,14.924 L98.283,24.203 L100.767,24.203 Z" id="Path" fill="#FFFFFF" fill-rule="nonzero"></path>
            <path d="M111.567,24.347 C112.029,24.347 112.476,24.278 112.908,24.14 C113.34,24.002 113.727,23.798 114.069,23.528 L114.069,23.528 L113.322,22.34 C113.274,22.262 113.226,22.2065 113.178,22.1735 C113.13,22.1405 113.07,22.124 112.998,22.124 C112.944,22.124 112.8915,22.1375 112.8405,22.1645 C112.7895,22.1915 112.734,22.2215 112.674,22.2545 C112.614,22.2875 112.542,22.3175 112.458,22.3445 C112.374,22.3715 112.272,22.385 112.152,22.385 C111.924,22.385 111.7485,22.31 111.6255,22.16 C111.5025,22.01 111.441,21.806 111.441,21.548 L111.441,21.548 L111.441,16.706 L113.835,16.706 L113.835,14.978 L111.441,14.978 L111.441,12.152 L110.145,12.152 C109.845,12.152 109.662,12.287 109.596,12.557 L109.596,12.557 L109.092,14.96 L107.607,15.23 L107.607,16.202 C107.607,16.37 107.6535,16.496 107.7465,16.58 C107.8395,16.664 107.952,16.706 108.084,16.706 L108.084,16.706 L108.957,16.706 L108.957,21.71 C108.957,22.118 109.014,22.484 109.128,22.808 C109.242,23.132 109.41,23.408 109.632,23.636 C109.854,23.864 110.127,24.0395 110.451,24.1625 C110.775,24.2855 111.147,24.347 111.567,24.347 Z" id="Path" fill="#FFFFFF" fill-rule="nonzero"></path>
            <rect id="Rectangle" fill="#FFFFFF" x="44.0896677" y="38.6310919" width="75.3402062" height="5" rx="2.5"></rect>
            <rect id="Rectangle-Copy-5" fill="#FFFFFF" x="44.0896677" y="86.6310919" width="75.3402062" height="5" rx="2.5"></rect>
            <rect id="Rectangle-Copy-6" fill="#FFFFFF" x="71.4298739" y="114.631092" width="48" height="5" rx="2.5"></rect>
            <rect id="Rectangle-Copy-2" fill="#FFFFFF" x="44.0896677" y="62.6310919" width="75.3402062" height="5" rx="2.5"></rect>
            <rect id="Rectangle-Copy" fill="#FFFFFF" x="44.0896677" y="50.6310919" width="75" height="5" rx="2.5"></rect>
            <rect id="Rectangle-Copy-7" fill="#FFFFFF" x="44.0896677" y="98.6310919" width="75" height="5" rx="2.5"></rect>
            <rect id="Rectangle-Copy-8" fill="#FFFFFF" x="71.4298739" y="126.631092" width="47.7832512" height="5" rx="2.5"></rect>
            <rect id="Rectangle-Copy-3" fill="#FFFFFF" x="44.0896677" y="74.6310919" width="75" height="5" rx="2.5"></rect>
            <path d="M160.497189,165.00566 L167.153756,162.319365 L172.423539,162.319365 C173.532967,163.214797 173.25561,164.557944 171.591468,166.348807 C170.112231,166.572665 166.414138,166.572665 160.497189,166.348807 L160.497189,165.00566 Z" id="Path-8-Copy" fill="#292949"></path>
            <path d="M185.11906,162.391694 L191.775627,159.705399 L197.04541,159.705399 C198.154838,160.600831 197.877481,161.943978 196.213339,163.734842 C194.734102,163.9587 191.036009,163.9587 185.11906,163.734842 L185.11906,162.391694 Z" id="Path-8-Copy-3" fill="#292949" transform="translate(191.415063, 161.804067) rotate(-13.000000) translate(-191.415063, -161.804067) "></path>
            <path d="M160.839474,107.632961 C165.167977,136.695763 167.332228,154.318952 167.332228,160.502527 C168.568943,161.120884 170.114837,161.120884 171.969909,160.502527 L171.969909,118.763396 C184.955416,141.024266 191.44817,154.318952 191.44817,158.647454 C193.303242,158.029097 195.158315,157.410739 197.013387,156.792382 L179.390199,105.777889 L160.839474,107.632961 Z" id="Path-19" fill="#415C6B"></path>
            <path d="M143.682665,50.1768723 C142.1556,51.2596632 144.458946,63.3622947 150.958239,64.1649565 C152.305854,63.4868995 152.948404,64.9737331 152.885889,68.6254571 C156.254926,66.9303147 158.291976,65.0002983 158.997041,62.8354078 C158.354491,61.3485742 157.872578,60.2334491 157.551303,59.4900323 C149.323587,52.5593983 144.700708,49.4550116 143.682665,50.1768723 Z" id="Path-17" fill="#EACDB0"></path>
            <path d="M141.705583,51.3085102 C139.943308,53.4459004 145.710347,54.1788815 147.092689,57.0685959 C148.01425,58.9950723 149.301751,58.0189386 150.955193,54.140195 C153.306515,60.8893099 155.976358,62.8028907 158.964721,59.8809376 C163.447265,55.4980078 163.670499,45.1401571 154.834697,42.9952549 C145.998895,40.8503528 143.467859,49.1711199 141.705583,51.3085102 Z" id="Path-18" fill="#292949"></path>
            <path d="M177.535126,100.212672 C179.390199,89.7005943 178.462663,81.9711257 174.752518,77.0242658 C173.824982,79.8068745 176.60759,96.5025267 179.390199,105.777889 C181.245271,111.961464 175.061697,112.579821 160.839474,107.632961 C155.892614,92.7923818 152.800827,84.7537344 151.564112,83.5170195 C149.70904,81.661947 141.361213,102.067744 134.86846,102.067744 C130.539957,102.067744 129.9216,99.9034929 133.013387,95.5749905 C140.433677,81.3527682 144.76218,73.3141209 145.998895,71.4590484 C145.998895,67.7489035 161.767011,58.4735412 172.897445,61.2561499 C176.60759,64.0387586 193.303242,81.661947 179.390199,101.140208 C178.771841,101.140208 178.153484,100.831029 177.535126,100.212672 Z" id="Path-5" fill="#F4D06C"></path>
            <g id="pencil" transform="translate(145.908278, 103.148124) rotate(60.000000) translate(-145.908278, -103.148124) translate(99.408278, 56.148124)" fill-rule="nonzero">
                <polygon id="Path" fill="#415C6B" points="7.7121583 91.2664329 0.29186845 93.4219597 2.44726501 86.0016698"></polygon>
                <polygon id="Path" fill="#339BB2" points="21.1249673 87.1689371 7.97237369 90.9857689 2.57424265 85.5876379 6.39107447 72.4350443"></polygon>
                <polygon id="Path" fill="#339BB2" transform="translate(43.382082, 50.154425) rotate(-45.000000) translate(-43.382082, -50.154425) " points="1.2032348 39.7232571 85.5895371 39.6081718 85.5609283 60.585592 1.17462597 60.7006773"></polygon>
                <polygon id="Path" fill="#415C6B" transform="translate(47.085555, 53.869096) rotate(-45.000000) translate(-47.085555, -53.869096) " points="4.89955576 48.6822836 89.285858 48.5671983 89.2715536 59.0559084 4.88525135 59.1709937"></polygon>
                <polygon id="Path" fill="#EEEFEE" transform="translate(75.311820, 18.144309) rotate(-45.000000) translate(-75.311820, -18.144309) " points="72.0310693 7.66009272 78.6211799 7.65110519 78.5925711 28.6285253 72.0024605 28.6375128"></polygon>
                <path d="M90.8833131,16.7319964 L84.5677766,23.0475262 L69.7390483,8.21881378 L76.0545849,1.90328399 C77.5434229,0.414447549 79.9573402,0.414447549 81.4459889,1.90328399 L90.8831237,11.3404088 C92.3721511,12.8294346 92.3721511,15.24316 90.8833131,16.7319964 L90.8833131,16.7319964 Z" id="Path" fill="#415C6B"></path>
            </g>
            <path d="M171.042373,101.140208 C171.042373,99.9034929 171.969909,99.2851354 173.824982,99.2851354 C175.680054,99.2851354 176.916769,99.2851354 177.535126,99.2851354 C177.535126,99.2851354 178.462663,99.5943141 180.317735,100.212672 C179.699378,100.831029 179.08102,101.449387 178.462663,102.067744 C177.535126,102.99528 173.824982,100.212672 172.897445,102.067744 C171.66073,102.067744 171.042373,101.758565 171.042373,101.140208 Z" id="Path-20" fill="#EACDB0"></path>
            <circle id="Oval" fill="#FFFFFF" cx="55" cy="123" r="11"></circle>
            <path d="M59.4058355,118.375781 C59.6864873,117.974083 60.2345873,117.879542 60.6300511,118.164618 C61.0022524,118.432925 61.1065924,118.941875 60.8835986,119.335721 L60.8379368,119.408132 L54.3989522,128.624271 C54.0936146,129.061302 53.4867738,129.123722 53.101541,128.776626 L53.0394772,128.71498 L49.2346227,124.552852 C48.9046515,124.191897 48.925228,123.627574 49.2805815,123.292401 C49.6137255,122.978177 50.1228368,122.976908 50.4570622,123.275394 L50.5214716,123.339084 L53.5909997,126.697134 L59.4058355,118.375781 Z" id="Path" fill="#339BB2" fill-rule="nonzero"></path>
        </g>
    </g>
</svg>
