<?xml version="1.0" encoding="UTF-8"?>
<svg viewBox="0 0 49 77" version="1.1" xmlns="http://www.w3.org/2000/svg" xmlns:xlink="http://www.w3.org/1999/xlink">
    <g stroke="none" stroke-width="1" fill="none" fill-rule="evenodd">
        <g transform="translate(-914.000000, -237.000000)" fill="#D8D8D8">
            <path d="M938.5,237 C942.474044,237 945.726178,240.051237 945.983583,243.910031 L958,243.910256 C960.761424,243.910256 963,246.148833 963,248.910256 L963,309 C963,311.761424 960.761424,314 958,314 L919,314 C916.238576,314 914,311.761424 914,309 L914,248.910256 C914,246.148833 916.238576,243.910256 919,243.910256 L931.016417,243.910031 C931.273822,240.051237 934.525956,237 938.5,237 Z M953,292.282051 L925,292.282051 C923.895431,292.282051 923,293.177482 923,294.282051 L923,294.282051 L923,297.192308 C923,298.296877 923.895431,299.192308 925,299.192308 L925,299.192308 L953,299.192308 C954.104569,299.192308 955,298.296877 955,297.192308 L955,297.192308 L955,294.282051 C955,293.177482 954.104569,292.282051 953,292.282051 L953,292.282051 Z M941,280.435897 L925,280.435897 C923.895431,280.435897 923,281.331328 923,282.435897 L923,282.435897 L923,285.346154 C923,286.450723 923.895431,287.346154 925,287.346154 L925,287.346154 L941,287.346154 C942.104569,287.346154 943,286.450723 943,285.346154 L943,285.346154 L943,282.435897 C943,281.331328 942.104569,280.435897 941,280.435897 L941,280.435897 Z M941,268.589744 L925,268.589744 C923.895431,268.589744 923,269.485174 923,270.589744 L923,270.589744 L923,273.5 C923,274.604569 923.895431,275.5 925,275.5 L925,275.5 L941,275.5 C942.104569,275.5 943,274.604569 943,273.5 L943,273.5 L943,270.589744 C943,269.485174 942.104569,268.589744 941,268.589744 L941,268.589744 Z M953,256.74359 L925,256.74359 C923.895431,256.74359 923,257.63902 923,258.74359 L923,258.74359 L923,261.653846 C923,262.758416 923.895431,263.653846 925,263.653846 L925,263.653846 L953,263.653846 C954.104569,263.653846 955,262.758416 955,261.653846 L955,261.653846 L955,258.74359 C955,257.63902 954.104569,256.74359 953,256.74359 L953,256.74359 Z M938.5,240.948718 C936.567003,240.948718 935,242.495632 935,244.403846 C935,246.312061 936.567003,247.858974 938.5,247.858974 C940.432997,247.858974 942,246.312061 942,244.403846 C942,242.495632 940.432997,240.948718 938.5,240.948718 Z" id="empty-data"></path>
        </g>
    </g>
</svg>