<?xml version="1.0" encoding="UTF-8"?>
<svg viewBox="0 0 81 80" version="1.1" xmlns="http://www.w3.org/2000/svg" xmlns:xlink="http://www.w3.org/1999/xlink">
    <title>empty share</title>
    <g id="Page-1" fill="none" fill-rule="evenodd">
        <path d="M55.7912986,3.79781147 C60.5785888,-0.578581329 67.6901395,-1.24294555 73.2052063,2.17099649 C78.7202731,5.58493852 81.2969214,12.2465012 79.5145919,18.4830277 C77.987608,23.8260778 73.5794757,27.7433303 68.268983,28.7461151 C67.9437273,28.9916048 67.5385251,29.1367903 67.099459,29.1363911 C61.4427671,29.131249 56.2198756,26.2866922 53.1323274,21.6560019 L53.0476962,21.525891 L27.401,34.348 L27.4025709,35.1910812 C28.4276799,38.4476196 28.4276449,41.9442052 27.4024657,45.2007271 L27.401,46.042 L52.984,58.834 L53.128,58.745 L53.1323274,58.7391882 C55.8362102,54.6839176 60.1777234,51.9984626 65.0140802,51.3902259 L65.5264511,51.0745914 C71.9925653,51.0695257 77.6763737,55.3571894 79.4473762,61.5760486 C81.2183787,67.7949077 78.6462006,74.4337056 73.1475336,77.8359578 C67.6488666,81.23821 60.559952,80.5771286 55.7851875,76.216821 C51.8982601,72.6672848 50.3138245,67.3685049 51.4182279,62.4003277 L25.8531687,49.6170471 C22.4329778,53.9907649 16.7148325,56.093324 11.1434377,54.7796202 C4.61366864,53.239937 0,47.4118681 0,40.70303 C0,33.9941919 4.61366864,28.1661231 11.1434377,26.6264399 C16.4018806,25.3865284 21.7910507,27.1898677 25.2555018,31.073683 L51.4926108,17.95786 C50.2467983,12.8905873 51.8162686,7.431661 55.7912986,3.79781147 Z" id="empty-share" fill="#E3E3E3"></path>
    </g>
</svg>
