<svg xmlns="http://www.w3.org/2000/svg" viewBox="0 0 124.434 88.245"><g transform="translate(-589.5 -564.88)"><path d="M19.346,88.1V75.488H10a10,10,0,0,1-10-10V10A10,10,0,0,1,10,0H114.432a10,10,0,0,1,10,10V65.489a10,10,0,0,1-10,10H39.23a24.8,24.8,0,0,1-6.045,8.235,18.178,18.178,0,0,1-11.845,4.521A11.519,11.519,0,0,1,19.346,88.1Z" transform="translate(589.5 564.88)" fill="#e2e2e2"/><rect width="74" height="8" rx="4" transform="translate(613.545 584.442)" fill="#fff"/><rect width="74" height="8" rx="4" transform="translate(613.545 597.442)" fill="#fff"/><rect width="74" height="8" rx="4" transform="translate(613.545 611.442)" fill="#fff"/></g></svg>
