<?xml version="1.0" encoding="UTF-8"?>
<svg viewBox="0 0 238 158" version="1.1" xmlns="http://www.w3.org/2000/svg" xmlns:xlink="http://www.w3.org/1999/xlink">
    <title>Group 24</title>
    <g id="Kanban" stroke="none" stroke-width="1" fill="none" fill-rule="evenodd">
        <g id="Task-Board-List-Empty" transform="translate(-424.000000, -334.000000)">
            <g id="Group-24" transform="translate(424.000000, 334.000000)">
                <path d="M0,157.11048 C4.74408994,149.994317 6.22661805,142.878155 4.44758432,135.761992 C1.77903373,125.087749 14.2322698,115.303025 23.1274385,116.192545 C32.0226071,117.082066 51.5919781,127.756309 54.2605287,122.419188 C56.9290793,117.082066 50.7024613,104.628781 52.481495,98.4021393 C54.2605287,92.1754971 61.3766636,72.6060503 83.6145852,75.2746112 C94.2887876,77.0536518 96.0678213,88.6174159 106.742024,85.9488549 C117.416226,83.280294 120.974294,48.5890019 137.875114,39.6937988 C154.775934,30.7985957 185.019508,25.4614739 214.373564,47.6994816 C233.942935,62.5248201 241.355576,99.2916596 236.611486,158 L0,157.11048 Z" id="Path-2-Copy-4" fill="#F7F8F9"></path>
                <rect id="Rectangle-Copy-17" fill="#CCCCCC" x="21" y="0" width="180" height="111" rx="3"></rect>
                <rect id="Rectangle-Copy-12" fill="#FFFFFF" x="29" y="9" width="57" height="93" rx="3"></rect>
                <rect id="Rectangle-Copy-26" fill="#FFFFFF" x="156" y="9" width="37" height="93" rx="3"></rect>
                <rect id="Rectangle-Copy-24" fill="#FFFFFF" x="93" y="9" width="57" height="93" rx="3"></rect>
                <rect id="Rectangle-Copy-12" fill="#74C5D7" x="32.5" y="13" width="50" height="19" rx="3"></rect>
                <rect id="Rectangle-Copy-27" fill="#74C5D7" x="159.5" y="13" width="29" height="19" rx="3"></rect>
                <rect id="Rectangle-Copy-19" fill="#74C5D7" x="32.5" y="35" width="50" height="19" rx="3"></rect>
                <rect id="Rectangle-Copy-28" fill="#74C5D7" x="159.5" y="35" width="29" height="19" rx="3"></rect>
                <rect id="Rectangle-Copy-25" fill="#74C5D7" x="96.5" y="15" width="50" height="39" rx="3"></rect>
                <g id="user-(1)-copy-4" transform="translate(107.000000, 20.000000)" fill-rule="nonzero">
                    <path d="M14.5,0 C6.49074803,0 0,6.49074803 0,14.5 C0,18.8214567 1.88956693,22.7033465 4.89232283,25.3635827 C7.45551181,27.6242126 10.8179134,29 14.5,29 C18.1877953,29 21.5501969,27.6242126 24.1076772,25.357874 C27.1104331,22.7033465 29,18.8214567 29,14.5 C29,6.49074803 22.509252,0 14.5,0 Z" id="Path" fill="#FFFFFF"></path>
                    <path d="M22.8179388,24.277398 C22.045738,23.7346345 20.6438966,22.8337589 19.1173151,22.1678944 C17.5907336,21.5076254 16.6937927,19.9576719 16.9373329,18.3965274 C16.9373329,18.3741454 16.9432729,18.3517634 16.9492129,18.3237859 C16.9492129,18.3237859 20.4241164,16.1079679 19.9429759,13.9481049 C19.9429759,13.9481049 20.049896,13.9537004 20.2102762,13.9425094 C21.7427977,13.8082174 21.8378378,11.6595454 20.3231363,11.4301298 C20.3112563,11.4301298 20.2934363,11.4245343 20.2815563,11.4245343 L20.2340362,11.1895233 C20.6973567,9.66195183 21.8259578,5.03447329 18.4104544,5.4821133 C18.4104544,5.4821133 15.957232,1.66038676 10.7716068,3.50130628 C5.58004158,5.3366303 6.93436293,9.71790683 6.93436293,9.71790683 L7.57588358,11.4637028 C6.17998218,11.7882419 6.31066231,13.8194084 7.7956638,13.9481049 C7.95604396,13.9592959 8.06890407,13.9537004 8.06890407,13.9537004 C7.58182358,16.1135634 11.0567271,18.3293814 11.0567271,18.3293814 C11.0626671,18.3573589 11.0626671,18.3797409 11.0686071,18.4021229 C11.3062073,19.9632674 10.4092664,21.5132209 8.88862489,22.1734899 C7.35610336,22.8393544 5.96020196,23.7458255 5.18800119,24.2829935 C4.72468072,24.601937 4.31482031,24.9880265 4,25.441262 C6.67300267,27.6514845 10.1716662,29 14.00297,29 C17.8402138,29 21.3388773,27.6514845 24,25.430071 C23.6911197,24.982431 23.2812593,24.5963415 22.8179388,24.277398 Z" id="Path" fill="#415C6B"></path>
                </g>
                <rect id="Rectangle-Copy-21" fill="#74C5D7" x="32.5" y="58" width="50" height="35" rx="3"></rect>
                <path d="M192.830827,152.462609 L187.857143,86.4626092 L211.730827,87.4626092 L209.741353,120.462609 C213.720301,130.462609 215.378195,140.795943 214.715038,151.462609 C213.388722,151.462609 211.067669,151.795943 207.75188,152.462609 L203.772932,131.462609 L199.793985,152.462609 L192.830827,152.462609 Z" id="Path-12" fill="#415C6B"></path>
                <path d="M206.832753,49.4626092 C212.101045,53.4626092 214.405923,57.7959426 213.747387,62.4626092 C213.08885,67.1292759 211.442509,69.4626092 208.808362,69.4626092 L204.857143,52.4626092 L206.832753,49.4626092 Z" id="Path-14" fill="#F0C03C"></path>
                <path d="M192.493506,31.4626092 C190.038961,37.737119 190.345779,41.8155504 193.413961,43.6979033 C194.641234,43.6979033 194.641234,44.9528053 193.413961,47.4626092 C196.482143,47.4626092 198.62987,46.8351582 199.857143,45.5802563 C199.857143,44.3253543 199.857143,43.3841778 199.857143,42.7567269 L192.493506,31.4626092 Z" id="Path-17" fill="#EACDB0"></path>
                <path d="M183,81.5 C185.002077,73.5 186.33541,67.5 187,63.5 C187.66459,59.5 189.968996,53.8208697 193.913218,46.4626092 L201.888296,44.4626092 C207.205014,47.7959426 209.531078,53.4626092 208.866489,61.4626092 C208.866489,64.1292759 209.863373,73.4626092 211.857143,89.4626092 L186.935024,89.4626092 L183,81.5 Z" id="Path-13" fill="#F4D06C"></path>
                <path d="M192.5,80.5 C188.5,82.8801101 186.5,83.2134434 186.5,81.5 C186.5,78.9298349 191.610778,59.3744273 195.802395,58.0749688 C198.596806,57.2086631 197.496008,64.6836735 192.5,80.5 Z" id="Path-15" fill="#F0C03C"></path>
                <path d="M187.857143,155.022609 L194.200755,152.462609 L199.222782,152.462609 C200.28005,153.315943 200.015733,154.595943 198.42983,156.302609 C197.020138,156.515943 193.495909,156.515943 187.857143,156.302609 L187.857143,155.022609 Z" id="Path-8-Copy" fill="#292949"></path>
                <path d="M203.857143,155.022609 L210.200755,152.462609 L215.222782,152.462609 C216.28005,153.315943 216.015733,154.595943 214.42983,156.302609 C213.020138,156.515943 209.495909,156.515943 203.857143,156.302609 L203.857143,155.022609 Z" id="Path-8-Copy-2" fill="#292949"></path>
                <path d="M191.419641,32.2771767 C189.451724,33.2459657 193.279398,35.6777625 193.279398,38.2282019 C193.279398,39.9284948 194.519235,39.6451126 196.99891,37.3780554 C196.378992,43.0456985 197.618829,45.3127557 200.718423,44.1792271 C205.367814,42.4789342 205.79608,33.5054567 203.508058,30.5768838 C201.220035,27.6483109 193.387559,31.3083877 191.419641,32.2771767 Z" id="Path-18" fill="#292949"></path>
                <g id="Group-21" transform="translate(171.500000, 106.000000) rotate(-50.000000) translate(-171.500000, -106.000000) translate(146.500000, 93.000000)">
                    <rect id="Rectangle-Copy-29" fill="#74C5D7" x="0" y="0" width="50" height="26" rx="3"></rect>
                    <rect id="Rectangle-Copy-20" fill="#FFFFFF" x="5.5" y="15" width="40" height="4" rx="2"></rect>
                    <rect id="Rectangle-Copy-22" fill="#FFFFFF" x="5.5" y="7" width="33" height="4" rx="2"></rect>
                </g>
                <path d="M185.597235,82.2969127 C184.878441,81.3466809 183.573056,81.2081506 181.68108,81.8813216 C180.476335,83.7051758 180.592756,84.8546608 182.030344,85.3297767 C184.186725,86.0424505 186.675426,83.7222603 185.597235,82.2969127 Z" id="Path-16" fill="#EACDB0"></path>
            </g>
        </g>
    </g>
</svg>
