<?xml version="1.0" encoding="UTF-8"?>
<svg viewBox="0 0 238 158" version="1.1" xmlns="http://www.w3.org/2000/svg" xmlns:xlink="http://www.w3.org/1999/xlink">
    <title>Empty Member</title>
    <g id="Member-page" stroke="none" stroke-width="1" fill="none" fill-rule="evenodd">
        <g id="Group-32">
            <path d="M0,157.11048 C4.74408994,149.994317 6.22661805,142.878155 4.44758432,135.761992 C1.77903373,125.087749 14.2322698,115.303025 23.1274385,116.192545 C32.0226071,117.082066 51.5919781,127.756309 54.2605287,122.419188 C56.9290793,117.082066 50.7024613,104.628781 52.481495,98.4021393 C54.2605287,92.1754971 61.3766636,72.6060503 83.6145852,75.2746112 C94.2887876,77.0536518 96.0678213,88.6174159 106.742024,85.9488549 C117.416226,83.280294 120.974294,48.5890019 137.875114,39.6937988 C154.775934,30.7985957 185.019508,25.4614739 214.373564,47.6994816 C233.942935,62.5248201 241.355576,99.2916596 236.611486,158 L0,157.11048 Z" id="Path-2-Copy-5" fill="#F7F8F9"></path>
            <rect id="Rectangle-Copy-30" fill="#CCCCCC" x="0" y="0" width="180" height="111" rx="3"></rect>
            <g id="Group-6-Copy" transform="translate(166.000000, 26.000000)">
                <path d="M13.8308271,123.462609 L8.85714286,57.4626092 L32.7308271,58.4626092 L30.7413534,91.4626092 C34.7203008,101.462609 36.3781955,111.795943 35.7150376,122.462609 C34.3887218,122.462609 32.0676692,122.795943 28.7518797,123.462609 L24.7729323,102.462609 L20.793985,123.462609 L13.8308271,123.462609 Z" id="Path-12" fill="#415C6B"></path>
                <path d="M27.8327526,20.4626092 C33.1010453,24.4626092 35.4059233,28.7959426 34.7473868,33.4626092 C34.0888502,38.1292759 32.4425087,40.4626092 29.8083624,40.4626092 L25.8571429,23.4626092 L27.8327526,20.4626092 Z" id="Path-14" fill="#F0C03C"></path>
                <path d="M13.4935065,2.46260922 C11.038961,8.73711902 11.3457792,12.8155504 14.413961,14.6979033 C15.6412338,14.6979033 15.6412338,15.9528053 14.413961,18.4626092 C17.4821429,18.4626092 19.6298701,17.8351582 20.8571429,16.5802563 C20.8571429,15.3253543 20.8571429,14.3841778 20.8571429,13.7567269 L13.4935065,2.46260922 Z" id="Path-17" fill="#EACDB0"></path>
                <path d="M8.93190921,47.4626092 C2.9506008,42.7959426 0.292241507,38.4626092 0.956831331,34.4626092 C1.62142115,30.4626092 6.27354992,24.7959426 14.9132176,17.4626092 L22.8882955,15.4626092 C28.2050141,18.7959426 30.5310785,24.4626092 29.8664887,32.4626092 C29.8664887,35.1292759 30.8633734,44.4626092 32.8571429,60.4626092 L7.93502448,60.4626092 L8.93190921,47.4626092 Z" id="Path-13" fill="#F4D06C"></path>
                <path d="M15.0745342,46.4626092 C11.5962733,43.1661528 9.85714286,40.5289876 9.85714286,38.5511137 C9.85714286,35.5843029 15.0745342,31.6285552 17.1614907,32.6174921 C18.552795,33.2767834 17.8571429,37.8918224 15.0745342,46.4626092 Z" id="Path-15" fill="#F0C03C"></path>
                <path d="M14.597235,46.2969127 C13.8784411,45.3466809 12.5730561,45.2081506 10.68108,45.8813216 C9.47633491,47.7051758 9.5927562,48.8546608 11.0303439,49.3297767 C13.1867254,50.0424505 15.6754257,47.7222603 14.597235,46.2969127 Z" id="Path-16" fill="#EACDB0"></path>
                <path d="M8.85714286,126.022609 L15.2007552,123.462609 L20.2227816,123.462609 C21.2800503,124.315943 21.0157332,125.595943 19.4298301,127.302609 C18.0201385,127.515943 14.4959094,127.515943 8.85714286,127.302609 L8.85714286,126.022609 Z" id="Path-8-Copy" fill="#292949"></path>
                <path d="M24.8571429,126.022609 L31.2007552,123.462609 L36.2227816,123.462609 C37.2800503,124.315943 37.0157332,125.595943 35.4298301,127.302609 C34.0201385,127.515943 30.4959094,127.515943 24.8571429,127.302609 L24.8571429,126.022609 Z" id="Path-8-Copy-2" fill="#292949"></path>
                <path d="M12.4196414,3.2771767 C10.4517242,4.24596572 14.2793977,6.67776252 14.2793977,9.22820188 C14.2793977,10.9284948 15.5192353,10.6451126 17.9989104,8.37805543 C17.3789916,14.0456985 18.6188292,16.3127557 21.7184231,15.1792271 C26.3678139,13.4789342 26.7960802,4.5054567 24.5080576,1.57688379 C22.220035,-1.35168912 14.3875586,2.30838768 12.4196414,3.2771767 Z" id="Path-18" fill="#292949"></path>
            </g>
            <g id="Group-24" transform="translate(49.000000, 34.000000)" fill="#FFFFFF" fill-rule="nonzero">
                <path d="M3.125,44 L71.875,44 C73.6008333,44 75,42.6008333 75,40.875 L75,31.5 C75,24.6075 69.3925,19 62.5,19 C55.6075,19 50,24.6075 50,31.5 C50,24.6075 44.3925,19 37.5,19 C30.6075,19 25,24.6075 25,31.5 C25,24.6075 19.3925,19 12.5,19 C5.6075,19 0,24.6075 0,31.5 L0,40.875 C0,42.6008333 1.39895833,44 3.125,44 Z" id="Path"></path>
                <circle id="Oval" cx="12.5" cy="9.5" r="9.5"></circle>
                <circle id="Oval" cx="37.5" cy="9.5" r="9.5"></circle>
                <circle id="Oval" cx="62.5" cy="9.5" r="9.5"></circle>
            </g>
        </g>
    </g>
</svg>
