<?xml version="1.0" encoding="UTF-8"?>
<svg viewBox="0 0 238 170" version="1.1" xmlns="http://www.w3.org/2000/svg" xmlns:xlink="http://www.w3.org/1999/xlink">
    <title>Group 41</title>
    <g id="Newsletter-Mockup" stroke="none" stroke-width="1" fill="none" fill-rule="evenodd">
        <g id="Group-41">
            <path d="M0,168.952082 C4.74408994,161.835919 6.22661805,154.719757 4.44758432,147.603594 C1.77903373,136.929351 14.2322698,127.144627 23.1274385,128.034148 C32.0226071,128.923668 51.5919781,139.597912 54.2605287,134.26079 C56.9290793,128.923668 50.7024613,116.470384 52.481495,110.243741 C54.2605287,104.017099 61.3766636,84.4476525 83.6145852,87.1162134 C94.2887876,88.895254 96.0678213,100.459018 106.742024,97.7904571 C117.416226,95.1218962 120.974294,60.4306041 137.875114,51.5354011 C154.775934,42.640198 185.019508,37.3030761 214.373564,59.5410838 C233.942935,74.3664223 241.355576,111.133262 236.611486,169.841602 L0,168.952082 Z" id="Path-2-Copy" fill="#F7F8F9"></path>
            <g id="Group-14" transform="translate(31.000000, 39.841602)">
                <path d="M22,19.2891894 L22,14.2254029 C22.6407767,8.394376 26.0048544,6.09265485 32.092233,7.32023946 C34.0145631,12.384026 32.5728155,15.6064356 30.6504854,16.527124 C29.368932,17.1409163 28.7281553,17.7547086 28.7281553,18.368501 C30.4368165,21.2036473 30.4368165,22.7381281 28.7281553,22.9719432 C27.0194942,23.2057584 24.7767757,21.9781738 22,19.2891894 Z" id="Path-16" fill="#EACDB0"></path>
                <path d="M35,26.925636 C43.2199313,38.8003914 49.0687285,44.0958904 52.5463918,42.8121331 C53.4948454,42.3307241 54.443299,42.3307241 56.814433,39.4422701 C58.395189,37.5166341 58.395189,34.146771 56.814433,29.332681 C54.2852234,33.5048924 52.5463918,35.4305284 51.5979381,35.109589 C50.6494845,34.7886497 46.0652921,31.4187867 37.8453608,25 L35,26.925636 Z" id="Path-3-Copy" fill="#339BB2" transform="translate(46.500000, 34.000000) scale(-1, 1) translate(-46.500000, -34.000000) "></path>
                <path d="M26.6666667,120 L22,62 L36,84.6341463 C34.7555556,108.211382 33.2,120 31.3333333,120 C29.4666667,120 27.9111111,120 26.6666667,120 Z" id="Path-4-Copy" fill="#404244" transform="translate(29.000000, 91.000000) scale(-1, 1) translate(-29.000000, -91.000000) "></path>
                <path d="M21.3611111,60 C21.0462963,72.8760331 23.25,81.6694215 27.9722222,86.3801653 C32.6944444,91.0909091 35.3703704,100.669421 36,115.115702 L32.2222222,117 L2,62.3553719 L21.3611111,60 Z" id="Path-6-Copy" fill="#404244" transform="translate(19.000000, 88.500000) scale(-1, 1) translate(-19.000000, -88.500000) "></path>
                <path d="M26,126 C28.2528736,123.687518 30.8275862,122.200923 33.7241379,121.540214 C38.0689655,120.54915 38.5517241,121.044682 39.5172414,122.035746 C39.5172414,123.687518 39.6781609,125.008936 40,126 L26,126 Z" id="Path-9-Copy" fill="#292949" transform="translate(33.000000, 123.500000) scale(-1, 1) translate(-33.000000, -123.500000) "></path>
                <path d="M0,125.84375 C0,124.59375 0.789473684,123.34375 2.36842105,122.09375 C3.94736842,120.84375 4.26315789,119.4375 3.31578947,117.875 L6.63157895,116 L9,118.8125 C6.47368421,122.5625 5.21052632,124.75 5.21052632,125.375 C5.21052632,126 3.47368421,126.15625 0,125.84375 Z" id="Path-10-Copy" fill="#292949" transform="translate(4.500000, 121.000000) scale(-1, 1) translate(-4.500000, -121.000000) "></path>
                <path d="M8.45711798,62.9969715 C6.87244232,37.7355138 9.40792338,23.683828 16.0635612,20.841914 C19.2329125,21.4734504 21.7683936,20.5261458 23.6700044,18 C32.2272529,23.3680598 36.9812799,33.4726428 37.9320853,48.3137492 C38.2490205,49.8925903 37.4566826,54.4712296 35.5550718,62.0496669 L32.2272529,60.6287099 C33.8119286,55.5764183 33.9703962,51.4714315 32.7026556,48.3137492 C31.4349151,45.156067 30.3256421,40.5774278 29.3748367,34.5778316 C29.6917719,48.4716334 29.6917719,57.1552594 29.3748367,60.6287099 C29.0579016,64.1021603 22.0853287,64.8915809 8.45711798,62.9969715 Z" id="Path-2-Copy-2" fill="#339BB2" transform="translate(23.000000, 41.000000) scale(-1, 1) translate(-23.000000, -41.000000) "></path>
                <path d="M21.7067834,15 C18.1123268,9.24242424 17.1320204,4.92424242 18.7658643,2.04545455 C20.3997082,-0.833333333 24.3209336,-0.673400673 30.5295405,2.52525253 L32,7.32323232 C29.2095594,7.26396316 26.9221779,7.74376114 25.1378556,8.76262626 C23.3535333,9.78149138 22.2098425,11.860616 21.7067834,15 Z" id="Path-21" fill="#292949"></path>
                <path d="M10,62.32 C10.3137255,63.7866667 11.254902,64.6666667 12.8235294,64.96 C14.3921569,65.2533333 14.3921569,63.9333333 12.8235294,61 L10,62.32 Z" id="Path-24" fill="#EACDB0"></path>
                <path d="M55.0720721,25.2201412 C58.0990991,22.5963224 59.9489489,21.5759485 60.6216216,22.1590193 C61.6306306,23.0336256 60.6216216,27.4066568 57.5945946,26.9693536 C55.5765766,26.6778182 54.7357357,26.0947474 55.0720721,25.2201412 Z" id="Path-25" fill="#EACDB0"></path>
            </g>
            <g id="email-copy" transform="translate(111.539243, 33.500000) rotate(-10.000000) translate(-111.539243, -33.500000) translate(73.039243, 7.000000)" fill-rule="nonzero">
                <path d="M71.2145341,52.829598 L5.58953414,52.829598 C3.00203414,52.829598 0.902034144,50.7117798 0.902034144,48.1023252 L0.902034144,5.55687068 C0.902034144,2.94741613 3.00203414,0.82959795 5.58953414,0.82959795 L71.2145341,0.82959795 C73.8020341,0.82959795 75.9020341,2.94741613 75.9020341,5.55687068 L75.9020341,48.1023252 C75.9020341,50.7117798 73.8020341,52.829598 71.2145341,52.829598 Z" id="Path" fill="#F1C241"></path>
                <path d="M71.4476679,52.0249718 L5.82266787,52.0249718 C3.19298037,52.0249718 1.13516787,49.998818 1.13516787,47.4095872 C1.13516787,46.6757411 1.49141787,45.9834334 2.09141787,45.5495872 L37.2476679,22.4726641 C37.6601679,22.1726641 38.1476679,22.0249718 38.6351679,22.0249718 C39.1226679,22.0249718 39.6101679,22.1726641 40.0226679,22.4726641 L75.1789179,45.5495872 C75.7789179,45.9834334 76.1351679,46.6757411 76.1351679,47.4095872 C76.1351679,49.998818 74.0773554,52.0249718 71.4476679,52.0249718 Z" id="Path" fill="#F4D06C"></path>
                <path d="M70.8945763,0.626627941 L5.26957633,0.626627941 C2.63988883,0.626627941 0.582076326,2.73114946 0.582076326,5.42052662 C0.582076326,6.1827565 0.938326326,6.90184131 1.53832633,7.35246778 L36.7133263,33.1771999 C37.5289513,33.7764373 38.6305138,33.7764373 39.4461388,33.1771999 L74.6211388,7.35246778 C75.2258263,6.90184131 75.5820763,6.1827565 75.5820763,5.42052662 C75.5820763,2.73114946 73.5242638,0.626627941 70.8945763,0.626627941 Z" id="Path" fill="#F8DF9B"></path>
            </g>
            <rect id="Rectangle" fill="#D8D8D8" x="158" y="13.8416022" width="67" height="144" rx="6"></rect>
            <path d="M91.8964319,161.031446 C88.8788649,162.389337 86.263312,162.841602 82.6922235,162.841602 C74.3434574,162.841602 67,156.857149 67,147.001368 C67,136.74254 74.4435507,127.841602 85.8109778,127.841602 C94.6629452,127.841602 101,133.92668 101,142.374805 C101,149.716602 96.8759371,154.343165 91.4440977,154.343165 C89.0801454,154.343165 87.3703549,153.136212 87.1187542,150.470743 L87.018114,150.470743 C85.4592838,153.035587 83.1959718,154.343165 80.5300988,154.343165 C77.2609311,154.343165 74.8969789,151.929258 74.8969789,147.805274 C74.8969789,141.67043 79.4236028,136.088477 86.665873,136.088477 C88.8788649,136.088477 91.3932306,136.641915 92.6512339,137.345743 L91.1427239,146.64918 C90.6400695,149.61543 90.9917635,150.973868 92.4001802,151.023633 C94.5628519,151.073946 97.2784981,148.307852 97.2784981,142.525196 C97.2784981,135.987852 93.0537949,130.908477 85.2574563,130.908477 C77.5628519,130.908477 70.8226891,136.943243 70.8226891,146.548008 C70.8226891,154.945821 76.2042084,159.723321 83.6986262,159.723321 C86.2638589,159.723321 88.9800521,159.17043 90.9912165,158.113868 L91.8964319,161.031446 Z M88,141.037785 C87.5702817,140.939694 87.0331338,140.841602 86.3354255,140.841602 C82.792585,140.841602 80,144.027976 80,147.802366 C80,149.665038 80.9131514,150.841602 82.6845716,150.841602 C84.670851,150.841602 86.7651438,148.537519 87.247993,145.694465 L88,141.037785 Z" id="Shape" fill="#339BB2" fill-rule="nonzero"></path>
            <g id="user-(1)-copy" transform="translate(174.000000, 19.841602)" fill-rule="nonzero">
                <path d="M17.5,0 C7.83366142,0 0,8.05748031 0,18 C0,23.3645669 2.28051181,28.1834646 5.90452756,31.4858268 C8.9980315,34.292126 13.0561024,36 17.5,36 C21.9507874,36 26.0088583,34.292126 29.0954724,31.4787402 C32.7194882,28.1834646 35,23.3645669 35,18 C35,8.05748031 27.1663386,0 17.5,0 Z" id="Path" fill="#FFFFFF"></path>
                <path d="M27.5388917,30.1374595 C26.6069252,29.4636842 24.9150477,28.3453559 23.0726217,27.5187655 C21.2301957,26.6991212 20.1476808,24.775041 20.4416087,22.8370685 C20.4416087,22.809284 20.4487777,22.7814994 20.4559467,22.7467687 C20.4559467,22.7467687 24.6497957,19.9960981 24.0691089,17.3148888 C24.0691089,17.3148888 24.1981504,17.3218349 24.3917127,17.3079427 C26.2413076,17.1412354 26.3560112,14.4739184 24.5279231,14.1891267 C24.5135852,14.1891267 24.4920783,14.1821806 24.4777403,14.1821806 L24.4203886,13.8904428 C24.9795684,11.9941471 26.3416732,6.24969098 22.2195139,6.80538202 C22.2195139,6.80538202 19.2587282,2.06116978 13.0002151,4.34644917 C6.73453294,6.62478244 8.36905871,12.0636085 8.36905871,12.0636085 L9.14330776,14.2308035 C7.45859918,14.6336795 7.61631658,17.1551276 9.40855975,17.3148888 C9.60212202,17.3287811 9.7383325,17.3218349 9.7383325,17.3218349 C9.15047674,20.0030442 13.3443258,22.7537149 13.3443258,22.7537149 C13.3514947,22.7884455 13.3514947,22.8162301 13.3586637,22.8440146 C13.6454226,24.7819871 12.5629077,26.7060674 10.7276507,27.5257117 C8.87805577,28.3523021 7.19334719,29.4775764 6.26138074,30.1444057 C5.70220087,30.5403355 5.20754176,31.0196191 4.82758621,31.5822562 C8.05362392,34.3259807 12.2761488,36 16.9001362,36 C21.5312926,36 25.7538175,34.3259807 28.9655172,31.568364 C28.5927307,31.0126729 28.0980715,30.5333894 27.5388917,30.1374595 Z" id="Path" fill="#415C6B"></path>
            </g>
            <g id="user-(1)-copy-4" transform="translate(174.000000, 66.841602)" fill-rule="nonzero">
                <path d="M17.5,0 C7.83366142,0 0,8.05748031 0,18 C0,23.3645669 2.28051181,28.1834646 5.90452756,31.4858268 C8.9980315,34.292126 13.0561024,36 17.5,36 C21.9507874,36 26.0088583,34.292126 29.0954724,31.4787402 C32.7194882,28.1834646 35,23.3645669 35,18 C35,8.05748031 27.1663386,0 17.5,0 Z" id="Path" fill="#FFFFFF"></path>
                <path d="M27.5388917,30.1374595 C26.6069252,29.4636842 24.9150477,28.3453559 23.0726217,27.5187655 C21.2301957,26.6991212 20.1476808,24.775041 20.4416087,22.8370685 C20.4416087,22.809284 20.4487777,22.7814994 20.4559467,22.7467687 C20.4559467,22.7467687 24.6497957,19.9960981 24.0691089,17.3148888 C24.0691089,17.3148888 24.1981504,17.3218349 24.3917127,17.3079427 C26.2413076,17.1412354 26.3560112,14.4739184 24.5279231,14.1891267 C24.5135852,14.1891267 24.4920783,14.1821806 24.4777403,14.1821806 L24.4203886,13.8904428 C24.9795684,11.9941471 26.3416732,6.24969098 22.2195139,6.80538202 C22.2195139,6.80538202 19.2587282,2.06116978 13.0002151,4.34644917 C6.73453294,6.62478244 8.36905871,12.0636085 8.36905871,12.0636085 L9.14330776,14.2308035 C7.45859918,14.6336795 7.61631658,17.1551276 9.40855975,17.3148888 C9.60212202,17.3287811 9.7383325,17.3218349 9.7383325,17.3218349 C9.15047674,20.0030442 13.3443258,22.7537149 13.3443258,22.7537149 C13.3514947,22.7884455 13.3514947,22.8162301 13.3586637,22.8440146 C13.6454226,24.7819871 12.5629077,26.7060674 10.7276507,27.5257117 C8.87805577,28.3523021 7.19334719,29.4775764 6.26138074,30.1444057 C5.70220087,30.5403355 5.20754176,31.0196191 4.82758621,31.5822562 C8.05362392,34.3259807 12.2761488,36 16.9001362,36 C21.5312926,36 25.7538175,34.3259807 28.9655172,31.568364 C28.5927307,31.0126729 28.0980715,30.5333894 27.5388917,30.1374595 Z" id="Path" fill="#415C6B"></path>
            </g>
            <g id="user-(1)-copy-2" transform="translate(174.000000, 114.841602)" fill-rule="nonzero">
                <path d="M17.5,0 C7.83366142,0 0,8.05748031 0,18 C0,23.3645669 2.28051181,28.1834646 5.90452756,31.4858268 C8.9980315,34.292126 13.0561024,36 17.5,36 C21.9507874,36 26.0088583,34.292126 29.0954724,31.4787402 C32.7194882,28.1834646 35,23.3645669 35,18 C35,8.05748031 27.1663386,0 17.5,0 Z" id="Path" fill="#FFFFFF"></path>
                <path d="M27.5388917,30.1374595 C26.6069252,29.4636842 24.9150477,28.3453559 23.0726217,27.5187655 C21.2301957,26.6991212 20.1476808,24.775041 20.4416087,22.8370685 C20.4416087,22.809284 20.4487777,22.7814994 20.4559467,22.7467687 C20.4559467,22.7467687 24.6497957,19.9960981 24.0691089,17.3148888 C24.0691089,17.3148888 24.1981504,17.3218349 24.3917127,17.3079427 C26.2413076,17.1412354 26.3560112,14.4739184 24.5279231,14.1891267 C24.5135852,14.1891267 24.4920783,14.1821806 24.4777403,14.1821806 L24.4203886,13.8904428 C24.9795684,11.9941471 26.3416732,6.24969098 22.2195139,6.80538202 C22.2195139,6.80538202 19.2587282,2.06116978 13.0002151,4.34644917 C6.73453294,6.62478244 8.36905871,12.0636085 8.36905871,12.0636085 L9.14330776,14.2308035 C7.45859918,14.6336795 7.61631658,17.1551276 9.40855975,17.3148888 C9.60212202,17.3287811 9.7383325,17.3218349 9.7383325,17.3218349 C9.15047674,20.0030442 13.3443258,22.7537149 13.3443258,22.7537149 C13.3514947,22.7884455 13.3514947,22.8162301 13.3586637,22.8440146 C13.6454226,24.7819871 12.5629077,26.7060674 10.7276507,27.5257117 C8.87805577,28.3523021 7.19334719,29.4775764 6.26138074,30.1444057 C5.70220087,30.5403355 5.20754176,31.0196191 4.82758621,31.5822562 C8.05362392,34.3259807 12.2761488,36 16.9001362,36 C21.5312926,36 25.7538175,34.3259807 28.9655172,31.568364 C28.5927307,31.0126729 28.0980715,30.5333894 27.5388917,30.1374595 Z" id="Path" fill="#415C6B"></path>
            </g>
        </g>
    </g>
</svg>
