<?xml version="1.0" encoding="UTF-8"?>
<svg viewBox="0 0 14 16" version="1.1" xmlns="http://www.w3.org/2000/svg" xmlns:xlink="http://www.w3.org/1999/xlink">
    <g stroke="none" stroke-width="1" fill="none" fill-rule="evenodd">
        <g transform="translate(-124.000000, -506.000000)" fill="#656565">
            <g transform="translate(124.750112, 506.000000)">
                <path d="M12.1452283,4.3168132 C12.6975131,4.3168132 13.1452283,4.76452845 13.1452283,5.3168132 L13.1452283,15 C13.1452283,15.5522847 12.6975131,16 12.1452283,16 L1,16 C0.44771525,16 -8.68522323e-14,15.5522847 -8.69198676e-14,15 L-8.69198676e-14,5.3168132 C-8.6987503e-14,4.76452845 0.44771525,4.3168132 1,4.3168132 L12.1452283,4.3168132 Z M6.57261415,8.42396675 C5.56429344,8.42396675 4.746888,9.2413722 4.746888,10.2496929 C4.746888,11.2580136 5.56429344,12.0754191 6.57261415,12.0754191 C7.58093486,12.0754191 8.39834031,11.2580136 8.39834031,10.2496929 C8.39834031,9.2413722 7.58093486,8.42396675 6.57261415,8.42396675 Z"></path>
                <path d="M6.57261415,2.15079223e-14 C8.58925553,2.15079223e-14 10.2240665,1.63481082 10.2240665,3.6514522 L10.2240665,3.6514522 L10.2240665,5.84232358 L2.92116185,5.84232358 L2.92116185,3.6514522 C2.92116185,1.63481082 4.55597277,2.15079223e-14 6.57261415,2.15079223e-14 Z M6.57261415,1.39419083 C5.51846068,1.39419083 4.66390041,2.24875104 4.66390041,3.30290451 L4.66390041,4.44813276 L8.48132789,4.44813276 L8.48132789,3.30290451 C8.48132789,2.24875104 7.62676762,1.39419083 6.57261415,1.39419083 Z"></path>
            </g>
        </g>
    </g>
</svg>
