<?xml version="1.0" encoding="UTF-8"?>
<svg viewBox="0 0 84 65" version="1.1" xmlns="http://www.w3.org/2000/svg" xmlns:xlink="http://www.w3.org/1999/xlink">
    <g id="Shared-Course" stroke="none" stroke-width="1" fill="none" fill-rule="evenodd">
        <g id="create-new-course-2-modal" transform="translate(-95.000000, -362.000000)">
            <g id="Group-7" transform="translate(74.000000, 345.000000)">
                <g id="Group" transform="translate(21.000000, 17.000000)">
                    <rect id="Rectangle-Copy-12" stroke="#E1E1E1" fill="#FFFFFF" x="0.5" y="0.5" width="82.8157895" height="64" rx="4"></rect>
                    <path d="M79.8157895,0.5 C80.7822878,0.5 81.6572878,0.891750844 82.2906632,1.52512627 C82.9240386,2.15850169 83.3157895,3.03350169 83.3157895,4 L83.3157895,4 L83.3157895,10.3333333 L0.5,10.3333333 L0.5,4 C0.5,3.03350169 0.891750844,2.15850169 1.52512627,1.52512627 C2.15850169,0.891750844 3.03350169,0.5 4,0.5 L4,0.5 Z" id="Rectangle-Copy-13" stroke="#E1E1E1" fill="#E1E1E1"></path>
                    <circle id="Oval-Copy-14" fill="#898989" cx="75.8333333" cy="5.70175439" r="1.71052632"></circle>
                    <circle id="Oval-Copy-15" fill="#898989" cx="69.5614035" cy="5.70175439" r="1.71052632"></circle>
                    <circle id="Oval-Copy-16" fill="#898989" cx="63.2894737" cy="5.70175439" r="1.71052632"></circle>
                    <rect id="bg-copy-4" fill="#E1E1E1" x="27.2828947" y="32.8792174" width="19.3461541" height="19.0067478" rx="2"></rect>
                    <path d="M54.3046141,23.2061404 C55.4078094,23.2061404 56.3021258,24.0973822 56.3021258,25.2042716 L56.3021258,40.2147569 C56.3021258,41.3182943 55.4078207,42.2128882 54.3046141,42.2128882 L47.5960045,42.2121404 L47.5963565,33.910041 C47.5963565,32.8534646 46.7814938,31.9933772 45.7479215,31.9173705 L45.5988448,31.9119097 L36.9550045,31.9111404 L36.9559718,25.2042716 C36.9559718,24.1007342 37.8502769,23.2061404 38.9534834,23.2061404 L54.3046141,23.2061404 Z" id="Combined-Shape-Copy-2" fill="#BDE2EB"></path>
                    <g id="Group-46" transform="translate(36.664062, 43.062500) rotate(-40.000000) translate(-36.664062, -43.062500) translate(30.875000, 40.625000)" fill="#339BB2" fill-rule="nonzero">
                        <path d="M9.75,-0.5 C10.9822134,-0.5 11.9908409,0.457285258 12.072754,1.66872727 L12.078125,1.828125 L12.078125,3.046875 C12.078125,4.27908844 11.1208397,5.28771592 9.90939773,5.36962895 L9.75,5.375 L7.3125,5.375 C7.03635763,5.375 6.8125,5.15114237 6.8125,4.875 C6.8125,4.62954011 6.98937516,4.42539163 7.22262437,4.38305567 L7.3125,4.375 L9.75,4.375 C10.4376592,4.375 11.0032548,3.85238317 11.071268,3.18266807 L11.078125,3.046875 L11.078125,1.828125 C11.078125,1.14046577 10.5555082,0.574870232 9.88579307,0.50685696 L9.75,0.5 L7.3125,0.5 C7.03635763,0.5 6.8125,0.276142375 6.8125,4.54913884e-13 C6.8125,-0.245459889 6.98937516,-0.44960837 7.22262437,-0.491944331 L7.3125,-0.5 L9.75,-0.5 Z" id="Path"></path>
                        <path d="M4.265625,-0.5 C4.54176737,-0.5 4.765625,-0.276142375 4.765625,5.55111512e-17 C4.765625,0.245459889 4.58874984,0.44960837 4.35550063,0.491944331 L4.265625,0.5 L1.828125,0.5 C1.14046577,0.5 0.574870232,1.02261683 0.50685696,1.69233193 L0.5,1.828125 L0.5,3.046875 C0.5,3.73453423 1.02261683,4.30012977 1.69233193,4.36814304 L1.828125,4.375 L4.265625,4.375 C4.54176737,4.375 4.765625,4.59885763 4.765625,4.875 C4.765625,5.12045989 4.58874984,5.32460837 4.35550063,5.36694433 L4.265625,5.375 L1.828125,5.375 C0.595911564,5.375 -0.41271592,4.41771474 -0.494628951,3.20627273 L-0.5,3.046875 L-0.5,1.828125 C-0.5,0.595911564 0.457285258,-0.41271592 1.66872727,-0.494628951 L1.828125,-0.5 L4.265625,-0.5 Z" id="Path-Copy-2"></path>
                        <path d="M9.140625,1.9375 C9.41676737,1.9375 9.640625,2.16135763 9.640625,2.4375 C9.640625,2.68295989 9.46374984,2.88710837 9.23050063,2.92944433 L9.140625,2.9375 L2.7421875,2.9375 C2.46604513,2.9375 2.2421875,2.71364237 2.2421875,2.4375 C2.2421875,2.19204011 2.41906266,1.98789163 2.65231187,1.94555567 L2.7421875,1.9375 L9.140625,1.9375 Z" id="Path-4"></path>
                    </g>
                </g>
            </g>
        </g>
    </g>
</svg>
