<?xml version="1.0" encoding="UTF-8"?>
<svg viewBox="0 0 45 46" version="1.1" xmlns="http://www.w3.org/2000/svg" xmlns:xlink="http://www.w3.org/1999/xlink">
    <g stroke="none" stroke-width="1" fill="none" fill-rule="evenodd">
        <g transform="translate(-116.000000, -1226.000000)" fill-rule="nonzero">
            <g transform="translate(65.000000, 1150.500000)">
                <g transform="translate(30.000000, 21.000000)">
                    <g transform="translate(21.000000, 55.000000)">
                        <path d="M9.783,27.012 C8.1220911,27.00759 6.77799415,25.6599148 6.778,23.999 C6.77951091,23.6316222 6.91579308,23.2775732 7.161,23.004 C6.9080432,22.6306926 6.77320359,22.1899378 6.774,21.739 L6.774,14.65 C6.774,14.626 6.774,14.603 6.779,14.578 L0,21.363 L9.783,29.85 L9.783,27.012 Z" id="Path" fill="#FFD740"></path>
                        <path d="M36.462,25.597 C36.2369014,25.6155411 36.0386597,25.4498199 36.017,25.225 L36.017,4.413 C36.0565493,4.19860988 36.2434925,4.04299848 36.4615,4.04299848 C36.6795075,4.04299848 36.8664507,4.19860988 36.906,4.413 L36.906,25.225 C36.8843365,25.4493986 36.6867249,25.6149651 36.462,25.597 L36.462,25.597 Z" id="Path-2" fill="#263238"></path>
                        <polygon id="Path-3" fill="#FF5252" points="36.325 11.294 36.325 5.187 44.603 8.238"></polygon>
                        <path d="M36.325,11.6760078 C36.247615,11.6757757 36.172184,11.6516797 36.109,11.607 C36.0082394,11.534636 35.9486442,11.4180529 35.9489984,11.294 L35.9489984,5.187 C35.9486442,5.06294713 36.0082394,4.94636396 36.109,4.874 C36.209226,4.80232753 36.3384965,4.78509147 36.454,4.828 L44.732,7.882 C44.881114,7.93860938 44.9797099,8.08150201 44.9797099,8.241 C44.9797099,8.40049799 44.881114,8.54339062 44.732,8.6 L36.454,11.654 C36.4126218,11.6688374 36.3689571,11.6762841 36.325,11.6760078 L36.325,11.6760078 Z M36.701,5.73 L36.701,10.747 L43.501,8.238 L36.701,5.73 Z" id="Shape" fill="#263238"></path>
                        <path d="M41.431,44 L27.491,44 C27.2747639,43.9590453 27.1182291,43.7700803 27.1182291,43.55 C27.1182291,43.3299197 27.2747639,43.1409547 27.491,43.1 L41.431,43.1 C41.6472361,43.1409547 41.8037709,43.3299197 41.8037709,43.55 C41.8037709,43.7700803 41.6472361,43.9590453 41.431,44 L41.431,44 Z" id="Path-4" fill="#263238"></path>
                        <path d="M44.096,44 L42.613,44 C42.3947399,43.9613531 42.2356806,43.7716552 42.2356806,43.55 C42.2356806,43.3283448 42.3947399,43.1386469 42.613,43.1 L44.095,43.1 C44.3132601,43.1386469 44.4723194,43.3283448 44.4723194,43.55 C44.4723194,43.7716552 44.3132601,43.9613531 44.095,44 L44.096,44 Z" id="Path-5" fill="#263238"></path>
                        <path d="M0.371,44.0000118 C0.198916997,44.0013658 0.0487373615,43.8836005 0.00902908216,43.716156 C-0.0306791972,43.5487114 0.0506280004,43.3760507 0.205,43.3 L12.825,37.013 C12.9217699,36.9653882 13.0343541,36.9617447 13.134,37.003 L17.358,38.757 L23.121,33.014 C23.2160058,32.9198939 23.354027,32.8836729 23.483,32.919 L29.909,34.698 L36.44,25.298 C36.5093675,25.1979797 36.6232796,25.1382225 36.745,25.138 L44.54,25.138 C44.6721883,25.138 44.7943353,25.2085216 44.8604294,25.323 C44.9265236,25.4374784 44.9265236,25.5785216 44.8604294,25.693 C44.7943353,25.8074784 44.6721883,25.878 44.54,25.878 L36.94,25.878 L30.37,35.333 C30.2802731,35.4604682 30.1207421,35.518697 29.97,35.479 L23.498,33.688 L17.712,39.453 C17.6056721,39.5592496 17.4457409,39.5908409 17.307,39.533 L13,37.75 L0.537,43.961 C0.48539574,43.986575 0.428594046,44.0000118 0.371,44.0000118 Z" id="Path-6" fill="#263238"></path>
                        <path d="M16.009,9.879 C14.0064401,9.89926984 12.1897839,8.70850581 11.4094446,6.86412845 C10.6291054,5.0197511 11.039503,2.88674089 12.4485222,1.46360274 C13.8575413,0.0404645867 15.9863537,-0.391179298 17.8384196,0.370732254 C19.6904855,1.13264381 20.8993028,2.93733751 20.899034,4.94 C20.9089765,7.65275044 18.7217151,9.86192917 16.009,9.879 Z M16.009,0.76 C14.3147158,0.743380626 12.7779979,1.75120017 12.1180752,3.31176966 C11.4581525,4.87233915 11.8055844,6.67691477 12.9977626,7.88090241 C14.1899408,9.08489006 15.9910042,9.45009225 17.5580026,8.80558369 C19.1250009,8.16107512 20.1479185,6.6343657 20.1480317,4.94 C20.1568645,2.64377605 18.3051998,0.773769159 16.009,0.76 Z" id="Shape-2" fill="#263238"></path>
                        <path d="M19.062,2.333 L19.398,2.047 C18.5526569,0.998362299 17.278937,0.387594155 15.932,0.385 C14.7204651,0.398975218 13.5641127,0.893700385 12.7173685,1.76032387 C11.8706242,2.62694736 11.4028617,3.79446702 11.417,5.006 L11.843,5.006 C14.490623,5.00174947 17.0500642,4.0540578 19.062,2.333 L19.062,2.333 Z" id="Path-7" fill="#FFD740"></path>
                        <path d="M11.844,5.389 L11.417,5.389 C11.3154208,5.3876894 11.2185714,5.34586644 11.147969,5.27282299 C11.0773666,5.19977955 11.0388585,5.10156504 11.041,5 C11.0154351,2.27049796 13.2025975,0.0345928703 15.932,4.4408921e-16 C17.3914716,0.0024923928 18.7717569,0.66397096 19.688,1.8 C19.7523651,1.87917731 19.7832281,1.98037938 19.774,2.082 C19.7653836,2.18345767 19.7168241,2.27733944 19.639,2.343 L19.303,2.629 C17.2228392,4.40477318 14.5790327,5.38304182 11.844,5.389 Z M11.811,4.619 L11.844,4.619 C14.4030141,4.61372706 16.8767457,3.69852788 18.823,2.037 L18.823,2.037 L18.857,2.008 C18.0890477,1.21747294 17.0341265,0.770979826 15.932,0.77 C13.7698428,0.794685352 11.9830363,2.46355647 11.811,4.619 L11.811,4.619 Z" id="Shape-3" fill="#263238"></path>
                        <path d="M14.487,36.705002 L11.487,36.705002 C11.2817739,36.7055568 11.1146499,36.5402202 11.113,36.335 L11.113,22.257 C11.1146499,22.0517798 11.2817739,21.8864432 11.487,21.8869813 L23.099,21.8869813 C24.3326874,21.8820111 25.3377413,22.8763302 25.346,24.11 L25.346,32.261 C25.3443501,32.4662202 25.1772261,32.6315568 24.972,32.631 L21.972,32.631 C21.7993245,32.6317076 21.6487373,32.5138028 21.608,32.346 L20.246,26.654 C20.2055894,26.4859869 20.0548012,26.3679248 19.882,26.369 L16.635,26.369 C16.4497672,26.3688235 16.2921553,26.5039194 16.264,26.687 L14.858,36.387 C14.8302419,36.5703011 14.67239,36.7056028 14.487,36.705002 L14.487,36.705002 Z M11.866,35.964 L14.166,35.964 L15.525,26.581 C15.6090132,26.0319135 16.0815237,25.6265403 16.637,25.627 L19.889,25.627 C20.4080713,25.6234172 20.8610789,25.9781972 20.982,26.483 L22.272,31.89 L24.597,31.89 L24.597,24.11 C24.5946202,23.71456 24.4352463,23.3362623 24.1539402,23.0583318 C23.872634,22.7804014 23.49244,22.6256058 23.097,22.6279726 L11.865,22.6279726 L11.865,35.964 L11.866,35.964 Z" id="Shape-4" fill="#263238"></path>
                        <path d="M13.785,10.509 C13.5522197,10.5203514 13.3539153,10.3416987 13.341,10.109 L13.341,8.665 C13.3539153,8.43230127 13.5522197,8.25364861 13.785,8.265 L13.785,8.265 C14.0177803,8.25364861 14.2160847,8.43230127 14.229,8.665 L14.229,10.108 C14.2160847,10.3406987 14.0177803,10.5193514 13.785,10.508 L13.785,10.509 Z" id="Path-8" fill="#263238"></path>
                        <path d="M18.236,10.509 C18.0045475,10.5186418 17.8083951,10.3403214 17.796,10.109 L17.787,8.668 C17.7988682,8.43723911 17.994112,8.25893422 18.225,8.268 L18.225,8.268 C18.4564525,8.25835821 18.6526049,8.43667858 18.665,8.668 L18.674,10.109 C18.6621318,10.3397609 18.466888,10.5180658 18.236,10.509 L18.236,10.509 Z" id="Path-9" fill="#263238"></path>
                        <path d="M29.71,4.94001403 C29.6527275,4.94001403 29.596118,4.92774567 29.544,4.904 C29.4575565,4.86745359 29.3903378,4.79641868 29.3586157,4.70809069 C29.3268936,4.6197627 29.3335596,4.5221929 29.377,4.439 C29.5060753,4.18963378 29.5255152,3.89778982 29.4306542,3.63350711 C29.3357932,3.36922441 29.1351947,3.15636045 28.877,3.046 C28.333326,2.78954722 27.6838326,2.99256824 27.383,3.513 C27.2828258,3.6878628 27.0645185,3.75553807 26.883,3.668 C26.7967977,3.63147407 26.7298129,3.56054257 26.6982765,3.47239247 C26.66674,3.38424238 26.6735296,3.28691748 26.717,3.204 C27.2182935,2.33643927 28.3012723,1.99849768 29.207,2.427 C29.6378388,2.61043544 29.9726382,2.96526573 30.1307574,3.40602524 C30.2888765,3.84678476 30.2559831,4.33352207 30.04,4.749 C29.97299,4.86801114 29.8465745,4.94117891 29.71,4.94001403 L29.71,4.94001403 Z" id="Path-10" fill="#263238"></path>
                        <path d="M20.237,23.351 L9.116,23.351 C8.50153598,23.3498968 8.00397335,22.851465 8.00397335,22.237 L8.00397335,15.244 C7.99841962,13.6986298 8.8695894,12.283754 10.252,11.593 L13.386,10.017 C13.5382981,9.93926538 13.7240998,9.97700635 13.834,10.108 L15.776,12.379 L17.718,10.108 C17.8286876,9.97833669 18.0134959,9.94079751 18.166,10.017 L20.325,11.096 L21.882,11.096 C22.4444365,11.0977295 22.9588352,10.7792368 23.208,10.275 L25.993,4.695 C26.0854152,4.51130159 26.309069,4.43704852 26.493,4.529 L29.146,5.858 C29.2344187,5.90218468 29.3016173,5.97974188 29.3327619,6.07355104 C29.3639066,6.1673602 29.3564362,6.26970749 29.312,6.358 L26.219,12.558 C25.5336964,13.9448274 24.1189029,14.8207813 22.572,14.816 L20.607,14.816 L20.607,22.986 C20.6037308,23.1881621 20.4391879,23.3504814 20.237,23.351 Z M13.458,10.812 L10.586,12.257 C9.4547281,12.821946 8.74166225,13.9795154 8.74598032,15.244 L8.74598032,22.237 C8.74654945,22.4416696 8.91233038,22.6074505 9.117,22.608 L19.866,22.608 L19.866,14.438 C19.866,14.2331024 20.0321024,14.067 20.237,14.067 L22.569,14.067 C23.834347,14.0711045 24.991663,13.354523 25.552,12.22 L28.479,6.356 L26.489,5.356 L23.87,10.604 C23.4961363,11.3606521 22.72397,11.8383087 21.88,11.835 L20.236,11.835 C20.1783891,11.835065 20.1215547,11.8217124 20.07,11.796 L18.092,10.807 L16.056,13.19 C15.9834924,13.2685926 15.8814306,13.3132949 15.7745,13.3132949 C15.6675694,13.3132949 15.5655076,13.2685926 15.493,13.19 L13.458,10.812 Z" id="Shape-5" fill="#263238"></path>
                        <polygon id="Path-11" fill="#40C4FF" points="16.953 18.297 15.793 19.817 14.619 18.297 15.008 11.457 16.564 11.457"></polygon>
                        <path d="M15.793,20.202 C15.6718887,20.2022578 15.5574587,20.1465193 15.483,20.051 L14.309,18.531 C14.2540409,18.4596233 14.2263797,18.3709654 14.231,18.281 L14.62,11.441 C14.633769,11.2374244 14.8039696,11.079945 15.008,11.0819801 L16.564,11.0819801 C16.7680304,11.079945 16.938231,11.2374244 16.952,11.441 L17.341,18.281 C17.3464762,18.3706031 17.3191005,18.4591295 17.264,18.53 L16.104,20.05 C16.0296355,20.1464278 15.9147719,20.203 15.793,20.203 L15.793,20.202 Z M15.016,18.184 L15.792,19.184 L16.557,18.184 L16.197,11.841 L15.376,11.841 L15.016,18.184 Z" id="Shape-6" fill="#263238"></path>
                        <path d="M11.562,22.796 C11.3384878,22.8152218 11.1406779,22.6520842 11.117,22.429 L11.117,15.082 C11.1587453,14.8695518 11.3449893,14.7163427 11.5615,14.7163427 C11.7780107,14.7163427 11.9642547,14.8695518 12.006,15.082 L12.006,22.43 C11.9818195,22.6522604 11.7847904,22.8146763 11.562,22.796 Z" id="Path-12" fill="#263238"></path>
                        <path d="M9.786,25.733 C8.7789082,25.7057329 7.98349624,24.8691867 8.007,23.862 C8.0000228,23.7304932 8.06621345,23.6058772 8.17908072,23.5380266 C8.29194799,23.470176 8.43305201,23.470176 8.54591928,23.5380266 C8.65878655,23.6058772 8.7249772,23.7304932 8.718,23.862 C8.69369388,24.2587935 8.89158023,24.636302 9.23173271,24.8420497 C9.5718852,25.0477975 9.9981148,25.0477975 10.3382673,24.8420497 C10.6784198,24.636302 10.8763061,24.2587935 10.852,23.862 C10.8450228,23.7304932 10.9112134,23.6058772 11.0240807,23.5380266 C11.136948,23.470176 11.278052,23.470176 11.3909193,23.5380266 C11.5037866,23.6058772 11.5699772,23.7304932 11.563,23.862 C11.5865164,24.8684275 10.7923031,25.7046533 9.786,25.733 Z" id="Path-13" fill="#263238"></path>
                        <path d="M9.862,29.8590004 C9.7740285,29.8590004 9.68903953,29.8271187 9.623,29.769 L0.127,21.443 C0.0502116774,21.3755363 0.00456576172,21.2794488 0.000782635472,21.1773043 C-0.00300049077,21.0751599 0.035412519,20.9759591 0.107,20.903 L6.687,14.25 C6.79150636,14.14403 6.95033584,14.1130582 7.087,14.172 C7.22437553,14.2334294 7.31120944,14.3715743 7.307,14.522 C7.30074276,14.6627807 7.22605839,14.7916113 7.107,14.867 L0.9,21.146 L10.1,29.211 C10.2521576,29.3456118 10.2686069,29.577236 10.137,29.732 C10.0678138,29.8118462 9.96764724,29.858105 9.862,29.8590004 Z" id="Path-14" fill="#263238"></path>
                        <path d="M8.093,2.245 L5.247,2.245 C5.02636537,2.21635965 4.86857842,2.01735307 4.891,1.796 C4.86857842,1.57464693 5.02636537,1.37564035 5.247,1.347 L8.093,1.347 C8.31363463,1.37564035 8.47142158,1.57464693 8.449,1.796 C8.47142158,2.01735307 8.31363463,2.21635965 8.093,2.245 Z" id="Path-15" fill="#263238"></path>
                        <path d="M6.67,3.593 C6.4487669,3.61410676 6.25116385,3.45469217 6.225,3.234 L6.225,0.359 C6.27067455,0.15009407 6.45565928,0.00118410364 6.6695,0.00118410364 C6.88334072,0.00118410364 7.06832545,0.15009407 7.114,0.359 L7.114,3.233 C7.08833238,3.45366909 6.89120912,3.61349876 6.67,3.593 Z" id="Path-16" fill="#263238"></path>
                        <path d="M4.536,6.284 L1.69,6.284 C1.47912306,6.23708928 1.32910494,6.05003171 1.32910494,5.834 C1.32910494,5.61796829 1.47912306,5.43091072 1.69,5.384 L4.536,5.384 C4.74687694,5.43091072 4.89689506,5.61796829 4.89689506,5.834 C4.89689506,6.05003171 4.74687694,6.23708928 4.536,6.284 Z" id="Path-17" fill="#263238"></path>
                        <path d="M3.113,7.634 C2.8917669,7.65510676 2.69416385,7.49569217 2.668,7.275 L2.668,4.401 C2.69416385,4.18030783 2.8917669,4.02089324 3.113,4.042 C3.3342331,4.02089324 3.53183615,4.18030783 3.558,4.401 L3.558,7.275 C3.53183615,7.49569217 3.3342331,7.65510676 3.113,7.634 L3.113,7.634 Z" id="Path-18" fill="#263238"></path>
                    </g>
                </g>
            </g>
        </g>
    </g>
</svg>
