<svg xmlns="http://www.w3.org/2000/svg" viewBox="0 0 24 22.173"><g transform="translate(-85 -174.827)"><path d="M235.5,3465.5a5,5,0,1,0-5-5A5,5,0,0,0,235.5,3465.5Z" transform="translate(-145 -3269)" fill="none" stroke="#339BB2" stroke-linecap="round" stroke-linejoin="round" stroke-width="1"/><path d="M240.5,3449v-4a2.281,2.281,0,0,0-3,0l-1.5,4-1.5,1.5-3,7" transform="translate(-145 -3269)" fill="none" stroke="#339BB2" stroke-linecap="round" stroke-linejoin="round" stroke-width="1"/><path d="M248.5,3465.5a5,5,0,1,0-5-5A5,5,0,0,0,248.5,3465.5Z" transform="translate(-145 -3269)" fill="none" stroke="#339BB2" stroke-linecap="round" stroke-linejoin="round" stroke-width="1"/><path d="M243.5,3449v-3.937a2.279,2.279,0,0,1,3,0L248,3449l1.5,1.5,3,7" transform="translate(-145 -3269)" fill="none" stroke="#339BB2" stroke-linecap="round" stroke-linejoin="round" stroke-width="1"/><path d="M238,3453c0-1.1,1.791-2,4-2s4,.9,4,2" transform="translate(-145 -3269)" fill="none" stroke="#339BB2" stroke-linecap="round" stroke-linejoin="round" stroke-width="1"/><path d="M240.5,3460.5v-9.355" transform="translate(-145 -3269)" fill="none" stroke="#339BB2" stroke-linecap="round" stroke-linejoin="round" stroke-width="1"/><path d="M243.5,3460.5v-9.355" transform="translate(-145 -3269)" fill="none" stroke="#339BB2" stroke-linecap="round" stroke-linejoin="round" stroke-width="1"/></g></svg>
