<svg xmlns="http://www.w3.org/2000/svg" viewBox="0 0 20 20"><g data-name="Group 11"><g data-name="Group 3"><path data-name="Clip 2" d="M0 0h20v20H0z" fill="none"/><path data-name="Fill 1" d="M20 10A10 10 0 1 1 10 0a10 10 0 0 1 10 10" fill="#2b4b82"/><path data-name="Clip 2" d="M0 0h20v20H0z" fill="none"/></g><path data-name="Fill 4" d="M8.81 13.23v-2.591c0-.146-.047-.191-.216-.185-.313.011-.627 0-.941.005-.124.006-.169-.029-.169-.144q.009-.808 0-1.617c0-.1.035-.138.157-.135.322.002.643-.009.963.002.186.008.224-.049.22-.2q-.017-.615 0-1.231a2.145 2.145 0 0 1 .516-1.369 2.362 2.362 0 0 1 1.786-.781c.74-.028 1.482-.012 2.224-.019.103 0 .134.031.134.117v1.636c0 .1-.036.127-.147.125h-1.07c-.475 0-.759.211-.788.615-.024.324-.006.649-.015.974 0 .116.077.108.166.108h1.626c.159 0 .212.029.193.173a63.697 63.697 0 0 0-.181 1.627c-.012.123-.077.146-.206.144-.427-.006-.855 0-1.283 0-.307 0-.277-.039-.277.231v5.073c0 .179-.052.223-.258.22q-1.1-.017-2.2 0c-.207 0-.241-.057-.239-.215.008-.852 0-1.7 0-2.555" fill="#fffffe"/></g></svg>
