<?xml version="1.0" encoding="UTF-8"?>
<svg viewBox="0 0 123 80" version="1.1" xmlns="http://www.w3.org/2000/svg">
    <title>failed board</title>
    <g id="Create-Segment" stroke="none" stroke-width="1" fill="none" fill-rule="evenodd">
        <g id="failed-board">
            <rect id="Rectangle-Copy-17" fill="#CCCCCC" x="0" y="0" width="122.971913" height="80" rx="3"></rect>
            <rect id="Rectangle-Copy-12" fill="#FFFFFF" x="9.67461579" y="9.58982512" width="48.8139905" height="60.8203501" rx="3"></rect>
            <rect id="Rectangle-Copy-24" fill="#FFFFFF" x="64.4833068" y="9.58982512" width="48.8139905" height="61.1764706" rx="3"></rect>
            <rect id="Rectangle-Copy-12" fill="#74C5D7" x="12.2352941" y="13.1764706" width="42.8192899" height="16.2713302" rx="3"></rect>
            <rect id="Rectangle-Copy-19" fill="#74C5D7" x="12.2352941" y="32" width="42.8192899" height="16.2713302" rx="3"></rect>
            <rect id="Rectangle-Copy-20" fill="#74C5D7" x="12.2352941" y="50.8235294" width="42.8192899" height="16.2713302" rx="3"></rect>
            <rect id="Rectangle-Copy-25" fill="#74C5D7" x="67.7647059" y="13.1764706" width="42.8192899" height="33.3990461" rx="3"></rect>
            <path d="M21.1764706,16 C18.3171839,16 16,18.3171839 16,21.1764706 C16,22.7192219 16.6745716,24.1050486 17.7465493,25.0547476 C18.6616026,25.8617879 19.8619731,26.3529412 21.1764706,26.3529412 C22.493006,26.3529412 23.6933766,25.8617879 24.6063918,25.0527096 C25.6783696,24.1050486 26.3529412,22.7192219 26.3529412,21.1764706 C26.3529412,18.3171839 24.0357573,16 21.1764706,16 Z" id="Path" fill="#FFFFFF" fill-rule="nonzero"></path>
            <path d="M24.4368849,24.606769 C24.1513653,24.4060833 23.6330374,24.0729865 23.0685871,23.8267845 C22.5041368,23.5826514 22.1724948,23.0095594 22.2625433,22.4323295 C22.2625433,22.4240538 22.2647396,22.4157781 22.2669359,22.4054334 C22.2669359,22.4054334 23.5517741,21.5861394 23.3738735,20.7875346 C23.3738735,20.7875346 23.4134069,20.7896035 23.4727072,20.7854656 C24.0393538,20.7358115 24.0744947,19.9413445 23.514437,19.8565186 C23.5100444,19.8565186 23.5034554,19.8544497 23.4990628,19.8544497 L23.4814924,19.7675549 C23.6528042,19.2027385 24.0701021,17.491738 22.8072268,17.657252 C22.8072268,17.657252 21.900153,16.2441766 19.982779,16.9248527 C18.0632087,17.6034599 18.5639661,19.2234277 18.5639661,19.2234277 L18.801167,19.8689321 C18.2850354,19.9889298 18.3333541,20.7399493 18.8824303,20.7875346 C18.9417305,20.7916724 18.9834603,20.7896035 18.9834603,20.7896035 C18.8033633,21.5882083 20.0882016,22.4075024 20.0882016,22.4075024 C20.0903979,22.417847 20.0903979,22.4261227 20.0925942,22.4343984 C20.1804464,23.0116283 19.8488044,23.5847203 19.2865504,23.8288534 C18.7199038,24.0750554 18.2037722,24.4102212 17.9182525,24.6088379 C17.7469408,24.7267666 17.5953957,24.8695224 17.4789916,25.0371053 C18.4673287,25.8543304 19.7609522,26.3529412 21.1775687,26.3529412 C22.5963816,26.3529412 23.8900051,25.8543304 24.8739496,25.0329674 C24.7597417,24.8674535 24.6081967,24.7246977 24.4368849,24.606769 Z" id="Path" fill="#415C6B" fill-rule="nonzero"></path>
            <path d="M21.1764706,34.8235294 C18.3171839,34.8235294 16,37.1407133 16,40 C16,41.5427513 16.6745716,42.928578 17.7465493,43.878277 C18.6616026,44.6853173 19.8619731,45.1764706 21.1764706,45.1764706 C22.493006,45.1764706 23.6933766,44.6853173 24.6063918,43.876239 C25.6783696,42.928578 26.3529412,41.5427513 26.3529412,40 C26.3529412,37.1407133 24.0357573,34.8235294 21.1764706,34.8235294 Z" id="Path" fill="#FFFFFF" fill-rule="nonzero"></path>
            <path d="M24.4368849,43.4302984 C24.1513653,43.2296127 23.6330374,42.8965159 23.0685871,42.6503139 C22.5041368,42.4061808 22.1724948,41.8330888 22.2625433,41.2558589 C22.2625433,41.2475832 22.2647396,41.2393075 22.2669359,41.2289629 C22.2669359,41.2289629 23.5517741,40.4096688 23.3738735,39.611064 C23.3738735,39.611064 23.4134069,39.6131329 23.4727072,39.6089951 C24.0393538,39.5593409 24.0744947,38.7648739 23.514437,38.680048 C23.5100444,38.680048 23.5034554,38.6779791 23.4990628,38.6779791 L23.4814924,38.5910843 C23.6528042,38.0262679 24.0701021,36.3152674 22.8072268,36.4807814 C22.8072268,36.4807814 21.900153,35.067706 19.982779,35.7483822 C18.0632087,36.4269894 18.5639661,38.0469571 18.5639661,38.0469571 L18.801167,38.6924616 C18.2850354,38.8124592 18.3333541,39.5634787 18.8824303,39.611064 C18.9417305,39.6152018 18.9834603,39.6131329 18.9834603,39.6131329 C18.8033633,40.4117377 20.0882016,41.2310318 20.0882016,41.2310318 C20.0903979,41.2413764 20.0903979,41.2496521 20.0925942,41.2579278 C20.1804464,41.8351577 19.8488044,42.4082498 19.2865504,42.6523828 C18.7199038,42.8985848 18.2037722,43.2337506 17.9182525,43.4323673 C17.7469408,43.550296 17.5953957,43.6930518 17.4789916,43.8606347 C18.4673287,44.6778598 19.7609522,45.1764706 21.1775687,45.1764706 C22.5963816,45.1764706 23.8900051,44.6778598 24.8739496,43.8564968 C24.7597417,43.6909829 24.6081967,43.5482271 24.4368849,43.4302984 Z" id="Path" fill="#415C6B" fill-rule="nonzero"></path>
            <path d="M21.1764706,53.6470588 C18.3171839,53.6470588 16,55.9642427 16,58.8235294 C16,60.3662807 16.6745716,61.7521075 17.7465493,62.7018064 C18.6616026,63.5088467 19.8619731,64 21.1764706,64 C22.493006,64 23.6933766,63.5088467 24.6063918,62.6997684 C25.6783696,61.7521075 26.3529412,60.3662807 26.3529412,58.8235294 C26.3529412,55.9642427 24.0357573,53.6470588 21.1764706,53.6470588 Z" id="Path" fill="#FFFFFF" fill-rule="nonzero"></path>
            <path d="M24.4368849,62.2538278 C24.1513653,62.0531422 23.6330374,61.7200453 23.0685871,61.4738433 C22.5041368,61.2297102 22.1724948,60.6566182 22.2625433,60.0793883 C22.2625433,60.0711126 22.2647396,60.0628369 22.2669359,60.0524923 C22.2669359,60.0524923 23.5517741,59.2331982 23.3738735,58.4345934 C23.3738735,58.4345934 23.4134069,58.4366623 23.4727072,58.4325245 C24.0393538,58.3828703 24.0744947,57.5884033 23.514437,57.5035774 C23.5100444,57.5035774 23.5034554,57.5015085 23.4990628,57.5015085 L23.4814924,57.4146137 C23.6528042,56.8497973 24.0701021,55.1387968 22.8072268,55.3043108 C22.8072268,55.3043108 21.900153,53.8912354 19.982779,54.5719116 C18.0632087,55.2505188 18.5639661,56.8704866 18.5639661,56.8704866 L18.801167,57.515991 C18.2850354,57.6359886 18.3333541,58.3870081 18.8824303,58.4345934 C18.9417305,58.4387312 18.9834603,58.4366623 18.9834603,58.4366623 C18.8033633,59.2352671 20.0882016,60.0545612 20.0882016,60.0545612 C20.0903979,60.0649058 20.0903979,60.0731815 20.0925942,60.0814572 C20.1804464,60.6586871 19.8488044,61.2317792 19.2865504,61.4759122 C18.7199038,61.7221142 18.2037722,62.05728 17.9182525,62.2558967 C17.7469408,62.3738254 17.5953957,62.5165812 17.4789916,62.6841641 C18.4673287,63.5013892 19.7609522,64 21.1775687,64 C22.5963816,64 23.8900051,63.5013892 24.8739496,62.6800262 C24.7597417,62.5145123 24.6081967,62.3717565 24.4368849,62.2538278 Z" id="Path" fill="#415C6B" fill-rule="nonzero"></path>
            <path d="M80.9611284,38.6803984 L78.474381,41.9415807 C77.9828266,42.5866259 78.1316382,43.4894915 78.8071891,43.9587051 C79.0764574,44.1454027 79.3881546,44.2352941 79.6961263,44.2352941 C80.164086,44.2352941 80.6248018,44.0292353 80.9207692,43.6414179 L83.4271788,40.3543548 C85.0727992,41.1918269 86.9496053,41.6683503 88.9416939,41.6683503 C95.4285552,41.6683503 100.705882,36.6306761 100.705882,30.4384402 C100.705882,27.2815715 99.3324278,24.4271726 97.1288157,22.3849577 L100.248685,18.2936131 C100.740239,17.648568 100.591221,16.7458999 99.9160839,16.2764888 C99.2386703,15.8068801 98.2934372,15.9503113 97.8031247,16.5941711 L94.706436,20.6552884 C93.0007942,19.7356298 91.0349909,19.2085302 88.941073,19.2085302 C82.4540047,19.2085302 77.1764706,24.2462044 77.1764706,30.4382427 C77.1764706,33.6934981 78.6356108,36.6277126 80.9611284,38.6803984 Z M97.6803914,30.4382427 C97.6803914,35.0383135 93.760375,38.7805632 88.940866,38.7805632 C87.6148077,38.7805632 86.3618099,38.4887617 85.2350639,37.9826038 L95.3205167,24.7555233 C96.7798639,26.2467334 97.6803914,28.2421257 97.6803914,30.4382427 Z M88.941073,22.0963173 C90.3693746,22.0963173 91.7150951,22.4317803 92.9064158,23.0141978 L82.7559743,36.3262306 C81.1782402,34.816252 80.2011337,32.7343268 80.2011337,30.4386378 C80.2017546,25.838567 84.1219779,22.0963173 88.941073,22.0963173 Z" id="Shape" fill="#FFFFFF" fill-rule="nonzero"></path>
        </g>
    </g>
</svg>