<?xml version="1.0" encoding="UTF-8"?>
<svg viewBox="0 0 113 87" version="1.1" xmlns="http://www.w3.org/2000/svg" xmlns:xlink="http://www.w3.org/1999/xlink">
    <title>Group 39</title>
    <g id="Newsletter-Mockup" stroke="none" stroke-width="1" fill="none" fill-rule="evenodd">
        <g id="Group-39" transform="translate(0.400000, 0.700415)" fill-rule="nonzero">
            <path d="M6.61538462,4.97379915e-14 L79.3846154,4.97379915e-14 C83.0379359,4.97379915e-14 86,2.43853649 86,5.44615385 L86,55.8230769 C86,58.8306943 83.0379359,61.2692308 79.3846154,61.2692308 L6.61538462,61.2692308 C2.9620641,61.2692308 0,58.8306943 0,55.8230769 L0,5.44615385 C0,2.43853649 2.9620641,4.97379915e-14 6.61538462,4.97379915e-14 Z" id="Path" fill="#656565"></path>
            <path d="M32.1076923,41.1865385 L53.8923077,41.1865385 C56.899925,41.1865385 59.3384615,43.625075 59.3384615,46.6326923 C59.3384615,49.6403097 56.899925,52.0788462 53.8923077,52.0788462 L32.1076923,52.0788462 C29.100075,52.0788462 26.6615385,49.6403097 26.6615385,46.6326923 C26.6615385,43.625075 29.100075,41.1865385 32.1076923,41.1865385 Z" id="Path" fill="#FFFFFF"></path>
            <polygon id="Path" fill="#FFFFFF" points="46 12.2961538 76 12.2961538 76 21.1461538 46 21.1461538"></polygon>
            <polygon id="Path" fill="#FFFFFF" points="10 12.2961538 40 12.2961538 40 21.1461538 10 21.1461538"></polygon>
            <polygon id="Path" fill="#FFFFFF" points="10 26.55 76 26.55 76 35.4 10 35.4"></polygon>
            <ellipse id="Oval" fill="#339BB2" cx="87.1" cy="61.2995847" rx="24.5" ry="24"></ellipse>
            <path d="M78.6211989,70.397508 L75.9790298,73.8625142 C75.4567533,74.5478747 75.6148656,75.5071695 76.3326384,76.0057089 C76.618736,76.2040751 76.9499142,76.2995847 77.2771342,76.2995847 C77.7743414,76.2995847 78.2638519,76.0806472 78.5783173,75.6685913 L81.2413775,72.1760867 C82.9898491,73.0659008 84.9839557,73.5722069 87.1005498,73.5722069 C93.9928399,73.5722069 99.6,68.219678 99.6,61.6404274 C99.6,58.2862544 98.1407046,55.2534556 95.7993667,53.0836023 L99.1142279,48.7365487 C99.6365044,48.0511882 99.4781721,47.0921034 98.7608392,46.593354 C98.0410872,46.0943948 97.0367771,46.2467905 96.51582,46.9308915 L93.2255882,51.2458286 C91.4133439,50.2686914 89.3246778,49.708648 87.09989,49.708648 C80.20738,49.708648 74.6,55.0611768 74.6,61.6402175 C74.6,65.0989264 76.1503365,68.2165294 78.6211989,70.397508 Z M96.3854158,61.6402175 C96.3854158,66.5277928 92.2203985,70.5039331 87.0996701,70.5039331 C85.6907332,70.5039331 84.359423,70.193894 83.1622554,69.6561012 L93.878049,55.6023282 C95.4286054,57.1867389 96.3854158,59.3068433 96.3854158,61.6402175 Z M87.09989,52.7769218 C88.6174605,52.7769218 90.0472886,53.1333512 91.3130668,53.7521698 L80.5282227,67.8962047 C78.8518802,66.2918525 77.8137045,64.0798069 77.8137045,61.6406374 C77.8143643,56.7530621 81.9796015,52.7769218 87.09989,52.7769218 Z" id="Shape" fill="#FFFFFF"></path>
        </g>
    </g>
</svg>
