<?xml version="1.0" encoding="UTF-8"?>
<svg viewBox="0 0 318 221" version="1.1" xmlns="http://www.w3.org/2000/svg" xmlns:xlink="http://www.w3.org/1999/xlink">
    <title>Group 6</title>
    <g id="Page-1" stroke="none" stroke-width="1" fill="none" fill-rule="evenodd">
        <g id="NO-Favorite-CoP" transform="translate(-503.000000, -374.000000)">
            <g id="Group-6" transform="translate(505.044000, 376.006000)">
                <g id="Group-3" transform="translate(71.956000, 30.994000)">
                    <g id="Group-2" transform="translate(0.000000, 9.000000)">
                        <path d="M72,0 C81.1854097,0 89.9690809,1.72004715 98.0464905,4.85561848 C94.8121526,11.553337 93,19.065043 93,27 C93,55.0840918 115.700027,77.8663081 143.752846,77.9994138 C140.705556,114.956335 109.744534,144 72,144 C32.235498,144 -2.84217094e-14,111.764502 -2.84217094e-14,72 C-2.84217094e-14,32.235498 32.235498,0 72,0 Z" id="Combined-Shape" fill="#E0E2EE" fill-rule="nonzero"></path>
                        <path d="M76.8595414,41.3069959 L85.3122318,60.9566287 L101.762671,60.9566287 C103.479187,60.8734509 105.060544,61.8859943 105.704928,63.4808561 C106.349311,65.0757179 105.915795,66.9041042 104.62419,68.038945 L90.3165938,80.7646729 L98.2286286,99.0018026 C98.9425954,100.710011 98.4887404,102.683787 97.1005808,103.907583 C95.7124212,105.131378 93.6992173,105.332553 92.0968016,104.407597 L72.976051,93.6158099 L53.8553004,104.407597 C52.2519845,105.348154 50.2270917,105.154632 48.8305106,103.927371 C47.4339294,102.700109 46.979844,100.715201 47.7036934,99.0018026 L55.6157281,80.7712734 L41.3740656,68.038945 C40.0882219,66.9078576 39.6535596,65.0885588 40.2890221,63.4974459 C40.9244845,61.906333 42.4922488,60.888496 44.202618,60.9566287 L60.6860237,60.9566287 L69.1387142,41.3069959 C69.9054317,39.8857981 71.3889485,39 73.0024245,39 C74.6159004,39 76.0994172,39.8857981 76.8661348,41.3069959 L76.8595414,41.3069959 Z" id="Shape-12" fill="#F1F2F7"></path>
                    </g>
                    <path d="M141,0 C120.01318,0 103,17.0131795 103,38 C103,58.9868205 120.01318,76 141,76 C161.98682,76 179,58.9868205 179,38 C178.976538,17.0229056 161.977094,0.0234623452 141,0 L141,0 Z M151.666667,43.3333333 L146.333333,43.3333333 L146.333333,48.6666667 C146.333333,51.6121853 143.945519,54 141,54 C138.054481,54 135.666667,51.6121853 135.666667,48.6666667 L135.666667,43.3333333 L130.333333,43.3333333 C127.387815,43.3333333 125,40.9455187 125,38 C125,35.0544813 127.387815,32.6666667 130.333333,32.6666667 L135.666667,32.6666667 L135.666667,27.3333333 C135.666667,24.3878147 138.054481,22 141,22 C143.945519,22 146.333333,24.3878147 146.333333,27.3333333 L146.333333,32.6666667 L151.666667,32.6666667 C154.612185,32.6666667 157,35.0544813 157,38 C157,40.9455187 154.612185,43.3333333 151.666667,43.3333333 L151.666667,43.3333333 Z" id="Path_534" fill="#339BB2" fill-rule="nonzero"></path>
                </g>
                <path d="M258.98,167.712 C260.360712,167.712 261.48,168.831288 261.48,170.212 C261.48,171.592712 260.360712,172.712 258.98,172.712 C257.599288,172.712 256.48,171.592712 256.48,170.212" id="Stroke_22" stroke="#D2D8DF" stroke-width="2.921" stroke-linecap="round"></path>
                <path d="M306.254,124.108 C308.227227,123.381022 309.790617,121.83768 310.543,119.874 C311.021,121.602 313.024,123.645 314.831,123.799 C312.779423,124.573291 311.198079,126.248306 310.543,128.341 C310.333,126.627 307.642,124.358 306.254,124.108" id="Fill_26" fill="#EBECEE" fill-rule="nonzero"></path>
                <path d="M6.956,164.142 C7.94253143,163.77856 8.72408701,163.006846 9.1,162.025 C9.41698903,163.012601 10.2323422,163.75912 11.244,163.988 C10.2183505,164.374808 9.4276707,165.211955 9.1,166.258 C8.75236497,165.258209 7.96027389,164.476463 6.956,164.142" id="Fill_28" fill="#EBECEE" fill-rule="nonzero"></path>
                <path d="M20.741,7.397 C20.7409999,8.18174773 20.2682258,8.88920531 19.5431747,9.18942177 C18.8181236,9.48963822 17.9836166,9.32347669 17.4288592,8.76843321 C16.8741019,8.21338973 16.7083706,7.37879718 17.0089609,6.65390097 C17.3095511,5.92900476 18.0172524,5.45659549 18.802,5.45699974 C19.31652,5.45699974 19.8099666,5.66139227 20.1737872,6.02521284 C20.5376077,6.38903342 20.742,6.88248001 20.742,7.397" id="Fill_30" fill="#D1D8DF" fill-rule="nonzero"></path>
                <path d="M260.811,12.607 C260.810448,14.3973769 259.35871,15.8483681 257.568334,15.848 C255.777957,15.8476318 254.326816,14.3960437 254.327,12.6056668 C254.327184,10.8152898 255.778623,9.364 257.569,9.364 C258.429005,9.364 259.253772,9.7057041 259.861794,10.3139133 C260.469816,10.9221226 260.811265,11.7469949 260.811,12.607" id="Fill_32" fill="#EBECEE" fill-rule="nonzero"></path>
                <path d="M89.138,213.26 C89.138,214.155254 88.4122536,214.881 87.517,214.881 C86.6217464,214.881 85.896,214.155254 85.896,213.26 C85.896,212.364746 86.6217464,211.639 87.517,211.639 C87.9469159,211.639 88.3592236,211.809783 88.6632201,212.11378 C88.9672166,212.417776 89.138,212.830084 89.138,213.26 Z" id="Stroke_36" stroke="#D2D8DF" stroke-width="2.921" stroke-linecap="round"></path>
                <path d="M92.025,14.934 C92.025,15.7187477 91.5522258,16.4262053 90.8271747,16.7264218 C90.1021236,17.0266382 89.2676166,16.8604767 88.7128592,16.3054332 C88.1581019,15.7503897 87.9923706,14.9157972 88.2929609,14.190901 C88.5935511,13.4660048 89.3012524,12.9935955 90.086,12.9939997 C91.1570419,12.9945521 92.025,13.862958 92.025,14.934 L92.025,14.934 Z" id="Stroke_38" stroke="#D2D8DF" stroke-width="2.921" stroke-linecap="round"></path>
                <path d="M176.793,217.216 C175.554417,217.68635 174.16899,217.064078 173.697848,215.825796 C173.226706,214.587514 173.848092,213.201689 175.086073,212.729756 C176.324053,212.257822 177.710275,212.878321 178.183,214.116 C178.410398,214.711368 178.391654,215.372735 178.130902,215.954269 C177.87015,216.535803 177.388804,216.989745 176.793,217.216 Z" id="Stroke_40" stroke="#D2D8DF" stroke-width="2.921" stroke-linecap="round"></path>
                <line x1="5.551" y1="111.015" x2="5.551" y2="112.749" id="Stroke_1" stroke="#D2D8DF" stroke-width="2.921" stroke-linecap="round"></line>
                <g id="Group_8" transform="translate(0.000000, 114.813000)" stroke="#D2D8DF" stroke-linecap="round" stroke-width="2.921">
                    <line x1="1.657" y1="0" x2="3.074" y2="1.458" id="Stroke_2"></line>
                    <line x1="0" y1="3.882" x2="2" y2="3.882" id="Stroke_4"></line>
                    <line x1="1.495" y1="7.833" x2="2.912" y2="6.375" id="Stroke_6"></line>
                </g>
                <line x1="6.551" y1="124.75" x2="6.551" y2="123.016" id="Stroke_9" stroke="#D2D8DF" stroke-width="2.921" stroke-linecap="round"></line>
                <line x1="9.441" y1="122.959" x2="8.285" y2="121.803" id="Stroke_10" stroke="#D2D8DF" stroke-width="2.921" stroke-linecap="round"></line>
                <line x1="11.753" y1="118.395" x2="10.019" y2="118.395" id="Stroke_11" stroke="#D2D8DF" stroke-width="2.921" stroke-linecap="round"></line>
                <line x1="9.597" y1="112.817" x2="8.441" y2="113.973" id="Stroke_12" stroke="#D2D8DF" stroke-width="2.921" stroke-linecap="round"></line>
                <g id="Group_2001" transform="translate(144.000000, -0.000000)" stroke="#D2D8DF" stroke-linecap="round" stroke-width="2.921">
                    <line x1="5.867" y1="0" x2="5.867" y2="1.156" id="Stroke_13"></line>
                    <line x1="0.287" y1="3.468" x2="1.443" y2="3.468" id="Stroke_15"></line>
                    <line x1="5.867" y1="6.935" x2="5.867" y2="5.779" id="Stroke_16"></line>
                    <line x1="10.426" y1="3.468" x2="9.27" y2="3.468" id="Stroke_17"></line>
                </g>
                <line x1="41.558" y1="64.009" x2="41.558" y2="65.743" id="Stroke_18" stroke="#D2D8DF" stroke-width="2.921" stroke-linecap="round"></line>
                <line x1="36.357" y1="72.598" x2="38.091" y2="72.598" id="Stroke_19" stroke="#D2D8DF" stroke-width="2.921" stroke-linecap="round"></line>
                <line x1="41.558" y1="79.745" x2="41.558" y2="78.011" id="Stroke_20" stroke="#D2D8DF" stroke-width="2.921" stroke-linecap="round"></line>
                <line x1="46.182" y1="72.598" x2="44.448" y2="72.598" id="Stroke_21" stroke="#D2D8DF" stroke-width="2.921" stroke-linecap="round"></line>
            </g>
        </g>
    </g>
</svg>
