<?xml version="1.0" encoding="UTF-8"?>
<svg viewBox="0 0 22 19" version="1.1" xmlns="http://www.w3.org/2000/svg" xmlns:xlink="http://www.w3.org/1999/xlink">
    <g stroke="none" stroke-width="1" fill="none" fill-rule="evenodd" stroke-linecap="round" stroke-linejoin="round">
        <g transform="translate(-93.000000, -349.000000)" stroke="currentColor">
            <g transform="translate(94.000000, 310.000000)">
                <g transform="translate(0.000000, 40.000000)">
                    <rect x="-6.65341161e-13" y="1.65847504e-13" width="20" height="16.5217391" rx="2"></rect>
                    <line x1="-6.65341161e-13" y1="4.34782609" x2="20" y2="4.34782609"></line>
                    <path d="M2.62956522,1.95651998 C2.74962712,1.95651998 2.84695652,2.05385114 2.84695652,2.17391304 C2.84695652,2.29397495 2.74962712,2.39130435 2.62956522,2.39130435 C2.50950332,2.39130435 2.41217216,2.29397495 2.41217216,2.17391304 C2.41194161,2.11618638 2.43477067,2.06075698 2.47558991,2.01993774 C2.51640915,1.97911849 2.57183856,1.95628944 2.62956522,1.95651998"></path>
                    <path d="M5.23826087,1.95651998 C5.35832277,1.95651998 5.45565217,2.05385114 5.45565217,2.17391304 C5.45565217,2.29397495 5.35832277,2.39130435 5.23826087,2.39130435 C5.11819897,2.39130435 5.02086781,2.29397495 5.02086781,2.17391304 C5.02063726,2.11618638 5.04346632,2.06075698 5.08428556,2.01993774 C5.1251048,1.97911849 5.18053421,1.95628944 5.23826087,1.95651998"></path>
                    <circle cx="10" cy="10" r="1"></circle>
                    <path d="M10.7382609,6.63652174 L10.9947826,7.47826087 C11.0826479,7.7683979 11.3802001,7.940925 11.6756522,7.87304348 L12.5286957,7.67478261 C12.8606891,7.60022632 13.2025507,7.75049401 13.3720978,8.04550598 C13.541645,8.34051796 13.4993798,8.71154817 13.2678261,8.96086957 L12.6704348,9.60521739 C12.4644876,9.82811693 12.4644876,10.1718831 12.6704348,10.3947826 L13.2678261,11.0391304 C13.4993798,11.2884518 13.541645,11.659482 13.3720978,11.954494 C13.2025507,12.249506 12.8606891,12.3997737 12.5286957,12.3252174 L11.6756522,12.1269565 C11.3802686,12.0595277 11.0830068,12.2318865 10.9947826,12.5217391 L10.7382609,13.3634783 C10.6418266,13.6913652 10.3409044,13.9165287 9.99913043,13.9165287 C9.65735651,13.9165287 9.35643425,13.6913652 9.26,13.3634783 L9.00347826,12.5217391 C8.91525408,12.2318865 8.61799223,12.0595277 8.3226087,12.1269565 L7.46956522,12.3252174 C7.13757177,12.3997737 6.79571013,12.249506 6.62616302,11.954494 C6.45661591,11.659482 6.49888105,11.2884518 6.73043478,11.0391304 L7.32782609,10.3947826 C7.5337733,10.1718831 7.5337733,9.82811693 7.32782609,9.60521739 L6.73043478,8.96086957 C6.49888105,8.71154817 6.45661591,8.34051796 6.62616302,8.04550598 C6.79571013,7.75049401 7.13757177,7.60022632 7.46956522,7.67478261 L8.3226087,7.87304348 C8.61806073,7.940925 8.91561297,7.7683979 9.00347826,7.47826087 L9.26,6.63652174 C9.35643425,6.30863479 9.65735651,6.0834713 9.99913043,6.0834713 C10.3409044,6.0834713 10.6418266,6.30863479 10.7382609,6.63652174 Z"></path>
                </g>
            </g>
        </g>
    </g>
</svg>
