<?xml version="1.0" encoding="UTF-8"?>
<svg viewBox="0 0 40 40" version="1.1" xmlns="http://www.w3.org/2000/svg" xmlns:xlink="http://www.w3.org/1999/xlink">
    <g stroke="none" stroke-width="1" fill="none" fill-rule="evenodd">
        <g transform="translate(-771.000000, -439.000000)" fill-rule="nonzero">
            <g transform="translate(771.000000, 439.000000)">
                <path d="M20,0 C31.0456,0 40,8.954 40,20 C40,31.0452 31.0456,40 20,40 C8.9544,40 0,31.0452 0,20 C0,8.954 8.9544,0 20,0 Z" id="Path" fill="#EFC75E"></path>
                <path d="M21.2,23.3696 C21.2,19.5184 17.3496,16.3956 12.6,16.3956 C7.8504,16.3956 4,19.518 4,23.3696 C4,27.2212 7.8504,30.3432 12.6,30.3432 C13.0176,30.3432 13.4248,30.3112 13.8264,30.2644 C15.6128,31.656 17.4132,31.998 17.4372,31.956 C16.8096,31.3092 16.4276,30.4888 16.192,29.7004 C19.1456,28.596 21.2,26.1804 21.2,23.3696 Z" id="Path" fill="#E37948"></path>
                <path d="M9.8,22.4 C9.2476,22.4 8.8,22.8476 8.8,23.4 C8.8,23.9524 9.2476,24.4 9.8,24.4 C10.3524,24.4 10.8,23.9524 10.8,23.4 C10.8,22.8476 10.3524,22.4 9.8,22.4 Z M13,22.4 C12.4476,22.4 12,22.8476 12,23.4 C12,23.9524 12.4476,24.4 13,24.4 C13.5524,24.4 14,23.9524 14,23.4 C14,22.8476 13.5524,22.4 13,22.4 Z" id="Shape" fill="#F1BCA4"></path>
                <path d="M21.2,23.3696 C21.2,20.1372 18.484,17.426 14.8044,16.6356 L14.8,16.7676 C14.8,20.4604 17.1852,23.6972 20.772,25.534 C21.0468,24.8524 21.2,24.1264 21.2,23.3696 L21.2,23.3696 Z" id="Path" fill="#CC6D41"></path>
                <path d="M5.2,23.3288 C5.2,20.3724 7.2584,17.8308 10.2176,16.6724 C6.628,17.5112 4,20.1892 4,23.3696 C4,26.7164 6.9084,29.5096 10.786,30.1844 C7.5252,29.1428 5.2,26.4712 5.2,23.3288 L5.2,23.3288 Z" id="Path" fill="#D17042"></path>
                <path d="M35.1788,6.9772 C33.3008,6.1 31.1236,5.5956 28.8,5.5956 C21.7308,5.5956 16,10.2392 16,15.9672 C16,20.148 19.0552,23.7488 23.454,25.3892 C23.1032,26.5592 22.532,27.7764 21.6,28.736 C21.636,28.7976 24.3076,28.29 26.9616,26.2296 C27.5624,26.3 28.1756,26.3376 28.8,26.3376 C33.5996,26.3376 37.7796,24.196 39.9704,21.0296 C39.9896,20.6748 40,20.318 40,19.958 C40,14.9992 38.1816,10.4668 35.1788,6.9772 L35.1788,6.9772 Z" id="Path" fill="#26A6D1"></path>
                <path d="M23.2,14.4 C22.3164,14.4 21.6,15.1168 21.6,16.0004 C21.6,16.8848 22.3164,17.6004 23.2,17.6004 C24.0836,17.6004 24.8,16.8848 24.8,16.0004 C24.8,15.1168 24.0836,14.4 23.2,14.4 Z M28.8,14.4 C27.9164,14.4 27.2,15.1168 27.2,16.0004 C27.2,16.8848 27.9164,17.6004 28.8,17.6004 C29.6836,17.6004 30.4,16.8848 30.4,16.0004 C30.4,15.1168 29.6836,14.4 28.8,14.4 Z M34.4,14.4 C33.5164,14.4 32.8,15.1168 32.8,16.0004 C32.8,16.8848 33.5164,17.6004 34.4,17.6004 C35.2836,17.6004 36,16.8848 36,16.0004 C36,15.1168 35.2836,14.4 34.4,14.4 Z" id="Shape" fill="#FFFFFF"></path>
                <path d="M22.8,28.336 C23.732,27.3768 24.3032,26.1596 24.654,24.9892 C20.2552,23.3484 17.2,19.748 17.2,15.5668 C17.2,11.424 20.1992,7.8496 24.5332,6.188 C19.5624,7.6124 16,11.4516 16,15.9668 C16,20.1476 19.0552,23.7484 23.454,25.3888 C23.1032,26.5592 22.532,27.7764 21.6,28.736 C21.6192,28.7688 22.3752,28.64 23.472,28.2112 C23.0608,28.3204 22.8108,28.3548 22.8,28.336 L22.8,28.336 Z" id="Path" fill="#2295BC"></path>
                <g transform="translate(21.200000, 14.800000)" fill="#2295BC">
                    <path d="M2,2.8 C1.1164,2.8 0.4,2.0844 0.4,1.2 C0.4,0.86 0.5076,0.5464 0.6884,0.2872 C0.2732,0.5768 0,1.056 0,1.6 C0,2.4844 0.7164,3.2 1.6,3.2 C2.144,3.2 2.6236,2.9272 2.9124,2.512 C2.6536,2.6928 2.34,2.8 2,2.8 Z M7.6,2.8 C6.7164,2.8 6,2.0844 6,1.2 C6,0.86 6.1076,0.5464 6.2884,0.2872 C5.8732,0.5768 5.6,1.056 5.6,1.6 C5.6,2.4844 6.3164,3.2 7.2,3.2 C7.744,3.2 8.2236,2.9272 8.5124,2.512 C8.2536,2.6928 7.94,2.8 7.6,2.8 Z M13.2,2.8 C12.3164,2.8 11.6,2.0844 11.6,1.2 C11.6,0.86 11.7076,0.5464 11.8884,0.2872 C11.4732,0.5768 11.2,1.056 11.2,1.6 C11.2,2.4844 11.9164,3.2 12.8,3.2 C13.344,3.2 13.8236,2.9272 14.1124,2.512 C13.8536,2.6928 13.54,2.8 13.2,2.8 Z" id="Shape"></path>
                </g>
            </g>
        </g>
    </g>
</svg>
