<?xml version="1.0" encoding="UTF-8"?>
<svg viewBox="0 0 40 40" version="1.1" xmlns="http://www.w3.org/2000/svg" xmlns:xlink="http://www.w3.org/1999/xlink">
    <title>file activity</title>
    <g id="New-Quiz-and-Optional-Activities" stroke="none" stroke-width="1" fill="none" fill-rule="evenodd">
        <g id="file-activity" fill-rule="nonzero">
            <path d="M20,0 C8.9544,0 0,8.9544 0,20 C0,31.0456 8.9544,40 20,40 C31.0456,40 40,31.0456 40,20 C40,8.9544 31.0456,0 20,0 Z" id="Path" fill="#00243C"></path>
            <path d="M18.2916667,26.2105263 C16.3391667,26.2105263 14.75,24.6046316 14.75,22.6315789 L14.75,14 L13.2916667,14 C12.0275,14 11,15.0383158 11,16.3157895 L11,27.6842105 C11,28.9616842 12.0275,30 13.2916667,30 L23.7083333,30 C24.9725,30 26,28.9616842 26,27.6842105 L26,26.2105263 L18.2916667,26.2105263 Z" id="Path" fill="#FEBD95"></path>
            <path d="M30,11.4444444 C30,10.0942222 28.922875,9 27.59375,9 L18.40625,9 C17.077125,9 16,10.0942222 16,11.4444444 L16,22.5555556 C16,23.9057778 17.077125,25 18.40625,25 L27.59375,25 C28.922875,25 30,23.9057778 30,22.5555556 L30,11.4444444 Z" id="Path" fill="#FFFFFF"></path>
        </g>
    </g>
</svg>
