<?xml version="1.0" encoding="UTF-8"?>
<svg viewBox="0 0 40 40" version="1.1" xmlns="http://www.w3.org/2000/svg" xmlns:xlink="http://www.w3.org/1999/xlink">
    <g stroke="none" stroke-width="1" fill="none" fill-rule="evenodd">
        <g transform="translate(-585.000000, -254.000000)" fill-rule="nonzero">
            <g transform="translate(585.000000, 254.000000)">
                <path d="M20,0 C8.9544,0 0,8.9544 0,20 C0,31.0456 8.9544,40 20,40 C31.0456,40 40,31.0456 40,20 C40,8.9544 31.0456,0 20,0 Z" id="Path" fill="#3DB39E"></path>
                <g transform="translate(11.000000, 9.000000)">
                    <path d="M7.29166667,17.2105263 C5.33916667,17.2105263 3.75,15.6046316 3.75,13.6315789 L3.75,5 L2.29166667,5 C1.0275,5 0,6.03831579 0,7.31578947 L0,18.6842105 C0,19.9616842 1.0275,21 2.29166667,21 L12.7083333,21 C13.9725,21 15,19.9616842 15,18.6842105 L15,17.2105263 L7.29166667,17.2105263 Z" id="Path" fill="#E2574C"></path>
                    <path d="M19,2.44444444 C19,1.09422222 17.922875,0 16.59375,0 L7.40625,0 C6.077125,0 5,1.09422222 5,2.44444444 L5,13.5555556 C5,14.9057778 6.077125,16 7.40625,16 L16.59375,16 C17.922875,16 19,14.9057778 19,13.5555556 L19,2.44444444 Z" id="Path" fill="#324D5B"></path>
                </g>
            </g>
        </g>
    </g>
</svg>
