<svg xmlns="http://www.w3.org/2000/svg" viewBox="0 0 74.64 76.571"><g transform="translate(0.001)"><g transform="translate(63.057 13.512)"><path d="M56.5,17.9a.644.644,0,0,1-.643-.643v-.643a2.576,2.576,0,0,0-2.574-2.574h-.643a.643.643,0,1,1,0-1.287h.643a3.865,3.865,0,0,1,3.861,3.861v.643A.644.644,0,0,1,56.5,17.9Z" transform="translate(-52 -12.75)" fill="#263238"/></g><g transform="translate(9.007 7.077)"><path d="M20.152,21.119H10.5L23.369,8.25V17.9A3.217,3.217,0,0,1,20.152,21.119Z" transform="translate(-9.856 -7.606)" fill="#40c4ff"/><path d="M20.3,21.906H10.644a.644.644,0,0,1-.456-1.1L23.057,7.938a.644.644,0,0,1,1.1.456v9.652A3.865,3.865,0,0,1,20.3,21.906Zm-8.1-1.287h8.1a2.576,2.576,0,0,0,2.574-2.574v-8.1Z" transform="translate(-10 -7.749)" fill="#263238"/></g><g transform="translate(9.007 7.078)"><path d="M58.9,70.808H13.861A3.865,3.865,0,0,1,10,66.948V21.262a.648.648,0,0,1,.188-.456L23.057,7.938a.648.648,0,0,1,.456-.188H58.9a3.865,3.865,0,0,1,3.861,3.861v7.078a.643.643,0,1,1-1.287,0V11.611A2.576,2.576,0,0,0,58.9,9.037H23.779L11.287,21.529V66.948a2.576,2.576,0,0,0,2.574,2.574H58.9a2.576,2.576,0,0,0,2.574-2.574V39.279a.643.643,0,0,1,1.287,0V66.948A3.865,3.865,0,0,1,58.9,70.808Z" transform="translate(-10 -7.75)" fill="#263238"/></g><g transform="translate(15.442 37.964)"><path d="M63.9,70.357H18.861A3.865,3.865,0,0,1,15,66.5v-.643a.643.643,0,1,1,1.287,0V66.5a2.576,2.576,0,0,0,2.574,2.574H63.9A2.576,2.576,0,0,0,66.476,66.5v-34.1a.643.643,0,0,1,1.287,0V66.5A3.865,3.865,0,0,1,63.9,70.357Z" transform="translate(-15 -31.75)" fill="#263238"/></g><g transform="translate(27.024 19.947)"><path d="M80.9,33.693H38.43c-1.066,0-1.93-.577-1.93-1.287V19.537c0-.71.865-1.287,1.93-1.287H80.9c1.066,0,1.93.577,1.93,1.287V32.406C82.828,33.116,81.964,33.693,80.9,33.693Z" transform="translate(-35.857 -17.607)" fill="#ffd740"/><path d="M80.758,34.48h-41.9c-1.575,0-2.857-.866-2.857-1.93V19.68c0-1.064,1.282-1.93,2.857-1.93h41.9c1.575,0,2.857.866,2.857,1.93V32.549C83.615,33.614,82.334,34.48,80.758,34.48Zm-41.9-15.443c-.526,0-.952.29-.952.643V32.549c0,.354.427.643.952.643h41.9c.526,0,.952-.29.952-.643V19.68c0-.354-.427-.643-.952-.643Z" transform="translate(-36 -17.75)" fill="#263238"/></g><g transform="translate(15.442 41.181)"><path d="M54.251,35.537H15.643a.643.643,0,0,1,0-1.287H54.251a.643.643,0,0,1,0,1.287Z" transform="translate(-15 -34.25)" fill="#263238"/></g><g transform="translate(15.442 47.615)"><path d="M54.251,40.537H15.643a.643.643,0,1,1,0-1.287H54.251a.643.643,0,1,1,0,1.287Z" transform="translate(-15 -39.25)" fill="#263238"/></g><g transform="translate(15.442 54.05)"><path d="M54.251,45.537H15.643a.643.643,0,0,1,0-1.287H54.251a.643.643,0,0,1,0,1.287Z" transform="translate(-15 -44.25)" fill="#263238"/></g><g transform="translate(9.007 2.574)"><path d="M15.791,5.537H10.643a.643.643,0,0,1,0-1.287h5.148a.643.643,0,1,1,0,1.287Z" transform="translate(-10 -4.25)" fill="#263238"/></g><g transform="translate(11.581 0)"><path d="M12.643,8.685A.644.644,0,0,1,12,8.041V2.893a.643.643,0,0,1,1.287,0V8.041A.644.644,0,0,1,12.643,8.685Z" transform="translate(-12 -2.25)" fill="#263238"/></g><g transform="translate(-0.001 10.939)"><path d="M8.791,12.037H3.643a.643.643,0,0,1,0-1.287H8.791a.643.643,0,1,1,0,1.287Z" transform="translate(-3 -10.75)" fill="#263238"/></g><g transform="translate(2.573 8.365)"><path d="M5.643,15.185A.644.644,0,0,1,5,14.541V9.393a.643.643,0,1,1,1.287,0v5.148A.644.644,0,0,1,5.643,15.185Z" transform="translate(-5 -8.75)" fill="#263238"/></g><g transform="translate(50.188 1.93)"><path d="M43.93,5.037H42.643a.643.643,0,1,1,0-1.287H43.93a.643.643,0,0,1,0,1.287Z" transform="translate(-42 -3.75)" fill="#263238"/></g><g transform="translate(27.024 1.93)"><path d="M45.234,5.037H24.643a.643.643,0,1,1,0-1.287h20.59a.643.643,0,1,1,0,1.287Z" transform="translate(-24 -3.75)" fill="#263238"/></g></g></svg>
