<svg xmlns="http://www.w3.org/2000/svg" width="26.875" height="26.893">
  <g fill="none" stroke="currentColor" stroke-linecap="round" stroke-linejoin="round" stroke-miterlimit="10">
    <path d="M21.875 14V7.225A6.722 6.722 0 0 0 15.153.5H1.625A1.125 1.125 0 0 0 .5 1.625V25.25a1.125 1.125 0 0 0 1.125 1.125H5"/>
    <path data-name="Path" d="M16.25.594v4.405a1.125 1.125 0 0 0 1.125 1.125h4.41M12.875 26.375a4.5 4.5 0 0 1 0-9M19.623 17.392H17.21a2.086 2.086 0 0 0-.933 3.952l2.194 1.1a2.086 2.086 0 0 1-.932 3.948h-2.416M26.375 17.375v2.588a10.267 10.267 0 0 1-2.25 6.412 10.267 10.267 0 0 1-2.25-6.412v-2.588"/>
  </g>
</svg>
