<?xml version="1.0" encoding="UTF-8"?>
<svg viewBox="0 0 22 22" version="1.1" xmlns="http://www.w3.org/2000/svg" xmlns:xlink="http://www.w3.org/1999/xlink">
    <g stroke="none" stroke-width="1" fill="none" fill-rule="evenodd" stroke-linecap="round" stroke-linejoin="round">
        <g transform="translate(-107.000000, -464.000000)" stroke="#656565">
            <g transform="translate(108.000000, 458.000000)">
                <g transform="translate(0.000000, 7.000000)">
                    <path d="M17.3913043,6.95652174 L17.3913043,3.47826087 C17.3913043,2.99801326 17.0019867,2.60869565 16.5217391,2.60869565 L7.92869565,2.60869565 C7.59942112,2.60851981 7.29849004,2.4223734 7.15130435,2.12782609 L6.32695652,0.480869565 C6.17977083,0.186322251 5.87883975,0.000175841886 5.54956522,0 L0.869565217,0 C0.389317609,0 0,0.389317609 0,0.869565217 L0,13.9130435 C0,14.3932911 0.389317609,14.7826087 0.869565217,14.7826087 L9.56521739,14.7826087"></path>
                    <path d="M13.173913,13.0443478 L19,13.0443478 C19.5522847,13.0443478 20,13.4920631 20,14.0443478 L20,19 C20,19.5522847 19.5522847,20 19,20 L13.173913,20 C12.6216283,20 12.173913,19.5522847 12.173913,19 L12.173913,14.0443478 C12.173913,13.4920631 12.6216283,13.0443478 13.173913,13.0443478 Z"></path>
                    <circle cx="16.0869565" cy="16.5765217" r="1.08695652"></circle>
                    <path d="M18.2608696,11.7391304 C18.2608696,10.5385114 17.2875755,9.56521746 16.0869565,9.56521746 C14.8863375,9.56521746 13.9130435,10.5385114 13.9130435,11.7391304 L13.9130435,13.0434783 L18.2608696,13.0434783 L18.2608696,11.7391304 Z"></path>
                </g>
            </g>
        </g>
    </g>
</svg>
