<svg xmlns="http://www.w3.org/2000/svg" viewBox="0 0 77.386 76.656"><g transform="translate(0.001)"><g transform="translate(8.759 5.84)"><path d="M47.273,35.052a.73.73,0,0,1-.73-.73V11.69a.73.73,0,0,0-.73-.73H13.69a.73.73,0,0,0-.73.73v14.6a.73.73,0,1,1-1.46,0V11.69A2.193,2.193,0,0,1,13.69,9.5H45.813A2.193,2.193,0,0,1,48,11.69V34.322A.729.729,0,0,1,47.273,35.052Z" transform="translate(-11.5 -9.5)" fill="#263238"/></g><g transform="translate(46.722 10.221)"><path d="M39.69,33.672a.73.73,0,0,1-.73-.73V14.69a.73.73,0,0,0-.73-.73.73.73,0,1,1,0-1.46,2.193,2.193,0,0,1,2.19,2.19V32.942A.729.729,0,0,1,39.69,33.672Z" transform="translate(-37.5 -12.5)" fill="#263238"/></g><g transform="translate(0.729 25.552)"><path d="M60.024,50.742V34.681a3.65,3.65,0,0,0-3.65-3.65H43.638a3.64,3.64,0,0,1-2.068-.642l-9.812-6.746A3.655,3.655,0,0,0,29.689,23H9.65A3.65,3.65,0,0,0,6,26.65V61.693a3.65,3.65,0,0,0,3.65,3.65l50.374.127Z" transform="translate(-6 -23)" fill="#ffd740"/></g><g transform="translate(70.084 2.92)"><path d="M60.071,8.96H54.23a.73.73,0,0,1,0-1.46h5.84a.73.73,0,1,1,0,1.46Z" transform="translate(-53.5 -7.5)" fill="#263238"/></g><g transform="translate(73.005 0)"><path d="M56.23,12.8a.73.73,0,0,1-.73-.73V6.23a.73.73,0,1,1,1.46,0v5.84A.73.73,0,0,1,56.23,12.8Z" transform="translate(-55.5 -5.5)" fill="#263238"/></g><g transform="translate(59.864 12.411)"><path d="M53.071,15.46H47.23a.73.73,0,0,1,0-1.46h5.84a.73.73,0,0,1,0,1.46Z" transform="translate(-46.5 -14)" fill="#263238"/></g><g transform="translate(62.784 9.491)"><path d="M49.23,19.3a.73.73,0,0,1-.73-.73V12.73a.73.73,0,1,1,1.46,0v5.84A.73.73,0,0,1,49.23,19.3Z" transform="translate(-48.5 -12)" fill="#263238"/></g><g transform="translate(4.379 75.196)"><path d="M12.15,58.46H9.23a.73.73,0,0,1,0-1.46h2.92a.73.73,0,0,1,0,1.46Z" transform="translate(-8.5 -57)" fill="#263238"/></g><g transform="translate(10.219 75.196)"><path d="M42.432,58.46H13.23a.73.73,0,0,1,0-1.46h29.2a.73.73,0,0,1,0,1.46Z" transform="translate(-12.5 -57)" fill="#263238"/></g><g transform="translate(-0.001 24.822)"><path d="M52.863,66.3H9.88a4.386,4.386,0,0,1-4.38-4.38V26.88A4.386,4.386,0,0,1,9.88,22.5H29.919a4.369,4.369,0,0,1,2.482.771l9.812,6.746a2.909,2.909,0,0,0,1.654.514H56.6a4.386,4.386,0,0,1,4.38,4.38.73.73,0,1,1-1.46,0,2.923,2.923,0,0,0-2.92-2.92H43.868a4.365,4.365,0,0,1-2.482-.771l-9.812-6.746a2.912,2.912,0,0,0-1.654-.514H9.88a2.923,2.923,0,0,0-2.92,2.92V61.923a2.923,2.923,0,0,0,2.92,2.92H52.863a.73.73,0,1,1,0,1.46Z" transform="translate(-5.5 -22.5)" fill="#263238"/></g><g transform="translate(15.33 13.141)"><path d="M38.632,15.96H16.73a.73.73,0,1,1,0-1.46h21.9a.73.73,0,1,1,0,1.46Z" transform="translate(-16 -14.5)" fill="#263238"/></g><g transform="translate(15.33 18.982)"><path d="M38.632,19.96H16.73a.73.73,0,1,1,0-1.46h21.9a.73.73,0,1,1,0,1.46Z" transform="translate(-16 -18.5)" fill="#263238"/></g><g transform="translate(42.342 37.233)"><path d="M42.531,39.761a.73.73,0,0,1-.73-.73V33.19a.73.73,0,0,0-.73-.73H35.23a.73.73,0,1,1,0-1.46h5.84a2.193,2.193,0,0,1,2.19,2.19v5.84A.73.73,0,0,1,42.531,39.761Z" transform="translate(-34.5 -31)" fill="#263238"/></g><g transform="translate(53.985 36.048)"><path d="M39.242,33.355a.73.73,0,0,1-.73-.73V14.374c-.319-1.914,1.46-1.208,1.46,0V32.625A.729.729,0,0,1,39.242,33.355Z" transform="translate(-38.474 -13.188)" fill="#263238"/></g></g></svg>
