<svg xmlns="http://www.w3.org/2000/svg" viewBox="0 0 24 14"><g transform="translate(-394 -6)"><rect width="23" height="13" rx="2" transform="translate(394.5 6.5)" stroke-width="1" stroke="#499f1f" stroke-linecap="round" stroke-linejoin="round" stroke-miterlimit="10" fill="none"/><path d="M1.608-5.02v1.529H3.544v.768H1.608v2.1H.644V-5.784H3.9v.764ZM6.248-3.327a1.487,1.487,0,0,0,.473-.068.915.915,0,0,0,.332-.187.753.753,0,0,0,.195-.284.982.982,0,0,0,.064-.361.733.733,0,0,0-.259-.6,1.239,1.239,0,0,0-.791-.211H5.648v1.714ZM8.719-.62H7.851a.381.381,0,0,1-.357-.193L6.408-2.466A.381.381,0,0,0,6.274-2.6a.469.469,0,0,0-.216-.039H5.648V-.62H4.687V-5.784H6.262a3.274,3.274,0,0,1,.9.109,1.725,1.725,0,0,1,.618.305,1.194,1.194,0,0,1,.355.47,1.544,1.544,0,0,1,.114.6,1.559,1.559,0,0,1-.077.493,1.426,1.426,0,0,1-.221.421,1.492,1.492,0,0,1-.357.332,1.791,1.791,0,0,1-.484.225.939.939,0,0,1,.171.127.9.9,0,0,1,.143.173Zm1.525-4.4v1.432h1.807v.739H10.244v1.461h2.293V-.62H9.28V-5.784h3.257v.764Zm4.107,0v1.432h1.807v.739H14.351v1.461h2.293V-.62H13.387V-5.784h3.257v.764Z" transform="translate(397.356 15.784)" fill="#499f1f"/></g></svg>
