<?xml version="1.0" encoding="UTF-8"?>
<svg viewBox="0 0 22 24" version="1.1" xmlns="http://www.w3.org/2000/svg" xmlns:xlink="http://www.w3.org/1999/xlink">
    <title>gender</title>
    <g stroke="none" stroke-width="1" fill="none" fill-rule="evenodd" stroke-linecap="round" stroke-linejoin="round">
        <g transform="translate(1.452851, 1.458333)" stroke="currentColor">
            <path d="M7.27442188,12.5986667 C5.43205568,11.067399 4.92043082,8.43634906 6.05289602,6.31692449 C7.18536123,4.19749992 9.64589783,3.18113406 11.9275306,3.89030829 C14.2091633,4.59948252 15.675194,6.83629911 15.4277404,9.23080189 C15.1802868,11.6253047 13.2884018,13.5092986 10.9107855,13.7289167" id="Path"></path>
            <path d="M8.19442188,6.66233333 C10.0301886,8.19940607 10.5329925,10.8302735 9.39517776,12.9451598 C8.25736304,15.0600461 5.79604594,16.069519 3.51725775,15.355902 C1.23846956,14.642285 -0.222676904,12.4044676 0.0278650007,10.0117262 C0.278406905,7.61898474 2.17080955,5.7381915 4.54714916,5.52016667" id="Path"></path>
            <line x1="13.9916946" y1="5.14341667" x2="19.0926037" y2="0" id="Path"></line>
            <polyline id="Path" points="19.0926037 3.66666667 19.0926037 -4.54747351e-13 15.4562401 -4.54747351e-13"></polyline>
            <line x1="4.54714916" y1="15.56225" x2="4.54714916" y2="21.0833333" id="Path"></line>
            <polyline id="Path" points="7.27442188 18.3333333 4.54714916 21.0833333 1.81987643 18.3333333"></polyline>
        </g>
    </g>
</svg>
