<?xml version="1.0" encoding="UTF-8"?>
<svg viewBox="0 0 120.609262 115.190701" version="1.1" xmlns="http://www.w3.org/2000/svg" xmlns:xlink="http://www.w3.org/1999/xlink">
    <title>E5F246C9-B4E6-4A6E-83F9-27513FC4DE6C@1x</title>
    <g id="Iteration-2---July-2023" stroke="none" stroke-width="1" fill="none" fill-rule="evenodd">
        <g id="New-CoP" transform="translate(-397, -880)">
            <g id="new-email" transform="translate(397, 880)">
                <g id="Group-10" transform="translate(0, 17.1907)" fill="#F3F3F3">
                    <circle id="Oval" cx="55" cy="48.8254972" r="48.8254972"></circle>
                    <circle id="Oval-Copy-4" cx="87.8046309" cy="32.8046309" r="32.8046309"></circle>
                    <circle id="Oval-Copy-5" cx="21" cy="77" r="21"></circle>
                </g>
                <g id="Group-17" transform="translate(25, 29.1907)">
                    <path d="M58.4019302,69.6181951 L3.933649,69.6181951 C1.78604248,69.6181951 0.0430574852,67.8494154 0.0430574852,65.6700261 L0.0430574852,30.1365053 C0.0430574852,27.957116 1.78604248,26.1883363 3.933649,26.1883363 L58.4019302,26.1883363 C60.5495367,26.1883363 62.2925217,27.957116 62.2925217,30.1365053 L62.2925217,65.6700261 C62.2925217,67.8494154 60.5495367,69.6181951 58.4019302,69.6181951 Z" id="Path" fill="#F1C241" fill-rule="nonzero"></path>
                    <path d="M58.3588727,0 L3.89059151,0 C1.70796968,0 0,2.0310905 0,4.62662983 C0,5.36226397 0.295684955,6.05625845 0.793680669,6.49116165 L29.9886794,31.4148166 C30.6656423,31.9931453 31.5799313,31.9931453 32.2568943,31.4148166 L61.451893,6.49116165 C61.9537793,6.05625845 62.2494642,5.36226397 62.2494642,4.62662983 C62.2494642,2.0310905 60.5414946,0 58.3588727,0 Z" id="Path" fill="#339BB2" fill-rule="nonzero" transform="translate(31.1247, 15.9243) rotate(-180) translate(-31.1247, -15.9243)"></path>
                    <rect id="Rectangle" fill="#FFFFFF" x="7.30352053" y="7.49152254" width="46.3251827" height="56.4588164"></rect>
                    <rect id="Rectangle" fill="#E1E1E1" x="10.1988444" y="11.8345084" width="40.5345349" height="3.76392109"></rect>
                    <rect id="Rectangle-Copy-6" fill="#E1E1E1" x="10.1988444" y="19.3623506" width="40.5345349" height="3.76392109"></rect>
                    <rect id="Rectangle-Copy-7" fill="#E1E1E1" x="10.1988444" y="26.8901928" width="40.5345349" height="3.76392109"></rect>
                    <rect id="Rectangle-Copy-8" fill="#E1E1E1" x="10.1988444" y="34.1285026" width="26.0579153" height="3.76392109"></rect>
                    <path d="M58.4229945,70 L3.95471325,70 C1.77209141,70 0.0641217323,68.1423156 0.0641217323,65.7683727 C0.0641217323,65.095544 0.359806687,64.4607999 0.857802401,64.0630269 L30.0372388,42.9048906 C30.3796108,42.6298349 30.7842323,42.4944228 31.1888539,42.4944228 C31.5934754,42.4944228 31.9980969,42.6298349 32.3404689,42.9048906 L61.5199053,64.0630269 C62.017901,64.4607999 62.313586,65.095544 62.313586,65.7683727 C62.313586,68.1423156 60.6056163,70 58.4229945,70 Z" id="Path" fill="#339BB2" fill-rule="nonzero"></path>
                    <path d="M67.4708817,62.0378592 L28.2030511,62.0378592 C26.629533,62.0378592 25.398206,60.082402 25.398206,57.5835147 C25.398206,56.875274 25.6113742,56.2071223 25.9703944,55.7884139 L47.0067322,33.5166915 C47.2535586,33.2271591 47.5452625,33.08462 47.8369664,33.08462 C48.1286703,33.08462 48.4203742,33.2271591 48.6672005,33.5166915 L69.7035384,55.7884139 C70.0625585,56.2071223 70.2757267,56.875274 70.2757267,57.5835147 C70.2757267,60.082402 69.0443998,62.0378592 67.4708817,62.0378592 Z" id="Path-Copy" fill="#BDE2EB" fill-rule="nonzero" transform="translate(47.837, 47.5612) rotate(-90) translate(-47.837, -47.5612)"></path>
                    <path d="M34.1746566,62.0378592 L-5.093174,62.0378592 C-6.66669207,62.0378592 -7.89801904,60.082402 -7.89801904,57.5835147 C-7.89801904,56.875274 -7.68485082,56.2071223 -7.32583065,55.7884139 L13.7105072,33.5166915 C13.9573336,33.2271591 14.2490374,33.08462 14.5407413,33.08462 C14.8324452,33.08462 15.1241491,33.2271591 15.3709755,33.5166915 L36.4073133,55.7884139 C36.7663335,56.2071223 36.9795017,56.875274 36.9795017,57.5835147 C36.9795017,60.082402 35.7481747,62.0378592 34.1746566,62.0378592 Z" id="Path-Copy-2" fill="#BDE2EB" fill-rule="nonzero" transform="translate(14.5407, 47.5612) scale(-1, 1) rotate(-90) translate(-14.5407, -47.5612)"></path>
                </g>
                <path d="M51.4028876,3.34256431 L57.6092619,3.34256431 C59.2661161,3.34256431 60.6092619,4.68571006 60.6092619,6.34256431 L60.6092619,6.44575146 C60.6092619,8.10260571 59.2661161,9.44575146 57.6092619,9.44575146 L51.4028876,9.44575146 C49.7460333,9.44575146 48.4028876,8.10260571 48.4028876,6.44575146 L48.4028876,6.34256431 C48.4028876,4.68571006 49.7460333,3.34256431 51.4028876,3.34256431 Z" id="Rectangle-Copy-9" fill="#BDE2EB" transform="translate(54.5061, 6.3942) rotate(-43) translate(-54.5061, -6.3942)"></path>
            </g>
        </g>
    </g>
</svg>
