<?xml version="1.0" encoding="UTF-8"?>
<svg viewBox="0 0 120.609262 115.421557" version="1.1" xmlns="http://www.w3.org/2000/svg" xmlns:xlink="http://www.w3.org/1999/xlink">
    <title>389E853B-E45B-41C9-8B36-FA315D8717B9@1x</title>
    <g id="Iteration-2---July-2023" stroke="none" stroke-width="1" fill="none" fill-rule="evenodd">
        <g id="New-CoP" transform="translate(-397, -718)">
            <g id="new-post" transform="translate(397, 718)">
                <g id="Group-10" transform="translate(0, 12.8239)" fill="#F3F3F3">
                    <circle id="Oval" cx="55" cy="48.8254972" r="48.8254972"></circle>
                    <circle id="Oval-Copy-4" cx="87.8046309" cy="32.8046309" r="32.8046309"></circle>
                    <circle id="Oval-Copy-5" cx="21" cy="77" r="21"></circle>
                </g>
                <g id="Group-19" transform="translate(13.9613, -0)" fill="#BDE2EB">
                    <path d="M33.529042,5.6591851 L46.529042,5.6591851 C48.1858962,5.6591851 49.529042,7.00233085 49.529042,8.6591851 L49.529042,8.76237225 C49.529042,10.4192265 48.1858962,11.7623723 46.529042,11.7623723 L33.529042,11.7623723 C31.8721877,11.7623723 30.529042,10.4192265 30.529042,8.76237225 L30.529042,8.6591851 C30.529042,7.00233085 31.8721877,5.6591851 33.529042,5.6591851 Z" id="Rectangle-Copy-9" transform="translate(40.029, 8.7108) rotate(-43) translate(-40.029, -8.7108)"></path>
                    <path d="M86.5604987,78.2924267 L99.5604987,78.2924267 C101.217353,78.2924267 102.560499,79.6355724 102.560499,81.2924267 L102.560499,81.3956138 C102.560499,83.0524681 101.217353,84.3956138 99.5604987,84.3956138 L86.5604987,84.3956138 C84.9036444,84.3956138 83.5604987,83.0524681 83.5604987,81.3956138 L83.5604987,81.2924267 C83.5604987,79.6355724 84.9036444,78.2924267 86.5604987,78.2924267 Z" id="Rectangle-Copy-11" transform="translate(93.0605, 81.344) rotate(-43) translate(-93.0605, -81.344)"></path>
                    <path d="M3.73795032,106.728178 L7.73795032,106.728178 C9.39480457,106.728178 10.7379503,108.071323 10.7379503,109.728178 L10.7379503,109.831365 C10.7379503,111.488219 9.39480457,112.831365 7.73795032,112.831365 L3.73795032,112.831365 C2.08109607,112.831365 0.737950322,111.488219 0.737950322,109.831365 L0.737950322,109.728178 C0.737950322,108.071323 2.08109607,106.728178 3.73795032,106.728178 Z" id="Rectangle-Copy-12" transform="translate(5.738, 109.7798) rotate(-43) translate(-5.738, -109.7798)"></path>
                </g>
                <g id="Group-11" transform="translate(25, 26.8239)">
                    <rect id="Rectangle" fill="#FFFFFF" x="0" y="4.96595948" width="60.8330036" height="57.108534"></rect>
                    <path d="M2,0 L58.8330036,0 C59.9375731,7.64553222e-15 60.8330036,0.8954305 60.8330036,2 L60.8330036,4.96595948 L60.8330036,4.96595948 L0,4.96595948 L0,2 C-1.3527075e-16,0.8954305 0.8954305,2.02906125e-16 2,0 Z" id="Rectangle-Copy" fill="#339BB2"></path>
                    <rect id="Rectangle" fill="#E1E1E1" x="3.78852251" y="10.6487432" width="53.0393151" height="4.92507926"></rect>
                    <rect id="Rectangle-Copy-6" fill="#E1E1E1" x="3.78852251" y="19.2610474" width="53.0393151" height="4.92507926"></rect>
                    <rect id="Rectangle-Copy-10" fill="#BDE2EB" x="3.78852251" y="27.8733516" width="53.0393151" height="29.7957569"></rect>
                    <path d="M43.5689287,63.6435344 L33.5248235,66.0000002 L35.8812893,55.9574483 L60.6529172,31.1827137 C61.235581,30.5998138 62.0259843,30.2723242 62.8501623,30.2723242 C63.6743403,30.2723242 64.4647437,30.5998138 65.0474074,31.1827137 L68.3436634,34.4774163 C68.9265633,35.06008 69.2540529,35.8504834 69.2540529,36.6746614 C69.2540529,37.4988394 68.9265633,38.2892427 68.3436634,38.8719065 L43.5689287,63.6435344 Z" id="Path" fill="#339BB2"></path>
                </g>
            </g>
        </g>
    </g>
</svg>
