<?xml version="1.0" encoding="UTF-8"?>
<svg viewBox="0 0 24 24" version="1.1" xmlns="http://www.w3.org/2000/svg" >
    <g id="Page-1" stroke="currentColor" stroke-width="1" fill="none" fill-rule="evenodd" stroke-linecap="round" stroke-linejoin="round">
        <g id="grid-view" transform="translate(1.458333, 1.458333)" stroke="currentColor">
            <path d="M9.16666667,8.25 C9.16666667,8.75626102 8.75626102,9.16666667 8.25,9.16666667 L0.916666667,9.16666667 C0.410405646,9.16666667 0,8.75626102 0,8.25 L0,0.916666667 C0,0.410405646 0.410405646,0 0.916666667,0 L8.25,0 C8.75626102,0 9.16666667,0.410405646 9.16666667,0.916666667 L9.16666667,8.25 Z" id="Shape"></path>
            <path d="M21.0833333,8.25 C21.0833333,8.75626102 20.6729277,9.16666667 20.1666667,9.16666667 L12.8333333,9.16666667 C12.3270723,9.16666667 11.9166667,8.75626102 11.9166667,8.25 L11.9166667,0.916666667 C11.9166667,0.410405646 12.3270723,0 12.8333333,0 L20.1666667,0 C20.6729277,0 21.0833333,0.410405646 21.0833333,0.916666667 L21.0833333,8.25 Z" id="Shape"></path>
            <path d="M9.16666667,20.1666667 C9.16666667,20.6729277 8.75626102,21.0833333 8.25,21.0833333 L0.916666667,21.0833333 C0.410405646,21.0833333 0,20.6729277 0,20.1666667 L0,12.8333333 C0,12.3270723 0.410405646,11.9166667 0.916666667,11.9166667 L8.25,11.9166667 C8.75626102,11.9166667 9.16666667,12.3270723 9.16666667,12.8333333 L9.16666667,20.1666667 Z" id="Shape"></path>
            <path d="M21.0833333,20.1666667 C21.0833333,20.6729277 20.6729277,21.0833333 20.1666667,21.0833333 L12.8333333,21.0833333 C12.3270723,21.0833333 11.9166667,20.6729277 11.9166667,20.1666667 L11.9166667,12.8333333 C11.9166667,12.3270723 12.3270723,11.9166667 12.8333333,11.9166667 L20.1666667,11.9166667 C20.6729277,11.9166667 21.0833333,12.3270723 21.0833333,12.8333333 L21.0833333,20.1666667 Z" id="Shape"></path>
        </g>
    </g>
</svg>
