<?xml version="1.0" encoding="UTF-8"?>
<svg viewBox="0 0 102 102" version="1.1" xmlns="http://www.w3.org/2000/svg" xmlns:xlink="http://www.w3.org/1999/xlink">
    <title>Group Contact</title>
    <g id="CoP-Admin" stroke="none" stroke-width="1" fill="none" fill-rule="evenodd" stroke-linecap="round" stroke-linejoin="round">
        <g id="Group-55" transform="translate(1.000000, 0.000000)" stroke="#37474F">
            <line x1="86.2745098" y1="101.019231" x2="94.8529412" y2="101.019231" id="Path"></line>
            <line x1="98.2843137" y1="101.019231" x2="100" y2="101.019231" id="Path"></line>
            <line x1="13.7254902" y1="0.980769231" x2="5.14705882" y2="0.980769231" id="Path"></line>
            <line x1="1.71568627" y1="0.980769231" x2="-9.81437154e-14" y2="0.980769231" id="Path"></line>
            <ellipse id="Oval" cx="50.4901961" cy="51.5448718" rx="13.3986928" ry="13.2948718"></ellipse>
            <path d="M59.7017974,43.9003205 L60.7066993,43.069391 C58.3619281,40.0780449 54.6772876,38.25 50.4901961,38.25 C43.120915,38.25 37.0915033,44.2326923 37.0915033,51.5448718 L38.4313725,51.5448718 C46.1356209,51.5448718 53.8398693,48.8858974 59.7017974,43.9003205 Z" id="Path" fill="#FFB300" fill-rule="nonzero"></path>
            <path d="M50.4901961,64.8397436 C48.6478758,64.8397436 46.9730392,64.5073718 45.4656863,63.8426282 L45.4656863,66.5016026 L50.4901961,73.9799679 L55.5147059,66.5016026 L55.5147059,63.8426282 C54.0073529,64.5073718 52.3325163,64.8397436 50.4901961,64.8397436 Z" id="Path"></path>
            <line x1="62.2140523" y1="83.1201923" x2="62.2140523" y2="94.7532051" id="Path"></line>
            <line x1="38.7663399" y1="83.1201923" x2="38.7663399" y2="94.7532051" id="Path"></line>
            <polygon id="Path" fill="#90CAF9" fill-rule="nonzero" points="54.6772876 93.9222756 50.4901961 98.0769231 46.3031046 93.9222756 48.8153595 73.9799679 52.1650327 73.9799679"></polygon>
            <polygon id="Path" points="45.4656863 66.5016026 44.628268 73.9799679 56.3521242 73.9799679 55.5147059 66.5016026 50.4901961 73.9799679"></polygon>
            <path d="M70.5882353,93.5899038 L70.5882353,78.6331731 C70.5882353,75.3094551 68.5784314,72.318109 65.5637255,70.9886218 L55.5147059,66.5016026 L50.4901961,73.9799679 L45.4656863,66.5016026 L35.4166667,70.9886218 C32.4019608,72.318109 30.3921569,75.3094551 30.3921569,78.6331731 L30.3921569,93.5899038" id="Path"></path>
            <ellipse id="Oval" cx="50" cy="51" rx="50" ry="50.0192308"></ellipse>
            <ellipse id="Oval" cx="80.3167421" cy="42.4532967" rx="9.95475113" ry="10.0879121"></ellipse>
            <path d="M87.2850679,36.5686813 L87.9487179,35.8961538 C86.1236802,33.7104396 83.4690799,32.3653846 80.3167421,32.3653846 C74.841629,32.3653846 70.361991,36.9049451 70.361991,42.4532967 L71.3574661,42.4532967 C77.1644042,42.4532967 82.8054299,40.4357143 87.2850679,36.5686813 Z" id="Path" fill="#FFB300" fill-rule="nonzero"></path>
            <path d="M80.3167421,52.5412088 C78.4917044,52.5412088 76.8325792,52.0368132 75.3393665,51.1961538 L75.3393665,54.2225275 L80.3167421,61.7884615 L85.2941176,54.2225275 L85.2941176,51.1961538 C83.800905,52.0368132 82.1417798,52.5412088 80.3167421,52.5412088 Z" id="Path"></path>
            <line x1="80.3167421" y1="61.7884615" x2="80.3167421" y2="67.6730769" id="Path"></line>
            <path d="M75.3393665,54.2225275 L68.3710407,57.7532967 C65.5505279,59.2664835 63.7254902,62.1247253 63.7254902,65.3192308 L63.7254902,67.0005495" id="Path"></path>
            <path d="M95.7466063,61.1159341 C94.9170437,59.7708791 93.7556561,58.593956 92.2624434,57.7532967 L85.2941176,54.2225275" id="Path"></path>
            <ellipse id="Oval" cx="19.6832579" cy="42.4532967" rx="9.95475113" ry="10.0879121"></ellipse>
            <path d="M26.6515837,36.5686813 L27.3152338,35.8961538 C25.4901961,33.7104396 22.6696833,32.3653846 19.6832579,32.3653846 C14.2081448,32.3653846 9.72850679,36.9049451 9.72850679,42.4532967 L10.7239819,42.4532967 C16.5309201,42.4532967 22.1719457,40.4357143 26.6515837,36.5686813 Z" id="Path" fill="#FFB300" fill-rule="nonzero"></path>
            <path d="M19.6832579,52.5412088 C21.5082956,52.5412088 23.1674208,52.0368132 24.6606335,51.1961538 L24.6606335,54.2225275 L19.6832579,61.7884615 L14.7058824,54.2225275 L14.7058824,51.1961538 C16.199095,52.0368132 17.8582202,52.5412088 19.6832579,52.5412088 Z" id="Path"></path>
            <line x1="19.6832579" y1="61.7884615" x2="19.6832579" y2="67.6730769" id="Path"></line>
            <path d="M14.7058824,54.2225275 L7.73755656,57.7532967 C6.24434389,58.4258242 5.08295626,59.6027473 4.25339367,61.1159341" id="Path"></path>
            <path d="M36.2745098,67.0005495 L36.2745098,65.3192308 C36.2745098,62.1247253 34.4494721,59.2664835 31.6289593,57.7532967 L24.6606335,54.2225275" id="Path"></path>
        </g>
    </g>
</svg>