<svg xmlns="http://www.w3.org/2000/svg" viewBox="0 0 81.836 59.163"><g transform="translate(0 -68.657)"><path d="M81.836,75.994v24.773s-5.3,1.045-6.394,1.182-4.51,1.242-6.99-1.142c-3.824-3.665-17.411-17.177-17.411-17.177s-2.343-2.3-6.1-.312c-3.453,1.82-8.571,4.487-10.709,5.526a4.92,4.92,0,0,1-7.391-3.862c0-2.017,1.258-3.385,3.057-4.392,4.875-2.955,15.15-8.723,19.429-11,2.6-1.384,4.476-1.5,8.047,1.507,4.4,3.7,8.313,7.071,8.313,7.071a4.067,4.067,0,0,0,3.313.636C73.994,77.75,81.836,75.994,81.836,75.994Zm-54.08,41.975a4.327,4.327,0,0,0-5.19-5.983,4.464,4.464,0,0,0-.942-4.407,4.566,4.566,0,0,0-4.367-1.1,4.46,4.46,0,0,0-.945-4.4,4.93,4.93,0,0,0-6.9.181C7.391,104.192,6.1,107.7,7.9,109.766s3.865.8,5.44.446c-.438,1.563-1.751,3.017-.134,5.062s3.864.8,5.441.449c-.44,1.557-1.7,3.157-.141,5.053s4.139.889,5.836.362c-.655,1.684-2.057,3.5-.256,5.534s5.955,1.1,7.985-.836a4.841,4.841,0,0,0,.438-6.843A4.61,4.61,0,0,0,27.756,117.968ZM64.8,105.08C50.123,90.4,57.026,97.31,49.128,89.4a5.145,5.145,0,0,0-5.5-.99c-2.2.962-5.023,2.274-7.151,3.275a11.8,11.8,0,0,1-4.81,1.6,8.16,8.16,0,0,1-4.312-15.1c3.261-2.257,10.767-6.249,10.767-6.249s-2.287-2.9-7.3-2.9-15.471,6.854-15.471,6.854a8.177,8.177,0,0,1-7.2.189L0,73.233V101.58s2.329.674,4.421,1.529a9.321,9.321,0,0,1,2.293-3.62c3.471-3.306,9.225-3.341,12.383-.089a7.814,7.814,0,0,1,1.954,3.471,7.908,7.908,0,0,1,3.352,2.043,7.8,7.8,0,0,1,1.957,3.465,7.973,7.973,0,0,1,5.421,5.842,8.023,8.023,0,0,1,3.5,2.1,8.248,8.248,0,0,1,2.164,7.146.013.013,0,0,1,.013.006c.031.041,1.176,1.317,1.89,2.037a3.6,3.6,0,0,0,5.087-5.087c-.05-.05-5.048-5.278-4.646-5.683s6.767,6.223,6.885,6.344A3.6,3.6,0,0,0,51.755,116c-.069-.065-.355-.34-.462-.449,0,0-6.313-5.624-5.833-6.1s8.328,6.835,8.341,6.835a3.551,3.551,0,0,0,5.115-4.909c-.025-.075-5.976-6.294-5.512-6.762s6.36,5.59,6.373,5.6a3.6,3.6,0,1,0,5.084-5.091C64.843,105.1,64.818,105.092,64.8,105.08Z" fill="#fff"/></g></svg>
