<?xml version="1.0" encoding="UTF-8"?>
<svg viewBox="0 0 22 21" version="1.1" xmlns="http://www.w3.org/2000/svg" xmlns:xlink="http://www.w3.org/1999/xlink">
    <g stroke="none" stroke-width="1" fill="none" fill-rule="evenodd" stroke-linecap="round" stroke-linejoin="round">
        <g transform="translate(-92.000000, -278.000000)" stroke="#656565">
            <g id="Admin-Menu" transform="translate(93.000000, 234.020000)">
                <g id="tag-regular" transform="translate(0.000000, 45.000000)">
                    <path d="M17.8053546,11.664034 C17.9701208,11.8286171 18.062701,12.0519496 18.062701,12.2848348 C18.062701,12.5177199 17.9701208,12.7410524 17.8053546,12.9056355 L12.904758,17.8062321 C12.740175,17.9709983 12.5168425,18.0635784 12.2839573,18.0635784 C12.0510721,18.0635784 11.8277396,17.9709983 11.6631566,17.8062321 L0.620362,6.76256002 C0.248979793,6.34853843 0.0301158563,5.82010739 0,5.26474116 L0,0.87745686 C0,0.392850817 0.392850817,0 0.87745686,0 L5.26474116,0 C5.82010739,0.0301158563 6.34853843,0.248979793 6.76256002,0.620362 L17.8053546,11.664034 Z" id="Path" transform="translate(9.031350, 9.031789) scale(-1, 1) translate(-9.031350, -9.031789) "></path>
                    <path d="M5.26474119,4.38728419 L10.6795275,4.38728419 C11.1447956,4.38715098 11.5910743,4.57178539 11.9202515,4.9005966 L22.1926389,15.1738615 C22.3574052,15.3384446 22.4499853,15.5617771 22.4499853,15.7946622 C22.4499853,16.0275474 22.3574052,16.2508799 22.1926389,16.415463 L21.9355441,16.6725578" id="Path" transform="translate(13.857363, 10.529921) rotate(-270.000000) translate(-13.857363, -10.529921) "></path>
                    <circle id="Oval" transform="translate(14.114145, 3.948556) scale(-1, 1) translate(-14.114145, -3.948556) " cx="14.1141451" cy="3.94855587" r="1.31618529"></circle>
                </g>
            </g>
        </g>
    </g>
</svg>
