<?xml version="1.0" encoding="UTF-8"?>
<svg viewBox="0 0 22 22" version="1.1" xmlns="http://www.w3.org/2000/svg" xmlns:xlink="http://www.w3.org/1999/xlink">
    <g stroke="none" stroke-width="1" fill="none" fill-rule="evenodd" stroke-linecap="round" stroke-linejoin="round">
        <g transform="translate(-92.000000, -365.000000)" stroke="#656565">
            <g id="Admin-Menu" transform="translate(93.000000, 234.020000)">
                <g id="feedback" transform="translate(0.000000, 132.000000)">
                    <circle id="Oval" cx="6.25166667" cy="8.95833333" r="3.54166667"></circle>
                    <path d="M0.416666667,19.5833333 C0.416666667,16.3616723 3.02833899,13.7500001 6.25,13.7500001 C9.47166101,13.7500001 12.0833333,16.3616723 12.0833333,19.5833333 L0.416666667,19.5833333 Z" id="Shape"></path>
                    <path d="M11.25,7.9166666 L12.9166667,7.9166666 L12.9166667,9.58333333 L15,7.9166666 L15.8333333,7.9166666 C17.9044011,7.9166666 19.5833333,6.23773448 19.5833333,4.16666667 C19.5833333,2.09559885 17.9044011,0.416666596 15.8333333,0.416666596 L10.8333333,0.416666596 C8.92322825,0.416299911 7.3180672,1.85172227 7.10583333,3.75" id="Shape"></path>
                    <path d="M15.8333333,3.95833333 C15.9483927,3.95833333 16.0416667,4.05160734 16.0416667,4.16666667 L16.0416667,4.16666667 C16.0416667,4.28172599 15.9483927,4.375 15.8333333,4.375 L15.8333333,4.375 C15.718274,4.375 15.625,4.28172599 15.625,4.16666667 L15.625,4.16666667 C15.625,4.05160734 15.718274,3.95833333 15.8333333,3.95833333" id="Shape"></path>
                    <path d="M13.3333333,3.95833333 C13.4483927,3.95833333 13.5416667,4.05160734 13.5416667,4.16666667 L13.5416667,4.16666667 C13.5416667,4.28172599 13.4483927,4.375 13.3333333,4.375 L13.3333333,4.375 C13.218274,4.375 13.125,4.28172599 13.125,4.16666667 L13.125,4.16666667 C13.125,4.05160734 13.218274,3.95833333 13.3333333,3.95833333" id="Shape"></path>
                    <path d="M10.8333333,3.95833333 C10.9483927,3.95833333 11.0416667,4.05160734 11.0416667,4.16666667 L11.0416667,4.16666667 C11.0416667,4.28172599 10.9483927,4.375 10.8333333,4.375 L10.8333333,4.375 C10.718274,4.375 10.625,4.28172599 10.625,4.16666667 L10.625,4.16666667 C10.625,4.05160734 10.718274,3.95833333 10.8333333,3.95833333" id="Shape"></path>
                </g>
            </g>
        </g>
    </g>
</svg>
