<?xml version="1.0" encoding="UTF-8"?>
<svg viewBox="0 0 22 22" version="1.1" xmlns="http://www.w3.org/2000/svg" xmlns:xlink="http://www.w3.org/1999/xlink">
    <g stroke="none" stroke-width="1" fill="none" fill-rule="evenodd" stroke-linecap="round" stroke-linejoin="round">
        <g transform="translate(-92.000000, -233.000000)" stroke="#656565">
            <g transform="translate(93.000000, 234.020000)">
                <g transform="translate(0.000000, 0.000000)">
                    <path d="M9.13043478,15.6521739 L0.869565217,15.6521739 C0.389317609,15.6521739 0,15.2628563 0,14.7826087 L0,0.869565217 C0,0.389317609 0.389317609,0 0.869565217,0 L13.9130435,0 C14.3932911,0 14.7826087,0.389317609 14.7826087,0.869565217 L14.7826087,9.56521739" id="Shape"></path>
                    <path d="M13.2173913,18.9565217 L9.56521739,20 L10.6086957,16.3478261 L16.8513043,10.1052174 C17.3173029,9.6392188 17.9965107,9.45722563 18.6330766,9.62779295 C19.2696425,9.79836028 19.7668571,10.2955749 19.9374244,10.9321408 C20.1079918,11.5687067 19.9259986,12.2479144 19.46,12.713913 L13.2173913,18.9565217 Z" id="Shape"></path>
                    <line x1="16.0686957" y1="10.8878261" x2="18.6773913" y2="13.4965217" id="Shape"></line>
                    <line x1="10.6086957" y1="16.3478261" x2="13.2173913" y2="18.9565217" id="Shape"></line>
                    <line x1="4.7826087" y1="3.47826087" x2="10.8695652" y2="3.47826087" id="Shape"></line>
                    <line x1="3.04347826" y1="6.08695652" x2="10.8695652" y2="6.08695652" id="Shape"></line>
                    <line x1="3.04347826" y1="8.69565217" x2="10.8695652" y2="8.69565217" id="Shape"></line>
                    <line x1="3.04347826" y1="11.3043478" x2="8.69565217" y2="11.3043478" id="Shape"></line>
                </g>
            </g>
        </g>
    </g>
</svg>
