<?xml version="1.0" encoding="UTF-8"?>
<svg viewBox="0 0 19 22" version="1.1" xmlns="http://www.w3.org/2000/svg" xmlns:xlink="http://www.w3.org/1999/xlink">
    <g stroke="none" stroke-width="1" fill="none" fill-rule="evenodd" stroke-linecap="round" stroke-linejoin="round">
        <g transform="translate(-92.000000, -322.000000)" stroke="#656565">
            <g id="Admin-Menu" transform="translate(93.000000, 234.020000)">
                <g id="tag-role" transform="translate(0.000000, 89.000000)">
                    <path d="M14.55482,7.98536965 L16.2357539,6.26988327 C16.6273272,5.82495857 16.8576078,5.26109993 16.8894504,4.6692607 L16.8894504,0.93385214 C16.8894504,0.418099845 16.4713505,0 15.9555982,0 L11.9792558,0.00653696498 C11.3881973,0.0393653014 10.8259547,0.272562604 10.3851702,0.66770428 L0.273419256,10.7794553 C-0.0911397521,11.1441244 -0.0911397521,11.7352531 0.273419256,12.0999222 L4.78952821,16.6160311 C4.96403536,16.7905377 5.20106962,16.8880303 5.44785657,16.8868139 C5.69464352,16.8855747 5.930696,16.7857285 6.10345817,16.6094942 L7.08400291,15.6084047" id="Path"></path>
                    <circle id="Oval" cx="13.6209679" cy="3.26848249" r="1.40077821"></circle>
                    <circle id="Oval" cx="11.7383474" cy="12.0817121" r="2.3540856"></circle>
                    <path d="M7.85992218,20 C7.85992218,17.8586167 9.59585636,16.1226826 11.7372396,16.1226826 C13.8786229,16.1226826 15.6145571,17.8586167 15.6145571,20 L7.85992218,20 Z" id="Shape"></path>
                </g>
            </g>
        </g>
    </g>
</svg>
