<?xml version="1.0" encoding="UTF-8"?>
<svg viewBox="0 0 22 18" version="1.1" xmlns="http://www.w3.org/2000/svg" xmlns:xlink="http://www.w3.org/1999/xlink">
    <g stroke="none" stroke-width="1" fill="none" fill-rule="evenodd" stroke-linecap="round" stroke-linejoin="round">
        <g transform="translate(-93.000000, -410.000000)" stroke="#656565">
            <g transform="translate(93.000000, 234.020000)">
                <g id="Group-8" transform="translate(1.000000, 176.000000)">
                    <g id="banner" transform="translate(0.000000, 1.000000)">
                        <path d="M15.6521739,2.60869565 L15.6521739,1.73913043 C15.6521739,0.778635218 14.8735387,0 13.9130435,0 L1.73913043,0 C0.778635218,0 0,0.778635218 0,1.73913043 L0,9.56521739 C0,10.5257126 0.778635218,11.3043478 1.73913043,11.3043478 L2.60869565,11.3043478" id="Shape"></path>
                        <rect id="Rectangle-path" x="4.34782609" y="4.34782609" width="15.6521739" height="11.3043478" rx="2"></rect>
                        <path d="M6.95652174,13.0434783 L9.80521739,7.34521739 C9.92464376,7.10698743 10.168294,6.95652174 10.4347826,6.95652174 C10.7047558,6.95652174 10.9550783,7.09767997 11.0947826,7.32869565 L13.4956522,11.3043478 L14.5217391,9.91304348 C14.6851394,9.69310047 14.9433967,9.56397179 15.2173913,9.56521739 C15.4838799,9.56525261 15.7275302,9.71568309 15.8469565,9.95391304 L17.3913043,13.0434783 L6.95652174,13.0434783 Z" id="Shape"></path>
                    </g>
                </g>
            </g>
        </g>
    </g>
</svg>
