<?xml version="1.0" encoding="UTF-8"?>
<svg viewBox="0 0 18 14" version="1.1" xmlns="http://www.w3.org/2000/svg" xmlns:xlink="http://www.w3.org/1999/xlink">
    <g stroke="none" stroke-width="1" fill="none" fill-rule="evenodd" stroke-linecap="round" stroke-linejoin="round">
        <g transform="translate(-1094.000000, -183.000000)" stroke="currentColor">
            <g transform="translate(1073.500000, 170.000000)">
                <g transform="translate(21.000000, 11.000000)">
                    <g transform="translate(0.000000, 3.000000)">
                        <path d="M4.21565096,9.04347826 L5.93704177,6.85147826 C6.1601906,6.59396616 6.53842072,6.53341358 6.83216499,6.70817391 L8.07999767,7.65217391 L9.24843559,6.16347826 C9.38858773,5.99714687 9.59899772,5.90494778 9.81758332,5.91408466 C10.0361689,5.92322155 10.2379814,6.03265155 10.3634753,6.21008696 L12.2956486,9.04347826 L4.21565096,9.04347826 Z"></path>
                        <ellipse cx="5.2695637" cy="3.82608696" rx="1.05391274" ry="1.04347826"></ellipse>
                        <path d="M13.3495614,0.203826087 C13.2178274,0.0733569567 13.0391453,0 12.8528172,0 L0.702608493,0 C0.314568537,0 0,0.311454087 0,0.695652174 L0,11.1304348 C0,11.5146329 0.314568537,11.826087 0.702608493,11.826087 L15.4573868,11.826087 C15.8454268,11.826087 16.1599953,11.5146329 16.1599953,11.1304348 L16.1599953,3.27443478 C16.1599953,3.08995143 16.0859048,2.91303842 15.954131,2.7826087 L13.3495614,0.203826087 Z"></path>
                    </g>
                </g>
            </g>
        </g>
    </g>
</svg>
