<?xml version="1.0" encoding="UTF-8"?>
<svg viewBox="0 0 23 22" version="1.1" xmlns="http://www.w3.org/2000/svg" xmlns:xlink="http://www.w3.org/1999/xlink">
    <title>house-chimney-2</title>
    <g id="Contact-detail" stroke="currentColor" stroke-width="1" fill="none" fill-rule="evenodd" stroke-linecap="round" stroke-linejoin="round">
        <g id="house-chimney-2" transform="translate(1.000000, 1.000000)" stroke="#339BB2">
            <path d="M3.04347826,10.8695652 L3.04347826,18.6956522 C3.04347826,19.1758998 3.43279587,19.5652174 3.91304348,19.5652174 L7.82608696,19.5652174 C8.06621076,19.5652174 8.26086957,19.3705586 8.26086957,19.1304348 L8.26086957,15.6521739 C8.26086957,14.4515549 9.23416359,13.4782609 10.4347826,13.4782609 C11.6354016,13.4782609 12.6086957,14.4515549 12.6086957,15.6521739 L12.6086957,19.1304348 C12.6086957,19.3705586 12.8033545,19.5652174 13.0434783,19.5652174 L16.9565217,19.5652174 C17.4367693,19.5652174 17.826087,19.1758998 17.826087,18.6956522 L17.826087,11.3043478" id="Path"></path>
            <polyline id="Path" points="0.434782609 10.4347826 10.4347826 0.434782609 20.4347826 10.4347826"></polyline>
            <path d="M13.9130435,1.30434783 L16.5217391,1.30434783 C16.7618629,1.30434783 16.9565217,1.49900663 16.9565217,1.73913043 L16.9565217,4.34782609" id="Path"></path>
        </g>
    </g>
</svg>
