<?xml version="1.0" encoding="UTF-8"?>
<svg viewBox="0 0 125 125" version="1.1" xmlns="http://www.w3.org/2000/svg" xmlns:xlink="http://www.w3.org/1999/xlink">
    <title>Group 3</title>
    <g id="LEARNING" stroke="none" stroke-width="1" fill="none" fill-rule="evenodd">
        <g id="ASSETS" transform="translate(-490.000000, -341.000000)" fill-rule="nonzero">
            <g id="Group-3" transform="translate(490.000000, 341.000000)">
                <path d="M62.5,0 C27.9825,0 0,27.9825 0,62.5 C0,97.0175 27.9825,125 62.5,125 C97.0175,125 125,97.0175 125,62.5 C125,27.9825 97.0175,0 62.5,0 Z" id="Path" fill="#324D5B"></path>
                <g id="www" transform="translate(28.000000, 28.000000)">
                    <path d="M26.8888889,70 C26.8888889,70 24.5355556,63.4707143 18,63.5714286 C18.18,63.5714286 26.8888889,61.4285714 26.8888889,61.4285714 C26.8888889,61.4285714 24.94,55 24.6666667,55 C24.5288889,55.0621429 32.5111111,56.2385714 33.5555556,61.4285714 C33.74,61.3407143 38,57.1428571 38,57.1428571 L38,70 L26.8888889,70 Z" id="Path" fill="#51BBA8"></path>
                    <path d="M35.5,0 C37.984,0 40,1.96 40,4.375 L40,70 L31,70 L31,4.375 C31,1.9621875 33.01375,0 35.5,0 Z" id="Path" fill="#D07C40"></path>
                    <polygon id="Path" fill="#F1CD6E" points="0 13 63.4375 13 70 25.9415 63.4375 39 1.92771146e-15 39 6.5625 25.987"></polygon>
                    <path d="M24.9812207,22 C24.3746878,22 23.9769254,22.3958021 23.8033164,22.9445277 L22.3660973,27.4895052 L22.330936,27.4895052 L20.8783338,23.0412294 C20.6695635,22.3958021 20.3399261,22 19.6147238,22 C18.8873239,22 18.5576865,22.3958021 18.3511138,23.0412294 L16.8963141,27.4895052 L16.8611527,27.4895052 L15.4239337,22.9445277 C15.2503246,22.3958021 14.8525622,22 14.2460294,22 C13.5208271,22 13,22.4295352 13,22.9625187 C13,23.3088456 13.0879033,23.6034483 13.2615123,24.0824588 L15.3733893,29.7923538 C15.632704,30.4872564 16.0656278,31 16.880931,31 C17.6434922,31 18.0939966,30.5794603 18.31815,29.8890555 L19.5971431,26.0502249 L19.634502,26.0502249 L20.9156927,29.8890555 C21.1420438,30.583958 21.5903506,31 22.3507142,31 C23.1660174,31 23.5967436,30.4850075 23.8582559,29.7923538 L25.9899111,24.0509745 C26.1261612,23.6866567 26.2316452,23.4235382 26.2316452,23.1604198 C26.2294476,22.4295352 25.7086205,22 24.9812207,22 L24.9812207,22 Z M40.3642993,22 C39.7577665,22 39.360004,22.3958021 39.1841974,22.9445277 L37.7491759,27.4895052 L37.711817,27.4895052 L36.2614124,23.0412294 C36.0526421,22.3958021 35.7252023,22 34.9978024,22 C34.2704026,22 33.9407652,22.3958021 33.7341924,23.0412294 L32.2793927,27.4895052 L32.2442313,27.4895052 L30.8070123,22.9445277 C30.6334033,22.3958021 30.2356408,22 29.629108,22 C28.9039057,22 28.3852762,22.4295352 28.3852762,22.9625187 C28.3852762,23.3088456 28.4709819,23.6034483 28.6445909,24.0824588 L30.7564679,29.7923538 C31.0157826,30.4872564 31.4487064,31 32.2640096,31 C33.0265708,31 33.4770752,30.5794603 33.6990311,29.8890555 L34.9802218,26.0502249 L35.0175807,26.0502249 L36.2987714,29.8890555 C36.5251224,30.583958 36.9756268,31 37.7337928,31 C38.549096,31 38.9776246,30.4850075 39.2413345,29.7923538 L41.3751873,24.0509745 C41.5114374,23.6866567 41.6147238,23.4235382 41.6147238,23.1604198 C41.6125262,22.4295352 41.0916991,22 40.3642993,22 L40.3642993,22 Z M55.7473779,22 C55.1408451,22 54.7430826,22.3958021 54.567276,22.9445277 L53.1322545,27.4895052 L53.0948956,27.4895052 L51.6444911,23.0412294 C51.4335231,22.3958021 51.1060833,22 50.380881,22 C49.6534812,22 49.3238438,22.3958021 49.117271,23.0412294 L47.6624713,27.4895052 L47.62731,27.4895052 L46.1900909,22.9445277 C46.0186795,22.3958021 45.6187194,22 45.0143842,22 C44.2891819,22 43.7705524,22.4295352 43.7705524,22.9625187 C43.7705524,23.3088456 43.8562581,23.6034483 44.0276696,24.0824588 L46.1395465,29.7923538 C46.4010588,30.4872564 46.831785,31 47.6492858,31 C48.411847,31 48.8623514,30.5794603 49.0865048,29.8890555 L50.3633004,26.0502249 L50.4028569,26.0502249 L51.6840475,29.8890555 C51.9103986,30.583958 52.360903,31 53.119069,31 C53.9343722,31 54.3629008,30.4850075 54.6266107,29.7923538 L56.7604635,24.0509745 C56.8967136,23.6866567 57,23.4235382 57,23.1604198 C56.9956048,22.4295352 56.4747777,22 55.7473779,22 L55.7473779,22 Z" id="Shape" fill="#C4A659"></path>
                </g>
            </g>
        </g>
    </g>
</svg>
