<?xml version="1.0" encoding="UTF-8"?>
<svg viewBox="0 0 40 40" version="1.1" xmlns="http://www.w3.org/2000/svg" xmlns:xlink="http://www.w3.org/1999/xlink">
    <g stroke="none" stroke-width="1" fill="none" fill-rule="evenodd">
        <g transform="translate(-396.000000, -348.000000)" fill-rule="nonzero">
            <g transform="translate(396.000000, 348.000000)">
                <path d="M20,0 C8.9544,0 0,8.9544 0,20 C0,31.0456 8.9544,40 20,40 C31.0456,40 40,31.0456 40,20 C40,8.9544 31.0456,0 20,0 Z" id="Path" fill="#324D5B"></path>
                <g transform="translate(8.960000, 8.960000)">
                    <path d="M8.60444444,22.4 C8.60444444,22.4 7.85137778,20.3106286 5.76,20.3428571 C5.8176,20.3428571 8.60444444,19.6571429 8.60444444,19.6571429 C8.60444444,19.6571429 7.9808,17.6 7.89333333,17.6 C7.84924444,17.6198857 10.4035556,17.9963429 10.7377778,19.6571429 C10.7968,19.6290286 12.16,18.2857143 12.16,18.2857143 L12.16,22.4 L8.60444444,22.4 Z" id="Path" fill="#51BBA8"></path>
                    <path d="M11.36,0 C12.15488,0 12.8,0.6272 12.8,1.4 L12.8,22.4 L9.92,22.4 L9.92,1.4 C9.92,0.6279 10.5644,0 11.36,0 Z" id="Path" fill="#D07C40"></path>
                    <polygon fill="#F1CD6E" points="0 4.16 20.3 4.16 22.4 8.30128 20.3 12.48 6.16867668e-16 12.48 2.1 8.31584"></polygon>
                    <path d="M7.99399061,7.04 C7.79990011,7.04 7.67261612,7.16665667 7.61706123,7.34224888 L7.15715113,8.79664168 L7.14589951,8.79664168 L6.68106683,7.3731934 C6.61426031,7.16665667 6.50877635,7.04 6.27671162,7.04 C6.04394366,7.04 5.93845969,7.16665667 5.87235641,7.3731934 L5.4068205,8.79664168 L5.39556887,8.79664168 L4.93565878,7.34224888 C4.88010389,7.16665667 4.7528199,7.04 4.5587294,7.04 C4.32666467,7.04 4.16,7.17745127 4.16,7.348006 C4.16,7.45883058 4.18812906,7.55310345 4.24368395,7.70638681 L4.91948457,9.53355322 C5.00246529,9.75592204 5.1410009,9.92 5.40189791,9.92 C5.64591749,9.92 5.79007891,9.78542729 5.86180801,9.56449775 L6.27108581,8.33607196 L6.28304066,8.33607196 L6.69302168,9.56449775 C6.765454,9.78686657 6.9089122,9.92 7.15222855,9.92 C7.41312556,9.92 7.55095795,9.7552024 7.63464189,9.53355322 L8.31677155,7.69631184 C8.36037159,7.57973013 8.39412646,7.49553223 8.39412646,7.41133433 C8.39342323,7.17745127 8.22675857,7.04 7.99399061,7.04 L7.99399061,7.04 Z M12.9165758,7.04 C12.7224853,7.04 12.5952013,7.16665667 12.5389432,7.34224888 L12.0797363,8.79664168 L12.0677814,8.79664168 L11.603652,7.3731934 C11.5368455,7.16665667 11.4320647,7.04 11.1992968,7.04 C10.9665288,7.04 10.8610449,7.16665667 10.7949416,7.3731934 L10.3294057,8.79664168 L10.318154,8.79664168 L9.85824393,7.34224888 C9.80268904,7.16665667 9.67540505,7.04 9.48131455,7.04 C9.24924983,7.04 9.08328838,7.17745127 9.08328838,7.348006 C9.08328838,7.45883058 9.11071421,7.55310345 9.1662691,7.70638681 L9.84206972,9.53355322 C9.92505044,9.75592204 10.0635861,9.92 10.3244831,9.92 C10.5685026,9.92 10.7126641,9.78542729 10.7836899,9.56449775 L11.193671,8.33607196 L11.2056258,8.33607196 L11.6156068,9.56449775 C11.6880392,9.78686657 11.8322006,9.92 12.0748137,9.92 C12.3357107,9.92 12.4728399,9.7552024 12.5572271,9.53355322 L13.2400599,7.69631184 C13.28366,7.57973013 13.3167116,7.49553223 13.3167116,7.41133433 C13.3160084,7.17745127 13.1493437,7.04 12.9165758,7.04 L12.9165758,7.04 Z M17.8391609,7.04 C17.6450704,7.04 17.5177864,7.16665667 17.4615283,7.34224888 L17.0023214,8.79664168 L16.9903666,8.79664168 L16.5262371,7.3731934 C16.4587274,7.16665667 16.3539467,7.04 16.1218819,7.04 C15.889114,7.04 15.78363,7.16665667 15.7175267,7.3731934 L15.2519908,8.79664168 L15.2407392,8.79664168 L14.7808291,7.34224888 C14.7259774,7.16665667 14.5979902,7.04 14.4046029,7.04 C14.1725382,7.04 14.0065768,7.17745127 14.0065768,7.348006 C14.0065768,7.45883058 14.0340026,7.55310345 14.0888543,7.70638681 L14.7646549,9.53355322 C14.8483388,9.75592204 14.9861712,9.92 15.2477715,9.92 C15.491791,9.92 15.6359525,9.78542729 15.7076816,9.56449775 L16.1162561,8.33607196 L16.1289142,8.33607196 L16.5388952,9.56449775 C16.6113275,9.78686657 16.755489,9.92 16.9981021,9.92 C17.2589991,9.92 17.3961283,9.7552024 17.4805154,9.53355322 L18.1633483,7.69631184 C18.2069484,7.57973013 18.24,7.49553223 18.24,7.41133433 C18.2385935,7.17745127 18.0719289,7.04 17.8391609,7.04 L17.8391609,7.04 Z" id="Shape" fill="#C4A659"></path>
                </g>
            </g>
        </g>
    </g>
</svg>
