<?xml version="1.0" encoding="UTF-8"?>
<svg viewBox="0 0 25.5 27" version="1.1" xmlns="http://www.w3.org/2000/svg" xmlns:xlink="http://www.w3.org/1999/xlink">
    <title>image</title>
    <g id="Page-1" stroke="none" stroke-width="1" fill="none" fill-rule="evenodd">
        <g id="File-Icons" transform="translate(-477.000000, -311.000000)">
            <g id="image" transform="translate(477.308319, 311.362769)">
                <polygon id="Shape-Copy-48" fill="#128F4B" fill-rule="nonzero" points="20 26.0152862 0 26.0152862 0 0 13.75 0 20 6.19411576"></polygon>
                <polygon id="Shape-Copy-47" fill="#53D28D" fill-rule="nonzero" points="19.1453684 6.86277059 13.2078684 6.86277059 13.2078684 0.978360622"></polygon>
                <path d="M8.31702072,18.8305757 L6.59724619,21.0318871 L13.4505477,21.0318871 L11.2492363,18.0996715 L9.53806063,20.3009829 L8.31702072,18.8305757 Z M14.4308192,21.5220228 C14.4308192,21.7914555 14.3347994,22.0221896 14.1427569,22.2142321 C13.9507145,22.4062745 13.7199804,22.5022943 13.4505477,22.5022943 L6.59724619,22.5022943 C6.33354611,22.5022943 6.10567826,22.4062745 5.91363581,22.2142321 C5.72159336,22.0221896 5.62557358,21.7914555 5.62557358,21.5220228 L5.62557358,14.6687213 C5.62557358,14.4050212 5.72159336,14.1771534 5.91363581,13.9851109 C6.10567826,13.7930685 6.33354611,13.6970487 6.59724619,13.6970487 L13.4505477,13.6970487 C13.7199804,13.6970487 13.9507145,13.7916354 14.1427569,13.9808115 C14.3347994,14.1699876 14.4308192,14.3992886 14.4308192,14.6687213 L14.4308192,21.5220228 Z" id="-copy" fill="#53D28D"></path>
            </g>
        </g>
    </g>
</svg>
