<svg viewBox="0 0 24.425 31.938" xmlns="http://www.w3.org/2000/svg">
    <g data-name="Group 363" fill="none" stroke="currentColor" stroke-linecap="round"
        stroke-linejoin="round" stroke-miterlimit="10">
        <path
            d="M23.841 15.242v-7.4A7.34 7.34 0 0 0 16.5.5H1.728A1.228 1.228 0 0 0 .5 1.728v25.8a1.228 1.228 0 0 0 1.228 1.228h3.686"/>
        <path d="M17.698.603v4.811a1.228 1.228 0 0 0 1.228 1.228h4.816" data-name="Path"/>
        <path
            d="M18.929 27.339h1.789a3.654 3.654 0 0 0 3.2-3.565 3.557 3.557 0 0 0-3.689-3.557 4.982 4.982 0 0 0-9.48 1.833 2.673 2.673 0 0 0-3.22 2.608c0 2.716 2.851 2.674 2.851 2.674h2.134"/>
        <path d="M15.728 23.239v8.2M17.963 25.475l-2.236-2.236-2.236 2.236" data-name="Shape"/>
    </g>
</svg>
