<?xml version="1.0" encoding="UTF-8"?>
<svg viewBox="0 0 102 102" version="1.1" xmlns="http://www.w3.org/2000/svg" xmlns:xlink="http://www.w3.org/1999/xlink">
    <title>Individual contact</title>
    <g id="CoP-Admin" stroke="none" stroke-width="1" fill="none" fill-rule="evenodd">
        <g id="Group-40" transform="translate(1.000000, 0.980769)">
            <line x1="16" y1="90.6858974" x2="7.5" y2="90.6858974" id="Path" stroke="#37474F" stroke-linecap="round" stroke-linejoin="round"></line>
            <ellipse id="Oval-Copy" stroke="#37474F" stroke-linecap="round" stroke-linejoin="round" cx="50" cy="50.0192308" rx="50" ry="50.0192308"></ellipse>
            <line x1="4.1" y1="90.6858974" x2="2.4" y2="90.6858974" id="Path" stroke="#37474F" stroke-linecap="round" stroke-linejoin="round"></line>
            <line x1="85.7" y1="7.3525641" x2="94.2" y2="7.3525641" id="Path" stroke="#37474F" stroke-linecap="round" stroke-linejoin="round"></line>
            <line x1="97.6" y1="7.3525641" x2="99.3" y2="7.3525641" id="Path" stroke="#37474F" stroke-linecap="round" stroke-linejoin="round"></line>
            <path d="M69.2777778,44.3525641 C69.0888889,44.3525641 68.9,44.3525641 68.7111111,44.3525641 C66.6333333,35.3692308 58.3222222,28.7692308 48.5,28.7692308 C38.6777778,28.7692308 30.3666667,35.3692308 28.2888889,44.3525641 C28.1,44.3525641 27.9111111,44.3525641 27.7222222,44.3525641 C25.0777778,44.3525641 23,46.3692308 23,48.9358974 C23,51.5025641 25.0777778,53.5192308 27.7222222,53.5192308 C27.9111111,53.5192308 28.1,53.5192308 28.2888889,53.5192308 C30.3666667,62.5025641 38.6777778,69.1025641 48.5,69.1025641 C58.3222222,69.1025641 66.6333333,62.5025641 68.7111111,53.5192308 C68.9,53.5192308 69.0888889,53.5192308 69.2777778,53.5192308 C71.9222222,53.5192308 74,51.5025641 74,48.9358974 C74,46.3692308 71.9222222,44.3525641 69.2777778,44.3525641 Z" id="Path" stroke="#37474F" stroke-linecap="round" stroke-linejoin="round"></path>
            <path d="M29.6111111,47.1025641 L28.6666667,47.1025641 L28.6666667,35.1858974 L34.3333333,35.1858974 L34.3333333,42.5192308 C34.3333333,45.0858974 32.2555556,47.1025641 29.6111111,47.1025641 Z" id="Path" stroke="#37474F" fill="#FFB300" fill-rule="nonzero" stroke-linecap="round" stroke-linejoin="round"></path>
            <path d="M61.7222222,35.1858974 L28.6666667,35.1858974 L28.6666667,35.1858974 C28.6666667,27.6692308 35.0888889,21.4358974 42.8333333,21.4358974 L52.6555556,21.4358974 C56.8111111,21.4358974 60.7777778,20.5192308 64.5555556,18.8692308 L71.1666667,15.9358974 L71.1666667,26.0192308 C71.1666667,31.1525641 67.0111111,35.1858974 61.7222222,35.1858974 Z" id="Path" stroke="#37474F" fill="#FFB300" fill-rule="nonzero" stroke-linecap="round" stroke-linejoin="round"></path>
            <path d="M62.6666667,35.0025641 L62.6666667,42.5192308 C62.6666667,45.0858974 64.7444444,47.1025641 67.3888889,47.1025641 L68.3333333,47.1025641 L68.3333333,32.6192308 C66.8222222,33.9025641 64.9333333,34.8192308 62.6666667,35.0025641 Z" id="Path" stroke="#37474F" fill="#FFB300" fill-rule="nonzero" stroke-linecap="round" stroke-linejoin="round"></path>
            <ellipse id="Oval" fill="#37474F" fill-rule="nonzero" cx="55.1111111" cy="46.1858974" rx="1.88888889" ry="1.83333333"></ellipse>
            <ellipse id="Oval" fill="#37474F" fill-rule="nonzero" cx="41.8888889" cy="46.1858974" rx="1.88888889" ry="1.83333333"></ellipse>
            <path d="M41.8888889,55.3525641 C45.6666667,59.0192308 51.5222222,59.0192308 55.3,55.3525641" id="Path" stroke="#37474F" stroke-linecap="round" stroke-linejoin="round"></path>
            <path d="M48.5,69.4280358 C45.875,69.4280358 43.25,68.8997339 41,68.0192308 L41,71.1890421 L41,71.1890421 C44.5625,76.2959603 52.4375,76.2959603 56,71.1890421 L56,71.1890421 L56,68.0192308 C53.75,68.8997339 51.125,69.4280358 48.5,69.4280358 Z" id="Path" stroke="#37474F" stroke-linecap="round" stroke-linejoin="round"></path>
            <path d="M55.9014599,71.0192308 C52.3649635,76.3290899 44.5474453,76.3290899 41.0109489,71.0192308 C38.4271444,72.1161769 36.489291,72.9388865 35.1973887,73.4873595 C32.5598506,74.6071181 28.6035434,76.2867559 23.3284672,78.526273 C20.5364964,79.6248646 18.3029197,81.6389491 17,84.0192308" id="Path" stroke="#37474F" stroke-linecap="round" stroke-linejoin="round"></path>
            <path d="M79.9014599,71.0192308 C77.3176553,72.1161769 75.3798019,72.9388865 74.0878997,73.4873595 C71.4503615,74.6071181 67.4940544,76.2867559 62.2189781,78.526273 C59.4270073,79.6248646 57.1934307,81.6389491 55.8905109,84.0192308" id="Path-Copy" stroke="#37474F" stroke-linecap="round" stroke-linejoin="round" transform="translate(67.895985, 77.519231) scale(-1, 1) translate(-67.895985, -77.519231) "></path>
        </g>
    </g>
</svg>