<svg xmlns="http://www.w3.org/2000/svg" viewBox="0 0 15.985 15.987">
  <g id="info-circle" transform="translate(7898.5 414.5)">
    <path d="M245.985,1922.364a7.6,7.6,0,0,1-7.493,7.621,7.382,7.382,0,0,1-7.493-7.362,7.6,7.6,0,0,1,7.493-7.624,7.382,7.382,0,0,1,7.493,7.364Z" transform="translate(-8129 -2329)" fill="none" stroke="currentColor" stroke-linecap="round" stroke-linejoin="round" stroke-width="1"/>
    <path d="M242,1925.778v-4.768" transform="translate(-8132.507 -2330.916)" fill="none" stroke="currentColor" stroke-linecap="round" stroke-linejoin="round" stroke-width="1"/>
    <path d="M241.914,1930.01a.167.167,0,0,0-.164.174.173.173,0,0,0,.172.167h0a.167.167,0,0,0,.164-.174.172.172,0,0,0-.166-.167h0" transform="translate(-8132.428 -2333.786)" fill="none" stroke="currentColor" stroke-linecap="round" stroke-linejoin="round" stroke-width="1"/>
  </g>
</svg>
