<?xml version="1.0" encoding="utf-8"?><svg xmlns="http://www.w3.org/2000/svg" width="25" height="25" viewBox="0 0 25 25" x="0px" y="0px"><g transform="translate(-406 -2155.053)"><g transform="translate(406.5 2155.553)"><path d="M429.167,2155.553H408.5a1.612,1.612,0,1,0,0,3.13h21.333a.608.608,0,0,1,.667.522v19.826a.608.608,0,0,1-.667.522H409.167a2.43,2.43,0,0,1-2.667-2.087v-20.348" transform="translate(-406.5 -2155.553)" fill="none" stroke="currentColor" stroke-linecap="round" stroke-linejoin="round" stroke-width="1"/><g transform="translate(7.875 7.119)"><path d="M421,2174.553a5,5,0,0,0-10,0Z" transform="translate(-411 -2162.053)" fill="none" stroke="currentColor" stroke-linecap="round" stroke-linejoin="round" stroke-width="1"/><path d="M416,2168.053a3,3,0,1,0-3-3A3,3,0,0,0,416,2168.053Z" transform="translate(-411 -2162.053)" fill="none" stroke="currentColor" stroke-linecap="round" stroke-linejoin="round" stroke-width="1"/></g></g></g></svg>
