<?xml version="1.0" encoding="UTF-8"?>
<svg viewBox="0 0 125 125" version="1.1" xmlns="http://www.w3.org/2000/svg" xmlns:xlink="http://www.w3.org/1999/xlink">
    <g stroke="none" stroke-width="1" fill="none" fill-rule="evenodd">
        <g transform="translate(-95.000000, -506.000000)" fill-rule="nonzero">
            <g transform="translate(95.000000, 506.000000)">
                <circle fill="#EDEDED" cx="62.5" cy="62.5" r="62.5"></circle>
                <path d="M62.5,98.74875 C83.90125,98.74875 101.25,99.86875 101.25,101.24875 C101.25,102.62875 83.90125,103.74875 62.5,103.74875 C41.09875,103.74875 23.75,102.62875 23.75,101.24875 C23.75,99.86875 41.09875,98.74875 62.5,98.74875 Z" fill="#D0D0D0"></path>
                <path d="M36.25,23.74875 L88.75,23.74875 C95.6525,23.74875 101.25,29.34625 101.25,36.24875 L101.25,88.74875 C101.25,95.6525 95.6525,101.24875 88.75,101.24875 L36.25,101.24875 C29.3475,101.24875 23.75,95.6525 23.75,88.74875 L23.75,36.24875 C23.75,29.34625 29.3475,23.74875 36.25,23.74875 Z" fill="#415661"></path>
                <path d="M36.25,28.74875 L88.75,28.74875 C92.89125,28.74875 96.25,32.1075 96.25,36.24875 L96.25,72.49875 C96.25,76.64 92.89125,79.99875 88.75,79.99875 L36.25,79.99875 C32.10875,79.99875 28.75,76.64 28.75,72.49875 L28.75,36.24875 C28.75,32.1075 32.10875,28.74875 36.25,28.74875 Z"  fill="#2B414D"></path>
                <path d="M37.5,32.49875 L87.5,32.49875 C90.26125,32.49875 92.5,34.7375 92.5,37.49875 L92.5,71.24875 C92.5,74.01 90.26125,76.24875 87.5,76.24875 L37.5,76.24875 C34.73875,76.24875 32.5,74.01 32.5,71.24875 L32.5,37.49875 C32.5,34.7375 34.73875,32.49875 37.5,32.49875 Z" fill="#E2574C"></path>
                <path d="M87.5,36.24875 L37.5,36.24875 C36.80875,36.24875 36.25,36.80875 36.25,37.49875 L36.25,49.99875 C36.25,52.76 48.0025,54.99875 62.5,54.99875 C76.9975,54.99875 88.75,52.76 88.75,49.99875 L88.75,37.49875 C88.75,36.80875 88.19125,36.24875 87.5,36.24875 L87.5,36.24875 Z" fill="#E87970"></path>
                <path d="M72.7875,52.37 L57.41875,42.83 C56.2075,42.06875 55.01625,42.6825 55.01625,44.1975 L55.01625,63.32125 C55.01625,64.83375 56.2075,65.45 57.41875,64.6875 L72.7625,55.28625 C74.30125,54.38 73.74,52.9225 72.7875,52.37 Z" fill="#FFFFFF"></path>
                <path d="M52.5,84.99875 C51.80875,84.99875 51.25,85.55875 51.25,86.24875 L51.25,92.49875 C51.25,93.19 51.80875,93.74875 52.5,93.74875 C53.19125,93.74875 53.75,93.19 53.75,92.49875 L53.75,86.24875 C53.75,85.55875 53.19125,84.99875 52.5,84.99875 Z M57.5,84.99875 C56.80875,84.99875 56.25,85.55875 56.25,86.24875 L56.25,92.49875 C56.25,93.19 56.80875,93.74875 57.5,93.74875 C58.19125,93.74875 58.75,93.19 58.75,92.49875 L58.75,86.24875 C58.75,85.55875 58.19125,84.99875 57.5,84.99875 Z M62.5,84.99875 C61.80875,84.99875 61.25,85.55875 61.25,86.24875 L61.25,92.49875 C61.25,93.19 61.80875,93.74875 62.5,93.74875 C63.19125,93.74875 63.75,93.19 63.75,92.49875 L63.75,86.24875 C63.75,85.55875 63.19125,84.99875 62.5,84.99875 Z M67.5,84.99875 C66.80875,84.99875 66.25,85.55875 66.25,86.24875 L66.25,92.49875 C66.25,93.19 66.80875,93.74875 67.5,93.74875 C68.19125,93.74875 68.75,93.19 68.75,92.49875 L68.75,86.24875 C68.75,85.55875 68.19125,84.99875 67.5,84.99875 Z M72.5,84.99875 C71.80875,84.99875 71.25,85.55875 71.25,86.24875 L71.25,92.49875 C71.25,93.19 71.80875,93.74875 72.5,93.74875 C73.19125,93.74875 73.75,93.19 73.75,92.49875 L73.75,86.24875 C73.75,85.55875 73.19125,84.99875 72.5,84.99875 Z" fill="#2B414D"></path>
                <path d="M83.125,84.99875 C80.70875,84.99875 78.75,86.9575 78.75,89.37375 C78.75,91.79 80.70875,93.74875 83.125,93.74875 C85.54125,93.74875 87.5,91.79 87.5,89.37375 C87.5,86.9575 85.54125,84.99875 83.125,84.99875 Z M41.875,84.99875 C39.45875,84.99875 37.5,86.9575 37.5,89.37375 C37.5,91.79 39.45875,93.74875 41.875,93.74875 C44.29125,93.74875 46.25,91.79 46.25,89.37375 C46.25,86.9575 44.29125,84.99875 41.875,84.99875 Z" id="Shape" fill="#FFFFFF"></path>
                <path d="M41.875,87.49875 C40.84,87.49875 40,88.33875 40,89.37375 C40,90.40875 40.84,91.24875 41.875,91.24875 C42.91,91.24875 43.75,90.40875 43.75,89.37375 C43.75,88.33875 42.91,87.49875 41.875,87.49875 Z M83.125,87.49875 C82.09,87.49875 81.25,88.33875 81.25,89.37375 C81.25,90.40875 82.09,91.24875 83.125,91.24875 C84.16,91.24875 85,90.40875 85,89.37375 C85,88.33875 84.16,87.49875 83.125,87.49875 Z" id="Shape" fill="#2B414D"></path>
                <path d="M72.76375,55.285 L57.42,64.68625 C56.20875,65.44875 55.0175,64.8325 55.0175,63.32 L55.0175,64.57 C55.0175,66.0825 56.20875,66.69875 57.42,65.93625 L72.76375,56.535 C73.76125,55.94875 73.86875,55.1325 73.5675,54.47875 C73.42125,54.7675 73.17,55.04625 72.76375,55.285 L72.76375,55.285 Z" fill="#CB4E44"></path>
                <g transform="translate(36.250000, 86.250000)" fill="#3A4D57">
                    <path d="M5.625,7.49875 C3.20875,7.49875 1.25,5.54 1.25,3.12375 C1.25,2.23625 1.51875,1.4125 1.97375,0.7225 C0.78625,1.505 0,2.845 0,4.37375 C0,6.79 1.95875,8.74875 4.375,8.74875 C5.9025,8.74875 7.24375,7.9625 8.02625,6.775 C7.33625,7.23 6.5125,7.49875 5.625,7.49875 Z M46.875,7.49875 C44.45875,7.49875 42.5,5.54 42.5,3.12375 C42.5,2.23625 42.76875,1.4125 43.2225,0.7225 C42.03625,1.505 41.25,2.845 41.25,4.37375 C41.25,6.79 43.20875,8.74875 45.625,8.74875 C47.15375,8.74875 48.49375,7.9625 49.2775,6.775 C48.58625,7.23 47.7625,7.49875 46.875,7.49875 Z" id="Shape"></path>
                </g>
                <path d="M88.75,98.74875 L36.25,98.74875 C29.3475,98.74875 23.75,93.1525 23.75,86.24875 L23.75,88.74875 C23.75,95.6525 29.3475,101.24875 36.25,101.24875 L88.75,101.24875 C95.6525,101.24875 101.25,95.6525 101.25,88.74875 L101.25,86.24875 C101.25,93.1525 95.6525,98.74875 88.75,98.74875 Z" fill="#3A4D57"></path>
            </g>
        </g>
    </g>
</svg>
