<?xml version="1.0" encoding="UTF-8"?>
<svg viewBox="0 0 22 22" version="1.1" xmlns="http://www.w3.org/2000/svg" xmlns:xlink="http://www.w3.org/1999/xlink">
    <g id="Desktop" stroke="none" stroke-width="1" fill="none" fill-rule="evenodd" stroke-linecap="round" stroke-linejoin="round">
        <g transform="translate(1.000000, 1.000000)" stroke="#339BB2">
            <circle id="Oval" cx="17.3913043" cy="8.06818051" r="1.95652174"></circle>
            <path d="M17.3913043,10.8933979 C15.9505615,10.8933979 14.7826087,12.0613507 14.7826087,13.5020936 L14.7826087,15.6760066 L16.0869565,15.6760066 L16.5217391,19.5890501 L18.2608696,19.5890501 L18.6956522,15.6760066 L20,15.6760066 L20,13.5020936 C20,12.0613507 18.8320472,10.8933979 17.3913043,10.8933979 L17.3913043,10.8933979 Z" id="Shape"></path>
            <path d="M12.1739132,14.8073109 C12.1739132,15.0474347 11.9792542,15.2420936 11.7391304,15.2420936 L6.08695638,15.2420936 L6.08695638,0.435137029 C6.08682425,0.272136255 6.17787498,0.122754204 6.32281472,0.0481771186 C6.46775446,-0.0263999664 6.6422322,-0.0136425498 6.77478261,0.0812239857 L11.9921739,3.80818051 C12.106341,3.88988996 12.1740269,4.02169927 12.1739132,4.16209355 L12.1739132,14.8073109 Z" id="Shape"></path>
            <line x1="11.3043478" y1="3.31687616" x2="11.3043478" y2="0.894267464" id="Shape"></line>
            <line x1="6.08695652" y1="3.93774572" x2="7.82608696" y2="3.93774572" id="Shape"></line>
            <line x1="6.08695652" y1="6.54644138" x2="8.69565217" y2="6.54644138" id="Shape"></line>
            <line x1="0" y1="9.15513703" x2="2.60869565" y2="9.15513703" id="Shape"></line>
            <line x1="0" y1="11.7638327" x2="2.60869565" y2="11.7638327" id="Shape"></line>
            <line x1="6.08695652" y1="9.15513703" x2="10" y2="9.15513703" id="Shape"></line>
            <path d="M7.82608696,15.2420936 L7.82608696,12.1986153 C7.82608696,11.9584915 8.02074576,11.7638327 8.26086957,11.7638327 L10,11.7638327 C10.2401238,11.7638327 10.4347826,11.9584915 10.4347826,12.1986153 L10.4347826,15.2420936" id="Shape"></path>
            <path d="M6.08695652,6.54644138 L0.434782609,6.54644138 C0.194658804,6.54644138 0,6.74110018 0,6.98122399 L0,14.8073109 C0,15.0474347 0.194658804,15.2420936 0.434782609,15.2420936 L6.08695652,15.2420936" id="Shape"></path>
        </g>
    </g>
</svg>
