<?xml version="1.0" encoding="UTF-8"?>
<svg viewBox="0 0 40 40" version="1.1">
    <title>join cop</title>
    <g id="User-View-" stroke="none" stroke-width="1" fill="none" fill-rule="evenodd">
        <g id="join-cop" fill-rule="nonzero">
            <path d="M36.3636364,0 L3.63636364,0 C1.62727273,0 0,1.62727273 0,3.63636364 L0,36.3636364 C0,38.3727273 1.62727273,40 3.63636364,40 L36.3636364,40 C38.3727273,40 40,38.3727273 40,36.3636364 L40,3.63636364 C40,1.62727273 38.3727273,0 36.3636364,0 Z" id="Path" fill="#F0C419"></path>
            <path d="M23.6363636,34.5454545 L7.27272727,34.5454545 C6.26909091,34.5454545 5.45454545,33.7309091 5.45454545,32.7272727 L5.45454545,32.7272727 C5.45454545,31.7236364 6.26909091,30.9090909 7.27272727,30.9090909 L23.6363636,30.9090909 C24.64,30.9090909 25.4545455,31.7236364 25.4545455,32.7272727 L25.4545455,32.7272727 C25.4545455,33.7309091 24.64,34.5454545 23.6363636,34.5454545 Z" id="Path" fill="#4482C3"></path>
            <path d="M32.7272727,27.2727273 L7.27272727,27.2727273 C6.26909091,27.2727273 5.45454545,26.4581818 5.45454545,25.4545455 L5.45454545,25.4545455 C5.45454545,24.4509091 6.26909091,23.6363636 7.27272727,23.6363636 L32.7272727,23.6363636 C33.7309091,23.6363636 34.5454545,24.4509091 34.5454545,25.4545455 L34.5454545,25.4545455 C34.5454545,26.4581818 33.7309091,27.2727273 32.7272727,27.2727273 Z" id="Path" fill="#4482C3"></path>
            <path d="M11.8181818,16.9272727 C11.8181818,16.9272727 5.45454545,12.7272727 5.45454545,9.09090909 C5.45454545,7.08181818 7.08181818,5.45454545 9.09090909,5.45454545 C10.1836364,5.45454545 11.1509091,5.94545455 11.8181818,6.70909091 C12.4854545,5.94545455 13.4527273,5.45454545 14.5454545,5.45454545 C16.5545455,5.45454545 18.1818182,7.08181818 18.1818182,9.09090909 C18.1818182,12.7272727 11.8181818,16.9272727 11.8181818,16.9272727 Z" id="Path" fill="#4482C3"></path>
        </g>
    </g>
</svg>
