<?xml version="1.0" encoding="UTF-8"?>
<svg version="1.1" viewBox="0 0 26.0 26.0"
    xmlns="http://www.w3.org/2000/svg" xmlns:xlink="http://www.w3.org/1999/xlink">
    <defs>
        <clipPath id="i0">
            <path d="M1300,0 L1300,1256 L0,1256 L0,0 L1300,0 Z"></path>
        </clipPath>
    </defs>
    <g transform="translate(-118.0 -360.0)">
        <g clip-path="url(#i0)">
            <g transform="translate(119.0000000000002 361.0)">
                <g transform="translate(1.4494115048877418 17.21815344488945)">
                    <path d="M0,0.527865645 L8.45942551,0.516378955" stroke="currentColor"
                        stroke-width="1" fill="none" stroke-linecap="round"
                        stroke-linejoin="round"></path>
                </g>
                <g transform="translate(2.0895334447264915 4.692961589431212)">
                    <path d="M0,0.5221223 L19.8239395,0.5221223" stroke="currentColor" stroke-width="1"
                        fill="none" stroke-linecap="round" stroke-linejoin="round"></path>
                </g>
                <g transform="translate(-8.881784197001252e-16 10.95268584451015)">
                    <path d="M10.4309593,0.516378955 L0,0.527865645" stroke="currentColor"
                        stroke-width="1" fill="none" stroke-linecap="round"
                        stroke-linejoin="round"></path>
                </g>
                <g transform="translate(0.002350594678658169 0.0)">
                    <path
                        d="M11.3454555,24 C5.08119354,23.6534132 0.139398841,18.5431749 0.00289019264,12.2708177 C-0.133618456,5.99846045 4.58116872,0.678060872 10.8244205,0.0592663796 C17.0676724,-0.559528113 22.7351221,3.73184506 23.8325324,9.90896337"
                        stroke="currentColor" stroke-width="1" fill="none" stroke-linecap="round"
                        stroke-linejoin="round"></path>
                </g>
                <g transform="translate(6.591406350781747 0.021011248748388667)">
                    <path
                        d="M4.64257706,0 C-1.62289054,6.7875899 -1.50906788,15.6198107 4.75639972,23.9737675"
                        stroke="currentColor" stroke-width="1" fill="none" stroke-linecap="round"
                        stroke-linejoin="round"></path>
                </g>
                <g transform="translate(12.75962476817243 0.021011248748388667)">
                    <path
                        d="M0,0 C2.20648066,2.30650029 3.71758339,5.18863468 4.35972121,8.31531975"
                        stroke="currentColor" stroke-width="1" fill="none" stroke-linecap="round"
                        stroke-linejoin="round"></path>
                </g>
                <g transform="translate(16.50115317019891 15.744202191900229)">
                    <path
                        d="M1.50057949,3.00115898 C2.32932666,3.00115898 3.00115898,2.32932666 3.00115898,1.50057949 C3.00115898,0.671832322 2.32932666,0 1.50057949,0 C0.671832322,0 0,0.671832322 0,1.50057949 C0,2.32932666 0.671832322,3.00115898 1.50057949,3.00115898 Z"
                        stroke="currentColor" stroke-width="1" fill="none" stroke-linecap="round"
                        stroke-linejoin="round"></path>
                </g>
                <g transform="translate(12.00136639904802 10.49229938681566)">
                    <path
                        d="M7.27538892,0.945438074 L7.71814863,2.39902656 C7.86874051,2.89997629 8.38210666,3.19822193 8.89187956,3.08091828 L10.3663529,2.7394503 C10.9395775,2.61024562 11.5300957,2.86963888 11.8227388,3.37918793 C12.115382,3.88873697 12.041845,4.52950906 11.6413756,4.95951432 L10.6096619,6.07163482 C10.2566656,6.45529841 10.2566656,7.0454892 10.6096619,7.4291528 L11.6413756,8.5412733 C12.041845,8.97127855 12.115382,9.61205065 11.8227388,10.1215997 C11.5300957,10.6311487 10.9395775,10.890542 10.3663529,10.7613373 L8.89187956,10.4188251 C8.38248383,10.3061662 7.87255379,10.6060179 7.72336985,11.105938 L7.28061014,12.5595265 C7.11139787,13.1222932 6.59324307,13.5075655 6.00558748,13.5075655 C5.4179319,13.5075655 4.8997771,13.1222932 4.73056483,12.5595265 L4.28258389,11.105938 C4.13112627,10.6056724 3.61846036,10.3078336 3.10885296,10.4240463 L1.63437959,10.7665585 C1.06115502,10.8957632 0.470636856,10.63637 0.177993685,10.1268209 C-0.114649485,9.61727187 -0.0411124566,8.97649977 0.359356932,8.54649452 L1.3910706,7.43437402 C1.7440669,7.05071043 1.7440669,6.46051963 1.3910706,6.07685604 L0.359356932,4.96473554 C-0.0411124566,4.53473028 -0.114649485,3.89395819 0.177993685,3.38440915 C0.470636856,2.87486011 1.06115502,2.61546684 1.63437959,2.74467152 L3.10885296,3.0861395 C3.61862586,3.20344315 4.13199201,2.90519751 4.28258389,2.40424778 L4.7253436,0.950659297 C4.89340031,0.387542915 5.41076735,0.00120604856 5.99842514,0 C6.58608292,-0.00120041247 7.10502767,0.383014604 7.27538892,0.945438074 Z"
                        stroke="currentColor" stroke-width="1" fill="none" stroke-linecap="round"
                        stroke-linejoin="round"></path>
                </g>
            </g>
        </g>
    </g>
</svg>
