<?xml version="1.0" encoding="utf-8"?>
<svg style="enable-background:new 0 0 24 24;" id="Light" version="1.1" viewBox="5 0 14 14" x="0px"
    xmlns="http://www.w3.org/2000/svg" y="0px" xml:space="preserve">
<g>
	<title>language</title>
	<path fill="currentColor" d="M11.978,13.999c-0.067-0.001-0.133-0.005-0.2-0.008l-0.011,0c-0.011,0.002-0.028,0.004-0.047,0.004
		c-0.019,0-0.049-0.004-0.073-0.01c-3.656-0.221-6.578-3.269-6.645-6.946C5.001,7.025,5,7.011,5,6.999
		c0-0.01,0.001-0.02,0.002-0.031c0,0-0.002-0.086-0.002-0.115c0-1.23,0.34-2.442,0.982-3.506c0.026-0.082,0.071-0.153,0.133-0.211
		c1.251-1.913,3.34-3.083,5.595-3.131C11.781,0,11.871-0.001,11.962-0.001l0.079,0c0.084,0,0.169,0.003,0.254,0.006
		c2.284,0.086,4.379,1.288,5.612,3.216c0.009,0.011,0.025,0.032,0.041,0.063C18.628,4.376,18.992,5.633,19,6.92v0.055l-0.001,0
		C18.999,6.984,19,6.992,19,6.999c0,0.007,0,0.014-0.001,0.02c-0.011,1.859-0.74,3.606-2.053,4.921
		c-1.24,1.241-2.885,1.969-4.634,2.05c-0.009,0.001-0.034,0.001-0.038,0.001c-0.091,0.004-0.191,0.007-0.292,0.007
		C11.981,13.999,11.979,13.999,11.978,13.999z M12.026,12.999c0.48-0.66,0.891-1.331,1.224-2h-2.495c0.333,0.669,0.743,1.34,1.223,2
		C11.982,12.999,12.014,12.999,12.026,12.999z M14.345,10.999c-0.277,0.622-0.613,1.24-1,1.845c1.094-0.251,2.086-0.801,2.894-1.61
		c0.075-0.075,0.149-0.154,0.222-0.235H14.345z M7.59,10.999c0.822,0.907,1.881,1.538,3.058,1.825
		c-0.383-0.599-0.714-1.21-0.988-1.825H7.59z M17.189,9.999c0.443-0.761,0.712-1.618,0.788-2.5h-2.701
		c-0.072,0.829-0.252,1.667-0.537,2.5H17.189z M13.691,9.999c0.323-0.838,0.527-1.677,0.608-2.5H9.707
		c0.081,0.823,0.285,1.662,0.608,2.5H13.691z M9.266,9.999c-0.285-0.833-0.465-1.672-0.536-2.5h-2.7
		c0.087,0.879,0.368,1.736,0.821,2.5H9.266z M17.98,6.499c-0.068-0.88-0.332-1.737-0.77-2.5h-2.3c0.249,0.807,0.383,1.646,0.4,2.5
		H17.98z M14.338,6.499c-0.02-0.854-0.176-1.693-0.465-2.5h-3.742c-0.289,0.808-0.445,1.647-0.464,2.5H14.338z M8.695,6.499
		c0.017-0.854,0.151-1.693,0.4-2.5H6.758c-0.435,0.767-0.69,1.624-0.745,2.5H8.695z M16.488,2.999
		c-0.798-0.892-1.853-1.531-3.007-1.821c0.422,0.581,0.775,1.191,1.054,1.821H16.488z M13.44,2.999
		c-0.358-0.696-0.822-1.367-1.385-2c0,0-0.091,0-0.106,0c-0.562,0.633-1.027,1.304-1.384,2H13.44z M9.471,2.999
		c0.281-0.637,0.639-1.254,1.068-1.842C9.361,1.436,8.284,2.082,7.472,2.999H9.471z"/>
    </g>
</svg>
