<?xml version="1.0" encoding="UTF-8"?>
<svg viewBox="0 0 95 80" version="1.1" xmlns="http://www.w3.org/2000/svg" xmlns:xlink="http://www.w3.org/1999/xlink">
    <title>2D10845C-97BE-48E2-817F-611071472A0E</title>
    <g id="Desktop-Course-Certificate" stroke="none" stroke-width="1" fill="none" fill-rule="evenodd">
        <g id="Index---Course-Credits" transform="translate(-637.000000, -525.000000)">
            <g id="Group-66" transform="translate(637.000000, 525.000000)">
                <rect id="Rectangle" fill="#FDCB91" x="0" y="0" width="95" height="71" rx="10"></rect>
                <rect id="Rectangle" fill="#FFFFFF" x="9.05633803" y="13" width="71" height="45" rx="6"></rect>
                <g id="Group-65" transform="translate(47.000000, 2.000000)">
                    <g id="Group-64" transform="translate(9.000000, 15.000000)">
                        <path d="M1,15.12 L14.2727273,15.12 C14.825012,15.12 15.2727273,15.5677153 15.2727273,16.12 L15.2727273,61.1418347 C15.2727273,61.6941195 14.825012,62.1418347 14.2727273,62.1418347 C14.0768791,62.1418347 13.8853418,62.0843256 13.7218851,61.9764441 L8.18720584,58.3235559 C7.85308343,58.1030351 7.41964384,58.1030351 7.08552143,58.3235559 L1.55084221,61.9764441 C1.08990016,62.2806659 0.469612345,62.153619 0.165390593,61.6926769 C0.0575091261,61.5292202 6.24123343e-15,61.337683 0,61.1418347 L0,16.12 C-6.76353751e-17,15.5677153 0.44771525,15.12 1,15.12 Z" id="Rectangle" fill="#B2527E"></path>
                        <path d="M13.7272727,0 L27,0 C27.5522847,-1.01453063e-16 28,0.44771525 28,1 L28,46.0218347 C28,46.5741195 27.5522847,47.0218347 27,47.0218347 C26.8041518,47.0218347 26.6126146,46.9643256 26.4491578,46.8564441 L20.9144786,43.2035559 C20.5803562,42.9830351 20.1469166,42.9830351 19.8127942,43.2035559 L14.2781149,46.8564441 C13.8171729,47.1606659 13.1968851,47.033619 12.8926633,46.5726769 C12.7847819,46.4092202 12.7272727,46.217683 12.7272727,46.0218347 L12.7272727,1 C12.7272727,0.44771525 13.174988,1.01453063e-16 13.7272727,0 Z" id="Rectangle-Copy-15" fill="#A95079"></path>
                    </g>
                    <g id="Group-62">
                        <path d="M19.3675277,41.3701423 C18.1877382,42.2622553 16.5081293,42.0290474 15.6160163,40.8492578 C15.5042479,40.7014479 15.4081224,40.5424368 15.3291845,40.3747801 C14.4974463,38.608245 12.5936186,37.6090391 10.6673076,37.9280383 C9.20807024,38.1696896 7.82922758,37.1826411 7.58757629,35.7234038 C7.557301,35.5405832 7.54608219,35.3551141 7.55410015,35.1699772 C7.63858235,33.21926 6.41718075,31.4497543 4.56327072,30.8370127 C3.15887927,30.3728429 2.39667904,28.8580747 2.86084885,27.4536833 C2.91900237,27.2777341 2.9952604,27.1082957 3.08839735,26.9480913 C4.06974609,25.2600778 3.81057899,23.1256447 2.4537784,21.721534 C1.425962,20.6578788 1.45501509,18.9624061 2.51867029,17.9345897 C2.65193034,17.8058197 2.79819543,17.6912283 2.95511481,17.5926573 C4.60851492,16.5540511 5.37095438,14.5436635 4.8220899,12.6698485 C4.40630889,11.2503785 5.21995959,9.76261362 6.6394296,9.34683261 C6.8172679,9.29474149 7.00003248,9.26124864 7.18478595,9.24689235 C9.13146339,9.09562561 10.7408437,7.66983906 11.1256536,5.75558828 C11.4171584,4.30548695 12.8290091,3.36625888 14.2791105,3.65776369 C14.4607864,3.69428487 14.6381813,3.74956336 14.8084441,3.82271072 C16.6024385,4.59343679 18.6900701,4.07888182 19.920399,2.562727 C20.8524094,1.41419507 22.5390221,1.23866968 23.6875541,2.17068006 C23.8314479,2.28744699 23.9628341,2.41883317 24.079601,2.562727 C25.3099299,4.07888182 27.3975615,4.59343679 29.1915559,3.82271072 C30.5505595,3.23886302 32.1255517,3.86725105 32.7093994,5.22625466 C32.7825468,5.39651743 32.8378252,5.57391233 32.8743464,5.75558828 C33.2591563,7.66983906 34.8685366,9.09562561 36.815214,9.24689235 C38.2898795,9.36148136 39.3924394,10.6498267 39.2778504,12.1244922 C39.2634941,12.3092456 39.2300012,12.4920102 39.1779101,12.6698485 C38.6290456,14.5436635 39.3914851,16.5540511 41.0448852,17.5926573 C42.2973845,18.379432 42.6749288,20.0325902 41.888154,21.2850895 C41.789583,21.4420089 41.6749916,21.588274 41.5462216,21.721534 C40.189421,23.1256447 39.9302539,25.2600778 40.9116027,26.9480913 C41.6550032,28.2268111 41.2210412,29.8660637 39.9423213,30.6094642 C39.7821169,30.7026012 39.6126785,30.7788592 39.4367293,30.8370127 C37.5828193,31.4497543 36.3614176,33.21926 36.4458999,35.1699772 C36.5098976,36.6477029 35.3638447,37.8975167 33.886119,37.9615144 C33.7009821,37.9695324 33.515513,37.9583136 33.3326924,37.9280383 C31.4063814,37.6090391 29.5025537,38.608245 28.6708155,40.3747801 C28.0407493,41.7129824 26.4451524,42.2870402 25.1069501,41.6569741 C24.9392934,41.5780362 24.7802822,41.4819107 24.6324723,41.3701423 C23.0750549,40.1924811 20.9249451,40.1924811 19.3675277,41.3701423 Z" id="Star" fill="#C97E94"></path>
                        <circle id="Oval" fill="#FDCB91" cx="22" cy="22" r="13.2"></circle>
                        <circle id="Oval" fill="#FFFFFF" cx="22" cy="22" r="8.17142857"></circle>
                    </g>
                </g>
                <g id="Group-63" transform="translate(15.000000, 19.000000)" fill="#656565">
                    <rect id="Rectangle" x="0" y="-1.8189894e-12" width="33" height="3.4" rx="1.7"></rect>
                    <rect id="Rectangle-Copy-11" x="0" y="7" width="33" height="3.4" rx="1.7"></rect>
                    <rect id="Rectangle-Copy-14" x="0" y="14" width="33" height="3.4" rx="1.7"></rect>
                    <path d="M8.17077371,21.0611392 C8.67697781,20.9343892 9.11849204,21.0158487 9.53412658,21.2031783 C9.68366407,21.2705759 9.81971856,21.3471055 9.97209132,21.445139 L10.3447819,21.7002161 L10.6040149,21.8830072 C10.7879301,22.0112923 10.94182,22.1130194 11.0989722,22.208367 C11.4891624,22.4451038 11.8703629,22.622368 12.2812925,22.7458407 L12.8667917,22.9274434 L13.1803239,23.0331087 L13.4520508,23.1338812 C13.4947899,23.1506226 13.5364883,23.1674255 13.5774967,23.1844226 C15.0874012,23.8102432 15.5758234,24.8587432 15.0852745,26.299301 L15.0317558,26.4389173 L14.8207085,26.9340301 L13.6829348,29.5041019 L13.365857,30.2413278 L13.2406119,30.5447265 L13.1300431,30.835782 L13.0465766,31.0886012 L13.0368297,31.1210564 L13.0697848,31.112027 C13.7961965,30.9025863 14.9159676,30.4055266 16.3610413,29.6200167 L17.0000767,29.2657069 L17.6256148,28.9065116 C18.3389622,28.4904385 19.2914272,28.674417 19.7530049,29.317439 C20.2145827,29.960461 20.010483,30.8190273 19.2971356,31.2351003 L18.611187,31.6293117 C18.3877839,31.7556709 18.1695867,31.876985 17.9564734,31.9932526 L17.3322637,32.3269142 C15.2000584,33.4417305 13.6149276,34 12.4358119,34 C9.91642434,34 9.38539243,32.1500244 10.2757435,29.7846703 L10.4293016,29.4004338 L10.7177912,28.7206718 L12.0860728,25.6257319 L11.7850705,25.524401 L11.4846354,25.4304821 L11.3082965,25.3770601 C10.8443921,25.2376699 10.4122248,25.0621496 9.99578308,24.8514897 L9.74353887,24.7169324 L9.74353887,24.9859666 C9.74353887,28.97833 6.6749264,30.8933176 1.42052334,30.5289793 C0.57336813,30.4702379 -0.0605595533,29.8035674 0.00460623228,29.039929 C0.0697720179,28.2762906 0.809354315,27.7048587 1.65650953,27.7636001 C5.19523942,28.0089743 6.59268214,27.2014632 6.66378111,25.1546444 L6.66665545,24.9859666 L6.67126889,24.0047926 L6.6795142,23.5814386 L6.69387026,23.2042556 L6.71595069,22.8700758 C6.82187264,21.6151395 7.15190629,21.3162565 8.17077371,21.0611392 Z" id="Path-5" fill-rule="nonzero"></path>
                </g>
            </g>
        </g>
    </g>
</svg>
