<?xml version="1.0" encoding="UTF-8"?>
<svg viewBox="0 0 24 20" version="1.1" xmlns="http://www.w3.org/2000/svg" xmlns:xlink="http://www.w3.org/1999/xlink">
    <title>Group 17</title>
    <g id="LEARNING-ADMIN" stroke="none" stroke-width="1" fill="none" fill-rule="evenodd" stroke-linecap="round" stroke-linejoin="round">
        <g id="LEARNING-ADMIN-01-Copy" transform="translate(-71.000000, -89.000000)" stroke="#333333">
            <g id="Group-17" transform="translate(72.006941, 90.001000)">
                <rect id="Rectangle" x="2.49305863" y="0" width="17" height="12" rx="1"></rect>
                <path d="M3.40205863,11.9989965 C3.04008663,11.9980617 2.70445833,12.1881117 2.51905863,12.4989965 L0.134058633,16.4989965 C-0.0461661825,16.8110374 -0.0445732597,17.1959069 0.138228299,17.5064418 C0.321029857,17.8169767 0.656766302,18.005147 1.01705863,17.9989965 L20.9690586,17.9989965 C21.329351,18.005147 21.6650874,17.8169767 21.847889,17.5064418 C22.0306905,17.1959069 22.0322834,16.8110374 21.8520586,16.4989965 L19.4670586,12.4989965 C19.2816589,12.1881117 18.9460306,11.9980617 18.5840586,11.9989965" id="Path"></path>
                <line x1="8.49305863" y1="16" x2="13.4930586" y2="16" id="Path"></line>
                <path d="M10.9930585,3.699 C10.9930585,3.699 11.9130586,2.408 14.9760586,2.275 C15.1115872,2.27038934 15.2431758,2.32102523 15.3406536,2.41529779 C15.4381314,2.50957036 15.4930585,2.63939307 15.4930585,2.775 L15.4930585,8.075 C15.4930585,8.34804811 15.2740718,8.57063123 15.0010586,8.575 C11.9180586,8.699 10.9930585,9.999 10.9930585,9.999 L10.9930585,3.699 C10.9930585,3.699 10.0730586,2.408 7.01005863,2.275 C6.87453009,2.27038934 6.74294149,2.32102523 6.64546366,2.41529779 C6.54798582,2.50957036 6.49305855,2.63939307 6.49305855,2.775 L6.49305855,8.075 C6.49305855,8.34804811 6.71204547,8.57063123 6.98505863,8.575 C10.0680586,8.699 10.9930585,9.999 10.9930585,9.999" id="Path"></path>
            </g>
        </g>
    </g>
</svg>
