<?xml version="1.0" encoding="UTF-8"?>
<svg viewBox="0 0 18 24" version="1.1" xmlns="http://www.w3.org/2000/svg" xmlns:xlink="http://www.w3.org/1999/xlink">
    <g stroke="none" stroke-width="1" fill="none" fill-rule="evenodd" stroke-linecap="round" stroke-linejoin="round">
        <g transform="translate(-545.000000, -246.000000)" stroke="currentColor">
            <g transform="translate(546.000000, 247.000000)">
                <path d="M16.2608696,18.173913 L16.2608696,0.956521739 C16.2608696,0.42824937 15.8326202,0 15.3043478,0 L1.91304348,0 C0.856498739,0 0,0.856498739 0,1.91304348 L0,20.0869565"></path>
                <path d="M16.2608696,18.173913 L1.91304348,18.173913 C0.856498739,18.173913 0,19.0304118 0,20.0869565 C0,21.1435013 0.856498739,22 1.91304348,22 L16.2608696,22"></path>
                <line x1="2.86956522" y1="20.087913" x2="16.2608696" y2="20.087913"></line>
                <path d="M11.3472174,5.73913043 C10.3366506,4.82300345 9.01604189,4.32457025 7.65217391,4.34452174 C4.92991304,4.34452174 2.72321739,6.18295652 2.72321739,8.45182609 C2.81932188,10.2256591 4.02877254,11.7438077 5.73626087,12.233913 C6.43547826,12.4797391 7.01321739,12.2788696 7.41782609,11.3663478 C7.56662983,10.9349756 7.9237419,10.6082918 8.36662616,10.4983916 C8.80951043,10.3884914 9.27792047,10.5103248 9.61113043,10.822087 L9.70678261,10.9177391"></path>
                <line x1="12.2750435" y1="9.20652174" x2="9.70295652" y2="14.3487826"></line>
                <path d="M11.7231304,7.55652174 C11.4612694,8.15692083 11.715001,8.85725582 12.3006642,9.15059669 C12.8863274,9.44393756 13.5991357,9.22771297 13.9231304,8.65843478 C14.595775,7.62459719 14.4610308,6.26244886 13.5988696,5.38043478 C13.5644959,5.347685 13.5142874,5.33776003 13.4700383,5.35496803 C13.4257892,5.37217602 13.3954776,5.41341433 13.3922609,5.46078261 C13.4008696,6.56556522 12.4041739,6.19156522 11.7231304,7.55652174 Z"></path>
                <path d="M5.26086957,9.08695652 C5.39293766,9.08695652 5.5,9.19401886 5.5,9.32608696"></path>
                <path d="M5.02173913,9.32704348 C5.02148478,9.26345658 5.04656648,9.20238679 5.09143973,9.15733405 C5.13631298,9.1122813 5.19728215,9.08695601 5.26086957,9.08695652"></path>
                <path d="M5.26086957,9.56521739 C5.12880147,9.56521739 5.02173913,9.45815505 5.02173913,9.32608696"></path>
                <path d="M5.5,9.32704348 C5.49947322,9.45873787 5.39256501,9.56521844 5.26086957,9.56521739"></path>
                <path d="M5.97826087,6.69565217 C6.11032896,6.69565217 6.2173913,6.80271452 6.2173913,6.93478261"></path>
                <path d="M5.73913043,6.93573913 C5.73913043,6.80367104 5.84619278,6.6966087 5.97826087,6.6966087"></path>
                <path d="M5.97826087,7.17391304 C5.84619278,7.17391304 5.73913043,7.0668507 5.73913043,6.93478261"></path>
                <path d="M6.2173913,6.93573913 C6.21686452,7.06743352 6.10995632,7.1739141 5.97826087,7.17391304"></path>
                <path d="M8.36956522,6.2173913 C8.50163331,6.2173913 8.60869565,6.32445365 8.60869565,6.45652174"></path>
                <path d="M8.13043478,6.45747826 C8.13018043,6.39389136 8.15526213,6.33282158 8.20013538,6.28776883 C8.24500864,6.24271608 8.30597781,6.2173908 8.36956522,6.2173913"></path>
                <path d="M8.36956522,6.69565217 C8.23749713,6.69565217 8.13043478,6.58858983 8.13043478,6.45652174"></path>
                <path d="M8.60869565,6.45747826 C8.60869565,6.58954635 8.50163331,6.6966087 8.36956522,6.6966087"></path>
            </g>
        </g>
    </g>
</svg>
