<svg xmlns="http://www.w3.org/2000/svg" viewBox="0 0 198.6 198.601"><g transform="translate(-1500 -1850.5)"><path d="M148.95,0H3.1A3.1,3.1,0,0,0,0,3.1V114.816a3.1,3.1,0,0,0,3.1,3.1H32.732a43.384,43.384,0,1,1,86.593,0H148.95a3.1,3.1,0,0,0,3.1-3.1V3.1A3.1,3.1,0,0,0,148.95,0Z" transform="translate(1520.17 1864.464)" fill="#339BB2"/><path d="M150.5,0H4.655A4.658,4.658,0,0,0,0,4.655V12.67a1.552,1.552,0,0,0,3.1,0V4.655A1.554,1.554,0,0,1,4.655,3.1H150.5a1.556,1.556,0,0,1,1.552,1.552V116.367a1.554,1.554,0,0,1-1.552,1.552H120.873a1.552,1.552,0,1,0,0,3.1H150.5a4.66,4.66,0,0,0,4.655-4.655V4.655A4.66,4.66,0,0,0,150.5,0Z" transform="translate(1518.619 1862.912)" fill="#37474f"/><path d="M181.533,0H17.067A17.087,17.087,0,0,0,0,17.067V128.78a17.087,17.087,0,0,0,17.067,17.067H55.506a1.552,1.552,0,0,0,0-3.1H17.067A13.979,13.979,0,0,1,3.1,128.78V17.067A13.979,13.979,0,0,1,17.067,3.1H181.533A13.981,13.981,0,0,1,195.5,17.067V128.78a13.981,13.981,0,0,1-13.964,13.964H136.888a1.552,1.552,0,0,0,0,3.1h44.645A17.087,17.087,0,0,0,198.6,128.78V17.067A17.089,17.089,0,0,0,181.533,0Z" transform="translate(1500 1850.5)" fill="#37474f"/><path d="M82.646,71.372h15.1a7.757,7.757,0,0,0,7.758-7.758V7.758A7.757,7.757,0,0,0,97.748,0H68.269C59.7,0,52.753,3.842,52.753,12.413,52.753,3.845,45.805,0,37.238,0H7.758A7.757,7.757,0,0,0,0,7.758V63.614a7.757,7.757,0,0,0,7.758,7.758h15.1" transform="translate(1543.441 1876.877)" fill="#fff"/><path d="M99.3,0H69.82C62.311,0,56.828,2.725,54.3,7.413,51.779,2.725,46.3,0,38.789,0H9.309A9.321,9.321,0,0,0,0,9.309V65.166a9.321,9.321,0,0,0,9.309,9.309h15.1a1.552,1.552,0,0,0,0-3.1H9.309A6.212,6.212,0,0,1,3.1,65.166V9.309A6.212,6.212,0,0,1,9.309,3.1h29.48c3.277,0,13.964.782,13.964,10.858a1.552,1.552,0,1,0,3.1,0C55.856,3.885,66.543,3.1,69.82,3.1H99.3a6.212,6.212,0,0,1,6.206,6.206V65.166A6.212,6.212,0,0,1,99.3,71.372H84.2a1.552,1.552,0,0,0,0,3.1H99.3a9.321,9.321,0,0,0,9.309-9.309V9.309A9.321,9.321,0,0,0,99.3,0Z" transform="translate(1541.892 1875.325)" fill="#37474f"/><path d="M6.206,21.723A6.213,6.213,0,0,1,0,15.517V6.206a6.206,6.206,0,0,1,12.411,0v9.311A6.213,6.213,0,0,1,6.206,21.723Zm0-18.62a3.106,3.106,0,0,0-3.1,3.1v9.311a3.1,3.1,0,0,0,6.206,0V6.206A3.106,3.106,0,0,0,6.206,3.1Z" transform="translate(1678.43 1912.563)" fill="#37474f"/><g transform="translate(1509.309 1915.666)"><path d="M0,12.413V0" transform="translate(1.552 1.552)" fill="#ffca28"/><path d="M1.552,0A1.55,1.55,0,0,0,0,1.552V13.964a1.552,1.552,0,0,0,3.1,0V1.552A1.552,1.552,0,0,0,1.552,0Z" fill="#37474f"/></g><path d="M1.552,0A1.55,1.55,0,0,0,0,1.552v9.309a1.552,1.552,0,1,0,3.1,0V1.552A1.552,1.552,0,0,0,1.552,0Z" transform="translate(1500 1878.428)" fill="#37474f"/><path d="M1.552,0A1.552,1.552,0,0,0,0,1.552v9.309a1.552,1.552,0,1,0,3.1,0V1.552A1.552,1.552,0,0,0,1.552,0Z" transform="translate(1518.619 1883.34)" fill="#37474f"/><path d="M34.28,78.872H4.655A1.554,1.554,0,0,1,3.1,77.321V1.552a1.552,1.552,0,0,0-3.1,0V77.321a4.658,4.658,0,0,0,4.655,4.655H34.28a1.552,1.552,0,1,0,0-3.1Z" transform="translate(1518.619 1901.959)" fill="#37474f"/><g transform="translate(1608.609 1890.841)"><path d="M0,0,24.738.118" transform="translate(1.552 1.552)" fill="#fff"/><path d="M26.3.118,1.558,0H1.552a1.552,1.552,0,0,0-.006,3.1l24.741.118h.006A1.552,1.552,0,0,0,26.3.118Z" transform="translate(0)" fill="#37474f"/></g><g transform="translate(1608.609 1903.251)"><path d="M0,0,24.738.118" transform="translate(1.552 1.554)" fill="#fff"/><path d="M26.3.12,1.558,0a1.552,1.552,0,1,0-.012,3.1l24.741.118h.006A1.552,1.552,0,0,0,26.3.12Z" transform="translate(0 0)" fill="#37474f"/></g><g transform="translate(1608.609 1915.666)"><path d="M0,0,24.738.118" transform="translate(1.552 1.552)" fill="#fff"/><path d="M26.3.118,1.558,0H1.552a1.552,1.552,0,0,0-.006,3.1l24.741.118h.006A1.552,1.552,0,0,0,26.3.118Z" transform="translate(0)" fill="#37474f"/></g><g transform="translate(1608.609 1928.076)"><path d="M0,0,24.738.118" transform="translate(1.552 1.554)" fill="#fff"/><path d="M26.3.12,1.558,0a1.552,1.552,0,1,0-.012,3.1l24.741.118h.006A1.552,1.552,0,0,0,26.3.12Z" transform="translate(0 0)" fill="#37474f"/></g><g transform="translate(1555.856 1890.841)"><path d="M0,0,24.738.118" transform="translate(1.552 1.552)" fill="#fff"/><path d="M26.3.118,1.558,0H1.552a1.552,1.552,0,0,0-.006,3.1l24.741.118h.006A1.552,1.552,0,0,0,26.3.118Z" transform="translate(0)" fill="#37474f"/></g><g transform="translate(1555.856 1903.253)"><path d="M0,0,24.738.118" transform="translate(1.552 1.552)" fill="#fff"/><path d="M26.3.118,1.558,0H1.552a1.552,1.552,0,0,0-.006,3.1l24.741.118h.006A1.552,1.552,0,0,0,26.3.118Z" transform="translate(0)" fill="#37474f"/></g><g transform="translate(1555.856 1915.666)"><path d="M0,0,24.738.118" transform="translate(1.552 1.552)" fill="#fff"/><path d="M26.3.118,1.558,0H1.552a1.552,1.552,0,0,0-.006,3.1l24.741.118h.006A1.552,1.552,0,0,0,26.3.118Z" transform="translate(0)" fill="#37474f"/></g><g transform="translate(1555.856 1928.078)"><path d="M0,0,24.738.118" transform="translate(1.552 1.552)" fill="#fff"/><path d="M26.3.118,1.558,0H1.552a1.552,1.552,0,0,0-.006,3.1l24.741.118h.006A1.552,1.552,0,0,0,26.3.118Z" transform="translate(0)" fill="#37474f"/></g><path d="M12.919,23.241a1.541,1.541,0,0,1-1.1-.452L.455,11.425a1.554,1.554,0,0,1,.2-2.363A35.552,35.552,0,0,0,5.239,5.236,35.924,35.924,0,0,0,9.062.647,1.556,1.556,0,0,1,10.2,0l.093,0a1.567,1.567,0,0,1,1.136.452L22.794,11.819a1.551,1.551,0,0,1,0,2.192l-8.778,8.778A1.563,1.563,0,0,1,12.919,23.241ZM10.509,3.918A36.869,36.869,0,0,1,7.437,7.431,37.014,37.014,0,0,1,3.923,10.5l9,9L19.5,12.913l-9-9h0Z" transform="translate(1616.189 1999.715)" fill="#37474f"/><path d="M38.773,77.559a38.787,38.787,0,0,1-27.428-66.2A38.789,38.789,0,0,1,66.2,66.218,38.535,38.535,0,0,1,38.773,77.559Zm0-74.459A35.685,35.685,0,0,0,13.537,64.02,35.687,35.687,0,0,0,64.006,13.551,35.46,35.46,0,0,0,38.773,3.1Zm0,65.154a29.434,29.434,0,1,1,20.843-8.621A29.284,29.284,0,0,1,38.775,68.254Zm0-55.831a26.363,26.363,0,1,0,18.65,7.711A26.2,26.2,0,0,0,38.775,12.422Z" transform="translate(1557.422 1940.928)" fill="#37474f"/><path d="M18.619,58.959A7.757,7.757,0,0,1,10.861,51.2V0h-3.1A7.757,7.757,0,0,0,0,7.758V63.614a7.757,7.757,0,0,0,7.758,7.758H24.617a43.2,43.2,0,0,1,8.276-11.665c.267-.267.555-.49.829-.748Z" transform="translate(1532.583 1889.289)" fill="#ffca28"/><path d="M25.964,0h-3.1V51.2A7.757,7.757,0,0,1,15.1,58.959H0c.27.258.562.481.829.748A43.131,43.131,0,0,1,9.1,71.372H25.967a7.757,7.757,0,0,0,7.758-7.758V7.758A7.763,7.763,0,0,0,25.964,0Z" transform="translate(1626.089 1889.289)" fill="#ffca28"/><path d="M35.273,58.959H20.17a6.212,6.212,0,0,1-6.206-6.206V1.552A1.552,1.552,0,0,0,12.413,0h-3.1A9.321,9.321,0,0,0,0,9.309V65.166a9.321,9.321,0,0,0,9.309,9.309H26.169a1.552,1.552,0,1,0,0-3.1H9.309A6.212,6.212,0,0,1,3.1,65.166V9.309A6.212,6.212,0,0,1,9.309,3.1h1.552v49.65a9.321,9.321,0,0,0,9.309,9.309h15.1a1.552,1.552,0,0,0,0-3.1Z" transform="translate(1531.031 1887.738)" fill="#37474f"/><path d="M27.515,0h-3.1a1.552,1.552,0,0,0-1.552,1.552v51.2a6.212,6.212,0,0,1-6.206,6.206H1.552a1.552,1.552,0,0,0,0,3.1h15.1a9.321,9.321,0,0,0,9.309-9.309V3.1h1.552a6.212,6.212,0,0,1,6.206,6.206V65.163a6.213,6.213,0,0,1-6.206,6.206H10.653a1.552,1.552,0,1,0,0,3.1H27.515a9.321,9.321,0,0,0,9.309-9.309V9.309A9.321,9.321,0,0,0,27.515,0Z" transform="translate(1624.538 1887.738)" fill="#37474f"/><path d="M33.822,22.852,11.88.91a3.1,3.1,0,0,0-4.388,0L.91,7.492a3.1,3.1,0,0,0,0,4.388L22.852,33.822a3.1,3.1,0,0,0,4.388,0l6.582-6.582A3.1,3.1,0,0,0,33.822,22.852Z" transform="translate(1629.297 2012.818)" fill="#ef5350"/><path d="M26.595,37.831A4.627,4.627,0,0,1,23.3,36.465L1.359,14.522a4.665,4.665,0,0,1,0-6.583l6.585-6.58a4.664,4.664,0,0,1,6.583,0L36.47,23.3a4.677,4.677,0,0,1,0,6.585l-6.585,6.583A4.645,4.645,0,0,1,26.595,37.831ZM11.237,3.1a1.541,1.541,0,0,0-1.1.452L3.554,10.134a1.549,1.549,0,0,0,0,2.192L25.5,34.27a1.586,1.586,0,0,0,2.192,0l6.585-6.583a1.56,1.56,0,0,0,0-2.192L12.335,3.552A1.541,1.541,0,0,0,11.237,3.1Z" transform="translate(1627.748 2011.271)" fill="#37474f"/><g transform="translate(1594.645 1887.734)"><path d="M0,0V47.04" transform="translate(1.548 1.555)" fill="#fff"/><path d="M1.552,0A1.552,1.552,0,0,0,0,1.552V48.595a1.552,1.552,0,1,0,3.1,0V1.552A1.552,1.552,0,0,0,1.552,0Z" fill="#37474f"/></g><path d="M1.552,0a1.552,1.552,0,0,0,0,3.1A17.087,17.087,0,0,1,18.619,20.17a1.552,1.552,0,0,0,3.1,0A20.2,20.2,0,0,0,1.552,0Z" transform="translate(1594.645 1959.547)" fill="#37474f"/><path d="M13.62.454a1.553,1.553,0,0,0-2.194,0L.454,11.423a1.552,1.552,0,0,0,2.2,2.194L13.624,2.648A1.55,1.55,0,0,0,13.62.454Z" transform="translate(1646.206 2029.73)" fill="#37474f"/></g></svg>
