<?xml version="1.0" encoding="UTF-8"?>
<svg viewBox="0 0 24 24" version="1.1" xmlns="http://www.w3.org/2000/svg" xmlns:xlink="http://www.w3.org/1999/xlink">
    <title>Group 18</title>
    <g id="LEARNING-ADMIN" stroke="none" stroke-width="1" fill="none" fill-rule="evenodd" stroke-linecap="round" stroke-linejoin="round">
        <g id="LEARNING-ADMIN-01-Copy" transform="translate(-247.000000, -88.000000)" stroke="currentColor">
            <g id="Group-18" transform="translate(247.500000, 88.500000)">
                <circle id="Oval" cx="11.5" cy="11.5" r="11.5"></circle>
                <path d="M21.947,9.33 C22.3,8.831 22.5,8.5 22.5,8.5" id="Path"></path>
                <path d="M19.431,12.185 C19.9026908,11.7649125 20.346937,11.3149879 20.761,10.838" id="Path"></path>
                <path d="M16.187,13.969 C16.7992109,13.8427624 17.385762,13.6142272 17.922,13.293" id="Path"></path>
                <path d="M12.5,13.458 C13.0774653,13.6825305 13.6747597,13.8522773 14.284,13.965" id="Path"></path>
                <path d="M8.942,12.155 C9.54274375,12.3119763 10.132379,12.5087441 10.707,12.744" id="Path"></path>
                <path d="M5.262,12.424 C5.6446248,12.2067227 6.06450884,12.0629175 6.5,12 C6.69,11.973 6.879,11.956 7.065,11.948" id="Path"></path>
                <path d="M2.9,15.263 C3.15798451,14.700264 3.47832357,14.1682664 3.855,13.677" id="Path"></path>
                <path d="M2,18 C2,18 2.071,17.6 2.244,17.015" id="Path"></path>
                <path d="M14.5,2.99999985 C16.307628,2.99999985 17.773,4.46537201 17.773,6.273 C17.773,7.69 15.763,10.403 14.893,11.511 C14.7982011,11.6315253 14.6533401,11.7018868 14.5,11.7018868 C14.3466599,11.7018868 14.2017989,11.6315253 14.107,11.511 C13.237,10.403 11.2269998,7.69 11.2269998,6.273 C11.2267346,5.40486511 11.5714824,4.57221056 12.1853465,3.95834646 C12.7992106,3.34448236 13.6318651,2.99973464 14.5,2.99999985 L14.5,2.99999985 Z" id="Path"></path>
                <path d="M15.727,6.273 C15.727,6.95065339 15.1776534,7.5 14.5,7.5 C13.8223466,7.5 13.273,6.95065339 13.273,6.273 C13.273,5.59534661 13.8223466,5.046 14.5,5.046 C15.1776534,5.046 15.727,5.59534661 15.727,6.273 L15.727,6.273 Z" id="Path"></path>
            </g>
        </g>
    </g>
</svg>
