<?xml version="1.0" encoding="UTF-8"?>
<svg viewBox="0 0 17 22" version="1.1" xmlns="http://www.w3.org/2000/svg" xmlns:xlink="http://www.w3.org/1999/xlink">
    <g id="LEARNING-ADMIN" stroke="currentColor" stroke-width="1" fill="none" fill-rule="evenodd" stroke-linecap="round" stroke-linejoin="round">
        <g id="LEARNING-ADMIN-Search-Result" transform="translate(-649.000000, -169.000000)">
            <g id="Group-17" transform="translate(63.812500, 151.000000)">
                <g id="Group-18" transform="translate(562.187500, 1.000000)">
                    <g id="Group-12" transform="translate(24.000000, 17.000000)">
                        <g transform="translate(0.416667, 1.416667)">
                            <path d="M14.1666667,15.8333333 L14.1666667,0.833333333 C14.1666667,0.373096042 13.7935706,0 13.3333333,0 L1.66666667,0 C0.746192084,0 -7.72715225e-14,0.746192084 -7.72715225e-14,1.66666667 L-7.72715225e-14,17.5" id="Path" stroke="#333333"></path>
                            <path d="M14.1666667,15.8333333 L1.66666667,15.8333333 C0.746192084,15.8333333 -7.72715225e-14,16.5795254 -7.72715225e-14,17.5 C-7.72715225e-14,18.4204746 0.746192084,19.1666667 1.66666667,19.1666667 L14.1666667,19.1666667" id="Path" stroke="#333333"></path>
                            <line x1="2.5" y1="17.5008333" x2="14.1666667" y2="17.5008333" id="Path" stroke="#333333"></line>
                            <path d="M9.88583333,5 C9.00541528,4.20185907 7.85488498,3.76761802 6.66666667,3.785 C4.295,3.785 2.3725,5.38666667 2.3725,7.36333333 C2.45622739,8.90871817 3.50991547,10.2313476 4.9975,10.6583333 C5.60666667,10.8725 6.11,10.6975 6.4625,9.9025 C6.59213963,9.52668332 6.90325999,9.24207241 7.28910613,9.14632603 C7.67495226,9.05057965 8.08303678,9.15672236 8.37333333,9.42833333 L8.45666667,9.51166667" id="Path" stroke="#333333"></path>
                            <line x1="10.6941667" y1="8.02083333" x2="8.45333333" y2="12.5008333" id="Path" stroke="#333333"></line>
                            <path d="M10.2133333,6.58333333 C9.98519685,7.1064083 10.2062508,7.71654863 10.7164877,7.97211075 C11.2267246,8.22767288 11.8477319,8.03929539 12.13,7.54333333 C12.7160161,6.64264149 12.5986254,5.45592136 11.8475,4.6875 C11.8175532,4.65896799 11.773811,4.65032124 11.7352606,4.66531305 C11.6967103,4.68030487 11.6703024,4.71623219 11.6675,4.7575 C11.675,5.72 10.8066667,5.39416667 10.2133333,6.58333333 Z" id="Path" stroke="#333333"></path>
                            <path d="M4.58333333,7.91666667 C4.69839266,7.91666667 4.79166667,8.00994068 4.79166667,8.125" id="Path" stroke="#333333"></path>
                            <path d="M4.375,8.12583333 C4.37477841,8.07043565 4.39662989,8.01723092 4.43572401,7.97798042 C4.47481813,7.93872992 4.52793521,7.91666622 4.58333333,7.91666667" id="Path" stroke="#333333"></path>
                            <path d="M4.58333333,8.33333333 C4.46827401,8.33333333 4.375,8.24005932 4.375,8.125" id="Path" stroke="#333333"></path>
                            <path d="M4.79166667,8.12583333 C4.79120773,8.24056709 4.698068,8.33333425 4.58333333,8.33333333" id="Path" stroke="#333333"></path>
                            <path d="M5.20833333,5.83333333 C5.32339266,5.83333333 5.41666667,5.92660734 5.41666667,6.04166667" id="Path" stroke="#333333"></path>
                            <path d="M5,6.0425 C5,5.92744068 5.09327401,5.83416667 5.20833333,5.83416667" id="Path" stroke="#333333"></path>
                            <path d="M5.20833333,6.25 C5.09327401,6.25 5,6.15672599 5,6.04166667" id="Path" stroke="#333333"></path>
                            <path d="M5.41666667,6.0425 C5.41620773,6.15723375 5.323068,6.25000092 5.20833333,6.25" id="Path" stroke="#333333"></path>
                            <path d="M7.29166667,5.41666667 C7.40672599,5.41666667 7.5,5.50994068 7.5,5.625" id="Path" stroke="#333333"></path>
                            <path d="M7.08333333,5.62583333 C7.08311174,5.57043565 7.10496322,5.51723092 7.14405734,5.47798042 C7.18315146,5.43872992 7.23626854,5.41666622 7.29166667,5.41666667" id="Path" stroke="#333333"></path>
                            <path d="M7.29166667,5.83333333 C7.17660734,5.83333333 7.08333333,5.74005932 7.08333333,5.625" id="Path" stroke="#333333"></path>
                            <path d="M7.5,5.62583333 C7.5,5.74089266 7.40672599,5.83416667 7.29166667,5.83416667" id="Path" stroke="#333333"></path>
                        </g>
                    </g>
                </g>
            </g>
        </g>
    </g>
</svg>