<?xml version="1.0" encoding="UTF-8"?>
<svg viewBox="0 0 238 184" version="1.1" xmlns="http://www.w3.org/2000/svg" xmlns:xlink="http://www.w3.org/1999/xlink">
    <title>Group</title>
    <g id="LEARNING-ADMIN" stroke="none" stroke-width="1" fill="none" fill-rule="evenodd">
        <g id="LESSON-STUDIO-Empty-State" transform="translate(-431.000000, -260.000000)">
            <g id="Group-2" transform="translate(407.000000, 260.000000)">
                <g id="Group" transform="translate(24.000000, 0.000000)">
                    <path d="M0,183.11048 C4.74408994,175.994317 6.22661805,168.878155 4.44758432,161.761992 C1.77903373,151.087749 14.2322698,141.303025 23.1274385,142.192545 C32.0226071,143.082066 51.5919781,153.756309 54.2605287,148.419188 C56.9290793,143.082066 50.7024613,130.628781 52.481495,124.402139 C54.2605287,118.175497 61.3766636,98.6060503 83.6145852,101.274611 C94.2887876,103.053652 96.0678213,114.617416 106.742024,111.948855 C117.416226,109.280294 120.974294,74.5890019 137.875114,65.6937988 C154.775934,56.7985957 185.019508,51.4614739 214.373564,73.6994816 C233.942935,88.5248201 241.355576,125.29166 236.611486,184 L0,183.11048 Z" id="Path-2-Copy-3" fill="#F7F8F9"></path>
                    <g id="Group-20" transform="translate(18.000000, 0.000000)">
                        <g id="Group-13" transform="translate(49.790767, 36.790182)" fill-rule="nonzero">
                            <g id="Group-19" transform="translate(0.209233, 0.440000)">
                                <path d="M142.997182,26.7733109 L142.997182,111.843562 C142.997126,113.099752 142.778926,114.344746 142.35394,115.513744 C141.132497,118.778363 138.226973,120.937887 134.972473,121 L19.0658631,121 C15.7983943,120.950527 12.8756874,118.789552 11.6457311,115.513744 C11.2207446,114.344746 11.0025449,113.099752 11.002489,111.843562 L11.002489,9.15453645 C10.94871,6.78325783 11.7682828,4.48610083 13.2806915,2.76902799 C14.7931002,1.05195516 16.8742888,0.0558102047 19.0658631,0 L46.7779999,0 C49.3859399,0.0139300117 51.8055536,1.47224646 53.1893313,3.86414999 L61.4231822,17.6187745 L134.9672,17.6187745 C137.153998,17.6805076 139.228561,18.6796945 140.734484,20.3965143 C142.240408,22.113334 143.054328,24.4071456 142.997182,26.7733109 L142.997182,26.7733109 Z" id="Path" fill="#999999"></path>
                                <polygon id="Path" fill="#FFFFFF" points="20 25 135 25 135 63 20 63"></polygon>
                                <path d="M151.901726,45.0617361 L142.516218,111.240621 L141.872821,115.500819 C140.651085,118.773129 137.744861,120.937741 134.489578,121 L18.5550815,121 C15.2868266,120.950411 12.3634165,118.784345 11.1331643,115.500819 L10.496799,111.240621 L1.10250109,45.0617361 C0.754037593,42.8530696 1.30331973,40.5889054 2.60896195,38.8520406 C3.91460417,37.1151758 5.84906819,36.0752716 7.91442184,36 L145.056405,36 C147.124898,36.0731673 149.063591,37.1109167 150.375016,38.8469615 C151.68644,40.5830063 152.242943,42.8483613 151.901726,45.0617361 Z" id="Path" fill="#CCCCCC"></path>
                                <ellipse id="Oval" fill="#339BB2" cx="20" cy="109.5" rx="20" ry="21.5"></ellipse>
                                <polygon id="Path" fill="#EEEFEE" points="30 110.052542 24.7050683 110.052542 24.7050683 124 15.2932019 124 15.2932019 110.067827 10 110.067827 20 96"></polygon>
                            </g>
                        </g>
                        <g id="Group-18" transform="translate(51.049017, 26.500000) rotate(-10.000000) translate(-51.049017, -26.500000) translate(21.049017, 5.000000)" fill-rule="nonzero">
                            <path d="M0.990985188,0.433544157 L0.990985188,42.1916437 C0.990985188,42.2469795 1.05711497,42.3125939 1.11300531,42.3125939 L59.8688229,42.3125939 C59.9247132,42.3125939 59.9909852,42.2469795 59.9909852,42.1916437 L59.9909852,0.433544157 C59.9909852,0.378067571 59.9248554,0.312593935 59.8688229,0.312593935 C59.0327432,0.312593935 2.14320783,0.312593935 1.11300531,0.312593935 C1.05725719,0.312593935 0.990985188,0.378208374 0.990985188,0.433544157 Z" id="Path" fill="#339BB2"></path>
                            <path d="M31.0987538,8.3657668 C25.8737538,8.3657668 21.5987538,12.6407668 21.5987538,17.8657668 C21.5987538,23.0907668 25.8737538,27.3657668 31.0987538,27.3657668 C36.3237538,27.3657668 40.5987538,23.0907668 40.5987538,17.8657668 C40.5987538,12.6407668 36.3237538,8.3657668 31.0987538,8.3657668 L31.0987538,8.3657668 Z" id="Path" fill="#DFEBFA"></path>
                            <path d="M35.0709546,17.0520152 L29.2202891,13.6049407 C28.5039713,13.1829473 27.5911577,13.68755 27.5911577,14.5054417 L27.5911577,21.39974 C27.5911577,22.2176318 28.5041237,22.7222345 29.2202891,22.3002411 L35.0709546,18.8531665 C35.7645587,18.4444443 35.7645587,17.4607375 35.0709546,17.0520152 L35.0709546,17.0520152 Z" id="Path" fill="#415C6B"></path>
                            <path d="M41.6130836,32.4921339 L9.63294517,32.4921339 C8.51749085,32.4921339 7.61308357,33.3875093 7.61308357,34.4921339 C7.61308357,35.5966197 8.5173508,36.4921339 9.63294517,36.4921339 L41.6130836,36.4921339 L41.6130836,32.4921339 Z" id="Path" fill="#415C6B"></path>
                            <path d="M52.0122467,32.5468109 L41.9582546,32.5468109 L41.9582546,36.5468109 L52.0122467,36.5468109 C53.0869158,36.5468109 53.9582546,35.6514044 53.9582546,34.5467416 C53.9581197,33.4422174 53.0869158,32.5468109 52.0122467,32.5468109 Z" id="Path" fill="#DFEBFA"></path>
                            <path d="M42.4549879,38.5841498 C41.6265514,38.5841498 40.9549879,38.0646158 40.9549879,37.4237219 L40.9549879,30.7445777 C40.9549879,30.1036839 41.6265514,29.5841498 42.4549879,29.5841498 C43.2834243,29.5841498 43.9549879,30.1036839 43.9549879,30.7445777 L43.9549879,37.4237219 C43.955182,38.0646158 43.2834243,38.5841498 42.4549879,38.5841498 Z" id="Path" fill="#415C6B"></path>
                        </g>
                        <g id="Group-48-Copy" transform="translate(0.000000, 42.114798)">
                            <path d="M18.5358738,2.32570966 C21.1461171,0.0720449086 23.1421854,-0.458229151 24.5240789,0.734887483 C24.7543945,1.3314458 21.5299764,1.13259303 21.9906075,2.12685689 C22.297695,2.78969947 22.9118698,2.72341521 23.8331322,1.92800412 C24.2937633,1.66286709 24.5240789,1.7954356 24.5240789,2.32570966 C24.5240789,2.85598372 22.9886417,3.45254204 19.9177673,4.11538462 L18.5358738,2.32570966 Z" id="Path-10" fill="#EACDB0"></path>
                            <path d="M37.6307898,11.1153846 C35.2034047,10.3976813 34.2038932,9.46466691 34.6322553,8.31634155 C35.2747984,6.59385351 37.2024278,5.08667648 39.1300571,7.02447552 C39.9867813,8.17280088 39.4870255,9.53643725 37.6307898,11.1153846 Z" id="Path-11" fill="#EACDB0"></path>
                            <polygon id="Path-7" fill="#415C6B" points="9.53587382 125.115385 14.7294222 125.115385 23.3100674 78.9063682 30.7616803 125.115385 35.7294222 125.115385 37.5358738 70.1153846 9.53587382 70.1153846"></polygon>
                            <path d="M5.53587382,128.035385 L10.8222174,126.115385 L15.0072395,126.115385 C15.8882967,126.755385 15.6680324,127.715385 14.3464465,128.995385 C13.1717035,129.155385 10.2348459,129.155385 5.53587382,128.995385 L5.53587382,128.035385 Z" id="Path-8" fill="#292949"></path>
                            <path d="M31.5358738,128.035385 L36.8222174,126.115385 L41.0072395,126.115385 C41.8882967,126.755385 41.6680324,127.715385 40.3464465,128.995385 C39.1717035,129.155385 36.2348459,129.155385 31.5358738,128.995385 L31.5358738,128.035385 Z" id="Path-8-Copy" fill="#292949" transform="translate(36.535874, 127.615385) scale(-1, 1) translate(-36.535874, -127.615385) "></path>
                            <polygon id="Path-9" fill="#EACDB0" points="22.5358738 32.1153846 22.766643 29.1153846 25.0743354 29.1153846 25.5358738 32.1153846"></polygon>
                            <circle id="Oval" fill="#EACDB0" cx="24.0358738" cy="24.6153846" r="4.5"></circle>
                            <ellipse id="Oval-Copy-5" fill="#292949" cx="23.5358738" cy="21.6153846" rx="5" ry="5.5"></ellipse>
                            <path d="M7.37258649,70.1153846 C9.61149825,51.5939325 11.1787365,41.8777609 12.0743012,40.9668698 C13.4176482,39.6005331 -0.911386992,23.4322163 0.655851235,15.4619193 C1.70067672,10.1483879 7.44721688,5.3662097 17.8954717,1.11538462 L20.5821658,4.75894897 C13.566909,9.4652196 9.61149825,13.4124143 8.71593354,16.6005331 C7.37258649,21.3827113 15.65656,30.2638995 19.0149276,30.2638995 C21.2538394,30.2638995 24.0151639,30.2638995 27.2989011,30.2638995 C38.4934599,24.1912922 44.0907392,20.7754506 44.0907392,20.0163747 C44.0907392,19.2572988 41.180154,15.9173648 35.3589834,9.99657273 L39.1651334,7.49162224 C46.9266941,12.6533384 51.6284088,16.8282559 53.2702774,20.0163747 C54.912146,23.2044935 48.9417147,29.7325463 35.3589834,39.6005331 C39.090503,59.9437675 40.3592196,70.1153846 39.1651334,70.1153846 C37.9710471,70.1153846 27.3735315,70.1153846 7.37258649,70.1153846 Z" id="Path-6" fill="#F4D06C"></path>
                        </g>
                    </g>
                </g>
            </g>
        </g>
    </g>
</svg>
