<?xml version="1.0" encoding="UTF-8"?>
<svg viewBox="0 0 27 27" version="1.1" xmlns="http://www.w3.org/2000/svg" xmlns:xlink="http://www.w3.org/1999/xlink">
    <g id="Org-LMS-" stroke="none" stroke-width="1" fill="none" fill-rule="evenodd" stroke-linecap="round" stroke-linejoin="round">
        <g id="Index---Course-Change-Log" transform="translate(-493.000000, -246.000000)" stroke="#fff">
            <g id="linked-template" transform="translate(500.000000, 252.000000)">
                <circle fill="currentColor" cx="7" cy="7" r="13" stroke="none"></circle>
                <path d="M11.9035254,14.8552324 L11.1654247,15.5926374 C10.6221105,16.1357875 9.74139808,16.1357875 9.19808384,15.5926374 L8.70624862,15.1008021 C8.16309845,14.5574879 8.16309845,13.6767755 8.70624862,13.1334613 L10.8141139,11.0249004 C11.2799252,10.5596172 12.0345946,10.5596172 12.500406,11.0249004 L12.8871958,11.4116902" id="Path"></path>
                <path d="M12.3953606,9.44365362 L13.1334613,8.70624862 C13.6767755,8.16309845 14.5574879,8.16309845 15.1008021,8.70624862 L15.5926374,9.19808384 C16.1357875,9.74139808 16.1357875,10.6221105 15.5926374,11.1654247 L13.4847721,13.2739856 C13.0187222,13.7393486 12.2638342,13.7393486 11.7977843,13.2739856 L11.4116902,12.8871958" id="Path"></path>
                <line x1="13.2176367" y1="2.78266037" x2="13.2176367" y2="6.95665092" id="Path"></line>
                <line x1="2.78266037" y1="1.39133018" x2="11.8263066" y2="1.39133018" id="Path"></line>
                <line x1="1.39133018" y1="11.8263066" x2="1.39133018" y2="2.78266037" id="Path"></line>
                <line x1="6.95665092" y1="13.2176367" x2="2.78266037" y2="13.2176367" id="Path"></line>
                <path d="M0.5,0 L2.28266037,0 C2.55880274,0 2.78266037,0.223857625 2.78266037,0.5 L2.78266037,2.28266037 C2.78266037,2.55880274 2.55880274,2.78266037 2.28266037,2.78266037 L0.5,2.78266037 C0.223857625,2.78266037 0,2.55880274 0,2.28266037 L0,0.5 C0,0.223857625 0.223857625,0 0.5,0 Z" id="Rectangle"></path>
                <path d="M12.3263066,0 L14.1089669,0 C14.3851093,0 14.6089669,0.223857625 14.6089669,0.5 L14.6089669,2.28266037 C14.6089669,2.55880274 14.3851093,2.78266037 14.1089669,2.78266037 L12.3263066,2.78266037 C12.0501642,2.78266037 11.8263066,2.55880274 11.8263066,2.28266037 L11.8263066,0.5 C11.8263066,0.223857625 12.0501642,0 12.3263066,0 Z" id="Rectangle"></path>
                <path d="M0.5,11.8263066 L2.28266037,11.8263066 C2.55880274,11.8263066 2.78266037,12.0501642 2.78266037,12.3263066 L2.78266037,14.1089669 C2.78266037,14.3851093 2.55880274,14.6089669 2.28266037,14.6089669 L0.5,14.6089669 C0.223857625,14.6089669 0,14.3851093 0,14.1089669 L0,12.3263066 C0,12.0501642 0.223857625,11.8263066 0.5,11.8263066 Z" id="Rectangle"></path>
            </g>
        </g>
    </g>
</svg>
