<?xml version="1.0" encoding="UTF-8"?>
<svg viewBox="0 0 24 22" version="1.1" xmlns="http://www.w3.org/2000/svg" >
    <title>list view</title>
    <g id="Page-1" stroke="currentColor" stroke-width="1" fill="none" fill-rule="evenodd" stroke-linecap="round" stroke-linejoin="round">
        <g id="list-view" transform="translate(1.458333, 0.500000)" stroke="currentColor">
            <path d="M21.0833333,4 C21.0833333,4.55228475 20.6729277,5 20.1666667,5 L0.916666667,5 C0.410405646,5 0,4.55228475 0,4 L0,1 C0,0.44771525 0.410405646,0 0.916666667,0 L20.1666667,0 C20.6729277,0 21.0833333,0.44771525 21.0833333,1 L21.0833333,4 Z" id="Path"></path>
            <path d="M21.0833333,12 C21.0833333,12.5522847 20.6729277,13 20.1666667,13 L0.916666667,13 C0.410405646,13 0,12.5522847 0,12 L0,9 C0,8.44771525 0.410405646,8 0.916666667,8 L20.1666667,8 C20.6729277,8 21.0833333,8.44771525 21.0833333,9 L21.0833333,12 Z" id="Path"></path>
            <path d="M21.0833333,20 C21.0833333,20.5522847 20.6729277,21 20.1666667,21 L0.916666667,21 C0.410405646,21 0,20.5522847 0,20 L0,17 C0,16.4477153 0.410405646,16 0.916666667,16 L20.1666667,16 C20.6729277,16 21.0833333,16.4477153 21.0833333,17 L21.0833333,20 Z" id="Path"></path>
        </g>
    </g>
</svg>
