<svg xmlns="http://www.w3.org/2000/svg" xmlns:xlink="http://www.w3.org/1999/xlink" viewBox="0 0 100 100" preserveAspectRatio="xMidYMid">
    <g transform="rotate(0 50 50)">
  <rect x="47" y="20" rx="4.7" ry="2" width="6" height="20" fill="#339BB2">
    <animate attributeName="opacity" values="1;0" keyTimes="0;1" dur="0.9s" begin="-0.7875s" repeatCount="indefinite"></animate>
  </rect>
</g><g transform="rotate(45 50 50)">
  <rect x="47" y="20" rx="4.7" ry="2" width="6" height="20" fill="#339BB2">
    <animate attributeName="opacity" values="1;0" keyTimes="0;1" dur="0.9s" begin="-0.675s" repeatCount="indefinite"></animate>
  </rect>
</g><g transform="rotate(90 50 50)">
  <rect x="47" y="20" rx="4.7" ry="2" width="6" height="20" fill="#339BB2">
    <animate attributeName="opacity" values="1;0" keyTimes="0;1" dur="0.9s" begin="-0.5625s" repeatCount="indefinite"></animate>
  </rect>
</g><g transform="rotate(135 50 50)">
  <rect x="47" y="20" rx="4.7" ry="2" width="6" height="20" fill="#339BB2">
    <animate attributeName="opacity" values="1;0" keyTimes="0;1" dur="0.9s" begin="-0.45s" repeatCount="indefinite"></animate>
  </rect>
</g><g transform="rotate(180 50 50)">
  <rect x="47" y="20" rx="4.7" ry="2" width="6" height="20" fill="#339BB2">
    <animate attributeName="opacity" values="1;0" keyTimes="0;1" dur="0.9s" begin="-0.3375s" repeatCount="indefinite"></animate>
  </rect>
</g><g transform="rotate(225 50 50)">
  <rect x="47" y="20" rx="4.7" ry="2" width="6" height="20" fill="#339BB2">
    <animate attributeName="opacity" values="1;0" keyTimes="0;1" dur="0.9s" begin="-0.225s" repeatCount="indefinite"></animate>
  </rect>
</g><g transform="rotate(270 50 50)">
  <rect x="47" y="20" rx="4.7" ry="2" width="6" height="20" fill="#339BB2">
    <animate attributeName="opacity" values="1;0" keyTimes="0;1" dur="0.9s" begin="-0.1125s" repeatCount="indefinite"></animate>
  </rect>
</g><g transform="rotate(315 50 50)">
  <rect x="47" y="20" rx="4.7" ry="2" width="6" height="20" fill="#339BB2">
    <animate attributeName="opacity" values="1;0" keyTimes="0;1" dur="0.9s" begin="0s" repeatCount="indefinite"></animate>
  </rect>
</g></svg>
