<svg xmlns="http://www.w3.org/2000/svg" viewBox="0 0 10 13">
    <g data-name="Group 435" fill="none" stroke="currentColor" stroke-linecap="round" stroke-linejoin="round">
        <path data-name="Shape 825" d="M9.572 11.492a1.005 1.005 0 0 1-1.005 1.01l-7.036.031a1 1 0 0 1-1.005-1l-.027-5.9a1 1 0 0 1 1.005-1l7.036-.031a1.006 1.006 0 0 1 1.005 1z"/>
        <path data-name="Shape 826" d="M4.999.499a3.017 3.017 0 0 0-3 3.029V4.66l6.031-.027V3.501a3.015 3.015 0 0 0-3.029-3z"/>
        <path data-name="Oval 114" d="M5.036 9.809A1.256 1.256 0 1 0 3.78 8.553a1.257 1.257 0 0 0 1.256 1.256z"/>
    </g>
</svg>
