<?xml version="1.0" encoding="UTF-8"?>
<svg viewBox="0 0 31 18" version="1.1" xmlns="http://www.w3.org/2000/svg" xmlns:xlink="http://www.w3.org/1999/xlink">
    <g stroke="none" stroke-width="1" fill="none" fill-rule="evenodd">
        <g transform="translate(0.000000, 1.000000)">
            <rect stroke="currentColor" fill-rule="nonzero" x="6" y="0" width="24" height="16"></rect>
            <path d="M30,0 L29.293,0 L19.061,10.232 C18.476,10.817 17.525,10.817 16.94,10.232 L6.707,0 L6,0 L6,0.707 L14.168,8.875 L6,15.682 L6,16 L7.181,16 L14.878,9.586 L16.232,10.94 C16.72,11.427 17.36,11.67 18,11.67 C18.64,11.67 19.28,11.426 19.768,10.939 L21.122,9.585 L28.819,16 L30,16 L30,15.682 L21.832,8.875 L30,0.707 L30,0 Z" id="Path" fill="currentColor" fill-rule="nonzero"></path>
            <g transform="translate(0.000000, 2.000000)" stroke="currentColor">
                <line x1="7.10542736e-15" y1="10.5" x2="4" y2="10.5" id="Path-2"></line>
                <line x1="7.10542736e-15" y1="5.5" x2="4" y2="5.5" id="Path-2-Copy"></line>
                <line x1="7.10542736e-15" y1="0.5" x2="4" y2="0.5" id="Path-2-Copy-2"></line>
            </g>
        </g>
    </g>
</svg>
