<?xml version="1.0" encoding="UTF-8"?>
<svg viewBox="0 0 18.260564 20" version="1.1" xmlns="http://www.w3.org/2000/svg" xmlns:xlink="http://www.w3.org/1999/xlink">
    <title>A677BFE1-CE2E-43DF-B8A6-055FF9E78021</title>
    <g id="Iteration-2---July-2023" stroke="none" stroke-width="1" fill="none" fill-rule="evenodd" stroke-linecap="round" stroke-linejoin="round">
        <g id="Mailing-list-admin-" transform="translate(-91, -343)" stroke="#656565">
            <g id="Menu/Newsletters" transform="translate(91, 303)">
                <g id="mailinglist" transform="translate(0, 40)">
                    <path d="M7.82608696,1.73913043 C7.82608696,0.778635218 7.04745174,0 6.08695652,0 C5.1264613,0 4.34782609,0.778635218 4.34782609,1.73913043 L2.60869565,1.73913043 L2.60869565,4.34782609 L9.56521739,4.34782609 L9.56521739,1.73913043 L7.82608696,1.73913043 Z" id="Path"></path>
                    <path d="M12.173913,7.82608696 L12.173913,3.91304348 C12.173913,3.67291967 11.9792542,3.47826087 11.7391304,3.47826087 L9.56521739,3.47826087" id="Path"></path>
                    <path d="M2.60869565,3.47826087 L0.434782609,3.47826087 C0.194658804,3.47826087 0,3.67291967 0,3.91304348 L0,17.826087 C0,18.0662108 0.194658804,18.2608696 0.434782609,18.2608696 L6.52173913,18.2608696" id="Path"></path>
                    <line x1="2.60869565" y1="6.95565217" x2="9.56521739" y2="6.95565217" id="Path"></line>
                    <line x1="2.60869565" y1="9.56434783" x2="7.82608696" y2="9.56434783" id="Path"></line>
                    <line x1="2.60869565" y1="12.1730435" x2="6.08695652" y2="12.1730435" id="Path"></line>
                    <g id="read-email-at" transform="translate(7.8261, 9.5652)">
                        <circle id="Oval" cx="5.22143079" cy="5.21380647" r="2.03988765"></circle>
                        <path d="M8.16793518,9.52023596 C6.18979753,10.8767746 3.54159051,10.7097509 1.74956535,9.11542605 C-0.0424598087,7.52110124 -0.516511397,4.9103212 0.600622542,2.78776671 C1.71775648,0.665212229 4.13819874,-0.422150001 6.46696662,0.152363633 C8.79573451,0.726877267 10.4327216,2.81521882 10.434477,5.21380647 L10.434477,5.66711484 C10.434477,6.54335838 9.72414127,7.25369412 8.84789773,7.25369412 C7.97165418,7.25369412 7.26131844,6.54335838 7.26131844,5.66711484 L7.26131844,5.21380647" id="Path"></path>
                    </g>
                </g>
            </g>
        </g>
    </g>
</svg>
