<?xml version="1.0" encoding="UTF-8"?>
<svg viewBox="0 0 80 80" version="1.1" xmlns="http://www.w3.org/2000/svg" xmlns:xlink="http://www.w3.org/1999/xlink">
    <title>9B7F1E4D-58C9-4853-AC89-6CD1D9D552EA</title>
    <g id="Iteration-3" stroke="none" stroke-width="1" fill="none" fill-rule="evenodd">
        <g id="Quick-Chat---Maintainance" transform="translate(-1010.000000, -60.000000)">
            <g id="Group-5" transform="translate(861.000000, 60.000000)">
                <g id="Group-2" transform="translate(149.000000, 0.000000)">
                    <g id="Group" fill="#E1E1E1" fill-rule="nonzero">
                        <path d="M50.2509324,4.15601556 C50.7297817,2.83309004 52.1978582,2.14615324 53.529973,2.62169928 C71.8238121,9.15233938 82.7399786,27.8005012 79.4023087,46.8195871 C76.0646544,65.8385843 59.4399336,79.7198824 40,79.7198824 C38.5844342,79.7198824 37.4368914,78.5802556 37.4368914,77.1744548 C37.4368914,75.768654 38.5844342,74.6290272 40,74.6290272 C56.9483868,74.6290272 71.4423427,62.5268737 74.3522123,45.9455279 C77.2620966,29.364098 67.7450435,13.1060513 51.7959064,7.41243636 C50.4637915,6.93689033 49.7720831,5.47894107 50.2509324,4.15601556 Z" id="Path"></path>
                        <path d="M66.3722219,0.0388772577 C67.7664031,-0.204554856 69.0953218,0.720515105 69.3404448,2.10507885 C69.5855678,3.48964259 68.6540722,4.80939399 67.2598909,5.0528261 L56.7412117,6.88907835 L61.9214059,15.6526566 C62.6132911,16.8232153 62.2561243,18.3175903 61.1318672,19.0598011 L61.0084886,19.1363965 C59.787703,19.8480486 58.2171453,19.4421412 57.5005499,18.2297769 L50.4525117,6.30562792 C49.5476882,4.77481176 50.4587142,2.81746784 52.2191052,2.5100934 L66.3722219,0.0388772577 Z" id="Path"></path>
                        <path d="M40,0.280117641 C41.4155658,0.280117641 42.5631086,1.41974438 42.5631086,2.8255452 C42.5631086,4.23134602 41.4155658,5.37097275 40,5.37097275 C23.0516132,5.37097275 8.55765726,17.4731263 5.64778771,34.0544721 C2.73790343,50.635902 12.2549565,66.8939487 28.2040936,72.5875636 C29.5362085,73.0631097 30.2279169,74.5210589 29.7490676,75.8439844 C29.2702183,77.16691 27.8021418,77.8538468 26.470027,77.3783007 C8.17618794,70.8476606 -2.73997856,52.1994988 0.597691322,33.1804129 C3.93534564,14.1614157 20.5600664,0.280117641 40,0.280117641 Z" id="Path"></path>
                        <path d="M18.9915114,60.8636035 C20.212297,60.1519514 21.7828547,60.5578588 22.4994501,61.7702231 L29.5474883,73.6943721 C30.4523118,75.2251882 29.5412858,77.1825322 27.7808948,77.4899066 L13.6277781,79.9611227 C12.2335969,80.2045549 10.9046782,79.2794849 10.6595552,77.8949212 C10.4144322,76.5103574 11.3459278,75.190606 12.7401091,74.9471739 L23.2584252,73.110313 L18.0785941,64.3473434 C17.3867089,63.1767847 17.7438757,61.6824097 18.8681328,60.9401989 L18.9915114,60.8636035 Z" id="Path"></path>
                    </g>
                    <path d="M41.3076876,22.6666667 C42.3991849,22.6666667 43.2840182,23.5620972 43.2840182,24.6666667 L43.2840182,27.3106667 C45.3501956,27.9254412 47.245378,29.0213725 48.817744,30.5106667 L51.0549502,29.2026667 C51.5093508,28.9377939 52.0491447,28.8665335 52.5554842,29.0045749 C53.0618236,29.1426162 53.4931934,29.4786413 53.7546179,29.9386667 L55.7309485,33.4026667 C56.2766714,34.3592273 55.9528275,35.5823659 55.0076115,36.1346667 L52.7704052,37.4426667 C53.3099247,39.5600366 53.3099247,41.7812967 52.7704052,43.8986667 L55.0115642,45.2066667 C55.9567802,45.7589674 56.280624,46.982106 55.7349012,47.9386667 L53.7585705,51.4026667 C53.2128061,52.359203 52.0041429,52.6869253 51.0589029,52.1346667 L48.8572706,50.8186667 C47.283944,52.3066429 45.3890879,53.4023855 43.3235449,54.0186667 L43.3235449,56.6666667 C43.3235449,57.7712362 42.4387115,58.6666667 41.3472142,58.6666667 L37.394553,58.6666667 C36.3030557,58.6666667 35.4182224,57.7712362 35.4182224,56.6666667 L35.4182224,54.0266667 C33.3531955,53.4091603 31.4586042,52.3135708 29.8844966,50.8266667 L27.6433377,52.1346667 C26.6980977,52.6869253 25.4894345,52.359203 24.9436701,51.4026667 L22.9673395,47.9386667 C22.4175148,46.9934221 22.7225776,45.7764013 23.6511499,45.2106667 L25.8923088,43.9026667 C25.3567249,41.7847933 25.3567249,39.56454 25.8923088,37.4466667 L23.6551025,36.1386667 C22.7098865,35.5863659 22.3860426,34.3632273 22.9317655,33.4066667 L24.9080961,29.9426667 C25.1695206,29.4826413 25.6008904,29.1466162 26.1072298,29.0085749 C26.6135693,28.8705335 27.1533632,28.9417939 27.6077638,29.2066667 L29.84497,30.5146667 C31.4176861,29.0258527 33.3127495,27.9299902 35.3786958,27.3146667 L35.3786958,24.6666667 C35.3786958,23.5620972 36.2635291,22.6666667 37.3550264,22.6666667 Z M39.343215,34.6666667 C36.0687232,34.6666667 33.4142231,37.3529582 33.4142231,40.6666667 C33.4142231,43.9803752 36.0687232,46.6666667 39.343215,46.6666667 C42.6177068,46.6666667 45.2722068,43.9803752 45.2722068,40.6666667 C45.2722068,37.3529582 42.6177068,34.6666667 39.343215,34.6666667 Z" id="Combined-Shape" fill="#339BB2"></path>
                </g>
            </g>
        </g>
    </g>
</svg>
