<svg xmlns="http://www.w3.org/2000/svg" xmlns:xlink="http://www.w3.org/1999/xlink" viewBox="0 0 214 139"><defs><clipPath id="a"><rect width="16.897" height="16.885" rx="8.443" fill="none"/></clipPath><clipPath id="d"><rect width="17.003" height="17.003" rx="8.501" fill="none"/></clipPath><linearGradient id="e" x1="1.112" y1="0.823" x2="-0.111" y2="0.177" gradientUnits="objectBoundingBox"><stop offset="0" stop-color="#1a1a1a"/><stop offset="0.338" stop-color="#232323"/><stop offset="0.9" stop-color="#3c3c3c"/><stop offset="1" stop-color="#424242"/></linearGradient><linearGradient id="g" x1="0.998" y1="0.787" x2="0.002" y2="0.213" gradientUnits="objectBoundingBox"><stop offset="0" stop-color="#f8bbd0"/><stop offset="0.139" stop-color="#eaaed2"/><stop offset="0.377" stop-color="#da9ed5"/><stop offset="0.645" stop-color="#d195d7"/><stop offset="1" stop-color="#ce93d8"/></linearGradient></defs><path d="M210.694,51.88C187.948,15,169.2,50.264,110.177,10.5c-24-16.171-79.97-13.351-100.74,6.312-22.862,21.642,3.446,46.729,0,73.4C1.719,149.952,94.714,92.563,147.064,115.6,184,136.07,226.227,77.067,210.694,51.88Z" transform="translate(0 0)" fill="#f2f5f8"/><g transform="translate(16.406 19.259)"><path d="M3.561,0H117.385a3.56,3.56,0,0,1,3.561,3.559V79.092a3.56,3.56,0,0,1-3.561,3.559H3.561A3.56,3.56,0,0,1,0,79.092V3.559A3.56,3.56,0,0,1,3.561,0Z" transform="translate(0)" fill="#e5e8f5"/><path d="M3.561,0H117.385a3.56,3.56,0,0,1,3.561,3.559V78.2a3.56,3.56,0,0,1-3.561,3.559H3.561A3.56,3.56,0,0,1,0,78.2V3.559A3.56,3.56,0,0,1,3.561,0Z" transform="translate(0.89)" fill="#fff"/><path d="M0,8.531V2.239C0,1.007,1.386,0,3.081,0H117.866c1.694,0,3.081,1.007,3.081,2.239V8.531Z" transform="translate(0.89)" fill="#56557e"/><ellipse cx="1.423" cy="1.422" rx="1.423" ry="1.422" transform="translate(5.337 2.755)" fill="#fa538d"/><ellipse cx="1.423" cy="1.422" rx="1.423" ry="1.422" transform="translate(10.758 2.808)" fill="#fab353"/><ellipse cx="1.423" cy="1.422" rx="1.423" ry="1.422" transform="translate(16.179 2.808)" fill="#9dc925"/><g transform="translate(7.705 15.486)"><g transform="translate(23.451 2.662)"><path d="M.712,0H51.224a.712.712,0,0,1,.712.712V1.777a.712.712,0,0,1-.712.712H.712A.712.712,0,0,1,0,1.777V.712A.712.712,0,0,1,.712,0Z" transform="translate(0 0)" fill="#e5e8f5"/><path d="M.712,0H80.037a.712.712,0,0,1,.712.712V1.777a.712.712,0,0,1-.712.712H.712A.712.712,0,0,1,0,1.777V.712A.712.712,0,0,1,.712,0Z" transform="translate(0.02 4.614)" fill="#e5e8f5"/><path d="M.712,0H80.037a.712.712,0,0,1,.712.712V1.777a.712.712,0,0,1-.712.712H.712A.712.712,0,0,1,0,1.777V.712A.712.712,0,0,1,.712,0Z" transform="translate(0.02 9.229)" fill="#e5e8f5"/></g><g transform="translate(0)"><path d="M4.37,0h8.157A4.368,4.368,0,0,1,16.9,4.367v8.152a4.368,4.368,0,0,1-4.37,4.367H4.37A4.368,4.368,0,0,1,0,12.518V4.367A4.368,4.368,0,0,1,4.37,0Z" transform="translate(0)" fill="#fff"/><g transform="translate(0)"><rect width="16.897" height="16.885" rx="8.443" fill="none"/><g clip-path="url(#a)"><g transform="translate(3.046 2.964)"><path d="M10.61,6.5c.926,2.906-2.357,4.555-5.151,4.592s-6.6.3-5.132-5.479C1.079,2.655,2.517.037,5.312,0S9.907,4.292,10.61,6.5Z" transform="translate(0 0)" fill="#37474f"/><rect width="2.582" height="2.871" transform="matrix(1, -0.013, 0.013, 1, 4.297, 7.738)" fill="#ffdfae"/><path d="M.018,1.364,0,.034,2.582,0,2.6,1.157s-.161.513-1.172.526A2.154,2.154,0,0,1,.018,1.364Z" transform="translate(4.301 8.005)" fill="#f4ca92"/><path d="M7.305,3.5c.032,2.44-1.623,4.317-3.017,4.33-1.116.011-2.554-1.163-3.2-3.028C1.021,4.595.04,4.342,0,3.619c-.042-.792.775-.229.772-.48C.724-.527,4.017-.516,3.922.82,3.71,3.818,7.273,1.06,7.305,3.5Z" transform="translate(1.21 1.423)" fill="#ffdfae"/><path d="M10.872,4.712C10.852,3.15,8.455-.04,5.379,0S-.021,3.295,0,4.856Z" transform="translate(0.105 10.095)" fill="#9bd075"/></g></g></g></g></g><g transform="translate(7.705 36.469)"><g transform="translate(23.451 2.662)"><path d="M.712,0H51.224a.712.712,0,0,1,.712.712V1.777a.712.712,0,0,1-.712.712H.712A.712.712,0,0,1,0,1.777V.712A.712.712,0,0,1,.712,0Z" transform="translate(0 0)" fill="#e5e8f5"/><path d="M.712,0H80.037a.712.712,0,0,1,.712.712V1.777a.712.712,0,0,1-.712.712H.712A.712.712,0,0,1,0,1.777V.712A.712.712,0,0,1,.712,0Z" transform="translate(0.02 4.614)" fill="#e5e8f5"/><path d="M.712,0H80.037a.712.712,0,0,1,.712.712V1.777a.712.712,0,0,1-.712.712H.712A.712.712,0,0,1,0,1.777V.712A.712.712,0,0,1,.712,0Z" transform="translate(0.02 9.229)" fill="#e5e8f5"/></g><g transform="translate(0 0)"><path d="M4.63,0h7.638A4.628,4.628,0,0,1,16.9,4.626v7.632a4.628,4.628,0,0,1-4.63,4.626H4.63A4.628,4.628,0,0,1,0,12.259V4.626A4.628,4.628,0,0,1,4.63,0Z" transform="translate(0 0)" fill="#fff"/><g transform="translate(0 0)"><rect width="16.897" height="16.885" rx="8.443" fill="none"/><g clip-path="url(#a)"><g transform="translate(2.796 2.965)"><path d="M10.963,12.044c-.169,3.045-4.143,3.518-6.937,3.555S-1,11.387.465,5.613C1.218,2.655,2.655.037,5.451,0S11.319,5.645,10.963,12.044Z" transform="translate(0.112 0)" fill="#37474f"/><rect width="2.582" height="3.458" transform="matrix(1, -0.013, 0.013, 1, 4.548, 7.738)" fill="#ffdfae"/><path d="M.018,1.364,0,.034,2.582,0,2.6,1.157s-.161.513-1.172.526A2.153,2.153,0,0,1,.018,1.364Z" transform="translate(4.552 8.171)" fill="#f4ca92"/><path d="M6.63,1.246a8.439,8.439,0,0,1-.038.937c-.03.3.433-.549.534.08.127.786-.768,1.138-.827,1.306A2.97,2.97,0,0,1,3.794,5.742C2.657,5.877,1.586,4.92.962,3.634.882,3.468.078,3.464.01,2.8c-.1-.989.584-.263.54-.421C.227,1.239.415.336,1.472.713,1.686.789,1.425-.035,1.65,0c.179.03.158.705.356.712A4.352,4.352,0,0,0,2.515.7C4.328.529,6.606-.55,6.63,1.246Z" transform="translate(1.955 3.51)" fill="#ffdfae"/><path d="M10.872,4.035C10.855,2.7,9.016-.146,7.677.006,7.1.071,6.236.362,5.875.374L4.037.052C1.15.718-.017,2.872,0,4.18Z" transform="translate(0 10.594)" fill="#f0af56"/><path d="M2.223.453,0,2.484.184,0Z" transform="translate(3.651 10.448)" fill="#fff"/><path d="M0,.453,2.223,2.484,2.04,0Z" transform="translate(5.839 10.438)" fill="#fff"/></g></g></g></g></g><g transform="translate(7.705 57.326)"><g transform="translate(23.451 2.662)"><path d="M.712,0H51.224a.712.712,0,0,1,.712.712V1.777a.712.712,0,0,1-.712.712H.712A.712.712,0,0,1,0,1.777V.712A.712.712,0,0,1,.712,0Z" transform="translate(0 0)" fill="#e5e8f5"/><path d="M.712,0H80.037a.712.712,0,0,1,.712.712V1.777a.712.712,0,0,1-.712.712H.712A.712.712,0,0,1,0,1.777V.712A.712.712,0,0,1,.712,0Z" transform="translate(0.02 4.614)" fill="#e5e8f5"/><path d="M.712,0H80.037a.712.712,0,0,1,.712.712V1.777a.712.712,0,0,1-.712.712H.712A.712.712,0,0,1,0,1.777V.712A.712.712,0,0,1,.712,0Z" transform="translate(0.02 9.229)" fill="#e5e8f5"/></g><g transform="translate(0 0)"><path d="M4.63,0h7.638A4.628,4.628,0,0,1,16.9,4.626v7.632a4.628,4.628,0,0,1-4.63,4.626H4.63A4.628,4.628,0,0,1,0,12.259V4.626A4.628,4.628,0,0,1,4.63,0Z" transform="translate(0 0)" fill="#fff"/><g transform="translate(0 0)"><rect width="16.897" height="16.885" rx="8.443" fill="none"/><g clip-path="url(#a)"><g transform="translate(2.796 2.386)"><path d="M7.378,6.935C6.31,6.935.762,8.8.085,4.624-.329,2.069.8.891,2.753.536c0,0-.334-.537,0-.534.269,0,.366.308.712.356.251.035-.1-.391.178-.356.306.039.53.475.889.356C5.6,0,6.826,1.222,7.2,1.424,8.521,2.138,8.623,6.935,7.378,6.935Z" transform="translate(1.207 0)" fill="#37474f"/><rect width="2.582" height="3.969" transform="matrix(1, -0.013, 0.013, 1, 4.548, 8.316)" fill="#ffdfae"/><path d="M.018,1.364,0,.034,2.582,0,2.6,1.157s-.161.513-1.172.526A2.153,2.153,0,0,1,.018,1.364Z" transform="translate(4.552 8.583)" fill="#f4ca92"/><path d="M7.754,2.739c-.008.1.58-.36.608-.111.178,1.6-.65,1.5-.712,1.777A3.056,3.056,0,0,1,5.693,6.894a3.531,3.531,0,0,1-2.312,0A4.265,4.265,0,0,1,1.424,4.939C1.124,4.24.179,4.583,0,2.983c-.038-.337.889,0,.889,0S.714,2.227.712,2.095C.664-1.571,2.774.742,4.092.495,6.939-.038,8.006-.572,7.754,2.739Z" transform="translate(1.29 2.707)" fill="#ffdfae"/><path d="M11.964,4.444c-.011-.818-1.236-2-2.312-3.022A5,5,0,0,0,7.162,0,1.059,1.059,0,0,1,5.917.889c-1.1-.183-1.159-.6-1.339-.8a4.461,4.461,0,0,0-2.218.976C1.062,2.17-.011,4.029,0,4.863Z" transform="translate(0 10.489)" fill="#f74e88"/></g></g></g></g></g></g><g transform="translate(160.502 61.35)"><ellipse cx="15.315" cy="4.169" rx="15.315" ry="4.169" transform="translate(0 69.312)" fill="#eaeff4"/><g transform="translate(17.554 68.621)"><path d="M0,0,2.391,0l0,3.722L0,3.724Z" transform="translate(7.87 3.706) rotate(174.369)" fill="#ffdfae"/><path d="M8.454,1.061.011,1.053A1.583,1.583,0,0,1,.19.117L8.249,0Z" transform="translate(0 4.541)" fill="#92aed9"/><path d="M.186,2.41c.524-.852,2.2-.674,3.3-1.749A2.032,2.032,0,0,1,5.265.023a1.538,1.538,0,0,0,1.516,1.05C7.31,1.009,7.2.6,7.5.423a.344.344,0,0,1,.39.043L8.364,2.9,0,3.015A1.14,1.14,0,0,1,.186,2.41Z" transform="translate(0.004 2.248)" fill="#fff"/></g><g transform="matrix(1, 0.017, -0.017, 1, 3.271, 68.054)"><path d="M0,0,2.387,0l0,3.722L0,3.722Z" transform="translate(7.514 3.932) rotate(-174.631)" fill="#ffdfae"/><path d="M8.454,1.061.011,1.053A1.583,1.583,0,0,1,.19.117L8.249,0Z" transform="translate(0 4.536)" fill="#92aed9"/><path d="M.187,2.41c.524-.852,2.2-.674,3.3-1.749A2.033,2.033,0,0,1,5.266.023a1.538,1.538,0,0,0,1.516,1.05C7.311,1.009,7.2.6,7.5.423a.344.344,0,0,1,.39.043L8.365,2.9,0,3.014A1.14,1.14,0,0,1,.187,2.41Z" transform="translate(0.003 2.243)" fill="#fff"/></g><path d="M4.173,0h8.8L2.9,35.623,0,35.163S1.432,19.886,1.538,18.405C1.925,13.021,4.173,0,4.173,0Z" transform="translate(8.352 33.83)" fill="#92aed9"/><path d="M7.867.209,0,0,2.277,19.223l4.1,16.646,2.9-.46s-1.3-16.795-1.41-18.275C7.48,11.749,7.867.209,7.867.209Z" transform="translate(16.179 33.848)" fill="#b0c9f1"/><path d="M4.873,7.3c.283,5.218,3.715,4.072,3.344,4.627C6.738,14.134,1.53,13.045,1.53,8.036S-1.5,1.064.973.077C1.9-.293,4.5.447,4.873,7.3Z" transform="translate(20.577 0.544)" fill="#37474f"/><path d="M4.406,7.85C2.5,5.477-.73,4.984.148,2.36,1.077-.417,5.721-.417,6.835.694,10.989,4.833,6.635,10.627,4.406,7.85Z" transform="translate(15.086 0.297)" fill="#263238" opacity="0.704"/><path d="M4.239,9.489C2.676,6.878-.45,6.673.054,3.953.719.366,6.555-1.536,8.413,1.547,10.754,5.429,6.474,13.222,4.239,9.489Z" transform="translate(14.065 0)" fill="#37474f"/><path d="M6.06,0H4.36L1.847,4.183,0,7.979l10.712-.1L7.421,4.357Z" transform="translate(13.312 7.76)" fill="#ffdfae"/><path d="M4.621,3.162S3.736,5.94,2.886,5.94C1.876,5.94.488,3.724,0,2.549-.046,2.438,2.664,0,2.664,0L3.842.652Z" transform="translate(15.602 7.312)" fill="#f4ca92"/><path d="M7.03,2.551c.277.531-.885,1.489-.924,1.77C5.783,6.652,4.167,7.507,3.243,7.507,1.766,7.507,0,3.6,0,.86,0-.823,1.959.408,2.691.845c1.375.821,2.8-.649,3.4,1.133C6.288,2.572,6.63,1.786,7.03,2.551Z" transform="translate(14.065 4.009)" fill="#ffdfae"/><path d="M.26,15.492C1.6,20.371,6.64,19.275,6.64,19.275l.3-1.671L2.333,13.257,6.2,0A15.679,15.679,0,0,0,3.658.76C1.786,3.339-.839,11.48.26,15.492Z" transform="translate(7.274 13.259) rotate(6.024)" fill="#9499ea"/><path d="M7.948,18.735,0,18.71,1.447,0S1.513,1.256,3.92,1.356A14.51,14.51,0,0,0,7.835.245Z" transform="translate(13.46 12.421)" fill="#fff"/><path d="M7.974,15.132l.713,7.549-.936.214-.372.078-.1.021-4.347.978-.082.021-.736.164-.059-.242-.364-1.568L.765,18.341l-.141-.606L.379,16.658l-.126-.534L0,15.041l.587-1.39.088-.221.015-.021L2.518,9.053,5.483.891,5.491.877,5.7.321,5.817.007V0l3.01,1.768L8.678,3.65v.021l-.2,2.588-.342,4.327s-.082,1.073-.148,1.939-.119,1.525-.119,1.525Z" transform="translate(15.457 12.669)" fill="#adadea"/><path d="M11.379,13.253C8.178,17.325,0,16.917,0,16.917l0-1.74,9.363-3.892L8.976,4.346,10.6,0S14.011,9.9,11.379,13.253Z" transform="translate(14.095 17.353) rotate(-16)" fill="#9499ea"/><path d="M6.412,0,6.406.036,6.4.121,6.362.562,5.807,6.514,5.245,13.9v.014l-.066.91-.033.455-.86,2.5-.566,1.636-.022.064-.06.178-.218.633-.011.029L2.367,23.329l-.7-.553-.38-.3L0,21.447s.169-.612.431-1.529c.027-.114.066-.242.1-.37.115-.412.24-.868.376-1.344.022-.085.044-.171.071-.256.027-.114.06-.228.093-.341.1-.362.207-.74.312-1.117.1-.349.195-.7.288-1.039.529-1.906.976-3.542.976-3.6s-.043-.846-.1-2c-.058-1.117-.133-2.553-.2-3.925l-.005-.064L2.3,5.153,2.241,4.037c-.08-1.423-.133-2.489-.138-2.588Z" transform="translate(8.564 13.217) rotate(-7)" fill="#adadea"/><path d="M3.925,7.912,0,13.387,1.8,9.048,5.092,0Z" transform="translate(16.192 12.635)" fill="#9499ea"/><path d="M2.441,0,1.728,6.578l-.548,7.477L0,7.148Z" transform="translate(12.495 12.681) rotate(-7)" fill="#9499ea"/></g><g transform="translate(186.181 29.245)"><path d="M4.292,0h8.42A4.292,4.292,0,0,1,17,4.292v8.42A4.292,4.292,0,0,1,12.711,17H4.291A4.292,4.292,0,0,1,0,12.711V4.291A4.292,4.292,0,0,1,4.292,0Z" fill="#d1d2f4"/><rect width="17.003" height="17.003" rx="8.501" fill="none"/><g clip-path="url(#d)"><g transform="translate(1.694 2.077)"><g transform="translate(0)"><path d="M10.312,10.024C11.9,11.879,6.125,11.456,2.9,11.5.068,11.535-.1,10.8.287,9.2.915,6.628-.446,5.9.16,3.868,1.034.929,2.691-.3,5.846.06,11.429.689,9.047,8.55,10.312,10.024Z" transform="translate(1.466 0)" fill="#37474f"/><rect width="2.978" height="3.314" transform="matrix(1, -0.013, 0.013, 1, 5.246, 8.943)" fill="#ffdfae"/><path d="M.021,1.575,0,.04,2.978,0,3,1.335s-.186.592-1.352.607A2.478,2.478,0,0,1,.021,1.575Z" transform="translate(5.25 9.25)" fill="#f4ca92"/><path d="M8.6,2.143A4.3,4.3,0,0,1,4.92,5.989C3.5,6,1.179,4.118.873,2.46.84,2.282.087,2.338.005,1.346c-.076-.928.659-.085.658-.2C.642-.439,1.217-.07,1.8.426c.725.62,4.223.266,5.159-.137C7.45.077,7.967.551,8.3,1.054c.091.136.6-.666.721-.176C9.234,1.723,8.605,1.909,8.6,2.143Z" transform="translate(1.711 4.702)" fill="#ffdfae"/><path d="M12.54,4.83C12.523,3.491,8.752,0,8.752,0L4.7.1S-.02,3.517,0,5Z" transform="translate(0 12.067)" fill="#92aed9"/></g></g></g></g><path d="M0,6.281.008,0H6.382c2.779,0,5.031,1.933,5.031,4.318V10.7s-1.842-.029-2.209,0H4.588C3.4,10.7,0,9.535,0,6.281Z" transform="translate(180.475 35.665)" opacity="0.301" fill="url(#e)"/><g transform="translate(172.629 35.665)"><path d="M4.292,0h8.42A4.292,4.292,0,0,1,17,4.292v8.42A4.292,4.292,0,0,1,12.711,17H4.291A4.292,4.292,0,0,1,0,12.711V4.291A4.292,4.292,0,0,1,4.292,0Z" fill="#d1d2f4"/><rect width="17.003" height="17.003" rx="8.501" fill="none"/><g clip-path="url(#d)"><g transform="translate(1.694 2.076)"><g transform="translate(0)"><path d="M10.324,11.663c1.6,2.16-4.183,1.655-7.407,1.7C.082,13.4-.092,12.54.3,10.68.919,7.7-.444,6.852.157,4.486,1.025,1.072,2.68-.349,5.836.072,11.421.816,9.056,9.948,10.324,11.663Z" transform="translate(1.476 0)" fill="#37474f"/><path d="M0,0H2.978V3.314H0Z" transform="matrix(1, -0.013, 0.013, 1, 5.246, 8.943)" fill="#ffdfae"/><path d="M.02,1.575,0,.04,2.978,0l.017,1.335s-.186.592-1.352.607A2.48,2.48,0,0,1,.02,1.575Z" transform="translate(5.25 9.251)" fill="#f4ca92"/><path d="M8.6,3.672A4.3,4.3,0,0,1,4.92,7.518C3.5,7.532,1.179,5.646.873,3.989.84,3.811.087,3.867.005,2.875c-.076-.928.659-.085.657-.2C.642,1.089,1.478,1.455,2.2,1.212A1.393,1.393,0,0,0,3.241,0C3.828,2.377,8.716.858,8.6,3.672Z" transform="translate(1.711 3.174)" fill="#ffdfae"/><path d="M12.54,4.83C12.523,3.491,8.752,0,8.752,0L4.7.1S-.02,3.517,0,5Z" transform="translate(0 12.067)" fill="#eceff1"/></g></g></g></g><g transform="translate(190.461 49.218)"><rect width="17.003" height="17.003" rx="8.501" fill="url(#g)"/><path d="M4.292,0h8.42A4.292,4.292,0,0,1,17,4.292v8.42A4.292,4.292,0,0,1,12.711,17H4.291A4.292,4.292,0,0,1,0,12.711V4.291A4.292,4.292,0,0,1,4.292,0Z" fill="#d1d2f4"/><rect width="17.003" height="17.003" rx="8.501" fill="none"/><g clip-path="url(#d)"><g transform="translate(1.694 3.189)"><g transform="translate(0 0)"><path d="M.425,5.668c-1.7-6.7,2.066-3.834,4.69-5.638.26-.179,1.7.489,2.135.744,1.406.83,1.462,4.028.6,4.773C5.809,7.3.8,7.158.425,5.668Z" transform="translate(2.472 0)" fill="#37474f"/><path d="M6.827,4.672,0,4.968l1.764-2L2.015.04,4.992,0l.147,2.888Z" transform="translate(3.231 7.791)" fill="#ffdfae"/><path d="M.02,1.575,0,.04,2.978,0l.017,1.335s-.186.592-1.352.607A2.483,2.483,0,0,1,.02,1.575Z" transform="translate(5.249 8.138)" fill="#ffe082"/><path d="M7.617,3.438C7.361,5.364,6.4,6.154,5.673,6.14c-.568-.012-2.5.324-3.164-.141A3.194,3.194,0,0,1,.973,3.675C.94,3.5.086,3.736.005,2.745c-.076-.928.685-.353.684-.466C.668.692,1.772-.218,2.488.045c1.118.409,4.8-.083,5.128,1.934.041.247.322-.318.509.107C8.569,3.094,7.662,3.09,7.617,3.438Z" transform="translate(2.572 3.334)" fill="#ffdfae"/><path d="M12.54,4.83C12.523,3.491,8.752,0,8.752,0s-1.2,1.281-1.744,1.325C6.357,1.379,4.7.1,4.7.1S-.02,3.517,0,5Z" transform="translate(0 10.955)" fill="#455a64"/><path d="M5.236,6.375H2.566C1.212,6.375.5,4.653.285,3.69A11.081,11.081,0,0,1,.041.241s.536,4.041,2.22,4.971c.722.4,2.434.072,3.243.01,1.35-.1,1.81-6.469,1.81-5L7.136,3.391C7.136,4.858,6.59,6.375,5.236,6.375Z" transform="translate(3.044 3.705)" fill="#455a64"/></g></g></g></g><g transform="translate(141.243 84.17)"><path d="M2.642,0,0,35.454H1.192L5.362.044Z" transform="translate(3.499 13.012)" fill="#f9b25f"/><path d="M2.72,0,5.362,35.454H4.17L0,.044Z" transform="translate(49.679 13.012)" fill="#f9b25f"/><rect width="51.499" height="1.343" transform="translate(3.534 12.972)" fill="#d8984d"/><rect width="57.052" height="2.122" transform="translate(0 11.204)" fill="#f9b25f"/><g transform="translate(19.707)"><path d="M.688,0h16.05a.8.8,0,0,1,.688.867l1.147,9.469a.8.8,0,0,1-.688.867H1.834a.8.8,0,0,1-.688-.867L0,.867A.8.8,0,0,1,.688,0Z" transform="translate(0)" fill="#d8d6dd"/><ellipse cx="1.593" cy="1.591" rx="1.593" ry="1.591" transform="translate(7.635 3.941)" fill="#fff"/></g></g></svg>
