<?xml version="1.0" encoding="UTF-8"?>
<svg viewBox="0 0 23 23" version="1.1" xmlns="http://www.w3.org/2000/svg" xmlns:xlink="http://www.w3.org/1999/xlink">
    <g stroke="none" stroke-width="1" fill="none" fill-rule="evenodd" stroke-linecap="round" stroke-linejoin="round">
        <g transform="translate(0.500000, 0.500000)" stroke="currentColor">
            <circle cx="16.4999961" cy="15.8122571" r="1.37452141"></circle>
            <path d="M17.6679089,10.493041 L18.073474,11.8245189 C18.2114152,12.2833857 18.6816554,12.5565769 19.1486042,12.4491275 L20.4992125,12.1363449 C21.0242826,12.0179943 21.5651936,12.2555969 21.8332529,12.7223406 C22.1013122,13.1890843 22.0339527,13.7760276 21.6671253,14.1699097 L20.722082,15.1886051 C20.3987396,15.5400385 20.3987396,16.0806496 20.722082,16.4320831 L21.6671253,17.4507785 C22.0339527,17.8446606 22.1013122,18.4316038 21.8332529,18.8983475 C21.5651936,19.3650913 21.0242826,19.6026939 20.4992125,19.4843432 L19.1486042,19.1706041 C18.6820009,19.0674093 18.2149081,19.3420716 18.0782566,19.7999953 L17.6726915,21.1314732 C17.5176941,21.646964 17.0430675,21.999871 16.5047787,21.999871 C15.9664899,21.999871 15.4918633,21.646964 15.3368659,21.1314732 L14.9265182,19.7999953 C14.787784,19.3417551 14.3181852,19.0689366 13.851388,19.1753868 L12.5007796,19.4891258 C11.9757095,19.6074765 11.4347986,19.3698739 11.1667393,18.9031301 C10.89868,18.4363864 10.9660394,17.8494432 11.3328669,17.4555611 L12.2779101,16.4368657 C12.6012525,16.0854322 12.6012525,15.5448211 12.2779101,15.1933877 L11.3328669,14.1746923 C10.9660394,13.7808102 10.89868,13.1938669 11.1667393,12.7271232 C11.4347986,12.2603795 11.9757095,12.0227769 12.5007796,12.1411276 L13.851388,12.4539101 C14.3183368,12.5613595 14.788577,12.2881684 14.9265182,11.8293015 L15.3320833,10.4978236 C15.4860222,9.98201252 15.9599272,9.62813037 16.498218,9.62702563 C17.0365089,9.62592606 17.511859,9.97786461 17.6679089,10.493041 Z"></path>
            <path d="M19.1304302,7.17391134 L19.1304302,3.82608605 C19.1304302,3.2978138 18.702181,2.86956454 18.1739087,2.86956454 L8.72156315,2.86956454 C8.35936125,2.86937111 8.02833714,2.66461011 7.86643292,2.34060814 L6.95965052,0.528956396 C6.7977463,0.204954427 6.46672219,0.000193426029 6.10452029,0 L0.956521512,0 C0.428249268,0 0,0.428249268 0,0.956521512 L0,15.3043442 C0,15.8326164 0.428249268,16.2608657 0.956521512,16.2608657 L8.13043285,16.2608657" id="Shape"></path>
        </g>
    </g>
</svg>
