<?xml version="1.0" encoding="UTF-8"?>
<svg viewBox="0 0 24 24" version="1.1" xmlns="http://www.w3.org/2000/svg" xmlns:xlink="http://www.w3.org/1999/xlink">
    <title>folder-fiile-edit</title>
    <g id="Page-1" stroke="none" stroke-width="1" fill="none" fill-rule="evenodd" stroke-linecap="round" stroke-linejoin="round">
        <g id="CATEGORIES-01" transform="translate(-84.000000, -169.000000)" stroke="currentColor">
            <g id="folder-fiile-edit" transform="translate(85.000000, 169.000000)">
                <path d="M20,9.5 L20,20.5 C20,21.0522847 19.5522847,21.5 19,21.5 L14,21.5" id="Path"></path>
                <path d="M3,12.5 L3,1.5 C3,0.94771525 3.44771525,0.5 4,0.5 L15.086,0.5" id="Path"></path>
                <path d="M13,14.5 L6,14.5 C5.6852427,14.5 5.38885438,14.3518058 5.2,14.1 L4.3,12.9 C4.11114562,12.6481942 3.8147573,12.5 3.5,12.5 L1,12.5 C0.44771525,12.5 0,12.9477153 0,13.5 L0,22.5 C0,23.0522847 0.44771525,23.5 1,23.5 L13,23.5 C13.5522847,23.5 14,23.0522847 14,22.5 L14,15.5 C14,14.9477153 13.5522847,14.5 13,14.5 Z" id="Path"></path>
                <path d="M15.5,10 L12,11 L13,7.5 L18.982,1.518 C19.6755248,0.846638548 20.7793339,0.855599909 21.461867,1.53813299 C22.1444001,2.22066608 22.1533615,3.32447522 21.482,4.018 L15.5,10 Z" id="Path"></path>
            </g>
        </g>
    </g>
</svg>