<?xml version="1.0" encoding="UTF-8"?>
<svg viewBox="0 0 24 24" version="1.1" xmlns="http://www.w3.org/2000/svg" xmlns:xlink="http://www.w3.org/1999/xlink">
    <title>manage consents</title>
    <g id="Org-Admin" stroke="none" stroke-width="1" fill="none" fill-rule="evenodd" stroke-linecap="round" stroke-linejoin="round">
        <g id="manage-consents" transform="translate(0.502435, 1.000000)" stroke="currentColor">
            <line x1="3.83333333" y1="7.66666667" x2="12.9375" y2="7.66666667" id="Shape"></line>
            <line x1="3.83333333" y1="10.5416667" x2="9.58333333" y2="10.5416667" id="Shape"></line>
            <line x1="3.83333333" y1="4.79166667" x2="10.5416667" y2="4.79166667" id="Shape"></line>
            <line x1="3.83333333" y1="13.4166667" x2="7.66666667" y2="13.4166667" id="Shape"></line>
            <line x1="3.83333333" y1="16.2916667" x2="7.66666667" y2="16.2916667" id="Shape"></line>
            <path d="M9.58333333,22.0416667 L0.958333333,22.0416667 C0.429060448,22.0416667 -3.63797881e-12,21.6126062 -3.63797881e-12,21.0833333 L-3.63797881e-12,0.958333333 C-3.63797881e-12,0.429060448 0.429060448,9.09494702e-13 0.958333333,9.09494702e-13 L13.6974583,9.09494702e-13 C13.9516034,9.09494702e-13 14.1953195,0.101056849 14.375,0.280791667 L17.9275417,3.83333333 C18.1072765,4.01301387 18.2083333,4.25672997 18.2083333,4.510875 L18.2083333,7.66666667" id="Shape"></path>
            <circle id="Oval" cx="16.2916667" cy="16.2916667" r="5.75"></circle>
            <path d="M18.85425,14.6203333 L16.0702917,18.3319583 C15.9449973,18.4983962 15.7538089,18.602471 15.5460139,18.6173529 C15.3382189,18.6322348 15.1341505,18.5564674 14.9864167,18.4095833 L13.5489167,16.9720833" id="Shape"></path>
        </g>
    </g>
</svg>
