<?xml version="1.0" encoding="UTF-8"?>
<svg viewBox="0 0 20 20" version="1.1" xmlns="http://www.w3.org/2000/svg" xmlns:xlink="http://www.w3.org/1999/xlink">
    <g stroke="none" stroke-width="1" fill="none" fill-rule="evenodd" stroke-linecap="round" stroke-linejoin="round">
        <g transform="translate(1.000000, 1.000000)" stroke="currentColor">
            <path d="M4.90909091,17.1818182 C4.90909091,17.6336875 4.54277843,18 4.09090909,18 L0.818181818,18 C0.366312477,18 -1.32205358e-12,17.6336875 -1.32205358e-12,17.1818182 L-1.32205358e-12,0.818181818 C-1.32205358e-12,0.366312477 0.366312477,0 0.818181818,0 L4.09090909,0 C4.54277843,0 4.90909091,0.366312477 4.90909091,0.818181818 L4.90909091,17.1818182 Z"></path>
            <path d="M11.4545455,17.1818182 C11.4545455,17.6336875 11.088233,18 10.6363636,18 L7.36363636,18 C6.91176702,18 6.54545455,17.6336875 6.54545455,17.1818182 L6.54545455,0.818181818 C6.54545455,0.366312477 6.91176702,0 7.36363636,0 L10.6363636,0 C11.088233,0 11.4545455,0.366312477 11.4545455,0.818181818 L11.4545455,17.1818182 Z"></path>
            <path d="M18,6.54545455 C18,6.99732389 17.6336875,7.36363636 17.1818182,7.36363636 L13.9090909,7.36363636 C13.4572216,7.36363636 13.0909091,6.99732389 13.0909091,6.54545455 L13.0909091,0.818181818 C13.0909091,0.366312477 13.4572216,-1.64757097e-13 13.9090909,-1.64757097e-13 L17.1818182,-1.64757097e-13 C17.6336875,-1.64757097e-13 18,0.366312477 18,0.818181818 L18,6.54545455 Z"></path>
            <polyline points="16.3636364 8.99836364 18 11.4529091 13.0909091 11.4529091"></polyline>
            <line x1="16.3636364" y1="13.9074545" x2="18" y2="11.4529091"></line>
            <polyline transform="translate(15.545455, 14.316545) scale(-1, 1) translate(-15.545455, -14.316545) " points="16.3636364 13.0892727 18 15.5438182 13.0909091 15.5438182"></polyline>
            <line x1="13.0909091" y1="17.9983636" x2="14.7272727" y2="15.5438182" transform="translate(13.909091, 16.771091) scale(-1, 1) translate(-13.909091, -16.771091) "></line>
        </g>
    </g>
</svg>
