<svg xmlns="http://www.w3.org/2000/svg" viewBox="0 0 24.023 24.007">
    <g data-name="Group 918" transform="translate(2974.022 3475.969)" fill="none" stroke="currentColor" stroke-linecap="round" stroke-linejoin="round" stroke-miterlimit="10">
        <path d="M-2964.918-3452.838a11.185 11.185 0 01-1.426-.474 11.5 11.5 0 1115.842-10.649h0"/>
        <path data-name="Path" d="M-2973.327-3465.963h6.084a3 3 0 012.122.879l.025.021a3.359 3.359 0 01.758 3.588l-.252.653a4.424 4.424 0 01-3.4 2.77l-3.51.589M-2953.739-3471.963h-5.8a2.25 2.25 0 000 4.5h.432a3 3 0 012.435 1.247"/>
        <rect width="12" height="8" rx="2.25" transform="translate(-2962.5 -3460.463)"/>
        <path data-name="Path" d="M-2953.5-3461.463a2 2 0 00-2-2h-2a2 2 0 00-2 2v1h6zM-2958.5-3460.463v8M-2954.5-3460.463v8"/>
    </g>
</svg>
