<svg xmlns="http://www.w3.org/2000/svg" viewBox="0 0 24.005 24.077">
    <g transform="translate(7483.005 -3783)" stroke="#8e8e8e" stroke-linecap="round" stroke-linejoin="round" stroke-miterlimit="10" fill="none">
        <circle cx="2.5" cy="2.5" r="2.5" transform="translate(-7478.5 3783.5)"/>
        <path d="M-7473 3790.5h-4.5a1.5 1.5 0 00-1.447 1.105l-1.5 5.5v.031a1.5 1.5 0 00-.053.364v2.681l-1.87 4.209a1.5 1.5 0 002.742 1.218l2-4.5a1.5 1.5 0 00.128-.608.163.163 0 01.249-.138 1.6 1.6 0 01.751 1.355V3805a1.5 1.5 0 003 0v-5a1.5 1.5 0 00-.7-1.272l-3.058-1.907.905-3.321h3.353"/>
        <path data-name="Path" d="M-7469.5 3790a1.957 1.957 0 00-.855.2 3 3 0 01-1.309.3H-7473v3h1.335a2.978 2.978 0 011.31.3 1.946 1.946 0 00.855.2 2 2 0 000-4zM-7459.5 3798a2 2 0 01-2 2h-3a2 2 0 01-2-2v-9.5a2 2 0 012-2h3a2 2 0 012 2zM-7463 3786.5v-3M-7466.5 3789.5h7M-7466.5 3797h7"/>
    </g>
</svg>
