<?xml version="1.0" encoding="UTF-8"?>
<svg viewBox="0 0 25 25" version="1.1" xmlns="http://www.w3.org/2000/svg" xmlns:xlink="http://www.w3.org/1999/xlink">
    <title>manage users</title>
    <g id="Org-Admin" stroke="none" stroke-width="1" fill="none" fill-rule="evenodd" stroke-linecap="round" stroke-linejoin="round">
        <g id="manage-users" transform="translate(1.000000, 1.000000)" stroke="currentColor">
            <path d="M11,0 C11.5522847,0 12,0.44771525 12,1 L12,7 C12,7.55228475 11.5522847,8 11,8 L9,8 L9,10.5 L6.5,8 L1,8 C0.44771525,8 0,7.55228475 0,7 L0,1 C0,0.44771525 0.44771525,0 1,0 L11,0 Z" id="Path"></path>
            <path d="M22.832,10 C21.9393273,8.45116515 20.2876672,7.49675309 18.5,7.49675309 C16.7123328,7.49675309 15.0606727,8.45116515 14.168,10" id="Path"></path>
            <path d="M15.923,1.486 C16.8609967,2.45440528 18.1517989,3.00074985 19.5,3.00000077 C20.1736076,3.00005499 20.8402811,2.86399917 21.46,2.6" id="Path"></path>
            <circle id="Oval" cx="18.499" cy="3" r="3"></circle>
            <path d="M8.832,23 C7.93932728,21.4511651 6.28766719,20.4967531 4.5,20.4967531 C2.71233281,20.4967531 1.06067272,21.4511651 0.168,23" id="Path"></path>
            <path d="M1.923,14.483 C3.35941298,15.9650085 5.56031265,16.4090845 7.459,15.6" id="Path"></path>
            <circle id="Oval" cx="4.499" cy="15.997" r="3"></circle>
            <line x1="9.501" y1="4" x2="3.001" y2="4" id="Path"></line>
            <polyline id="Path" points="5.001 2.5 3.001 4 5.001 5.5"></polyline>
            <path d="M12,12 C11.4477153,12 11,12.4477153 11,13 L11,19 C11,19.5522847 11.4477153,20 12,20 L14,20 L14,22.5 L16.5,20 L22,20 C22.5522847,20 23,19.5522847 23,19 L23,13 C23,12.4477153 22.5522847,12 22,12 L12,12 Z" id="Path"></path>
            <line x1="13.501" y1="16" x2="20.001" y2="16" id="Path"></line>
            <polyline id="Path" points="18.001 14.5 20.001 16 18.001 17.5"></polyline>
        </g>
    </g>
</svg>
