<svg viewBox="0 0 18 16" fill="none" xmlns="http://www.w3.org/2000/svg">
    <path d="M0.875668 13.4794C1.01329 15.3374 6.75695 15.2694 9.5332 15.1233C8.21813 13.7205 8.36425 10.7032 8.65649 9.42465C6.90307 9.42465 5.36882 8.76712 4.49211 8.76712C1.42361 8.76712 0.656489 10.5205 0.875668 13.4794Z" fill="#7A7A7A"/>
    <circle cx="7.88936" cy="3.50685" r="3.50685" fill="#7A7A7A"/>
    <path fill-rule="evenodd" clip-rule="evenodd" d="M13.8072 16C15.9861 16 17.7524 14.2337 17.7524 12.0548C17.7524 9.87592 15.9861 8.10959 13.8072 8.10959C11.6283 8.10959 9.86197 9.87592 9.86197 12.0548C9.86197 14.2337 11.6283 16 13.8072 16ZM14.2942 9.64384C14.4153 9.64384 14.5134 9.74196 14.5134 9.86301V11.1294C14.5134 11.2504 14.6115 11.3486 14.7326 11.3486H15.999C16.12 11.3486 16.2181 11.4467 16.2181 11.5677V12.3227C16.2181 12.4437 16.12 12.5419 15.999 12.5419H14.7326C14.6115 12.5419 14.5134 12.64 14.5134 12.761V14.0274C14.5134 14.1484 14.4153 14.2466 14.2942 14.2466H13.5393C13.4182 14.2466 13.3201 14.1484 13.3201 14.0274V12.761C13.3201 12.64 13.222 12.5419 13.1009 12.5419H11.8346C11.7135 12.5419 11.6154 12.4437 11.6154 12.3227V11.5677C11.6154 11.4467 11.7135 11.3486 11.8346 11.3486H13.1009C13.222 11.3486 13.3201 11.2504 13.3201 11.1294V9.86301C13.3201 9.74196 13.4182 9.64384 13.5393 9.64384H14.2942Z" fill="#3192A8"/>
</svg>
