<svg viewBox="0 0 20.021 20.158" xmlns="http://www.w3.org/2000/svg">
    <g fill="none" stroke="currentColor" stroke-linecap="round" stroke-linejoin="round"
        stroke-miterlimit="10" transform="translate(-.012 .074)">
        <circle cx="1.25" cy="1.25" r="1.25" transform="translate(14.167 11.496)"/>
        <path
            d="M2.179 4.597h15.82M10.503 9.597H.512M9.567 19.584a9.583 9.583 0 1 1 9.966-11.235M9.472.452c-5 5.417-4.9 12.465.1 19.132M10.694.452a13.436 13.436 0 0 1 3.556 7.063"
            data-name="Shape"/>
        <path d="M1.668 14.597h8.43"/>
        <path
            d="M19.167 12.75c0 2.5-3.75 6.25-3.75 6.25s-3.75-3.75-3.75-6.25a3.75 3.75 0 0 1 7.5 0z"
            data-name="Shape"/>
    </g>
</svg>
