<svg data-name="logos/mastercard" xmlns="http://www.w3.org/2000/svg" viewBox="0 0 25.108 15">
  <path data-name="Fill 2" d="M17.486 15l.387-.01.382-.028.375-.048.37-.066.362-.083.357-.1.349-.119.342-.134.334-.152.324-.165.314-.182.306-.195.294-.21.283-.223.273-.235.261-.25.25-.261.235-.273.223-.283.21-.293.195-.306.182-.314.164-.324.152-.334.134-.342.119-.349.1-.357.085-.364.066-.372.048-.374.028-.382.01-.386-.01-.386-.028-.38-.048-.374-.066-.367-.083-.362-.1-.354-.119-.349-.134-.339-.152-.331-.164-.324-.182-.311-.197-.309-.21-.294-.223-.281-.235-.273L22.8 2.2l-.261-.248-.273-.235-.283-.223-.294-.21-.306-.195-.314-.18-.324-.168-.334-.151-.342-.135-.349-.118-.357-.1L19 .152l-.37-.066-.375-.048-.382-.028-.387-.01-.386.01-.38.028-.375.048-.369.066-.362.083-.357.1-.346.12-.342.135-.331.151-.322.165-.314.18-.3.195-.294.21-.283.223-.271.235-.263.251-.248.261-.235.273-.223.281-.207.285-.195.306-.183.315-.167.324-.149.331-.134.339-.116.349-.1.354-.083.362-.066.367-.048.374-.027.379-.01.386.01.387.028.382.048.374.066.371.083.362.1.357.116.349.134.342.149.334.167.324.18.314.195.306.207.293.223.283.235.273.248.261.261.25.271.235.283.223.294.21.3.195.314.182.321.165.331.152.342.134.347.119.357.1.362.083.369.066.375.048.382.028.385.01" fill="#f1ad3d"/>
  <path data-name="Fill 3" d="M7.514 15l.385-.01.382-.028.374-.048.369-.066.362-.083.357-.1.347-.119.342-.134.331-.152.321-.165.314-.182.3-.195.293-.21.283-.223.271-.235.261-.25.248-.261.235-.273.223-.283.207-.293.195-.306.18-.314.167-.324.149-.334.134-.342.116-.349.1-.357.088-.364.066-.372.048-.374.028-.382.01-.386-.01-.386-.028-.38-.048-.374-.066-.367-.083-.362-.1-.354-.116-.349-.134-.339-.149-.331-.166-.323-.18-.311-.198-.31-.207-.294-.223-.281-.235-.273-.248-.252-.261-.248-.271-.235-.283-.223-.294-.214-.3-.195-.314-.18-.324-.164-.331-.151-.342-.135-.346-.118-.357-.1-.362-.085-.369-.066L8.28.038 7.9.01 7.514 0l-.387.01-.382.028-.375.048L6 .152l-.363.083-.357.1-.349.12-.342.135-.334.151-.324.165-.314.18-.306.195-.293.21-.283.223-.273.235L2.2 2.2l-.25.261-.235.273-.223.281-.21.294-.195.306-.182.311-.164.324-.151.327-.134.339-.119.349-.1.354-.084.362-.066.367-.048.374L.01 7.1 0 7.486l.01.387.028.382.048.374L.152 9l.084.362.1.357.119.349.134.342.152.334.164.324.182.314.195.306.21.293.223.283.235.273.25.261.261.25.273.235.283.223.293.21.306.195.314.182.324.165.334.152.342.134.349.119.357.1.364.085.372.066.374.048.382.028.387.01" fill="#d82332"/>
  <path data-name="Fill 4" d="M12 3.198h4v-.4h-3.655l-.345.4" fill="#f1ad3d"/>
  <path data-name="Fill 5" d="M11 4.198h5v-.4h-4.738l-.262.4" fill="#f1ad3d"/>
  <path data-name="Fill 6" d="M11 4.198h5v-.4h-4.824l-.176.4" fill="#f1ad3d"/>
  <path data-name="Fill 7" d="M10 5.198h5v-.4h-4.881l-.119.4" fill="#f1ad3d"/>
  <path data-name="Fill 8" d="M10.119 10.198H15v-.4h-5l.119.4" fill="#f1ad3d"/>
  <path data-name="Fill 9" d="M11.191 11.198H16v-.4h-5l.191.4" fill="#f1ad3d"/>
  <path data-name="Fill 10" d="M11.227 11.198H15v-.4h-4l.227.4" fill="#f1ad3d"/>
  <path data-name="Fill 11" d="M12.369 12.203H16v-.406h-4l.369.406" fill="#f1ad3d"/>
  <path data-name="Fill 12" d="M10 6.198h5v-.4h-4.929l-.071.4" fill="#f1ad3d"/>
  <path data-name="Fill 13" d="M13 9.198h2v-.4h-1.928l-.072.4" fill="#f1ad3d"/>
  <path data-name="Fill 14" d="M14 8.203h2v-.406h-1.922L14 8.203" fill="#f1ad3d"/>
  <path data-name="Fill 15" d="M10 7.797h1v.406h-.954L10 7.797" fill="#f1ad3d"/>
  <path data-name="Fill 16" d="M8.886 6.689h-.031l-.032-.008-.029-.006-.03-.005-.027-.005-.029-.006-.029-.005-.031-.006-.032-.005-.036-.003h-.04l-.04-.005h-.05l-.05.002-.06.006-.065.005-.045.008-.043.009-.038.016-.033.019-.032.016-.029.022-.022.028-.021.024L8 6.82l-.012.031v.065l.002.036.01.035.018.036.022.035.045.052.054.041.063.035.067.03.072.027.074.03.074.033.072.036.067.046.063.057.056.068.047.085.036.1.022.123.009.148-.009.172-.016.129-.027.112-.036.1-.045.09-.052.079-.058.068-.063.06-.07.052-.072.041-.074.036-.076.027-.078.022-.076.016-.074.008L7.961 9H7.485l-.061-.014-.054-.005-.051-.008-.047-.006-.043-.011-.043-.008-.038-.014-.038-.01-.036-.017-.036-.016L7 8.874l.1-.6.02.006.025.008.031.011.038.011.04.011.046.006.049.014.051.011.056.011.058.011.061.008.063.008h.264l.065-.017.052-.022.04-.03.031-.038.022-.038.019-.045.011-.044.009-.041v-.079l-.02-.068-.031-.051-.056-.046-.07-.041-.074-.041-.092-.039-.087-.044-.09-.049-.086-.057-.078-.071-.067-.085-.056-.1-.044-.127-.02-.148v-.175l.012-.106.016-.1.022-.094.027-.088.036-.082.04-.071.047-.068.057-.061.063-.052.073-.043.081-.041.09-.03.1-.025.11-.019L8.176 6H8.6l.056.006.052.006.045.005.04.006.038.006.031.008.029.006.027.005.024.012h.02l.02.006.018.005-.114.618" fill="#fffffe"/>
  <path data-name="Stroke 17" d="M8.886 6.689h0-.031l-.032-.008-.029-.006-.03-.005-.027-.005-.029-.006-.029-.005-.031-.006-.032-.005-.036-.003h-.04l-.04-.005h-.05l-.05.002-.06.006-.065.005-.045.008-.043.009-.038.016-.033.019-.032.016-.029.022-.022.028-.021.024L8 6.82l-.012.031v.065l.002.036.01.035.018.036.022.035.045.052.054.041.063.035.067.03.072.027.074.03.074.033.072.036.067.046.063.057.056.068.047.085.036.1.022.123.009.148-.009.172-.016.129-.027.112-.036.1-.045.09-.052.079-.058.068-.063.06-.07.052-.072.041-.074.036-.076.027-.078.022-.076.016-.074.008L7.961 9H7.485l-.061-.014-.054-.005-.051-.008-.047-.006-.043-.011-.043-.008-.038-.014-.038-.01-.036-.017-.036-.016L7 8.874l.1-.6.02.006.025.008.031.011.038.011.04.011.046.006.049.014.051.011.056.011.058.011.061.008.063.008h.264l.065-.017.052-.022.04-.03.031-.038.022-.038.019-.045.011-.044.009-.041v-.079l-.02-.068-.031-.051-.056-.046-.07-.041-.074-.041-.092-.039-.087-.044-.09-.049-.086-.057-.078-.071-.067-.085-.056-.1-.044-.127-.02-.148v-.175l.012-.106.016-.1.022-.094.027-.088.036-.082.04-.071.047-.068.057-.061.063-.052.073-.043.081-.041.09-.03.1-.025.11-.019L8.176 6H8.6l.056.006.052.006.045.005.04.006.038.006.031.008.029.006.027.005.024.012h.02l.02.006.018.005-.114.618" fill="none" stroke="#fffffe" stroke-miterlimit="10" stroke-width=".216"/>
  <path data-name="Fill 18" d="M9.657 6h.923l-.137.553H11l-.12.516-.587-.011-.32 1.275v.046l.017.039.033.03.043.025.06.016.064.011.073.009h.22l.06-.007.057-.009.043-.009.03-.007h.027l-.117.425-.023.011-.047.018-.023.009-.023.007-.026.007-.03.007-.03.007-.034.007H10.141L10.083 9h-.31l-.133-.007-.117-.009-.106-.014-.09-.016-.077-.02-.063-.023-.057-.028-.043-.03-.034-.031-.023-.039-.017-.039L9 8.7v-.1l.01-.05.01-.057L9.657 6" fill="#fffffe"/>
  <path data-name="Stroke 19" d="M9.657 6h.923l-.137.553H11l-.12.516-.587-.011-.32 1.275v.046l.017.039.033.03.043.025.06.016.064.011.073.009h.22l.06-.007.057-.009.043-.009.03-.007h.027l-.117.425-.023.011-.047.018-.023.009-.023.007-.026.007-.03.007-.03.007-.034.007H10.141L10.083 9h-.31l-.133-.007-.117-.009-.106-.014-.09-.016-.077-.02-.063-.023-.057-.028-.043-.03-.034-.031-.023-.039-.017-.039L9 8.7v-.1l.01-.05.01-.057L9.657 6" fill="none" stroke="#fffffe" stroke-miterlimit="10" stroke-width=".216"/>
  <path data-name="Fill 20" d="M11.6 7.714v.148l.008.052.014.052.017.049.023.052.025.047.029.047.031.039.033.041.037.033.037.03.046.028.041.019.041.011.054.011.052.008.054.008.054.006h.158l.056-.006.056-.011.056-.014.058-.016.056-.025.058-.03.06-.033.058-.044.06-.047-.083.676-.066.044-.033.016-.031.016-.031.014-.033.014-.033.011-.035.008-.037.008-.041.006-.049.007-.048.005L12.3 9H12.015l-.1-.014-.1-.019-.115-.036-.1-.041-.1-.052-.088-.069-.087-.079-.081-.09-.07-.113-.06-.126-.05-.146-.035-.166-.023-.184L11 7.662l.01-.225.008-.088.012-.1.018-.109.022-.115.03-.118.039-.118.047-.121.058-.116.066-.11.081-.1.091-.097.1-.082.123-.069.135-.05.149-.033.167-.011h.081l.085.011.085.019.085.027.082.043.081.049.074.066.071.079.062.093.049.113.041.126.029.146.019.162v.187l-.014.209-.031.231-.01.168h-1.509l.1-.541h.906v-.196l-.015-.055-.014-.052-.013-.047-.022-.038-.021-.042-.025-.033-.027-.025-.031-.027-.031-.022-.033-.016-.033-.011-.035-.009-.042-.005h-.039l-.033.011-.035.011-.035.016-.035.022-.032.03-.031.025-.027.033-.026.042-.025.038-.023.044-.018.047-.019.049-.015.055-.012.055-.008.058-.087.568" fill="#fffffe"/>
  <path data-name="Stroke 21" d="M11.6 7.714h0v.148l.008.052.014.052.017.049.023.052.025.047.029.047.031.039.033.041.037.033.037.03.046.028.041.019.041.011.054.011.052.008.054.008.054.006h.158l.056-.006.056-.011.056-.014.058-.016.056-.025.058-.03.06-.033.058-.044.06-.047-.083.676-.066.044-.033.016-.031.016-.031.014-.033.014-.033.011-.035.008-.037.008-.041.006-.049.007-.048.005L12.3 9H12.015l-.1-.014-.1-.019-.115-.036-.1-.041-.1-.052-.088-.069-.087-.079-.081-.09-.07-.113-.06-.126-.05-.146-.035-.166-.023-.184L11 7.662l.01-.225.008-.088.012-.1.018-.109.022-.115.03-.118.039-.118.047-.121.058-.116.066-.11.081-.1.091-.097.1-.082.123-.069.135-.05.149-.033.167-.011h.081l.085.011.085.019.085.027.082.043.081.049.074.066.071.079.062.093.049.113.041.126.029.146.019.162v.187l-.014.209-.031.231-.01.168h-1.509l.1-.541h.906v-.196l-.015-.055-.014-.052-.013-.047-.022-.038-.021-.042-.025-.033-.027-.025-.031-.027-.031-.022-.033-.016-.033-.011-.035-.009-.042-.005h-.039l-.033.011-.035.011-.035.016-.035.022-.032.03-.031.025-.027.033-.026.042-.025.038-.023.044-.018.047-.019.049-.015.055-.012.055-.008.058-.087.568" fill="none" stroke="#fffffe" stroke-miterlimit="10" stroke-width=".216"/>
  <path data-name="Fill 22" d="M16.86 6.767l-.037-.015-.036-.014-.039-.015-.042-.016-.042-.013-.048-.013-.048-.013-.05-.014-.053-.011-.054-.009-.059-.008-.059-.007h-.409l-.076.002-.078.011-.079.018-.078.024-.079.031-.079.04-.075.049-.073.057-.067.071-.07.078-.062.1-.059.111-.053.124-.045.142-.017.079-.011.077-.006.077v.075l.008.075.02.071.029.069.031.066.042.06.05.057.059.051.067.046.076.04.087.033.1.029.107.02.036.007.042.007H16.004l.073-.007.073-.011.07-.015.07-.018.07-.024.065-.029.059-.035.056-.04-.126.59-.017.011-.017.013-.022.016-.025.013-.033.02-.039.015-.045.015-.05.013-.066.022-.073.011-.084.009-.1.009-.11.006h-.27l-.157-.007-.128-.013-.129-.022-.129-.033-.129-.044-.124-.053-.118-.067-.112-.077-.103-.084-.093-.1-.078-.115-.063-.123-.05-.135-.039-.148L14 7.822l.005-.172.031-.184.022-.091.025-.088.029-.087.028-.081.031-.077.036-.078.037-.073.039-.069.042-.068.042-.064.048-.062.05-.058.051-.055.056-.053.056-.049.059-.046.064-.044.065-.042.067-.038.07-.035.076-.033.071-.029.083-.027.081-.019.087-.027.087-.018.09-.015.1-.013.1-.011.1-.009h.383l.084.007.084.009.071.008.076.013.074.011.067.013.064.013.056.019.053.008.045.013.039.011.034.009.025.009.017.005-.14.612" fill="#fffffe"/>
  <path data-name="Stroke 23" d="M16.86 6.767h0l-.037-.015-.036-.014-.039-.015-.042-.016-.042-.013-.048-.013-.048-.013-.05-.014-.053-.011-.054-.009-.059-.008-.059-.007h-.409l-.076.002-.078.011-.079.018-.078.024-.079.031-.079.04-.075.049-.073.057-.067.071-.07.078-.062.1-.059.111-.053.124-.045.142-.017.079-.011.077-.006.077v.075l.008.075.02.071.029.069.031.066.042.06.05.057.059.051.067.046.076.04.087.033.1.029.107.02.036.007.042.007H16.004l.073-.007.073-.011.07-.015.07-.018.07-.024.065-.029.059-.035.056-.04-.126.59-.017.011-.017.013-.022.016-.025.013-.033.02-.039.015-.045.015-.05.013-.066.022-.073.011-.084.009-.1.009-.11.006h-.27l-.157-.007-.128-.013-.129-.022-.129-.033-.129-.044-.124-.053-.118-.067-.112-.077-.103-.084-.093-.1-.078-.115-.063-.123-.05-.135-.039-.148L14 7.822l.005-.172.031-.184.022-.091.025-.088.029-.087.028-.081.031-.077.036-.078.037-.073.039-.069.042-.068.042-.064.048-.062.05-.058.051-.055.056-.053.056-.049.059-.046.064-.044.065-.042.067-.038.07-.035.076-.033.071-.029.083-.027.081-.019.087-.027.087-.018.09-.015.1-.013.1-.011.1-.009h.383l.084.007.084.009.071.008.076.013.074.011.067.013.064.013.056.019.053.008.045.013.039.011.034.009.025.009.017.005-.14.612" fill="none" stroke="#fffffe" stroke-miterlimit="10" stroke-width=".216"/>
  <path data-name="Fill 24" d="M23.406 8.966h-.727l.053-.252v-.022l-.042.045-.045.041-.045.036-.047.032-.047.03-.048.024-.047.021-.05.02-.05.016-.05.011-.05.011-.052.007-.053.007h-.05L22 9h-.049l-.137-.009-.126-.025-.115-.039-.106-.052-.094-.066-.084-.077-.074-.084-.063-.1-.052-.097-.042-.106-.029-.111-.021-.116L21 8v-.118l.013-.116.024-.116.039-.134.047-.127.055-.116.066-.109.068-.1.082-.089.081-.082.087-.074.092-.066.097-.053.1-.05.1-.039.105-.035.105-.02.105-.014h.184l.074.007.068.011.063.016.061.018.052.02.052.023.047.025.043.027.039.03.034.03.031.029.026.029.024.03.021.027.015.027.185-.891H24l-.594 2.966" fill="#fffffe"/>
  <path data-name="Stroke 25" d="M23.406 8.966h-.727l.053-.252v-.022l-.042.045-.045.041-.045.036-.047.032-.047.03-.048.024-.047.021-.05.02-.05.016-.05.011-.05.011-.052.007-.053.007h-.05L22 9h-.049l-.137-.009-.126-.025-.115-.039-.106-.052-.094-.066-.084-.077-.074-.084-.063-.1-.052-.097-.042-.106-.029-.111-.021-.116L21 8v-.118l.013-.116.024-.116.039-.134.047-.127.055-.116.066-.109.068-.1.082-.089.081-.082.087-.074.092-.066.097-.053.1-.05.1-.039.105-.035.105-.02.105-.014h.184l.074.007.068.011.063.016.061.018.052.02.052.023.047.025.043.027.039.03.034.03.031.029.026.029.024.03.021.027.015.027.185-.891H24l-.594 2.966" fill="none" stroke="#fffffe" stroke-miterlimit="10" stroke-width=".216"/>
  <path data-name="Fill 26" d="M22.344 8h.068l.064-.014.058-.012.056-.018.051-.021.049-.025.047-.029.041-.031.037-.034.034-.037.032-.039.026-.04.025-.044.019-.044.017-.046.012-.046.013-.047.007-.05V7.33l-.01-.044-.01-.043-.017-.043-.019-.037-.024-.034-.03-.029-.031-.03-.037-.024-.041-.02-.044-.014L22.69 7H22.573l-.061.01-.056.014-.056.017-.049.022-.051.027-.039.029-.041.032-.037.038-.034.039-.032.041-.027.044-.024.046-.02.041-.019.054-.015.046-.012.078v.082l.022.083.032.08.046.07.066.056.08.037.098.014" fill="#f1ad3d"/>
  <path data-name="Fill 27" d="M6.685 8.349l-.118.6h-.743l.021-.112.015-.1.012-.076.012-.041-.041.044-.047.044-.056.041-.062.038-.071.038-.074.033-.077.033-.08.027-.085.024-.086.019-.086.016-.088.011L4.946 9h-.085l-.083-.008-.078-.011-.1-.025-.1-.027-.082-.035-.073-.041-.065-.044-.059-.049-.047-.052-.041-.054L4.1 8.6l-.029-.06-.024-.06-.018-.06-.014-.066-.009-.062L4 8.232v-.06l.009-.106.018-.1.029-.1.038-.093.047-.087.054-.076.062-.076.071-.068L4.4 7.4l.083-.057.085-.052.088-.044.094-.038.1-.03.1-.025.1-.016h.074l.035-.005H5.2l.044-.005.05-.005.05-.005L5.4 7.1H6.062l.006-.019.018-.049.014-.056.007-.052-.007-.06-.031-.055-.036-.049-.047-.041-.056-.035-.062-.025-.068-.016-.079-.005h-.356l-.1.005-.092.006-.094.008-.092.011-.087.011-.087.013-.076.014-.071.013-.066.017-.052.016-.041.019-.033.017.21-.657.064-.025.065-.021.071-.02.142-.027.074-.011.079-.011.08-.005.082-.006H6l.083.005.088.014.091.019.098.025.092.032.088.039.088.046.083.052.074.063.065.062.059.074.044.082.029.082.018.1v.1l-.018.11-.3 1.439" fill="#fffffe"/>
  <path data-name="Stroke 28" d="M6.685 8.349l-.118.6h-.743l.021-.112.015-.1.012-.076.012-.041-.041.044-.047.044-.056.041-.062.038-.071.038-.074.033-.077.033-.08.027-.085.024-.086.019-.086.016-.088.011L4.946 9h-.085l-.083-.008-.078-.011-.1-.025-.1-.027-.082-.035-.073-.041-.065-.044-.059-.049-.047-.052-.041-.054L4.1 8.6l-.029-.06-.024-.06-.018-.06-.014-.066-.009-.062L4 8.232v-.06l.009-.106.018-.1.029-.1.038-.093.047-.087.054-.076.062-.076.071-.068L4.4 7.4l.083-.057.085-.052.088-.044.094-.038.1-.03.1-.025.1-.016h.074l.035-.005H5.2l.044-.005.05-.005.05-.005L5.4 7.1H6.062l.006-.019.018-.049.014-.056.007-.052-.007-.06-.031-.055-.036-.049-.047-.041-.056-.035-.062-.025-.068-.016-.079-.005h-.356l-.1.005-.092.006-.094.008-.092.011-.087.011-.087.013-.076.014-.071.013-.066.017-.052.016-.041.019-.033.017.21-.657.064-.025.065-.021.071-.02.142-.027.074-.011.079-.011.08-.005.082-.006H6l.083.005.088.014.091.019.098.025.092.032.088.039.088.046.083.052.074.063.065.062.059.074.044.082.029.082.018.1v.1l-.018.11-.3 1.439" fill="none" stroke="#fffffe" stroke-miterlimit="10" stroke-width=".216"/>
  <path data-name="Fill 29" d="M6 8.065v-.018l-.014-.018-.017-.011-.027-.007L5.911 8H5.747l-.047.011-.045.007-.045.007-.042.007-.039.011-.029.011-.035.011-.019.007-.023.011-.03.017-.031.015-.036.021-.036.025-.039.025-.037.029-.038.036-.037.036-.033.043-.031.043-.028.046-.019.051-.017.057L5 8.584v.122l.014.094.028.075.036.053.042.036.047.022.045.014h.128l.075-.014.072-.015.064-.021.056-.025.053-.032.048-.033.041-.039.037-.036.033-.043.028-.042.022-.04.02-.043.016-.043.014-.04.009-.039.022-.104.019-.118.017-.115L6 8.065" fill="#d82332"/>
  <path data-name="Fill 30" d="M1.695 9H1l.58-3h1.208L2.9 7.78 3.738 6H5l-.593 3h-.694l.439-2.241h-.028L3.084 9H2.3l-.005-.094-.018-.249-.023-.357-.054-.813-.02-.358-.018-.261-.005-.109h-.038L1.695 9" fill="#fffffe"/>
  <path data-name="Stroke 31" d="M1.695 9H1l.58-3h1.208L2.9 7.78 3.738 6H5l-.593 3h-.694l.439-2.241h-.028L3.084 9H2.3l-.005-.094-.018-.249-.023-.357-.054-.813-.02-.358-.018-.261-.005-.109h-.038L1.695 9" fill="none" stroke="#fffffe" stroke-miterlimit="10" stroke-width=".216"/>
  <path data-name="Fill 32" d="M19.675 8.349l-.121.6h-.741l.006-.112V8.67l.006-.033-.038.041-.044.041-.053.038-.057.043-.062.035-.071.029-.074.036-.074.027-.08.022-.083.022-.083.014-.083.011-.084.004h-.083l-.08-.008-.076-.011-.11-.025-.09-.027-.087-.035-.076-.041-.065-.044-.056-.049-.048-.052-.041-.054-.035-.054-.027-.06-.024-.06-.015-.06-.011-.066-.009-.062-.006-.06v-.06l.006-.106.018-.1.027-.1.038-.093.044-.087.056-.076.062-.076.068-.068.081-.066.08-.057.086-.052.092-.044.091-.038.1-.03.1-.025.1-.016h.072l.038-.005h.041l.044-.005.047-.005.05-.005.044-.018h.05l.05-.005H19.06l.006-.019.009-.049.013-.051.005-.052-.011-.06-.024-.055-.038-.049-.045-.041-.053-.035-.062-.025-.06-.016-.076-.005h-.357l-.097.002-.095.009-.094.008-.092.011-.089.011-.085.013-.077.014-.071.013-.067.017-.051.016-.041.019-.033.017.207-.657.065-.025.068-.021.068-.02.071-.013.074-.014.072-.011.078-.011.08-.005.083-.006h.65l.083.005.089.014.091.019.095.025.09.032.092.038.088.046.081.053.075.063.068.065.057.071.044.082.035.082.021.1v.1l-.015.11-.31 1.439" fill="#fffffe"/>
  <path data-name="Fill 33" d="M18.948 10l.015-.026.1-.965-.03-.009-.1.965.015-.026V10h.013v-.022l-.013.022" fill="#fffffe"/>
  <path data-name="Fill 34" d="M18 8.952l.027.017H19v-.035h-.973l.023.018H18v.017h.027L18 8.952" fill="#fffffe"/>
  <path data-name="Fill 35" d="M17.974 8.87l-.022-.02-.01.04v.16l-.008.1h.03l.005-.1.005-.092V8.87l-.025-.02.025.02" fill="#fffffe"/>
  <path data-name="Fill 36" d="M17 9.162l.072.01.069.008h.072l.075-.008.074-.01.072-.013.072-.02.072-.02.065-.025.067-.03.061-.033.054-.032.054-.035.046-.033.042-.042.033-.038-.026-.02-.033.038-.041.035-.041.035-.049.035-.054.03-.124.06-.064.025-.068.02-.071.022-.072.011-.069.01-.075.005h-.072l-.069-.005-.067-.01-.005.03" fill="#fffffe"/>
  <path data-name="Fill 37" d="M17 8v.073l.012.072.013.079.016.076.02.073.033.076.037.076.053.069.058.069.065.063.082.063.095.053.106.052.119.043.135.033.148.03.008-.039-.148-.03-.127-.031-.11-.045-.107-.046-.086-.053-.074-.056-.065-.063-.058-.063-.045-.074-.037-.064-.032-.07-.021-.072-.016-.076-.013-.073-.008-.072.004-.073H17" fill="#fffffe"/>
  <path data-name="Fill 38" d="M18 8l-.1.016-.092.023-.092.029-.089.032-.087.046-.083.054-.075.053-.073.062-.067.065-.058.073-.056.078-.042.086-.036.089-.025.094-.017.1L17 9h.039v-.1l.02-.1.025-.084.036-.088.042-.081.05-.073.058-.074.061-.064.069-.057.079-.055.078-.047.087-.042.083-.035.092-.03.089-.023.092-.016V8" fill="#fffffe"/>
  <path data-name="Fill 39" d="M19 7.934h-.053l-.068.005h-.068l-.078.005-.083.005h-.082l-.087.008-.081.005-.08.005-.072.005-.068.002-.064.005h-.049l-.038.005-.019.003H18v.03h.117l.063-.013h.068l.072-.007.08-.005h.082l.086-.01h.082l.083-.008H19v-.04" fill="#fffffe"/>
  <path data-name="Fill 40" d="M18.154 7.962l.015-.013h-.234l-.06-.015h-.06v.035h.12l.058.005H18.166l.018-.007-.015.012h.012v-.015h-.03" fill="#fffffe"/>
  <path data-name="Fill 41" d="M18.959 7.917v.048l-.012.052-.008.043-.005.017h.03l.005-.012.008-.048.007-.052.008-.048h-.033" fill="#fffffe"/>
  <path data-name="Fill 42" d="M18.836 6.893h.058l.053.02.05.023.039.029.039.035.03.043.02.045.011.053h.03l-.011-.058-.019-.055-.036-.048-.04-.04-.048-.035-.056-.022-.057-.016-.063-.007v.033" fill="#fffffe"/>
  <path data-name="Fill 43" d="M17 7.072l.023.015.024-.013.03-.017.04-.015.051-.015.056-.013.06-.012.068-.013.068-.01.072-.01.074-.007.075-.008.077-.005h.217l.065.003v-.03h-.065l-.07-.008h-.072l-.075.005-.077.005-.075.008-.074.007-.072.01-.073.01-.067.013-.061.012-.056.013-.051.017-.044.013-.035.017-.033.018.028.015L17 7.072" fill="#fffffe"/>
  <path data-name="Fill 44" d="M17.083 7l-.01.02-.176.972.03.008.176-.972-.006.02L17.083 7h-.008v.016L17.083 7" fill="#fffffe"/>
  <path data-name="Fill 45" d="M19 6.932l-.076-.008h-.288l-.065.005h-.065l-.063.008h-.061l-.061.015-.056.01-.056.012-.054.013-.055.017-.051.02-.049.023.009.03.049-.023.052-.02.05-.017.053-.013.057-.012.056-.01.056-.01h.061l.063-.01H19v-.03" fill="#fffffe"/>
  <path data-name="Fill 46" d="M19.986 8L20 7.879v-.112l-.02-.103-.032-.098-.048-.091-.055-.083-.069-.073-.076-.065-.079-.054-.087-.055-.091-.045-.09-.032-.094-.027-.089-.02-.09-.015L19 7v.035l.08.006.084.015.089.021.089.023.089.039.086.041.083.047.081.056.072.065.063.068.058.077.04.086.031.091.02.1v.109l-.014.115.035.006" fill="#fffffe"/>
  <path data-name="Fill 47" d="M18.883 9l.264-1h-.03l-.264 1h.03" fill="#fffffe"/>
  <path data-name="Fill 48" d="M19 8.068l-.006-.021-.011-.018-.02-.011-.028-.011L18.9 8h-.118l-.045.011-.046.007-.045.007-.046.007-.039.011-.037.007-.037.011-.028.007h-.02l-.023.014-.028.011-.031.014-.037.022-.034.021-.04.025-.073.064-.037.04-.036.039-.026.046-.026.05-.02.054-.017.057-.011.061v.121l.014.093.023.075.034.054.042.035.048.022.049.014h.133l.079-.014.078-.018.061-.025.062-.029.054-.032.051-.036.045-.046.04-.036.034-.046.031-.043.022-.046.024-.043.014-.043.011-.043.008-.039.011-.1.014-.1.011-.1.007-.093" fill="#f1ad3d"/>
  <path data-name="Fill 49" d="M24 9.169l.007-.057.029-.068.05-.06.061-.053.074-.042.086-.03.093-.02.1-.008.1.008.093.02.086.03.075.042.06.053.05.06.029.068.007.057h-.107v-.045l-.025-.055-.036-.05-.046-.043-.057-.035-.068-.025-.079-.017-.082-.005-.082.005-.079.017-.067.025-.058.035-.046.043-.036.05-.021.055-.011.045H24" fill="#fffffe"/>
  <path data-name="Fill 50" d="M23.868 9.075v-.15h.168l.032.007.02.008.018.01.008.015.01.015.005.018V9.039l-.005.016-.007.015-.005.005h-.106H24.034l.015-.01h.013l.006-.012.009-.008v-.052l-.009-.005-.009-.005h-.126v.1h-.065" fill="#fffffe"/>
  <path data-name="Fill 51" d="M24 8.816v.015l.011.073.028.067.05.06.06.05.074.043.085.033.092.02.1.007.1-.007.092-.02.085-.033.074-.042.06-.05.05-.06.028-.068.011-.073v-.015h-.11v.015l-.003.06-.022.055-.035.048-.046.042-.057.036-.067.027-.078.017-.082.006-.081-.006-.079-.017-.067-.027-.057-.036-.046-.042-.035-.048-.021-.055-.008-.06v-.015H24" fill="#fffffe"/>
  <path data-name="Fill 52" d="M23.874 8.924v.153h.063v-.126H24l.074.126h.05l-.074-.126h.035l.015-.009.013-.011.005-.007h-.244" fill="#fffffe"/>
  <path data-name="Stroke 53" d="M24.5 10h0l-.1-.011-.091-.028-.086-.046-.074-.06-.06-.071-.05-.084-.028-.1L24 9.5l.011-.1.028-.1.05-.084.06-.074.074-.06.086-.043.091-.028.1-.011.1.011.091.028.086.043.075.06.06.074.049.084.028.1.011.1-.011.1-.028.1-.049.084-.061.071-.074.06-.086.046-.091.028-.1.011zm0-.913h0l-.081.013-.079.021-.066.035-.058.049-.046.061-.035.071-.022.078-.007.085.007.085.022.078.035.068.046.059.058.05.066.039.079.021.081.012.081-.012.079-.021.067-.038.057-.051.046-.059.036-.068.021-.078.007-.085-.007-.085-.021-.078-.036-.071-.046-.061-.057-.049-.067-.035-.079-.021-.081-.012zm-.089.613h-.088v-.434h.238l.039.01.027.011.026.013.018.023.013.021.007.025v.056l-.007.025-.01.022-.014.018-.018.01-.022.01-.02.008h-.029l.106.175h-.07l-.107-.175h-.089v.177z" fill="none" stroke="#fffffe" stroke-miterlimit="10" stroke-width=".216"/>
  <path data-name="Fill 54" d="M19 9h.752l.269-1.578.011-.061.032-.122.021-.061.027-.061.032-.058.035-.059.042-.049.048-.051.054-.04.061-.042.069-.033.078-.028.085-.022.093-.017.1-.006h.071L21 6l-.075.006-.072.008-.066.014-.064.019-.059.022-.056.031-.053.028-.055.033-.044.039-.045.039-.086.088-.04.047-.04.053-.04.05-.037.055.08-.5H19.5L19 9" fill="#fffffe"/>
  <path data-name="Stroke 55" d="M19 9h.752l.269-1.578.011-.061.032-.122.021-.061.027-.061.032-.058.035-.059.042-.049.048-.051.054-.04.061-.042.069-.033.078-.028.085-.022.093-.017.1-.006h.071L21 6l-.075.006-.072.008-.066.014-.064.019-.059.022-.056.031-.053.028-.055.033-.044.039-.045.039-.086.088-.04.047-.04.053-.04.05-.037.055.08-.5H19.5L19 9" fill="none" stroke="#fffffe" stroke-miterlimit="10" stroke-width=".216"/>
  <path data-name="Fill 56" d="M13 9h.721l.241-1.578.01-.061.013-.061.015-.055.018-.055.02-.055.025-.053.03-.05.033-.048.04-.042.045-.042.055-.032.06-.031.074-.025.075-.022.085-.014.1-.008h.07v-.011l.014-.019.01-.05.012-.061.018-.072.016-.078.024-.077.023-.078.02-.053.05-.105.025-.047.023-.042.017-.033.013-.02.005-.008h-.06L14.92 6h-.035l-.078.006-.07.008-.066.014-.06.017-.058.022-.053.027-.048.028-.045.033-.043.036-.04.042-.037.042-.038.047-.038.047-.035.052-.076.111.09-.5h-.72L13 9" fill="#fffffe"/>
  <path data-name="Stroke 57" d="M13 9h.721l.241-1.578.01-.061.013-.061.015-.055.018-.055.02-.055.025-.053.03-.05.033-.048.04-.042.045-.042.055-.032.06-.031.074-.025.075-.022.085-.014.1-.008h.07v-.011l.014-.019.01-.05.012-.061.018-.072.016-.078.024-.077.023-.078.02-.053.05-.105.025-.047.023-.042.017-.033.013-.02.005-.008h0-.06L14.92 6h-.035l-.078.006-.07.008-.066.014-.06.017-.058.022-.053.027-.048.028-.045.033-.043.036-.04.042-.037.042-.038.047-.038.047-.035.052-.076.111.09-.5h-.72L13 9" fill="none" stroke="#fffffe" stroke-miterlimit="10" stroke-width=".216"/>
  <path data-name="Fill 58" d="M24 12.139v-.01l.029-.068.051-.055.061-.045.076-.045.083-.03.1-.017.1-.008.1.008.1.017.087.03.072.045.061.045.051.055.029.068v.01h-.105l-.022-.052-.036-.048-.047-.043-.058-.035-.069-.027-.08-.018-.083-.005h-.083l-.08.023-.069.027-.058.035-.047.043-.036.048-.022.052H24" fill="#f1ad3d"/>
  <path data-name="Fill 59" d="M23.868 12.022v-.088h.168l.032.005.016.005.018.01.012.013.01.015.005.017v.022h-.048v-.034l-.013-.005h-.008l-.014-.008h-.113v.05h-.065" fill="#f1ad3d"/>
  <path data-name="Fill 60" d="M23.934 11.989l.008-.055h.072l-.005.055h-.075" fill="#f1ad3d"/>
  <path data-name="Fill 61" d="M23.868 11.989v-.055h.063v.05h.063l.022-.005h.018l.015-.007.012-.005.007-.008.009-.007v-.018h.05v.018l-.003.015-.007.012-.01.01h-.239" fill="#f1ad3d"/>
  <path data-name="Fill 62" d="M23.939 11.989l-.005-.055h.073l.007.055h-.075" fill="#f1ad3d"/>
  <path data-name="Fill 63" d="M24 11.819v.008l.011.072.028.068.05.06.06.053.074.039.085.03.092.023.1.008.1-.008.092-.02.085-.033.074-.039.06-.053.05-.06.028-.068.011-.072v-.008h-.106v.008l-.007.06-.022.055-.035.047-.046.043-.057.035-.067.028-.078.017-.082.007-.081-.007-.079-.017-.067-.028-.057-.035-.046-.043-.035-.047-.021-.055-.008-.06v-.008H24" fill="#f1ad3d"/>
  <path data-name="Fill 64" d="M23.874 11.927v.145h.063v-.125H24l.074.125h.05l-.074-.125h.017l.018-.005.015-.005.013-.01h-.239" fill="#f1ad3d"/>
</svg>
