<?xml version="1.0" encoding="UTF-8"?>
<svg viewBox="0 0 26 26" version="1.1" xmlns="http://www.w3.org/2000/svg" xmlns:xlink="http://www.w3.org/1999/xlink">
    <g stroke="none" stroke-width="1" fill="none" fill-rule="evenodd" stroke-linecap="round" stroke-linejoin="round">
        <g transform="translate(1.000000, 1.000000)" stroke="#656565">
            <circle id="Oval" cx="12" cy="12" r="12"></circle>
            <circle id="Oval" cx="12" cy="12" r="8.86956522"></circle>
            <path d="M16.6956522,10.9565217 C16.6956522,10.6683732 16.4620616,10.4347826 16.173913,10.4347826 L13.5652174,10.4347826 L13.5652174,7.82608696 C13.5652174,7.53793839 13.3316268,7.30434783 13.0434783,7.30434783 L10.9565217,7.30434783 C10.6683732,7.30434783 10.4347826,7.53793839 10.4347826,7.82608696 L10.4347826,10.4347826 L7.82608696,10.4347826 C7.53793839,10.4347826 7.30434783,10.6683732 7.30434783,10.9565217 L7.30434783,13.0434783 C7.30434783,13.3316268 7.53793839,13.5652174 7.82608696,13.5652174 L10.4347826,13.5652174 L10.4347826,16.173913 C10.4347826,16.4620616 10.6683732,16.6956522 10.9565217,16.6956522 L13.0434783,16.6956522 C13.3316268,16.6956522 13.5652174,16.4620616 13.5652174,16.173913 L13.5652174,13.5652174 L16.173913,13.5652174 C16.4620616,13.5652174 16.6956522,13.3316268 16.6956522,13.0434783 L16.6956522,10.9565217 Z" id="Shape"></path>
        </g>
    </g>
</svg>
