<svg xmlns="http://www.w3.org/2000/svg" viewBox="0 0 25.011 23.856"><g fill="none" stroke="currentColor" stroke-linecap="round" stroke-linejoin="round" stroke-miterlimit="10"><path d="M.693 19.832l1.749 2.645"/><path data-name="Shape" d="M10.365 8.053l6.647 10.05M16.663 17.574L2.092 21.948l-1.049-1.587 9.671-11.779 5.949 8.992z"/><path data-name="Shape" d="M9.674 19.671a2.217 2.217 0 11-3.508 2.7l-.914-1.386M3.812 12.439l-.7-.743a.524.524 0 010-.717l1.876-1.987-.625-2.662a.523.523 0 01.358-.621l2.613-.781.778-2.622a.521.521 0 01.608-.363l2.651.633L13.35.694a.519.519 0 01.715 0l1.979 1.882 2.652-.624a.521.521 0 01.619.36l.778 2.622 2.613.781a.523.523 0 01.358.627l-.621 2.65 1.875 1.986a.524.524 0 010 .717l-1.875 1.986.63 2.661a.523.523 0 01-.358.622l-2.612.781-.778 2.622a.521.521 0 01-.62.359l-2.651-.627-1.983 1.879a.519.519 0 01-.715 0l-.376-.357"/></g></svg>
