<svg xmlns="http://www.w3.org/2000/svg" viewBox="0 0 24.207 24"><g data-name="Group 397" fill="none" stroke="currentColor" stroke-linecap="round" stroke-linejoin="round"><path data-name="Shape 1189" d="M21.5 23.5v-7"/><path data-name="Shape 1190" d="M23.5 21.5l-2 2-2-2"/><path data-name="Shape 1191" d="M15.5 16.5v7"/><path data-name="Shape 1192" d="M17.5 18.5l-2-2-2 2"/><path data-name="Shape 1193" d="M7.5 23.5l.5-6h2.5V14a5 5 0 0 0-10 0v3.5H3l.5 6z"/><path data-name="Oval 484" d="M5.5 7.5A3.5 3.5 0 1 0 2 4a3.5 3.5 0 0 0 3.5 3.5z"/><path data-name="Oval 485" d="M14 7.5a3 3 0 1 0-3-3 3 3 0 0 0 3 3z"/><path data-name="Shape 1194" d="M18.7 12.487a5 5 0 0 0-7.262-2.819"/></g></svg>
