<?xml version="1.0" encoding="UTF-8"?>
<svg viewBox="0 0 24 24" version="1.1" xmlns="http://www.w3.org/2000/svg" xmlns:xlink="http://www.w3.org/1999/xlink">
    <g stroke="none" stroke-width="1" fill="none" fill-rule="evenodd" stroke-linecap="round" stroke-linejoin="round">
        <g transform="translate(1.000000, 1.000000)" stroke="currentColor">
            <path d="M9.58333333,14.375 L0,14.375 C0,11.99102 1.47120523,9.85432983 3.69824974,9.00366348 C5.92529424,8.15299713 8.4462863,8.76480694 10.0356667,10.5416667"></path>
            <circle cx="5.75" cy="3.59375" r="3.59375"></circle>
            <circle cx="14.8541667" cy="3.59375" r="3.59375"></circle>
            <path d="M18.1795833,9.68395833 C16.3457882,8.38378529 13.922484,8.27147395 11.9762917,9.39645833"></path>
            <line x1="17.25" y1="14.375" x2="17.25" y2="18.2083333"></line>
            <line x1="19.1666667" y1="16.2916667" x2="15.3333333" y2="16.2916667"></line>
            <path d="M17.6774167,21.9602083 L18.1192083,21.7915417 C20.2208333,20.9875 22.0416693,18.975 22.0416693,16.729625 L22.0416693,14.0204167 C22.0425059,13.6877559 21.845515,13.3864313 21.5404583,13.25375 C20.1604603,12.7384988 18.7009582,12.4686531 17.2279583,12.4564167 C15.7676987,12.4682996 14.3210367,12.7382308 12.95475,13.25375 C12.6496934,13.3864313 12.4527024,13.6877559 12.453539,14.0204167 L12.453539,16.729625 C12.6230358,19.0417014 14.1513526,21.0314892 16.3415,21.7915417 L16.7832917,21.9602083 C17.0712826,22.0696715 17.3894258,22.0696715 17.6774167,21.9602083 Z"></path>
        </g>
    </g>
</svg>
