<?xml version="1.0" encoding="UTF-8"?>
<svg viewBox="0 0 24 19" version="1.1" xmlns="http://www.w3.org/2000/svg" xmlns:xlink="http://www.w3.org/1999/xlink">
    <title>Members</title>
    <g id="Member-page" stroke="none" stroke-width="1" fill="none" fill-rule="evenodd" stroke-linecap="round" stroke-linejoin="round">
        <g id="Group-11" transform="translate(1.000000, 1.000000)" stroke="currentColor">
            <path d="M18.173913,1.91304348 L18.173913,0.956521739 C18.173913,0.42824937 17.7456637,0 17.2173913,0 L0.956521739,0 C0.42824937,0 0,0.42824937 0,0.956521739 L0,12.4347826 C0,12.963055 0.42824937,13.3913043 0.956521739,13.3913043 L1.91304348,13.3913043" id="Shape"></path>
            <line x1="14.826087" y1="7.65217391" x2="19.1304348" y2="7.65217391" id="Shape"></line>
            <line x1="14.826087" y1="10.5217391" x2="17.2173913" y2="10.5217391" id="Shape"></line>
            <circle id="Oval" cx="9.56521739" cy="7.89130435" r="1.67391304"></circle>
            <path d="M12.9130435,12.9130435 C12.5228079,11.3826963 11.1445357,10.311776 9.56521739,10.311776 C7.98589909,10.311776 6.60762684,11.3826963 6.2173913,12.9130435 L12.9130435,12.9130435 Z" id="Shape"></path>
            <path d="M18.173913,16.7391304 C18.173913,17.0032666 18.3880377,17.2173913 18.6521739,17.2173913 L21.0434783,17.2173913 C21.5717506,17.2173913 22,16.7891419 22,16.2608696 L22,4.7826087 C22,4.25433633 21.5717506,3.82608696 21.0434783,3.82608696 L4.7826087,3.82608696 C4.25433633,3.82608696 3.82608696,4.25433633 3.82608696,4.7826087 L3.82608696,16.2608696 C3.82608696,16.7891419 4.25433633,17.2173913 4.7826087,17.2173913 L6.69565217,17.2173913 C6.95978836,17.2173913 7.17391304,17.0032666 7.17391304,16.7391304 C7.17391304,15.6825857 8.03041178,14.826087 9.08695652,14.826087 C10.1435013,14.826087 11,15.6825857 11,16.7391304 C11,17.0032666 11.2141247,17.2173913 11.4782609,17.2173913 L13.8695652,17.2173913 C14.1337014,17.2173913 14.3478261,17.0032666 14.3478261,16.7391304 C14.3478261,15.6825857 15.2043248,14.826087 16.2608696,14.826087 C17.3174143,14.826087 18.173913,15.6825857 18.173913,16.7391304 Z" id="Shape"></path>
        </g>
    </g>
</svg>
