<?xml version="1.0" encoding="UTF-8"?>
<svg viewBox="0 0 18 17" version="1.1" xmlns="http://www.w3.org/2000/svg" xmlns:xlink="http://www.w3.org/1999/xlink">
    <g stroke="none" stroke-width="1" fill="none" fill-rule="evenodd" stroke-linecap="round" stroke-linejoin="round">
        <g transform="translate(-789.000000, -283.000000)" stroke="#858585">
            <g transform="translate(790.000000, 284.000000)">
                <path d="M16.000024,11.1284602 C16.0031697,11.5092365 15.691899,11.8205206 15.3045714,11.8239188 L7.652,11.8239188 L4.86971429,14.605753 L4.86971429,11.8239188 L0.698285714,11.8239188 C0.511780169,11.823029 0.333307708,11.7491842 0.202287352,11.6186943 C0.0712669971,11.4882044 -0.00152098874,11.3118061 -2.39943663e-05,11.1284602 L-2.39943663e-05,0.695458545 C-0.00316968374,0.314682284 0.308100958,0.00339822672 0.695428571,0 L15.3045714,0 C15.691899,0.00339822672 16.0031697,0.314682284 16.000024,0.695458545 L16.000024,11.1284602 Z" id="Path"></path>
                <path d="M8,8.98815567 L8,4.65474112 C8.03934147,4.3017113 7.78630129,3.98180772 7.42857143,3.9323181 L6.85714286,3.9323181" id="Path-2"></path>
                <line x1="6.85714286" y1="8.7072758" x2="9.71428571" y2="8.7072758" id="Path-3"></line>
                <path d="M8.28571429,2.38747885 C8.36461211,2.38747885 8.42857143,2.45035595 8.42857143,2.52791878 C8.42857143,2.60548161 8.36461211,2.66835871 8.28571429,2.66835871 C8.20681646,2.66835871 8.14285714,2.60548161 8.14285714,2.52791878 C8.14285714,2.45035595 8.20681646,2.38747885 8.28571429,2.38747885" id="Path-4"></path>
            </g>
        </g>
    </g>
</svg>
