<?xml version="1.0" encoding="UTF-8"?>
<svg viewBox="0 0 108 113" version="1.1" xmlns="http://www.w3.org/2000/svg">
    <g stroke="none" stroke-width="1" fill="none" fill-rule="evenodd">
        <g transform="translate(-142.000000, -181.000000)" fill-rule="nonzero">
            <g transform="translate(142.000000, 181.000000)">
                <path
                    d="M65.0026715,113 L9.99732853,113 C4.47574537,113 0,108.513105 0,102.978754 L0,10.0212461 C0,4.48689453 4.47596555,0 9.99732853,0 L65.0026715,0 C70.5242546,0 75,4.48689453 75,10.0212461 L75,102.978533 C75,108.513105 70.5242546,113 65.0026715,113 Z"
                    id="Path" fill="#656565"></path>
                <rect id="Rectangle" fill="#F7F8F9" x="7" y="20" width="62" height="75"></rect>
                <circle id="Oval" fill="#494846" cx="38" cy="104" r="5"></circle>
                <ellipse id="Oval" fill="#339BB2" cx="75.5" cy="50" rx="32.5" ry="32"></ellipse>
                <path
                    d="M51.255757,12 L24.744243,12 C23.7807585,12 23,11.1045043 23,10 C23,8.89549573 23.7807585,8 24.744243,8 L51.255757,8 C52.2192415,8 53,8.89549573 53,10 C53,11.1045043 52.2192415,12 51.255757,12 Z"
                    id="Path" fill="#333333"></path>
                <path
                    d="M80.2988039,30 L80.8253843,35.7997567 C80.851626,36.0863751 81.03313,36.3357988 81.2977323,36.4491333 L81.2977323,36.4491333 L81.585952,36.5725324 C82.8997791,37.1322042 84.1401299,37.8507193 85.2794507,38.712325 L85.2794507,38.712325 L85.5300576,38.9004867 C85.7601085,39.0737705 86.0666973,39.1065894 86.3282381,38.9862534 L86.3282381,38.9862534 L91.6268452,36.5467149 L96,43.9064635 L91.1986705,47.3222549 C90.9598724,47.4920381 90.8360997,47.781282 90.8776487,48.0718387 L90.8776487,48.0718387 L90.9222594,48.3899632 C91.0390344,49.0874744 91.1046382,49.792862 91.117759,50.5 C91.1046382,51.2067004 91.0394717,51.9116504 90.9231341,52.608724 L90.9231341,52.608724 L90.8789609,52.9154713 C90.8387238,53.1972763 90.9537493,53.4786437 91.179864,53.6514899 L91.179864,53.6514899 L95.6920991,57.0904734 L91.4169128,64.4528476 L86.1051849,62.0084956 C85.8331475,61.8829085 85.5134379,61.9240416 85.2812002,62.1139536 L85.2812002,62.1139536 L85.0270944,62.3218067 C84.0959567,63.084518 82.901966,63.7732774 81.3768944,64.4279051 L81.3768944,64.4279051 L81.0895494,64.5513042 C80.824947,64.6646388 80.6434429,64.9140625 80.6176388,65.200681 L80.6176388,65.200681 L80.0919329,71 L71.5971048,71 L71.0696495,65.1998057 C71.0434079,64.9131873 70.8623413,64.6633261 70.5977388,64.5499915 L70.5977388,64.5499915 L70.3103939,64.42703 C68.9961294,63.8673583 67.7557787,63.1484055 66.6160205,62.2872374 L66.6160205,62.2872374 L66.3654136,62.0990758 C66.1353628,61.9266671 65.8292112,61.8938482 65.5676704,62.0141841 L65.5676704,62.0141841 L60.2708128,64.4524099 L56,57.0979125 L60.7265412,53.8785967 C60.7326642,53.8742209 60.7392246,53.8702827 60.7453475,53.8659068 L60.7453475,53.8659068 L61.0147608,53.6703061 C61.2504975,53.4996478 61.3725207,53.2125918 61.331409,52.9246606 L61.331409,52.9246606 L61.2850489,52.5995347 C61.1687113,51.9055242 61.1035448,51.2036373 61.0904241,50.5 C61.1044196,49.7924245 61.1700234,49.0870368 61.287673,48.3890881 L61.287673,48.3890881 L61.3322837,48.0718387 C61.3733955,47.7808444 61.2491854,47.4916005 61.00995,47.3218173 L61.00995,47.3218173 L56.2064336,43.9051507 L60.4785585,36.5467149 L65.7902862,38.9915044 C66.0623237,39.1166538 66.3820332,39.0755208 66.6138337,38.8860464 L66.6138337,38.8860464 L66.8683767,38.6781933 C67.8017013,37.9137316 68.995692,37.2249723 70.5181395,36.5720949 L70.5181395,36.5720949 L70.8067966,36.4486958 C71.0718362,36.3353612 71.252903,36.0859375 71.2791446,35.7988815 L71.2791446,35.7988815 L71.8035383,30 L80.2988039,30 Z M75.9995627,38.7228271 C69.3993746,38.7228271 64.2289139,43.8955238 64.2289139,50.5 C64.2289139,57.1040386 69.3989372,62.2776106 75.9995627,62.2776106 C82.6006254,62.2776106 87.7715236,57.1040386 87.7715236,50.5 C87.7715236,43.8959614 82.5997508,38.7228271 75.9995627,38.7228271 Z"
                    id="Combined-Shape" fill="#FFFFFF"></path>
                <path
                    d="M75.9997879,44 C72.1334764,44 69,47.1335714 69,51 C69,54.8664286 72.1334764,58 75.9997879,58 C79.8660993,58 82.9995757,54.8664286 82.9995757,51 C83.041473,47.1754699 79.9748853,44.0411635 76.1504711,44 C76.1004883,44 76.0497706,44 75.9997879,44 Z"
                    id="Path" fill="#FFFFFF"></path>
            </g>
        </g>
    </g>
</svg>
