<?xml version="1.0" encoding="UTF-8"?>
<svg width="18px" height="17px" viewBox="0 0 18 17" version="1.1" xmlns="http://www.w3.org/2000/svg" xmlns:xlink="http://www.w3.org/1999/xlink">
    <g stroke="none" stroke-width="1" fill="none" fill-rule="evenodd" stroke-linecap="round" stroke-linejoin="round">
        <g transform="translate(-422.000000, -325.000000)" stroke="#656565">
            <g transform="translate(423.000000, 326.000000)">
                <path d="M13.4059663,6.91742326 C13.4059663,8.11129431 12.4381426,9.07911803 11.2442715,9.07911803"></path>
                <line x1="0.868136619" y1="14.6995244" x2="16" y2="0"></line>
                <path d="M5.60570687,12.5084306 C6.97548186,13.9076475 8.85039155,14.6972472 10.8084738,14.6995244 C11.0472481,14.6995244 11.2408128,14.5059597 11.2408128,14.2671855 L11.2408128,6.91742326"></path>
                <path d="M11.2408128,2.21271077 L11.2408128,0.432338954 C11.2408128,0.193564743 11.0472481,0 10.8084738,0 C7.92183601,0.000711245528 5.30328292,1.69228301 4.11586684,4.32338954 L2.16169477,4.32338954 C0.967823714,4.32338954 0,5.29121325 0,6.48508431 L0,8.21444012 C0,9.40831118 0.967823714,10.3761349 2.16169477,10.3761349 L2.83700821,10.3761349"></path>
            </g>
        </g>
    </g>
</svg>
