<svg xmlns="http://www.w3.org/2000/svg" viewBox="0 0  24 24"><g data-name="Group 717" fill="none" stroke="currentColor" stroke-linecap="round" stroke-linejoin="round"><path data-name="Shape 206" d="M22.502 23.503v-2.668a3.333 3.333 0 00-3.333-3.332h-1.667v-4.5a1.5 1.5 0 00-3 0v7l-1.289-1.08a1.25 1.25 0 10-1.922 1.6l2.479 2.98"/><path data-name="Shape 207" d="M9.001 18.503h-7a1.546 1.546 0 01-1.5-1.589V2.089A1.546 1.546 0 012.001.5h20a1.546 1.546 0 011.5 1.589v14.822"/><path data-name="Shape 208" d="M19.501 14.503h1"/><path data-name="Shape 209" d="M3.501 14.503h9"/><path data-name="Shape 210" d="M5.501 13.503v2"/><path data-name="Shape 211" d="M8.001 7.125v-2.73a.645.645 0 01.977-.553l5.91 2.73a.645.645 0 010 1.106l-5.91 2.73a.646.646 0 01-.977-.553z"/></g></svg>
