<svg xmlns="http://www.w3.org/2000/svg" viewBox="0 0 24.1 17">
  <g data-name="my thread" fill="none" stroke="currentColor" stroke-linecap="round" stroke-linejoin="round">
    <path data-name="Shape 2" d="M11.68 11c-.44-.17-.94-.36-1.48-.55-.45-.17-.38-1.35-.18-1.57a3.34 3.34 0 00.87-2.6 2.13 2.13 0 10-4.24 0 3.34 3.34 0 00.87 2.6c.2.22.28 1.4-.17 1.57l-1.44.53"/>
    <path data-name="Shape 3" d="M14.6 5.5h4"/>
    <path data-name="Shape 4" d="M13.6 7.5h6"/>
    <path data-name="Shape 5" d="M13.6 9.5h6"/>
    <path data-name="Shape 6" d="M16.6.5h-9a6.99 6.99 0 00-5.32 11.53L.6 16.5l7.33-2h8.67a7 7 0 100-14z"/>
  </g>
</svg>
