<svg viewBox="0 0 24 24.11" xmlns="http://www.w3.org/2000/svg">
    <path
        d="M20.36 14.69a3.62 3.62 0 0 0-3.58 3.14H12.5v-7.37h4.28a3.63 3.63 0 1 0 0-1H12.5V.5a.5.5 0 0 0-1 0v4.78H7.22a3.64 3.64 0 1 0 0 1h4.28v7.36H7.22a3.64 3.64 0 1 0 0 1h4.28v9a.5.5 0 0 0 1 0v-4.81h4.28a3.63 3.63 0 1 0 3.58-4.14zm0-7.36A2.64 2.64 0 1 1 17.73 10a2.64 2.64 0 0 1 2.63-2.67zM3.64 8.42a2.64 2.64 0 1 1 2.63-2.64 2.64 2.64 0 0 1-2.63 2.64zm0 8.36a2.64 2.64 0 1 1 2.63-2.64 2.64 2.64 0 0 1-2.63 2.64zM20.36 21A2.64 2.64 0 1 1 23 18.33 2.63 2.63 0 0 1 20.36 21z"
        data-name="Layer 2"/>
</svg>
