<?xml version="1.0" encoding="UTF-8"?>
<svg viewBox="0 0 25 25" version="1.1" xmlns="http://www.w3.org/2000/svg" xmlns:xlink="http://www.w3.org/1999/xlink">
    <title>my workspace</title>
    <g stroke="currentColor" stroke-width="1" fill="none" fill-rule="evenodd" stroke-linecap="round" stroke-linejoin="round">
        <g transform="translate(-176.000000, -101.000000)" stroke="#656565">
            <g id="my-workspace" transform="translate(177.000000, 102.000000)">
                <rect id="Rectangle-path" x="0" y="3" width="13" height="9" rx="1"></rect>
                <rect id="Rectangle-path" x="5" y="12" width="3" height="3"></rect>
                <path d="M23,16.5 C23,17.3284271 22.3284271,18 21.5,18 L1.5,18 C0.671572875,18 0,17.3284271 0,16.5 C0,15.6715729 0.671572875,15 1.5,15 L21.5,15 C22.3284271,15 23,15.6715729 23,16.5 Z" id="Shape"></path>
                <rect id="Rectangle-path" x="18" y="12" width="3" height="3"></rect>
                <line x1="19" y1="12" x2="19" y2="10" id="Shape"></line>
                <line x1="20" y1="12" x2="21.5" y2="10" id="Shape"></line>
                <path d="M4,22 C4,22.5522847 3.55228475,23 3,23 C2.44771525,23 2,22.5522847 2,22 L2,18 L4,18 L4,22 Z" id="Shape"></path>
                <path d="M18,22 C18,22.5522847 18.4477153,23 19,23 C19.5522847,23 20,22.5522847 20,22 L20,18 L18,18 L18,22 Z" id="Shape"></path>
                <line x1="11" y1="15" x2="11" y2="18" id="Shape"></line>
                <polyline id="Shape" points="19 2 19 4 20.5 5"></polyline>
                <circle id="Oval" cx="19" cy="4" r="4"></circle>
                <line x1="6" y1="10" x2="7" y2="10" id="Shape"></line>
            </g>
        </g>
    </g>
</svg>
