<svg xmlns="http://www.w3.org/2000/svg" viewBox="0 0 702.088 497.659"><g transform="translate(-109.086 -245.982)"><path d="M762.929,261.081c1.952,2.328.844,5.08.941,7.621a129.929,129.929,0,0,1-.028,14.861c-.38,4.935-.088,8.968,6.081,9.5l.008,140.971c0,22.49-.064,44.98.058,67.469.02,3.571-.636,5.618-4.5,6.974-5.588,1.961-10.863,4.882-16.143,7.642a188.015,188.015,0,0,0-51.127,39.208c-2.628,2.837-5.424,3.739-9.192,3.733q-92.466-.147-184.932-.069c-1,0-2-.016-3,0-5.176.095-8,2.826-8.089,7.9-.055,3.164-.015,6.33-.01,9.495.011,7.289,2.249,9.577,9.412,9.579q42.986.008,85.969,0,40.236,0,80.471,0c5.394,0,5.488.083,2.691,4.818a274.751,274.751,0,0,0-26.126,58.506c-1.174,3.789-3.052,4.728-6.771,4.721-56.812-.106-113.626.091-170.437-.219-10.768-.058-15.677-2.612-14.22-13.824q.012-179.259.022-358.518c0-1-.033-2-.017-3,.035-2.108-1.341-2.408-2.994-2.372-1.166-.721-.962-1.9-.995-2.994l.988-1.01c1.119-.084,1.6-.724,2.106-1.745,6.335-12.864,16.659-19.267,31.068-19.261q128.932.05,257.865-.14C751.146,250.9,758.325,252.811,762.929,261.081ZM548.891,383.049c10.32,0,20.664-.453,30.952.122,11.173.624,18.062-7.236,18.159-18.166.168-18.971.073-37.945-.021-56.917-.051-10.18-6.7-16.914-16.888-16.965q-32.205-.16-64.413.005c-9.931.056-16.661,6.8-16.7,16.642q-.107,29.457.1,58.914c.063,9.62,6.793,16.277,16.35,16.345C527.254,383.105,538.073,383.047,548.891,383.049Zm59.31,43.983q-53.222,0-106.443.006c-6.155,0-8.721,2.588-8.76,8.724-.017,2.665,0,5.33,0,7.995.005,8.7,1.511,10.25,10.008,10.25q104.445,0,208.889,0c1.166,0,2.338.07,3.5-.023,4.69-.376,7.471-3.363,7.531-8.091.04-3.164.032-6.33,0-9.494-.064-6.708-2.691-9.364-9.278-9.365Q660.923,427.026,608.2,427.032Zm-.15,65.977q-52.947,0-105.894,0c-6.8,0-9.143,2.406-9.161,9.319q-.01,4,0,7.992c.011,7.489,2.211,9.659,9.822,9.659q104.646,0,209.291,0c1,0,2,.05,3-.014,5.009-.319,7.765-3.246,7.817-8.31.031-3,.022-5.993,0-8.99-.045-7.075-2.575-9.658-9.479-9.659Q660.748,493,608.051,493.009Z" fill="#f8f8f8"/><path d="M136.079,292.068c0-8.61-.033-17.22.034-25.829.014-1.741-.661-3.684.956-5.157,4.611-8.26,11.772-10.31,20.909-10.162,27.485.444,54.984.065,82.475.279,3.452.027,6.363-2.165,9.438-1.835a297.214,297.214,0,0,0,41.751,1.612c4.581-.154,5.536,1.409,5.486,5.679q-.327,27.986.017,55.977c.063,4.51-1.317,5.54-5.644,5.523-39.323-.162-78.646-.1-117.969-.092-9.578,0-16.462,6.727-16.456,16.032.006,9.281,6.948,15.952,16.633,15.954q58.984.007,117.969-.009c2.9,0,5.482-.431,5.445,4.115-.191,22.99-.136,45.983-.034,68.975.014,3.147-1.178,4.042-4.122,3.939-4.826-.169-9.662-.045-14.494-.045q-45.489,0-90.976.011c-6.644.005-9.358,2.758-9.421,9.382-.028,3-.063,6,.009,9,.136,5.664,2.984,8.579,8.7,8.579q69.229,0,138.46-.1c.188,0,.376,0,.564.013l39.552-.056h.312q17.488.08,34.977.162c4.326.021,6.655-1.991,7.434-6.378a33.5,33.5,0,0,0,.076-12.768c-1.322-6.613-2.27-7.824-9.035-7.839q-16.492-.036-32.984-.025,0-23.971,0-47.945c1.306.163,2.61.356,3.92.483,9.939.963,19.861,1.349,29.415-2.284,19.334-7.353,33.343-27.234,29.573-51.087-2.538-16.057-16.721-32.045-32.391-36.219-10.18-2.712-20.309-2-30.522-.9q-.014-.984-.026-1.967c5.111-.439,10.252-.655,15.326-1.354,22.172-3.056,35.751,1.93,48.824,20.218,10.243,14.329,15.123,30.461,15.012,48.8-.569,93.446-.256,186.9-.3,280.347A28.514,28.514,0,0,0,446,642.956c-4.1-.167-7.086,3.118-11.381,3.111q-141.133-.227-282.267-.1a15.564,15.564,0,0,1-8.026-2.183c-6.854-3.961-8.218-10.467-8.22-17.521Q136.057,459.165,136.079,292.068ZM293.621,493q-52.717,0-105.437,0c-7.605,0-10.089,2.529-10.112,10.2q-.009,3.247,0,6.5c.021,7.872,2.481,10.294,10.515,10.294q104.937.006,209.875,0c.832,0,1.667.036,2.5-.009,4.77-.257,6.881-2.35,7.034-7.192.111-3.5.032-7,.023-10.493-.02-7.547-1.785-9.293-9.458-9.294Q346.09,492.995,293.621,493Zm-.5,92.969h19.988q43.224,0,86.448-.01c6.378-.005,8.387-2.018,8.459-8.283.033-2.831.008-5.663.006-8.494,0-8.666-1.514-10.2-10.052-10.2q-101.939,0-203.878,0c-15.789,0-16.038.253-16.017,16.287.011,8.349,2.331,10.7,10.608,10.7Q240.9,585.974,293.117,585.97Z" fill="#eee"/><path d="M446,642.956a28.514,28.514,0,0,1-1.016-7.855c.04-93.45-.273-186.9.3-280.347.111-18.344-4.769-34.476-15.012-48.8-13.073-18.288-26.652-23.274-48.824-20.218-5.074.7-10.215.915-15.326,1.354q-.126-20.445-.252-40.889c17.794-.035,35.592-.342,53.379,0a32.882,32.882,0,0,1,26.288,13.034c2.5,3.219,1.51,7.682,3.346,11.241.424.82.129,2,1.126,2.618.033,1.1-.171,2.274.995,2.995a24.86,24.86,0,0,0-1.009,8.352c1.037,33.091-1.873,66.234,1.829,99.316,1.128,10.079-1.369,20.431-1.463,30.5-.661,70.767-.351,141.543-.35,212.317,0,1.332-.391,2.838.1,3.963,1.353,3.124-.627,7.649,3.886,9.44-1.457,11.212,3.452,13.766,14.22,13.824,56.811.31,113.625.113,170.437.219,3.719.007,5.6-.932,6.771-4.721a274.751,274.751,0,0,1,26.126-58.506c2.8-4.735,2.7-4.816-2.691-4.818q-40.236-.014-80.471,0-42.984,0-85.969,0c-7.163,0-9.4-2.29-9.412-9.579-.005-3.165-.045-6.331.01-9.495.088-5.07,2.913-7.8,8.089-7.9,1-.019,2,0,3,0q92.466,0,184.932.069c3.768.006,6.564-.9,9.192-3.733a188.015,188.015,0,0,1,51.127-39.208c5.28-2.76,10.555-5.681,16.143-7.642,3.865-1.356,4.521-3.4,4.5-6.974-.122-22.489-.06-44.979-.058-67.469,1.077-.187,2.12-.721,1.892-1.881-1.852-9.431,3.43-18.026,3.126-27.269-.046-1.4-.4-2.98,1.585-3.733,5.635-2.143,9.494.38,9.344,6.452-.1,3.985.433,7.343,4.995,8.458q.014,54.828.013,109.655c0,1.656-.188,3.311-.287,4.963a16.707,16.707,0,0,1-2.25,1.055c-32.094,9.655-59.318,27.384-82.458,51.215C688.1,601.262,673.83,622.291,662,644.972c-7.917,15.186-14,31.138-20.331,47l-7.765.02c-53.634-.011-107.268-.149-160.9.085-9.679.042-18.406-.451-22.67-11.589-2.219,2.756-3.409,5.1-5.227,7.018a13.746,13.746,0,0,1-10.627,4.478q-154.9-.063-309.811-.063a15.74,15.74,0,0,1-15.537-14.582c-.092-1.159-.026-2.331-.026-3.5q0-180.873-.005-361.747c0-5.244.882-9.935,4.516-14.286,4.36-5.221,9.81-4.841,15.465-4.739q0,170.131-.007,340.262c0,.833-.032,1.667.009,2.5.6,12.1,6.908,18.124,19.008,18.124q141.414,0,282.827-.016a36.709,36.709,0,0,0,4-.047C441.843,653.122,445.876,649.109,446,642.956Z" fill="#e1e1e3"/><path d="M325.25,453.9q-69.23.059-138.46.1c-5.721,0-8.569-2.915-8.7-8.579-.072-3-.037-6-.009-9,.063-6.624,2.777-9.377,9.421-9.382q45.488-.036,90.976-.011c4.832,0,9.668-.124,14.494.045,2.944.1,4.136-.792,4.122-3.939-.1-22.992-.157-45.985.034-68.975.037-4.546-2.549-4.116-5.445-4.115q-58.985.024-117.969.009c-9.685,0-16.627-6.673-16.633-15.954-.006-9.3,6.878-16.03,16.456-16.032,39.323-.008,78.646-.07,117.969.092,4.327.017,5.707-1.013,5.644-5.523q-.39-27.984-.017-55.977c.05-4.27-.9-5.833-5.486-5.679a297.214,297.214,0,0,1-41.751-1.612c-3.075-.33-5.986,1.862-9.438,1.835-27.491-.214-54.99.165-82.475-.279-9.137-.148-16.3,1.9-20.909,10.162.226-8.375,7.06-14.866,15.973-14.966,8.814-.1,17.631-.028,26.447-.022q72.852.048,145.705.1c-.042,1.5-.118,2.994-.118,4.491q-.025,80.441-.049,160.882c0,2.159-.152,4.319-.233,6.478-2.1-1.559-4-1.876-5.156,1.029-1.019,2.567-4.539,5.062-3.439,7.137,1.125,2.125,5.064.488,7.747.8a7.714,7.714,0,0,0,.985-.006Z" fill="#e1e1e3"/><path d="M641.673,691.968c6.332-15.858,12.414-31.81,20.331-47,11.826-22.681,26.1-43.71,43.887-62.028,23.14-23.831,50.364-41.56,82.458-51.215a16.707,16.707,0,0,0,2.25-1.055c4.508-1.04,9.052-1.955,13.51-3.184,2.05-.566,3.084-.256,3.653,1.858,3.45,12.812,4.668,25.764,1.845,38.82-2.349,10.861-8.867,18.69-18.694,23.8-6.7,2.987-14.1,3.14-21.036,5.173-1.771.263-3.561.442-5.312.8-7.778,1.609-15.664,2.88-22.717,6.885-6.947,3.09-8.837,6.409-6.9,12.12.371,3.953,3.381,4.641,6.434,4.9a36.319,36.319,0,0,0,14.331-1.271c1.827-.59,3.243-.344,4.4,1.206,1.145,1.532.487,2.811-.564,4.023-2.157,2.49-4.1,5.083-6.755,7.219-8.052,6.483-17.383,10.058-27.072,13.064-7.261,2.252-15.1,2.724-21.722,6.956a45.335,45.335,0,0,0-12.628,8.375A207.022,207.022,0,0,0,665.7,691.781c-12.09,14.836-22.176,31.062-32.675,47-1.062,1.613-1.683,3.588-3.761,4.856-1.013-3.148,1.184-5.888.615-8.754,2.333-5.339,2.731-11.182,4.359-16.71C636.8,709.466,639.2,700.707,641.673,691.968Z" fill="#8d69cf"/><path d="M325.25,453.9q-.159-13.444-.318-26.888l-.138-8.963c.081-2.159.232-4.319.233-6.478q.036-80.44.049-160.882c0-1.5.076-2.994.118-4.491l40.669,0q.125,20.445.251,40.889.013.982.025,1.967,0,45,.006,90.007,0,23.973,0,47.946l-.468,26.847h-.314c-4.79-9.632-9.494-19.308-14.421-28.87-1.383-2.686-1.932-7.385-4.859-7.32-2.716.06-3.423,4.726-4.885,7.419-5.2,9.572-10.267,19.212-15.385,28.827C325.626,453.9,325.438,453.892,325.25,453.9Z" fill="#8d69cf"/><path d="M665.7,691.781a207.022,207.022,0,0,1,25.673-30.361A45.335,45.335,0,0,1,704,653.045c.577.283,1.155.813,1.733.815,16.639.05,33.284.309,49.915-.058,8.062-.178,14.251-7.562,14.261-15.731.017-13.643-.018-27.286-.032-40.929,6.936-2.033,14.335-2.186,21.036-5.173,0,27.438-.311,54.882.154,82.312a17.794,17.794,0,0,1-17.612,17.888C737.544,691.585,701.619,691.839,665.7,691.781Z" fill="#e1e1e3"/><path d="M446,642.956c-.12,6.153-4.153,10.166-11.078,10.931a36.709,36.709,0,0,1-4,.047q-141.412.009-282.827.016c-12.1,0-18.408-6.02-19.008-18.124-.041-.831-.009-1.665-.009-2.5q0-170.13.007-340.262c2.1-1.915,4.671-.605,6.994-1q0,167.1.023,334.194c0,7.054,1.366,13.56,8.22,17.521a15.564,15.564,0,0,0,8.026,2.183q141.133-.027,282.267.1C438.91,646.074,441.895,642.789,446,642.956Z" fill="#f8f8f8"/><path d="M790.873,416.056c-4.562-1.115-5.093-4.473-4.995-8.458.15-6.072-3.709-8.6-9.344-6.452-1.981.753-1.631,2.332-1.585,3.733.3,9.243-4.978,17.838-3.126,27.269.228,1.16-.815,1.694-1.892,1.881q0-70.485-.008-140.971c5.77-.013,11.559-.769,16.113,4.438,3.024,3.459,4.875,7.067,4.875,11.6Q790.907,362.576,790.873,416.056Z" fill="#eee"/><path d="M762.929,261.081c-4.6-8.27-11.783-10.178-20.9-10.15q-128.931.386-257.865.14c-14.409-.006-24.733,6.4-31.068,19.261-.5,1.021-.987,1.661-2.106,1.745,2.787-16.19,18.746-26.132,34.119-26.1q130.171.318,260.342.027c6.877-.009,11.7,2.969,15.768,7.974C762.919,256.076,763.061,258.546,762.929,261.081Z" fill="#eee"/><path d="M641.673,691.968c-2.47,8.739-4.87,17.5-7.436,26.209-1.628,5.528-2.026,11.371-4.359,16.71-2.258-6.065.26-12,.713-17.945.636-8.354,2.169-16.64,3.318-24.954Z" fill="#eee"/><path d="M548.891,383.048c-10.818,0-21.637.057-32.455-.019-9.557-.068-16.287-6.725-16.35-16.345q-.192-29.455-.1-58.914c.036-9.847,6.766-16.586,16.7-16.642q32.207-.18,64.413-.005c10.191.051,16.837,6.785,16.888,16.965.094,18.972.189,37.946.021,56.917-.1,10.93-6.986,18.79-18.159,18.166C569.555,382.6,559.211,383.049,548.891,383.048Zm-28.138-45.414c-1.189,13.582,10.445,27.136,26.012,28.292,13.679,1.016,27.219-12.715,27.312-26.9.1-15.648-11.075-27.526-26.53-27.693C533.345,311.181,519.869,323.457,520.753,337.634Z" fill="#36c8fa"/><path d="M608.2,427.032q52.722,0,105.444,0c6.587,0,9.214,2.657,9.278,9.365.029,3.164.037,6.33,0,9.494-.06,4.728-2.841,7.715-7.531,8.091-1.159.093-2.331.023-3.5.023q-104.445,0-208.889,0c-8.5,0-10-1.548-10.008-10.25,0-2.665-.014-5.33,0-7.995.039-6.136,2.605-8.722,8.76-8.724Q554.98,427.02,608.2,427.032Z" fill="#e1e1e3"/><path d="M608.051,493.009q52.7,0,105.395,0c6.9,0,9.434,2.584,9.479,9.659.019,3,.028,5.994,0,8.99-.052,5.064-2.808,7.991-7.817,8.31-.995.064-2,.014-3,.014q-104.646,0-209.291,0c-7.611,0-9.811-2.17-9.822-9.659q-.006-4,0-7.992c.018-6.913,2.363-9.318,9.161-9.319Q555.1,493,608.051,493.009Z" fill="#e1e1e3"/><path d="M453.985,639.967c-4.513-1.791-2.533-6.316-3.886-9.44-.487-1.125-.1-2.631-.1-3.963,0-70.774-.311-141.55.35-212.317.094-10.067,2.591-20.419,1.463-30.5-3.7-33.082-.792-66.225-1.829-99.316A24.86,24.86,0,0,1,451,276.081c1.653-.036,3.029.264,2.994,2.372-.016,1,.017,2,.017,3Q454,460.708,453.985,639.967Z" fill="#eee"/><path d="M293.621,493q52.47,0,104.938,0c7.673,0,9.438,1.747,9.458,9.294.009,3.5.088,7-.023,10.493-.153,4.842-2.264,6.935-7.034,7.192-.831.045-1.666.009-2.5.009q-104.939,0-209.875,0c-8.034,0-10.494-2.422-10.515-10.294q-.008-3.248,0-6.5c.023-7.666,2.507-10.193,10.112-10.2Q240.9,492.992,293.621,493Z" fill="#e1e1e3"/><path d="M293.117,585.97q-52.22,0-104.438,0c-8.277,0-10.6-2.353-10.608-10.7-.021-16.034.228-16.287,16.017-16.287q101.94,0,203.878,0c8.538,0,10.048,1.537,10.052,10.2,0,2.831.027,5.663-.006,8.494-.072,6.265-2.081,8.278-8.459,8.283q-43.224.033-86.448.01Z" fill="#e1e1e3"/><path d="M366.145,379.059q0-45-.006-90.007c10.214-1.1,20.343-1.812,30.523.9,15.67,4.174,29.853,20.162,32.391,36.219,3.77,23.853-10.239,43.734-29.573,51.087-9.554,3.633-19.476,3.247-29.415,2.284C368.755,379.415,367.451,379.222,366.145,379.059Z" fill="#e1e1e3"/><path d="M365.678,453.852l.468-26.847q16.492.009,32.984.024c6.765.015,7.713,1.226,9.035,7.839a33.5,33.5,0,0,1-.076,12.768c-.779,4.387-3.108,6.4-7.434,6.378Q383.167,453.93,365.678,453.852Z" fill="#e1e1e3"/><path d="M325.814,453.909c5.118-9.615,10.189-19.255,15.385-28.827,1.462-2.693,2.169-7.359,4.885-7.419,2.927-.065,3.476,4.634,4.859,7.32,4.927,9.562,9.631,19.238,14.421,28.87Z" fill="#e1e1e3"/><path d="M324.794,418.045l.138,8.963a7.731,7.731,0,0,1-.986.006c-2.683-.315-6.622,1.322-7.747-.8-1.1-2.075,2.42-4.57,3.439-7.137C320.791,416.169,322.694,416.486,324.794,418.045Z" fill="#eee"/><path d="M769.877,597.142c.014,13.643.049,27.286.032,40.929-.01,8.169-6.2,15.553-14.261,15.731-16.631.367-33.276.108-49.915.058-.578,0-1.156-.532-1.733-.815,6.625-4.232,14.461-4.7,21.722-6.956,9.689-3.006,19.02-6.581,27.072-13.064,2.652-2.136,4.6-4.729,6.755-7.219,1.051-1.212,1.709-2.491.564-4.023-1.159-1.55-2.575-1.8-4.4-1.206a36.319,36.319,0,0,1-14.331,1.271c-3.053-.256-6.063-.944-6.434-4.9,5.188-2.395,7.234-6.581,6.9-12.12,7.053-4.005,14.939-5.276,22.717-6.885C766.316,597.584,768.106,597.405,769.877,597.142Z" fill="#f8f8f8"/><path d="M741.848,604.831c.332,5.539-1.714,9.725-6.9,12.12C733.011,611.24,734.9,607.921,741.848,604.831Z" fill="#e1e1e3"/><path d="M520.753,337.634c-.884-14.177,12.592-26.453,26.794-26.3,15.455.167,26.632,12.045,26.53,27.693-.093,14.184-13.633,27.915-27.312,26.9C531.2,364.77,519.564,351.216,520.753,337.634Zm49.363.571c-.051-12.561-10.551-23.148-22.8-22.986-12.627.167-22.6,10.7-22.49,23.75.106,12.454,10.078,22.151,22.757,22.128A22.4,22.4,0,0,0,570.116,338.2Z" fill="#f8f8f8"/><path d="M570.116,338.2A22.4,22.4,0,0,1,547.585,361.1c-12.679.023-22.651-9.674-22.757-22.128-.112-13.05,9.863-23.583,22.49-23.75C559.565,315.057,570.065,325.644,570.116,338.2Z" fill="#36c8fa"/></g></svg>
