<svg xmlns="http://www.w3.org/2000/svg" viewBox="0 0 24 24"><g transform="translate(-21031.498 -5515.614)"><path d="M198.038,296.114a6,6,0,1,0-6-6A6,6,0,0,0,198.038,296.114Z" transform="translate(20850.961 5243)" fill="none" stroke="currentColor" stroke-linecap="round" stroke-linejoin="round" stroke-width="1"/><path d="M198.038,287.114v6" transform="translate(20850.961 5243)" fill="none" stroke="currentColor" stroke-linecap="round" stroke-linejoin="round" stroke-width="1"/><path d="M201.038,290.114h-6" transform="translate(20850.961 5243)" fill="none" stroke="currentColor" stroke-linecap="round" stroke-linejoin="round" stroke-width="1"/><path d="M185.038,281.114h9.5" transform="translate(20850.961 5243)" fill="none" stroke="currentColor" stroke-linecap="round" stroke-linejoin="round" stroke-width="1"/><path d="M185.038,284.114h6" transform="translate(20850.961 5243)" fill="none" stroke="currentColor" stroke-linecap="round" stroke-linejoin="round" stroke-width="1"/><path d="M185.038,278.114h7" transform="translate(20850.961 5243)" fill="none" stroke="currentColor" stroke-linecap="round" stroke-linejoin="round" stroke-width="1"/><path d="M185.038,287.114h4" transform="translate(20850.961 5243)" fill="none" stroke="currentColor" stroke-linecap="round" stroke-linejoin="round" stroke-width="1"/><path d="M185.038,290.114h4" transform="translate(20850.961 5243)" fill="none" stroke="currentColor" stroke-linecap="round" stroke-linejoin="round" stroke-width="1"/><path d="M191.038,296.114h-9a1,1,0,0,1-1-1v-21a1,1,0,0,1,1-1h13.293a1,1,0,0,1,.707.293l3.707,3.707a1,1,0,0,1,.293.707v3.293" transform="translate(20850.961 5243)" fill="none" stroke="currentColor" stroke-linecap="round" stroke-linejoin="round" stroke-width="1"/></g></svg>