<?xml version="1.0" encoding="UTF-8"?>
<svg viewBox="0 0 26 32" version="1.1" xmlns="http://www.w3.org/2000/svg" xmlns:xlink="http://www.w3.org/1999/xlink">
    <g stroke="none" stroke-width="1" fill="none" fill-rule="evenodd">
        <g transform="translate(-22.000000, -1709.000000)" fill-rule="nonzero">
            <g transform="translate(23.000000, 1710.000000)">
                <path d="M23.9008264,6.59412405 C23.8677686,6.56147987 23.8677686,6.52883569 23.8347107,6.49619151 L18.1487603,0.195865071 C18.1157025,0.163220892 18.0495868,0.130576714 18.0165289,0.0979325354 C17.9834711,0.0979325354 17.9834711,0.0652883569 17.9504132,0.0652883569 C17.8842975,0.0326441785 17.785124,0 17.6859504,0 L3.73553719,0 C1.68595041,0 0,1.6648531 0,3.68879217 L0,26.3112078 C0,28.3351469 1.68595041,30 3.73553719,30 L20.2644628,30 C22.3140496,30 24,28.3351469 24,26.3112078 L24,6.88792165 C24,6.8226333 23.9338843,6.62676823 23.9008264,6.59412405 Z" id="Path" stroke="#060606"></path>
                <polygon id="Path" stroke="#000000" stroke-linejoin="round" points="17.3140496 3.21980413 20.9834711 7.30032644 17.3140496 7.30032644"></polygon>
                <path d="M4.51675846,8.69230769 L10.192919,8.69230769 C10.5328088,8.69230769 10.8387097,8.36842105 10.8387097,7.92307692 C10.8387097,7.47773279 10.5667978,7.15384615 10.192919,7.15384615 L4.51675846,7.15384615 C4.17686861,7.15384615 3.87096774,7.47773279 3.87096774,7.92307692 C3.87096774,8.36842105 4.17686861,8.69230769 4.51675846,8.69230769 Z" id="Path" fill="#000000"></path>
                <path d="M10.192919,23.3076923 L4.51675846,23.3076923 C4.17686861,23.3076923 3.87096774,23.6315789 3.87096774,24.0769231 C3.87096774,24.4817814 4.14287962,24.8461538 4.51675846,24.8461538 L10.192919,24.8461538 C10.5328088,24.8461538 10.8387097,24.5222672 10.8387097,24.0769231 C10.8387097,23.6720648 10.5328088,23.3076923 10.192919,23.3076923 Z" id="Path" fill="#000000"></path>
                <path d="M3.87096774,11.7692308 C3.87096774,12.1740891 4.13969608,12.5384615 4.50919755,12.5384615 L19.4908025,12.5384615 C19.8267129,12.5384615 20.1290323,12.2145749 20.1290323,11.7692308 C20.1290323,11.3643725 19.8603039,11 19.4908025,11 L4.50919755,11 C4.17328712,11 3.87096774,11.3238866 3.87096774,11.7692308 Z" id="Path" fill="#000000"></path>
                <path d="M19.4908025,14.0769231 L4.50919755,14.0769231 C4.17328712,14.0769231 3.87096774,14.4008097 3.87096774,14.8461538 C3.87096774,15.2510121 4.13969608,15.6153846 4.50919755,15.6153846 L19.4908025,15.6153846 C19.8267129,15.6153846 20.1290323,15.291498 20.1290323,14.8461538 C20.1290323,14.4008097 19.8603039,14.0769231 19.4908025,14.0769231 Z" id="Path" fill="#000000"></path>
                <path d="M19.4908025,17.1538462 L4.50919755,17.1538462 C4.17328712,17.1538462 3.87096774,17.4777328 3.87096774,17.9230769 C3.87096774,18.3279352 4.13969608,18.6923077 4.50919755,18.6923077 L19.4908025,18.6923077 C19.8267129,18.6923077 20.1290323,18.3684211 20.1290323,17.9230769 C20.1290323,17.4777328 19.8603039,17.1538462 19.4908025,17.1538462 Z" id="Path" fill="#000000"></path>
                <path d="M19.4908025,20.2307692 L4.50919755,20.2307692 C4.17328712,20.2307692 3.87096774,20.5546559 3.87096774,21 C3.87096774,21.4048583 4.13969608,21.7692308 4.50919755,21.7692308 L19.4908025,21.7692308 C19.8267129,21.7692308 20.1290323,21.4453441 20.1290323,21 C20.1290323,20.5951417 19.8603039,20.2307692 19.4908025,20.2307692 Z" id="Path" fill="#000000"></path>
            </g>
        </g>
    </g>
</svg>