<?xml version="1.0" encoding="UTF-8"?>
<svg version="1.1" viewBox="0 0 25 24" xmlns="http://www.w3.org/2000/svg">
    <g fill="none" fill-rule="evenodd" id="Page-1" stroke="none" stroke-linecap="round"
        stroke-linejoin="round" stroke-width="1">
        <g id="CROSSWIRED-NON-REGISTERED" stroke="currentColor"
            transform="translate(-753.000000, -821.000000)">
            <g id="newspaper-read-man" transform="translate(754.000000, 822.000000)">
                <path
                    d="M16,5.777 C12.444,5.777 12.444,4.444 12,4 C11.556,4.444 11.556,5.777 8,5.777"
                    id="Shape"></path>
                <path
                    d="M17.0969258,7.75 L17.5629258,4.444 C17.5629258,4.444 18.0069258,0 11.7849258,0 C5.5629258,0 6.0069258,4.444 6.0069258,4.444 L6.4849258,7.729"
                    id="Shape"></path>
                <path
                    d="M9,7.44521351 C9,6.95421351 9.4,7.00121351 9.889,7.00121351 C10.378,7.00121351 10.778,6.95421351 10.778,7.44521351"
                    id="Shape"></path>
                <path
                    d="M13,7.44521351 C13,6.95421351 13.4,7.00121351 13.889,7.00121351 C14.378,7.00121351 14.778,6.95421351 14.778,7.44521351"
                    id="Shape"></path>
                <path
                    d="M2,14.6350688 L2,18.3640688 C2.0000928,18.8184527 2.30651797,19.2156553 2.746,19.3310688 L11.5,21.6350688 L11.5,10.6350688 L3.3,8.04606883 C2.99638845,7.95058726 2.66545743,8.00533294 2.40877038,8.19350429 C2.15208333,8.38167565 2.00029888,8.68079755 2,8.99906883 L2,10.6350688"
                    id="Shape"></path>
                <path
                    d="M12,10.6350688 L20.2,8.04606883 C20.5036115,7.95058726 20.8345426,8.00533294 21.0912296,8.19350429 C21.3479167,8.38167565 21.4997011,8.68079755 21.5,8.99906883 L21.5,10.6350688"
                    id="Shape"></path>
                <path
                    d="M21.5,15 L21.5,18.729 C21.4999072,19.1833839 21.193482,19.5805865 20.754,19.696 L12,22"
                    id="Shape"></path>
                <path
                    d="M0,13 C0,14.5 1.4,15 2.5,15 C2.77614237,15 3,14.7761424 3,14.5 L3,11.5 C3,11.2238576 2.77614237,11 2.5,11 C1.4,11 0,11.5 0,13 Z"
                    id="Shape"></path>
                <path
                    d="M23,13 C23,14.5 21.605,15 20.5,15 C20.2238576,15 20,14.7761424 20,14.5 L20,11.5 C20,11.2238576 20.2238576,11 20.5,11 C21.605,11 23,11.5 23,13 Z"
                    id="Shape"></path>
            </g>
        </g>
    </g>
</svg>
