<?xml version="1.0" encoding="UTF-8"?>
<svg width="238px" height="151.158398px" viewBox="0 0 238 151.158398" version="1.1" xmlns="http://www.w3.org/2000/svg" xmlns:xlink="http://www.w3.org/1999/xlink">
    <title>CF9B3BD2-DE3E-488B-879F-54548057634C@2x</title>
    <g id="Iteration-2---July-2023" stroke="none" stroke-width="1" fill="none" fill-rule="evenodd">
        <g id="Mailing-list-admin-empty" transform="translate(-665, -354)">
            <g id="Group-18" transform="translate(624, 354)">
                <g id="Group-11" transform="translate(41, 0)">
                    <path d="M0,150.268877 C4.74408994,143.152715 6.22661805,136.036553 4.44758432,128.92039 C1.77903373,118.246146 14.2322698,108.461423 23.1274385,109.350943 C32.0226071,110.240464 51.5919781,120.914707 54.2605287,115.577585 C56.9290793,110.240464 50.7024613,97.7871792 52.481495,91.5605371 C54.2605287,85.3338949 61.3766636,65.7644481 83.6145852,68.433009 C94.2887876,70.2120496 96.0678213,81.7758137 106.742024,79.1072527 C117.416226,76.4386918 120.974294,41.7473997 137.875114,32.8521966 C154.775934,23.9569935 185.019508,18.6198717 214.373564,40.8578794 C233.942935,55.6832179 241.355576,92.4500574 236.611486,151.158398 L0,150.268877 Z" id="Path-2-Copy" fill="#F7F8F9"></path>
                    <g id="Group-6" transform="translate(63, 0)" fill-rule="nonzero">
                        <g id="Group-2" transform="translate(0, 20.9924)">
                            <path d="M9.07692308,0 L108.923077,0 C113.935773,0 118,4.06422748 118,9.07692308 L118,93.0384615 C118,98.0511571 113.935773,102.115385 108.923077,102.115385 L9.07692308,102.115385 C4.06422748,102.115385 0,98.0511571 0,93.0384615 L0,9.07692308 C0,4.06422748 4.06422748,0 9.07692308,0 Z" id="Path" fill="#BDE2EB"></path>
                            <path d="M40.8461538,68.6442308 L77.1538462,68.6442308 C82.1665418,68.6442308 86.2307692,72.7084582 86.2307692,77.7211538 C86.2307692,82.7338494 82.1665418,86.7980769 77.1538462,86.7980769 L40.8461538,86.7980769 C35.8334583,86.7980769 31.7692308,82.7338494 31.7692308,77.7211538 C31.7692308,72.7084582 35.8334583,68.6442308 40.8461538,68.6442308 Z" id="Path" fill="#339BB2"></path>
                            <g id="Group-3" transform="translate(16.4519, 23.8269)" fill="#FFFFFF">
                                <polygon id="Path" points="45.3846154 0 85.0961538 0 85.0961538 14.75 45.3846154 14.75"></polygon>
                                <polygon id="Path" points="0 0 39.7115385 0 39.7115385 14.75 0 14.75"></polygon>
                                <polygon id="Path" points="0 20.4230769 85.0961538 20.4230769 85.0961538 35.1730769 0 35.1730769"></polygon>
                            </g>
                        </g>
                        <path d="M68.8964319,33.1898438 C65.8788649,34.5477344 63.263312,35 59.6922235,35 C51.3434574,35 44,29.0155469 44,19.1597656 C44,8.9009375 51.4435507,0 62.8109778,0 C71.6629452,0 78,6.08507813 78,14.5332031 C78,21.875 73.8759371,26.5015625 68.4440977,26.5015625 C66.0801454,26.5015625 64.3703549,25.2946094 64.1187542,22.6291406 L64.018114,22.6291406 C62.4592838,25.1939844 60.1959718,26.5015625 57.5300988,26.5015625 C54.2609311,26.5015625 51.8969789,24.0876562 51.8969789,19.9636719 C51.8969789,13.8288281 56.4236028,8.246875 63.665873,8.246875 C65.8788649,8.246875 68.3932306,8.8003125 69.6512339,9.50414063 L68.1427239,18.8075781 C67.6400695,21.7738281 67.9917635,23.1322656 69.4001802,23.1820313 C71.5628519,23.2323438 74.2784981,20.46625 74.2784981,14.6835938 C74.2784981,8.14625 70.0537949,3.066875 62.2574563,3.066875 C54.5628519,3.066875 47.8226891,9.10164063 47.8226891,18.7064063 C47.8226891,27.1042188 53.2042084,31.8817188 60.6986262,31.8817188 C63.2638589,31.8817188 65.9800521,31.3288281 67.9912165,30.2722656 L68.8964319,33.1898438 Z M65,13.196183 C64.5702817,13.0980915 64.0331338,13 63.3354255,13 C59.792585,13 57,16.1863738 57,19.9607634 C57,21.8234353 57.9131514,23 59.6845716,23 C61.670851,23 63.7651438,20.6959164 64.247993,17.8528628 L65,13.196183 Z" id="Shape" fill="#339BB2"></path>
                    </g>
                </g>
            </g>
        </g>
    </g>
</svg>