<?xml version="1.0" encoding="UTF-8"?>
<svg viewBox="0 0 20 20" version="1.1" xmlns="http://www.w3.org/2000/svg" xmlns:xlink="http://www.w3.org/1999/xlink">
    <title>AC72FF01-6B7C-46A3-AF09-6494C8ED4D83</title>
    <g id="Iteration-2---July-2023" stroke="none" stroke-width="1" fill="none" fill-rule="evenodd" stroke-linecap="round" stroke-linejoin="round">
        <g id="Mailing-list-admin-" transform="translate(-91, -383)" stroke="#656565">
            <g id="Menu/Newsletters" transform="translate(91, 303)">
                <g id="setting" transform="translate(0, 80)">
                    <path d="M17.1773913,11.3043478 L19.1304348,11.3043478 C19.6106824,11.3043478 20,10.9150302 20,10.4347826 L20,9.56521739 C20,9.08496978 19.6106824,8.69565217 19.1304348,8.69565217 L17.1765217,8.69565217 C16.9992327,7.81425787 16.7068742,6.9599864 16.3069565,6.15478261 L17.6886957,4.77391304 C18.0281582,4.43434796 18.0281582,3.88391291 17.6886957,3.54434783 L16.4556522,2.31478261 C16.1160871,1.97532005 15.565652,1.97532005 15.226087,2.31478261 L13.8434783,3.69652174 C13.0389442,3.2964587 12.1852276,3.00409002 11.3043478,2.82695652 L11.3043478,0.869565217 C11.3043478,0.389317609 10.9150302,0 10.4347826,0 L9.56521739,0 C9.08496978,0 8.69565217,0.389317609 8.69565217,0.869565217 L8.69565217,2.82521739 C7.81449537,3.00235561 6.96049196,3.2947224 6.15565217,3.69478261 L4.77304348,2.31478261 C4.43347839,1.97532005 3.88304335,1.97532005 3.54347826,2.31478261 L2.31304348,3.54521739 C1.97358092,3.88478248 1.97358092,4.43521752 2.31304348,4.77478261 L3.69565217,6.15652174 C3.29600103,6.96153228 3.00365306,7.81548071 2.82608696,8.69652174 L0.869565217,8.69652174 C0.389317609,8.69652174 0,9.08583935 0,9.56608696 L0,10.4356522 C0,10.9158998 0.389317609,11.3052174 0.869565217,11.3052174 L2.8226087,11.3052174 C3.00017479,12.1862584 3.29252277,13.0402068 3.69217391,13.8452174 L2.30956522,15.2278261 C1.97010266,15.5673912 1.97010266,16.1178262 2.30956522,16.4573913 L3.54347826,17.6869565 C3.88304335,18.0264191 4.43347839,18.0264191 4.77304348,17.6869565 L6.15478261,16.3043478 C6.9599864,16.7042655 7.81425787,16.996624 8.69565217,17.173913 L8.69565217,19.1304348 C8.69565217,19.6106824 9.08496978,20 9.56521739,20 L10.4347826,20 C10.9150302,20 11.3043478,19.6106824 11.3043478,19.1304348 L11.3043478,17.1782609 C12.1851459,17.0008254 13.0388236,16.70847 13.8434783,16.3086957 L15.2269565,17.6904348 C15.5665216,18.0298973 16.1169567,18.0298973 16.4565217,17.6904348 L17.686087,16.4608696 C18.0255495,16.1213045 18.0255495,15.5708694 17.686087,15.2313043 L16.3043478,13.8486957 C16.7055576,13.0424837 16.9990848,12.1870447 17.1773913,11.3043478 Z" id="Shape"></path>
                    <circle id="Oval" cx="10" cy="10" r="3.91304348"></circle>
                </g>
            </g>
        </g>
    </g>
</svg>
