<?xml version="1.0" encoding="UTF-8"?>
<svg viewBox="0 0 238 164.157875" version="1.1" xmlns="http://www.w3.org/2000/svg" xmlns:xlink="http://www.w3.org/1999/xlink">
    <g id="Iteration-2---July-2023" stroke="none" stroke-width="1" fill="none" fill-rule="evenodd">
        <g id="Newsletter-Admin" transform="translate(-647, -373)">
            <g id="Group-19" transform="translate(567, 373)">
                <g id="Group-11" transform="translate(80, 0)">
                    <path d="M0,163.268354 C4.74408994,156.152192 6.22661805,149.036029 4.44758432,141.919867 C1.77903373,131.245623 14.2322698,121.4609 23.1274385,122.35042 C32.0226071,123.23994 51.5919781,133.914184 54.2605287,128.577062 C56.9290793,123.23994 50.7024613,110.786656 52.481495,104.560014 C54.2605287,98.3333718 61.3766636,78.763925 83.6145852,81.4324859 C94.2887876,83.2115265 96.0678213,94.7752905 106.742024,92.1067296 C117.416226,89.4381687 120.974294,54.7468766 137.875114,45.8516735 C154.775934,36.9564704 185.019508,31.6193486 214.373564,53.8573563 C233.942935,68.6826948 241.355576,105.449534 236.611486,164.157875 L0,163.268354 Z" id="Path-2-Copy" fill="#F7F8F9"></path>
                    <g id="Group-6" transform="translate(26, 0)">
                        <g id="Group-14" transform="translate(0, 33.9995)">
                            <path d="M22,19.2891894 L22,14.2254029 C22.6407767,8.394376 26.0048544,6.09265485 32.092233,7.32023946 C34.0145631,12.384026 32.5728155,15.6064356 30.6504854,16.527124 C29.368932,17.1409163 28.7281553,17.7547086 28.7281553,18.368501 C30.4368165,21.2036473 30.4368165,22.7381281 28.7281553,22.9719432 C27.0194942,23.2057584 24.7767757,21.9781738 22,19.2891894 Z" id="Path-16" fill="#EACDB0"></path>
                            <path d="M35,26.925636 C43.2199313,38.8003914 49.0687285,44.0958904 52.5463918,42.8121331 C53.4948454,42.3307241 54.443299,42.3307241 56.814433,39.4422701 C58.395189,37.5166341 58.395189,34.146771 56.814433,29.332681 C54.2852234,33.5048924 52.5463918,35.4305284 51.5979381,35.109589 C50.6494845,34.7886497 46.0652921,31.4187867 37.8453608,25 L35,26.925636 Z" id="Path-3-Copy" fill="#339BB2" transform="translate(46.5, 34) scale(-1, 1) translate(-46.5, -34)"></path>
                            <path d="M26.6666667,120 L22,62 L36,84.6341463 C34.7555556,108.211382 33.2,120 31.3333333,120 C29.4666667,120 27.9111111,120 26.6666667,120 Z" id="Path-4-Copy" fill="#898989" transform="translate(29, 91) scale(-1, 1) translate(-29, -91)"></path>
                            <path d="M21.3611111,60 C21.0462963,72.8760331 23.25,81.6694215 27.9722222,86.3801653 C32.6944444,91.0909091 35.3703704,100.669421 36,115.115702 L32.2222222,117 L2,62.3553719 L21.3611111,60 Z" id="Path-6-Copy" fill="#898989" transform="translate(19, 88.5) scale(-1, 1) translate(-19, -88.5)"></path>
                            <path d="M26,126 C28.2528736,123.687518 30.8275862,122.200923 33.7241379,121.540214 C38.0689655,120.54915 38.5517241,121.044682 39.5172414,122.035746 C39.5172414,123.687518 39.6781609,125.008936 40,126 L26,126 Z" id="Path-9-Copy" fill="#292949" transform="translate(33, 123.5) scale(-1, 1) translate(-33, -123.5)"></path>
                            <path d="M0,125.84375 C0,124.59375 0.789473684,123.34375 2.36842105,122.09375 C3.94736842,120.84375 4.26315789,119.4375 3.31578947,117.875 L6.63157895,116 L9,118.8125 C6.47368421,122.5625 5.21052632,124.75 5.21052632,125.375 C5.21052632,126 3.47368421,126.15625 0,125.84375 Z" id="Path-10-Copy" fill="#292949" transform="translate(4.5, 121) scale(-1, 1) translate(-4.5, -121)"></path>
                            <path d="M8.45711798,62.9969715 C6.87244232,37.7355138 9.40792338,23.683828 16.0635612,20.841914 C19.2329125,21.4734504 21.7683936,20.5261458 23.6700044,18 C32.2272529,23.3680598 36.9812799,33.4726428 37.9320853,48.3137492 C38.2490205,49.8925903 37.4566826,54.4712296 35.5550718,62.0496669 L32.2272529,60.6287099 C33.8119286,55.5764183 33.9703962,51.4714315 32.7026556,48.3137492 C31.4349151,45.156067 30.3256421,40.5774278 29.3748367,34.5778316 C29.6917719,48.4716334 29.6917719,57.1552594 29.3748367,60.6287099 C29.0579016,64.1021603 22.0853287,64.8915809 8.45711798,62.9969715 Z" id="Path-2-Copy-2" fill="#339BB2" transform="translate(23, 41) scale(-1, 1) translate(-23, -41)"></path>
                            <path d="M21.7067834,15 C18.1123268,9.24242424 17.1320204,4.92424242 18.7658643,2.04545455 C20.3997082,-0.833333333 24.3209336,-0.673400673 30.5295405,2.52525253 L32,7.32323232 C29.2095594,7.26396316 26.9221779,7.74376114 25.1378556,8.76262626 C23.3535333,9.78149138 22.2098425,11.860616 21.7067834,15 Z" id="Path-21" fill="#292949"></path>
                            <path d="M10,62.32 C10.3137255,63.7866667 11.254902,64.6666667 12.8235294,64.96 C14.3921569,65.2533333 14.3921569,63.9333333 12.8235294,61 L10,62.32 Z" id="Path-24" fill="#EACDB0"></path>
                            <path d="M55.0720721,25.2201412 C58.0990991,22.5963224 59.9489489,21.5759485 60.6216216,22.1590193 C61.6306306,23.0336256 60.6216216,27.4066568 57.5945946,26.9693536 C55.5765766,26.6778182 54.7357357,26.0947474 55.0720721,25.2201412 Z" id="Path-25" fill="#EACDB0"></path>
                        </g>
                        <path d="M60.8964319,155.189321 C57.8788649,156.547211 55.263312,156.999477 51.6922235,156.999477 C43.3434574,156.999477 36,151.015024 36,141.159243 C36,130.900414 43.4435507,121.999477 54.8109778,121.999477 C63.6629452,121.999477 70,128.084555 70,136.53268 C70,143.874477 65.8759371,148.501039 60.4440977,148.501039 C58.0801454,148.501039 56.3703549,147.294086 56.1187542,144.628618 L56.018114,144.628618 C54.4592838,147.193461 52.1959718,148.501039 49.5300988,148.501039 C46.2609311,148.501039 43.8969789,146.087133 43.8969789,141.963149 C43.8969789,135.828305 48.4236028,130.246352 55.665873,130.246352 C57.8788649,130.246352 60.3932306,130.799789 61.6512339,131.503618 L60.1427239,140.807055 C59.6400695,143.773305 59.9917635,145.131743 61.4001802,145.181508 C63.5628519,145.231821 66.2784981,142.465727 66.2784981,136.683071 C66.2784981,130.145727 62.0537949,125.066352 54.2574563,125.066352 C46.5628519,125.066352 39.8226891,131.101118 39.8226891,140.705883 C39.8226891,149.103696 45.2042084,153.881196 52.6986262,153.881196 C55.2638589,153.881196 57.9800521,153.328305 59.9912165,152.271743 L60.8964319,155.189321 Z M57,135.19566 C56.5702817,135.097568 56.0331338,134.999477 55.3354255,134.999477 C51.792585,134.999477 49,138.185851 49,141.96024 C49,143.822912 49.9131514,144.999477 51.6845716,144.999477 C53.670851,144.999477 55.7651438,142.695393 56.247993,139.85234 L57,135.19566 Z" id="Shape" fill="#339BB2" fill-rule="nonzero"></path>
                        <g id="Group-2" transform="translate(69, 0)" fill-rule="nonzero">
                            <path d="M9.07692308,21.9919002 L108.923077,21.9919002 C113.935773,21.9919002 118,26.0561277 118,31.0688233 L118,115.030362 C118,120.043057 113.935773,124.107285 108.923077,124.107285 L9.07692308,124.107285 C4.06422748,124.107285 0,120.043057 0,115.030362 L0,31.0688233 C0,26.0561277 4.06422748,21.9919002 9.07692308,21.9919002 Z" id="Path" fill="#BDE2EB"></path>
                            <path d="M40.8461538,90.6361309 L77.1538462,90.6361309 C82.1665418,90.6361309 86.2307692,94.7003584 86.2307692,99.713054 C86.2307692,104.72575 82.1665418,108.789977 77.1538462,108.789977 L40.8461538,108.789977 C35.8334583,108.789977 31.7692308,104.72575 31.7692308,99.713054 C31.7692308,94.7003584 35.8334583,90.6361309 40.8461538,90.6361309 Z" id="Path" fill="#339BB2"></path>
                            <g id="Group-3" transform="translate(16.4519, 45.8188)" fill="#FFFFFF">
                                <polygon id="Path" points="45.3846154 0 85.0961538 0 85.0961538 14.75 45.3846154 14.75"></polygon>
                                <polygon id="Path" points="0 0 39.7115385 0 39.7115385 14.75 0 14.75"></polygon>
                                <polygon id="Path" points="0 20.4230769 85.0961538 20.4230769 85.0961538 35.1730769 0 35.1730769"></polygon>
                            </g>
                            <g id="email-copy" transform="translate(55.8456, 18.3041) rotate(-10) translate(-55.8456, -18.3041)translate(34.4146, 3.4965)">
                                <path d="M40.0703366,29.6151464 L2.84076934,29.6151464 C1.37286069,29.6151464 0.181514531,28.4136919 0.181514531,26.9333283 L0.181514531,2.79696463 C0.181514531,1.31660099 1.37286069,0.115146447 2.84076934,0.115146447 L40.0703366,0.115146447 C41.5382453,0.115146447 42.7295915,1.31660099 42.7295915,2.79696463 L42.7295915,26.9333283 C42.7295915,28.4136919 41.5382453,29.6151464 40.0703366,29.6151464 Z" id="Path" fill="#F1C241"></path>
                                <path d="M40.2025952,29.1586759 L2.9730279,29.1586759 C1.48118595,29.1586759 0.313773089,28.0092232 0.313773089,26.5403327 C0.313773089,26.1240161 0.515876455,25.7312646 0.85626107,25.4851404 L20.8006721,12.3934244 C21.0346866,12.2232321 21.3112491,12.1394451 21.5878116,12.1394451 C21.8643741,12.1394451 22.1409366,12.2232321 22.374951,12.3934244 L42.319362,25.4851404 C42.6597466,25.7312646 42.86185,26.1240161 42.86185,26.5403327 C42.86185,28.0092232 41.6944372,29.1586759 40.2025952,29.1586759 Z" id="Path" fill="#F4D06C"></path>
                                <path d="M39.8888221,9.09494702e-13 L2.65925481,9.09494702e-13 C1.16741286,9.09494702e-13 -1.13686838e-13,1.19391125 -1.13686838e-13,2.71961559 C-1.13686838e-13,3.15203447 0.202103365,3.55997681 0.542487981,3.81562068 L20.4975361,18.4661899 C20.9602464,18.8061418 21.5851713,18.8061418 22.0478816,18.4661899 L42.0029297,3.81562068 C42.3459736,3.55997681 42.5480769,3.15203447 42.5480769,2.71961559 C42.5480769,1.19391125 41.3806641,9.09494702e-13 39.8888221,9.09494702e-13 Z" id="Path" fill="#F8DF9B"></path>
                            </g>
                        </g>
                    </g>
                </g>
            </g>
        </g>
    </g>
</svg>
