<?xml version="1.0" encoding="UTF-8"?>
<svg viewBox="0 0 80 80" version="1.1" xmlns="http://www.w3.org/2000/svg">
    <title>Combined Shape</title>
    <g id="Notification-Iteration-2" stroke="none" stroke-width="1" fill="none" fill-rule="evenodd">
        <g id="Followers" transform="translate(-238.000000, -784.000000)" fill="#E3E3E3" fill-rule="nonzero">
            <path d="M305.352813,784 C312.326406,784 318,790.135469 318,797.676875 L318,832.216719 C318,839.758125 312.326406,845.893594 305.352656,845.893594 L288.928125,845.893594 L280.087812,862.737969 C279.680469,863.513906 278.876562,864 278,864 C277.123438,864 276.319531,863.513906 275.912188,862.737969 L267.071875,845.893594 L250.647344,845.893594 C243.673594,845.893594 238,839.758281 238,832.216719 L238,797.676875 C238,790.135469 243.673594,784 250.647344,784 L305.352813,784 Z M278.065625,794.78125 C273.119375,794.78125 269.095156,798.805156 269.095156,803.751094 C269.095156,806.220937 270.09875,808.460625 271.719375,810.084219 C266.23625,812.38375 262.375,817.806406 262.375,824.114219 C262.375,826.454219 264.278906,828.357813 266.619062,828.357813 L289.512187,828.357813 C291.852344,828.357813 293.75625,826.454062 293.75625,824.114063 C293.75625,817.806406 289.894844,812.38375 284.411875,810.084219 C286.0325,808.460469 287.036094,806.220781 287.036094,803.751094 C287.036094,798.805156 283.011875,794.78125 278.065625,794.78125 Z" id="Combined-Shape"></path>
        </g>
    </g>
</svg>