<?xml version="1.0" encoding="UTF-8"?>
<svg viewBox="0 0 109 80" version="1.1" xmlns="http://www.w3.org/2000/svg" xmlns:xlink="http://www.w3.org/1999/xlink">
    <title>Group 8</title>
    <g id="Course-Instance" stroke="none" stroke-width="1" fill="none" fill-rule="evenodd">
        <g id="Remove-Zoom-Account-Warning" transform="translate(-972.000000, -852.000000)" fill-rule="nonzero">
            <g id="Group-8" transform="translate(972.000000, 852.000000)">
                <path d="M62.006483,0 L11.993517,0 C5.39708266,0 0,5.36312849 0,11.9180633 L0,52.0819367 C0,58.6368715 5.39708266,64 11.993517,64 L62.006483,64 C68.6029173,64 74,58.6368715 74,52.0819367 L74,11.9180633 C74,5.24394786 68.6029173,0 62.006483,0 Z" id="Path" fill="#656565"></path>
                <path d="M100.311741,5.19528008 C99.6072874,5.31651837 98.902834,5.68023325 98.3157895,6.04394813 L80,16.9553945 L80,45.0826787 L98.4331984,55.9941251 C101.838057,58.0551761 106.064777,56.8427931 108.060729,53.3268826 C108.647773,52.235738 109,51.023355 109,49.6897338 L109,12.2271011 C109,7.74128424 104.890688,4.10413543 100.311741,5.19528008 Z" id="Path" fill="#656565"></path>
                <ellipse id="Oval" fill="#339BB2" cx="65.5" cy="56" rx="24.5" ry="24"></ellipse>
                <path d="M57.0211989,65.0979233 L54.3790298,68.5629295 C53.8567533,69.24829 54.0148656,70.2075848 54.7326384,70.7061241 C55.018736,70.9044903 55.3499142,71 55.6771342,71 C56.1743414,71 56.6638519,70.7810625 56.9783173,70.3690066 L59.6413775,66.876502 C61.3898491,67.7663161 63.3839557,68.2726222 65.5005498,68.2726222 C72.3928399,68.2726222 78,62.9200933 78,56.3408427 C78,52.9866697 76.5407046,49.9538709 74.1993667,47.7840175 L77.5142279,43.436964 C78.0365044,42.7516035 77.8781721,41.7925186 77.1608392,41.2937693 C76.4410872,40.7948101 75.4367771,40.9472057 74.91582,41.6313068 L71.6255882,45.9462439 C69.8133439,44.9691067 67.7246778,44.4090633 65.49989,44.4090633 C58.60738,44.4090633 53,49.7615921 53,56.3406328 C53,59.7993417 54.5503365,62.9169447 57.0211989,65.0979233 Z M74.7854158,56.3406328 C74.7854158,61.2282081 70.6203985,65.2043484 65.4996701,65.2043484 C64.0907332,65.2043484 62.759423,64.8943093 61.5622554,64.3565165 L72.278049,50.3027435 C73.8286054,51.8871542 74.7854158,54.0072586 74.7854158,56.3406328 Z M65.49989,47.4773371 C67.0174605,47.4773371 68.4472886,47.8337665 69.7130668,48.4525851 L58.9282227,62.59662 C57.2518802,60.9922677 56.2137045,58.7802222 56.2137045,56.3410526 C56.2143643,51.4534774 60.3796015,47.4773371 65.49989,47.4773371 Z" id="Shape" fill="#FFFFFF"></path>
            </g>
        </g>
    </g>
</svg>
