<?xml version="1.0" encoding="UTF-8"?>
<svg viewBox="0 0 47 46" version="1.1" xmlns="http://www.w3.org/2000/svg" xmlns:xlink="http://www.w3.org/1999/xlink">
    <g stroke="none" stroke-width="1" fill="none" fill-rule="evenodd">
        <g transform="translate(-320.000000, -1224.000000)" fill-rule="nonzero">
            <g transform="translate(65.000000, 1150.500000)">
                <g transform="translate(30.000000, 21.000000)">
                    <g transform="translate(225.000000, 53.000000)">
                        <path d="M18.864,33.739 C18.7467245,33.739 18.6342022,33.6926495 18.551,33.61 L16.051,31.11 C15.8788772,30.936828 15.8788772,30.657172 16.051,30.484 L21.142,25.393 C21.2325464,25.3034437 21.3568642,25.2565519 21.484,25.264 C21.6110656,25.2723884 21.7283765,25.3350514 21.806,25.436 C22.5002314,26.3449657 23.3127469,27.157145 24.222,27.851 C24.322848,27.9285573 24.3853868,28.0458083 24.3936207,28.1727637 C24.4018546,28.299719 24.3549851,28.4240659 24.265,28.514 L19.174,33.605 C19.0931977,33.6899774 18.9812594,33.7383636 18.864,33.739 Z M16.989,30.798 L18.864,32.672 L23.293,28.243 C22.6091603,27.6801159 21.9812488,27.0525393 21.418,26.369 L16.989,30.798 Z" id="Shape" fill="#263238"></path>
                        <path d="M17.344,2.65 L13.81,2.65 C13.6472543,2.6577476 13.4934432,2.57533368 13.4097512,2.43554158 C13.3260591,2.29574949 13.3260591,2.12125051 13.4097512,1.98145842 C13.4934432,1.84166632 13.6472543,1.7592524 13.81,1.767 L17.344,1.767 C17.5796717,1.77821928 17.7649822,1.97256135 17.7649822,2.2085 C17.7649822,2.44443865 17.5796717,2.63878072 17.344,2.65 Z" id="Path" fill="#263238"></path>
                        <path d="M15.577,4.417 C15.3328901,4.417 15.135,4.21910986 15.135,3.975 L15.135,0.442 C15.1462193,0.206328251 15.3405614,0.0210178496 15.5765,0.0210178496 C15.8124386,0.0210178496 16.0067807,0.206328251 16.018,0.442 L16.018,3.976 C16.0174501,4.21932944 15.8203294,4.4164501 15.577,4.417 L15.577,4.417 Z" id="Path-2" fill="#263238"></path>
                        <path d="M12.043,7.068 L8.509,7.068 C8.34625429,7.0757476 8.19244325,6.99333368 8.10875119,6.85354158 C8.02505914,6.71374949 8.02505914,6.53925051 8.10875119,6.39945842 C8.19244325,6.25966632 8.34625429,6.1772524 8.509,6.185 L12.043,6.185 C12.2057457,6.1772524 12.3595568,6.25966632 12.4432488,6.39945842 C12.5269409,6.53925051 12.5269409,6.71374949 12.4432488,6.85354158 C12.3595568,6.99333368 12.2057457,7.0757476 12.043,7.068 Z" id="Path-3" fill="#263238"></path>
                        <path d="M10.276,8.835 C10.0318901,8.835 9.834,8.63710986 9.834,8.393 L9.834,4.859 C9.8262524,4.69625429 9.90866632,4.54244325 10.0484584,4.45875119 C10.1882505,4.37505914 10.3627495,4.37505914 10.5025416,4.45875119 C10.6423337,4.54244325 10.7247476,4.69625429 10.717,4.859 L10.717,8.393 C10.7170006,8.63671987 10.5197192,8.8344486 10.276,8.835 L10.276,8.835 Z" id="Path-4" fill="#263238"></path>
                        <path d="M16.052,30.176 L19.176,33.3 C19.3419165,33.4654742 19.4351647,33.6901711 19.4351647,33.9245 C19.4351647,34.1588289 19.3419165,34.3835258 19.176,34.549 L10.43,43.295 C10.2645258,43.4609165 10.0398289,43.5541647 9.8055,43.5541647 C9.57117112,43.5541647 9.34647425,43.4609165 9.181,43.295 L6.058,40.176 C5.89208346,40.0105258 5.79883525,39.7858289 5.79883525,39.5515 C5.79883525,39.3171711 5.89208346,39.0924742 6.058,38.927 L14.803,30.176 C14.9684742,30.0100835 15.1931711,29.9168353 15.4275,29.9168353 C15.6618289,29.9168353 15.8865258,30.0100835 16.052,30.176 Z" id="Path-5" fill="#FF5252"></path>
                        <path d="M9.805,44.0020013 C9.45348367,44.0024853 9.11626995,43.8628493 8.868,43.614 L5.744,40.488 C5.22699569,39.9703078 5.22699569,39.1316922 5.744,38.614 L14.49,29.868 C15.0076922,29.3509957 15.8463078,29.3509957 16.364,29.868 L19.488,32.991 C20.0051191,33.5090351 20.0051191,34.3479649 19.488,34.866 L10.742,43.612 C10.4939961,43.8614894 10.1567824,44.0018451 9.805,44.0020013 Z M15.428,30.366 C15.3106377,30.3655352 15.1979535,30.4119769 15.115,30.495 L6.37,39.238 C6.19744319,39.4106023 6.19744319,39.6903977 6.37,39.863 L9.493,42.987 C9.66560231,43.1595568 9.94539769,43.1595568 10.118,42.987 L18.864,34.241 C19.0366715,34.0680547 19.0366715,33.7879453 18.864,33.615 L15.74,30.492 L15.74,30.492 C15.6571049,30.4095022 15.5449507,30.3631307 15.428,30.363 L15.428,30.366 Z" id="Shape-2" fill="#263238"></path>
                        <path d="M31.983,32.125 C24.4200126,32.125 18.289,25.9939874 18.289,18.431 C18.289,10.8680126 24.4200126,4.737 31.983,4.737 C39.5459874,4.737 45.677,10.8680126 45.677,18.431 C45.6681832,25.9903323 39.5423323,32.1161832 31.983,32.125 Z M31.983,5.625 C24.9082324,5.625 19.173,11.3602324 19.173,18.435 C19.173,25.5097676 24.9082324,31.245 31.983,31.245 C39.0577676,31.245 44.793,25.5097676 44.793,18.435 C44.7869384,11.3620969 39.0559008,5.62926981 31.983,5.621 L31.983,5.625 Z" id="Shape-3" fill="#263238"></path>
                        <path d="M42.584,18.085 C42.584,23.9392183 37.8382183,28.685 31.984,28.685 C26.1297817,28.685 21.384,23.9392183 21.384,18.085 C21.384,12.2307817 26.1297817,7.485 31.984,7.485 C37.8382183,7.485 42.584,12.2307817 42.584,18.085 L42.584,18.085 Z" id="Path-6" fill="#40C4FF"></path>
                        <path d="M31.983,29.134 C25.8838435,29.134 20.9395002,24.1896565 20.9395002,18.0905 C20.9395002,11.9913435 25.8838435,7.047 31.983,7.047 L31.983,7.047 C38.0821566,7.047 43.0264998,11.9913434 43.0264998,18.0905 C43.0264998,24.1896566 38.0821566,29.134 31.983,29.134 Z M31.983,7.934 C26.3719171,7.93455227 21.8236318,12.4835837 21.824,18.0946666 C21.8243682,23.7057495 26.3732504,28.2539999 31.9843333,28.2539999 C37.5954162,28.2539999 42.144,23.7050829 42.144,18.094 C42.161987,15.3937529 41.0972008,12.7989009 39.1877014,10.8895895 C37.2782021,8.98027802 34.6832454,7.9157472 31.983,7.934 L31.983,7.934 Z" id="Shape-4" fill="#263238"></path>
                        <path d="M39.934,18.58 C39.6898901,18.58 39.492,18.3821099 39.492,18.138 C39.4875907,13.9921693 36.1278307,10.6324093 31.982,10.628 C31.8192543,10.6357476 31.6654432,10.5533337 31.5817512,10.4135416 C31.4980591,10.2737495 31.4980591,10.0992505 31.5817512,9.95945842 C31.6654432,9.81966632 31.8192543,9.7372524 31.982,9.745 C36.6157262,9.74885983 40.3711402,13.5042738 40.3750011,18.138 C40.3752656,18.2551336 40.3289205,18.3675608 40.2461882,18.4504807 C40.1634558,18.5334007 40.0511339,18.58 39.934,18.58 L39.934,18.58 Z" id="Path-7" fill="#263238"></path>
                        <path d="M45.616,36.319 L43.849,36.319 C43.6133283,36.3077807 43.4280178,36.1134386 43.4280178,35.8775 C43.4280178,35.6415614 43.6133283,35.4472193 43.849,35.436 L45.616,35.436 C45.7787457,35.4282524 45.9325568,35.5106663 46.0162488,35.6504584 C46.0999409,35.7902505 46.0999409,35.9647495 46.0162488,36.1045416 C45.9325568,36.2443337 45.7787457,36.3267476 45.616,36.319 L45.616,36.319 Z" id="Path-8" fill="#263238"></path>
                        <path d="M42.081,36.319 L32.363,36.319 C32.1273283,36.3077807 31.9420178,36.1134386 31.9420178,35.8775 C31.9420178,35.6415614 32.1273283,35.4472193 32.363,35.436 L42.081,35.436 C42.2437457,35.4282524 42.3975568,35.5106663 42.4812488,35.6504584 C42.5649409,35.7902505 42.5649409,35.9647495 42.4812488,36.1045416 C42.3975568,36.2443337 42.2437457,36.3267476 42.081,36.319 L42.081,36.319 Z" id="Path-9" fill="#263238"></path>
                        <path d="M3.209,23.568 L1.442,23.568 C1.27925429,23.5757476 1.12544325,23.4933337 1.04175119,23.3535416 C0.958059137,23.2137495 0.958059137,23.0392505 1.04175119,22.8994584 C1.12544325,22.7596663 1.27925429,22.6772524 1.442,22.685 L3.209,22.685 C3.37174571,22.6772524 3.52555675,22.7596663 3.60924881,22.8994584 C3.69294086,23.0392505 3.69294086,23.2137495 3.60924881,23.3535416 C3.52555675,23.4933337 3.37174571,23.5757476 3.209,23.568 L3.209,23.568 Z" id="Path-10" fill="#263238"></path>
                        <path d="M14.694,23.568 L4.98,23.568 C4.81725429,23.5757476 4.66344325,23.4933337 4.57975119,23.3535416 C4.49605914,23.2137495 4.49605914,23.0392505 4.57975119,22.8994584 C4.66344325,22.7596663 4.81725429,22.6772524 4.98,22.685 L14.698,22.685 C14.8607457,22.6772524 15.0145568,22.7596663 15.0982488,22.8994584 C15.1819409,23.0392505 15.1819409,23.2137495 15.0982488,23.3535416 C15.0145568,23.4933337 14.8607457,23.5757476 14.698,23.568 L14.694,23.568 Z" id="Path-11" fill="#263238"></path>
                    </g>
                </g>
            </g>
        </g>
    </g>
</svg>
