<?xml version="1.0" encoding="UTF-8"?>
<svg viewBox="0 0 24 25" version="1.1" xmlns="http://www.w3.org/2000/svg">
    <title>Group 13</title>
    <g id="Org-Portal" stroke="none" stroke-width="1" fill="none" fill-rule="evenodd" stroke-linecap="round" stroke-linejoin="round">
        <g id="Leave-Request-Page-Admin" transform="translate(-501, -90)" stroke="currentColor">
            <g id="Group-13" transform="translate(502, 91)">
                <path d="M11.000008,15.808 L11.000008,22.5 C11.000008,22.7761424 11.2238656,23 11.500008,23 L19.500008,23 C19.7761504,23 20.000008,22.7761424 20.000008,22.5 L20.000008,15.808" id="Shape"></path>
                <path d="M9.00000801,17.5 L14.854008,12.547 C15.2268737,12.2314499 15.7731424,12.2314499 16.146008,12.547 L22.000008,17.5" id="Shape"></path>
                <path d="M17.000008,23 L14.000008,23 L14.000008,20 C14.000008,19.1715729 14.6715809,18.5 15.500008,18.5 C16.3284351,18.5 17.000008,19.1715729 17.000008,20 L17.000008,23 Z" id="Shape"></path>
                <path d="M8,23 L0.5,23 C0.223865636,23 0,22.7761424 0,22.5 L0,0.842 C-0.00099119848,0.665115506 0.091543787,0.500867111 0.24335014,0.41007089 C0.395156493,0.319274668 0.583638833,0.315445041 0.739008011,0.4 L10.739008,5.855 C10.9017234,5.94353291 11.0021575,6.11477109 11.0000418,6.3 L11.0000418,12" id="Shape"></path>
                <line x1="9.00000801" y1="4.909" x2="9.00000801" y2="0" id="Shape"></line>
                <line x1="8.01101487e-06" y1="6" x2="4.00000801" y2="6" id="Shape"></line>
                <line x1="8.01101487e-06" y1="9" x2="5.00000801" y2="9" id="Shape"></line>
                <line x1="8.01101487e-06" y1="12" x2="7.00000801" y2="12" id="Shape"></line>
                <path d="M4.00000801,23 L4.00000801,19.5 C4.00000801,19.2238576 4.22386564,19 4.50000801,19 L6.50000801,19 C6.77615039,19 7.00000801,19.2238576 7.00000801,19.5 L7.00000801,23" id="Shape"></path>
            </g>
        </g>
    </g>
</svg>
