<?xml version="1.0" encoding="UTF-8"?>
<svg viewBox="0 0 25.5 27" version="1.1" xmlns="http://www.w3.org/2000/svg" xmlns:xlink="http://www.w3.org/1999/xlink">
    <title>other file</title>
    <g id="Page-1" stroke="none" stroke-width="1" fill="none" fill-rule="evenodd">
        <g id="File-Icons" transform="translate(-899.000000, -312.000000)" fill-rule="nonzero">
            <g id="other-file" transform="translate(899.308319, 312.000000)">
                <polygon id="Shape-Copy-246" fill="#7BB6F6" points="19.1453684 6.86277059 13.2078684 6.86277059 13.2078684 0.978360622"></polygon>
                <polygon id="Shape-Copy-245" fill="#7BB6F6" points="19.1453684 6.86277059 13.2078684 6.86277059 13.2078684 0.978360622"></polygon>
                <polygon id="Shape-Copy-244" fill="#7BB6F6" points="19.1453684 6.86277059 13.2078684 6.86277059 13.2078684 0.978360622"></polygon>
                <polygon id="Shape-Copy-243" fill="#B9AEA2" points="20 26.0152862 0 26.0152862 0 -3.55271368e-15 13.75 -3.55271368e-15 20 6.19411576"></polygon>
                <polygon id="Shape-Copy-242" fill="#E2D7C1" points="19.1453684 6.86277059 13.2078684 6.86277059 13.2078684 0.978360622"></polygon>
                <path d="M13.1789482,14.4308192 L12.9041927,14.4308192 L12.9041927,21.1673198 C12.9041927,21.6148426 12.5391605,21.9791262 12.0907301,21.9791262 L9.30685859,21.9791262 L7.09311451,21.9791262 L7.09311451,22.2288435 C7.09311451,22.5148041 7.32567539,22.7468845 7.6122061,22.7468845 L10.3950865,22.7468845 L13.1779669,22.7468845 C13.4644976,22.7468845 13.6970487,22.5148041 13.6970487,22.2288435 L13.6970487,14.9488601 C13.6970487,14.6629094 13.4654789,14.4308192 13.1789482,14.4308192 Z" id="Path" fill="#F1EBE5"></path>
                <path d="M9.41623028,21.7685238 L12.1995201,21.7685238 C12.486093,21.7685238 12.7186881,21.5364435 12.7186881,21.2505025 L12.7186881,14.5140018 L12.7186881,13.9704995 C12.7186881,13.6845487 12.486093,13.4524585 12.1995201,13.4524585 L9.41623028,13.4524585 L8.49075696,13.4524585 L8.49075696,13.6238332 C8.49270998,13.6414603 8.4937012,13.6600666 8.4937012,13.678673 L8.4937012,14.8077868 L8.4937012,15.0976548 C8.4937012,15.5001402 8.16590896,15.8272209 7.76254784,15.8272209 L7.47204932,15.8272209 L6.34047909,15.8272209 C6.32575788,15.8272209 6.31005525,15.8262416 6.29533405,15.8252624 L6.11475389,15.8252624 L6.11475389,21.2505025 C6.11475389,21.5364435 6.34734898,21.7685238 6.63392184,21.7685238 L7.20314191,21.7685238 L9.41623028,21.7685238 L9.41623028,21.7685238 Z M9.52124157,20.007782 L7.70660725,20.007782 C7.57117213,20.007782 7.46125377,19.8980924 7.46125377,19.7629611 C7.46125377,19.6278102 7.57117213,19.5181403 7.70660725,19.5181403 L9.52222298,19.5181403 C9.6576581,19.5181403 9.76757646,19.6278102 9.76757646,19.7629611 C9.76757646,19.8980924 9.65667669,20.007782 9.52124157,20.007782 Z M11.3368573,18.7582261 L7.70660725,18.7582261 C7.57117213,18.7582261 7.46125377,18.6485365 7.46125377,18.5134052 C7.46125377,18.3782543 7.57117213,18.2685844 7.70660725,18.2685844 L11.3368573,18.2685844 C11.4722924,18.2685844 11.5822108,18.3782543 11.5822108,18.5134052 C11.5822108,18.6485365 11.4722924,18.7582261 11.3368573,18.7582261 Z M7.70660725,16.9416455 L11.3368573,16.9416455 C11.4722924,16.9416455 11.5822108,17.0513252 11.5822108,17.1864664 C11.5822108,17.3216075 11.4722924,17.4312872 11.3368573,17.4312872 L7.70660725,17.4312872 C7.57117213,17.4312872 7.46125377,17.3216075 7.46125377,17.1864664 C7.46125377,17.0513252 7.57117213,16.9416455 7.70660725,16.9416455 Z" id="Shape" fill="#F1EBE5"></path>
                <path d="M6.34724728,15.6537699 L7.8542823,15.6537699 C7.85532235,15.6537699 7.85740245,15.6537699 7.85844251,15.6537699 C8.11013503,15.6516903 8.31398518,15.4478844 8.31606529,15.1962466 C8.31606529,15.1952067 8.31606529,15.1931271 8.31606529,15.1920873 L8.31606529,13.6843397 C8.31606529,13.5450031 8.20165959,13.4524585 8.08310409,13.4524585 C8.02590124,13.4524585 7.96869839,13.4732551 7.92085601,13.5210871 L6.1829191,15.2586361 C6.03731185,15.4042117 6.14027698,15.6537699 6.34724728,15.6537699 Z" id="Path" fill="#F1EBE5"></path>
            </g>
        </g>
    </g>
</svg>
