<svg height="24" width="20" xmlns="http://www.w3.org/2000/svg">
    <g data-name="Work-Office-Companies / Office-Files / office-file-sheet">
        <g data-name="Group 174" fill="none" stroke="currentColor" stroke-linecap="round"
            stroke-linejoin="round">
            <path
                d="M19.207 4.5a1 1 0 0 1 .293.707V22.5a1 1 0 0 1-1 1h-17a1 1 0 0 1-1-1v-21a1 1 0 0 1 1-1h13.292a1 1 0 0 1 .707.291z"
                data-name="Shape 1148"/>
            <path
                d="M16.5 18.75c0 .414-.448.75-1 .75h-11c-.552 0-1-.336-1-.75V8.25c0-.415.448-.75 1-.75h11c.552 0 1 .335 1 .75z"
                data-name="Shape 1149"/>
            <path d="M3.5 13.5h13" data-name="Shape 1150"/>
            <path d="M3.5 10.5h13" data-name="Shape 1151"/>
            <path d="M3.5 16.5h13" data-name="Shape 1152"/>
            <path d="M7.5 7.5v12" data-name="Shape 1153"/>
        </g>
    </g>
</svg>
