<?xml version="1.0" encoding="UTF-8"?>
<svg viewBox="0 0 24 22" version="1.1" xmlns="http://www.w3.org/2000/svg" xmlns:xlink="http://www.w3.org/1999/xlink">
    <g stroke="none" stroke-width="1" fill="none" fill-rule="evenodd" stroke-linecap="round" stroke-linejoin="round">
        <g transform="translate(-978.000000, -297.000000)" stroke="currentColor">
            <g transform="translate(979.000000, 298.000000)">
                <path d="M19.959,8.5 L17.959,6.5 L15.959,8.5 L15.959,0.5 C15.959,0.223857625 16.1828576,0 16.459,0 L19.459,0 C19.7351424,0 19.959,0.223857625 19.959,0.5 L19.959,8.5 Z" id="Path"></path>
                <path d="M14,1 C12,1 11,2.5 11,4.5 C11,2.5 10,1 8,1 L1,1 C0.44771525,1 0,1.44771525 0,2 L0,16 C0,16.5522847 0.44771525,17 1,17 L8,17 C8.82620522,16.8821188 9.65970348,17.160033 10.2498353,17.7501647 C10.839967,18.3402965 11.1178812,19.1737948 11,20 C10.8821188,19.1737948 11.160033,18.3402965 11.7501647,17.7501647 C12.3402965,17.160033 13.1737948,16.8821188 14,17 L21,17 C21.5522847,17 22,16.5522847 22,16 L22,2 C22,1.44771525 21.5522847,1 21,1 L20,1" id="Path"></path>
                <line x1="11" y1="4.5" x2="11" y2="19.5" id="Path"></line>
            </g>
        </g>
    </g>
</svg>
