<?xml version="1.0" encoding="UTF-8"?>
<svg viewBox="0 0 25 24" version="1.1" xmlns="http://www.w3.org/2000/svg" xmlns:xlink="http://www.w3.org/1999/xlink">
    <g stroke="none" stroke-width="1" fill="none" fill-rule="evenodd" stroke-linecap="round" stroke-linejoin="round">
        <g transform="translate(1.000000, 1.249808)" stroke="currentColor">
            <line x1="0" y1="21.6871596" x2="0" y2="11.6293465" id="Shape"></line>
            <path d="M0,13.6409091 L7.04046922,13.6409091 C8.70690227,13.6409091 10.0578132,14.99182 10.0578132,16.6582531 L16.0925011,16.6582531 C17.7589341,16.6582531 19.109845,18.009164 19.109845,19.675597 L0,19.675597 L0,13.6409091 Z"></path>
            <line x1="10.0578132" y1="16.6582531" x2="7.04046922" y2="16.6582531"></line>
            <path d="M11.0675988,0 C8.72867838,-0.00191301318 6.77353529,1.77857445 6.55721081,4.10747035 C6.34088634,6.43636624 7.9346407,8.54650063 10.2338985,8.97541318 C12.5331563,9.40432572 14.7805108,8.0107268 15.4183992,5.76047109 L16.4166062,5.76047109 L17.2395305,6.58339531 L18.0624547,5.76047109 L18.8853789,5.76047109 L19.7083031,6.58339531 L20.5312273,5.76047109 L21.7656137,5.76047109 L23,4.52608476 L21.7656137,3.29169843 L15.4183992,3.29169843 C14.8666964,1.34547147 13.0905107,0.00165780949 11.0675988,0 Z"></path>
            <circle cx="9.42175035" cy="4.52773061" r="1.23438633"></circle>
        </g>
    </g>
</svg>
