<svg height="24.029" width="24.017" xmlns="http://www.w3.org/2000/svg">
    <g data-name="Group 379" fill="none" stroke="currentColor" stroke-linecap="round"
        stroke-linejoin="round">
        <g data-name="Group 52">
            <path d="M17.433 10.371a5.008 5.008 0 0 0-5.561-.9" data-name="Shape 1172"/>
            <path d="M13.994 7.5a3 3 0 1 0-3-3 3 3 0 0 0 3 3z" data-name="Oval 473"/>
        </g>
        <path d="M5.5 7.5A3.5 3.5 0 1 0 2 4a3.5 3.5 0 0 0 3.5 3.5z" data-name="Oval 472"/>
        <path d="M7.5 23.5l.5-6h2.5V14a5 5 0 0 0-10 0v3.5H3l.5 6z" data-name="Shape 1171"/>
        <path
            d="M19.079 13.86l1.282 2.769h2.5a.612.612 0 0 1 .429 1.072l-2.166 2.135 1.2 2.761a.654.654 0 0 1-.931.819l-2.9-1.634-2.9 1.634a.654.654 0 0 1-.931-.819l1.2-2.761-2.172-2.135a.612.612 0 0 1 .429-1.069h2.495l1.285-2.769a.662.662 0 0 1 1.18 0z"
            data-name="Shape 1173"/>
    </g>
</svg>
