<?xml version="1.0" encoding="UTF-8"?>
<svg viewBox="0 0 40 40" version="1.1" xmlns="http://www.w3.org/2000/svg" xmlns:xlink="http://www.w3.org/1999/xlink">
    <g stroke="none" stroke-width="1" fill="none" fill-rule="evenodd" stroke-linecap="round" stroke-linejoin="round">
        <g transform="translate(0.835322, 0.833333)" stroke="#000000">
            <path d="M14.4310263,38.3333333 C15.8154766,36.3752016 16.6054229,34.0607656 16.7064439,31.6666667" id="Path"></path>
            <path d="M23.9937947,38.3333333 C22.6093444,36.3752016 21.8193981,34.0607656 21.7183771,31.6666667" id="Path"></path>
            <line x1="11.6945107" y1="38.3333333" x2="26.7303103" y2="38.3333333" id="Path"></line>
            <line x1="-3.19744231e-14" y1="26.6666667" x2="38.424821" y2="26.6666667" id="Path"></line>
            <path d="M23.3890215,-7.81597009e-14 L1.67064439,-7.81597009e-14 C0.747972972,-7.81597009e-14 -3.19744231e-14,0.746192084 -3.19744231e-14,1.66666667 L-3.19744231e-14,30 C-3.19744231e-14,30.9204746 0.747972972,31.6666667 1.67064439,31.6666667 L36.7541766,31.6666667 C37.676848,31.6666667 38.424821,30.9204746 38.424821,30 L38.424821,21.6666667" id="Path"></path>
            <path d="M20.0477327,18.3333333 L8.35322196,18.3333333 C7.43055054,18.3333333 6.68257757,17.5871412 6.68257757,16.6666667 L6.68257757,10 C6.68257757,9.07952542 7.43055054,8.33333333 8.35322196,8.33333333 L20.0477327,8.33333333" id="Path"></path>
            <rect id="Rectangle" x="23.3890215" y="6.66666667" width="15.0357995" height="11.6666667" rx="1"></rect>
            <path d="M30.9069212,10.8333333 C29.9842498,10.8333333 29.2362768,11.5795254 29.2362768,12.5 C29.2362768,13.4204746 29.9842498,14.1666667 30.9069212,14.1666667 C31.8295927,14.1666667 32.5775656,13.4204746 32.5775656,12.5 C32.5775656,11.5795254 31.8295927,10.8333333 30.9069212,10.8333333 Z" id="Path"></path>
            <path d="M26.7303103,6.66666667 L26.7303103,4.16666667 C26.7303103,1.86548026 28.6002427,1.24176116e-07 30.9069212,1.24176116e-07 C33.2135997,1.24176116e-07 35.0835322,1.86548026 35.0835322,4.16666667 L35.0835322,6.66666667" id="Path"></path>
            <path d="M12.5298329,12.9166667 C12.7605008,12.9166667 12.947494,13.1032147 12.947494,13.3333333 C12.947494,13.563452 12.7605008,13.75 12.5298329,13.75 C12.2991651,13.75 12.1121718,13.563452 12.1121718,13.3333333 C12.1121718,13.1032147 12.2991651,12.9166667 12.5298329,12.9166667" id="Path"></path>
            <path d="M19.2124105,12.9166667 C19.4430784,12.9166667 19.6300716,13.1032147 19.6300716,13.3333333 C19.6300716,13.563452 19.4430784,13.75 19.2124105,13.75 C18.9817426,13.75 18.7947494,13.563452 18.7947494,13.3333333 C18.7947494,13.1032147 18.9817426,12.9166667 19.2124105,12.9166667" id="Path"></path>
        </g>
    </g>
</svg>
