<?xml version="1.0" encoding="UTF-8"?>
<svg viewBox="0 0 25.5 27" version="1.1" xmlns="http://www.w3.org/2000/svg" xmlns:xlink="http://www.w3.org/1999/xlink">
    <title>pdf file</title>
    <g id="Page-1" stroke="none" stroke-width="1" fill="none" fill-rule="evenodd">
        <g id="File-Icons" transform="translate(-267.000000, -62.000000)">
            <g id="pdf" transform="translate(267.000000, 62.000000)">
                <polygon id="Shape-Copy-22" fill="#C61716" fill-rule="nonzero" points="20 26.0152862 0 26.0152862 0 0 13.75 0 20 6.19411576"></polygon>
                <polygon id="Shape-Copy-21" fill="#FF7F7F" fill-rule="nonzero" points="19.1453684 6.86277059 13.2078684 6.86277059 13.2078684 0.978360622"></polygon>
                <path d="M9.46813344,17.4112853 C9.62126288,17.7535747 9.79690873,18.0643327 9.99507625,18.3435688 C10.1932438,18.6228048 10.4094233,18.861503 10.6436213,19.0596705 L10.9543824,19.3028749 C10.6211007,19.3659282 10.2315272,19.4537511 9.78565026,19.5663463 C9.33977334,19.6789415 8.87363628,19.8298168 8.3872251,20.0189767 L8.30615698,20.0459994 L8.68447489,19.2488295 C8.85561957,18.9155478 9.00649485,18.5957822 9.13710526,18.2895234 C9.26771567,17.9832645 9.37805729,17.6905214 9.46813344,17.4112853 Z M14.4403118,20.3297378 C14.5123727,20.2666845 14.5664176,20.1923728 14.602448,20.1068005 C14.6384785,20.0212282 14.6564934,19.9289015 14.6564934,19.8298177 C14.6745087,19.7487492 14.6745087,19.6721856 14.6564934,19.6001247 C14.6384782,19.5280638 14.606952,19.4650114 14.561914,19.4109658 C14.4538226,19.2308135 14.255658,19.0957013 13.9674144,19.0056251 C13.6791707,18.915549 13.2963528,18.8705116 12.8189493,18.8705116 L11.8191091,18.924557 L11.1570527,18.4786823 C10.9138471,18.2805148 10.6864083,18.0125423 10.4747293,17.6747567 C10.2630504,17.3369712 10.0806489,16.9519014 9.92751948,16.519536 L9.95454219,16.4114451 C10.0806488,15.8980111 10.1729755,15.3710735 10.2315249,14.8306167 C10.2900744,14.2901598 10.193244,13.8938307 9.94103083,13.6416175 C9.87797753,13.5785642 9.8059177,13.5312749 9.72484917,13.4997483 C9.64378064,13.4682216 9.55820958,13.4524585 9.46813344,13.4524585 L9.29248583,13.4524585 C9.148364,13.4524585 9.01775555,13.5155109 8.90065656,13.6416175 C8.78355757,13.7677241 8.71149774,13.9028363 8.68447489,14.0469581 C8.54035306,14.5603922 8.49531566,14.9904993 8.54936135,15.3372925 C8.60340704,15.6840856 8.70248931,16.0916741 8.84661114,16.56007 L8.84661114,16.5735814 C8.756535,16.9068631 8.64394151,17.2649104 8.50882729,17.647734 C8.37371307,18.0305576 8.21157844,18.4201311 8.02241854,18.8164662 L7.27929406,20.2081356 L6.59021499,20.5864536 C6.13082665,20.8746972 5.78629057,21.1674403 5.5565964,21.4646916 C5.32690223,21.7619429 5.19404191,22.0096486 5.15801145,22.2078161 C5.13999622,22.279877 5.13324061,22.349685 5.13774442,22.4172421 C5.14224822,22.4847992 5.15801131,22.5546071 5.18503416,22.626668 L5.21205687,22.6672021 L5.57686343,22.8968951 L5.91464728,22.9914746 C6.22991379,22.9914746 6.56994614,22.8023175 6.93475453,22.4239977 C7.29956291,22.0456779 7.72066257,21.4466805 8.19806614,20.6269876 L8.34669104,20.5729422 C8.74302608,20.4468356 9.19340005,20.3387459 9.69782646,20.2486697 C10.2022529,20.1585936 10.7832353,20.0730225 11.4407911,19.991954 C11.8371262,20.1901215 12.2469665,20.336493 12.6703244,20.431073 C13.0936823,20.5256529 13.4539814,20.5729422 13.7512327,20.5729422 C13.9133698,20.5729422 14.0529857,20.5526754 14.1700847,20.5121411 C14.2871837,20.4716069 14.3772585,20.4108064 14.4403118,20.3297378 Z M14.1295506,19.7892837 L14.1971074,19.8703518 C14.1971074,19.9153899 14.1903518,19.9424123 14.1768404,19.9514199 C14.163329,19.9604275 14.1475659,19.969435 14.1295506,19.9784426 L14.1025279,19.9784426 L13.953903,19.991954 C13.7737507,19.991954 13.5553194,19.9559241 13.2986024,19.8838631 C13.0418853,19.8118022 12.7739128,19.7172237 12.4946768,19.6001247 C12.5307072,19.5640943 12.5599815,19.5415756 12.5825006,19.5325679 C12.6050196,19.5235603 12.6342939,19.5190566 12.6703244,19.5190566 C13.2107813,19.5190566 13.5800879,19.5550865 13.7782554,19.6271474 C13.9764229,19.6992083 14.0935202,19.7532532 14.1295506,19.7892837 Z M7.07662374,20.9107261 C6.83341815,21.3701144 6.59922369,21.7259098 6.37403333,21.978123 C6.14884296,22.2303363 5.95067842,22.3879671 5.77953374,22.4510204 C5.79754897,22.3068986 5.88987563,22.1154897 6.0565165,21.8767879 C6.22315737,21.6380861 6.44158875,21.397136 6.71181718,21.1539304 L7.07662374,20.9107261 Z M9.40057667,15.6007639 C9.31050052,15.2584745 9.26321125,14.9499683 9.25870745,14.6752361 C9.25420364,14.4005039 9.28347795,14.1820725 9.34653125,14.0199354 L9.40057667,13.9388673 L9.52217885,13.96589 C9.58523216,14.0649738 9.62126207,14.1798191 9.63026969,14.3104295 C9.6392773,14.44104 9.62576608,14.6099302 9.58973562,14.8171053 L9.56271292,14.9387075 L9.44111073,15.5737412 L9.40057667,15.6007639 Z" id="" fill="#FF7F7F"></path>
            </g>
        </g>
    </g>
</svg>
