<?xml version="1.0" encoding="UTF-8"?>
<svg viewBox="0 0 25 25" version="1.1" xmlns="http://www.w3.org/2000/svg" xmlns:xlink="http://www.w3.org/1999/xlink">
    <g id="PERSONNEL-MANAGEMENT" stroke="none" stroke-width="1" fill="none" fill-rule="evenodd" stroke-linecap="round" stroke-linejoin="round">
        <g id="IPS" transform="translate(-848.000000, -142.000000)" stroke="#656565">
            <g id="personnel-global" transform="translate(849.479167, 143.479150)">
                <circle id="Oval" cx="17.25" cy="17.2500162" r="4.79166667"></circle>
                <path d="M15.3333333,17.7291829 L16.3712083,18.7670579 C16.4708068,18.8665031 16.6090898,18.9171309 16.7493538,18.9055038 C16.8896179,18.8938766 17.0176771,18.8211704 17.0995417,18.7066829 L19.1666667,15.8125162" id="Shape"></path>
                <path d="M-2.27373675e-13,12.4583496 C0.00931748213,11.5687158 0.19328587,10.6895748 0.541458333,9.87084957 C0.924791667,9.10418291 2.5185,8.57709957 4.52141667,7.83534957 C5.062875,7.63505791 4.97375,6.22151624 4.73416667,5.95701624 C3.96201439,5.12031152 3.58372143,3.99380041 3.694375,2.86064124 C3.6249947,2.13914064 3.85860363,1.42126048 4.33930703,0.878765339 C4.82001043,0.336270197 5.50456023,0.0179674497 6.22916667,1.6240315e-05 C6.95377311,0.0179674497 7.6383229,0.336270197 8.1190263,0.878765339 C8.5997297,1.42126048 8.83333863,2.13914064 8.76395833,2.86064124 C8.87489276,3.99412165 8.49658048,5.12103898 7.72416667,5.95797457 C7.48458333,6.22247457 7.39545833,7.63601624 7.93691667,7.83630791 C9.93983333,8.57805791 11.5345,9.10801624 11.916875,9.87180791 C12.2650475,10.6905332 12.4490159,11.5696741 12.4583333,12.4593079 L-2.27373675e-13,12.4583496 Z" id="Shape"></path>
                <path d="M9.97816667,0.22714124 C10.3049773,0.0762333548 10.6608657,-0.00129014287 11.0208333,0 C11.7454398,0.0179674497 12.4299896,0.336270197 12.910693,0.878765339 C13.3913964,1.42126048 13.6250053,2.13914064 13.555625,2.86064124 C13.6665594,3.99412165 13.2882471,5.12103898 12.5158333,5.95797457 C12.27625,6.22247457 12.187125,7.63601624 12.7285833,7.83630791 C14.7315,8.57805791 16.3261667,9.10801624 16.7085417,9.87180791 C16.8137912,10.0877312 16.9006677,10.3121354 16.96825,10.5426412" id="Shape"></path>
            </g>
        </g>
    </g>
</svg>
