<?xml version="1.0" encoding="UTF-8"?>
<svg viewBox="0 0 24 23" version="1.1" xmlns="http://www.w3.org/2000/svg" xmlns:xlink="http://www.w3.org/1999/xlink">

    <g stroke="none" stroke-width="1" fill="none" fill-rule="evenodd" stroke-linecap="round" stroke-linejoin="round">
        <g transform="translate(0.769000, 0.612000)" stroke="currentColor">
            <path d="M16.6061834,21.6394037 C16.5159779,21.7335344 16.3912538,21.7867593 16.2608789,21.7867593 C16.130504,21.7867593 16.0057799,21.7335344 15.9155744,21.6394037 L11.3692239,16.8969662 C10.4884837,16.0159063 10.2700499,14.6702462 10.8268758,13.5558339 L10.8268758,13.5558339 C11.2434299,12.7240976 12.0343474,12.1432491 12.9526241,11.9946876 C13.8709007,11.8461261 14.8046208,12.1479578 15.4621828,12.8059204 L16.2608789,13.6046165 L17.059575,12.8059204 C17.7174073,12.1480976 18.6513368,11.8465664 19.5696447,11.995512 C20.4879526,12.1444575 21.2786963,12.7257231 21.694882,13.5577469 L21.694882,13.5577469 C22.2517079,14.6721592 22.0332741,16.0178194 21.1525339,16.8988793 L16.6061834,21.6394037 Z"></path>
            <path d="M8.13043945,15.3043566 L-9.09494702e-13,15.3043566 C0.0128304708,14.2115274 0.240330871,13.1318755 0.669565602,12.1267896 C1.13826152,11.1884412 3.09817569,10.538006 5.55835102,9.62644031 C6.21739487,9.38061408 6.11026438,7.64070004 5.81565551,7.31930855 C4.86631602,6.29098944 4.40134679,4.90617466 4.53774173,3.51330636 C4.45249775,2.62696233 4.7395723,1.74507394 5.33024296,1.07875535 C5.92091362,0.412436757 6.76200826,0.0216699137 7.6521783,0 C8.54234835,0.0216699137 9.38344299,0.412436757 9.97411365,1.07875535 C10.5647843,1.74507394 10.8518589,2.62696233 10.7666149,3.51330636 C10.9030098,4.90617466 10.4380406,6.29098944 9.4887011,7.31930855 C9.19409223,7.6435696 9.08504869,9.38061408 9.74983168,9.62644031 L11,10.0874841"></path>
        </g>
    </g>
</svg>
