<svg xmlns="http://www.w3.org/2000/svg" viewBox="0 0 24 21.01"><g data-name="Group 10" fill="none" stroke="currentColor" stroke-linecap="round" stroke-linejoin="round" stroke-miterlimit="10"><path d="M21 1.419a3.087 3.087 0 0 1 2.5 2.91v2a2.179 2.179 0 0 1-2 2.181h-3a2.179 2.179 0 0 1-2-2.181v-1.5a46.029 46.029 0 0 0-9 0v1.5a2.179 2.179 0 0 1-2 2.181h-3a2.179 2.179 0 0 1-2-2.181v-2A3.087 3.087 0 0 1 3 1.419a45 45 0 0 1 18 0z"/><path data-name="Shape" d="M19.5 10.51v8a2.005 2.005 0 0 1-2 2h-11a2.005 2.005 0 0 1-2-2v-8"/><path data-name="Shape" d="M8.25 11.51a.25.25 0 1 1-.25.25.25.25 0 0 1 .25-.25M12 11.51a.25.25 0 1 1-.25.25.25.25 0 0 1 .25-.25M8.25 14.51a.25.25 0 1 1-.25.25.25.25 0 0 1 .25-.25M12 14.51a.25.25 0 1 1-.25.25.25.25 0 0 1 .25-.25M8.25 17.51a.25.25 0 1 1-.25.25.25.25 0 0 1 .25-.25M15.75 11.51a.25.25 0 1 0 .25.25.25.25 0 0 0-.25-.25M15.75 14.51a.25.25 0 1 0 .25.25.25.25 0 0 0-.25-.25M15.75 17.51a.25.25 0 1 0 .25.25.25.25 0 0 0-.25-.25M12 17.51a.25.25 0 1 1-.25.25.25.25 0 0 1 .25-.25"/></g></svg>
