<?xml version="1.0" encoding="UTF-8"?>
<svg viewBox="0 0 18 18" version="1.1" xmlns="http://www.w3.org/2000/svg" xmlns:xlink="http://www.w3.org/1999/xlink">
    <g stroke="none" stroke-width="1" fill="none" fill-rule="evenodd" stroke-linecap="round" stroke-linejoin="round">
        <g transform="translate(-422.000000, -217.000000)" stroke="currentColor">
            <g transform="translate(423.000000, 218.000000)">
                <path d="M10.7129524,10.7129524 L8.70197819,5.68475167 C8.54893602,5.29372891 8.27499052,5.28760722 8.10128765,5.67097788 L6.50429253,9.18253063 L5.08176549,7.47534514 C4.97895796,7.32369828 4.80275787,7.23878756 4.62008868,7.25286337 C4.43741949,7.26693918 4.27630805,7.37784186 4.19794692,7.54344891 L2.29563266,10.7129524"></path>
                <rect x="0" y="0" width="13.0085851" height="13.0085851" rx="1"></rect>
                <path d="M14.5451285,4.50020522 L15.3103394,4.56983941 C15.7294116,4.60982573 16.0374807,4.98080795 15.9997944,5.40009322 L15.0960804,15.3080438 C15.0557162,15.7274611 14.6838799,16.0353293 14.2642961,15.9967336 L3.59649116,15.0264462"></path>
                <line x1="0" y1="10.7129524" x2="13.0085851" y2="10.7129524"></line>
                <circle cx="3.44344899" cy="3.44344899" r="1.14781633"></circle>
            </g>
        </g>
    </g>
</svg>
