<svg xmlns="http://www.w3.org/2000/svg" viewBox="0 0 18.456 18.457">
    <g data-name="Group 410" fill="none" stroke="currentColor" stroke-linecap="round" stroke-linejoin="round">
        <path data-name="Oval 2" d="M9.229 11.211a1.984 1.984 0 1 0-1.984-1.984 1.983 1.983 0 0 0 1.984 1.984z"/>
        <path data-name="Shape 6" d="M13.672 6.482h-1.481a1 1 0 0 1-.632-.281L10.6 5.176a.994.994 0 0 0-.632-.281H8.487a1 1 0 0 0-.632.281l-.957 1.025a.994.994 0 0 1-.632.281H4.785a1.153 1.153 0 0 0-1.111 1.19v3.963a1.153 1.153 0 0 0 1.111 1.19h8.887a1.153 1.153 0 0 0 1.111-1.19V7.672a1.153 1.153 0 0 0-1.111-1.19z"/>
        <path data-name="Oval 3" d="M9.226 17.956A8.728 8.728 0 1 0 .498 9.228a8.728 8.728 0 0 0 8.728 8.728z"/><path data-name="Shape 7" d="M13.019 8.272a.2.2 0 1 1-.2.2.2.2 0 0 1 .2-.2"/>
    </g>
</svg>
