<?xml version="1.0" encoding="UTF-8"?>
<svg viewBox="0 0 40 40" version="1.1" xmlns="http://www.w3.org/2000/svg" xmlns:xlink="http://www.w3.org/1999/xlink">
    <g stroke="none" stroke-width="1" fill="none" fill-rule="evenodd">
        <g>
            <path d="M20,0 C31.0456,0 40,8.9544 40,20 C40,31.046 31.0452,40 20,40 C8.954,40 0,31.046 0,20 C0,8.9544 8.954,0 20,0 Z" id="Path" fill="#C0D254" fill-rule="nonzero"></path>
            <rect id="Rectangle" fill="#F79036" x="7.68" y="10.24" width="24.96" height="16.64"></rect>
            <rect id="Rectangle" fill="#FFFFFF" x="9.92" y="11.84" width="20.48" height="13.44"></rect>
            <path d="M13.2757943,26.5316693 L11.67616,26.2139733 C11.5064686,26.180608 11.3828571,26.0311893 11.3828571,25.85856 L11.3828571,25.4944427 C11.4881829,25.349376 11.5869257,25.155712 11.6893257,24.953344 C11.7675886,24.8002987 11.8853486,24.5696427 11.9380114,24.5152427 C12.2481371,24.2142293 12.5787429,23.8406827 12.67968,23.353984 C12.7711086,22.9129813 12.67968,22.683776 12.5736229,22.5024427 C12.5736229,22.1477547 12.5736229,21.4985813 12.44928,21.0307413 C12.4368457,20.4657067 12.3322514,20.14656 12.0696686,19.8622293 C11.8838857,19.663488 11.6103314,19.6170667 11.3909029,19.5800747 C11.3038629,19.565568 11.18464,19.5452587 11.1429486,19.5227733 C10.7633371,19.3146027 10.3778743,19.2116053 9.90610286,19.2 C8.94061714,19.2362667 7.75570286,19.8433707 7.35926857,20.9349973 C7.23858286,21.2664747 7.25028571,21.8104747 7.25906286,22.2478507 L7.24882286,22.5024427 C7.15593143,22.683776 7.06450286,22.9129813 7.15666286,23.3532587 C7.2576,23.8421333 7.58820571,24.2149547 7.89686857,24.5145173 C7.95026286,24.5696427 8.06948571,24.8017493 8.14848,24.9547947 C8.25234286,25.1564373 8.35181714,25.3501013 8.45714286,25.495168 L8.45714286,25.85856 C8.45714286,26.0311893 8.33353143,26.180608 8.16310857,26.2139733 L6.56347429,26.5316693 C5.54166857,26.7340373 4.8,27.6312747 4.8,28.6648747 L4.8,29.3546667 C4.8,29.7543253 5.12841143,30.08 5.53142857,30.08 L14.3085714,30.08 C14.7115886,30.08 15.04,29.7543253 15.04,29.3546667 L15.04,28.6648747 C15.04,27.6312747 14.2983314,26.7340373 13.2757943,26.5316693 Z" id="Path" fill="#455F78" fill-rule="nonzero"></path>
            <path d="M23.2509257,26.5316693 L21.70128,26.2139733 C21.5368914,26.180608 21.4171429,26.0311893 21.4171429,25.85856 L21.4171429,25.4944427 C21.5191771,25.349376 21.6148343,25.155712 21.7140343,24.953344 C21.7898514,24.8002987 21.9039314,24.5696427 21.9549486,24.5152427 C22.2553829,24.2142293 22.5756571,23.8406827 22.67344,23.353984 C22.7620114,22.9129813 22.67344,22.683776 22.5706971,22.5024427 C22.5706971,22.1477547 22.5706971,21.4985813 22.45024,21.0307413 C22.4381943,20.4657067 22.3368686,20.14656 22.0824914,19.8622293 C21.9025143,19.663488 21.6375086,19.6170667 21.4249371,19.5800747 C21.3406171,19.565568 21.22512,19.5452587 21.1847314,19.5227733 C20.8169829,19.3146027 20.4435657,19.2116053 19.9865371,19.2 C19.0512229,19.2362667 17.9033371,19.8433707 17.5192914,20.9349973 C17.4023771,21.2664747 17.4137143,21.8104747 17.4222171,22.2478507 L17.4122971,22.5024427 C17.3223086,22.683776 17.2337371,22.9129813 17.3230171,23.3532587 C17.4208,23.8421333 17.7410743,24.2149547 18.0400914,24.5145173 C18.0918171,24.5696427 18.2073143,24.8017493 18.28384,24.9547947 C18.3844571,25.1564373 18.4808229,25.3501013 18.5828571,25.495168 L18.5828571,25.85856 C18.5828571,26.0311893 18.4631086,26.180608 18.2980114,26.2139733 L16.7483657,26.5316693 C15.7584914,26.7340373 15.04,27.6312747 15.04,28.6648747 L15.04,29.3546667 C15.04,29.7543253 15.3581486,30.08 15.7485714,30.08 L24.2514286,30.08 C24.6418514,30.08 24.96,29.7543253 24.96,29.3546667 L24.96,28.6648747 C24.96,27.6312747 24.2415086,26.7340373 23.2509257,26.5316693 Z" id="Path" fill="#455F78" fill-rule="nonzero"></path>
            <path d="M33.4357943,26.5316693 L31.83616,26.2139733 C31.6664686,26.180608 31.5428571,26.0311893 31.5428571,25.85856 L31.5428571,25.4944427 C31.6481829,25.349376 31.7469257,25.155712 31.8493257,24.953344 C31.9275886,24.8002987 32.0453486,24.5696427 32.0980114,24.5152427 C32.4081371,24.2142293 32.7387429,23.8406827 32.83968,23.353984 C32.9311086,22.9129813 32.83968,22.683776 32.7336229,22.5024427 C32.7336229,22.1477547 32.7336229,21.4985813 32.60928,21.0307413 C32.5968457,20.4657067 32.4922514,20.14656 32.2296686,19.8622293 C32.0438857,19.663488 31.7703314,19.6170667 31.5509029,19.5800747 C31.4638629,19.565568 31.34464,19.5452587 31.3029486,19.5227733 C30.9233371,19.3146027 30.5378743,19.2116053 30.0661029,19.2 C29.1006171,19.2362667 27.9157029,19.8433707 27.5192686,20.9349973 C27.3985829,21.2664747 27.4102857,21.8104747 27.4190629,22.2478507 L27.4088229,22.5024427 C27.3159314,22.683776 27.2245029,22.9129813 27.3166629,23.3532587 C27.4176,23.8421333 27.7482057,24.2149547 28.0568686,24.5145173 C28.1102629,24.5696427 28.2294857,24.8017493 28.30848,24.9547947 C28.4123429,25.1564373 28.5118171,25.3501013 28.6171429,25.495168 L28.6171429,25.85856 C28.6171429,26.0311893 28.4935314,26.180608 28.3231086,26.2139733 L26.7234743,26.5316693 C25.7016686,26.7340373 24.96,27.6312747 24.96,28.6648747 L24.96,29.3546667 C24.96,29.7543253 25.2884114,30.08 25.6914286,30.08 L34.4685714,30.08 C34.8715886,30.08 35.2,29.7543253 35.2,29.3546667 L35.2,28.6648747 C35.2,27.6312747 34.4583314,26.7340373 33.4357943,26.5316693 Z" id="Path" fill="#455F78" fill-rule="nonzero"></path>
        </g>
    </g>
</svg>