<?xml version="1.0" encoding="UTF-8"?>
<svg viewBox="0 0 60 60" version="1.1" xmlns="http://www.w3.org/2000/svg" xmlns:xlink="http://www.w3.org/1999/xlink">
    <g stroke="none" stroke-width="1" fill="none" fill-rule="evenodd">
        <g fill-rule="nonzero">
            <path d="M30,0 C46.5684,0 60,13.4316 60,30 C60,46.569 46.5678,60 30,60 C13.431,60 0,46.569 0,30 C0,13.4316 13.431,0 30,0 Z" id="Path" fill="#EFC75E"></path>
            <path d="M24.2178634,38.9878957 L21.8135217,38.508 C21.5584658,38.4576 21.3726708,38.2318957 21.3726708,37.9711304 L21.3726708,37.421113 C21.5309814,37.2019826 21.6793975,36.9094435 21.8333106,36.6037565 C21.9509441,36.3725739 22.1279441,36.0241565 22.2070994,35.9419826 C22.673236,35.487287 23.1701553,34.9230261 23.3218696,34.1878435 C23.4592919,33.521687 23.3218696,33.1754609 23.1624596,32.9015478 C23.1624596,32.3657739 23.1624596,31.3851652 22.9755652,30.6784696 C22.9568758,29.8249565 22.7996646,29.3428696 22.4049876,28.9133739 C22.1257453,28.6131652 21.7145776,28.5430435 21.384764,28.4871652 C21.2539379,28.4652522 21.0747391,28.4345739 21.0120745,28.4006087 C20.4414969,28.0861565 19.8621242,27.9305739 19.1530248,27.9130435 C17.7018447,27.9678261 15.9208509,28.884887 15.3249876,30.5338435 C15.1435901,31.0345565 15.1611801,31.8562957 15.1743727,32.5169739 L15.1589814,32.9015478 C15.0193602,33.1754609 14.8819379,33.521687 15.0204596,34.1867478 C15.1721739,34.9252174 15.6690932,35.4883826 16.1330311,35.940887 C16.2132857,36.0241565 16.3924845,36.3747652 16.5112174,36.6059478 C16.6673292,36.9105391 16.8168447,37.2030783 16.9751553,37.4222087 L16.9751553,37.9711304 C16.9751553,38.2318957 16.7893602,38.4576 16.533205,38.508 L14.1288634,38.9878957 C12.5930311,39.2935826 11.4782609,40.6489043 11.4782609,42.2102087 L11.4782609,43.2521739 C11.4782609,43.8558783 11.971882,44.3478261 12.5776398,44.3478261 L25.7701863,44.3478261 C26.3759441,44.3478261 26.8695652,43.8558783 26.8695652,43.2521739 L26.8695652,42.2102087 C26.8695652,40.6489043 25.754795,39.2935826 24.2178634,38.9878957 Z" id="Path" fill="#37A8C7"></path>
            <path d="M50.1531473,31.5973358 L49.5561324,31.5973358 L49.5561324,18.3075919 C49.5561324,17.7089548 48.9591175,17.2300451 48.3621025,17.2300451 L40.1232966,17.2300451 L40.0038936,16.7511354 C39.8844906,16.2722257 39.4068787,15.9130435 38.8098637,15.9130435 C38.2128488,15.9130435 37.8546398,16.1524983 37.6158339,16.7511354 L37.4964309,17.2300451 L29.2576249,17.2300451 C28.66061,17.2300451 28.0635951,17.7089548 28.0635951,18.3075919 L28.0635951,31.5973358 L27.4665801,31.5973358 C27.1083712,31.5973358 26.8695652,31.8367907 26.8695652,32.1959729 L26.8695652,33.3932472 C26.8695652,33.7524294 27.1083712,33.9918843 27.4665801,33.9918843 L32.0038936,33.9918843 L30.5710578,38.4217989 C30.3322518,39.020436 30.8098637,39.7388005 31.4068787,39.858528 C32.0038936,39.9782554 32.7203115,39.6190731 32.8397145,39.020436 L34.5113563,33.8721568 L43.2277742,33.8721568 L44.899416,39.020436 C45.0188189,39.4993457 45.6158339,40.0979828 46.3322518,39.858528 C46.9292667,39.6190731 47.2874757,39.020436 47.1680727,38.4217989 L45.7352369,33.9918843 L50.2725503,33.9918843 C50.6307592,33.9918843 50.8695652,33.7524294 50.8695652,33.3932472 L50.8695652,32.1959729 C50.7501622,31.8367907 50.5113563,31.5973358 50.1531473,31.5973358 Z" id="Path" fill="#CC6D41"></path>
            <polygon id="Path" fill="#FFFFFF" points="46.4347826 30 31.0434783 30 31.0434783 20.0869565 46.4347826 20.0869565 46.4347826 30"></polygon>
        </g>
    </g>
</svg>
