<?xml version="1.0" encoding="UTF-8"?>
<svg viewBox="0 0 19 19" version="1.1" xmlns="http://www.w3.org/2000/svg" xmlns:xlink="http://www.w3.org/1999/xlink">
    <title>pinned</title>
    <g id="Revamp" stroke="none" stroke-width="1" fill="none" fill-rule="evenodd">
        <path d="M9.5,0 C14.7467051,0 19,4.25329488 19,9.5 C19,14.7467051 14.7467051,19 9.5,19 C4.25329488,19 0,14.7467051 0,9.5 C0,4.25329488 4.25329488,0 9.5,0 Z M11.4586534,5.06934478 C11.29524,4.96147512 11.0731951,4.9794534 10.9293255,5.12327962 L10.9293255,5.12327962 L10.5954277,5.45717735 L10.558239,5.5025208 C10.5258543,5.55107501 10.5082055,5.60848027 10.5082055,5.66770556 C10.5082055,5.74667262 10.5395812,5.82240407 10.5954277,5.87823377 C10.6512743,5.93406348 10.68265,6.00979493 10.68265,6.08876198 C10.68265,6.16772903 10.6512743,6.24346049 10.5954277,6.29929019 L10.5954277,6.29929019 L8.82404338,8.07067454 L8.75992734,8.12326266 C8.69127203,8.16905975 8.61010297,8.19402618 8.52635649,8.19404407 L8.52635649,8.19404407 L7.19076553,8.19404407 L7.1082462,8.20222562 C7.02732204,8.21841833 6.95228741,8.25818695 6.89307864,8.3174136 L6.89307864,8.3174136 L6.68255044,8.52794181 L6.6286156,8.59398762 C6.52074594,8.75740107 6.53872422,8.97944592 6.68255044,9.12331558 L6.68255044,9.12331558 L8.05631854,10.4970837 L4.09249343,14.4609088 L4.06191709,14.4963274 C3.97018807,14.6199544 3.98038018,14.7953933 4.09249343,14.9075066 C4.215818,15.0308311 4.41576663,15.0308311 4.5390912,14.9075066 L4.5390912,14.9075066 L8.50291631,10.9436815 L9.87668442,12.3174496 L9.94273023,12.3713844 C10.1061437,12.4792541 10.3281885,12.4612758 10.4720582,12.3174496 L10.4720582,12.3174496 L10.6825864,12.1069214 L10.7351745,12.0428053 C10.7809716,11.97415 10.805938,11.892981 10.8059559,11.8092345 L10.8059559,11.8092345 L10.8059559,10.4740646 L10.8141375,10.3915452 C10.8303302,10.3106211 10.8700988,10.2355864 10.9293255,10.1763777 L10.9293255,10.1763777 L12.7007098,8.40499333 L12.7460161,8.36775921 C12.7945379,8.33532595 12.8519255,8.3176197 12.9111508,8.31756048 C12.9901179,8.31748151 13.0658807,8.3487815 13.1217662,8.40457228 C13.1775959,8.46041885 13.2533274,8.49179454 13.3322944,8.49179454 C13.4112615,8.49179454 13.4869929,8.46041885 13.5428226,8.40457228 L13.5428226,8.40457228 L13.8767204,8.07067454 L13.9306552,8.00462873 C14.0385249,7.84121527 14.0205466,7.61917042 13.8767204,7.47530076 L13.8767204,7.47530076 L11.5246992,5.12327962 Z" id="pinned" fill="#339BB2" fill-rule="nonzero"></path>
    </g>
</svg>
