<?xml version="1.0" encoding="UTF-8"?>
<svg width="32px" height="32px" viewBox="0 0 32 32" version="1.1" xmlns="http://www.w3.org/2000/svg" xmlns:xlink="http://www.w3.org/1999/xlink">
    <title>Shape</title>
    <g id="Iteration-3" stroke="none" stroke-width="1" fill="none" fill-rule="evenodd">
        <g id="Messsaging---Shared-Media-Listing" transform="translate(-443.000000, -832.000000)" fill="#FFFFFF" fill-rule="nonzero">
            <g id="Group-10" transform="translate(357.000000, 628.000000)">
                <path d="M102,204 C93.1634475,204 86,211.163447 86,220 C86,228.836553 93.1634475,236 102,236 C110.836553,236 118,228.836553 118,220 C117.990625,211.167398 110.832669,204.009442 102,204 Z M108.837296,220.675518 C108.729958,220.890736 108.555452,221.06522 108.340062,221.172505 L108.340062,221.178019 L99.4796128,225.606086 C98.9324094,225.879358 98.2672251,225.657588 97.9937533,225.110655 C97.9160078,224.955176 97.875967,224.783546 97.8769231,224.609776 L97.8769231,215.753706 C97.8766808,215.142298 98.3722918,214.646478 98.9840018,214.646154 C99.1560412,214.646154 99.3257443,214.686045 99.4796128,214.762909 L108.340062,219.190976 C108.887525,219.463664 109.110184,220.128325 108.837296,220.675518 Z" id="Shape"></path>
            </g>
        </g>
    </g>
</svg>