<?xml version="1.0" encoding="UTF-8"?>
<svg viewBox="0 0 22 22" version="1.1" xmlns="http://www.w3.org/2000/svg" xmlns:xlink="http://www.w3.org/1999/xlink">
    <g id="Desktop" stroke="none" stroke-width="1" fill="none" fill-rule="evenodd" stroke-linecap="round" stroke-linejoin="round">
        <g transform="translate(1.000000, 1.000000)" stroke="#339BB2">
            <path d="M7.82608696,10.2173913 C7.82608696,10.3374532 7.92341636,10.4347826 8.04347826,10.4347826 L10.4347826,10.4347826 L10.4347826,12.9565217 C10.4346251,13.0445691 10.4875926,13.1240167 10.568929,13.1577323 C10.6502655,13.1914479 10.7439069,13.1727725 10.806087,13.1104348 L13.4782609,10.4347826 L19.7826087,10.4347826 C19.9026706,10.4347826 20,10.3374532 20,10.2173913 L20,0.217391304 C20,0.0973294022 19.9026706,0 19.7826087,0 L8.04347826,0 C7.92341636,0 7.82608696,0.0973294022 7.82608696,0.217391304 L7.82608696,10.2173913 Z" id="Shape"></path>
            <circle id="Oval" cx="2.60869565" cy="8.47826087" r="1.95652174"></circle>
            <path d="M2.60869565,11.3043478 C1.16795283,11.3043478 0,12.4723007 0,13.9130435 L0,15.6521739 L1.30434783,15.6521739 L1.73913043,20 L3.47826087,20 L3.91304348,15.6521739 L5.2173913,15.6521739 L5.2173913,13.9130435 C5.2173913,12.4723007 4.04943848,11.3043478 2.60869565,11.3043478 Z" id="Shape"></path>
            <path d="M14.7826087,7.82608696 L11.7391304,7.82608696 C11.4990066,7.82608696 11.3043478,7.63142815 11.3043478,7.39130435 L11.3043478,2.4426087 C11.3043478,2.29185734 11.3824476,2.15186693 11.5107205,2.0726708 C11.6389935,1.99347467 11.7991363,1.98637644 11.933913,2.05391304 L14.7826087,3.47826087 L14.7826087,7.82608696 Z" id="Shape"></path>
            <path d="M14.7826087,4.34782609 L16.9565217,4.34782609 C17.1966455,4.34782609 17.3913043,4.54248489 17.3913043,4.7826087 L17.3913043,7.39130435 C17.3913043,7.63142815 17.1966455,7.82608696 16.9565217,7.82608696 L14.7826087,7.82608696" id="Shape"></path>
            <line x1="11.3043478" y1="4.34782609" x2="12.6086957" y2="4.34782609" id="Shape"></line>
            <line x1="11.3043478" y1="6.08695652" x2="12.6086957" y2="6.08695652" id="Shape"></line>
            <line x1="14.7826087" y1="3.47826087" x2="14.7826087" y2="1.73913043" id="Shape"></line>
        </g>
    </g>
</svg>
