<?xml version="1.0" encoding="UTF-8"?>
<svg viewBox="0 0 25.5 27" version="1.1" xmlns="http://www.w3.org/2000/svg" xmlns:xlink="http://www.w3.org/1999/xlink">
    <title>ppt file</title>
    <g id="Page-1" stroke="none" stroke-width="1" fill="none" fill-rule="evenodd">
        <g id="File-Icons" transform="translate(-689.000000, -62.000000)">
            <g id="ppt" transform="translate(689.000000, 62.000000)">
                <polygon id="Shape-Copy-33" fill="#E6541D" fill-rule="nonzero" points="20 26.0152862 1.04275055e-14 26.0152862 1.04275055e-14 0 13.75 0 20 6.19411576"></polygon>
                <polygon id="Shape-Copy-28" fill="#FFA684" fill-rule="nonzero" points="19.1453684 6.86277059 13.2078684 6.86277059 13.2078684 0.978360622"></polygon>
                <path d="M14.4308192,17.1203555 L10.5183321,17.1203555 L10.5183321,13.2078684 C11.0571975,13.2078684 11.5645259,13.3096207 12.0403326,13.5131284 C12.5161392,13.716636 12.9303141,13.9960966 13.2828697,14.3515185 C13.6354252,14.7069403 13.9148858,15.1211152 14.1212598,15.5940556 C14.3276337,16.0669959 14.4308192,16.5757575 14.4308192,17.1203555 Z M13.4505477,18.1006269 C13.4505477,18.4388509 13.4089869,18.7656048 13.325864,19.0808984 C13.2427412,19.396192 13.1252244,19.6942833 12.9733103,19.9751812 C12.8213961,20.2560791 12.6379553,20.5126096 12.4229824,20.7447803 C12.2080095,20.976951 11.9686766,21.1818887 11.7049765,21.3595997 L9.82182343,18.1006269 L13.4505477,18.1006269 Z M9.53806063,22.013114 C9.19410401,22.013114 8.86448385,21.9715532 8.54919028,21.8884303 C8.2338967,21.8053075 7.93723856,21.6863576 7.65920696,21.5315771 C7.38117535,21.3767966 7.12464488,21.1919227 6.88960786,20.9769498 C6.65457083,20.7619769 6.44819995,20.5255103 6.27048902,20.2675428 L9.45207191,18.4273841 L11.2750329,21.6003681 C11.0170654,21.7322181 10.7404711,21.8339705 10.4452417,21.9056281 C10.1500123,21.9772857 9.8476216,22.013114 9.53806063,22.013114 Z M5.62557358,18.1006269 C5.62557358,17.5560289 5.72732588,17.0458343 5.93083355,16.5700276 C6.13434122,16.0942209 6.41380179,15.680046 6.76922364,15.3274905 C7.12464548,14.974935 7.53882038,14.6954744 8.01176074,14.4891004 C8.4847011,14.2827264 8.99346264,14.179541 9.53806063,14.179541 L9.53806063,17.8168641 L6.02972059,19.8375992 C5.89787055,19.5796317 5.79755137,19.3030374 5.72876005,19.007808 C5.65996872,18.7125786 5.62557358,18.4101879 5.62557358,18.1006269 Z" id="" fill="#FFA684"></path>
            </g>
        </g>
    </g>
</svg>
