<svg height="24" width="20" xmlns="http://www.w3.org/2000/svg">
    <g data-name="Work-Office-Companies / Office-Files / office-file-ppt">
        <g data-name="Group 171" fill="none" stroke="currentColor" stroke-linecap="round"
            stroke-linejoin="round">
            <path
                d="M18.5 23.5a1 1 0 0 0 1-1V6.473A5.975 5.975 0 0 0 13.525.5H1.5a1 1 0 0 0-1 1v21a1 1 0 0 0 1 1z"
                data-name="Shape 1122"/>
            <path d="M14.5.58v3.921a1 1 0 0 0 1 1h3.92" data-name="Shape 1123"/>
            <path d="M6.5 14A1.5 1.5 0 0 1 5 15.5H3.5v-3H5A1.5 1.5 0 0 1 6.5 14z"
                data-name="Shape 1124"/>
            <path d="M3.5 18.5v-3" data-name="Shape 1125"/>
            <path d="M11.5 14a1.5 1.5 0 0 1-1.5 1.5H8.5v-3H10a1.5 1.5 0 0 1 1.5 1.5z"
                data-name="Shape 1126"/>
            <path d="M8.5 18.5v-3" data-name="Shape 1127"/>
            <path d="M13.5 12.5h4" data-name="Shape 1128"/>
            <path d="M15.5 12.5v6" data-name="Shape 1129"/>
        </g>
    </g>
</svg>
