<?xml version="1.0" encoding="UTF-8"?>
<svg viewBox="0 0 46 48" version="1.1" xmlns="http://www.w3.org/2000/svg" xmlns:xlink="http://www.w3.org/1999/xlink">
    <g stroke="none" stroke-width="1" fill="none" fill-rule="evenodd">
        <g transform="translate(-523.000000, -1228.000000)" stroke="#263238">
            <g transform="translate(65.000000, 1150.500000)">
                <g transform="translate(30.000000, 21.000000)">
                    <g transform="translate(428.000000, 58.000000)">
                        <g transform="translate(0.632000, 2.329000)" stroke-linecap="round" stroke-linejoin="round">
                            <g>
                                <path d="M2.164,10.224 C4.73026805,5.6239124 8.77116788,2.02229442 13.635,-1.77635684e-15" id="Path_133"></path>
                                <path d="M1,12.635 C1.083,12.386 1.249,12.053 1.332,11.804" id="Path_134"></path>
                            </g>
                            <g transform="translate(31.424000, 28.536000)">
                                <path d="M11.471,3.411 C8.90473195,8.0110876 4.86383212,11.6127056 -7.10542736e-15,13.635" id="Path_135"></path>
                                <path d="M12.551,1 C12.468,1.249 12.302,1.582 12.219,1.831" id="Path_136"></path>
                            </g>
                        </g>
                        <g transform="translate(35.632000, 0.500000)" stroke-linecap="round" stroke-linejoin="round">
                            <g>
                                <line x1="0" y1="2" x2="3" y2="2" id="Line_3"></line>
                                <line x1="2" y1="0" x2="2" y2="3" id="Line_4"></line>
                            </g>
                            <g transform="translate(5.900000, 5.403000)">
                                <line x1="0" y1="1.662" x2="3.325" y2="1.662" id="Line_5"></line>
                                <line x1="1.662" y1="0" x2="1.662" y2="3.325" id="Line_6"></line>
                            </g>
                        </g>
                        <g transform="translate(7.451000, 6.094000)">
                            <polygon id="Path_137" fill="#FFD740" fill-rule="nonzero" points="4.113 23.211 0 27.321 0 32.165 9.939 32.165 11.505 30.599"></polygon>
                            <path d="M12.654,3.55698119 C12.3538684,3.55526121 12.0656194,3.67416393 11.854,3.887 L6.222,9.519 C4.53900057,11.2019442 3.56762972,13.4676407 3.509,15.847 C3.47862423,16.97027 3.11102838,18.0584234 2.454,18.97 L4.032,20.548 C4.3721279,19.9868974 4.56030048,19.3469038 4.578,18.691 C4.64913228,15.8449461 5.8120668,13.1352514 7.826,11.123 L13.451,5.497 C13.8956259,5.05125467 13.8956259,4.32974533 13.451,3.884 C13.2396176,3.67300677 12.9526598,3.55527128 12.654,3.55698119 L12.654,3.55698119 Z" id="Path_138"></path>
                            <path d="M22.299,25.593 L30.84,17.052 C31.2423386,16.604012 31.2239799,15.9195712 30.7982043,15.4937957 C30.3724288,15.0680201 29.687988,15.0496614 29.24,15.452 L23.64,21.052 L22.349,19.761 L30.487,11.623 C30.8893386,11.175012 30.8709799,10.4905712 30.4452043,10.0647957 C30.0194288,9.63902009 29.334988,9.62066136 28.887,10.023 L21.717,17.193 L20.426,15.902 L30.441,5.879 C30.8433386,5.43101196 30.8249799,4.74657123 30.3992043,4.32079566 C29.9734288,3.89502009 29.288988,3.87666136 28.841,4.279 L18.821,14.289 L17.529,12.999 L24.699,5.829 C25.1013386,5.38101196 25.0829799,4.69657123 24.6572043,4.27079566 C24.2314288,3.84502009 23.546988,3.82666136 23.099,4.229 L13.981,13.34 L12.69,12.049 L16.348,8.391 C16.7906346,7.94560291 16.7906346,7.22639709 16.348,6.781 C15.908316,6.34153923 15.195684,6.34153923 14.756,6.781 L14.749,6.788 L14.749,6.788 L9.127,12.41 C7.443914,14.0928855 6.47252758,16.3586184 6.414,18.738 C6.38362423,19.86127 6.01602838,20.9494234 5.359,21.861 L12.859,29.361 C13.7705766,28.7039716 14.85873,28.3363758 15.982,28.306 C18.361033,28.2472177 20.6263629,27.2758505 22.309,25.593 L22.299,25.593 Z" id="Path_139"></path>
                            <polygon id="Path_140" fill="#FFD740" fill-rule="nonzero" points="-0.001 24.74 2.821 21.918 1.221 20.318 -0.001 21.534"></polygon>
                            <path d="M25.029,2.292 C25.7533682,2.59211272 26.3288873,3.16763184 26.629,3.892 L27.54,2.981 L27.54,2.981 C27.9423386,2.53301196 27.9239799,1.84857123 27.4982043,1.42279566 C27.0724288,0.997020092 26.387988,0.978661363 25.94,1.381 L25.029,2.292 Z" id="Path_141"></path>
                            <path d="M20.207,1.332 L16.683,4.851 C17.4078899,5.15395861 17.9832087,5.73179443 18.283,6.458 L21.807,2.935 C22.1189503,2.65483705 22.2506717,2.22529992 22.1494089,1.81842143 C22.0481461,1.41154295 21.730457,1.09385388 21.3235786,0.992591072 C20.9167001,0.891328266 20.4871629,1.02304972 20.207,1.335 L20.207,1.332 Z" id="Path_142"></path>
                        </g>
                    </g>
                </g>
            </g>
        </g>
    </g>
</svg>
