<?xml version="1.0" encoding="UTF-8"?>
<svg viewBox="0 0 41 40" version="1.1" xmlns="http://www.w3.org/2000/svg" xmlns:xlink="http://www.w3.org/1999/xlink">
    <title>A0E40C44-E3B4-4659-B17B-4F53D8725887</title>
    <g id="Org-Admin" stroke="none" stroke-width="1" fill="none" fill-rule="evenodd">
        <g id="change-subscription-plan" transform="translate(-328.000000, -265.000000)">
            <g id="Group-5" transform="translate(57.000000, 62.000000)">
                <g id="Group-9" transform="translate(24.000000, 162.000000)">
                    <g id="Group-6" transform="translate(232.787489, 31.000000)">
                        <g id="premium-user" transform="translate(14.390289, 10.000000)">
                            <circle id="Oval-Copy" fill="#EEEEEE" cx="20" cy="20" r="20"></circle>
                            <g id="Group-3" transform="translate(9.230769, 9.846154)">
                                <path d="M16.4644039,9.82125389 C17.5968228,9.82125389 18.6453501,10.1802396 19.5024417,10.7905503 C19.9800407,11.1306605 20.3982165,11.5488364 20.7383267,12.0264354 C21.3486374,12.8835269 21.7076231,13.9320543 21.7076231,15.0644731 C21.7076231,17.9602448 19.3601756,20.3076923 16.4644039,20.3076923 C15.3319851,20.3076923 14.2834578,19.9487066 13.4263662,19.3383959 C12.9487672,18.9982857 12.5305913,18.5801098 12.1904812,18.1025108 C11.5801705,17.2454193 11.2211847,16.1968919 11.2211847,15.0644731 C11.2211847,12.1687014 13.5686322,9.82125389 16.4644039,9.82125389 Z M16.6496825,12.325478 C16.5269667,12.325478 16.4141403,12.3927926 16.3558535,12.5007825 L16.3558535,12.5007825 L15.7126853,13.8877052 L14.4605732,13.8877052 C14.3312744,13.8828777 14.212884,13.9598049 14.1647656,14.0799136 C14.1166472,14.2000224 14.1491773,14.3374118 14.2460447,14.4231918 L14.2460447,14.4231918 L15.3312085,15.4929129 L14.7301947,16.875662 C14.6761114,17.0053421 14.7107356,17.1550695 14.8162603,17.2478406 C14.921785,17.3406116 15.0747143,17.3557701 15.1963977,17.28552 L15.1963977,17.28552 L16.6488477,16.4670561 L18.1012977,17.28552 C18.2229812,17.3557701 18.3759104,17.3406116 18.4814351,17.2478406 C18.5869599,17.1550695 18.621584,17.0053421 18.5675007,16.875662 L18.5675007,16.875662 L17.966487,15.4929129 L19.0516507,14.4231918 C19.148215,14.3370662 19.1803568,14.1996114 19.1319956,14.079597 C19.0836343,13.9595825 18.9651697,13.8828164 18.8358701,13.8877052 L18.8358701,13.8877052 L17.5858449,13.8877052 L16.9435114,12.5007825 C16.8852246,12.3927926 16.7723982,12.325478 16.6496825,12.325478 Z" id="Combined-Shape" fill="#339BB2"></path>
                                <path d="M4.6606393,4.36934934 C4.6606393,1.95622178 6.61686108,0 9.02998864,0 C11.4431511,0 13.399338,1.95622178 13.399338,4.36934934 C13.399338,6.7824769 11.4431511,8.73869868 9.02998864,8.73869868 C6.61686108,8.73869868 4.6606393,6.7824769 4.6606393,4.36934934 Z" id="Path" fill="#858585" fill-rule="nonzero"></path>
                                <path d="M0,15.4383677 C0,13.0252052 1.95622178,11.0690183 4.36934934,11.0690183 L4.76651737,11.0690183 C4.98147771,11.0690183 5.19508646,11.103041 5.39943219,11.1696881 L6.40790132,11.4990788 C7.52820249,11.8648225 8.70592274,11.9900772 9.86552475,11.8748429 C10.0521834,11.8563168 10.1956145,12.0501994 10.1248893,12.2239247 C9.79456651,13.0362742 9.61256855,13.9248251 9.61256855,14.8557878 C9.61256855,16.3148009 10.0595239,17.6694157 10.8239852,18.7902995 C10.9307139,18.9467804 10.8281798,19.1665296 10.6388413,19.1730545 C7.58634396,19.2781519 4.52606334,19.0839197 1.50220561,18.5902415 C0.636037445,18.4487911 0,17.7005255 0,16.8229271 L0,15.4383677 Z" id="Path" fill="#858585" fill-rule="nonzero"></path>
                            </g>
                        </g>
                    </g>
                </g>
            </g>
        </g>
    </g>
</svg>
