<?xml version="1.0" encoding="UTF-8"?>
<svg viewBox="0 0 18 17" version="1.1" xmlns="http://www.w3.org/2000/svg" xmlns:xlink="http://www.w3.org/1999/xlink">
    <title>395FDFB0-6C24-4157-914D-C6296C1905B2</title>
    <g id="Org-Admin" stroke="none" stroke-width="1" fill="none" fill-rule="evenodd">
        <g id="Manage-People-" transform="translate(-232.000000, -546.000000)">
            <g id="Group-28" transform="translate(96.000000, 507.750192)">
                <g id="Group-6" transform="translate(0.000000, 39.000000)">
                    <g id="Group-3" transform="translate(136.833664, 0.000000)">
                        <path d="M12.9719546,7.73795761 C13.8641634,7.73795761 14.6902758,8.02079486 15.3655601,8.50164573 C15.7418502,8.7696113 16.0713221,9.09908319 16.3392877,9.47537332 C16.8201386,10.1506576 17.1029758,10.97677 17.1029758,11.8689788 C17.1029758,14.1504959 15.2534717,16 12.9719546,16 C12.0797458,16 11.2536334,15.7171627 10.5783491,15.2363119 C10.202059,14.9683463 9.87258711,14.6388744 9.60462154,14.2625843 C9.12377067,13.5873 8.84093342,12.7611876 8.84093342,11.8689788 C8.84093342,9.5874617 10.6904375,7.73795761 12.9719546,7.73795761 Z M13.1179316,9.71098266 C13.0212465,9.71098266 12.9323529,9.76401839 12.88643,9.84910134 L12.88643,9.84910134 L12.3796914,10.9418284 L11.3931789,10.9418284 C11.2913071,10.9380249 11.1980298,10.9986341 11.1601183,11.0932653 C11.1222069,11.1878964 11.1478367,11.2961427 11.2241564,11.3637269 L11.2241564,11.3637269 L12.0791339,12.2065374 L11.6056079,13.2959761 C11.5629969,13.3981483 11.5902765,13.5161154 11.6734172,13.5892077 C11.7565579,13.6623001 11.8770476,13.6742431 11.9729194,13.6188945 L11.9729194,13.6188945 L13.117274,12.9740442 L14.2616285,13.6188945 C14.3575003,13.6742431 14.47799,13.6623001 14.5611307,13.5892077 C14.6442714,13.5161154 14.6715511,13.3981483 14.62894,13.2959761 L14.62894,13.2959761 L14.155414,12.2065374 L15.0103915,11.3637269 C15.0864724,11.2958703 15.1117963,11.1875726 15.0736935,11.0930158 C15.0355907,10.9984589 14.9422549,10.9379766 14.8403825,10.9418284 L14.8403825,10.9418284 L13.8555142,10.9418284 L13.3494332,9.84910134 C13.3035103,9.76401839 13.2146168,9.71098266 13.1179316,9.71098266 Z" id="Combined-Shape" fill="#339BB2"></path>
                        <path d="M3.67201884,3.44251766 C3.67201884,1.54126565 5.21328449,0 7.1145365,0 C9.01581606,0 10.5570542,1.54126565 10.5570542,3.44251766 C10.5570542,5.34376968 9.01581606,6.88503532 7.1145365,6.88503532 C5.21328449,6.88503532 3.67201884,5.34376968 3.67201884,3.44251766 Z" id="Path" fill="#858585" fill-rule="nonzero"></path>
                        <path d="M0,12.1635624 C0,10.2622829 1.54126565,8.72104474 3.44251766,8.72104474 L3.75543793,8.72104474 C3.92480062,8.72104474 4.09309842,8.74785048 4.25409809,8.80036035 L5.04864952,9.05988028 C5.93131105,9.34804196 6.85921185,9.44672747 7.77283768,9.3559368 C7.91990203,9.34134053 8.03290841,9.49409651 7.97718553,9.63097101 C7.71693119,10.2710039 7.57353886,10.9710743 7.57353886,11.7045601 C7.57353886,12.8540855 7.92568546,13.9213578 8.52798835,14.8044784 C8.61207759,14.9277664 8.53129317,15.1009021 8.38211741,15.1060429 C5.97711949,15.1888469 3.5659893,15.0358155 1.18355593,14.6468569 C0.501120411,14.5354112 0,13.9458686 0,13.2544274 L0,12.1635624 Z" id="Path" fill="#858585" fill-rule="nonzero"></path>
                    </g>
                </g>
            </g>
        </g>
    </g>
</svg>
