<?xml version="1.0" encoding="UTF-8"?>
<svg width="168px" height="120px" viewBox="0 0 168 120" version="1.1" xmlns="http://www.w3.org/2000/svg" xmlns:xlink="http://www.w3.org/1999/xlink">
    <title>118149BD-C620-47E6-B63E-D997199BBC07</title>
    <g id="Courses-for-Basic-users" stroke="none" stroke-width="1" fill="none" fill-rule="evenodd">
        <g id="Premium-Course-Modal" transform="translate(-566.000000, -457.000000)">
            <g id="Group" transform="translate(500.000000, 373.000000)">
                <g id="pemium-course" transform="translate(66.000000, 84.000000)">
                    <rect id="Rectangle" fill="#415C6B" x="0" y="16.9232136" width="151.855556" height="102.838889"></rect>
                    <g id="Group-41" transform="translate(20.183333, 35.184325)" fill-rule="nonzero">
                        <path d="M56.7055556,0 C44.0188889,0 33.6388889,10.38 33.6388889,23.0666667 C33.6388889,35.7533333 44.0188889,46.1333333 56.7055556,46.1333333 C69.3922222,46.1333333 79.7722222,35.7533333 79.7722222,23.0666667 C79.7722222,10.38 69.3922222,0 56.7055556,0 L56.7055556,0 Z" id="Path" fill="#FFFFFF"></path>
                        <path d="M52.6158373,14.8347863 C51.050406,13.8920739 49.0555556,15.0193314 49.0555556,16.8464613 L49.0555556,32.2479836 C49.0555556,34.0751135 51.0507392,35.202371 52.6158373,34.2596586 L65.4018028,26.559064 C66.917596,25.6459987 66.917596,23.4484462 65.4018028,22.5353809 L52.6158373,14.8347863 Z" id="Path" fill="#339BB2"></path>
                        <path d="M81.6944444,59.6277778 L4.85327857,59.6277778 C2.17308972,59.6277778 0,61.4185287 0,63.6277778 C0,65.8367496 2.17275322,67.6277778 4.85327857,67.6277778 L81.6944444,67.6277778 L81.6944444,59.6277778 Z" id="Path" fill="#339BB2"></path>
                        <path d="M107.774175,59.6277778 L83.6166667,59.6277778 L83.6166667,67.6277778 L107.774175,67.6277778 C110.356367,67.6277778 112.45,65.8369648 112.45,63.6276391 C112.449676,61.4185907 110.356367,59.6277778 107.774175,59.6277778 Z" id="Path" fill="#FFFFFF"></path>
                        <path d="M84.5777777,74.0055556 C82.4545258,74.0055556 80.7333333,72.7294901 80.7333333,71.1553441 L80.7333333,54.7502115 C80.7333333,53.1760654 82.4545258,51.9 84.5777777,51.9 C86.7010296,51.9 88.4222222,53.1760654 88.4222222,54.7502115 L88.4222222,71.1553441 C88.4227197,72.7294901 86.7010296,74.0055556 84.5777777,74.0055556 Z" id="Path" fill="#339BB2"></path>
                    </g>
                    <g id="Group-40" transform="translate(126.672222, 0.000000)">
                        <circle id="Oval-Copy-3" fill="#339BB2" fill-rule="nonzero" cx="20.6638889" cy="20.6638889" r="20.6638889"></circle>
                        <g id="Group-33" transform="translate(6.727778, 9.389880)" fill="#FFFFFF">
                            <g id="Group-30">
                                <ellipse id="Oval" cx="2.08348631" cy="4.76412835" rx="2.08348631" ry="2.04176929"></ellipse>
                                <ellipse id="Oval" cx="26.1201535" cy="4.76412835" rx="2.08348631" ry="2.04176929"></ellipse>
                                <path d="M4.64210462,19.0565134 L2.23663566,6.1889692 C2.23663566,6.1889692 3.46698544,12.1459096 8.16746217,12.1459096 C12.8679389,12.1459096 14.0430581,4.08353859 14.0430581,4.08353859 C14.0430581,4.08353859 15.2181773,12.1459096 19.918654,12.1459096 C24.6191307,12.1459096 25.8494805,6.27995882 25.8494805,6.27995882 L23.4440115,19.0565134 L4.64210462,19.0565134 Z" id="Shape"></path>
                                <ellipse id="Oval" cx="14.0430581" cy="2.04176929" rx="2.08348631" ry="2.04176929"></ellipse>
                            </g>
                            <rect id="Rectangle" x="4.57356322" y="20.5810345" width="19.0565134" height="1.52452107" rx="0.762260536"></rect>
                        </g>
                    </g>
                </g>
            </g>
        </g>
    </g>
</svg>