<svg xmlns="http://www.w3.org/2000/svg" viewBox="0 0 24 24">
    <g data-name="Group 441" fill="none" stroke="currentColor" stroke-linecap="round" stroke-linejoin="round" stroke-miterlimit="10">
        <path d="M23.046 11.7a1 1 0 0 0-.982-1.2h-11.86a1 1 0 0 1-.981-.8l-.277-1.4a1 1 0 0 0-.981-.8H1.504a1 1 0 0 0-.98 1.2l2.6 13a1 1 0 0 0 .98.8h15.96a1 1 0 0 0 .981-.8l2.001-10z"/><path data-name="Path" d="M4.285 5.5v-4a1 1 0 0 1 1-1h13a1 1 0 0 1 1 1v7M7.285 3.499h8.5M11.285 6.499h4.5"/>
    </g>
</svg>
