<svg xmlns="http://www.w3.org/2000/svg" viewBox="0 0 18 24"><g data-name="Group 664" transform="translate(-12286.5 -1419)" stroke="currentColor" stroke-linecap="round" stroke-linejoin="round" stroke-miterlimit="10" fill="none"><circle cx="3.25" cy="3.25" r="3.25" transform="translate(12292.199 1428.5)"/><path d="M12300.506 1439.999a5.321 5.321 0 00-10 0" stroke-width=".989"/><path data-name="Shape" d="M12295.5 1421.5a.25.25 0 11-.25.25.25.25 0 01.25-.25M12298 1423.5h5a1 1 0 011 1v17a1 1 0 01-1 1h-15a1 1 0 01-1-1v-17a1 1 0 011-1h5"/><path data-name="Shape" d="M12298 1425a.5.5 0 01-.5.5h-4a.5.5 0 01-.5-.5v-3a2.5 2.5 0 015 0z"/></g></svg>
