<svg viewBox="0 0 18 17" fill="none" xmlns="http://www.w3.org/2000/svg">
    <path d="M0.0349009 13.4794C0.172525 15.3374 5.91618 15.2694 8.69244 15.1233C7.37737 13.7205 7.52349 10.7032 7.81572 9.42465C6.0623 9.42465 4.52805 8.76712 3.65134 8.76712C0.582847 8.76712 -0.184278 10.5205 0.0349009 13.4794Z" fill="#7A7A7A"/>
    <circle cx="7.0486" cy="3.50685" r="3.50685" fill="#7A7A7A"/>
    <path fill-rule="evenodd" clip-rule="evenodd" d="M9 12.6187C9 12.2873 9.26863 12.0187 9.6 12.0187H11.6096C11.941 12.0187 12.2096 12.2873 12.2096 12.6187C12.2096 12.9501 11.941 13.2187 11.6096 13.2187H10.2V14.6261C10.2 14.9575 9.93137 15.2261 9.6 15.2261C9.26863 15.2261 9 14.9575 9 14.6261V12.6187Z" fill="#3192A8"/>
    <path fill-rule="evenodd" clip-rule="evenodd" d="M9.88362 12.0212C10.2133 11.9876 10.5078 12.2276 10.5414 12.5572C10.6015 13.1462 10.8613 13.6971 11.278 14.1184C11.6948 14.5397 12.2433 14.8061 12.8326 14.8733C13.4219 14.9404 14.0165 14.8043 14.5176 14.4875C15.0187 14.1707 15.3961 13.6923 15.5874 13.132C15.6945 12.8184 16.0355 12.651 16.3491 12.758C16.6627 12.8651 16.8301 13.2061 16.7231 13.5197C16.4432 14.3394 15.8912 15.0388 15.1588 15.5018C14.4265 15.9648 13.5577 16.1637 12.6967 16.0655C11.8357 15.9674 11.0341 15.5782 10.4249 14.9622C9.81564 14.3463 9.43547 13.5406 9.34759 12.679C9.31397 12.3493 9.55396 12.0548 9.88362 12.0212Z" fill="#3192A8"/>
    <path fill-rule="evenodd" clip-rule="evenodd" d="M16.49 8.8642C16.8214 8.8642 17.09 9.13283 17.09 9.4642V11.4716C17.09 11.803 16.8214 12.0716 16.49 12.0716H14.4804C14.149 12.0716 13.8804 11.803 13.8804 11.4716C13.8804 11.1402 14.149 10.8716 14.4804 10.8716H15.89V9.4642C15.89 9.13283 16.1586 8.8642 16.49 8.8642Z" fill="#3192A8"/>
    <path fill-rule="evenodd" clip-rule="evenodd" d="M13.257 9.21669C12.6677 9.14964 12.0732 9.28589 11.5722 9.60273C11.0712 9.91956 10.6938 10.3979 10.5026 10.9582C10.3955 11.2718 10.0545 11.4393 9.74092 11.3322C9.42731 11.2252 9.25986 10.8842 9.36691 10.5706C9.6467 9.75092 10.1986 9.05159 10.9308 8.58851C11.6631 8.12545 12.5317 7.92643 13.3927 8.02438C14.2536 8.12233 15.0553 8.51139 15.6646 9.12715C16.2739 9.74293 16.6543 10.5484 16.7424 11.41C16.7761 11.7396 16.5362 12.0342 16.2065 12.0679C15.8769 12.1016 15.5823 11.8617 15.5486 11.5321C15.4884 10.9431 15.2284 10.3924 14.8116 9.97121C14.3948 9.55002 13.8463 9.28373 13.257 9.21669Z" fill="#3192A8"/>
</svg>
