<svg xmlns="http://www.w3.org/2000/svg" viewBox="0 0 24 24">
  <g fill="none" stroke="currentColor" stroke-linecap="round" stroke-linejoin="round">
    <path data-name="Rectangle-path 142" d="M.5 1.5a1 1 0 011-1h21a1 1 0 011 1v21a1 1 0 01-1 1h-21a1 1 0 01-1-1z"/>
    <path data-name="Shape 2468" d="M6.5 6.5h4"/>
    <path data-name="Shape 2469" d="M3.5 10.5h7"/>
    <path data-name="Shape 2470" d="M3.5 14.5h17"/>
    <path data-name="Shape 2471" d="M3.5 18.5h12"/>
    <path data-name="Rectangle-path 143" d="M13.5 5a.5.5 0 01.5-.5h6a.5.5 0 01.5.5v6a.5.5 0 01-.5.5h-6a.5.5 0 01-.5-.5z"/>
  </g>
</svg>
