<?xml version="1.0" encoding="UTF-8"?>
<svg viewBox="0 0 78 96" version="1.1" xmlns="http://www.w3.org/2000/svg">
    <title>Group 32</title>
    <g id="Page-1" fill="none" fill-rule="evenodd">
        <g id="Group-32" fill="#E3E3E3" fill-rule="nonzero">
            <path d="M70.5,12.2105263 L54,12.2105263 L54,9.15789474 C54,4.10006579 49.970625,0 45,0 L33,0 C28.029375,0 24,4.10006579 24,9.15789474 L24,12.2105263 L7.5,12.2105263 C3.3579375,12.2105263 0,15.627375 0,19.8421053 L0,25.9473684 C0,27.633375 1.3430625,29 3,29 L75,29 C76.6569375,29 78,27.633375 78,25.9473684 L78,19.8421053 C78,15.627375 74.6420625,12.2105263 70.5,12.2105263 Z M30,9.15789474 C30,7.47513158 31.34625,6.10526316 33,6.10526316 L45,6.10526316 C46.65375,6.10526316 48,7.47513158 48,9.15789474 L48,12.2105263 L30,12.2105263 L30,9.15789474 Z" id="Shape"></path>
            <path d="M5.93077615,35 C5.39928122,35 4.97576074,35.4437378 5.00107889,35.9741402 L7.45842849,87.4971951 C7.68554717,92.2656098 11.6061368,96 16.3830755,96 L61.6169245,96 C66.3938632,96 70.3144528,92.2656098 70.5415715,87.4971951 L72.9989211,35.9741402 C73.0242393,35.4437378 72.6007188,35 72.0692238,35 L5.93077615,35 Z M50.9144223,42.4390244 C50.9144223,40.795 52.2473483,39.4634146 53.8930279,39.4634146 C55.5387075,39.4634146 56.8716335,40.795 56.8716335,42.4390244 L56.8716335,81.1219512 C56.8716335,82.7659756 55.5387075,84.097561 53.8930279,84.097561 C52.2473483,84.097561 50.9144223,82.7659756 50.9144223,81.1219512 L50.9144223,42.4390244 Z M36.0213944,42.4390244 C36.0213944,40.795 37.3543204,39.4634146 39,39.4634146 C40.6456796,39.4634146 41.9786056,40.795 41.9786056,42.4390244 L41.9786056,81.1219512 C41.9786056,82.7659756 40.6456796,84.097561 39,84.097561 C37.3543204,84.097561 36.0213944,82.7659756 36.0213944,81.1219512 L36.0213944,42.4390244 Z M21.1283665,42.4390244 C21.1283665,40.795 22.4612925,39.4634146 24.1069721,39.4634146 C25.7526517,39.4634146 27.0855777,40.795 27.0855777,42.4390244 L27.0855777,81.1219512 C27.0855777,82.7659756 25.7526517,84.097561 24.1069721,84.097561 C22.4612925,84.097561 21.1283665,82.7659756 21.1283665,81.1219512 L21.1283665,42.4390244 Z" id="Shape"></path>
        </g>
    </g>
</svg>
