<svg xmlns="http://www.w3.org/2000/svg" viewBox="0 0 21.08 21.08">
  <g data-name="Group 1278">
    <g data-name="Group 1277" fill="none" stroke="currentColor" stroke-linecap="round" stroke-linejoin="round">
      <path data-name="Shape 711" d="M.5 20.58V.5"/>
      <path data-name="Shape 712" d="M.5 17.09a19.03 19.03 0 015.24-.88c2.62 0 6.55 1.75 9.16 1.75a16.15 16.15 0 005.11-1.09.87.87 0 00.57-.82V3.94a.87.87 0 00-1.15-.83A15.14 15.14 0 0114.9 4C12.3 4 8.36 2.25 5.74 2.25a19.03 19.03 0 00-5.24.87z"/>
      <path data-name="Shape 713" d="M10.98 11.85V6.6"/>
      <path data-name="Shape 714" d="M10.97 13.6a.21.21 0 00-.15.06.21.21 0 00-.06.16.22.22 0 00.22.21h0a.21.21 0 00.15-.07.21.21 0 00.06-.15.22.22 0 00-.21-.22"/>
      <path data-name="Shape 715" d="M10.98 13.6h0"/>
    </g>
  </g>
</svg>
