<?xml version="1.0" encoding="UTF-8"?>
<svg viewBox="0 0 20 24" version="1.1" xmlns="http://www.w3.org/2000/svg" xmlns:xlink="http://www.w3.org/1999/xlink">
    <g stroke="none" stroke-width="1" fill="none" fill-rule="evenodd" stroke-linecap="round" stroke-linejoin="round">
        <g transform="translate(-980.000000, -398.000000)" stroke="currentColor">
            <g transform="translate(980.000000, 398.000000)">
                <path d="M18.5,23.5 C19.0522847,23.5 19.5,23.0522847 19.5,22.5 L19.5,6.475 C19.5,3.17509862 16.8249014,0.5 13.525,0.5 L1.5,0.5 C0.94771525,0.5 0.5,0.94771525 0.5,1.5 L0.5,22.5 C0.5,23.0522847 0.94771525,23.5 1.5,23.5 L18.5,23.5 Z" id="Path"></path>
                <path d="M14.5,0.58 L14.5,4.5 C14.5,5.05228475 14.9477153,5.5 15.5,5.5 L19.42,5.5" id="Path"></path>
                <path d="M7.5,18.5 L5,18.5 C4.81572414,18.4999048 4.64643768,18.3984578 4.55945928,18.2360006 C4.47248088,18.0735433 4.48191114,17.8764127 4.584,17.723 L7.416,13.277 C7.51808886,13.1235873 7.52751912,12.9264567 7.44054072,12.7639994 C7.35356232,12.6015422 7.18427586,12.5000952 7,12.5 L4.5,12.5" id="Path"></path>
                <line x1="10.5" y1="12.5" x2="10.5" y2="18.5" id="Path"></line>
                <line x1="9.5" y1="18.5" x2="11.5" y2="18.5" id="Path"></line>
                <line x1="9.5" y1="12.5" x2="11.5" y2="12.5" id="Path"></line>
                <path d="M16.5,14 C16.5,14.8284271 15.8284271,15.5 15,15.5 L13.5,15.5 L13.5,12.5 L15,12.5 C15.8284271,12.5 16.5,13.1715729 16.5,14 L16.5,14 Z" id="Path"></path>
                <line x1="13.5" y1="18.5" x2="13.5" y2="15.5" id="Path"></line>
            </g>
        </g>
    </g>
</svg>
