<?xml version="1.0" encoding="UTF-8"?>
<svg viewBox="0 0 40 40" version="1.1" xmlns="http://www.w3.org/2000/svg" xmlns:xlink="http://www.w3.org/1999/xlink">
    <g stroke="none" stroke-width="1" fill="none" fill-rule="evenodd">
        <g>
            <path d="M20,0 C8.9544,0 0,8.9544 0,20 C0,31.0456 8.9544,40 20,40 C31.0456,40 40,31.0456 40,20 C40,8.9544 31.0456,0 20,0 Z" id="Path" fill="#E37948" fill-rule="nonzero"></path>
            <path d="M31,31.1724138 C31,31.629477 30.5895944,32 30.0833333,32 L9.91666667,32 C9.41040565,32 9,31.629477 9,31.1724138 L9,9.76470588 C9,9.34237049 9.41040565,9 9.91666667,9 L30.0833333,9 C30.5895944,9 31,9.34237049 31,9.76470588 L31,31.1724138 Z" id="Combined-Shape" fill="#FFFFFF" fill-rule="nonzero"></path>
            <rect id="Rectangle" fill="#26A6D1" x="11" y="22" width="18" height="1" rx="0.5"></rect>
            <rect id="Rectangle" fill="#26A6D1" x="11" y="24" width="18" height="1" rx="0.5"></rect>
            <rect id="Rectangle" fill="#26A6D1" x="11" y="26" width="5" height="1" rx="0.5"></rect>
            <rect id="Rectangle" fill="#26A6D1" x="11" y="11" width="18" height="9"></rect>
            <path d="M20.6124512,13.295 C21.0444806,13.295 21.3948512,13.6600917 21.3948512,14.1102174 C21.3948512,14.5603431 21.0444566,14.9254348 20.6124512,14.9254348 C20.1803018,14.9254348 19.8300511,14.5603431 19.8300511,14.1102174 C19.8300511,13.6600917 20.1803018,13.295 20.6124512,13.295 Z" id="Path" fill="#FFFFFF" fill-rule="nonzero"></path>
            <path d="M22.1060743,18.295 L19.5782613,18.295 L17.1630673,18.295 C16.9460868,18.295 16.849453,18.1303684 16.9472664,17.9272612 L18.2955649,15.1266802 C18.3932579,14.9235983 18.5794477,14.9054714 18.7113019,15.0861597 L20.0670635,16.9441924 C20.1989177,17.124906 20.4293799,17.140281 20.5819139,16.978376 L20.9135839,16.6261637 C21.0659975,16.4642587 21.2905614,16.4843043 21.4149527,16.6706479 L22.2737991,17.9571782 C22.3979497,18.1437994 22.3230549,18.295 22.1060743,18.295 Z" id="Path" fill="#FFFFFF" fill-rule="nonzero"></path>
        </g>
    </g>
</svg>
