<svg xmlns="http://www.w3.org/2000/svg" viewBox="0 0 24 24"><g transform="translate(17782 12406)"><path d="M529.137,3558.274a5.137,5.137,0,1,0-5.137-5.137A5.137,5.137,0,0,0,529.137,3558.274Z" transform="translate(-18300 -15948)" fill="none" stroke="#339BB2" stroke-linecap="round" stroke-linejoin="round" stroke-width="1"/><path d="M532.769,3556.77,536,3560" transform="translate(-18300 -15948)" fill="none" stroke="#339BB2" stroke-linecap="round" stroke-linejoin="round" stroke-width="1"/><path d="M518.5,3544.5a2,2,0,0,1,2-2h19a2,2,0,0,1,2,2v19a2,2,0,0,1-2,2h-19a2,2,0,0,1-2-2Z" transform="translate(-18300 -15948)" fill="none" stroke="#339BB2" stroke-linecap="round" stroke-linejoin="round" stroke-width="1"/></g></svg>
