<svg xmlns="http://www.w3.org/2000/svg" viewBox="0 0 23 24">
  <g data-name="Group 922" fill="none" stroke="currentColor" stroke-linecap="round" stroke-linejoin="round" stroke-miterlimit="10">
    <path d="M10.714.5a3.636 3.636 0 013.637 3.636c0 1.6-2.3 4.683-3.244 5.876a.5.5 0 01-.785 0c-.943-1.193-3.243-4.278-3.243-5.876A3.635 3.635 0 0110.714.5z"/>
    <path data-name="Path" d="M12.079 4.136a1.364 1.364 0 11-1.365-1.363 1.364 1.364 0 011.365 1.363zM19.714 7.5a3.273 3.273 0 013.274 3.273c0 1.417-2.01 4.13-2.88 5.238a.5.5 0 01-.787 0c-.87-1.111-2.879-3.821-2.879-5.238A3.272 3.272 0 0119.714 7.5z"/>
    <path data-name="Path" d="M20.942 10.773a1.227 1.227 0 11-.36-.868 1.227 1.227 0 01.36.868zM8.803 15.319c-.368 2.2-4.087 5.95-4.087 8.181 0-2.231-3.626-5.621-4.093-8.181A3.919 3.919 0 014.716 10.5a3.916 3.916 0 014.087 4.819z"/>
    <path data-name="Path" d="M6.585 14.407a1.872 1.872 0 11-.546-1.324 1.873 1.873 0 01.546 1.324zM11.632 12l4.907 3.27M7.267 22.31l9.947-4.643"/>
  </g>
</svg>
