<?xml version="1.0" encoding="UTF-8"?>
<svg viewBox="0 0 22 24" version="1.1" xmlns="http://www.w3.org/2000/svg" xmlns:xlink="http://www.w3.org/1999/xlink">
    <g stroke="none" stroke-width="1" fill="none" fill-rule="evenodd" stroke-linecap="round" stroke-linejoin="round">
        <g stroke="#000000">
            <path d="M10.0000001,12.5 C6.68629154,12.5 4.00000009,9.81370846 4.00000009,6.5 C4.00000009,3.18629154 6.68629154,0.5 10.0000001,0.5 L10.0000001,12.5 Z" id="Path"></path>
            <path d="M0.5,23.5 C0.5,18.2532949 4.75329488,14 10,14 L10,23.5 L0.5,23.5 Z" id="Path"></path>
            <path d="M12,12.5 C12.3352624,12.4979917 12.6697666,12.4678863 13,12.41 L13,10.88 C13.4918598,10.7671682 13.960903,10.5713672 14.387,10.301 L15.473,11.387 C16.020026,10.9979804 16.4979804,10.520026 16.887,9.973 L15.8,8.887 C16.0707179,8.46097007 16.2668585,7.99192343 16.38,7.5 L17.91,7.5 C17.9678863,7.16976662 17.9979917,6.8352624 18,6.5 C17.9979917,6.1647376 17.9678863,5.83023338 17.91,5.5 L16.38,5.5 C16.2668585,5.00807657 16.0707179,4.53902993 15.8,4.113 L16.886,3.027 C16.4969804,2.47997403 16.019026,2.00201958 15.472,1.613 L14.387,2.7 C13.9609701,2.42928214 13.4919234,2.23314151 13,2.12 L13,0.59 C12.6697666,0.532113655 12.3352624,0.502008275 12,0.5" id="Path"></path>
            <path d="M12,4.5 C13.1045695,4.5 14,5.3954305 14,6.5 C14,7.6045695 13.1045695,8.5 12,8.5" id="Path"></path>
            <path d="M21.5,23.5 C21.4963937,22.9973493 21.4529241,22.4957765 21.37,22 L19.349,22 C19.2153899,21.3512432 18.9954318,20.7233201 18.695,20.133 L20.166,18.663 C19.4778601,17.5019591 18.5511024,16.5002154 17.447,15.724 L16.005,17.167 C15.3860347,16.7732622 14.7120114,16.4736589 14.005,16.278 L14.005,14.215 C13.3461341,14.0727322 12.6740504,14.0006634 12,14" id="Path"></path>
            <path d="M12,19.5 C14.209139,19.5 16,21.290861 16,23.5" id="Path"></path>
        </g>
    </g>
</svg>
