<svg xmlns="http://www.w3.org/2000/svg" viewBox="0 0 24 24">
    <g data-name="Group 840" fill="none" stroke="currentColor" stroke-linecap="round" stroke-linejoin="round">
    <path data-name="Oval 115" d="M16.752 18.474a1.437 1.437 0 10-1.437-1.437 1.437 1.437 0 001.437 1.437z"/>
    <path data-name="Shape 1564" d="M17.971 11.475l.424 1.392a.951.951 0 001.124.653l1.412-.327a1.282 1.282 0 011.221 2.125l-.981 1.065a.962.962 0 000 1.306l.988 1.064a1.283 1.283 0 01-1.221 2.126l-1.412-.327a.951.951 0 00-1.124.653l-.431 1.4a1.275 1.275 0 01-2.442 0l-.424-1.392a.951.951 0 00-1.125-.653l-1.411.327a1.283 1.283 0 01-1.221-2.126l.988-1.064a.964.964 0 000-1.306l-.988-1.065a1.282 1.282 0 011.223-2.128l1.411.327a.951.951 0 001.125-.653l.424-1.392a1.275 1.275 0 012.44 0z"/><path data-name="Shape 1565" d="M.5 4.503h20"/>
    <path data-name="Shape 1566" d="M3.5 2.25a.25.25 0 10.25.25.25.25 0 00-.25-.25"/>
    <path data-name="Shape 1567" d="M5.5 2.25a.25.25 0 10.25.25.25.25 0 00-.25-.25"/>
    <path data-name="Shape 1568" d="M7.5 2.25a.25.25 0 10.25.25.25.25 0 00-.25-.25"/>
    <path data-name="Shape 1569" d="M8.5 16.503h-6a2 2 0 01-2-2v-12a2 2 0 012-2h16a2 2 0 012 2v8"/>
    </g>
</svg>