<?xml version="1.0" encoding="UTF-8"?>
<svg viewBox="0 0 72 60" version="1.1" xmlns="http://www.w3.org/2000/svg" xmlns:xlink="http://www.w3.org/1999/xlink">
    <title>D425A08E-3CB6-449A-A109-BAD70A2E3E9E</title>
    <g id="Iteration-2" stroke="none" stroke-width="1" fill="none" fill-rule="evenodd">
        <g id="Course-Sharing-Index" transform="translate(-597.000000, -275.000000)">
            <g id="shared-feature" transform="translate(597.000000, 275.000000)">
                <path d="M10.5,6.39488462e-14 L60.75,6.39488462e-14 C66.5489899,6.39488462e-14 71.25,4.70101013 71.25,10.5 L71.25,49.5 C71.25,55.2989899 66.5489899,60 60.75,60 L10.5,60 C4.70101013,60 0,55.2989899 0,49.5 L0,10.5 C0,4.70101013 4.70101013,6.39488462e-14 10.5,6.39488462e-14 Z" id="Rectangle-Copy-12" fill="#F3F3F3"></path>
                <path d="M6.75,2.13162821e-14 L64.5,2.13162821e-14 C68.2279221,2.13162821e-14 71.25,3.02207794 71.25,6.75 L71.25,13.5 L0,13.5 L0,6.75 C0,3.02207794 3.02207794,2.13162821e-14 6.75,2.13162821e-14 Z" id="Rectangle-Copy-13" fill="#D8D8D8"></path>
                <circle id="Oval-Copy-14" fill="#FFFFFF" cx="64" cy="6.76315789" r="1.57894737"></circle>
                <circle id="Oval-Copy-15" fill="#FFFFFF" cx="58.2105263" cy="6.76315789" r="1.57894737"></circle>
                <circle id="Oval-Copy-16" fill="#FFFFFF" cx="52.4210526" cy="6.76315789" r="1.57894737"></circle>
                <g id="Group-4" transform="translate(22.184211, 22.921053)">
                    <path d="M0,10.4248446 C0,9.59870923 0.67824782,8.92899418 1.50717138,8.92899418 L16.350817,8.92899418 C17.1832048,8.92899418 17.8579884,9.59534292 17.8579884,10.4248446 L17.8579884,24.9778341 C17.8579884,25.8039695 17.1797405,26.4736845 16.350817,26.4736845 L1.50717138,26.4736845 C0.67478361,26.4736845 0,25.8073358 0,24.9778341 L0,10.4248446 Z" id="bg-copy-4" fill="#9F9C9C"></path>
                    <path d="M8.92899418,1.49585043 C8.92899418,0.669715049 9.607242,-2.66453526e-15 10.4361656,-2.66453526e-15 L25.2798112,-2.66453526e-15 C26.1121989,-2.66453526e-15 26.7869825,0.666348736 26.7869825,1.49585043 L26.7869825,16.0488399 C26.7869825,16.8749753 26.1087347,17.5446903 25.2798112,17.5446903 L10.4361656,17.5446903 C9.60377779,17.5446903 8.92899418,16.8783416 8.92899418,16.0488399 L8.92899418,1.49585043 Z" id="bg-copy-6" fill="#FFFFFF"></path>
                    <path d="M0.892899418,9.53194519 C0.892899418,8.70580981 1.57114724,8.03609476 2.40007079,8.03609476 L17.2437164,8.03609476 C18.0761042,8.03609476 18.7508878,8.7024435 18.7508878,9.53194519 L18.7508878,24.0849347 C18.7508878,24.91107 18.07264,25.5807851 17.2437164,25.5807851 L2.40007079,25.5807851 C1.56768303,25.5807851 0.892899418,24.9144363 0.892899418,24.0849347 L0.892899418,9.53194519 Z" id="bg-copy-5" fill="#D8D8D8"></path>
                    <g id="Group" transform="translate(3.392564, 11.597144)" fill="#FFFFFF" fill-rule="nonzero">
                        <path d="M7.24795896,1.3813753 C8.1192792,0.650250807 9.40049573,0.728702933 10.1772178,1.53673285 L10.2755932,1.64625897 L10.9987293,2.50805897 C11.7298538,3.37937921 11.6514017,4.66059574 10.8433717,5.43731784 L10.7338456,5.53569324 L9.01024562,6.98196536 C8.81498039,7.14581234 8.52386242,7.12034282 8.36001544,6.92507759 C8.21437368,6.7515085 8.21831533,6.50220391 8.35813031,6.33387074 L8.41690321,6.27484741 L10.1405032,4.82857529 C10.6267594,4.4205579 10.7166114,3.71541435 10.3673344,3.20149162 L10.2916113,3.10140138 L9.56847528,2.23960138 C9.16045789,1.75334519 8.45531434,1.66349317 7.94139161,2.01277014 L7.84130137,2.08849324 L6.11770137,3.53476537 C5.92243614,3.69861235 5.63131818,3.67314283 5.4674712,3.4778776 C5.32182943,3.3043085 5.32577108,3.05500391 5.46558606,2.88667075 L5.52435896,2.82764742 L7.24795896,1.3813753 Z" id="Path"></path>
                        <path d="M3.36985897,4.63548757 C3.5651242,4.47164059 3.85624216,4.49711011 4.02008915,4.69237534 C4.16573091,4.86594443 4.16178926,5.11524902 4.02197428,5.28358218 L3.96320138,5.34260552 L2.23960138,6.78887764 C1.75334519,7.19689503 1.66349317,7.90203858 2.01277014,8.41596131 L2.08849324,8.51605155 L2.8116293,9.37785155 C3.21964669,9.86410773 3.92479025,9.95395976 4.43871298,9.60468279 L4.53880322,9.52895969 L6.26240321,8.08268756 C6.45766844,7.91884058 6.74878641,7.9443101 6.91263339,8.13957533 C7.05827515,8.31314443 7.0543335,8.56244902 6.91451852,8.73078218 L6.85574562,8.78980551 L5.13214562,10.2360776 C4.26082539,10.9672021 2.97960885,10.88875 2.20288675,10.0807201 L2.10451136,9.97119396 L1.3813753,9.10939396 C0.650250807,8.23807372 0.728702933,6.95685719 1.53673285,6.18013509 L1.64625897,6.08175969 L3.36985897,4.63548757 Z" id="Path"></path>
                        <path d="M8.2452462,3.47312568 C8.44051143,3.3092787 8.73972627,3.34439771 8.91356126,3.55156618 C9.06808125,3.73571594 9.07152361,3.99382044 8.93323991,4.16397851 L8.87475838,4.22334909 L4.35030839,8.01981341 C4.15504316,8.18366039 3.85582831,8.14854138 3.68199332,7.94137291 C3.52747333,7.75722316 3.52403098,7.49911865 3.66231467,7.32896058 L3.72079621,7.26959 L8.2452462,3.47312568 Z" id="Path"></path>
                    </g>
                </g>
            </g>
        </g>
    </g>
</svg>
