<?xml version="1.0" encoding="UTF-8"?>
<svg viewBox="0 0 22 23" version="1.1" xmlns="http://www.w3.org/2000/svg" xmlns:xlink="http://www.w3.org/1999/xlink">
    <g stroke="none" stroke-width="1" fill="none" fill-rule="evenodd" stroke-linecap="round" stroke-linejoin="round">
        <g transform="translate(-115.000000, -306.000000)" stroke="#339BB2">
            <g transform="translate(115.500000, 306.500000)">
                <line x1="1.91304348" y1="1.91304348" x2="17.2173913" y2="1.91304348" id="Shape"></line>
                <path d="M7.65217391,22 L1.91304348,22 C0.856498739,22 0,21.1435013 0,20.0869565 L0,1.91304348" id="Shape"></path>
                <path d="M18.173913,0 L1.91304348,0 C0.856498739,0 0,0.856498739 0,1.91304348 C0,2.96958822 0.856498739,3.82608696 1.91304348,3.82608696 L17.2173913,3.82608696 C17.7456637,3.82608696 18.173913,4.25433633 18.173913,4.7826087 L18.173913,8.13043478" id="Shape"></path>
                <circle id="Oval" cx="10.758" cy="16.9782609" r="2.15217391"></circle>
                <circle id="Oval" cx="17.931913" cy="19.8478261" r="2.15217391"></circle>
                <circle id="Oval" cx="17.931913" cy="12.673913" r="2.15217391"></circle>
                <line x1="12.5993043" y1="15.8734783" x2="16.0906087" y2="13.7786957" id="Shape"></line>
                <line x1="12.7552174" y1="17.7769565" x2="15.9346957" y2="19.0491304" id="Shape"></line>
            </g>
        </g>
    </g>
</svg>
