<?xml version="1.0" encoding="UTF-8"?>
<svg viewBox="0 0 17 16" version="1.1" xmlns="http://www.w3.org/2000/svg" xmlns:xlink="http://www.w3.org/1999/xlink">
    <title>F0684D03-1562-437A-ADF7-C52591FEBF55</title>
    <g id="Iteration-2" stroke="none" stroke-width="1" fill="none" fill-rule="evenodd">
        <g id="Course-instance---shared-course" transform="translate(-193.000000, -339.000000)">
            <g id="shared-course" transform="translate(193.000000, 339.000000)">
                <rect id="bg-copy-6" fill="#28798B" x="3.56841075" y="0" width="12.6535819" height="12.4315893" rx="2"></rect>
                <rect id="bg-copy-5" fill="#339BB2" x="-2.41664238e-13" y="3.56841075" width="12.6535819" height="12.4315893" rx="2"></rect>
                <path d="M6.90684481,7.07044985 C7.52423361,6.55239913 8.43206142,6.60798772 8.9824211,7.18053109 L9.05212666,7.25813769 L9.56451704,7.86878076 C10.0825677,8.48616956 10.0269792,9.39399737 9.4544358,9.94435704 L9.37682919,10.0140626 L8.15554305,11.0388434 C8.01718455,11.1549399 7.81090795,11.1368931 7.69481138,10.9985346 C7.59161443,10.8755492 7.59440735,10.6989002 7.69347564,10.5796249 L7.73512018,10.5378029 L8.95640632,9.51302214 C9.30095143,9.22391446 9.36461761,8.72427298 9.11713146,8.36012428 L9.06347657,8.28920363 L8.55108619,7.67856056 C8.26197852,7.33401546 7.76233704,7.27034927 7.39818833,7.51783542 L7.32726769,7.57149032 L6.10598154,8.59627107 C5.96762304,8.71236764 5.76134644,8.69432078 5.64524987,8.55596227 C5.54205292,8.43297693 5.54484584,8.25632792 5.64391413,8.13705259 L5.68555867,8.0952306 L6.90684481,7.07044985 Z" id="Path" fill="#FFFFFF" fill-rule="nonzero"></path>
                <path d="M4.15895099,9.37620654 C4.2973095,9.26010997 4.50358609,9.27815684 4.61968266,9.41651534 C4.72287961,9.53950068 4.72008669,9.71614969 4.6210184,9.83542502 L4.57937386,9.87724701 L3.35808772,10.9020278 C3.01354261,11.1911354 2.94987643,11.6907769 3.19736258,12.0549256 L3.25101747,12.1258463 L3.76340785,12.7364893 C4.05251552,13.0810344 4.552157,13.1447006 4.91630571,12.8972145 L4.98722635,12.8435596 L6.2085125,11.8187788 C6.346871,11.7026823 6.5531476,11.7207291 6.66924417,11.8590876 C6.77244112,11.982073 6.7696482,12.158722 6.67057991,12.2779973 L6.62893537,12.3198193 L5.40764923,13.3446001 C4.79026043,13.8626508 3.88243262,13.8070622 3.33207294,13.2345188 L3.26236738,13.1569122 L2.749977,12.5462691 C2.23192629,11.9288803 2.28751488,11.0210525 2.86005824,10.4706929 L2.93766485,10.4009873 L4.15895099,9.37620654 Z" id="Path" fill="#FFFFFF" fill-rule="nonzero"></path>
                <path d="M7.61348968,8.55259522 C7.75184818,8.43649865 7.96386196,8.46138282 8.0870357,8.60817557 C8.19652348,8.73865802 8.19896262,8.92154236 8.10097935,9.04211077 L8.05954126,9.0841788 L4.85366513,11.7742283 C4.71530663,11.8903248 4.50329285,11.8654407 4.3801191,11.7186479 C4.27063133,11.5881655 4.26819219,11.4052811 4.36617546,11.2847127 L4.40761355,11.2426447 L7.61348968,8.55259522 Z" id="Path" fill="#FFFFFF" fill-rule="nonzero"></path>
            </g>
        </g>
    </g>
</svg>
