<?xml version="1.0" encoding="UTF-8"?>
<svg viewBox="0 0 238 157" version="1.1" xmlns="http://www.w3.org/2000/svg" xmlns:xlink="http://www.w3.org/1999/xlink">
    <title>Sign up</title>
    <defs>
        <circle id="path-1" cx="12.5" cy="12.5" r="12.5"></circle>
        <filter id="filter-3">
            <feColorMatrix in="SourceGraphic" type="matrix" values="0 0 0 0 0.215686 0 0 0 0 0.278431 0 0 0 0 0.309804 0 0 0 1.000000 0"></feColorMatrix>
        </filter>
    </defs>
    <g id="Page-1" stroke="none" stroke-width="1" fill="none" fill-rule="evenodd">
        <g id="Crosswired-Course-Catalog-Detail" transform="translate(-977.000000, -226.000000)">
            <g id="Group-7" transform="translate(977.000000, 226.000000)">
                <path d="M0,155.11048 C4.74408994,147.994317 6.22661805,140.878155 4.44758432,133.761992 C1.77903373,123.087749 14.2322698,113.303025 23.1274385,114.192545 C32.0226071,115.082066 51.5919781,125.756309 54.2605287,120.419188 C56.9290793,115.082066 50.7024613,102.628781 52.481495,96.4021393 C54.2605287,90.1754971 61.3766636,70.6060503 83.6145852,73.2746112 C94.2887876,75.0536518 96.0678213,86.6174159 106.742024,83.9488549 C117.416226,81.280294 120.974294,46.5890019 137.875114,37.6937988 C154.775934,28.7985957 185.019508,23.4614739 214.373564,45.6994816 C233.942935,60.5248201 241.355576,97.2916596 236.611486,156 L0,155.11048 Z" id="Path-2-Copy-5" fill="#F7F8F9"></path>
                <g id="Group-5" transform="translate(44.000000, 0.000000)">
                    <g id="Group-4">
                        <rect id="Rectangle-Copy-17" fill="#CCCCCC" x="0" y="0" width="126" height="111" rx="3"></rect>
                        <path d="M3,0 L123,0 C124.656854,-3.04359188e-16 126,1.34314575 126,3 L126,13 L126,13 L0,13 L0,3 C-2.02906125e-16,1.34314575 1.34314575,3.04359188e-16 3,0 Z" id="Rectangle-Copy-12" fill="#339BB2"></path>
                        <rect id="Rectangle-Copy-12" fill="#FFFFFF" x="23.5" y="56" width="80" height="13" rx="3"></rect>
                        <rect id="Rectangle-Copy-13" fill="#FFFFFF" x="23.5" y="78" width="80" height="13" rx="3"></rect>
                        <g id="Group-11" transform="translate(51.000000, 22.000000)">
                            <mask id="mask-2" fill="white">
                                <use xlink:href="#path-1"></use>
                            </mask>
                            <use id="Oval-Copy" fill="#FFFFFF" xlink:href="#path-1"></use>
                            <g filter="url(#filter-3)" id="Group-6">
                                <g mask="url(#mask-2)">
                                    <g transform="translate(3.601680, 1.965774)">
                                        <path d="M16.6834161,9.97023771 C18.139408,14.4281037 12.9770765,16.9578308 8.58362074,17.014059 C4.19016498,17.0702873 -1.79732198,17.4671608 0.513225271,8.61011364 C1.69677874,4.0725454 3.95720627,0.0571359698 8.35318202,0.000361776242 C12.7491578,-0.0564124173 15.5779822,6.58316575 16.6834161,9.97023771 Z" id="Path_3" fill="#37474F"></path>
                                        <polygon id="Rectangle_2" fill="#FFDFAE" transform="translate(8.816405, 14.045767) rotate(-0.744803) translate(-8.816405, -14.045767) " points="6.78565461 11.84286 10.845678 11.8441879 10.8471557 16.2486735 6.78713234 16.2473456"></polygon>
                                        <path d="M6.79135063,14.3710566 L6.76335079,12.3312799 L10.8233284,12.2786 L10.8476883,14.0527935 C10.8476883,14.0527935 10.5940097,14.8394437 9.00473842,14.8599151 C7.37262743,14.8809325 6.79135063,14.3710566 6.79135063,14.3710566 Z" id="Path_4-2" fill="#F4CA92"></path>
                                        <path d="M13.3897942,7.55078361 C13.4407539,11.2937861 10.8373283,14.1723469 8.6460604,14.1932096 C6.89159008,14.2100144 4.62948256,12.4093444 3.62036813,9.5487985 C3.50836875,9.23080843 1.96501726,8.84321537 1.90509759,7.73502679 C1.83929796,6.51956773 3.12393087,7.38346351 3.1186109,6.99805408 C3.04189132,1.3752253 8.21934275,1.39078361 8.07038358,3.4414784 C7.73578542,8.03909627 13.3385545,3.80832704 13.3897942,7.55078361 Z" id="Path_5" fill="#FFDFAE"></path>
                                        <path d="M17.2616129,22.9358666 C17.228853,20.466956 13.4603538,15.4216564 8.62422052,15.4860872 C3.7880872,15.5505181 0.132987369,20.6954182 0.16546719,23.1640474 L17.2616129,22.9358666 Z" id="Path_6" fill="#9BD075"></path>
                                    </g>
                                </g>
                            </g>
                        </g>
                    </g>
                    <g id="Group" transform="translate(85.500000, 28.221204)">
                        <path d="M34.9857794,7.56050021 C32.1086565,15.0071712 32.4682969,19.8475073 36.0647005,22.0815086 C37.5032619,22.0815086 37.5032619,23.5708428 36.0647005,26.5495112 C40.2417554,30.2111479 42.6116059,31.0320025 43.1742519,29.0120749 C43.7368979,26.9921474 43.8845299,24.3096251 43.617148,20.964508 L34.9857794,7.56050021 Z" id="Path-17" fill="#EACDB0" transform="translate(38.407023, 18.824886) rotate(11.000000) translate(-38.407023, -18.824886) "></path>
                        <path d="M62.2417582,60.6795927 C63.4139194,61.6173217 63.4139194,63.1411312 62.2417582,65.2510213 C61.0695971,67.3609114 60.6007326,66.7748308 60.8351648,63.4927795 C60.1844042,64.7700128 59.7155397,65.1216612 59.4285714,64.5477246 C59.1416031,63.973788 59.1416031,62.6844107 59.4285714,60.6795927 L62.2417582,60.6795927 Z" id="Path-28" fill="#FCE4C1"></path>
                        <path d="M4.21978022,23.4048675 C4.4187416,21.728371 4.4187416,20.790642 4.21978022,20.5916806 C3.92133815,20.2932386 3.86813187,22.2092631 2.81318681,21.998274 C2.10989011,21.8576147 1.40659341,21.154318 0.703296703,19.8883839 C-0.703296703,21.7638418 -7.99360578e-15,23.2876513 2.81318681,24.4598125 C3.28205128,24.2253803 3.75091575,23.8737319 4.21978022,23.4048675 Z" id="Path-29" fill="#FCE4C1"></path>
                        <path d="M27.8844986,125.227126 C25.2870392,80.1594954 24.9159735,57.2103103 26.7713017,56.3795706 C28.6266299,55.5488309 35.1202785,55.5488309 46.2522475,56.3795706 C50.5195023,75.2788995 50.6122687,98.2280845 46.5305467,125.227126 C45.9739483,125.434811 45.3245834,125.434811 44.5824522,125.227126 L37.9032707,73.2020501 L36.2334754,73.2020501 L29.554294,125.227126 L27.8844986,125.227126 Z" id="Path-26" fill="#415C6B"></path>
                        <path d="M2.10989011,24.4598125 C9.14285714,33.6026696 17.1135531,36.6502887 26.021978,33.6026696 C26.3736264,38.1740982 25.3186813,51.8883839 26.7252747,57.1631092 C28.1318681,62.4378345 47.1208791,57.8664059 46.7692308,57.1631092 C46.4175824,56.4598125 45.010989,34.6576147 46.7692308,35.7125598 C48.5274725,36.7675048 53.4505495,46.2620103 59.4285714,61.0312411 C60.8351648,61.5001055 62.007326,61.5001055 62.9450549,61.0312411 C56.1465201,38.2913143 49.9340659,26.921351 44.3076923,26.921351 C35.8681319,26.921351 37.2747253,26.5697026 35.1648352,22.3499224 C33.2893773,21.1777612 27.3113553,23.8737319 17.2307692,30.4378345 L4.21978022,22.3499224 L2.10989011,24.4598125 Z" id="Path-27" fill="#F4D06C"></path>
                        <path d="M55.4639428,17.009068 C56.0193415,27.1617698 62.7525997,24.9326551 62.0235957,26.0131128 C59.1210669,30.315903 48.9046358,28.1961842 48.9046358,18.449909 C48.9046358,8.70363382 42.9526015,4.8841242 47.8111297,2.96311823 C49.633294,2.2430439 54.7352846,3.68353874 55.4639428,17.009068 Z" id="Shape-3664" fill="#292949" transform="translate(53.990804, 15.472527) rotate(11.000000) translate(-53.990804, -15.472527) "></path>
                        <path d="M41.4404294,20.5850716 C38.4183815,15.5023719 32.3736039,15.1026012 33.3487989,9.80615932 C34.6345157,2.82229714 45.9179415,-0.881644058 49.5119493,5.12115177 C54.038204,12.6804205 45.7625102,27.8543853 41.4404294,20.5850716 Z" id="Shape-3666" fill="#292949" transform="translate(42.034760, 12.307692) rotate(11.000000) translate(-42.034760, -12.307692) "></path>
                        <path d="M22.8571429,127.084867 L26.5750109,125.734538 L29.5183231,125.734538 C30.1379678,126.184648 29.9830566,126.859813 29.0535896,127.760032 C28.2273967,127.87256 26.1619144,127.87256 22.8571429,127.760032 L22.8571429,127.084867 Z" id="Path-8-Copy" fill="#292949"></path>
                        <path d="M40.4395604,127.084867 L44.1574285,125.734538 L47.1007407,125.734538 C47.7203853,126.184648 47.5654742,126.859813 46.6360072,127.760032 C45.8098143,127.87256 43.744332,127.87256 40.4395604,127.760032 L40.4395604,127.084867 Z" id="Path-8-Copy-2" fill="#292949"></path>
                    </g>
                </g>
            </g>
        </g>
    </g>
</svg>
