<?xml version="1.0" encoding="utf-8"?>
<svg version="1.1" viewBox="2 0 23 23"
    xmlns="http://www.w3.org/2000/svg" xml:space="preserve">
	<g>
		<path fill="currentColor" d="M12,12.75c-3.308,0-6-2.692-6-6s2.692-6,6-6s6,2.692,6,6S15.308,12.75,12,12.75z M12,1.75c-2.757,0-5,2.243-5,5
			s2.243,5,5,5c2.757,0,5-2.243,5-5S14.757,1.75,12,1.75z"/>
		<path fill="currentColor" d="M3,23.25c-0.276,0-0.5-0.224-0.5-0.5c0-5.238,4.262-9.5,9.5-9.5s9.5,4.262,9.5,9.5c0,0.276-0.224,0.5-0.5,0.5H3z
			M20.486,22.25c-0.261-4.435-4.015-8-8.486-8s-8.224,3.565-8.485,8H20.486z"/>
	</g>
</svg>
