<svg xmlns="http://www.w3.org/2000/svg" viewBox="0 0 24 24"><g data-name="Group 765" fill="none" stroke="currentColor" stroke-linecap="round" stroke-linejoin="round"><path data-name="Shape 205" d="M23.5 5.5v17a1 1 0 01-1 1h-17"/><path data-name="Shape 206" d="M21.5 2.5v18a1 1 0 01-1 1h-18"/><path data-name="Rectangle-path 56" d="M.5 1.5a1 1 0 011-1h17a1 1 0 011 1v17a1 1 0 01-1 1h-17a1 1 0 01-1-1z"/><path data-name="Shape 207" d="M17 15.5l-3.553-7.106c-.246-.492-.648-.492-.894 0L10 13.5l-1.86-2.232a.666.666 0 00-1.154.089L4.5 15.5"/><path data-name="Oval 48" d="M6 6.5A1.5 1.5 0 104.5 5 1.5 1.5 0 006 6.5z"/><path data-name="Shape 208" d="M19.5 15.5H.5"/></g></svg>
