<svg xmlns="http://www.w3.org/2000/svg" viewBox="0 0 24 23.08"><g data-name="Business-Products / Analytics / analytics-graph-bar-1"><g fill="none" stroke="currentColor" stroke-linecap="round" stroke-linejoin="round" data-name="Group 169"><path data-name="Shape 1222" d="M4.496 19.22a.491.491 0 0 0-.5-.48h-2a.491.491 0 0 0-.5.48v3.36h3z"/><path data-name="Shape 1223" d="M10.496 14.42a.49.49 0 0 0-.5-.48h-2a.49.49 0 0 0-.5.48v8.16h3z"/><path data-name="Shape 1224" d="M16.496 17.3a.49.49 0 0 0-.5-.48h-2a.49.49 0 0 0-.5.48v5.28h3z"/><path data-name="Shape 1225" d="M22.496 9.62a.49.49 0 0 0-.5-.48h-2a.49.49 0 0 0-.5.48v12.96h3z"/><path data-name="Shape 1226" d="M.496 22.58h23"/><path data-name="Shape 1227" d="M3.914 8.265L6.586 5.7"/><path data-name="Shape 1228" d="M9.728 5.31l2.544 1.425"/><path data-name="Shape 1229" d="M15.573 6.52l3.854-2.907"/><path data-name="Oval 126" d="M20.996 4.34a1.922 1.922 0 1 0-2-1.92 1.961 1.961 0 0 0 2 1.92z"/><path data-name="Oval 127" d="M13.996 9.62a1.922 1.922 0 1 0-2-1.92 1.961 1.961 0 0 0 2 1.92z"/><path data-name="Oval 128" d="M7.996 6.26a1.922 1.922 0 1 0-2-1.92 1.961 1.961 0 0 0 2 1.92z"/><path data-name="Oval 129" d="M2.496 11.54a1.922 1.922 0 1 0-2-1.92 1.961 1.961 0 0 0 2 1.92z"/></g></g></svg>
