<?xml version="1.0" encoding="UTF-8"?>
<svg viewBox="0 0 22 22" version="1.1" xmlns="http://www.w3.org/2000/svg" xmlns:xlink="http://www.w3.org/1999/xlink">
    <g stroke="none" stroke-width="1" fill="none" fill-rule="evenodd" stroke-linecap="round" stroke-linejoin="round">
        <g transform="translate(1.416707, 1.406006)" stroke="currentColor">
            <path d="M12.9166259,18.5689938 C8.99273687,20.024697 4.57804469,18.7657144 2.01222437,15.4592747 C-0.553595946,12.1528351 -0.677012365,7.56379237 1.70738269,4.12422302 C4.09177775,0.684653674 8.43241999,-0.809792469 12.428879,0.43290319 C16.425338,1.67559885 19.1531428,5.36797281 19.1666259,9.55316042" id="Path"></path>
            <path d="M0.144125902,7.91482683 L5.2141259,7.91482683 C5.87728208,7.91452662 6.51338678,8.17772169 6.98245924,8.64649375 L7.9166259,9.58066042 C8.85294495,10.516692 8.89716079,12.0203961 8.01745924,13.0098271 L6.8816259,14.2873271 C6.4747942,14.7449073 6.25003025,15.3358764 6.24995924,15.9481604 L6.24995924,18.5689938" id="Path"></path>
            <path d="M16.4674592,2.91482708 L11.6341259,2.91482708 C10.598592,2.91482708 9.7591259,3.75429318 9.7591259,4.78982708 C9.7591259,5.82536099 10.598592,6.66482708 11.6341259,6.66482708 L11.9941259,6.66482708 C12.8310029,6.66358662 13.6129929,7.08116929 14.0774592,7.77732708 L15.4107926,9.77732708" id="Path"></path>
            <circle id="Oval" cx="17.4999592" cy="17.4981604" r="1.66666667"></circle>
            <circle id="Oval" cx="17.4999592" cy="12.4981604" r="1.66666667"></circle>
            <circle id="Oval" cx="12.4999592" cy="15.4148271" r="1.66666667"></circle>
            <line x1="13.9366259" y1="14.5764938" x2="16.0616259" y2="13.3364938" id="Path"></line>
            <line x1="14.0382926" y1="16.0556604" x2="15.9616259" y2="16.8564938" id="Path"></line>
        </g>
    </g>
</svg>
