<svg xmlns="http://www.w3.org/2000/svg" viewBox="0 0 24.1 17"><g data-name="Group 11" fill="none" stroke="currentColor" stroke-linecap="round" stroke-linejoin="round" stroke-miterlimit="10"><path d="M11.681 11c-.443-.174-.942-.355-1.477-.553-.453-.168-.379-1.35-.178-1.571a3.339 3.339 0 0 0 .87-2.591 2.073 2.073 0 0 0-2.12-2.267 2.073 2.073 0 0 0-2.121 2.267 3.339 3.339 0 0 0 .87 2.591c.2.221.275 1.4-.178 1.571-.518.192-1 .371-1.434.536"/><path data-name="Shape" d="M14.6 5.5h4M13.6 7.5h6M13.6 9.5h6M16.6.5h-9a6.986 6.986 0 0 0-5.323 11.527L.6 16.5l7.333-2H16.6a7 7 0 1 0 0-14z"/></g></svg>
