<?xml version="1.0" encoding="UTF-8"?>
<svg viewBox="0 0 36 36" version="1.1" xmlns="http://www.w3.org/2000/svg" xmlns:xlink="http://www.w3.org/1999/xlink">
    <g stroke="none" stroke-width="1" fill="none" fill-rule="evenodd">
        <g transform="translate(-176.000000, -1326.000000)">
            <g id="linkedin" transform="translate(176.000000, 1326.000000)">
                <rect id="Rectangle" fill="#0E76A8" x="0" y="0" width="36" height="36" rx="8"></rect>
                <path d="M10.018,25.6952603 L13.3806712,25.6952603 L13.3806712,14.4871781 L10.018,14.4871781 L10.018,25.6952603 Z M23.1184247,14.0989452 C21.4864658,14.0989452 20.0262466,14.6949178 18.9903836,16.0103973 L18.9903836,14.4503151 L15.6153836,14.4503151 L15.6153836,25.6953836 L18.9903836,25.6953836 L18.9903836,19.6143425 C18.9903836,18.3291918 20.1677808,17.0754795 21.6425479,17.0754795 C23.1173151,17.0754795 23.4810137,18.3291918 23.4810137,19.5829041 L23.4810137,25.694274 L26.8436849,25.694274 L26.8436849,19.3326301 C26.8435616,14.9137534 24.7514932,14.0989452 23.1184247,14.0989452 Z M11.6836164,13.3671096 C12.6129589,13.3671096 13.3672329,12.6128356 13.3672329,11.6834932 C13.3672329,10.7541507 12.6129589,10 11.6836164,10 C10.754274,10 10,10.754274 10,11.6836164 C10,12.6129589 10.754274,13.3671096 11.6836164,13.3671096 Z" id="Shape-Copy" fill="#FFFFFF" fill-rule="nonzero"></path>
            </g>
        </g>
    </g>
</svg>
