<?xml version="1.0" encoding="UTF-8"?>
<svg viewBox="0 0 36 36" version="1.1" xmlns="http://www.w3.org/2000/svg" xmlns:xlink="http://www.w3.org/1999/xlink">
    <g stroke="none" stroke-width="1" fill="none" fill-rule="evenodd">
        <g>
            <rect fill="#00AAFB" x="0" y="0" width="36" height="36" rx="8"></rect>
            <path d="M29,11.1309231 C28.181875,11.4923077 27.310125,11.7318462 26.40125,11.8481538 C27.33625,11.286 28.049875,10.4026154 28.385375,9.33784615 C27.513625,9.86123077 26.551125,10.2309231 25.525375,10.4372308 C24.697625,9.54969231 23.517875,9 22.230875,9 C19.733875,9 17.723625,11.0409231 17.723625,13.5429231 C17.723625,13.9029231 17.753875,14.2490769 17.828125,14.5786154 C14.0785,14.3944615 10.760625,12.5847692 8.53175,9.828 C8.142625,10.5078462 7.914375,11.286 7.914375,12.1236923 C7.914375,13.6966154 8.71875,15.0909231 9.91775,15.8981538 C9.193125,15.8843077 8.48225,15.6724615 7.88,15.3387692 C7.88,15.3526154 7.88,15.3706154 7.88,15.3886154 C7.88,17.5956923 9.443375,19.4289231 11.4935,19.8512308 C11.126375,19.9523077 10.72625,20.0007692 10.311,20.0007692 C10.02225,20.0007692 9.73075,19.9841538 9.457125,19.9232308 C10.0415,21.7218462 11.69975,23.0441538 13.6715,23.0870769 C12.137,24.2958462 10.188625,25.0241538 8.079375,25.0241538 C7.7095,25.0241538 7.35475,25.0075385 7,24.9618462 C8.997875,26.2592308 11.365625,27 13.919,27 C22.2185,27 26.756,20.0769231 26.756,14.076 C26.756,13.8752308 26.749125,13.6813846 26.7395,13.4889231 C27.634625,12.8492308 28.38675,12.0503077 29,11.1309231 Z" id="Path" fill="#FFFFFF" fill-rule="nonzero"></path>
        </g>
    </g>
</svg>
