<svg xmlns="http://www.w3.org/2000/svg" width="20.167" height="17.667">
  <g transform="translate(.083 .497)" stroke="currentColor" stroke-linecap="round" stroke-linejoin="round" stroke-miterlimit="10" fill="none">
    <rect width="19.167" height="16.667" rx="2" transform="translate(.417 .003)"/>
    <path d="M.417 4.17h19.167"/>
    <path data-name="Shape" d="M3.333 1.878a.208.208 0 1 1-.208.208.208.208 0 0 1 .208-.208M5.833 1.878a.208.208 0 1 1-.208.208.208.208 0 0 1 .208-.208M8.333 1.878a.208.208 0 1 1-.208.208.208.208 0 0 1 .208-.208"/>
    <g data-name="Group 19">
      <path data-name="Shape" d="M10.417 13.497v-4.98M7.917 10.997l2.5 2.5 2.5-2.5"/>
    </g>
  </g>
</svg>
