<?xml version="1.0" encoding="UTF-8"?>
<svg width="22px" height="22px" viewBox="0 0 22 22" version="1.1" xmlns="http://www.w3.org/2000/svg" xmlns:xlink="http://www.w3.org/1999/xlink">
    <title>4962EAFA-06BB-4616-BBD7-0BF199346728</title>
    <g id="Desktop-Course-Certificate" stroke="none" stroke-width="1" fill="none" fill-rule="evenodd" stroke-linecap="round" stroke-linejoin="round">
        <g id="Learning-Admin-Setting-Certificate-Disabled" transform="translate(-91.000000, -278.000000)" stroke="#656565">
            <g id="manage-storage" transform="translate(92.000000, 279.000000)">
                <circle id="Oval" cx="15.0025237" cy="14.3772011" r="1.24977545"></circle>
                <path d="M16.0644415,9.54073536 L16.4331991,10.7513738 C16.5586214,11.1685957 16.9861845,11.4169931 17.4107549,11.3192954 L18.6387875,11.0348997 C19.1162044,10.9272901 19.6080245,11.1433289 19.8517558,11.5677128 C20.0954872,11.9920968 20.034241,12.5257714 19.7007053,12.8839064 L18.8414303,13.8101492 C18.5474332,14.129688 18.5474332,14.6212354 18.8414303,14.9407742 L19.7007053,15.8670169 C20.034241,16.2251519 20.0954872,16.7588266 19.8517558,17.1832105 C19.6080245,17.6075945 19.1162044,17.8236333 18.6387875,17.7160236 L17.4107549,17.4307582 C16.9864986,17.336929 16.5617973,17.586664 16.4375477,18.0030284 L16.06879,19.2136669 C15.9278596,19.6823737 15.4963082,20.0032524 15.0068722,20.0032524 C14.5174363,20.0032524 14.0858849,19.6823737 13.9449545,19.2136669 L13.5718482,18.0030284 C13.445705,17.5863763 13.0187251,17.3383177 12.5942925,17.4351068 L11.3662598,17.7203722 C10.8888429,17.8279818 10.3970229,17.6119431 10.1532915,17.1875591 C9.90956019,16.7631751 9.97080638,16.2295005 10.3043421,15.8713655 L11.163617,14.9451227 C11.4576142,14.6255839 11.4576142,14.1340365 11.163617,13.8144978 L10.3043421,12.888255 C9.97080638,12.53012 9.90956019,11.9964454 10.1532915,11.5720614 C10.3970229,11.1476774 10.8888429,10.9316387 11.3662598,11.0392483 L12.5942925,11.323644 C13.0188629,11.4213417 13.446426,11.1729443 13.5718482,10.7557223 L13.9406059,9.54508391 C14.080574,9.07608575 14.5114692,8.7543205 15.000907,8.75331603 C15.4903448,8.75231625 15.9225541,9.07231429 16.0644415,9.54073536 Z" id="Shape"></path>
                <path d="M17.3942304,6.52283639 L17.3942304,3.47884607 C17.3942304,2.99851766 17.0048473,2.60913455 16.5245188,2.60913455 L7.93002962,2.60913455 C7.60069969,2.60895868 7.29971798,2.42278096 7.15250753,2.12818409 L6.32802101,0.48095047 C6.18081055,0.186353599 5.87982884,0.000175871471 5.55049891,0 L0.869711518,0 C0.38938311,0 0,0.38938311 0,0.869711518 L0,13.9153843 C0,14.3957127 0.38938311,14.7850958 0.869711518,14.7850958 L7.3925479,14.7850958" id="Shape"></path>
            </g>
        </g>
    </g>
</svg>