<?xml version="1.0" encoding="UTF-8"?>
<svg viewBox="0 0 115 100" version="1.1"
    xmlns="http://www.w3.org/2000/svg">
    <title>Group 2</title>
    <g id="Newsletter-Mockup" stroke="none" stroke-width="1" fill="none" fill-rule="evenodd">
        <g id="view-newsletter-as-post" transform="translate(-125.000000, -1627.000000)">
            <g id="Group-16" transform="translate(90.000000, 1483.000000)">
                <g id="Group-15" transform="translate(0.000000, 126.000000)">
                    <g id="Group" transform="translate(35.000000, 18.000000)">
                        <g id="Group-14" transform="translate(0.000000, 11.845178)">
                            <path d="M15.4082968,13.2485304 L15.4082968,9.77053407 C15.8570821,5.76556863 18.2132052,4.18466122 22.4766659,5.02781184 C23.823022,8.50580814 22.8132549,10.7190785 21.4668989,11.3514415 C20.5693282,11.7730168 20.1205429,12.1945921 20.1205429,12.6161674 C21.3172501,14.563451 21.3172501,15.6173893 20.1205429,15.7779822 C18.9238357,15.9385751 17.353087,15.0954245 15.4082968,13.2485304 Z" id="Path-16" fill="#EACDB0"></path>
                            <path d="M24.5131994,18.493525 C30.2702513,26.6495472 34.3666151,30.2866922 36.8022908,29.4049601 C37.4665661,29.0743106 38.1308413,29.0743106 39.7915293,27.0904133 C40.8986547,25.7678151 40.8986547,23.4532682 39.7915293,20.1467727 C38.0201287,23.0124022 36.8022908,24.3350004 36.1380156,24.1145673 C35.4737404,23.8941343 32.2630769,21.5795875 26.5060251,17.1709268 L24.5131994,18.493525 Z" id="Path-3-Copy" fill="#339BB2" transform="translate(32.567536, 23.352460) scale(-1, 1) translate(-32.567536, -23.352460) "></path>
                            <path d="M18.6767234,82.4204486 L15.4082968,42.5838985 L25.2135765,58.1298692 C24.3419961,74.3235888 23.2525206,82.4204486 21.94515,82.4204486 C20.6377793,82.4204486 19.5483038,82.4204486 18.6767234,82.4204486 Z" id="Path-4-Copy" fill="#404244" transform="translate(20.310937, 62.502174) scale(-1, 1) translate(-20.310937, -62.502174) "></path>
                            <path d="M14.9608336,41.2102243 C14.7403445,50.0539612 16.2837682,56.0935863 19.5911046,59.3290998 C22.898441,62.5646133 24.7725984,69.1434907 25.2135765,79.065732 L22.5677074,80.3599374 L1.40075425,42.827981 L14.9608336,41.2102243 Z" id="Path-6-Copy" fill="#404244" transform="translate(13.307165, 60.785081) scale(-1, 1) translate(-13.307165, -60.785081) "></path>
                            <path d="M18.2098053,86.541471 C19.7876664,84.9531729 21.5909362,83.9321241 23.6196148,83.4783246 C26.6626327,82.7976254 27.0007458,83.137975 27.676972,83.8186742 C27.676972,84.9531729 27.7896763,85.8607718 28.015085,86.541471 L18.2098053,86.541471 Z" id="Path-9-Copy" fill="#292949" transform="translate(23.112445, 84.824378) scale(-1, 1) translate(-23.112445, -84.824378) "></path>
                            <path d="M0,86.4341528 C0,85.5756064 0.55292931,84.7170601 1.65878793,83.8585137 C2.76464655,82.9999674 2.98581827,82.0341028 2.3223031,80.9609198 L4.6446062,79.6731003 L6.30339414,81.6048296 C4.53402034,84.1804686 3.64933345,85.6829247 3.64933345,86.1121979 C3.64933345,86.541471 2.43288896,86.6487893 0,86.4341528 Z" id="Path-10-Copy" fill="#292949" transform="translate(3.151697, 83.107286) scale(-1, 1) translate(-3.151697, -83.107286) "></path>
                            <path d="M5.92317199,43.2686555 C4.8133014,25.9181498 6.58909434,16.2669311 11.2505508,14.3149992 C13.470292,14.7487618 15.2460849,14.0981179 16.5779296,12.3630673 C22.5712308,16.0500497 25.9008426,22.990252 26.5667649,33.1836741 C26.788739,34.2680807 26.2338037,37.4128598 24.901959,42.6180115 L22.5712308,41.6420456 C23.6811014,38.1719444 23.7920884,35.3524873 22.904192,33.1836741 C22.0162955,31.0148609 21.2393861,27.8700817 20.5734637,23.7493366 C20.7954379,33.2921147 20.7954379,39.256351 20.5734637,41.6420456 C20.3514896,44.0277401 15.468059,44.5699434 5.92317199,43.2686555 Z" id="Path-2-Copy-2" fill="#339BB2" transform="translate(16.108674, 28.160320) scale(-1, 1) translate(-16.108674, -28.160320) "></path>
                            <path d="M15.2029346,10.3025561 C12.6854594,6.3480396 11.9988752,3.38215225 13.1431821,1.40489401 C14.287489,-0.572364227 17.0338256,-0.462516547 21.3821918,1.73443705 L22.412068,5.02986745 C20.4577072,4.98915919 18.8556776,5.31870223 17.605979,6.01849656 C16.3562805,6.7182909 15.5552657,8.14631074 15.2029346,10.3025561 Z" id="Path-21" fill="#292949"></path>
                            <path d="M7.00377126,42.8036863 C7.22349742,43.8110474 7.88267589,44.415464 8.98130668,44.6169362 C10.0799375,44.8184084 10.0799375,43.9117835 8.98130668,41.8970614 L7.00377126,42.8036863 Z" id="Path-24" fill="#EACDB0"></path>
                            <path d="M38.5712196,17.3221279 C40.6912801,15.5199919 41.9868726,14.8191613 42.4579971,15.2196359 C43.164684,15.8203479 42.4579971,18.8239079 40.3379366,18.5235519 C38.924563,18.3233146 38.3356573,17.9228399 38.5712196,17.3221279 Z" id="Path-25" fill="#EACDB0"></path>
                        </g>
                        <g id="postbox" transform="translate(59.154930, 7.463331)" fill-rule="nonzero">
                            <path d="M36.0883798,26.5572089 L28.8099872,26.5572089 C28.1400055,26.5572089 27.5969691,27.9151494 27.5969691,29.5897413 L27.5969691,87.2099899 C27.5969691,88.8849372 28.1401476,90.2425223 28.8099872,90.2425223 L36.0883798,90.2425223 C36.7583615,90.2425223 37.3013978,88.8845818 37.3013978,87.2099899 L37.3013978,29.5897413 C37.3013978,27.9151494 36.7582194,26.5572089 36.0883798,26.5572089 Z" id="Path" fill="#AFB0B4"></path>
                            <path d="M45.017112,0.303263397 L12.2996701,0.303263397 C7.5242111,0.303263397 3.63916076,4.21338057 3.63916076,9.01965137 L3.63916076,29.35789 C3.63916076,29.8927902 4.07004366,30.3263397 4.60140199,30.3263397 L52.7153801,30.3263397 C53.2468512,30.3263397 53.6776213,29.8926767 53.6776213,29.35789 L53.6776213,9.01965137 C53.6776213,4.21349406 49.7925709,0.303263397 45.017112,0.303263397 Z" id="Path" fill="#339BB2"></path>
                            <path d="M0.956437118,44.8829828 L20.0066092,44.8829828 C20.4396542,44.8829828 20.8185966,44.5874147 20.9301623,44.1625427 L24.5643352,30.3263397 L3.53566486,30.3263397 L0.0327720439,43.6624992 C-0.128975757,44.2784272 0.328376231,44.8829828 0.956437118,44.8829828 Z" id="Path" fill="#404244"></path>
                            <path d="M44.8596548,0.303263397 L15.4664333,0.303263397 C20.3287151,0.303263397 24.2843997,4.21338057 24.2843997,9.01965137 L24.2843997,30.3263397 L52.6978855,30.3263397 C53.2390193,30.3263397 53.6776213,29.8926767 53.6776213,29.35789 L53.6776213,9.01965137 C53.6776213,4.21349406 49.7219366,0.303263397 44.8596548,0.303263397 Z" id="Path" fill="#404244"></path>
                            <path d="M41.3483411,21.7334661 C39.9756647,22.3620892 38.7858625,22.5714614 37.1613918,22.5714614 C33.3635791,22.5714614 30.0230763,19.8010135 30.0230763,15.2383697 C30.0230763,10.489139 33.409111,6.36853134 38.5800978,6.36853134 C42.6068144,6.36853134 45.4895096,9.18556263 45.4895096,13.0965449 C45.4895096,16.4953626 43.6134936,18.6371875 41.1425765,18.6371875 C40.0672262,18.6371875 39.2894508,18.0784395 39.1749989,16.8444851 L39.1292182,16.8444851 C38.420114,18.0318561 37.3905445,18.6371875 36.1778519,18.6371875 C34.6907236,18.6371875 33.6153733,17.5196916 33.6153733,15.6105307 C33.6153733,12.7704609 35.6745123,10.1863467 38.9689855,10.1863467 C39.9756647,10.1863467 41.1194373,10.4425556 41.6916968,10.7683864 L41.005483,15.0753277 C40.776828,16.448526 40.9368118,17.0774023 41.5774937,17.1004408 C42.5612825,17.1237325 43.7966166,15.8431947 43.7966166,13.1661668 C43.7966166,10.1397633 41.8748198,7.78831309 38.3283037,7.78831309 C34.8280658,7.78831309 31.7619988,10.5820527 31.7619988,15.0284911 C31.7619988,18.9161817 34.2100256,21.1278816 37.6191995,21.1278816 C38.7861113,21.1278816 40.0216942,20.8719259 40.936563,20.3828 L41.3483411,21.7334661 Z M39.5758733,12.4775836 C39.3803966,12.4321731 39.1360506,12.3867625 38.8186665,12.3867625 C37.2070458,12.3867625 35.9367126,13.8618651 35.9367126,15.6091843 C35.9367126,16.4714912 36.3521006,17.0161711 37.157911,17.0161711 C38.0614598,17.0161711 39.0141433,15.9495167 39.233789,14.633351 L39.5758733,12.4775836 Z" id="Shape" fill="#FFFFFF"></path>
                        </g>
                        <g id="email-copy" transform="translate(46.580520, 15.336463) rotate(-10.000000) translate(-46.580520, -15.336463) translate(29.053133, 3.286385)" fill-rule="nonzero">
                            <path d="M32.3621548,23.9810967 L3.60628623,23.9810967 C2.47248342,23.9810967 1.55229562,23.0441782 1.55229562,21.8897608 L1.55229562,3.06773776 C1.55229562,1.91332035 2.47248342,0.976401865 3.60628623,0.976401865 L32.3621548,0.976401865 C33.4959576,0.976401865 34.4161454,1.91332035 34.4161454,3.06773776 L34.4161454,21.8897608 C34.4161454,23.0441782 33.4959576,23.9810967 32.3621548,23.9810967 Z" id="Path" fill="#F1C241"></path>
                            <path d="M32.5849618,24.0964303 L3.82909322,24.0964303 C2.67680449,24.0964303 1.77510261,23.2086007 1.77510261,22.0740395 C1.77510261,21.7524794 1.9312059,21.4491208 2.1941167,21.259016 L17.5990463,11.1470623 C17.7797974,11.0156069 17.9934125,10.9508904 18.2070275,10.9508904 C18.4206425,10.9508904 18.6342575,11.0156069 18.8150087,11.1470623 L34.2199383,21.259016 C34.4828491,21.4491208 34.6389524,21.7524794 34.6389524,22.0740395 C34.6389524,23.2086007 33.7372505,24.0964303 32.5849618,24.0964303 Z" id="Path" fill="#F4D06C"></path>
                            <path d="M31.8540104,1.93156618 L3.09814186,1.93156618 C1.94585313,1.93156618 1.04415125,2.83976297 1.04415125,4.00035158 C1.04415125,4.32928847 1.20025454,4.63960628 1.46316533,4.83407211 L16.8763109,15.9786191 C17.2337052,16.2372173 17.716393,16.2372173 18.0737874,15.9786191 L33.4869329,4.83407211 C33.7518977,4.63960628 33.908001,4.32928847 33.908001,4.00035158 C33.908001,2.83976297 33.0062991,1.93156618 31.8540104,1.93156618 Z" id="Path" fill="#F8DF9B"></path>
                        </g>
                    </g>
                </g>
            </g>
        </g>
    </g>
</svg>
