<?xml version="1.0" encoding="UTF-8"?>
<svg viewBox="0 0 41 45" version="1.1" xmlns="http://www.w3.org/2000/svg" xmlns:xlink="http://www.w3.org/1999/xlink">
    <g stroke="none" stroke-width="1" fill="none" fill-rule="evenodd">
        <g transform="translate(-727.000000, -1227.000000)" fill-rule="nonzero">
            <g transform="translate(65.000000, 1150.500000)">
                <g transform="translate(30.000000, 21.000000)">
                    <g transform="translate(632.000000, 56.000000)">
                        <path d="M27.47,33.4100129 C27.3774393,33.4097352 27.2887749,33.3727114 27.2235122,33.3070736 C27.1582495,33.2414358 27.1217344,33.1525607 27.122,33.06 L27.122,30.56 C27.122,30.3667003 27.2787003,30.21 27.472,30.21 C27.6652997,30.21 27.822,30.3667003 27.822,30.56 L27.822,33.06 C27.8222707,33.1532559 27.7852074,33.2427412 27.7190777,33.3084952 C27.6529479,33.3742493 27.5632528,33.410802 27.47,33.4100129 L27.47,33.4100129 Z" id="Path" fill="#263238"></path>
                        <path d="M20.505,22.8150005 C19.2671073,22.8156321 18.1116046,22.1946809 17.429,21.162 C17.3907299,21.1045205 17.3702118,21.037054 17.3699988,20.968 L17.3699988,19.736 C17.3696929,19.6205271 17.4265225,19.5123776 17.521794,19.4471286 C17.6170655,19.3818797 17.7384438,19.3679792 17.846,19.41 C19.5544265,20.0849116 21.4555735,20.0849116 23.164,19.41 C23.2715562,19.3679792 23.3929345,19.3818797 23.488206,19.4471286 C23.5834775,19.5123776 23.6403071,19.6205271 23.6400012,19.736 L23.6400012,20.968 C23.6400012,21.0370897 23.6194884,21.1046238 23.581,21.162 C22.8982698,22.1945433 21.7428473,22.8154514 20.505,22.8150005 L20.505,22.8150005 Z M18.067,20.858 C18.6285704,21.6465904 19.5368905,22.1148534 20.505,22.1148534 C21.4731095,22.1148534 22.3814296,21.6465904 22.943,20.858 L22.943,20.231 C21.3579923,20.7430258 19.6520077,20.7430258 18.067,20.231 L18.067,20.858 Z" id="Shape" fill="#263238"></path>
                        <path d="M23.859,44.0000018 C22.5578502,44.0009201 21.2802187,43.6531971 20.159,42.993 L16.333,40.74 C15.3187133,40.1426403 14.1631219,39.8274162 12.986,39.827 L11.046,39.827 C10.8527003,39.827 10.696,39.6702997 10.696,39.477 C10.696,39.2837003 10.8527003,39.127 11.046,39.127 L12.986,39.127 C14.2871253,39.1272586 15.564537,39.475267 16.686,40.135 L20.516,42.388 C23.1133844,43.9157394 26.4157101,43.4902435 28.541,41.354 L35.818,34.048 C36.3634692,33.5014839 36.3634692,32.6165161 35.818,32.07 C35.2678907,31.5409531 34.3981093,31.5409531 33.848,32.07 L30.892,35.038 C30.826874,35.1034638 30.7383412,35.1402695 30.646,35.1402695 C30.5536588,35.1402695 30.465126,35.1034638 30.4,35.038 C30.2638494,34.9010864 30.2638494,34.6799136 30.4,34.543 L33.356,31.575 C34.1814756,30.7822035 35.4855244,30.7822035 36.311,31.575 C37.1298695,32.3948891 37.1298695,33.7231109 36.311,34.543 L29.034,41.848 C27.6640511,43.225326 25.8016237,43.9998079 23.859,44.0000018 L23.859,44.0000018 Z" id="Path-2" fill="#263238"></path>
                        <path d="M4.433,30.383 L4.433,40.527 C4.433,40.9135993 4.74640068,41.227 5.133,41.227 L8.964,41.227 C9.35059932,41.227 9.664,40.9135993 9.664,40.527 L9.664,30.383 C9.664,29.9964007 9.35059932,29.683 8.964,29.683 L5.13,29.683 C4.74457276,29.6846518 4.433,29.9975692 4.433,30.383 Z" id="Path-3" fill="#40C4FF"></path>
                        <path d="M8.961,41.576 L5.13,41.576 C4.55198698,41.5743456 4.08444609,41.1050151 4.08499951,40.527 L4.08499951,30.383 C4.08444609,29.8049849 4.55198698,29.3356544 5.13,29.334 L8.961,29.334 C9.53901302,29.3356544 10.0065539,29.8049849 10.0060005,30.383 L10.0060005,40.527 C10.0065539,41.1050151 9.53901302,41.5743456 8.961,41.576 L8.961,41.576 Z M5.13,30.033 C4.93748184,30.0341001 4.782,30.1904787 4.782,30.383 L4.782,40.527 C4.782,40.7195213 4.93748184,40.8758999 5.13,40.877 L8.961,40.877 C9.15351816,40.8758999 9.309,40.7195213 9.309,40.527 L9.309,30.383 C9.309,30.1904787 9.15351816,30.0341001 8.961,30.033 L5.13,30.033 Z" id="Shape-2" fill="#263238"></path>
                        <path d="M27.072,38.078 L22.544,38.078 C22.3507003,38.078 22.194,37.9212997 22.194,37.728 C22.194,37.5347003 22.3507003,37.378 22.544,37.378 L27.072,37.378 C27.8451986,37.378 28.472,36.7511986 28.472,35.978 C28.472,35.2048014 27.8451986,34.578 27.072,34.578 L22.196,34.578 C22.1535983,34.5780865 22.1115502,34.5702873 22.072,34.555 L16.555,32.446 C15.4058562,32.0058321 14.1855599,31.7807552 12.955,31.782 L11.051,31.782 C10.8577003,31.782 10.701,31.6252997 10.701,31.432 C10.701,31.2387003 10.8577003,31.0819989 11.051,31.0819989 L12.96,31.0819989 C14.2739876,31.0814151 15.5769179,31.3220708 16.804,31.792 L22.265,33.881 L27.077,33.881 C28.236798,33.881 29.177,34.821202 29.177,35.981 C29.177,37.140798 28.236798,38.081 27.077,38.081 L27.072,38.078 Z" id="Path-4" fill="#263238"></path>
                        <path d="M33.043,31.1280014 C32.9504393,31.1277352 32.8617749,31.0907114 32.7965122,31.0250736 C32.7312495,30.9594358 32.6947344,30.8705607 32.695,30.778 L32.695,28.52 C32.7006203,26.5616608 31.5375737,24.7887623 29.739,24.014 L23.409,21.289 C22.7113944,22.1815657 21.6418401,22.7034345 20.509,22.704 L20.509,22.704 C19.3761252,22.7035844 18.3065087,22.1816853 17.609,21.289 L11.27,24.014 C9.47343389,24.7879039 8.31078336,26.5578388 8.314,28.514 C8.31620335,28.7127388 8.16412508,28.8792383 7.966,28.895 C7.87685577,28.9016287 7.78893364,28.8711332 7.72303918,28.81073 C7.65714472,28.7503267 7.61913337,28.6653832 7.61774796,28.576 C7.59670958,26.3221971 8.92585532,24.2743282 10.993,23.376 L17.579,20.541 C17.7335429,20.4745126 17.9135162,20.5284624 18.006,20.669 C18.5595392,21.5088432 19.498146,22.014218 20.504,22.014 L20.504,22.014 C21.5099447,22.0153747 22.4492515,21.5111548 23.004,20.672 C23.0967407,20.5318078 23.2764326,20.4779423 23.431,20.544 L30.017,23.379 C32.0682987,24.2643736 33.395724,26.2857875 33.3930042,28.52 L33.3930042,30.778 C33.3932666,30.8709072 33.3564773,30.9600861 33.2907817,31.0257817 C33.2250861,31.0914773 33.1359072,31.1282666 33.043,31.1280014 Z" id="Path-5" fill="#263238"></path>
                        <path d="M37.571,20.632 L30.606,20.632 C30.4127003,20.632 30.256,20.4752997 30.256,20.282 C30.256,20.0887003 30.4127003,19.932 30.606,19.932 L37.572,19.932 C37.7652997,19.932 37.922,20.0887003 37.922,20.282 C37.922,20.4752997 37.7652997,20.632 37.572,20.632 L37.571,20.632 Z" id="Path-6" fill="#263238"></path>
                        <path d="M39.66,20.632 L38.96,20.632 C38.7667003,20.632 38.61,20.4752997 38.61,20.282 C38.61,20.0887003 38.7667003,19.932 38.96,19.932 L39.66,19.932 C39.8532997,19.932 40.01,20.0887003 40.01,20.282 C40.01,20.4752997 39.8532997,20.632 39.66,20.632 Z" id="Path-7" fill="#263238"></path>
                        <path d="M10.404,20.632 L3.438,20.632 C3.24470034,20.632 3.088,20.4752997 3.088,20.282 C3.088,20.0887003 3.24470034,19.932 3.438,19.932 L10.404,19.932 C10.5972997,19.932 10.754,20.0887003 10.754,20.282 C10.754,20.4752997 10.5972997,20.632 10.404,20.632 Z" id="Path-8" fill="#263238"></path>
                        <path d="M2.045,20.632 L1.345,20.632 C1.15170034,20.632 0.995,20.4752997 0.995,20.282 C0.995,20.0887003 1.15170034,19.932 1.345,19.932 L2.045,19.932 C2.23829966,19.932 2.395,20.0887003 2.395,20.282 C2.395,20.4752997 2.23829966,20.632 2.045,20.632 Z" id="Path-9" fill="#263238"></path>
                        <path d="M20.494,20.9860228 C16.8638099,20.9946441 13.6863164,18.5493432 12.765,15.038 C11.6463569,14.983367 10.767439,14.0604764 10.767439,12.9405 C10.767439,11.8205236 11.6463569,10.897633 12.765,10.843 C13.7000396,7.34259631 16.8708625,4.90759657 20.494,4.90759657 C24.1171375,4.90759657 27.2879604,7.34259631 28.223,10.843 C29.3416431,10.897633 30.220561,11.8205236 30.220561,12.9405 C30.220561,14.0604764 29.3416431,14.983367 28.223,15.038 C27.3013735,18.5491375 24.1240707,20.9942917 20.494,20.9860228 L20.494,20.9860228 Z M12.987,14.326 C13.1599867,14.3196842 13.316736,14.4272971 13.373,14.591 C14.1223905,17.9220981 17.0806478,20.2887778 20.495,20.2887778 C23.9093522,20.2887778 26.8676095,17.9220981 27.617,14.591 C27.6532559,14.4144852 27.8205924,14.2966488 27.999,14.322 C28.0515672,14.3311664 28.1046831,14.3368454 28.158,14.339 C28.9311986,14.339 29.558,13.7121986 29.558,12.939 C29.558,12.1658014 28.9311986,11.539 28.158,11.539 C28.1244701,11.5399331 28.0910507,11.5432751 28.058,11.549 C27.8686292,11.5778616 27.6853795,11.468415 27.621,11.288 C26.8724627,7.95583537 23.9137056,5.58799805 20.4985,5.58799805 C17.0832944,5.58799805 14.1245373,7.95583537 13.376,11.288 C13.3392994,11.4642231 13.1722828,11.5818342 12.994,11.557 C12.9411005,11.5478072 12.8876502,11.5421281 12.834,11.54 C12.0608014,11.54 11.4340001,12.1668014 11.4340001,12.94 C11.4340001,13.7131986 12.0608014,14.34 12.834,14.34 C12.8675247,14.338987 12.9009385,14.3356456 12.9340001,14.33 C12.9514579,14.326585 12.9692115,14.3249101 12.987,14.325 L12.987,14.326 Z" id="Shape-3" fill="#263238"></path>
                        <path d="M13.529,12.098 L13.181,12.098 L13.181,7.547 L15.2710103,7.547 L15.2710103,10.347 C15.2725938,10.8103221 15.0898617,11.2552574 14.7630868,11.5837206 C14.4363119,11.9121837 13.9923241,12.0972062 13.529,12.098 Z" id="Path-10" fill="#FFD740"></path>
                        <path d="M13.528,12.449 L13.18,12.449 C13.0874393,12.4487352 12.9987749,12.4117114 12.9335122,12.3460736 C12.8682495,12.2804358 12.8317344,12.1915607 12.8319986,12.099 L12.8319986,7.552 C12.8317344,7.45943933 12.8682495,7.37056424 12.9335122,7.30492642 C12.9987749,7.23928861 13.0874393,7.20226484 13.18,7.202 L15.27,7.202 C15.3625607,7.20226484 15.4512251,7.23928861 15.5164878,7.30492642 C15.5817505,7.37056424 15.6182656,7.45943933 15.6180014,7.552 L15.6180014,10.352 C15.6163635,11.5067333 14.6827214,12.4435024 13.528,12.449 Z M13.528,7.902 L13.528,11.75 C14.2984636,11.7461476 14.921,11.1204732 14.921,10.35 L14.921,7.902 L13.528,7.902 Z" id="Shape-4" fill="#263238"></path>
                        <path d="M25.7189954,7.659 L25.7189954,10.492 C25.7179379,10.9548031 25.9007678,11.3990729 26.2272689,11.7270742 C26.55377,12.0550756 26.9971968,12.2399403 27.46,12.241 L27.808,12.241 L27.808,6.69 C27.2425918,7.24184277 26.5054829,7.58375686 25.7189954,7.659 L25.7189954,7.659 Z" id="Path-11" fill="#FFD740"></path>
                        <path d="M27.809,12.592 L27.461,12.592 C26.3051092,12.5864957 25.3709955,11.6479039 25.3709955,10.492 L25.3709955,7.659 C25.370091,7.47968294 25.5055896,7.32903269 25.684,7.311 C26.391313,7.24302651 27.0543836,6.93617997 27.564,6.441 C27.6644778,6.3427485 27.8140834,6.31434691 27.9435777,6.36893978 C28.0730719,6.42353265 28.1571896,6.55046846 28.1570014,6.691 L28.1570014,12.242 C28.1572656,12.3345607 28.1207505,12.4234358 28.0554878,12.4890736 C27.9902251,12.5547114 27.9015607,12.5917352 27.809,12.592 L27.809,12.592 Z M26.068,7.963 L26.068,10.493 C26.0679904,11.2634732 26.6905364,11.8891476 27.461,11.893 L27.461,7.411 C27.0367358,7.68406581 26.563193,7.87158059 26.067,7.963 L26.068,7.963 Z" id="Shape-5" fill="#263238"></path>
                        <path d="M20.494,16.5180043 C19.4771133,16.5192336 18.5018609,16.1142285 17.785,15.393 C17.6488494,15.2560864 17.6488494,15.0349136 17.785,14.898 C17.850126,14.8325362 17.9386588,14.7957305 18.031,14.7957305 C18.1233412,14.7957305 18.211874,14.8325362 18.277,14.898 C18.8642516,15.4869831 19.6617756,15.8180163 20.4935,15.8180163 C21.3252244,15.8180163 22.1227484,15.4869831 22.71,14.898 C22.775126,14.8325362 22.8636588,14.7957305 22.956,14.7957305 C23.0483412,14.7957305 23.136874,14.8325362 23.202,14.898 C23.3381506,15.0349136 23.3381506,15.2560864 23.202,15.393 C22.4856994,16.1144531 21.5106507,16.5195231 20.494,16.5180043 L20.494,16.5180043 Z" id="Path-12" fill="#263238"></path>
                        <path d="M25.371,7.694 L13.1809882,7.694 C13.1749181,4.80262408 15.5136253,2.45362015 18.405,2.447 L22.031,2.447 C23.5435212,2.44704104 25.0378742,2.1173893 26.41,1.481 L28.8540053,0.349 L28.8540053,4.197 C28.8573174,6.1242478 27.2982456,7.68958635 25.371,7.694 Z" id="Path-13" fill="#FFD740"></path>
                        <path d="M25.37,8.044 L13.179,8.044 C13.0864393,8.04373516 12.9977749,8.00671139 12.9325122,7.94107358 C12.8672495,7.87543576 12.8307344,7.78656067 12.8309926,7.694 C12.8260191,4.60967998 15.3196919,2.10392584 18.404,2.094 L22.03,2.094 C23.4915406,2.09172915 24.9352689,1.77309914 26.262,1.16 L28.706,0.032 C28.8140973,-0.0179633701 28.940237,-0.00918302414 29.0403696,0.0552748479 C29.1405023,0.11973272 29.2007222,0.230916638 29.2000064,0.35 L29.2000064,4.2 C29.2005632,6.31775407 27.487742,8.03683619 25.37,8.044 Z M13.541,7.344 L25.37,7.344 C27.1022481,7.33794131 28.5034598,5.93225857 28.504,4.2 L28.504,0.9 L26.555,1.8 C25.1365885,2.45621993 23.5928528,2.797377 22.03,2.8 L18.404,2.8 C15.8429108,2.80820869 13.7216513,4.79034771 13.54,7.345 L13.541,7.344 Z" id="Shape-6" fill="#263238"></path>
                        <path d="M7.219,10.323 L4.433,10.323 C4.23970034,10.323 4.083,10.1662997 4.083,9.973 C4.083,9.77970034 4.23970034,9.623 4.433,9.623 L7.219,9.623 C7.41229966,9.623 7.569,9.77970034 7.569,9.973 C7.569,10.1662997 7.41229966,10.323 7.219,10.323 Z" id="Path-14" fill="#263238"></path>
                        <path d="M10.355,5.596 L7.568,5.596 C7.37470034,5.596 7.218,5.43929966 7.218,5.246 C7.218,5.05270034 7.37470034,4.896 7.568,4.896 L10.354,4.896 C10.5472997,4.896 10.704,5.05270034 10.704,5.246 C10.704,5.43929966 10.5472997,5.596 10.354,5.596 L10.355,5.596 Z" id="Path-15" fill="#263238"></path>
                        <path d="M8.962,6.99501296 C8.86926638,6.99579867 8.78002796,6.95965636 8.71398558,6.89455209 C8.64794321,6.82944782 8.61052801,6.74073555 8.61,6.648 L8.61,3.848 C8.61,3.65470034 8.76670034,3.498 8.96,3.498 C9.15329966,3.498 9.31,3.65470034 9.31,3.848 L9.31,6.648 C9.3089029,6.83957648 9.15357885,6.9944542 8.962,6.99501296 L8.962,6.99501296 Z" id="Path-16" fill="#263238"></path>
                        <path d="M5.826,11.7380015 C5.73256898,11.7382739 5.64292939,11.7010737 5.57714593,11.6347264 C5.51136247,11.5683791 5.47492875,11.4784253 5.476,11.385 L5.476,8.585 C5.476,8.39170034 5.63270034,8.235 5.826,8.235 C6.01929966,8.235 6.176,8.39170034 6.176,8.585 L6.176,11.385 C6.17707125,11.4784253 6.14063753,11.5683791 6.07485407,11.6347264 C6.00907061,11.7010737 5.91943102,11.7382739 5.826,11.7380015 Z" id="Path-17" fill="#263238"></path>
                    </g>
                </g>
            </g>
        </g>
    </g>
</svg>
