<svg xmlns="http://www.w3.org/2000/svg" viewBox="0 0 650.73 546.806"><g transform="translate(-472.099 -138.097)"><path d="M964.511,279.764c20.339,24.36,24.486,52.109,17.048,82.2-3.5,14.17-11.179,26.128-21.308,36.294q-92.715,93.054-185.761,185.775c-13.053,13.016-28.658,21.57-47.046,24.631a9.083,9.083,0,0,0-2.569,1.4H698.907c-5.268-1.482-10.54-2.948-15.8-4.449A64.673,64.673,0,0,1,650,584.109c1.7-1.094,3.332-2.321,5.114-3.263,38.26-20.24,71.584-46.653,98.874-80.289,9.334-11.5,18.843-23.116,24.3-37.253,1.463-.948,3-1.8,4.371-2.859,3.1-2.393,8.618-3.335,8.609-7.617-.009-4.678-5.347-5.983-9-8.121-4.482-2.624-10.131-3.53-13.015-8.583l1.372-.348c3.474.011,6.287,1.609,8.959,3.636,12.976,9.837,26.778,10.681,41.152,3.484,5.039-2.523,10.021-5.511,9.51-12.293-.527-7-5.959-7.569-11.381-8.667-4.326-.874-9.068-1.693-11.81-6.014l1.894-2.861c4.739,1.654,9.466,3.339,14.219,4.952,6.4,2.17,13.115,1.922,19.407.6,6.189-1.305,10.475-6.1,11.966-12.443,1.932-8.211-3.107-13.2-9.021-17.567,17.135-12.573,31-28.276,43.422-45.358,6.55-9.007,11.349-20.365,19.895-26.622C926.741,303.51,944.913,290.469,964.511,279.764Z" transform="translate(93.974 74.835)" fill="#e2ecfc"/><path d="M567.054,290.833c10.167-12.577,22.317-23.216,33.744-34.567,27.6-27.421,55.387-54.673,82.432-82.637,13.763-14.234,27.915-27.2,47.613-32.368a3.231,3.231,0,0,0,2.714-3.163h22.913c.581,1.663.813,3.573,1.794,4.952,13.516,19,24.871,39.311,35.808,59.835a582.491,582.491,0,0,1,37.587,88.126c1.525,4.528.412,5.386-4.027,6.176-14.683,2.609-30.032,4.16-43.225,10.991-10.86,5.625-20.807,4.177-31.321,2.123-34.288-6.7-68.458-5.836-102.5,1.389-19.41,4.12-38.49,6.533-56.871-4.021C584.578,302.423,574.2,299.214,567.054,290.833Z" transform="translate(50.159)" fill="#eff4fc"/><path d="M778.719,138.1c12.914,4.178,26.31,7.241,37.143,16.195,5.062,4.183,10.519,7.961,15.157,12.567q49.747,49.4,99.09,99.212c4.346,4.407,7.238,4.531,11.951,1.183,3.617-2.567,6.452-6.625,11.4-7.1q3.741,4.5,7.488,9c-10.458,13.3-24.923,21.457-38.957,30.12-4.9,3.027-9.625,6.1-15.82,6.981-26.824,3.807-53.571,8.147-80.323,12.437-16.4,2.629-31.6,9.206-47.1,14.79-14-4.507-28.607-6.315-43.078-7.241a275.918,275.918,0,0,0-75.593,5.286c-20.578,4.4-40.974,6.183-60.245-6.159-9.792-6.272-20.184-11.65-30.05-17.9-7.23-4.585-13.117-11.337-21.719-13.737,2.188-4.591,5.76-8.453,7.094-13.493,4.993-.055,8.014,3.842,11.925,5.956,3.238,1.751,5.731,5.107,10,4.64,7.143,8.381,17.524,11.59,26.657,16.835,18.38,10.554,37.46,8.141,56.871,4.021,34.046-7.226,68.216-8.086,102.5-1.389,10.514,2.054,20.462,3.5,31.321-2.123,13.193-6.831,28.541-8.382,43.225-10.991,4.439-.79,5.552-1.647,4.027-6.176A582.491,582.491,0,0,0,804.1,202.884c-10.938-20.524-22.292-40.832-35.808-59.835-.981-1.378-1.214-3.289-1.794-4.952Z" transform="translate(40.13)" fill="#e2ecfc"/><path d="M595.291,242.49c-1.334,5.04-4.906,8.9-7.094,13.494-19.088,27.044-37.82,54.325-55.324,82.427-1.93,2.642-3.918,5.243-5.78,7.932-6.468,9.342-9.142,10.021-18.481,3.995-12.227-7.89-24.346-15.949-36.513-23.935V315.712c8.048-6.388,11.934-15.886,17.566-24.021,16.916-24.438,33.221-49.3,49.809-73.965,6.616-9.84,9.211-10.366,19.085-3.859,9.978,6.576,19.853,13.3,29.825,19.889C591.686,235.934,594.3,238.543,595.291,242.49Zm-80.16,80.6c-.031-5.467-4.328-9.9-9.691-9.568-5.823.365-9.643,3.515-9.533,9.535.107,5.842,3.434,9.451,9.581,9.643A9.481,9.481,0,0,0,515.131,323.092Z" transform="translate(0 37.747)" fill="#566ec2"/><path d="M896.951,237.894c6.579,7.623,13.23,15.188,19.684,22.916,1.463,1.751,2.618,3.712,4.721,4.8v9.163q-17.323,14.671-34.639,29.352c-5.221,4.446-11.5,4.024-15.9-1.305-1.91-2.312-3.015-5.337-6.032-6.64-1.048-5.936-6.445-8.844-9.574-13.328-2.358-3.377-2.406-5.574.721-7.467,7.433-4.5,13.88-10.3,19.919-16.306C882.909,252.062,892.936,247.919,896.951,237.894Zm-9.613,27.73c-5.081.561-8.447,3.3-8.615,9.117-.142,4.952,5.459,10.609,10.108,10.369,4.489-.232,9.778-5.887,9.328-10.5C897.571,268.548,893.6,265.962,887.338,265.624Z" transform="translate(201.474 52.717)" fill="#e2ecfc"/><path d="M511.866,322.363c17.5-28.1,36.236-55.384,55.324-82.427,8.6,2.4,14.489,9.151,21.719,13.736,9.866,6.255,20.258,11.633,30.05,17.9,19.271,12.342,39.667,10.559,60.245,6.159a275.917,275.917,0,0,1,75.593-5.286c14.471.926,29.073,2.734,43.078,7.242-11.546,9.165-25.04,15.348-36.892,24-10.42,7.608-24.224,10.947-31.882,21.586-9.374,13.027-19.236,25.41-30.687,36.612-1.9,1.86-3.515,4.441-2.213,7.574,3,7.215,18.081,14.223,25.83,11.482,12.785-4.521,24.8-10.669,34.132-20.754,5.37-5.8,11.453-9.776,19.073-11.635,5.655-1.378,11.335-2.725,16.872-4.5,17.99-5.774,32.944-2.135,47.3,10.907s29.7,25.228,46.625,35.105c10.909,6.367,21.018,14.064,32.451,19.569,5.914,4.371,10.953,9.356,9.021,17.567-1.491,6.342-5.777,11.138-11.966,12.443-6.292,1.326-13.01,1.574-19.407-.6-4.753-1.612-9.48-3.3-14.219-4.953-18.469-12.906-37.228-25.344-57.126-36.148.159,3.756,2.566,5.723,4.892,7.334,14.341,9.931,28.8,19.693,43.251,29.46,2.1,1.42,4.369,2.621,7.09,2.216,2.742,4.32,7.484,5.139,11.81,6.014,5.422,1.1,10.854,1.669,11.381,8.667.51,6.782-4.472,9.77-9.51,12.293-14.375,7.2-28.176,6.353-41.152-3.484-2.671-2.026-5.485-3.625-8.959-3.634-.095-1.738-1.2-2.606-2.624-3.4-12.628-7.033-25.2-14.171-37.859-21.145-2.147-1.183-4.294-3.306-9.145-1.382,16.412,10.281,30.964,20.665,48.256,26.274,2.884,5.052,8.532,5.959,13.015,8.583,3.65,2.138,8.988,3.443,9,8.121.009,4.282-5.512,5.224-8.609,7.617-1.372,1.061-2.908,1.912-4.369,2.861-7.682.633-15.324,2.687-23.749-.553,4.417,7.984,3.848,9.5-3.819,12.053a26.4,26.4,0,0,1-5.959.859c-11.094.983-21.641-1.293-31.946-5.24-2.966-1.135-6-3.056-9.357-.929-8.072-8.026-18.559-12.047-28.4-17.133a3.43,3.43,0,0,0-3.582-.156c-5.9,3.519-7.961.486-9.452-4.976-1.053-3.853-3.136-7.458-5-11.049-4.068-7.852-9.5-11.026-18.016-9.157-5.511,1.209-9.237,2.049-9.559-5.418-.093-2.156-2.82-3.188-5.02-4.143-6.188-2.691-11.774-.97-17.332,1.739a2.9,2.9,0,0,1-2.911-1.651c.339-.611,1.123-1.569.955-1.783-11.628-14.836-17.41-32.081-21.3-50.226-.738-3.443-3.445-5.774-7.236-2.062-5.008,4.907-10.175,9.652-15.273,14.466-7.018-6.581-13.543-13.806-21.152-19.614-16.973-12.953-36.112-22.412-54.947-32.318-14.355-7.55-28.632-15.249-42.942-22.881ZM767.26,453.977l-1.409,2.94,39.705,19.849L807,473.875Z" transform="translate(21.007 53.796)" fill="#fbd8d1"/><path d="M777.005,461.418c3.354-2.127,6.391-.206,9.357.929,10.3,3.948,20.853,6.223,31.946,5.24a26.4,26.4,0,0,0,5.959-.859c7.667-2.549,8.236-4.07,3.819-12.053,8.425,3.24,16.066,1.186,23.749.553-5.454,14.135-14.963,25.748-24.3,37.251-27.29,33.637-60.615,60.049-98.874,80.289-1.782.941-3.413,2.169-5.114,3.263-3.24-.027-4.815-2.6-6.744-4.53C656.388,511.132,595.732,451,535.724,390.22c-24.026-24.334-29.706-54.217-21.331-87,.692-2.708,1.732-5.306,1.443-8.167,14.31,7.634,28.587,15.333,42.942,22.882,18.834,9.906,37.974,19.364,54.947,32.318,7.609,5.807,14.135,13.033,21.152,19.614,7.09,7.19,14.118,14.442,21.3,21.539,2.629,2.6,3.914,4.109-.587,6.454-4.363,2.274-5.908,6.866-4.9,11.778A19.986,19.986,0,0,0,676,424.7l2.535.144c2.26,9.921,6.775,18.036,17.266,21.243,5.323,1.626,10.279-4.362,13.928-2.757,4.007,1.764,5.855,8.656,10.835,10.01,7.216,1.959,13.844,4.939,20.66,7.658C752.247,465.4,765.007,464.074,777.005,461.418Z" transform="translate(20.421 82.913)" fill="#eff4fc"/><path d="M854.93,418.133c-11.433-5.5-21.542-13.2-32.451-19.569-16.924-9.877-32.28-22.071-46.625-35.105s-29.309-16.681-47.3-10.907c-5.537,1.776-11.217,3.122-16.872,4.5-7.62,1.858-13.7,5.833-19.073,11.635-9.333,10.085-21.347,16.233-34.132,20.754-7.75,2.742-22.834-4.267-25.83-11.482-1.3-3.133.312-5.714,2.213-7.574,11.451-11.2,21.313-23.585,30.687-36.612,7.658-10.64,21.463-13.979,31.882-21.586,11.852-8.651,25.346-14.835,36.892-24,15.495-5.586,30.695-12.163,47.1-14.792,26.752-4.29,53.5-8.63,80.323-12.437,6.2-.88,10.916-3.954,15.82-6.981,14.034-8.664,28.5-16.817,38.953-30.12a40.858,40.858,0,0,1,3.261,3.157q17,20.48,33.928,41.026c3.04,3.7,5.26,5.847,10.088,1.2,8.346-8.043,18-14.72,26.536-22.581,4.514-4.155,10.473-7.513,11.691-14.472,5.234,3.217,7.646,8.98,11.842,13.131-4.016,10.024-14.043,14.167-21.106,21.185-6.04,6-12.486,11.807-19.919,16.306-3.127,1.893-3.079,4.09-.721,7.467,3.13,4.484,8.526,7.392,9.574,13.328-3.021,1.316-5.818,2.931-7.766,5.7-19.6,10.7-37.772,23.743-55.68,36.852-8.546,6.257-13.345,17.615-19.895,26.622C885.933,389.857,872.064,405.56,854.93,418.133Z" transform="translate(84.56 45.302)" fill="#e7b2a7"/><path d="M771.856,382.343c-2.72.4-4.988-.8-7.09-2.216-14.453-9.767-28.91-19.529-43.251-29.46-2.326-1.611-4.733-3.578-4.892-7.334,19.9,10.8,38.657,23.242,57.126,36.148Z" transform="translate(129.169 108.415)" fill="#e7b2a7"/><path d="M744.709,391.427c-17.292-5.609-31.844-15.993-48.256-26.274,4.851-1.924,7,.2,9.145,1.382,12.661,6.973,25.231,14.112,37.859,21.145,1.424.795,2.529,1.663,2.624,3.4Q745.393,391.252,744.709,391.427Z" transform="translate(118.514 119.532)" fill="#e7b2a7"/><path d="M906.437,249.357c-1.218,6.96-7.177,10.317-11.691,14.472-8.54,7.861-18.191,14.538-26.536,22.581-4.828,4.652-7.048,2.5-10.088-1.2q-16.908-20.56-33.928-41.026a40.858,40.858,0,0,0-3.261-3.157l-7.485-9c-.773-4.5-.341-8.5,3.588-11.68,10.667-8.641,21.226-17.414,31.8-26.176,4.776-3.958,9.345-3.886,13.306.931Q884.379,222.156,906.437,249.357Z" transform="translate(180.147 28.125)" fill="#566ec2"/><path d="M506.9,287.16a9.481,9.481,0,0,1-9.643,9.61c-6.147-.193-9.474-3.8-9.581-9.643-.11-6.02,3.711-9.169,9.533-9.535C502.575,277.256,506.872,281.694,506.9,287.16Z" transform="translate(8.229 73.678)" fill="#eff4fc"/><path d="M878.621,256.039c6.263.338,10.233,2.924,10.821,8.985.449,4.615-4.84,10.27-9.328,10.5-4.649.24-10.25-5.418-10.108-10.369C870.174,259.337,873.539,256.6,878.621,256.039Z" transform="translate(210.191 62.302)" fill="#fefefe"/><path d="M719.009,422.366c-12,2.656-24.758,3.98-35.779-.417-6.816-2.719-13.444-5.7-20.66-7.658-4.981-1.354-6.828-8.246-10.835-10.01-3.649-1.6-8.605,4.383-13.928,2.757-10.491-3.206-15.006-11.321-17.26-21.243q1.057-6.861,2.1-13.721c5.56-2.711,11.145-4.432,17.333-1.741,2.2.955,4.927,1.987,5.02,4.143.323,7.467,4.048,6.626,9.559,5.418,8.514-1.869,13.948,1.305,18.016,9.157,1.861,3.591,3.944,7.2,5,11.049,1.492,5.462,3.556,8.5,9.452,4.976a3.43,3.43,0,0,1,3.582.156C700.45,410.319,710.937,414.34,719.009,422.366Z" transform="translate(78.416 121.964)" fill="#e7b2a7"/><path d="M633.1,404.5a19.986,19.986,0,0,1-25.311-15.062c-1.007-4.912.538-9.5,4.9-11.778,4.5-2.344,3.215-3.856.587-6.454-7.183-7.1-14.211-14.349-21.3-21.539,5.1-4.814,10.265-9.559,15.273-14.466,3.792-3.712,6.5-1.382,7.236,2.062,3.889,18.145,9.671,35.39,21.3,50.226.168.214-.616,1.172-.955,1.783l-3.055-1.43-.614-.37.669.313C631.239,393.429,634.724,398.769,633.1,404.5Z" transform="translate(63.323 103.119)" fill="#e7b2a7"/><path d="M679.469,379.993l39.739,19.9-1.443,2.891L678.06,382.933Z" transform="translate(108.798 127.78)" fill="#e7b2a7"/><path d="M619.345,385.668c1.626-5.728-1.858-11.068-1.27-16.716l-.057.057,3.057,1.43a2.9,2.9,0,0,0,2.911,1.651q-1.048,6.861-2.1,13.722Z" transform="translate(77.076 121.948)" fill="#e2ecfc"/><path d="M618.283,369.06l-.669-.313.614.37Z" transform="translate(76.868 121.84)" fill="#e2ecfc"/></g></svg>
