<?xml version="1.0" encoding="UTF-8"?>
<svg viewBox="0 0 21 21.5" version="1.1" xmlns="http://www.w3.org/2000/svg" xmlns:xlink="http://www.w3.org/1999/xlink">
    <g stroke="none" stroke-width="1" fill="none" fill-rule="evenodd" stroke-linejoin="round">
        <g transform="translate(1, -141)" stroke="currentColor">
            <g transform="translate(0, 141.0318)">
                <g id="tags-edit" transform="translate(-0, 1)">
                    <path d="M15.1167607,5.83775324 C15.4813461,5.42349344 15.6957555,4.89849681 15.7254034,4.34744805 L15.7254034,0.86948961 C15.7254034,0.389283758 15.3361196,0 14.8559138,0 L11.153627,0.00608642727 C10.6033052,0.0366521841 10.0798132,0.253777169 9.66940827,0.621685071 L0.254574779,10.0365186 C-0.0848582598,10.3760541 -0.0848582598,10.9264413 0.254574779,11.2659769 L4.45942653,15.4708286 C4.62190638,15.633308 4.84260388,15.7240811 5.07238189,15.7229486 C5.3021599,15.7217948 5.52194328,15.6288302 5.68279841,15.4647422 L15.1167607,5.83775324 Z" id="Path" stroke-linecap="round"></path>
                    <circle id="Oval" stroke-linecap="round" cx="12.6821898" cy="3.04321363" r="1.30423441"></circle>
                    <path d="M12.4213429,18.9566125 L8.76948653,20 L9.81287406,16.3481436 L16.05494,10.1060777 C16.520898,9.64011965 17.2000467,9.45814231 17.8365573,9.6286948 C18.4730679,9.7992473 18.9702392,10.2964186 19.1407917,10.9329292 C19.3113442,11.5694398 19.1293669,12.2485885 18.6634088,12.7145466 L12.4213429,18.9566125 Z" id="Path" stroke-linecap="round"></path>
                    <line x1="15.2723993" y1="10.8868794" x2="17.8808681" y2="13.4953482" id="Path"></line>
                    <line x1="9.81287406" y1="16.3464047" x2="12.4213429" y2="18.9548735" id="Path" stroke-linecap="round"></line>
                </g>
            </g>
        </g>
    </g>
</svg>