<?xml version="1.0" encoding="UTF-8"?>
<svg viewBox="0 0 25 25" version="1.1" xmlns="http://www.w3.org/2000/svg" xmlns:xlink="http://www.w3.org/1999/xlink">
    <title>task-list-text</title>
    <g id="Activity" stroke="currentColor" stroke-width="1" fill="none" fill-rule="evenodd" stroke-linecap="round" stroke-linejoin="round">
        <g id="task-list-text" transform="translate(1.000000, 1.000000)" stroke="#333333">
            <path d="M21.5,0.5 L21.49,0.5 C22.59,0.49 23.49,1.39 23.49,2.49 L23.49,17.51 L23.49,17.51 C23.49,20.8 20.81,23.48 17.51,23.48 L2.48,23.48 L2.47,23.479 C1.36,23.469 0.469917464,22.579 0.469917464,21.469 C0.469917464,21.469 0.469917464,21.469 0.469917464,21.469 L0.469917464,2.469 L0.469917464,2.469 C0.46,1.35 1.36,0.45 2.46,0.45 L21.5,0.5 Z" id="Path"></path>
            <path d="M18.5,23.42 L18.5,19.5 L18.5,19.5 C18.49,18.94 18.94,18.49 19.49,18.49 L23.41,18.49" id="Path"></path>
            <line x1="3.5" y1="6.5" x2="20.5" y2="6.5" id="Path"></line>
            <line x1="3.5" y1="10.5" x2="20.5" y2="10.5" id="Path"></line>
            <line x1="3.5" y1="14.5" x2="20.5" y2="14.5" id="Path"></line>
            <line x1="3.5" y1="18.5" x2="14.5" y2="18.5" id="Path"></line>
            <line x1="6.5" y1="3.5" x2="6.5" y2="20.5" id="Path"></line>
        </g>
    </g>
</svg>
