<?xml version="1.0" encoding="UTF-8"?>
<svg viewBox="0 0 238 141" version="1.1" xmlns="http://www.w3.org/2000/svg" xmlns:xlink="http://www.w3.org/1999/xlink">
    <title>Group 23</title>
    <defs>
        <rect id="path-1" x="-7.46069873e-14" y="-7.37188088e-14" width="14.3475912" height="14.4305806" rx="7.17379562"></rect>
        <filter id="filter-3">
            <feColorMatrix in="SourceGraphic" type="matrix" values="0 0 0 0 0.215686 0 0 0 0 0.278431 0 0 0 0 0.309804 0 0 0 1.000000 0"></feColorMatrix>
        </filter>
        <rect id="path-4" x="-7.48607525e-14" y="2.28388736e-14" width="14.3475912" height="14.4305806" rx="7.17379562"></rect>
        <filter id="filter-6">
            <feColorMatrix in="SourceGraphic" type="matrix" values="0 0 0 0 0.215686 0 0 0 0 0.278431 0 0 0 0 0.309804 0 0 0 1.000000 0"></feColorMatrix>
        </filter>
        <circle id="path-7" cx="7.5" cy="7.5" r="7.5"></circle>
        <filter id="filter-9">
            <feColorMatrix in="SourceGraphic" type="matrix" values="0 0 0 0 0.215686 0 0 0 0 0.278431 0 0 0 0 0.309804 0 0 0 1.000000 0"></feColorMatrix>
        </filter>
        <filter id="filter-10">
            <feColorMatrix in="SourceGraphic" type="matrix" values="0 0 0 0 0.160784 0 0 0 0 0.160784 0 0 0 0 0.286275 0 0 0 1.000000 0"></feColorMatrix>
        </filter>
        <filter id="filter-11">
            <feColorMatrix in="SourceGraphic" type="matrix" values="0 0 0 0 0.160784 0 0 0 0 0.160784 0 0 0 0 0.286275 0 0 0 1.000000 0"></feColorMatrix>
        </filter>
    </defs>
    <g id="Kanban" stroke="none" stroke-width="1" fill="none" fill-rule="evenodd">
        <g id="Task-Board-List-Empty" transform="translate(-977.000000, -302.000000)">
            <g id="Group-23" transform="translate(977.000000, 302.000000)">
                <path d="M0,140.11048 C4.74408994,132.994317 6.22661805,125.878155 4.44758432,118.761992 C1.77903373,108.087749 14.2322698,98.3030251 23.1274385,99.1925455 C32.0226071,100.082066 51.5919781,110.756309 54.2605287,105.419188 C56.9290793,100.082066 50.7024613,87.6287814 52.481495,81.4021393 C54.2605287,75.1754971 61.3766636,55.6060503 83.6145852,58.2746112 C94.2887876,60.0536518 96.0678213,71.6174159 106.742024,68.9488549 C117.416226,66.280294 120.974294,31.5890019 137.875114,22.6937988 C154.775934,13.7985957 185.019508,8.46147389 214.373564,30.6994816 C233.942935,45.5248201 241.355576,82.2916596 236.611486,141 L0,140.11048 Z" id="Path-2-Copy-5" fill="#F7F8F9"></path>
                <g id="Group-22" transform="translate(28.000000, 0.000000)">
                    <g id="Group-2">
                        <rect id="Rectangle-Copy-17" fill="#CCCCCC" x="0" y="0" width="180" height="111" rx="3"></rect>
                        <rect id="Rectangle-Copy-12" fill="#FFFFFF" x="8" y="9" width="57" height="93" rx="3"></rect>
                        <rect id="Rectangle-Copy-21" fill="#74C5D7" x="11.5" y="58" width="50" height="35" rx="3"></rect>
                        <rect id="Rectangle-Copy-26" fill="#FFFFFF" x="135" y="9" width="37" height="93" rx="3"></rect>
                        <rect id="Rectangle-Copy-24" fill="#FFFFFF" x="72" y="9" width="57" height="93" rx="3"></rect>
                        <rect id="Rectangle-Copy-12" fill="#74C5D7" x="11.5" y="13" width="50" height="19" rx="3"></rect>
                        <rect id="Rectangle-Copy-27" fill="#74C5D7" x="138.5" y="13" width="29" height="19" rx="3"></rect>
                        <rect id="Rectangle-Copy-19" fill="#74C5D7" x="11.5" y="35" width="50" height="19" rx="3"></rect>
                        <g id="Group-16" transform="translate(14.000000, 61.000000)">
                            <mask id="mask-2" fill="white">
                                <use xlink:href="#path-1"></use>
                            </mask>
                            <use id="Rectangle_31" fill="#FFFFFF" xlink:href="#path-1"></use>
                            <g filter="url(#filter-3)" id="Mask_Group_2">
                                <g mask="url(#mask-2)">
                                    <g transform="translate(2.267987, 1.859152)">
                                        <path d="M9.50997393,10.3933272 C9.36618352,12.995765 5.99232534,13.3996728 3.61985923,13.4313041 C1.24739312,13.4629355 -0.651819604,9.83202304 0.595875912,4.89738249 C1.23499479,2.36930876 2.45562565,0.132152074 4.82945255,0.100520737 C7.20327946,0.0688894009 9.81206986,4.92490783 9.50997393,10.3933272 Z" id="Path_7-2" fill="#37474F"></path>
                                        <polygon id="Rectangle_7" fill="#FFDFAE" transform="translate(5.082833, 8.176511) rotate(-0.744803) translate(-5.082833, -8.176511) " points="3.98673174 6.69892197 6.17915582 6.69875714 6.17893491 9.65410074 3.98651083 9.65426557"></polygon>
                                        <path d="M3.98606361,8.24908756 L3.97094369,7.11248848 L6.1633316,7.08313825 L6.17648592,8.07161751 C6.17648592,8.07161751 6.03949948,8.50989401 5.18114181,8.52129954 C4.29995308,8.53316129 3.98606361,8.24908756 3.98606361,8.24908756 Z" id="Path_8-3" fill="#F4CA92"></path>
                                        <path d="M7.3956048,4.16529954 C7.39967084,4.43258004 7.38896961,4.69988135 7.36355057,4.96596774 C7.33845151,5.22236406 7.73081335,4.49682028 7.81714807,5.03440092 C7.92540667,5.7061106 7.16517727,6.00660829 7.11528154,6.15062212 C6.75724192,7.18685253 6.0531074,7.88076498 4.98715328,8.00774654 C4.02204901,8.12271429 3.11228363,7.30531797 2.58308655,6.20582488 C2.51504692,6.06439631 1.83253389,6.06059447 1.77462461,5.49427189 C1.68844108,4.64889401 2.27086027,5.26981106 2.23290928,5.13461751 C1.9583316,4.15891244 2.11830031,3.38713825 3.01612096,3.70968664 C3.19755996,3.77477419 2.97605318,3.07021659 3.16732013,3.10139171 C3.31942649,3.12678802 3.30143379,3.70421198 3.46971846,3.70968664 C3.61393254,3.71311071 3.75822221,3.70803289 3.90184567,3.69447926 C5.44059958,3.55289862 7.37549531,2.63057143 7.3956048,4.16529954 Z" id="Path_9" fill="#FFDFAE"></path>
                                        <path d="M9.33790928,12.6029585 C9.32278936,11.4624055 7.76135558,9.02922581 6.62448905,9.15940092 C6.13898853,9.21490783 5.4009854,9.46354839 5.09420229,9.47404147 L3.5338269,9.19924424 C1.08258603,9.76830415 0.0913242961,11.6090046 0.106141814,12.7264424 L9.33790928,12.6029585 Z" id="Path_10" fill="#F0AF56"></path>
                                        <polygon id="Path_11" fill="#FFFFFF" points="5.09435349 9.41686175 3.20632951 11.1527834 3.36236705 9.02952995"></polygon>
                                        <polygon id="Path_12" fill="#FFFFFF" points="5.06381126 9.4078894 6.95183525 11.1438111 6.79579771 9.0205576"></polygon>
                                    </g>
                                </g>
                            </g>
                        </g>
                        <g id="Group-14" transform="translate(14.000000, 37.000000)">
                            <mask id="mask-5" fill="white">
                                <use xlink:href="#path-4"></use>
                            </mask>
                            <use id="Rectangle_31" fill="#FFFFFF" xlink:href="#path-4"></use>
                            <g filter="url(#filter-6)" id="Group-12">
                                <g mask="url(#mask-5)">
                                    <g transform="translate(2.374055, 2.039328)">
                                        <path d="M7.289537,5.92644658 C6.3834004,5.92644658 1.67203439,7.52215626 1.09747756,3.95176916 C0.746090703,1.76844658 1.70227423,0.761870543 3.36289467,0.458027225 C3.36289467,0.458027225 3.07939623,-0.00108337446 3.36289467,0.00180602646 C3.59105421,0.00454335365 3.67376015,0.264893584 3.96769133,0.305953492 C4.18042855,0.33560787 3.88075181,-0.0286087201 4.11889049,0.00180602646 C4.37865066,0.0354143214 4.56931281,0.407842893 4.87397913,0.305953492 C5.78011573,0.00180602646 6.82097079,1.04396732 7.13939623,1.21733137 C8.26008445,1.82714704 8.34672157,5.92644658 7.289537,5.92644658 Z" id="Path_13" fill="#37474F"></path>
                                        <polygon id="Rectangle_12" fill="#FFDFAE" transform="translate(4.979585, 8.788513) rotate(-0.744803) translate(-4.979585, -8.788513) " points="3.88349989 7.09275586 6.07592397 7.09259103 6.07567045 10.4842706 3.88324636 10.4844354"></polygon>
                                        <path d="M3.87999581,8.5009028 L3.8648759,7.36430372 L6.0572638,7.33495349 L6.07041813,8.32343275 C6.07041813,8.32343275 5.93343168,8.76170925 5.07507402,8.77311478 C4.19388528,8.78497653 3.87999581,8.5009028 3.87999581,8.5009028 Z" id="Path_14" fill="#F4CA92"></path>
                                        <path d="M7.67947965,4.65434981 C7.67297809,4.73920695 8.17223773,4.34685672 8.1956736,4.55915165 C8.34687277,5.92629451 7.64379665,5.84250188 7.59087694,6.07821616 C7.30027214,7.38711478 6.68474034,7.90097193 5.9295005,8.20481524 C5.59913033,8.33772769 4.39256098,8.51489358 3.96617934,8.20481524 C3.57124712,7.91770004 2.7579468,7.59652031 2.3049541,6.53398114 C2.05048591,5.93663552 1.24776953,6.22983368 1.09672157,4.86299497 C1.06481854,4.57511939 1.8518102,4.86299497 1.8518102,4.86299497 C1.8518102,4.86299497 1.70227423,4.2166816 1.70061104,4.10353875 C1.65918246,0.970819851 3.45104378,2.94777838 4.5700688,2.73639589 C6.98759227,2.28063091 7.89372887,1.82440971 7.67947965,4.65434981 Z" id="Path_15" fill="#FFDFAE"></path>
                                        <path d="M10.1589948,12.7617046 C10.1497716,12.0629258 9.10982376,11.0501148 8.1956736,10.1793406 C7.72045462,9.72676916 6.7275297,8.96411939 6.08130447,8.96411939 C6.08130447,8.96411939 5.9301053,9.87549727 5.0241199,9.72357561 C4.08849946,9.56678759 4.03981333,9.20819773 3.88710217,9.04152492 C3.85761834,9.00943736 2.78334826,9.20880603 2.00361416,9.87549727 C0.901674644,10.8183544 -0.00945152884,12.4078291 4.94842262e-14,13.1199904 L10.1589948,12.7617046 Z" id="Path_16" fill="#F74E88"></path>
                                    </g>
                                </g>
                            </g>
                        </g>
                        <g id="Group-11" transform="translate(14.000000, 15.000000)">
                            <mask id="mask-8" fill="white">
                                <use xlink:href="#path-7"></use>
                            </mask>
                            <use id="Oval-Copy" fill="#FFFFFF" xlink:href="#path-7"></use>
                            <g filter="url(#filter-9)" id="Group-6">
                                <g mask="url(#mask-8)">
                                    <g transform="translate(2.161008, 1.179465)">
                                        <path d="M10.0100496,5.98214262 C10.8836448,8.65686223 7.7862459,10.1746985 5.15017245,10.2084354 C2.51409899,10.2421724 -1.07839319,10.4802965 0.307935163,5.16606818 C1.01806724,2.44352724 2.37432376,0.0342815819 5.01190921,0.000217065745 C7.64949466,-0.0338474504 9.34678929,3.94989945 10.0100496,5.98214262 Z" id="Path_3" fill="#37474F"></path>
                                        <polygon id="Rectangle_2" fill="#FFDFAE" transform="translate(5.289843, 8.427460) rotate(-0.744803) translate(-5.289843, -8.427460) " points="4.07139277 7.10571601 6.50740679 7.10651274 6.50829342 9.74920412 4.0722794 9.74840739"></polygon>
                                        <path d="M4.07481038,8.62263394 L4.05801047,7.39876793 L6.49399703,7.36715999 L6.50861295,8.43167612 C6.50861295,8.43167612 6.35640579,8.9036662 5.40284305,8.91594908 C4.42357646,8.9285595 4.07481038,8.62263394 4.07481038,8.62263394 Z" id="Path_4-2" fill="#F4CA92"></path>
                                        <path d="M8.03387654,4.53047017 C8.06445237,6.77627166 6.50239699,8.50340813 5.18763624,8.51592573 C4.13495405,8.52600863 2.77768954,7.44560664 2.17222088,5.7292791 C2.10502125,5.53848506 1.17901036,5.30592922 1.14305856,4.64101607 C1.10357877,3.91174064 1.87435852,4.43007811 1.87116654,4.19883245 C1.82513479,0.82513518 4.93160565,0.834470167 4.84223015,2.06488704 C4.64147125,4.82345776 8.00313271,2.28499622 8.03387654,4.53047017 Z" id="Path_5" fill="#FFDFAE"></path>
                                        <path d="M10.3569677,13.76152 C10.3373118,12.2801736 8.0762123,9.25299384 5.17453231,9.29165234 C2.27285232,9.33031084 0.0797924215,12.4172509 0.099280314,13.8984284 L10.3569677,13.76152 Z" id="Path_6" fill="#9BD075"></path>
                                    </g>
                                </g>
                            </g>
                        </g>
                        <rect id="Rectangle-Copy-28" fill="#74C5D7" x="138.5" y="35" width="29" height="19" rx="3"></rect>
                        <rect id="Rectangle-Copy-25" fill="#74C5D7" x="75.5" y="15" width="50" height="39" rx="3"></rect>
                    </g>
                    <g id="Group-20" transform="translate(114.000000, 50.006709)">
                        <g id="Group-18" transform="translate(24.671543, 0.000000)">
                            <g filter="url(#filter-10)" id="Shape-3654">
                                <g transform="translate(18.292359, 82.081007)">
                                    <polygon id="Shape-3655" fill="#FFDFAE" transform="translate(8.050515, 2.356999) rotate(174.369000) translate(-8.050515, -2.356999) " points="6.61086785 0.130769108 9.49051083 0.13054303 9.49016153 4.58322941 6.61051855 4.58345549"></polygon>
                                    <path d="M10.4101839,6.70068192 L0.224551724,6.69131808 C0.179038883,6.30461083 0.254681396,5.91330344 0.441022989,5.57148741 L10.1626667,5.43166819 L10.4101839,6.70068192 Z" id="Shape-3656" fill="#92AED9"></path>
                                    <path d="M0.441448276,5.5712746 C1.07363793,4.55189245 3.09226437,4.76534554 4.4283046,3.47888101 C5.4828046,2.46375515 6.56792529,2.71636613 6.56792529,2.71636613 C6.56792529,2.71636613 7.07210345,4.13051945 8.39666092,3.97197254 C9.03459195,3.89535927 8.90402874,3.40099085 9.2685,3.1939222 C9.42077165,3.11203761 9.60768751,3.13233412 9.73886782,3.24499771 L10.3066264,6.16055835 L0.216896552,6.29463158 C0.221491727,6.03704768 0.299388258,5.78611664 0.441448276,5.5712746 Z" id="Shape-3657" fill="#FFFFFF"></path>
                                </g>
                            </g>
                            <g filter="url(#filter-11)" id="Shape-3658">
                                <g transform="translate(6.500000, 84.993247) rotate(1.000000) translate(-6.500000, -84.993247) translate(1.000000, 81.493247)">
                                    <polygon id="Shape-3659" fill="#FFDFAE" transform="translate(8.050389, 2.351354) rotate(-174.631000) translate(-8.050389, -2.351354) " points="6.61040167 0.124901789 9.49004263 0.125117474 9.49037588 4.57780698 6.61073492 4.57759129"></polygon>
                                    <path d="M10.4101839,6.69514874 L0.224764368,6.6857849 C0.179206534,6.29900758 0.254850387,5.90761889 0.441235632,5.56574142 L10.163092,5.4259222 L10.4101839,6.69514874 Z" id="Shape-3660" fill="#92AED9"></path>
                                    <path d="M0.441448276,5.56574142 C1.07363793,4.54635927 3.09226437,4.75981236 4.4283046,3.47334783 C5.48301724,2.45843478 6.56792529,2.71104577 6.56792529,2.71104577 C6.56792529,2.71104577 7.07210345,4.12519908 8.39666092,3.96665217 C9.03459195,3.8900389 8.90402874,3.39567048 9.2685,3.18860183 C9.42078371,3.10677919 9.60766246,3.12707166 9.73886782,3.23967735 L10.3066264,6.15523799 L0.215408046,6.28888558 C0.220497556,6.03122757 0.298911468,5.78036708 0.441448276,5.56574142 Z" id="Shape-3661" fill="#FFFFFF"></path>
                                </g>
                            </g>
                            <path d="M12.4374283,40.465103 L23.0562157,40.465103 L10.8993766,83.0752769 L7.40308926,82.5247254 C7.40308926,82.5247254 9.13081914,64.2513959 9.25883064,62.4803524 C9.72494558,56.0401556 12.4374283,40.465103 12.4374283,40.465103 Z" id="Shape-3662" fill="#415C6B"></path>
                            <path d="M26.3356065,40.7366545 L16.8459571,40.4868101 L19.5928881,63.4801556 L24.5413191,83.3913067 L28.0376065,82.8407552 C28.0376065,82.8407552 26.4640433,62.7521167 26.3364571,60.9808604 C25.8690663,54.5400252 26.3356065,40.7366545 26.3356065,40.7366545 Z" id="Shape-3663" fill="#415C6B"></path>
                            <path d="M28.0293134,9.3769268 C28.3708191,15.6181419 32.5109916,14.2478284 32.0627387,14.9120229 C30.2780203,17.5570961 23.9961008,16.2540321 23.9961008,10.2626614 C23.9961008,4.27129064 20.3362904,1.92330666 23.3237214,0.742398195 C24.444141,0.299743732 27.5812732,1.18526547 28.0293134,9.3769268 Z" id="Shape-3664" fill="#292949"></path>
                            <path d="M19.4089513,11.3497186 C17.5236525,8.22730208 13.7526295,7.98171398 14.3610031,4.72799087 C15.163095,0.437647622 22.2022387,-1.83776657 24.4443536,1.84988561 C27.268049,6.49371398 22.1052732,15.8154211 19.4089513,11.3497186 Z" id="Shape-3666" fill="#292949"></path>
                            <polygon id="Shape-3667" fill="#FFDFAE" points="20.6973594 9.28201147 18.6472617 9.28201147 15.6151755 14.2852838 13.3873076 18.8261099 26.309026 18.706508 22.3398191 14.4940549"></polygon>
                            <path d="M21.7244283,12.5280733 C21.7244283,12.5280733 20.6556812,15.8509611 19.6313766,15.8509611 C18.4122904,15.8509611 16.7379341,13.2005675 16.150187,11.7951396 C16.0942617,11.6617048 19.3636582,8.74593138 19.3636582,8.74593138 L20.7836927,9.52589705 L21.7244283,12.5280733 Z" id="Shape-3668" fill="#F4CA92"></path>
                            <path d="M15.3139179,14.8843127 L15.3361678,14.8745812 L15.3339637,14.9177346 L15.3380282,14.9988143 C15.4416457,15.3753419 15.9383971,16.3821576 18.2934226,16.47919 C19.6391822,16.5347424 22.7076468,15.2789742 22.9949838,15.1600245 L22.9924226,15.1537803 C23.0114237,15.1532083 23.016664,15.1510138 23.016664,15.1510138 L23.0159071,15.1668122 L26.6169071,17.2648122 L26.6176166,17.2634259 L26.6199071,17.2668122 L26.6228881,17.2685195 C26.6176166,17.2634259 33.8715388,27.5255989 31.932882,32.2432112 C30.8947221,34.769861 28.4484539,36.6158464 26.0355173,37.890688 L26.454049,42.2833913 L25.3246985,42.5387689 L24.8764456,42.6326202 L24.7599168,42.6581579 L19.5154858,43.8277872 L19.4170318,43.853325 L18.5294571,44.0495401 L18.4577962,43.7596865 L18.0184743,41.8837254 L16.9339071,37.2478122 L15.1939071,37.2418122 L14.9645615,38.310114 L14.9479306,38.3893463 L14.9022964,38.6093668 L14.7342398,39.3926846 L14.7255375,39.4282745 L13.9224493,43.1608295 L13.0087023,42.6054321 L12.5099379,42.3067228 L10.811754,41.2720211 C10.811754,41.2720211 10.9076837,40.6314688 11.0629758,39.6452088 C9.51922493,39.6429551 5.25666907,39.1890787 4.45341417,34.3203068 C3.64328641,29.4098089 7.82240026,20.055705 10.3949943,17.2232559 C10.3898332,17.2257722 10.3895226,17.2240024 10.3892475,17.2224353 L15.3089071,14.8868122 L15.3113904,14.8618122 C15.3117463,14.8660969 15.3124845,14.8737066 15.3139179,14.8843127 Z M11.2669071,22.1458122 L7.22369454,31.9219655 L11.4839071,36.8418122 L11.4940397,36.765459 C11.5044553,36.6955938 11.5156855,36.6256017 11.5269157,36.5556096 C11.5976485,36.1105875 11.6663378,35.6471627 11.7359491,35.1842678 C11.8014754,34.756181 11.8666314,34.3285684 11.9283141,33.909316 C12.2815438,31.5689052 12.5766548,29.5615437 12.5684398,29.4945843 C12.5622203,29.4438895 12.3930319,28.4961771 12.1536591,27.1370544 C11.9196544,25.8199402 11.6192673,24.1258979 11.3346746,22.50646 L11.3188284,22.431433 L11.2669071,22.1458122 Z M26.1879071,22.8048122 L25.7891122,27.8158261 C25.7891122,27.8158261 25.7192944,28.7258475 25.6491195,29.6321357 L25.6229228,29.9700341 C25.6185991,30.0257264 25.614308,30.080958 25.6100663,30.1355057 C25.5294743,31.1719131 25.4665318,31.9601785 25.4665318,31.9601785 L25.5934801,33.2536659 L25.5969071,33.2908122 L28.9448691,30.6439236 L26.1879071,22.8048122 Z" id="Combined-Shape" fill="#F4D06C"></path>
                            <path d="M22.7753134,7.84657668 C23.1093766,8.48161559 21.7082674,9.62804808 21.6612732,9.96365678 C21.2719226,12.7515286 19.3221927,13.7743158 18.2081525,13.7743158 C16.4255605,13.7743158 14.2955088,9.10388561 14.2955088,5.82377348 C14.2955088,3.80990849 16.6584053,5.28258584 17.5419398,5.80568424 C19.2005605,6.78824945 20.9229743,5.02912359 21.6419226,7.1608879 C21.8809341,7.87190163 22.2936755,6.93147371 22.7753134,7.84657668 Z" id="Shape-3669" fill="#FFDFAE"></path>
                        </g>
                        <g id="Group-3" transform="translate(0.000000, 43.390867)">
                            <polygon id="Shape-3684" fill="#F9B25F" points="7.31781366 2.16145255 4.16932919 44.555854 5.58930435 44.555854 10.5590062 2.21373723"></polygon>
                            <polygon id="Shape-3685" fill="#F9B25F" points="62.440472 2.16145255 65.5885342 44.555854 64.1687702 44.555854 59.1990683 2.21373723"></polygon>
                            <rect id="Shape-3686" fill="#D8984D" x="4.21156522" y="2.11445985" width="61.3678882" height="1.60643066"></rect>
                            <rect id="Shape-3687" fill="#F9B25F" x="1.63424829e-13" y="2.50910404e-14" width="67.9858509" height="2.53718248"></rect>
                        </g>
                        <g id="Laptop-6" transform="translate(22.272683, 29.993291)">
                            <path d="M1.03077019,0 L20.1565093,0 C20.6073789,0 20.9760994,0.466751825 20.9760994,1.03722628 L22.3424348,12.3601387 C22.3424348,12.9306131 21.9735031,13.397365 21.5226335,13.397365 L2.39689441,13.397365 C1.94602484,13.397365 1.57730435,12.9306131 1.57730435,12.3601387 L0.210968944,1.03722628 C0.210968944,0.466751825 0.580111801,0 1.03077019,0 Z" id="Shape-3688" fill="#D8D6DD"></path>
                            <ellipse id="Shape-3689" fill="#FFFFFF" cx="11.2079627" cy="6.6149635" rx="1.89850932" ry="1.9029927"></ellipse>
                        </g>
                    </g>
                </g>
            </g>
        </g>
    </g>
</svg>
