<?xml version="1.0" encoding="UTF-8"?>
<svg viewBox="0 0 25.5 27" version="1.1" xmlns="http://www.w3.org/2000/svg" xmlns:xlink="http://www.w3.org/1999/xlink">
    <title>text</title>
    <g id="Page-1" stroke="none" stroke-width="1" fill="none" fill-rule="evenodd">
        <g id="File-Icons" transform="translate(-900.000000, -62.000000)">
            <g id="text" transform="translate(900.000000, 62.000000)">
                <polygon id="Shape-Copy-3" fill="#1C7BA4" fill-rule="nonzero" points="20 26.0152862 1.39033407e-14 26.0152862 1.39033407e-14 0 13.75 0 20 6.19411576"></polygon>
                <polygon id="Shape-Copy-2" fill="#7BC2F6" fill-rule="nonzero" points="19.0927684 6.74248035 13.1552684 6.74248035 13.1552684 0.858070381"></polygon>
                <path d="M13.2814365,14.186229 L13.8489621,16.3101506 L13.384623,16.4391337 C13.2757034,16.2270271 13.1639192,16.0235224 13.049267,15.8286137 C12.9346148,15.6337049 12.8113655,15.481793 12.6795154,15.3728734 C12.5476654,15.2639538 12.4086517,15.2008961 12.2624701,15.1836982 C12.1162886,15.1665004 11.968676,15.1579016 11.8196282,15.1579016 L10.5985883,15.1579016 L10.5985883,20.3000275 C10.5985883,20.4204123 10.6043208,20.5364959 10.615786,20.6482818 C10.6272512,20.7600677 10.6731114,20.8474887 10.753368,20.9105474 C10.8393571,20.9678735 10.9568739,21.0022687 11.1059217,21.0137339 C11.2549696,21.0251991 11.4097478,21.0309316 11.5702609,21.0309316 L11.5702609,21.5210674 L8.63804529,21.5210674 L8.63804529,21.0309316 C8.804291,21.0309316 8.96050229,21.0251991 9.10668385,21.0137339 C9.25286542,21.0022687 9.36894904,20.9678735 9.4549382,20.9105474 C9.53519474,20.8474887 9.58248807,20.7600677 9.5968196,20.6482818 C9.61115112,20.5364959 9.61831678,20.4204123 9.61831678,20.3000275 L9.61831678,15.1579016 L8.39727686,15.1579016 C8.24822899,15.1579016 8.09918335,15.1665004 7.95013548,15.1836982 C7.80108761,15.2008961 7.66064076,15.2639538 7.52879072,15.3728734 C7.40267329,15.481793 7.28229028,15.6337049 7.16763807,15.8286137 C7.05298586,16.0235224 6.94120164,16.2270271 6.83228204,16.4391337 L6.35934404,16.3101506 L6.92686964,14.186229 L13.2814365,14.186229 Z" id="" fill="#7BC2F6"></path>
            </g>
        </g>
    </g>
</svg>
