<svg xmlns="http://www.w3.org/2000/svg" xmlns:xlink="http://www.w3.org/1999/xlink" viewBox="0 0 277 279"><defs><clipPath id="a"><rect width="277" height="279" rx="4" fill="#e2e2e2" stroke="#e3e3e7" stroke-miterlimit="10" stroke-width="1"/></clipPath></defs><g transform="translate(11474 -1118)"><g transform="translate(-11474 1118)"><g fill="#e2e2e2" stroke="#e3e3e7" stroke-miterlimit="10" stroke-width="1"><rect width="277" height="279" rx="4" stroke="none"/><rect x="0.5" y="0.5" width="276" height="278" rx="3.5" fill="none"/></g></g><g transform="translate(-11386 1206)"><path d="M50.5,101A50.5,50.5,0,1,1,101,50.5,50.557,50.557,0,0,1,50.5,101ZM38.715,23.567a1.683,1.683,0,0,0-1.681,1.683v50.5a1.683,1.683,0,0,0,2.632,1.391L76.7,51.89a1.684,1.684,0,0,0,0-2.781L39.666,23.86A1.69,1.69,0,0,0,38.715,23.567Z" fill="#fff" opacity="0.563"/></g></g></svg>
