<?xml version="1.0" encoding="UTF-8"?>
<svg viewBox="0 0 16 16" version="1.1" xmlns="http://www.w3.org/2000/svg" xmlns:xlink="http://www.w3.org/1999/xlink">
    <g stroke="none" stroke-width="1" fill="none" fill-rule="evenodd">
        <g transform="translate(-114.000000, -1830.000000)" fill="#4B9A00">
            <path d="M122,1830 C126.418278,1830 130,1833.58172 130,1838 C130,1842.41828 126.418278,1846 122,1846 C117.581722,1846 114,1842.41828 114,1838 C114,1833.58172 117.581722,1830 122,1830 Z M124.782619,1835 C124.671184,1835 124.564322,1835.0475 124.485574,1835.13205 L120.434777,1839.47595 L119.514426,1838.48871 C119.435678,1838.40417 119.328816,1838.35667 119.217381,1838.35667 C119.105947,1838.35667 118.999085,1838.40417 118.920337,1838.48871 L118.123117,1839.34392 C118.044294,1839.42829 118,1839.54282 118,1839.66224 C118,1839.78167 118.044294,1839.89619 118.123117,1839.98057 L120.137733,1842.14114 C120.301965,1842.31659 120.567589,1842.31659 120.731822,1842.14114 L125.876883,1836.6239 C125.955706,1836.53952 126,1836.425 126,1836.30557 C126,1836.18615 125.955706,1836.07163 125.876883,1835.98725 L125.079663,1835.13205 C125.000915,1835.0475 124.894053,1835 124.782619,1835 Z" id="Combined-Shape"></path>
        </g>
    </g>
</svg>
