<svg xmlns="http://www.w3.org/2000/svg" width="21.993" height="25" viewBox="0 0 21.993 25"><g transform="translate(-0.003)"><path d="M9.79,16a6.155,6.155,0,0,1,1.724-2.819A7.617,7.617,0,0,0,14,7.49,7.228,7.228,0,0,0,6.646.01,7.318,7.318,0,0,0,0,7.273a7.651,7.651,0,0,0,2.485,5.908A5.852,5.852,0,0,1,4.262,16Z" transform="translate(4 3)" fill="#ffd15c"/><path d="M2.236,9h.5L.52.922H.686A1.1,1.1,0,0,0,1.461.6.508.508,0,0,1,1.848.434.508.508,0,0,1,2.236.6.959.959,0,0,0,3.675.6.508.508,0,0,1,4.063.434.6.6,0,0,1,4.45.6a1.015,1.015,0,0,0,.775.325h.166L3.232,9h.5L6,.542C6,.434,6,.325,5.889.271a.247.247,0,0,0-.277.054A.482.482,0,0,1,5.28.488.746.746,0,0,1,4.838.325.959.959,0,0,0,3.4.325a.543.543,0,0,1-.775,0A.9.9,0,0,0,1.9,0h0a.9.9,0,0,0-.72.325A.636.636,0,0,1,.741.488.4.4,0,0,1,.409.325.247.247,0,0,0,.132.271.2.2,0,0,0,.022.542Z" transform="translate(8 11)" fill="#fff"/><g transform="translate(8 19)"><path d="M0,0A1.861,1.861,0,0,0,1.7,1.1,1.861,1.861,0,0,0,3.391,0Z" transform="translate(1.279 4.898)" fill="#344a5e"/><path d="M4.978,4.931H.985A.961.961,0,0,1,0,3.987V0H5.962V3.987A.961.961,0,0,1,4.978,4.931Z" transform="translate(0.021 0.02)" fill="#344a5e"/></g><g transform="translate(8 20)"><path d="M5.44,1.135H.5A.543.543,0,0,1,0,.568H0A.543.543,0,0,1,.5,0H5.44a.543.543,0,0,1,.5.568h0A.543.543,0,0,1,5.44,1.135Z" transform="translate(0.029 0.023)" fill="#415a6b"/><path d="M5.44,1.135H.5A.543.543,0,0,1,0,.568H0A.543.543,0,0,1,.5,0H5.44a.543.543,0,0,1,.5.568h0A.543.543,0,0,1,5.44,1.135Z" transform="translate(0.029 1.829)" fill="#415a6b"/></g><path d="M.526,0A.528.528,0,0,0,0,.528V2.322a.528.528,0,0,0,.526.528.5.5,0,0,0,.526-.528V.528A.528.528,0,0,0,.526,0Z" transform="translate(10.474)" fill="#ffd15c"/><path d="M.894.158a.507.507,0,0,0-.737,0A.511.511,0,0,0,.158.9L1.421,2.164a.507.507,0,0,0,.737,0,.511.511,0,0,0,0-.739Z" transform="translate(3.055 3.061)" fill="#ffd15c"/><path d="M2.315,0H.526A.528.528,0,0,0,0,.528H0a.528.528,0,0,0,.526.528H2.315A.528.528,0,0,0,2.841.528h0A.567.567,0,0,0,2.315,0Z" transform="translate(0.003 10.503)" fill="#ffd15c"/><path d="M1.421.158.158,1.425a.511.511,0,0,0,0,.739.508.508,0,0,0,.737,0L2.157.9a.511.511,0,0,0,0-.739A.508.508,0,0,0,1.421.158Z" transform="translate(3.055 16.678)" fill="#ffd15c"/><path d="M.895.158a.508.508,0,0,0-.737,0A.511.511,0,0,0,.158.9L1.421,2.164a.507.507,0,0,0,.737,0,.511.511,0,0,0,0-.739Z" transform="translate(16.63 16.678)" fill="#ffd15c"/><path d="M2.315,0H.526A.528.528,0,0,0,0,.528H0a.528.528,0,0,0,.526.528H2.315A.528.528,0,0,0,2.841.528h0A.528.528,0,0,0,2.315,0Z" transform="translate(19.155 10.503)" fill="#ffd15c"/><path d="M1.421.158.158,1.425a.511.511,0,0,0,0,.739.507.507,0,0,0,.737,0L2.157.9a.511.511,0,0,0,0-.739A.508.508,0,0,0,1.421.158Z" transform="translate(16.63 3.061)" fill="#ffd15c"/></g></svg>