<svg xmlns="http://www.w3.org/2000/svg" viewBox="0 0 20 20.039"><g data-name="Group 12" transform="translate(-318.055 -1757.062)"><ellipse data-name="Ellipse 2" cx="10" cy="10.02" rx="10" ry="10.02" transform="translate(318.055 1757.062)" fill="#65a2d9"/><path data-name="Path 5" d="M333.311 1763.179a3.971 3.971 0 0 1-.749.285 2.694 2.694 0 0 0 .616-1.106c.034-.121-.082-.225-.179-.161a4.066 4.066 0 0 1-1.145.533.259.259 0 0 1-.071.01.285.285 0 0 1-.2-.086 2.2 2.2 0 0 0-1.549-.659 2.245 2.245 0 0 0-.742.129 2.456 2.456 0 0 0-1.529 1.841 3.161 3.161 0 0 0-.055.971.1.1 0 0 1-.021.074.083.083 0 0 1-.065.033h-.008a5.973 5.973 0 0 1-4.219-2.54.115.115 0 0 0-.2.018 2.9 2.9 0 0 0-.317 1.326 2.811 2.811 0 0 0 .7 1.88 1.964 1.964 0 0 1-.534-.233.123.123 0 0 0-.182.119 2.683 2.683 0 0 0 1.368 2.433h-.05a1.868 1.868 0 0 1-.394-.042.133.133 0 0 0-.14.178 2.452 2.452 0 0 0 1.854 1.8 3.984 3.984 0 0 1-2.42.828h-.271a.184.184 0 0 0-.175.152.22.22 0 0 0 .089.231 5.936 5.936 0 0 0 5.988.321 6.215 6.215 0 0 0 2.019-1.7 7.716 7.716 0 0 0 1.236-2.333 8.2 8.2 0 0 0 .42-2.553v-.049a.473.473 0 0 1 .149-.349 5.046 5.046 0 0 0 .931-1.151c.068-.115-.039-.259-.151-.2z" fill="#fff"/></g></svg>
