<?xml version="1.0" encoding="UTF-8"?>
<svg viewBox="0 0 24 24" version="1.1" xmlns="http://www.w3.org/2000/svg" xmlns:xlink="http://www.w3.org/1999/xlink">
    <g stroke="none" stroke-width="1" fill="none" fill-rule="evenodd" stroke-linecap="round" stroke-linejoin="round">
        <g transform="translate(-595.000000, -279.000000)" fill-rule="nonzero" stroke="currentColor">
            <path d="M607,280 C613.075132,280 618,284.924868 618,291 C618,297.075132 613.075132,302 607,302 C600.924868,302 596,297.075132 596,291 C596,284.924868 600.924868,280 607,280 Z M609.267914,285.869768 C609.078699,285.744866 608.821594,285.765683 608.655008,285.932219 L608.655008,285.932219 L608.26839,286.318837 L608.225329,286.37134 C608.187831,286.427561 608.167396,286.49403 608.167396,286.562606 C608.167396,286.654042 608.203726,286.741731 608.26839,286.806376 C608.333054,286.871021 608.369384,286.95871 608.369384,287.050145 C608.369384,287.141581 608.333054,287.22927 608.26839,287.293915 L608.26839,287.293915 L606.217313,289.344992 L606.143074,289.405883 C606.063578,289.458911 605.969593,289.48782 605.872623,289.48784 L605.872623,289.48784 L604.32615,289.48784 L604.230601,289.497314 C604.136899,289.516063 604.050017,289.562111 603.981459,289.630689 L603.981459,289.630689 L603.73769,289.874459 L603.675239,289.950933 C603.550337,290.140149 603.571154,290.397253 603.73769,290.563839 L603.73769,290.563839 L605.328579,292.154474 L600.738677,296.74421 L600.703272,296.785221 C600.59706,296.928368 600.608861,297.131508 600.738677,297.261323 C600.881473,297.40412 601.112993,297.40412 601.25579,297.261323 L601.25579,297.261323 L605.845482,292.671631 L607.436161,294.26231 L607.512635,294.324761 C607.701851,294.449663 607.958955,294.428846 608.125541,294.26231 L608.125541,294.26231 L608.369311,294.018541 L608.430202,293.944301 C608.48323,293.864805 608.512139,293.77082 608.51216,293.67385 L608.51216,293.67385 L608.51216,292.127864 L608.521633,292.032316 C608.540382,291.938614 608.58643,291.851732 608.655008,291.783174 L608.655008,291.783174 L610.706085,289.732098 L610.758545,289.688984 C610.814728,289.65143 610.881177,289.630928 610.949754,289.630859 C611.041189,289.630768 611.128914,289.66701 611.193624,289.73161 C611.258269,289.796274 611.345958,289.832604 611.437394,289.832604 C611.528829,289.832604 611.616518,289.796274 611.681163,289.73161 L611.681163,289.73161 L612.067781,289.344992 L612.130232,289.268517 C612.255134,289.079302 612.234317,288.822197 612.067781,288.655611 L612.067781,288.655611 L609.344389,285.932219 Z" id="unpin"></path>
        </g>
    </g>
</svg>
