<svg xmlns="http://www.w3.org/2000/svg" viewBox="0 0 20.13 18.73">
  <g fill="none" stroke="currentColor" stroke-linecap="round" stroke-linejoin="round">
    <path data-name="Shape 127" d="M.5 6.37h1.67a.83.83 0 01.83.84v9.98a.83.83 0 01-.83.83H.5"/>
    <path data-name="Shape 128" d="M3 15.52c6.1 3.1 5.8 2.7 11.03 2.7 2.19 0 3.29-1.43 3.94-3.52v-.02l1.58-5.32v-.01a1.66 1.66 0 00-1.58-2.15h-4.08a1.66 1.66 0 01-1.6-2.08l.73-2.78a1.43 1.43 0 00-2.55-1.18L6.4 6.92a1.66 1.66 0 01-1.35.7H3"/>
  </g>
</svg>
