<svg viewBox="0 0 20.173 20.186" xmlns="http://www.w3.org/2000/svg">
    <g fill="none" stroke="currentColor" stroke-linecap="round" stroke-linejoin="round"
        stroke-miterlimit="10">
        <path d="M19.673 10.102a9.577 9.577 0 1 1-1.166-4.581 9.577 9.577 0 0 1 1.167 4.583z"/>
        <path
            d="M14.271 5.519a9.744 9.744 0 0 0-4.181-5 9.744 9.744 0 0 0-4.181 5M5.908 14.685a9.75 9.75 0 0 0 4.182 5 8.667 8.667 0 0 0 4.25-5M2.825 3.852h14.53M2.825 16.352h14.53M8.007 8.435v1.121a5.008 5.008 0 0 0 .357 1.856l.476 1.19.834-2.917.833 2.917.476-1.189a5.008 5.008 0 0 0 .357-1.857V8.435M13.007 8.435v1.121a5.008 5.008 0 0 0 .357 1.856l.476 1.19.834-2.917.833 2.917.476-1.189a5.008 5.008 0 0 0 .357-1.857V8.435M3.007 8.435v1.121a5.008 5.008 0 0 0 .357 1.856l.476 1.19.834-2.917.833 2.917.476-1.189a5.008 5.008 0 0 0 .357-1.857V8.435"
            data-name="Shape"/>
    </g>
</svg>
