<svg xmlns="http://www.w3.org/2000/svg" viewBox="0 0 24 24"><g data-name="Users / Geometric-Full-Body-Single-User-Neutral / single-neutral-statics-2"><g data-name="Group 37"><g data-name="Light 37" fill="none" stroke="currentColor" stroke-linecap="round" stroke-linejoin="round"><path data-name="Shape 144" d="M13 14.5h9.5a1 1 0 0 0 1-1v-12a1 1 0 0 0-1-1h-12"/><path data-name="Rectangle-path 3" d="M18.5 5a.5.5 0 0 1 .5-.5h1a.5.5 0 0 1 .5.5v6a.5.5 0 0 1-.5.5h-1a.5.5 0 0 1-.5-.5z"/><path data-name="Shape 145" d="M7.5 23.5l.5-6h2.5V14a5 5 0 0 0-10 0v3.5H3l.5 6z"/><path data-name="Oval 43" d="M5.5 7.5A3.5 3.5 0 1 0 2 4a3.5 3.5 0 0 0 3.5 3.5z"/><path data-name="Rectangle-path 4" d="M14.5 7a.5.5 0 0 1 .5-.5h1a.5.5 0 0 1 .5.5v4a.5.5 0 0 1-.5.5h-1a.5.5 0 0 1-.5-.5z"/></g></g></g></svg>
