<svg viewBox="0 0 25 25" xmlns="http://www.w3.org/2000/svg">
    <g data-name="Users / Geometric-Full-Body-Single-User-Man / single-man-check">
        <g data-name="Group 44">
            <g data-name="Light 44" fill="none" stroke="currentColor" stroke-linecap="round"
                stroke-linejoin="round">
                <path d="M24.5 6.5a6 6 0 1 1-6-6" data-name="Shape 175"/>
                <path d="M24.5 2l-5.47 5.469a.748.748 0 0 1-1.06 0L16.25 5.75"
                    data-name="Shape 176"/>
                <path d="M5.717 11.525v3" data-name="Shape 177"/>
                <path d="M7.5 24.5l.5-6h2.5V15a5 5 0 0 0-10 0v3.5H3l.5 6z" data-name="Shape 178"/>
                <path d="M2.484 2.223a5.817 5.817 0 0 0 6.483 1.3" data-name="Shape 179"/>
                <path d="M5.5 7.5A3.5 3.5 0 1 0 2 4a3.5 3.5 0 0 0 3.5 3.5z" data-name="Oval 52"/>
            </g>
        </g>
    </g>
</svg>
