<?xml version="1.0" encoding="UTF-8"?>
<svg viewBox="0 0 16 16" version="1.1" xmlns="http://www.w3.org/2000/svg">
    <g id="Revamp" stroke="none" stroke-width="1" fill="none" fill-rule="evenodd">
        <path d="M7.9999843,0 C8.83793526,0 9.59092631,0.36718635 10.1190216,0.952643714 C10.3412172,1.19914051 10.7120142,1.32523033 11.0260457,1.26008183 C11.2124803,1.2213381 11.4052256,1.20093013 11.6027747,1.20093013 C13.2020997,1.20093013 14.4988216,2.53426085 14.4988216,4.17923686 C14.4988216,4.29094691 14.4922283,4.40083594 14.4802033,4.50890396 C14.4597953,4.68993829 14.6693694,4.95596393 14.9242492,5.16792418 C15.5802867,5.71344473 16,6.54659197 16,7.48181042 C16,8.34079728 15.6451212,9.11297181 15.0791927,9.65579223 C14.8399172,9.8854917 14.6966847,10.2520815 14.7504361,10.5463015 C14.7822725,10.7207111 14.7990699,10.9005838 14.7990699,11.0846008 C14.7990699,12.7292943 13.5023479,14.0629389 11.9030229,14.0629389 C11.6223349,14.0629389 11.350909,14.0214637 11.0945222,13.9446356 C10.7768801,13.8494089 10.4195838,13.95575 10.2085027,14.2115089 C9.67739328,14.8552075 8.88506196,15.2638691 7.9999843,15.2638691 C7.16203334,15.2638691 6.4090423,14.8966513 5.88094701,14.3112254 C5.65878278,14.0646972 5.28798579,13.9386387 4.97395434,14.0037559 C4.78748835,14.042531 4.59474299,14.0629389 4.39719391,14.0629389 C2.79783754,14.0629389 1.50114697,12.7295768 1.50114697,11.0846008 C1.50114697,10.9729222 1.50777171,10.8630331 1.51976531,10.7549337 C1.54017327,10.5739308 1.33063059,10.3079051 1.07571943,10.0959763 C0.419713307,9.55045575 0,8.71727711 0,7.78205865 C0,6.81830045 0.446432041,5.96355216 1.13694332,5.41982123 C1.39753731,5.2147369 1.57678202,4.90010891 1.53715917,4.64491518 C1.51345454,4.49326832 1.50114697,4.33775964 1.50114697,4.17923686 C1.50114697,2.53457482 2.79786894,1.20093013 4.39719391,1.20093013 C4.59474299,1.20093013 4.78751975,1.2213381 4.97395434,1.26008183 C5.28798579,1.32523033 5.65878278,1.19882654 5.88094701,0.952643714 C6.40907369,0.36718635 7.16206474,0 7.9999843,0 Z M10.7826186,4 C10.6711844,4 10.5643217,4.0475038 10.4855741,4.13204561 L6.43477704,8.47594868 L5.51442594,7.48871494 C5.43567827,7.40417313 5.32881562,7.35666933 5.2173814,7.35666933 C5.10594718,7.35666933 4.99908453,7.40417313 4.92033686,7.48871494 L4.12311664,8.34391969 C4.04429364,8.42829438 4,8.54281778 4,8.66224383 C4,8.78166988 4.04429364,8.89619328 4.12311664,8.98056797 L6.1377325,11.1411441 C6.30196482,11.3165883 6.56758926,11.3165883 6.73182157,11.1411441 L11.8768834,5.62389864 C11.9557064,5.53952395 12,5.42500055 12,5.3055745 C12,5.18614845 11.9557064,5.07162506 11.8768834,4.98725036 L11.0796631,4.13204561 C11.0009155,4.0475038 10.8940528,4 10.7826186,4 Z" id="verified" fill="currentColor" fill-rule="nonzero"></path>
    </g>
</svg>
