<?xml version="1.0" encoding="UTF-8"?>
<svg viewBox="0 0 25.5 27" version="1.1" xmlns="http://www.w3.org/2000/svg" xmlns:xlink="http://www.w3.org/1999/xlink">
    <title>video</title>
    <g id="Page-1" stroke="none" stroke-width="1" fill="none" fill-rule="evenodd">
        <g id="File-Icons" transform="translate(-266.000000, -311.000000)" fill-rule="nonzero">
            <g id="video" transform="translate(266.769440, 311.362769)">
                <polygon id="Shape-Copy-83" fill="#AF47AD" points="20 26.0152862 0 26.0152862 0 -2.84217094e-14 13.75 -2.84217094e-14 20 6.19411576"></polygon>
                <polygon id="Shape-Copy-82" fill="#FF9FF5" points="19.1453684 6.86277059 13.2078684 6.86277059 13.2078684 0.978360622"></polygon>
                <path d="M9.9059013,12.4740979 C7.27177579,12.4740979 5.13639326,14.6094805 5.13639326,17.243606 C5.13639326,19.8777315 7.27177579,22.013114 9.9059013,22.013114 C12.5400268,22.013114 14.6754093,19.8777315 14.6754093,17.243606 C14.6726147,14.6106582 12.538869,12.4769125 9.9059013,12.4740979 Z M11.914527,17.3955744 C11.8815104,17.4618073 11.8278334,17.5155042 11.7615805,17.5485209 L11.7615805,17.5502176 L9.03615022,18.9129428 C8.86783319,18.9970414 8.6632258,18.9287923 8.57910721,18.7604753 C8.5551931,18.7126271 8.54287674,18.6598085 8.54317083,18.6063311 L8.54317083,15.8809008 C8.54309631,15.6927418 8.69554379,15.5401546 8.88370274,15.5400548 C8.9366212,15.5400548 8.98882103,15.5523313 9.03615022,15.5759859 L11.7615805,16.938711 C11.9299774,17.02263 11.998466,17.2271775 11.914527,17.3955744 Z" id="Shape" fill="#FF9FF5"></path>
            </g>
        </g>
    </g>
</svg>
