<?xml version="1.0" encoding="UTF-8"?>
<svg viewBox="0 0 19 17" version="1.1" xmlns="http://www.w3.org/2000/svg" xmlns:xlink="http://www.w3.org/1999/xlink">
    <g stroke="none" stroke-width="1" fill="none" fill-rule="evenodd">
        <path d="M16.2264917,0.00428497336 C13.5918737,-0.0915049224 11.81224,1.41896715 10.8733406,4.51195164 C11.3562484,4.29583063 11.825698,4.19924908 12.2801063,4.19924908 C15.6200862,4.19924908 11.5114122,10.6551714 10.4885978,10.6551714 C9.28370337,10.6551714 8.55934176,4.888778 8.31392963,3.31418211 C7.9727276,1.12526425 7.06311942,0.101658173 5.58510508,0.244947191 C4.96049163,0.304321093 4.02159232,0.877477163 2.77157376,1.97154027 C1.86117392,2.80673316 0.938107657,3.63796779 0,4.47316069 L0.893775143,5.63847248 C1.74480108,5.03523363 2.2411669,4.73282255 2.38287261,4.73282255 C4.83066069,4.73282255 4.66916368,16.6250194 8.54430037,16.6250194 C12.2666482,16.6250194 18.8183604,7.50439631 18.9814407,3.84854724 L18.9917322,3.84063071 C19.0978136,1.33505204 18.1834555,0.0525757472 16.2264917,0.00428497336 Z" id="vimeo" fill="#19B2E5" fill-rule="nonzero"></path>
    </g>
</svg>
