<?xml version="1.0" encoding="UTF-8"?>
<svg viewBox="0 0 125 125" version="1.1" xmlns="http://www.w3.org/2000/svg" xmlns:xlink="http://www.w3.org/1999/xlink">
    <g stroke="none" stroke-width="1" fill="none" fill-rule="evenodd">
        <g fill-rule="nonzero">
            <g fill="#90A4AE">
                <path d="M62.5,0 C97.0175,0 125,27.9825 125,62.5 C125,97.01875 97.01625,125 62.5,125 C27.98125,125 0,97.01875 0,62.5 C0,27.9825 27.98125,0 62.5,0 Z" id="Path"></path>
            </g>
            <g transform="translate(23.000000, 32.000000)">
                <path d="M79.7348095,31.4935598 C79.5766285,30.6893431 79.0299949,28.6228725 77.2414071,25.5598096 C72.6012165,17.6143926 62.9476699,3.76929693 57.100766,1.21232487 C49.3519889,-2.176989 39.714534,6.92814582 42.6966401,11.4545167 C45.6789071,15.9808876 49.9644374,9.20820632 54.8638646,12.825253 C57.8829815,15.0538848 60.8977536,21.7662981 62.7674434,26.5914377 L17.3410144,26.5914377 C19.2107042,21.7662981 22.2254763,15.0538848 25.2445932,12.825253 C30.1441813,9.20820632 34.4295507,15.9808876 37.4118177,11.4545167 C40.3942456,6.92814582 30.7567907,-2.176989 23.0080136,1.21232487 C17.1611097,3.76929693 7.50756308,17.6143926 2.86753347,25.5598096 C1.55831617,27.8019414 0.914328012,29.5103395 0.601023429,30.5806999 C0.216432801,31.4302382 0,32.3717053 0,33.3633155 L0,54.3022006 C0,58.0364083 3.04212796,61.0748819 6.78118563,61.0748819 L26.1907827,61.0715068 C27.0090435,61.0715068 27.7922245,60.8183811 28.4560054,60.3396118 L40.2418576,51.8344252 L51.4793061,60.2984688 C52.1461444,60.8007025 52.9735775,61.0777747 53.8092173,61.0777747 L73.2196189,61.0788997 C76.958033,61.0788997 80,58.0389798 80,54.3023613 L80,33.3633155 C80,32.7146706 79.9061856,32.087883 79.7348095,31.4935598 Z M72.2621653,53.3509298 L55.1045958,53.3494834 L42.6200438,43.9463834 C41.9532055,43.4443104 41.1262551,43.167881 40.2909372,43.167881 C39.4723545,43.167881 38.6890126,43.420846 38.0252317,43.8997761 L24.938208,53.3438584 L7.73719104,53.3464298 L7.73719104,34.3192469 L72.2621653,34.3192469 L72.2621653,53.3509298 L72.2621653,53.3509298 Z" fill="#E1E5E9"></path>
                <path d="M34.3541889,35.8667785 L9.6969697,35.8767897 L9.6969697,51.8667785 L23.2495024,51.8646794 L34.4242424,43.7688464 C34.3833376,38.5006935 34.3599865,35.8666709 34.3541889,35.8667785 Z" id="Path" fill="#4BBFEB"></path>
                <path d="M70.2329768,35.8667785 L45.5757576,35.8767897 L45.5757576,51.8667785 L59.1282903,51.8646794 L70.3030303,43.7688464 C70.2621255,38.5006935 70.2387743,35.8666709 70.2329768,35.8667785 Z" id="Path" fill="#F05542" transform="translate(57.939394, 43.866779) scale(-1, 1) translate(-57.939394, -43.866779) "></path>
                <path d="M23.0175798,1.21411478 C30.7372498,-2.18340286 40.3385032,6.94377077 37.3672783,11.4810977 C34.3962137,16.0184246 30.1269416,9.22935011 25.245758,12.8551518 C22.237982,15.0891779 19.2345344,21.8178385 17.3718678,26.6546573 L17.4058606,26.5668391 L2.42386055,26.5684682 C2.52792275,26.3740318 2.63730339,26.1748305 2.75227104,25.9709484 L2.95275419,25.6205321 C7.57535427,17.6558834 17.1926388,3.77727595 23.0175798,1.21411478 Z M42.632249,11.4810977 C39.6613448,6.94377077 49.2625981,-2.18340286 56.9822681,1.21411478 C62.8072091,3.77727595 72.4244937,17.6558834 77.0472541,25.6205321 C77.2370564,25.9475952 77.4128202,26.2633234 77.575573,26.5673948 L62.5943315,26.568228 C60.7292961,21.7380254 57.7436713,15.075902 54.7537693,12.8551518 C49.8727461,9.22935011 45.6033136,16.0184246 42.632249,11.4810977 Z" id="Combined-Shape" fill="#D7DADC"></path>
            </g>
        </g>
    </g>
</svg>
