<?xml version="1.0" encoding="UTF-8"?>
<svg viewBox="0 0 60 60" version="1.1" xmlns="http://www.w3.org/2000/svg" xmlns:xlink="http://www.w3.org/1999/xlink">
    <g stroke="none" stroke-width="1" fill="none" fill-rule="evenodd">
        <g fill-rule="nonzero">
            <path d="M30,0 C46.5684,0 60,13.4316 60,30 C60,46.569 46.5678,60 30,60 C13.431,60 0,46.569 0,30 C0,13.4316 13.431,0 30,0 Z" id="Path-Copy-7" fill="#324D5B"></path>
            <polygon id="Path" fill="#FFFFFF" points="9.65217391 17.4782609 50.3478261 17.4782609 50.3478261 45.9130435 9.65217391 45.9130435"></polygon>
            <polygon id="Path" fill="#D07C40" points="9.65217391 15.9130435 50.3478261 15.9130435 50.3478261 20.8695652 9.65217391 20.8695652"></polygon>
            <polygon id="Path" fill="#FEECD6" points="46.3754941 17.4782609 48 17.4782609 48 19.0434783 46.3754941 19.0434783"></polygon>
            <polygon id="Path" fill="#FEECD6" points="18.7588933 17.4782609 20.3833992 17.4782609 20.3833992 19.0434783 18.7588933 19.0434783"></polygon>
            <polygon id="Path" fill="#FEECD6" points="12.2608696 17.4782609 13.8853755 17.4782609 13.8853755 19.0434783 12.2608696 19.0434783"></polygon>
            <polygon id="Path" fill="#FEECD6" points="15.5098814 17.4782609 17.1343874 17.4782609 17.1343874 19.0434783 15.5098814 19.0434783"></polygon>
            <path d="M25.6834286,38.5968696 L24.1348696,38.2921739 C23.9705963,38.2601739 23.8509317,38.1168696 23.8509317,37.9513043 L23.8509317,37.602087 C23.9528944,37.4629565 24.0484845,37.2772174 24.1476149,37.0831304 C24.2233789,36.9363478 24.3373789,36.7151304 24.3883602,36.6629565 C24.6885839,36.3742609 25.0086335,36.016 25.1063478,35.5492174 C25.1948571,35.1262609 25.1063478,34.9064348 25.003677,34.7325217 C25.003677,34.3923478 25.003677,33.7697391 24.8833043,33.3210435 C24.8712671,32.7791304 24.7700124,32.4730435 24.5158137,32.2003478 C24.3359627,32.0097391 24.0711429,31.9652174 23.8587205,31.9297391 C23.7744596,31.9158261 23.6590435,31.8963478 23.6186832,31.8747826 C23.2511925,31.6751304 22.8780373,31.5763478 22.4213292,31.5652174 C21.4866708,31.6 20.3395901,32.1822609 19.9558137,33.2292174 C19.8389814,33.5471304 19.8503106,34.0688696 19.8588075,34.4883478 L19.8488944,34.7325217 C19.7589689,34.9064348 19.6704596,35.1262609 19.759677,35.5485217 C19.8573913,36.0173913 20.177441,36.3749565 20.4762484,36.6622609 C20.5279379,36.7151304 20.643354,36.9377391 20.7198261,37.0845217 C20.8203727,37.277913 20.9166708,37.4636522 21.0186335,37.6027826 L21.0186335,37.9513043 C21.0186335,38.1168696 20.8989689,38.2601739 20.7339876,38.2921739 L19.1854286,38.5968696 C18.1962484,38.7909565 17.4782609,39.6514783 17.4782609,40.6427826 L17.4782609,41.3043478 C17.4782609,41.6876522 17.7961863,42 18.1863354,42 L26.6832298,42 C27.0733789,42 27.3913043,41.6876522 27.3913043,41.3043478 L27.3913043,40.6427826 C27.3913043,39.6514783 26.6733168,38.7909565 25.6834286,38.5968696 Z" id="Path" fill="#37A8C7"></path>
            <path d="M42.0700844,33.8879234 L41.6937054,33.8879234 L41.6937054,25.5096066 C41.6937054,25.132205 41.3173264,24.8302836 40.9409474,24.8302836 L35.7469176,24.8302836 L35.6716418,24.5283623 C35.596366,24.226441 35.2952628,24 34.9188838,24 C34.5425049,24 34.3166775,24.1509607 34.1661259,24.5283623 L34.0908501,24.8302836 L28.8968202,24.8302836 C28.5204413,24.8302836 28.1440623,25.132205 28.1440623,25.5096066 L28.1440623,33.8879234 L27.7676833,33.8879234 C27.5418559,33.8879234 27.3913043,34.0388841 27.3913043,34.2653251 L27.3913043,35.0201284 C27.3913043,35.2465694 27.5418559,35.3975301 27.7676833,35.3975301 L30.6281635,35.3975301 L29.724854,38.1903023 C29.5743024,38.567704 29.8754056,39.020586 30.2517846,39.0960663 C30.6281635,39.1715466 31.0798183,38.9451056 31.1550941,38.567704 L32.2089552,35.3220497 L37.7040883,35.3220497 L38.7579494,38.567704 C38.8332252,38.8696253 39.2096042,39.247027 39.6612589,39.0960663 C40.0376379,38.9451056 40.2634653,38.567704 40.1881895,38.1903023 L39.2848799,35.3975301 L42.1453602,35.3975301 C42.3711875,35.3975301 42.5217391,35.2465694 42.5217391,35.0201284 L42.5217391,34.2653251 C42.4464633,34.0388841 42.2959117,33.8879234 42.0700844,33.8879234 Z" id="Path" fill="#D07C40"></path>
            <polygon id="Path" fill="#FFFFFF" points="39.7258979 32.8809074 30.0226843 32.8809074 30.0226843 26.63138 39.7258979 26.63138 39.7258979 32.8809074"></polygon>
        </g>
    </g>
</svg>
