<svg xmlns="http://www.w3.org/2000/svg" viewBox="0 0 43 14.001">
  <g data-name="logos/visa">
    <path data-name="Fill 1" d="M18.692 14H15l2.308-14H21l-2.308 14" fill="#005c9c"/>
    <path data-name="Fill 2" d="M12.213 0L8.859 9.629l-.4-2.074-1.184-6.3A1.526 1.526 0 005.61 0H.065L0 .237a12.879 12.879 0 013.68 1.6L6.737 14H10.4L16 0h-3.787" fill="#005c9c"/>
    <path data-name="Fill 3" d="M34.515 14H31l5.03-12.957A1.582 1.582 0 0137.588 0H40.3L43 14h-3.1l-.4-2.08h-4.281L34.515 14zm3.448-10.192l-1.772 5.24h2.769z" fill="#005c9c"/>
    <path data-name="Fill 4" d="M31.475 3.494L32 .59A11.034 11.034 0 0028.691 0c-1.826 0-6.162.764-6.162 4.477 0 3.494 5.089 3.538 5.089 5.373s-4.565 1.507-6.071.35L21 13.236a10.7 10.7 0 004.153.764c2.511 0 6.3-1.245 6.3-4.63 0-3.517-5.135-3.844-5.135-5.373s3.583-1.332 5.158-.5" fill="#005c9c"/>
    <path data-name="Fill 5" d="M9 8L7.741 1.335A1.62 1.62 0 005.966 0H.069L0 .251a14.313 14.313 0 015.554 2.875A11.583 11.583 0 019 8" fill="#ee9f3f"/>
  </g>
</svg>
