<svg xmlns="http://www.w3.org/2000/svg" viewBox="0 0 29 23">
  <path d="M27 9.51v9.98a.513.513 0 01-.516.51H3.516A.513.513 0 013 19.49V9.51A.513.513 0 013.516 9h22.968a.513.513 0 01.516.51z" fill="#ff7258"/>
  <path data-name="Shape" d="M27 9v5.2l-1.291.322-1.284 1.109A1.569 1.569 0 0123.4 16a1.662 1.662 0 01-.361-.04l-1.739-.392-1.736.392a1.669 1.669 0 01-.364.04 1.569 1.569 0 01-1.02-.369l-1.28-1.109-1.726-.43a1.393 1.393 0 01-1.015-.9l-.49-1.529-1.252-1.136a1.2 1.2 0 01-.371-1.227l.085-.3z" fill="#f95d48"/>
  <path data-name="Shape" d="M24 12.51v9.98a.513.513 0 01-.516.51H.516A.513.513 0 010 22.49v-9.98A.513.513 0 01.516 12h22.968a.513.513 0 01.516.51z" fill="#00abe0"/>
  <path data-name="Shape" d="M24 12v4.738a1.529 1.529 0 01-.859.262 1.57 1.57 0 01-.365-.043l-1.758-.426-1.758.426a1.577 1.577 0 01-.366.043 1.522 1.522 0 01-1.034-.4l-1.3-1.2-1.745-.473a1.449 1.449 0 01-1.027-.976L13.3 12.29 13 12h11z" fill="#099dd1"/>
  <path data-name="Shape" d="M21.608.47l1.676-.456a.419.419 0 01.416.119l1.238 1.288a.433.433 0 00.187.115l1.665.5a.454.454 0 01.3.324l.468 1.775a.477.477 0 00.108.2l1.207 1.32a.491.491 0 01.111.443l-.424 1.786a.5.5 0 000 .231l.426 1.785a.49.49 0 01-.111.443l-1.207 1.32a.477.477 0 00-.108.2l-.468 1.775a.454.454 0 01-.3.324l-1.665.5a.432.432 0 00-.187.115l-1.24 1.29a.419.419 0 01-.414.118l-1.678-.455a.412.412 0 00-.216 0l-1.676.455a.419.419 0 01-.414-.118l-1.238-1.288a.433.433 0 00-.187-.115l-1.665-.5a.454.454 0 01-.3-.324l-.472-1.775a.477.477 0 00-.108-.2l-1.207-1.32a.49.49 0 01-.111-.445l.426-1.784a.5.5 0 000-.231L14.014 6.1a.491.491 0 01.111-.443l1.207-1.32a.478.478 0 00.108-.2l.468-1.777a.454.454 0 01.3-.324l1.665-.5a.433.433 0 00.187-.115L19.3.133a.419.419 0 01.416-.119l1.676.456a.413.413 0 00.216 0z" fill="#ff7258"/>
  <path data-name="Shape" d="M9 14.515v4.97a.515.515 0 01-.515.515h-4.97A.515.515 0 013 19.485v-4.97A.515.515 0 013.515 14h4.97a.515.515 0 01.515.515z" fill="#efefef"/>
  <g fill="#e2e2e2">
    <path data-name="Shape" d="M9.111 14.513v.167l-2.348 2.3-.692.678-2.348 2.297h-.17a.517.517 0 01-.522-.511v-.167l2.348-2.3.692-.675 2.349-2.3h.169a.516.516 0 01.522.511z"/>
    <path data-name="Shape" d="M9.111 19.277v.167a.517.517 0 01-.522.511H8.42l-2.349-2.299-.692-.677-2.348-2.299v-.167a.517.517 0 01.522-.511h.17l2.348 2.3.692.677zM19.461 17.616h-8.326a.484.484 0 01-.489-.48.484.484 0 01.489-.479h8.326a.484.484 0 01.485.479.484.484 0 01-.485.48z"/>
  </g>
  <g data-name="Group" fill="#efefef">
    <path data-name="Shape" d="M19.204 19.948h-8.642a.5.5 0 01-.508-.5.5.5 0 01.508-.5h8.642a.5.5 0 01.508.5.5.5 0 01-.508.5zM17.785 5.589a1.548 1.548 0 011.557-1.535 1.547 1.547 0 011.556 1.535 1.547 1.547 0 01-1.556 1.533 1.547 1.547 0 01-1.557-1.533zM21.845 10.258a1.548 1.548 0 011.557-1.535 1.547 1.547 0 011.556 1.535 1.547 1.547 0 01-1.556 1.533 1.547 1.547 0 01-1.557-1.533zM24.202 5.133a.513.513 0 00-.718 0l-4.942 4.872a.5.5 0 000 .707.513.513 0 00.718 0l4.942-4.871a.5.5 0 000-.708z"/>
  </g>
</svg>
