<svg viewBox="0 0 25.038 25.004" xmlns="http://www.w3.org/2000/svg">
  <g fill="none" stroke="currentColor" stroke-linecap="round" stroke-linejoin="round" data-name="Group 203">
    <path data-name="Shape 1053" d="M24.399 23.493a.634.634 0 0 1 .025.706.644.644 0 0 1-.647.293H1.262a.644.644 0 0 1-.647-.293.634.634 0 0 1 .025-.706L12.016.913c.277-.55.729-.55 1.006 0z"/>
    <path data-name="Shape 1054" d="M12.519 18.825V7.466"/>
    <path data-name="Shape 1055" d="M12.504 19.266a.4.4 0 0 0-.282.125.4.4 0 0 0-.109.289.415.415 0 0 0 .412.4h.008a.4.4 0 0 0 .391-.414.414.414 0 0 0-.406-.4h-.008"/>
  </g>
</svg>
