<svg xmlns="http://www.w3.org/2000/svg" viewBox="0 0 19.161 18.336"><g data-name="Group 396" fill="none" stroke="currentColor" stroke-linecap="round" stroke-linejoin="round" stroke-miterlimit="10"><path d="M2.977 9.581v7.43a.8.8 0 0 0 .777.826h11.654a.8.8 0 0 0 .777-.826V9.994"/><path data-name="Shape" d="M.5 9.581L9.581.5l9.081 9.081M12.883 1.326h2.123a.354.354 0 0 1 .354.354v2.123"/><path data-name="Shape" d="M13.212 14.797s-1.334-.584-2.264-.925c-.612-.225-.524-1.246-.17-1.63a2.782 2.782 0 0 0 .831-2.308 1.948 1.948 0 0 0-.528-1.522 1.992 1.992 0 0 0-1.501-.621 1.992 1.992 0 0 0-1.5.62 1.948 1.948 0 0 0-.526 1.523 2.782 2.782 0 0 0 .831 2.308c.354.384.441 1.405-.17 1.63-.935.342-2.267.925-2.267.925"/></g></svg>
