<?xml version="1.0" encoding="UTF-8"?>
<svg viewBox="0 0 22 22" version="1.1" xmlns="http://www.w3.org/2000/svg" xmlns:xlink="http://www.w3.org/1999/xlink">
    <g stroke="none" stroke-width="1" fill="none" fill-rule="evenodd" stroke-linecap="round" stroke-linejoin="round">
        <g transform="translate(1.426854, 1.416667)" stroke="currentColor">
            <path d="M19.1564849,9.58333333 C19.1553487,14.4120729 15.5597452,18.4847798 10.7683859,19.0844491 C5.97702657,19.6841185 1.48860148,16.6231797 0.297451436,11.9436617 C-0.893698604,7.26414364 1.58500639,2.42975351 6.07996022,0.665634069 C10.574914,-1.09848537 15.6801395,0.759465024 17.9898127,5 C18.7570057,6.40572789 19.1582081,7.9818799 19.1564849,9.58333333 L19.1564849,9.58333333 Z" id="Path"></path>
            <path d="M13.7539794,5 C12.9755997,2.90284907 11.499363,1.13736762 9.57314602,0 C7.64692907,1.13736762 6.17069232,2.90284907 5.39231269,5" id="Path"></path>
            <path d="M5.39147936,14.1666667 C6.17048821,16.2637044 7.64692868,18.0290776 9.57314602,19.1666667 C11.5904221,18.1214934 13.1166145,16.3259729 13.823146,14.1666667" id="Path"></path>
            <line x1="2.30814602" y1="3.33333333" x2="16.838146" y2="3.33333333" id="Path"></line>
            <line x1="2.30814602" y1="15.8333333" x2="16.838146" y2="15.8333333" id="Path"></line>
            <path d="M7.48981269,7.91666667 L7.48981269,9.0375 C7.49001584,9.6734737 7.61134423,10.3035894 7.84731269,10.8941667 L8.32314602,12.0833333 L9.15647936,9.16666667 L9.98981269,12.0833333 L10.465646,10.8941667 C10.7016145,10.3035894 10.8229429,9.6734737 10.823146,9.0375 L10.823146,7.91666667" id="Path"></path>
            <path d="M12.4898127,7.91666667 L12.4898127,9.0375 C12.4900158,9.6734737 12.6113442,10.3035894 12.8473127,10.8941667 L13.323146,12.0833333 L14.1564794,9.16666667 L14.9898127,12.0833333 L15.465646,10.8941667 C15.7016145,10.3035894 15.8229429,9.6734737 15.823146,9.0375 L15.823146,7.91666667" id="Path"></path>
            <path d="M2.48981269,7.91666667 L2.48981269,9.0375 C2.49001584,9.6734737 2.61134423,10.3035894 2.84731269,10.8941667 L3.32314602,12.0833333 L4.15647936,9.16666667 L4.98981269,12.0833333 L5.46564602,10.8941667 C5.70161448,10.3035894 5.82294287,9.6734737 5.82314602,9.0375 L5.82314602,7.91666667" id="Path"></path>
        </g>
    </g>
</svg>
