<?xml version="1.0" encoding="UTF-8"?>
<svg viewBox="0 0 25.5 27" version="1.1" xmlns="http://www.w3.org/2000/svg" xmlns:xlink="http://www.w3.org/1999/xlink">
    <title>xls file</title>
    <g id="Page-1" stroke="none" stroke-width="1" fill="none" fill-rule="evenodd">
        <g id="File-Icons" transform="translate(-478.000000, -62.000000)">
            <g id="xls" transform="translate(478.000000, 62.000000)">
                <polygon id="Shape-Copy-386" fill="#79A92E" fill-rule="nonzero" points="20 26.0152862 0 26.0152862 0 0 13.75 0 20 6.19411576"></polygon>
                <polygon id="Shape-Copy-385" fill="#99CD48" fill-rule="nonzero" points="19.1453684 6.86277059 13.2078684 6.86277059 13.2078684 0.978360622"></polygon>
                <polygon id="-copy-3" fill="#99CD48" points="14.5684011 13.9416389 11.0982783 13.9416389 11.0982783 15.6843437 11.9543438 15.6843437 10.2269259 17.1365978 8.48422102 15.6843437 9.35557345 15.6843437 9.35557345 13.9416389 5.87016373 13.9416389 5.87016373 15.6843437 6.74151616 15.6843437 9.35557345 17.8550813 6.74151616 20.025819 5.87016373 20.025819 5.87016373 21.7685238 9.35557345 21.7685238 9.35557345 20.025819 8.48422102 20.025819 10.2269259 18.5735649 11.9543438 20.025819 11.0982783 20.025819 11.0982783 21.7685238 14.5684011 21.7685238 14.5684011 20.025819 13.6970487 20.025819 11.0982783 17.8550813 13.6970487 15.6843437 14.5684011 15.6843437"></polygon>
            </g>
        </g>
    </g>
</svg>
