<svg viewBox="0 0 25.5 27" xmlns="http://www.w3.org/2000/svg">
    <g data-name="Work-Office-Companies / Office-Files / office-file-xls">
        <g data-name="Group 181" fill="none" stroke="currentColor" stroke-linecap="round"
            stroke-linejoin="round">
            <path
                d="M18.5 23.5a1 1 0 0 0 1-1V6.473A5.975 5.975 0 0 0 13.525.5H1.5a1 1 0 0 0-1 1v21a1 1 0 0 0 1 1z"
                data-name="Shape 1197"/>
            <path d="M14.5.58v3.921a1 1 0 0 0 1 1h3.92" data-name="Shape 1198"/>
            <path d="M3.5 18.47l3-6" data-name="Shape 1199"/>
            <path d="M6.5 18.47l-3-6" data-name="Shape 1200"/>
            <path d="M8.5 12.47v5a1 1 0 0 0 1 1h2" data-name="Shape 1201"/>
            <path
                d="M16.5 12.47h-1.7a1.3 1.3 0 0 0-.723 2.387l1.84 1.227a1.3 1.3 0 0 1-.723 2.386H13.5"
                data-name="Shape 1202"/>
        </g>
    </g>
</svg>
