<?xml version="1.0" encoding="UTF-8"?>
<svg viewBox="0 0 19 14" version="1.1" xmlns="http://www.w3.org/2000/svg" xmlns:xlink="http://www.w3.org/1999/xlink">
    <g stroke="none" stroke-width="1" fill="none" fill-rule="evenodd">
        <g transform="translate(0.000000, -0.000000)" fill-rule="nonzero">
            <path d="M18.6085338,2.08159525 C18.3895025,1.26765671 17.7477739,0.626073122 16.9339803,0.406896797 C15.4471473,0 9.49981511,0 9.49981511,0 C9.49981511,0 3.55262789,0 2.06579485,0.391386294 C1.26765671,0.61041767 0.610272684,1.26780166 0.391241345,2.08159525 C0,3.56828334 0,6.65153761 0,6.65153761 C0,6.65153761 0,9.75030234 0.391241345,11.2214799 C0.61041767,12.0352735 1.25200126,12.6770021 2.0659398,12.8961784 C3.56828334,13.3030752 9.49996006,13.3030752 9.49996006,13.3030752 C9.49996006,13.3030752 15.4471473,13.3030752 16.9339803,12.9116889 C17.7479189,12.6926575 18.3895025,12.050929 18.6086788,11.2371354 C19,9.75030234 19,6.66719302 19,6.66719302 C19,6.66719302 19.0155756,3.56828334 18.6085338,2.08159525 Z" id="Path" fill="#FF0000"></path>
            <polygon id="Path" fill="#FFFFFF" points="7.60623023 9.49996006 12.5517584 6.65153761 7.60623023 3.80311512"></polygon>
        </g>
    </g>
</svg>
