<?xml version="1.0" encoding="UTF-8"?>
<svg viewBox="0 0 25.5 27" version="1.1" xmlns="http://www.w3.org/2000/svg" xmlns:xlink="http://www.w3.org/1999/xlink">
    <title>ZIP File</title>
    <g id="Page-1" stroke="none" stroke-width="1" fill="none" fill-rule="evenodd">
        <g id="File-Icons" transform="translate(-688.000000, -311.000000)" fill-rule="nonzero">
            <g id="ZIP-File" transform="translate(688.000000, 311.725538)">
                <polygon id="Shape-Copy-397" fill="#E8E8E8" points="20 26.0152862 0 26.0152862 0 0 13.75 0 20 6.19411576"></polygon>
                <polygon id="Shape-Copy-396" fill="#585858" points="19.1453684 6.86277059 13.2078684 6.86277059 13.2078684 0.978360622"></polygon>
                <polygon id="Shape" fill="#585858" points="9.29442591 17.365901 11.006557 17.365901 11.006557 18.0996715 9.29442591 18.0996715"></polygon>
                <polygon id="Shape" fill="#585858" points="9.29442591 14.4308192 11.006557 14.4308192 11.006557 15.1645896 9.29442591 15.1645896"></polygon>
                <polygon id="Shape" fill="#585858" points="9.29442591 11.9849176 11.006557 11.9849176 11.006557 12.7186881 9.29442591 12.7186881"></polygon>
                <path d="M10.8842619,19.5672124 L9.17213083,19.5672124 C9.17213083,20.7290157 8.31606529,21.8908189 8.31606529,22.6653544 C8.31606529,23.5215794 9.08184288,24.2144254 10.0281964,24.2144254 C10.9745503,24.2144254 11.7403275,23.5215794 11.7403275,22.6653544 C11.7403275,21.8908189 10.8842619,20.7290157 10.8842619,19.5672124 Z M10.0281964,23.4398899 C9.55501941,23.4398899 9.17213083,23.0934669 9.17213083,22.6653544 C9.17213083,22.2372419 9.55501941,21.8908189 10.0281964,21.8908189 C10.5013733,21.8908189 10.8842619,22.2372419 10.8842619,22.6653544 C10.8842619,23.0934669 10.5013733,23.4398899 10.0281964,23.4398899 Z" id="Shape" fill="#585858"></path>
            </g>
        </g>
    </g>
</svg>
