<svg xmlns="http://www.w3.org/2000/svg" width="264" height="161"><g data-name="Group 364"><g data-name="Rectangle 4 Copy 2" fill="#e2e2e2" stroke="#e3e3e7" stroke-miterlimit="10"><rect width="264" height="161" rx="4" stroke="none"/><rect x=".5" y=".5" width="263" height="160" rx="3.5" fill="none"/></g><path data-name="Subtraction 1" d="M166.971 121.002H97.225V91.938H85.601v-.907l46.5-48.5 17.437 17.437v-10.53h11.624v22.154l17.437 19.436v.907h-11.624v29.06zM123.612 81.77a10.633 10.633 0 00-7.357 3.33 10.218 10.218 0 00-2.736 7.479c0 3.951 2.663 8.67 7.915 14.026a75.422 75.422 0 009.464 8.068l.069.067a1.784 1.784 0 001.04.333 1.774 1.774 0 001.039-.333l.09-.067a75.607 75.607 0 009.448-8.068c5.251-5.358 7.913-10.077 7.913-14.026a10.225 10.225 0 00-2.739-7.479 10.621 10.621 0 00-7.357-3.33 9.879 9.879 0 00-8.392 4.97 9.887 9.887 0 00-8.4-4.97z" fill="#fff"/></g></svg>