<?xml version="1.0" encoding="UTF-8"?>
<svg viewBox="0 0 389 409" version="1.1" xmlns="http://www.w3.org/2000/svg" xmlns:xlink="http://www.w3.org/1999/xlink">
    <style>
        circle {}
        
        @media (prefers-color-scheme: dark) {
            circle {}
        }
    </style>
    <title>Crosswired Logo</title>
    <g id="CrosswiredLogo" stroke="none" stroke-width="1" fill="none" fill-rule="evenodd">
        <g id="Group" transform="translate(5.000000, 5.000000)" fill="#238BA4" fill-rule="nonzero">
            <path d="M143.50565,162.986216 C154.799884,162.986216 163.156326,166.488142 170.836472,173.489508 C171.30735,173.871779 171.58988,174.439026 171.611301,175.04516 C171.632722,175.651294 171.39094,176.23707 170.948222,176.651629 L162.139812,185.799429 C161.768165,186.17874 161.259482,186.39249 160.728447,186.39249 C160.197412,186.39249 159.688728,186.17874 159.317081,185.799429 C155.104842,182.088947 149.684457,180.04122 144.071024,180.039733 C131.309135,180.039733 121.93535,190.655188 121.93535,203.30036 C121.93535,215.835437 131.421713,226.229875 144.183602,226.229875 C149.702901,226.225439 155.050369,224.309863 159.317081,220.808741 C160.186261,220.107741 161.439456,220.155805 162.25239,220.921319 L171.063284,230.295104 C171.820761,231.187655 171.771555,232.510821 170.949878,233.344646 C163.607402,240.476027 153.742308,244.413792 143.507305,244.298663 C128.938607,244.364401 115.44836,236.629817 108.144968,224.023797 C100.841576,211.417777 100.841576,195.867518 108.144968,183.261497 C115.44836,170.655477 128.938607,162.920893 143.507305,162.986216 L143.50565,162.986216 Z" id="Path_112"></path>
            <path d="M181.562021,166.826704 C181.29577,166.184027 181.388501,165.448542 181.805943,164.892066 C182.223386,164.335589 182.903544,164.040765 183.59505,164.116551 L196.807251,164.116551 C197.742004,164.18424 198.544004,164.808199 198.839452,165.697612 L208.552626,203.979968 L209.004594,203.979968 L226.509664,164.227474 C226.858516,163.480118 227.603782,162.997849 228.428459,162.985804 L230.46066,162.985804 C231.304551,162.931784 232.084547,163.435874 232.381938,164.227474 L249.88618,203.979968 L250.33732,203.979968 L260.049667,165.697612 C260.34523,164.807936 261.147633,164.183918 262.082695,164.116551 L275.294069,164.116551 C275.985563,164.040953 276.665643,164.335772 277.083174,164.892141 C277.500706,165.44851 277.593741,166.183882 277.327925,166.826704 L255.984438,242.720086 C255.726772,243.635543 254.902945,244.276484 253.952237,244.301146 L252.145193,244.301146 C251.329457,244.258588 250.597794,243.785734 250.223915,243.059476 L229.558379,196.869335 L229.218989,196.869335 L208.665204,243.059476 C208.292676,243.785819 207.561618,244.258893 206.74641,244.301146 L204.938537,244.301146 C203.98764,244.277015 203.163535,243.635858 202.906337,242.720086 L181.562021,166.826704 Z" id="Path_113"></path>
            <path d="M190.544266,385.024626 C88.6718265,385.024626 5.79280659,302.145607 5.79280659,200.273168 C5.79280659,98.4007284 88.6718265,15.5208808 190.544266,15.5208808 C292.416705,15.5208808 375.296552,98.4007284 375.296552,200.273168 C375.296552,302.145607 292.415877,385.024626 190.544266,385.024626 Z M190.544266,33.7030752 C98.6979016,33.7030752 23.9741733,108.426804 23.9741733,200.273168 C23.9741733,292.119531 98.6979016,366.84326 190.544266,366.84326 C282.39063,366.84326 357.114358,292.119531 357.114358,200.273168 C357.114358,108.426804 282.39063,33.7030752 190.544266,33.7030752 L190.544266,33.7030752 Z" id="Path_114"></path>
            <circle id="Ellipse_29" cx="190.49791" cy="23.9741733" r="23.9741733"></circle>
            <circle id="Ellipse_30" cx="190.49791" cy="376.025827" r="23.9741733"></circle>
            <circle id="Ellipse_31" cx="355.094574" cy="141.220976" r="23.9741733"></circle>
            <circle id="Ellipse_32" cx="23.9741733" cy="141.220976" r="23.9741733"></circle>
        </g>
    </g>
</svg>
