<svg xmlns="http://www.w3.org/2000/svg" height="53" width="60" opacity=".082" xmlns:v="https://vecta.io/nano"><path d="M56.9 0H38.025a3.093 3.093 0 0 0-3.1 3.079V21.8a3.093 3.093 0 0 0 3.1 3.079h9.032q-.177 7.353-3.44 11.774a18.684 18.684 0 0 1-7.778 5.777 3.065 3.065 0 0 0-1.54 4.132l2.235 4.68a3.114 3.114 0 0 0 4.041 1.5 34.537 34.537 0 0 0 10.41-6.7 25.968 25.968 0 0 0 7.1-11.2Q60 28.6 60 17.8V3.08A3.093 3.093 0 0 0 56.9 0zM6.582 52.742a35.118 35.118 0 0 0 10.361-6.689 25.838 25.838 0 0 0 7.139-11.161Q26 28.693 26 17.8V3.08A3.093 3.093 0 0 0 22.9 0H4.025a3.093 3.093 0 0 0-3.1 3.08V21.8a3.093 3.093 0 0 0 3.1 3.08h9.032q-.177 7.358-3.44 11.78a18.685 18.685 0 0 1-7.778 5.778A3.065 3.065 0 0 0 .3 46.571l2.23 4.67a3.123 3.123 0 0 0 4.053 1.502z"/></svg>